<svg width="564" height="320" viewBox="0 0 564 320" fill="none" xmlns="http://www.w3.org/2000/svg">
<path d="M284.474 276.069L284.475 276.069C293.599 273.117 315.142 265.412 334.399 252.957C353.67 240.492 370.57 223.324 370.57 201.465V106.805C370.57 100.613 366.561 95.119 360.653 93.2212L284.433 68.8306C284.432 68.8305 284.432 68.8305 284.432 68.8304C281.592 67.9315 278.553 67.9316 275.728 68.8304L284.474 276.069ZM284.474 276.069C281.577 277.011 278.583 277.011 275.686 276.069L275.685 276.069C266.561 273.117 245.018 265.412 225.761 252.957C206.49 240.492 189.59 223.324 189.59 201.465V106.805C189.59 100.598 193.599 95.1047 199.506 93.2214L199.506 93.2213L275.728 68.8305L284.474 276.069Z" stroke="black" stroke-width="0.5"/>
<path d="M370.82 201.465V177.8M370.82 201.465L358.626 197.568M370.82 201.465C370.82 213.153 366.019 223.497 358.626 232.496M189.34 201.465V177.8M189.34 201.465C189.34 213.153 194.141 223.497 201.534 232.496M189.34 201.465L201.534 197.568M358.626 197.568V177.083M358.626 197.568C358.626 207.739 354.426 216.734 347.968 224.553M201.534 197.568V177.083M201.534 197.568C201.534 207.739 205.734 216.734 212.192 224.553M280.01 81.9579C278.739 81.9645 277.47 82.1624 276.247 82.5516L259.752 87.8298M280.01 81.9579C281.324 81.9511 282.641 82.149 283.913 82.5516L300.408 87.8298M280.01 81.9579V67.9064M280.01 67.9064C278.538 67.9129 277.068 68.1415 275.652 68.5922L256.596 74.69M280.01 67.9064C281.525 67.8997 283.043 68.1283 284.508 68.5922L303.563 74.69M280.01 262.974C281.331 262.982 282.652 262.774 283.951 262.352C288.688 260.82 297.291 257.808 307.018 253.316M280.01 262.974C278.736 262.967 277.462 262.759 276.209 262.352C271.398 260.796 262.599 257.713 252.685 253.104M280.01 262.974V277.026M280.01 277.026C281.532 277.033 283.055 276.794 284.552 276.307C289.783 274.615 299.094 271.361 309.719 266.546M280.01 277.026C278.534 277.018 277.059 276.779 275.608 276.307C270.541 274.668 261.646 271.564 251.437 266.994M322.619 80.7877L316.902 93.1081M322.619 80.7877L303.563 74.69M322.619 80.7877L341.674 86.8854M316.902 93.1081L300.408 87.8298M316.902 93.1081L333.397 98.3864M303.563 74.69L300.408 87.8298M341.674 86.8854L360.73 92.9832C363.789 93.966 366.348 95.8966 368.123 98.3864M341.674 86.8854L333.397 98.3864M333.397 98.3864L349.891 103.665C352.386 104.466 354.497 105.996 356.018 107.973M368.123 98.3864C369.836 100.788 370.82 103.711 370.82 106.805V130.47M368.123 98.3864L356.018 107.973M356.018 107.973C357.669 110.118 358.626 112.79 358.626 115.629V136.113M370.82 154.135L358.626 156.598M370.82 154.135V177.8M370.82 154.135V130.47M358.626 156.598V177.083M358.626 156.598V136.113M370.82 177.8L358.626 177.083M370.82 130.47L358.626 136.113M237.541 80.7877L243.258 93.1081M237.541 80.7877L256.596 74.69M237.541 80.7877L218.486 86.8854M243.258 93.1081L259.752 87.8298M243.258 93.1081L226.763 98.3864M256.596 74.69L259.752 87.8298M218.486 86.8854L199.43 92.9832C196.366 93.96 193.804 95.8912 192.029 98.3864M218.486 86.8854L226.763 98.3864M226.763 98.3864L210.268 103.665C207.471 104.556 205.157 106.367 203.616 108.7M192.029 98.3864C190.32 100.786 189.34 103.708 189.34 106.805V130.47M192.029 98.3864L203.616 108.7M203.616 108.7C202.289 110.707 201.534 113.101 201.534 115.629V136.113M189.34 154.135L201.534 156.598M189.34 154.135V130.47M189.34 154.135V177.8M201.534 156.598V136.113M201.534 156.598V177.083M189.34 130.47L201.534 136.113M189.34 177.8L201.534 177.083M335.183 252.745L328.426 241.529M335.183 252.745C343.979 246.991 352.262 240.242 358.626 232.496M335.183 252.745C326.752 258.26 317.851 262.86 309.719 266.546M328.426 241.529C335.751 236.674 342.631 231.015 347.968 224.553M328.426 241.529C321.377 246.202 313.915 250.131 307.018 253.316M358.626 232.496L347.968 224.553M309.719 266.546L307.018 253.316M251.437 266.994L252.685 253.104M251.437 266.994C243.216 263.315 234.142 258.685 225.529 253.104M252.685 253.104C245.916 249.958 238.628 246.099 231.733 241.529M225.529 253.104L231.733 241.529M225.529 253.104C216.528 247.273 208.03 240.404 201.534 232.496M231.733 241.529C224.409 236.674 217.529 231.015 212.192 224.553M201.534 232.496L212.192 224.553" stroke="black" stroke-width="0.5" stroke-linecap="round" stroke-linejoin="round"/>
<path d="M302.928 198.232L305.195 198.968L306.596 200.896V203.28L305.195 205.208L302.928 205.944L300.662 205.208L299.261 203.28V200.896L300.662 198.968L302.928 198.232Z" fill="white"/>
<path fill-rule="evenodd" clip-rule="evenodd" d="M302.928 198.232L305.195 198.968L306.596 200.896V203.28L305.195 205.208L302.928 205.944L300.662 205.208L299.261 203.28V200.896L300.662 198.968L302.928 198.232Z" fill="white"/>
<path fill-rule="evenodd" clip-rule="evenodd" d="M307.138 196.294L302.929 194.926L298.719 196.294L296.117 199.875V204.301L298.719 207.882L302.929 209.25L307.138 207.882L309.74 204.301V199.875L307.138 196.294ZM305.195 198.968L302.928 198.232L300.662 198.968L299.261 200.896V203.28L300.662 205.208L302.928 205.944L305.195 205.208L306.596 203.28V200.896L305.195 198.968Z" fill="#1F4C85"/>
<path d="M298.719 196.294L302.929 194.926L305.683 193.273L301.473 194.641L298.719 196.294Z" fill="black"/>
<path d="M302.929 194.926L307.138 196.294L309.893 194.641L305.683 193.273L302.929 194.926Z" fill="black"/>
<path d="M307.138 196.294L309.74 199.875L312.494 198.222L309.893 194.641L307.138 196.294Z" fill="black"/>
<path d="M309.74 199.875V204.301L312.494 202.648V198.222L309.74 199.875Z" fill="black"/>
<path d="M309.74 204.301L307.138 207.882L309.893 206.229L312.494 202.648L309.74 204.301Z" fill="black"/>
<path d="M302.929 194.926L307.138 196.294M302.929 194.926L298.719 196.294M302.929 194.926L305.683 193.273M307.138 196.294L309.74 199.875M307.138 196.294L309.893 194.641M309.74 199.875V204.301M309.74 199.875L312.494 198.222M309.74 204.301L307.138 207.882M309.74 204.301L312.494 202.648M307.138 207.882L302.929 209.25L298.719 207.882L296.117 204.301V199.875L298.719 196.294M307.138 207.882L309.893 206.229L312.494 202.648M298.719 196.294L301.473 194.641L305.683 193.273M312.494 202.648V198.222M312.494 198.222L309.893 194.641M309.893 194.641L305.683 193.273M302.928 198.232L305.195 198.968L306.596 200.896V203.28L305.195 205.208L302.928 205.944L300.662 205.208L299.261 203.28V200.896L300.662 198.968L302.928 198.232Z" stroke="black" stroke-width="0.5"/>
<path d="M265.749 193.423L268.015 194.16L269.416 196.088V198.471L268.015 200.399L265.749 201.136L263.482 200.399L262.081 198.471V196.088L263.482 194.16L265.749 193.423Z" fill="white"/>
<path fill-rule="evenodd" clip-rule="evenodd" d="M265.749 193.423L268.015 194.16L269.416 196.088V198.471L268.015 200.399L265.749 201.136L263.482 200.399L262.081 198.471V196.088L263.482 194.16L265.749 193.423Z" fill="white"/>
<path fill-rule="evenodd" clip-rule="evenodd" d="M269.958 191.485L265.749 190.118L261.539 191.485L258.938 195.066V199.493L261.539 203.073L265.749 204.441L269.958 203.073L272.56 199.493V195.066L269.958 191.485ZM268.015 194.16L265.749 193.423L263.482 194.16L262.081 196.088V198.471L263.482 200.399L265.749 201.136L268.015 200.399L269.416 198.471V196.088L268.015 194.16Z" fill="#1F4C85"/>
<path d="M261.539 191.485L265.749 190.118L268.503 188.465L264.294 189.833L261.539 191.485Z" fill="black"/>
<path d="M265.749 190.118L269.958 191.485L272.713 189.833L268.503 188.465L265.749 190.118Z" fill="black"/>
<path d="M269.958 191.485L272.56 195.066L275.315 193.414L272.713 189.833L269.958 191.485Z" fill="black"/>
<path d="M272.56 195.066V199.493L275.315 197.84V193.414L272.56 195.066Z" fill="black"/>
<path d="M272.56 199.493L269.958 203.073L272.713 201.421L275.315 197.84L272.56 199.493Z" fill="black"/>
<path d="M265.749 190.118L269.958 191.485M265.749 190.118L261.539 191.485M265.749 190.118L268.503 188.465M269.958 191.485L272.56 195.066M269.958 191.485L272.713 189.833M272.56 195.066V199.493M272.56 195.066L275.315 193.414M272.56 199.493L269.958 203.073M272.56 199.493L275.315 197.84M269.958 203.073L265.749 204.441L261.539 203.073L258.938 199.493V195.066L261.539 191.485M269.958 203.073L272.713 201.421L275.315 197.84M261.539 191.485L264.294 189.833L268.503 188.465M275.315 197.84V193.414M275.315 193.414L272.713 189.833M272.713 189.833L268.503 188.465M265.749 193.423L268.015 194.16L269.416 196.088V198.471L268.015 200.399L265.749 201.136L263.482 200.399L262.081 198.471V196.088L263.482 194.16L265.749 193.423Z" stroke="black" stroke-width="0.5"/>
<path d="M224.78 188.872L227.047 189.609L228.447 191.537V193.92L227.047 195.848L224.78 196.585L222.513 195.848L221.112 193.92V191.537L222.513 189.609L224.78 188.872Z" fill="white"/>
<path fill-rule="evenodd" clip-rule="evenodd" d="M224.78 188.872L227.047 189.609L228.447 191.537V193.92L227.047 195.848L224.78 196.585L222.513 195.848L221.112 193.92V191.537L222.513 189.609L224.78 188.872Z" fill="white"/>
<path fill-rule="evenodd" clip-rule="evenodd" d="M228.99 186.935L224.78 185.567L220.57 186.935L217.969 190.516V194.942L220.57 198.523L224.78 199.89L228.99 198.523L231.591 194.942V190.516L228.99 186.935ZM227.047 189.609L224.78 188.872L222.513 189.609L221.112 191.537V193.92L222.513 195.848L224.78 196.585L227.047 195.848L228.447 193.92V191.537L227.047 189.609Z" fill="#1F4C85"/>
<path d="M220.57 186.935L224.78 185.567L227.535 183.914L223.325 185.282L220.57 186.935Z" fill="black"/>
<path d="M224.78 185.567L228.99 186.935L231.744 185.282L227.535 183.914L224.78 185.567Z" fill="black"/>
<path d="M228.99 186.935L231.591 190.516L234.346 188.863L231.744 185.282L228.99 186.935Z" fill="black"/>
<path d="M231.591 190.516V194.942L234.346 193.289V188.863L231.591 190.516Z" fill="black"/>
<path d="M231.591 194.942L228.99 198.523L231.744 196.87L234.346 193.289L231.591 194.942Z" fill="black"/>
<path d="M224.78 185.567L228.99 186.935M224.78 185.567L220.57 186.935M224.78 185.567L227.535 183.914M228.99 186.935L231.591 190.516M228.99 186.935L231.744 185.282M231.591 190.516V194.942M231.591 190.516L234.346 188.863M231.591 194.942L228.99 198.523M231.591 194.942L234.346 193.289M228.99 198.523L224.78 199.89L220.57 198.523L217.969 194.942V190.516L220.57 186.935M228.99 198.523L231.744 196.87L234.346 193.289M220.57 186.935L223.325 185.282L227.535 183.914M234.346 193.289V188.863M234.346 188.863L231.744 185.282M231.744 185.282L227.535 183.914M224.78 188.872L227.047 189.609L228.447 191.537V193.92L227.047 195.848L224.78 196.585L222.513 195.848L221.112 193.92V191.537L222.513 189.609L224.78 188.872Z" stroke="black" stroke-width="0.5"/>
<path d="M279.96 195.107L282.226 195.843L283.627 197.771V200.155L282.226 202.083L279.96 202.819L277.693 202.083L276.292 200.155V197.771L277.693 195.843L279.96 195.107Z" fill="white"/>
<path fill-rule="evenodd" clip-rule="evenodd" d="M279.96 195.107L282.226 195.843L283.627 197.771V200.155L282.226 202.083L279.96 202.819L277.693 202.083L276.292 200.155V197.771L277.693 195.843L279.96 195.107Z" fill="white"/>
<path fill-rule="evenodd" clip-rule="evenodd" d="M284.169 193.169L279.96 191.801L275.75 193.169L273.148 196.75V201.176L275.75 204.757L279.96 206.125L284.169 204.757L286.771 201.176V196.75L284.169 193.169ZM282.226 195.843L279.96 195.107L277.693 195.843L276.292 197.771V200.155L277.693 202.083L279.96 202.819L282.226 202.083L283.627 200.155V197.771L282.226 195.843Z" fill="#1F4C85"/>
<path d="M275.75 193.169L279.96 191.801L282.714 190.148L278.505 191.516L275.75 193.169Z" fill="black"/>
<path d="M279.96 191.801L284.169 193.169L286.924 191.516L282.714 190.148L279.96 191.801Z" fill="black"/>
<path d="M284.169 193.169L286.771 196.75L289.526 195.097L286.924 191.516L284.169 193.169Z" fill="black"/>
<path d="M286.771 196.75V201.176L289.526 199.523V195.097L286.771 196.75Z" fill="black"/>
<path d="M286.771 201.176L284.169 204.757L286.924 203.104L289.526 199.523L286.771 201.176Z" fill="black"/>
<path d="M279.96 191.801L284.169 193.169M279.96 191.801L275.75 193.169M279.96 191.801L282.714 190.148M284.169 193.169L286.771 196.75M284.169 193.169L286.924 191.516M286.771 196.75V201.176M286.771 196.75L289.526 195.097M286.771 201.176L284.169 204.757M286.771 201.176L289.526 199.523M284.169 204.757L279.96 206.125L275.75 204.757L273.148 201.176V196.75L275.75 193.169M284.169 204.757L286.924 203.104L289.526 199.523M275.75 193.169L278.505 191.516L282.714 190.148M289.526 199.523V195.097M289.526 195.097L286.924 191.516M286.924 191.516L282.714 190.148M279.96 195.107L282.226 195.843L283.627 197.771V200.155L282.226 202.083L279.96 202.819L277.693 202.083L276.292 200.155V197.771L277.693 195.843L279.96 195.107Z" stroke="black" stroke-width="0.5"/>
<path d="M238.995 190.556L241.261 191.292L242.662 193.221V195.604L241.261 197.532L238.995 198.269L236.728 197.532L235.327 195.604V193.221L236.728 191.292L238.995 190.556Z" fill="white"/>
<path fill-rule="evenodd" clip-rule="evenodd" d="M238.995 190.556L241.261 191.292L242.662 193.221V195.604L241.261 197.532L238.995 198.269L236.728 197.532L235.327 195.604V193.221L236.728 191.292L238.995 190.556Z" fill="white"/>
<path fill-rule="evenodd" clip-rule="evenodd" d="M243.205 188.618L238.995 187.25L234.785 188.618L232.184 192.199V196.625L234.785 200.206L238.995 201.574L243.205 200.206L245.806 196.625V192.199L243.205 188.618ZM241.261 191.292L238.995 190.556L236.728 191.292L235.327 193.221V195.604L236.728 197.532L238.995 198.269L241.261 197.532L242.662 195.604V193.221L241.261 191.292Z" fill="#1F4C85"/>
<path d="M234.785 188.618L238.995 187.25L241.749 185.598L237.54 186.965L234.785 188.618Z" fill="black"/>
<path d="M238.995 187.25L243.205 188.618L245.959 186.965L241.749 185.598L238.995 187.25Z" fill="black"/>
<path d="M243.205 188.618L245.806 192.199L248.561 190.546L245.959 186.965L243.205 188.618Z" fill="black"/>
<path d="M245.806 192.199V196.625L248.561 194.973V190.546L245.806 192.199Z" fill="black"/>
<path d="M245.806 196.625L243.205 200.206L245.959 198.554L248.561 194.973L245.806 196.625Z" fill="black"/>
<path d="M238.995 187.25L243.205 188.618M238.995 187.25L234.785 188.618M238.995 187.25L241.749 185.598M243.205 188.618L245.806 192.199M243.205 188.618L245.959 186.965M245.806 192.199V196.625M245.806 192.199L248.561 190.546M245.806 196.625L243.205 200.206M245.806 196.625L248.561 194.973M243.205 200.206L238.995 201.574L234.785 200.206L232.184 196.625V192.199L234.785 188.618M243.205 200.206L245.959 198.554L248.561 194.973M234.785 188.618L237.54 186.965L241.749 185.598M248.561 194.973V190.546M248.561 190.546L245.959 186.965M245.959 186.965L241.749 185.598M238.995 190.556L241.261 191.292L242.662 193.221V195.604L241.261 197.532L238.995 198.269L236.728 197.532L235.327 195.604V193.221L236.728 191.292L238.995 190.556Z" stroke="black" stroke-width="0.5"/>
<path d="M218.758 182.075L221.682 182.429V181.274L218.758 182.075Z" fill="#1F4C85"/>
<path d="M293.327 191.135L290.403 190.781L287.197 190.392V192.755V198.231L293.327 198.964V191.135Z" fill="#5A97D6"/>
<path d="M255.31 186.528L253.851 186.351L249.461 185.819V193.716L255.31 194.416V186.528Z" fill="#5A97D6"/>
<path d="M261.158 187.237L258.234 186.882V189.246L264.07 189.953L265.541 190.131L266.063 190.194L280.857 191.987L287.197 192.755V190.392L284.554 190.072L281.63 189.718L278.791 189.374L277.538 189.222L277.243 189.186L276.935 189.149L275.952 189.03L261.158 187.237Z" fill="#5A97D6"/>
<path d="M258.234 186.882L255.31 186.528V194.416L258.234 194.766V189.246V186.882Z" fill="#5A97D6"/>
<path d="M249.461 193.716V185.819L246.536 185.465V187.828V193.367L249.461 193.716Z" fill="#5A97D6"/>
<path d="M218.758 184.462L221.682 184.816L236.476 186.609L246.536 187.828V185.465L243.612 185.111L238.062 184.438L237.767 184.402L237.459 184.365L222.27 182.501L221.682 182.429L218.758 182.075V184.462Z" fill="#5A97D6"/>
<path d="M258.234 189.246V194.766L259.359 194.458L261.538 191.459L264.021 189.969L264.07 189.953L258.234 189.246Z" fill="#93BAE6"/>
<path d="M221.682 181.274V182.429L222.27 182.501L290.403 190.775V149.294L221.682 140.966V164.816V181.274Z" fill="white"/>
<path d="M239.4 136.113L221.682 140.966L290.403 149.294L308.121 144.441L239.4 136.113Z" fill="#1F4C85"/>
<path d="M337.086 197.268L328.739 199.554V196.344L337.086 194.058V197.268Z" fill="#1F4C85"/>
<path d="M313.798 185.012V175.207V164.926V163.43L312.25 163.242L293.427 160.961L293.341 186.946L305.171 188.394L312.25 189.251L313.798 193.616V185.012Z" fill="white"/>
<path d="M313.798 175.207V185.012V193.616L322.445 194.658V178.352L318.122 176.779L313.798 175.207Z" fill="white"/>
<path d="M318.122 165.45L313.798 163.43V164.926L318.122 165.45Z" fill="white"/>
<path d="M328.419 158.202L311.145 156.108L308.121 156.937L293.427 160.961L312.25 163.242L313.798 163.43L331.516 158.577L328.419 158.202Z" fill="#1F4C85"/>
<path d="M331.516 158.577L313.798 163.43L318.122 165.45L335.84 160.597L331.516 158.577Z" fill="#5A97D6"/>
<path d="M318.122 176.779L322.445 178.352C320.757 173.313 319.81 170.488 318.122 165.45L313.798 164.926V175.207L318.122 176.779Z" fill="#93BAE6"/>
<path d="M318.122 165.45C319.81 170.488 320.757 173.313 322.445 178.352L340.163 173.499L335.84 160.597L318.122 165.45Z" fill="#93BAE6"/>
<path d="M308.121 144.441L290.403 149.294V190.775L293.327 191.13L293.341 186.946L293.427 160.961L308.121 156.937V148.011V144.441Z" fill="#1F4C85"/>
<path d="M293.327 191.135V198.964L296.278 199.317V193.856L299.229 194.213L301.811 194.526L306.537 195.099L310.101 195.531L313.476 201.32L319.713 202.12V197.568L324.053 198.087V195.825L322.445 194.658L313.798 193.616L312.25 189.251L305.171 188.394L293.341 186.946L293.327 191.13L293.327 191.135Z" fill="#5A97D6"/>
<path d="M324.053 202.639V198.087L319.713 197.568V202.12L324.053 202.639Z" fill="#93BAE6"/>
<path d="M324.053 198.087V202.639L325.949 202.12V197.568L324.053 198.087Z" fill="#93BAE6"/>
<path d="M341.771 197.786V193.235L339.876 193.754V198.306L341.771 197.786Z" fill="#93BAE6"/>
<path fill-rule="evenodd" clip-rule="evenodd" d="M341.771 190.972L324.053 195.825V198.087L325.949 197.568V202.12L339.876 198.306V193.754L341.771 193.235V190.972ZM337.086 197.268L328.739 199.554V196.344L337.086 194.058V197.268Z" fill="#5A97D6"/>
<path d="M322.445 194.658L324.053 195.825L341.771 190.972L340.163 189.805L338.927 190.144L323.682 194.319L322.445 194.658Z" fill="#5A97D6"/>
<path fill-rule="evenodd" clip-rule="evenodd" d="M340.163 173.499L322.445 178.352V194.658L323.682 194.319V192.403V190.487L338.927 186.312V188.228V190.144L340.163 189.805V173.499ZM323.682 180.75V181.64L325.769 181.069V180.179L323.682 180.75ZM338.927 176.572V177.463L336.84 178.034V177.144L338.927 176.572Z" fill="white"/>
<path d="M323.682 181.64V180.75L325.769 180.179V181.069L323.682 181.64Z" fill="#1F4C85"/>
<path d="M338.927 177.463V176.572L336.84 177.144V178.034L338.927 177.463Z" fill="#1F4C85"/>
<path d="M338.927 186.312L323.682 190.487V192.403L338.927 188.228V186.312Z" fill="#1F4C85"/>
<path d="M323.682 194.319L338.927 190.144V188.228L323.682 192.403V194.319Z" fill="#1F4C85"/>
<path d="M299.229 194.213L296.278 193.856V199.317L296.577 199.235L298.717 196.289L301.472 194.637L301.811 194.526L299.229 194.213Z" fill="#1F4C85"/>
<path d="M258.234 186.882L261.158 187.237L275.952 189.03L276.935 189.149M258.234 186.882L255.31 186.528M258.234 186.882V189.246M293.327 191.135L290.403 190.781M293.327 191.135V198.964M293.327 191.135L293.327 191.13M293.327 191.135L293.427 160.961M290.403 190.781L287.197 190.392M290.403 190.781V190.775M287.197 190.392L284.554 190.072L281.63 189.718L278.791 189.374L277.538 189.222M287.197 190.392V192.755M218.758 182.075V184.462L221.682 184.816L236.476 186.609L246.536 187.828M218.758 182.075L221.682 182.429M218.758 182.075L221.682 181.274M218.758 182.075L222.27 182.501M221.682 182.429V181.274M221.682 182.429L222.27 182.501M221.682 181.274V164.816V140.966M238.062 184.443V184.438M276.935 189.15V189.149M277.538 189.234V189.222M238.062 184.438L237.767 184.402L237.459 184.365L222.27 182.501M238.062 184.438L243.612 185.111L246.536 185.465M276.935 189.149L277.243 189.186L277.538 189.222M255.31 186.528L253.851 186.351L249.461 185.819M255.31 186.528L249.461 185.819M255.31 186.528V194.416M249.461 185.819V193.716M249.461 185.819L246.536 185.465M313.798 175.207V185.012V193.616M313.798 175.207L318.122 176.779L322.445 178.352M313.798 175.207V164.926M313.798 193.616L322.445 194.658M313.798 193.616L312.25 189.251L305.171 188.394L293.341 186.946M293.327 198.964L287.197 198.231V192.755M293.327 198.964L296.278 199.317M255.31 194.416L249.461 193.716M255.31 194.416L258.234 194.766M249.461 193.716L246.536 193.367V187.828M258.234 194.766V189.246M258.234 194.766L259.359 194.458L261.538 191.459L264.021 189.969L264.07 189.953M246.536 185.465V187.828M258.234 189.246L264.07 189.953M287.197 192.755L280.857 191.987L266.063 190.194L265.541 190.131L264.07 189.953M221.682 140.966L239.4 136.113L308.121 144.441M221.682 140.966L290.403 149.294M222.27 182.501L290.403 190.775M293.327 191.13L290.403 190.775M293.327 191.13L293.341 186.946M290.403 149.294L308.121 144.441M290.403 149.294V190.775M308.121 144.441V148.011V156.937M293.427 160.961L308.121 156.937M293.427 160.961L312.25 163.242L313.798 163.43M293.427 160.961L293.341 186.946M308.121 156.937L311.145 156.108L328.419 158.202L331.516 158.577M322.445 178.352C320.757 173.313 319.81 170.488 318.122 165.45M322.445 178.352L340.163 173.499M322.445 178.352V194.658M313.798 163.43L331.516 158.577M313.798 163.43L318.122 165.45M313.798 163.43V164.926M331.516 158.577L335.84 160.597M318.122 165.45L335.84 160.597M318.122 165.45L313.798 164.926M340.163 173.499L335.84 160.597M340.163 173.499V189.805M324.053 202.639V195.825M324.053 202.639L325.949 202.12M324.053 202.639L319.713 202.12M324.053 202.639V198.087M341.771 197.786V190.972M341.771 197.786L339.876 198.306M341.771 197.786V193.235M324.053 195.825L322.445 194.658M324.053 195.825L341.771 190.972M324.053 195.825V198.087M322.445 194.658L323.682 194.319M340.163 189.805L341.771 190.972M340.163 189.805L338.927 190.144M341.771 190.972V193.235M319.713 202.12L313.475 201.32L310.101 195.531L306.537 195.099L301.811 194.526M319.713 202.12V197.568L324.053 198.087M325.949 202.12V197.568L324.053 198.087M325.949 202.12L339.876 198.306M341.771 193.235L339.876 193.754V198.306M323.682 194.319L338.927 190.144M323.682 194.319V192.403M338.927 190.144V188.228M323.682 192.403V190.487L338.927 186.312V188.228M323.682 192.403L338.927 188.228M296.278 199.317V193.856L299.229 194.213L301.811 194.526M296.278 199.317L296.577 199.235L298.717 196.289L301.472 194.637L301.811 194.526M323.682 181.64V180.75L325.769 180.179V181.069L323.682 181.64ZM328.739 199.554L337.086 197.268V194.058L328.739 196.344V199.554ZM338.927 177.463V176.572L336.84 177.144V178.034L338.927 177.463Z" stroke="black" stroke-width="0.5"/>
<path d="M155.67 38.3103V32.1532C155.67 28.7529 152.913 25.9961 149.513 25.9961C146.112 25.9961 143.355 28.7529 143.355 32.1532V38.3103" stroke="#012750" stroke-width="1.59305" stroke-miterlimit="10"/>
<path d="M160.285 38.3125H138.735C137.035 38.3125 135.656 39.6908 135.656 41.3911V53.7053C135.656 55.4055 137.035 56.7839 138.735 56.7839H160.285C161.985 56.7839 163.363 55.4055 163.363 53.7053V41.3911C163.363 39.6908 161.985 38.3125 160.285 38.3125Z" stroke="#012750" stroke-width="1.59305" stroke-miterlimit="10" stroke-linecap="square"/>
<path d="M149.508 46.0039V50.6217" stroke="#3274BA" stroke-width="1.59305" stroke-miterlimit="10" stroke-linecap="square"/>
<path d="M149.512 47.5473C150.362 47.5473 151.051 46.8581 151.051 46.008C151.051 45.1579 150.362 44.4688 149.512 44.4688C148.662 44.4688 147.973 45.1579 147.973 46.008C147.973 46.8581 148.662 47.5473 149.512 47.5473Z" fill="#3274BA" stroke="#3274BA" stroke-width="1.59305" stroke-miterlimit="10" stroke-linecap="square"/>
<circle cx="149.593" cy="43.5964" r="28.6355" stroke="#1D416F"/>
<circle cx="149.594" cy="43.5937" r="43.0937" stroke="#5A97D6"/>
<circle cx="149.595" cy="43.5988" r="35.7551" stroke="#245FA5"/>
<circle cx="416.593" cy="275.405" r="28.6355" stroke="#1D416F"/>
<circle cx="416.594" cy="275.402" r="43.0937" stroke="#5A97D6"/>
<circle cx="416.595" cy="275.407" r="35.7551" stroke="#245FA5"/>
<path d="M419.382 280.893H401.535V266.605H432.308V280.893H429.011" stroke="#3274BA" stroke-width="1.59305" stroke-miterlimit="10"/>
<path d="M408.129 264.956V261.659C408.129 260.445 409.113 259.461 410.327 259.461C411.541 259.461 412.525 260.445 412.525 261.659V264.956" stroke="#012750" stroke-width="1.59305" stroke-miterlimit="10" stroke-linecap="square"/>
<path d="M412.523 264.957V260.561C412.523 259.347 413.508 258.363 414.721 258.363C415.935 258.363 416.92 259.347 416.92 260.561V264.957" stroke="#012750" stroke-width="1.59305" stroke-miterlimit="10" stroke-linecap="square"/>
<path d="M416.922 264.959V259.464C416.922 258.25 417.906 257.266 419.12 257.266C420.334 257.266 421.318 258.25 421.318 259.464V264.959" stroke="#012750" stroke-width="1.59305" stroke-miterlimit="10" stroke-linecap="square"/>
<path d="M421.316 264.957V260.561C421.316 259.347 422.301 258.363 423.514 258.363C424.728 258.363 425.713 259.347 425.713 260.561V264.957" stroke="#012750" stroke-width="1.59305" stroke-miterlimit="10" stroke-linecap="square"/>
<path d="M416.919 276.499C418.437 276.499 419.667 275.269 419.667 273.751C419.667 272.234 418.437 271.004 416.919 271.004C415.402 271.004 414.172 272.234 414.172 273.751C414.172 275.269 415.402 276.499 416.919 276.499Z" stroke="#3274BA" stroke-width="1.59305" stroke-miterlimit="10" stroke-linecap="square"/>
<path d="M410.326 271.004H405.93" stroke="#3274BA" stroke-width="1.59305" stroke-miterlimit="10" stroke-linecap="square"/>
<path d="M408.129 282.544V283.093C408.129 288.859 412.804 293.534 418.57 293.534C424.336 293.534 429.01 288.859 429.01 283.093V282.544V272.652C426.527 272.652 424.614 274.565 424.614 277.048V280.346C421.225 280.346 418.02 282.727 418.02 285.841" stroke="#012750" stroke-width="1.59305" stroke-miterlimit="10" stroke-linecap="square"/>
<path d="M417 193H417.5V192.5H417V193ZM417 230.887L419.887 228L417 225.113L414.113 228L417 230.887ZM375 193.5H377.1V192.5H375V193.5ZM381.3 193.5H385.5V192.5H381.3V193.5ZM389.7 193.5H393.9V192.5H389.7V193.5ZM398.1 193.5H402.3V192.5H398.1V193.5ZM406.5 193.5H410.7V192.5H406.5V193.5ZM414.9 193.5H417V192.5H414.9V193.5ZM416.5 193V194.75H417.5V193H416.5ZM416.5 198.25V201.75H417.5V198.25H416.5ZM416.5 205.25V208.75H417.5V205.25H416.5ZM416.5 212.25V215.75H417.5V212.25H416.5ZM416.5 219.25V222.75H417.5V219.25H416.5ZM416.5 226.25V228H417.5V226.25H416.5Z" fill="#3274BA"/>
<path d="M146.898 160.505H146.398V161.005H146.898V160.505ZM146.898 90.0976L144.012 92.9844L146.898 95.8711L149.785 92.9844L146.898 90.0976ZM146.398 92.9844V94.8599H147.398V92.9844H146.398ZM146.398 98.6111V102.362H147.398V98.6111H146.398ZM146.398 106.113V109.864H147.398V106.113H146.398ZM146.398 113.616V117.367H147.398V113.616H146.398ZM146.398 121.118V124.869H147.398V121.118H146.398ZM146.398 128.62V132.371H147.398V128.62H146.398ZM146.398 136.122V139.873H147.398V136.122H146.398ZM146.398 143.624V147.376H147.398V143.624H146.398ZM146.398 151.127V154.878H147.398V151.127H146.398ZM146.398 158.629V160.505H147.398V158.629H146.398ZM146.898 161.005H148.866V160.005H146.898V161.005ZM152.802 161.005H156.737V160.005H152.802V161.005ZM160.673 161.005H164.608V160.005H160.673V161.005ZM168.543 161.005H172.479V160.005H168.543V161.005ZM176.414 161.005H180.35V160.005H176.414V161.005ZM184.285 161.005H186.253V160.005H184.285V161.005Z" fill="#3274BA"/>
</svg>
