<svg width="1067" height="495" viewBox="0 0 1067 495" fill="none" xmlns="http://www.w3.org/2000/svg">
<path d="M474.96 271.788L466.703 263.613V185.974L471.961 183.057L480.218 180.141L595.814 216.947L604.071 225.122V302.761L598.813 305.678L590.556 308.594L561.657 299.393L547.207 294.792L545.241 294.166V297.294L550.499 298.968L564.948 303.569V305.472L549.174 314.222L505.826 300.42V298.516L521.6 289.767L525.533 291.019V287.891L518.308 285.59L503.859 280.989L474.96 271.788Z" fill="white"/>
<path d="M474.96 183.057L466.703 185.974M474.96 183.057L590.556 219.864M474.96 183.057L480.218 180.141M466.703 185.974V263.613L474.96 271.788L503.859 280.989L518.308 285.59L525.533 287.891M466.703 185.974L471.961 183.057L480.218 180.141M590.556 219.864L598.813 228.039M590.556 219.864L595.814 216.947M598.813 228.039V305.678M598.813 228.039L604.071 225.122M598.813 305.678L590.556 308.594L561.657 299.393L547.207 294.792L545.241 294.166M598.813 305.678L604.071 302.761V225.122M604.071 225.122L595.814 216.947M595.814 216.947L480.218 180.141M539.983 292.491L532.758 290.191L525.533 287.891M539.983 292.491V304.801M539.983 292.491L545.241 294.166M525.533 287.891V291.019M539.983 304.801L525.533 300.201V291.019M539.983 304.801L545.241 301.885V298.025V297.294M545.241 294.166V297.294M549.174 312.319L505.826 298.516M549.174 312.319L564.948 303.569M549.174 312.319V314.222M505.826 298.516L521.6 289.767L525.533 291.019M505.826 298.516V300.42L549.174 314.222M564.948 303.569L550.499 298.968L545.241 297.294M564.948 303.569V305.472L549.174 314.222M474.96 268.282L590.556 305.089L595.527 303.333V228.29L590.556 223.369L474.96 186.563L470.209 188.241V263.578L474.96 268.282Z" stroke="#012750" stroke-width="0.438175"/>
<path d="M539.984 304.798V292.488L545.242 294.163V297.291V298.022V301.882L539.984 304.798Z" fill="#245FA5"/>
<path d="M549.176 312.316L564.95 303.566V305.469L549.176 314.219V312.316Z" fill="#245FA5"/>
<path d="M539.984 304.798V292.488L545.242 294.163V297.291V298.022V301.882L539.984 304.798Z" stroke="#012750" stroke-width="0.438175"/>
<path d="M549.176 312.316L564.95 303.566V305.469L549.176 314.219V312.316Z" stroke="#012750" stroke-width="0.438175"/>
<path d="M474.958 268.282L590.555 305.089L595.525 303.333V228.29L590.555 223.369L474.958 186.562L470.207 188.241V263.578L474.958 268.282Z" fill="#E5EDF9" stroke="#012750" stroke-width="0.438175"/>
<path d="M474.96 183.057L466.703 185.974L471.961 183.057L480.218 180.141L595.814 216.947L604.071 225.122V302.761L598.813 305.678V228.039L590.556 219.864L474.96 183.057Z" fill="#245FA5"/>
<path d="M474.96 183.057L466.703 185.974L471.961 183.057L480.218 180.141M474.96 183.057L590.556 219.864M474.96 183.057L480.218 180.141M590.556 219.864L598.813 228.039M590.556 219.864L595.814 216.947M598.813 228.039V305.678L604.071 302.761V225.122M598.813 228.039L604.071 225.122M604.071 225.122L595.814 216.947M595.814 216.947L480.218 180.141" stroke="#012750" stroke-width="0.438175"/>
<path d="M465.387 324.722L481.161 315.973L524.51 329.775V331.678L508.735 340.428L465.387 326.626V324.722Z" fill="white"/>
<path d="M508.735 338.525L465.387 324.722M508.735 338.525L524.51 329.775M508.735 338.525V340.428M465.387 324.722L481.161 315.973L524.51 329.775M465.387 324.722V326.626L508.735 340.428M524.51 329.775V331.678L508.735 340.428" stroke="#012750" stroke-width="0.438175"/>
<path d="M508.738 338.527L524.513 329.777V331.681L508.738 340.43V338.527Z" fill="#245FA5" stroke="#012750" stroke-width="0.438175"/>
<path d="M481.602 319.192V316.75L483.792 315.535L486.86 316.512V318.954L484.669 320.169L481.602 319.192Z" fill="white"/>
<path d="M481.602 316.75V319.192L484.669 320.169M481.602 316.75L484.669 317.727M481.602 316.75L483.792 315.535L486.86 316.512M484.669 320.169V317.727M484.669 320.169L486.86 318.954V316.512M484.669 317.727L486.86 316.512" stroke="#012750" stroke-width="0.438175"/>
<path d="M484.668 317.727V320.169L486.859 318.954V316.512L484.668 317.727Z" fill="#5A97D6" stroke="#012750" stroke-width="0.438175"/>
<path d="M487.734 320.946V318.504L489.925 317.289L492.992 318.266V320.708L490.802 321.923L487.734 320.946Z" fill="white"/>
<path d="M487.734 318.504V320.946L490.802 321.923M487.734 318.504L490.802 319.481M487.734 318.504L489.925 317.289L492.992 318.266M490.802 321.923V319.481M490.802 321.923L492.992 320.708V318.266M490.802 319.481L492.992 318.266" stroke="#012750" stroke-width="0.438175"/>
<path d="M490.801 319.481V321.923L492.992 320.707V318.266L490.801 319.481Z" fill="#5A97D6" stroke="#012750" stroke-width="0.438175"/>
<path d="M493.871 323.138V320.696L496.062 319.48L499.129 320.457V322.899L496.938 324.114L493.871 323.138Z" fill="white"/>
<path d="M493.871 320.696V323.138L496.938 324.114M493.871 320.696L496.938 321.672M493.871 320.696L496.062 319.48L499.129 320.457M496.938 324.114V321.672M496.938 324.114L499.129 322.899V320.457M496.938 321.672L499.129 320.457" stroke="#012750" stroke-width="0.438175"/>
<path d="M496.938 321.672V324.114L499.128 322.899V320.457L496.938 321.672Z" fill="#5A97D6" stroke="#012750" stroke-width="0.438175"/>
<path d="M500.004 324.888V322.446L502.195 321.23L505.262 322.207V324.649L503.071 325.864L500.004 324.888Z" fill="white"/>
<path d="M500.004 322.446V324.888L503.071 325.864M500.004 322.446L503.071 323.422M500.004 322.446L502.195 321.23L505.262 322.207M503.071 325.864V323.422M503.071 325.864L505.262 324.649V322.207M503.071 323.422L505.262 322.207" stroke="#012750" stroke-width="0.438175"/>
<path d="M503.07 323.422V325.864L505.261 324.649V322.207L503.07 323.422Z" fill="#5A97D6" stroke="#012750" stroke-width="0.438175"/>
<path d="M506.141 327.079V324.637L508.331 323.422L511.399 324.398V326.84L509.208 328.056L506.141 327.079Z" fill="white"/>
<path d="M506.141 324.637V327.079L509.208 328.056M506.141 324.637L509.208 325.614M506.141 324.637L508.331 323.422L511.399 324.398M509.208 328.056V325.614M509.208 328.056L511.399 326.84V324.398M509.208 325.614L511.399 324.398" stroke="#012750" stroke-width="0.438175"/>
<path d="M509.207 325.614V328.056L511.398 326.84V324.398L509.207 325.614Z" fill="#5A97D6" stroke="#012750" stroke-width="0.438175"/>
<path d="M512.273 329.27V326.828L514.464 325.613L517.532 326.59V329.032L515.341 330.247L512.273 329.27Z" fill="white"/>
<path d="M512.273 326.828V329.27L515.341 330.247M512.273 326.828L515.341 327.805M512.273 326.828L514.464 325.613L517.532 326.59M515.341 330.247V327.805M515.341 330.247L517.532 329.032V326.59M515.341 327.805L517.532 326.59" stroke="#012750" stroke-width="0.438175"/>
<path d="M515.34 327.805V330.247L517.531 329.032V326.59L515.34 327.805Z" fill="#5A97D6" stroke="#012750" stroke-width="0.438175"/>
<path d="M476.781 321.821V319.379L478.972 318.164L482.039 319.141V321.583L479.848 322.798L476.781 321.821Z" fill="white"/>
<path d="M476.781 319.379V321.821L479.848 322.798M476.781 319.379L479.848 320.356M476.781 319.379L478.972 318.164L482.039 319.141M479.848 322.798V320.356M479.848 322.798L482.039 321.583V319.141M479.848 320.356L482.039 319.141" stroke="#012750" stroke-width="0.438175"/>
<path d="M479.848 320.356V322.798L482.039 321.582V319.141L479.848 320.356Z" fill="#5A97D6" stroke="#012750" stroke-width="0.438175"/>
<path d="M482.914 323.575V321.133L485.105 319.918L488.172 320.895V323.336L485.981 324.552L482.914 323.575Z" fill="white"/>
<path d="M482.914 321.133V323.575L485.981 324.552M482.914 321.133L485.981 322.11M482.914 321.133L485.105 319.918L488.172 320.895M485.981 324.552V322.11M485.981 324.552L488.172 323.336V320.895M485.981 322.11L488.172 320.895" stroke="#012750" stroke-width="0.438175"/>
<path d="M485.984 322.11V324.552L488.175 323.336V320.895L485.984 322.11Z" fill="#5A97D6" stroke="#012750" stroke-width="0.438175"/>
<path d="M489.051 325.766V323.325L491.242 322.109L494.309 323.086V325.528L492.118 326.743L489.051 325.766Z" fill="white"/>
<path d="M489.051 323.325V325.766L492.118 326.743M489.051 323.325L492.118 324.301M489.051 323.325L491.242 322.109L494.309 323.086M492.118 326.743V324.301M492.118 326.743L494.309 325.528V323.086M492.118 324.301L494.309 323.086" stroke="#012750" stroke-width="0.438175"/>
<path d="M492.117 324.301V326.743L494.308 325.528V323.086L492.117 324.301Z" fill="#5A97D6" stroke="#012750" stroke-width="0.438175"/>
<path d="M495.184 327.516V325.075L497.374 323.859L500.442 324.836V327.278L498.251 328.493L495.184 327.516Z" fill="white"/>
<path d="M495.184 325.075V327.516L498.251 328.493M495.184 325.075L498.251 326.051M495.184 325.075L497.374 323.859L500.442 324.836M498.251 328.493V326.051M498.251 328.493L500.442 327.278V324.836M498.251 326.051L500.442 324.836" stroke="#012750" stroke-width="0.438175"/>
<path d="M498.25 326.051V328.493L500.441 327.278V324.836L498.25 326.051Z" fill="#5A97D6" stroke="#012750" stroke-width="0.438175"/>
<path d="M501.32 329.708V327.266L503.511 326.051L506.578 327.027V329.469L504.388 330.684L501.32 329.708Z" fill="white"/>
<path d="M501.32 327.266V329.708L504.388 330.684M501.32 327.266L504.388 328.243M501.32 327.266L503.511 326.051L506.578 327.027M504.388 330.684V328.243M504.388 330.684L506.578 329.469V327.027M504.388 328.243L506.578 327.027" stroke="#012750" stroke-width="0.438175"/>
<path d="M504.387 328.243V330.684L506.578 329.469V327.027L504.387 328.243Z" fill="#5A97D6" stroke="#012750" stroke-width="0.438175"/>
<path d="M507.453 331.899V329.457L509.644 328.242L512.711 329.219V331.661L510.52 332.876L507.453 331.899Z" fill="white"/>
<path d="M507.453 329.457V331.899L510.52 332.876M507.453 329.457L510.52 330.434M507.453 329.457L509.644 328.242L512.711 329.219M510.52 332.876V330.434M510.52 332.876L512.711 331.661V329.219M510.52 330.434L512.711 329.219" stroke="#012750" stroke-width="0.438175"/>
<path d="M510.52 330.434V332.876L512.71 331.661V329.219L510.52 330.434Z" fill="#5A97D6" stroke="#012750" stroke-width="0.438175"/>
<path d="M472.398 324.348V321.907L474.589 320.691L477.657 321.668V324.11L475.466 325.325L472.398 324.348Z" fill="white"/>
<path d="M472.398 321.907V324.348L475.466 325.325M472.398 321.907L475.466 322.883M472.398 321.907L474.589 320.691L477.657 321.668M475.466 325.325V322.883M475.466 325.325L477.657 324.11V321.668M475.466 322.883L477.657 321.668" stroke="#012750" stroke-width="0.438175"/>
<path d="M475.465 322.883V325.325L477.656 324.11V321.668L475.465 322.883Z" fill="#5A97D6" stroke="#012750" stroke-width="0.438175"/>
<path d="M478.535 326.102V323.661L480.726 322.445L483.793 323.422V325.864L481.602 327.079L478.535 326.102Z" fill="white"/>
<path d="M478.535 323.661V326.102L481.602 327.079M478.535 323.661L481.602 324.637M478.535 323.661L480.726 322.445L483.793 323.422M481.602 327.079V324.637M481.602 327.079L483.793 325.864V323.422M481.602 324.637L483.793 323.422" stroke="#012750" stroke-width="0.438175"/>
<path d="M481.602 324.637V327.079L483.792 325.864V323.422L481.602 324.637Z" fill="#5A97D6" stroke="#012750" stroke-width="0.438175"/>
<path d="M484.668 328.294V325.852L486.859 324.637L489.926 325.613V328.055L487.735 329.27L484.668 328.294Z" fill="white"/>
<path d="M484.668 325.852V328.294L487.735 329.27M484.668 325.852L487.735 326.829M484.668 325.852L486.859 324.637L489.926 325.613M487.735 329.27V326.829M487.735 329.27L489.926 328.055V325.613M487.735 326.829L489.926 325.613" stroke="#012750" stroke-width="0.438175"/>
<path d="M487.734 326.829V329.27L489.925 328.055V325.613L487.734 326.829Z" fill="#5A97D6" stroke="#012750" stroke-width="0.438175"/>
<path d="M490.801 330.048V327.606L492.992 326.391L496.059 327.367V329.809L493.868 331.024L490.801 330.048Z" fill="white"/>
<path d="M490.801 327.606V330.048L493.868 331.024M490.801 327.606L493.868 328.582M490.801 327.606L492.992 326.391L496.059 327.367M493.868 331.024V328.582M493.868 331.024L496.059 329.809V327.367M493.868 328.582L496.059 327.367" stroke="#012750" stroke-width="0.438175"/>
<path d="M493.871 328.582V331.024L496.062 329.809V327.367L493.871 328.582Z" fill="#5A97D6" stroke="#012750" stroke-width="0.438175"/>
<path d="M496.938 332.239V329.797L499.128 328.582L502.196 329.559V332L500.005 333.216L496.938 332.239Z" fill="white"/>
<path d="M496.938 329.797V332.239L500.005 333.216M496.938 329.797L500.005 330.774M496.938 329.797L499.128 328.582L502.196 329.559M500.005 333.216V330.774M500.005 333.216L502.196 332V329.559M500.005 330.774L502.196 329.559" stroke="#012750" stroke-width="0.438175"/>
<path d="M500.004 330.774V333.216L502.195 332V329.559L500.004 330.774Z" fill="#5A97D6" stroke="#012750" stroke-width="0.438175"/>
<path d="M503.07 334.427V331.985L505.261 330.769L508.328 331.746V334.188L506.138 335.403L503.07 334.427Z" fill="white"/>
<path d="M503.07 331.985V334.427L506.138 335.403M503.07 331.985L506.138 332.961M503.07 331.985L505.261 330.769L508.328 331.746M506.138 335.403V332.961M506.138 335.403L508.328 334.188V331.746M506.138 332.961L508.328 331.746" stroke="#012750" stroke-width="0.438175"/>
<path d="M506.141 332.961V335.403L508.331 334.188V331.746L506.141 332.961Z" fill="#5A97D6" stroke="#012750" stroke-width="0.438175"/>
<circle cx="535.279" cy="246.963" r="130.138" stroke="#5A97D6" stroke-width="0.438175"/>
<circle cx="535.497" cy="247.18" r="142.168" stroke="#245FA5" stroke-width="0.478678"/>
<path d="M613.709 296.46L610.206 293.003V278.947L606.043 273.908L610.206 271.936V260.163L612.436 258.929L615.939 257.695L664.98 273.264L668.483 276.722V286.477V309.562L666.252 310.795L662.749 312.029L650.489 308.137L644.359 306.191L643.525 305.926L641.294 305.218L638.229 304.245L635.164 303.272L632.099 302.299L630.581 301.817L613.709 296.46Z" fill="#5A97D6"/>
<path d="M613.709 258.929L610.206 260.163M613.709 258.929L662.749 274.498M613.709 258.929L615.939 257.695M610.206 260.163L612.436 258.929L615.939 257.695M610.206 260.163V271.936L606.043 273.908L610.206 278.947V293.003L613.709 296.46L630.581 301.817L632.099 302.299L635.164 303.272L638.229 304.245L641.294 305.218L643.525 305.926L644.359 306.191L650.489 308.137L662.749 312.029L666.252 310.795M662.749 274.498L666.252 277.955M662.749 274.498L664.98 273.264M666.252 277.955L668.483 276.722M666.252 277.955V287.71V310.795M666.252 310.795L668.483 309.562V286.477V276.722M668.483 276.722L664.98 273.264M664.98 273.264L615.939 257.695" stroke="#012750" stroke-width="0.438175"/>
<path d="M613.71 258.929L610.207 260.163L612.438 258.929L615.941 257.695L664.981 273.264L668.484 276.722V286.477V309.562L666.254 310.795V287.71V277.955L662.751 274.498L613.71 258.929Z" fill="#245FA5"/>
<path d="M613.71 258.929L610.207 260.163L612.438 258.929L615.941 257.695M613.71 258.929L662.751 274.498M613.71 258.929L615.941 257.695M662.751 274.498L666.254 277.955M662.751 274.498L664.981 273.264M666.254 277.955L668.484 276.722M666.254 277.955V287.71V310.795L668.484 309.562V286.477V276.722M668.484 276.722L664.981 273.264M664.981 273.264L615.941 257.695" stroke="#012750" stroke-width="0.438175"/>
<path d="M560.03 191.738L556.527 188.28V155.44L558.758 154.206L562.261 152.973L611.302 168.541L614.805 171.999V204.839L612.574 206.073L609.071 207.306L596.811 203.414L590.681 201.468L589.846 201.203L587.616 200.495L584.551 199.522L581.486 198.549L578.421 197.576L576.902 197.094L569.015 201.203L566.16 193.684L560.03 191.738Z" fill="#5A97D6"/>
<path d="M560.03 154.206L556.527 155.44M560.03 154.206L609.071 169.775M560.03 154.206L562.261 152.973M556.527 155.44V188.28L560.03 191.738L566.16 193.684L569.015 201.203L576.902 197.094L578.421 197.576L581.486 198.549L584.551 199.522L587.616 200.495L589.846 201.203L590.681 201.468L596.811 203.414L609.071 207.306L612.574 206.073M556.527 155.44L558.758 154.206L562.261 152.973M609.071 169.775L612.574 173.233M609.071 169.775L611.302 168.541M612.574 173.233V206.073M612.574 173.233L614.805 171.999M612.574 206.073L614.805 204.839V171.999M614.805 171.999L611.302 168.541M611.302 168.541L562.261 152.973" stroke="#012750" stroke-width="0.438175"/>
<path d="M560.03 154.206L556.527 155.44L558.758 154.206L562.261 152.973L611.302 168.541L614.805 171.999V204.839L612.574 206.073V173.233L609.071 169.775L560.03 154.206Z" fill="#245FA5"/>
<path d="M560.03 154.206L556.527 155.44L558.758 154.206L562.261 152.973M560.03 154.206L609.071 169.775M560.03 154.206L562.261 152.973M609.071 169.775L612.574 173.233M609.071 169.775L611.302 168.541M612.574 173.233V206.073L614.805 204.839V171.999M612.574 173.233L614.805 171.999M614.805 171.999L611.302 168.541M611.302 168.541L562.261 152.973" stroke="#012750" stroke-width="0.438175"/>
<path d="M405.354 218.906L401.852 215.448V182.608L404.082 181.374L407.585 180.141L456.626 195.709L460.129 199.167V208.922L465.427 213.085L463.196 214.318L460.129 215.714V232.007L457.898 233.241L454.395 234.474L442.135 230.582L436.005 228.636L435.171 228.371L432.94 227.663L429.875 226.69L426.81 225.717L423.745 224.744L422.227 224.262L405.354 218.906Z" fill="#5A97D6"/>
<path d="M405.354 181.374L401.852 182.608M405.354 181.374L454.395 196.943M405.354 181.374L407.585 180.141M401.852 182.608V215.448L405.354 218.906L422.227 224.262L423.745 224.744L426.81 225.717L429.875 226.69L432.94 227.663L435.171 228.371L436.005 228.636L442.135 230.582L454.395 234.474L457.898 233.241M401.852 182.608L404.082 181.374L407.585 180.141M454.395 196.943L457.898 200.401M454.395 196.943L456.626 195.709M457.898 200.401L460.129 199.167M457.898 200.401V210.156M457.898 233.241L460.129 232.007V215.714M457.898 233.241V216.728L460.129 215.714M460.129 199.167L456.626 195.709M460.129 199.167V208.922M456.626 195.709L407.585 180.141M457.898 210.156L463.196 214.318M457.898 210.156L460.129 208.922M463.196 214.318L465.427 213.085L460.129 208.922M463.196 214.318L460.129 215.714" stroke="#012750" stroke-width="0.438175"/>
<path d="M405.354 181.374L401.852 182.608L404.082 181.374L407.585 180.141L456.626 195.709L460.129 199.167V208.922L465.427 213.085L463.196 214.318L460.129 215.714V232.007L457.898 233.241V216.728L460.129 215.714L463.196 214.318L457.898 210.156V200.401L454.395 196.943L405.354 181.374Z" fill="#245FA5"/>
<path d="M405.354 181.374L401.852 182.608L404.082 181.374L407.585 180.141M405.354 181.374L454.395 196.943M405.354 181.374L407.585 180.141M454.395 196.943L457.898 200.401M454.395 196.943L456.626 195.709M457.898 200.401L460.129 199.167M457.898 200.401V210.156M460.129 199.167L456.626 195.709M460.129 199.167V208.922M456.626 195.709L407.585 180.141M457.898 210.156L463.196 214.318M457.898 210.156L460.129 208.922M463.196 214.318L465.427 213.085L460.129 208.922M463.196 214.318L460.129 215.714M460.129 215.714L457.898 216.728V233.241L460.129 232.007V215.714Z" stroke="#012750" stroke-width="0.438175"/>
<circle cx="258.762" cy="115.481" r="61.0931" stroke="#5A97D6" stroke-width="0.502824"/>
<circle cx="258.76" cy="115.478" r="56.7293" stroke="#5A97D6" stroke-width="0.466908"/>
<circle cx="259.007" cy="115.726" r="65.4573" stroke="#245FA5" stroke-width="0.537841"/>
<path d="M327.364 121.333L269.593 153.411L252.032 147.814V149.947L249.748 149.219L247.465 148.491V146.358L232.188 141.489V143.622L229.904 142.894L227.62 142.166V140.033L212.343 135.163V137.297L210.059 136.569L207.776 135.841V133.708L190.215 128.11V118.459V108.808L196.233 105.467L200.368 106.785L207.483 102.835V99.2201L219.1 92.7694L247.985 76.7305L266.011 82.4757L268.762 80.9477L270.582 81.5277L272.401 82.1076L269.649 83.6356L285.855 88.801L288.607 87.2729L290.426 87.8529L292.246 88.4328L289.494 89.9608L305.7 95.1262L308.451 93.5981L310.271 94.1781L312.09 94.758L309.338 96.286L327.364 102.031V111.682V121.333Z" fill="white"/>
<path d="M269.593 134.109L190.215 108.808M269.593 134.109L298.478 118.07L324.612 103.559L327.364 102.031M269.593 134.109V143.76M190.215 108.808V118.459M190.215 108.808L196.233 105.467L200.368 106.785M269.593 153.411L327.364 121.333V111.682M269.593 153.411V143.76M269.593 153.411L252.032 147.814V149.947L249.748 149.219L247.465 148.491V146.358L232.188 141.489V143.622L229.904 142.894L227.62 142.166V140.033L212.343 135.163V137.297L210.059 136.569L207.776 135.841V133.708L190.215 128.11V118.459M327.364 102.031V111.682M327.364 102.031L309.338 96.286L312.09 94.758L310.271 94.1781L308.451 93.5981L305.7 95.1262L289.494 89.9608L292.246 88.4328L290.426 87.8529L288.607 87.2729L285.855 88.801L269.649 83.6356L272.401 82.1076L270.582 81.5277L268.762 80.9477L266.011 82.4757L247.985 76.7305L219.1 92.7694L207.483 99.2201M190.215 118.459L210.059 124.784M269.593 143.76L249.748 137.435M269.593 143.76L284.036 135.741M327.364 111.682L298.478 127.721M207.483 99.2201L215.105 101.65L210.97 103.946M207.483 99.2201V102.835M207.483 102.835L200.368 106.785M207.483 102.835L210.97 103.946M200.368 106.785L203.855 107.896L210.97 103.946M210.059 124.784L229.904 131.11L249.748 137.435M210.059 124.784V122.651L219.982 125.814M249.748 137.435V135.301L239.826 132.139M219.982 125.814L229.904 128.976L239.826 132.139M219.982 125.814V123.68L239.826 130.005V132.139M298.478 127.721L284.036 135.741M298.478 127.721V125.588L284.036 133.607V135.741" stroke="#012750" stroke-width="0.219087"/>
<path d="M207.482 99.2188L215.104 101.648L210.969 103.945L203.854 107.895L200.367 106.784L207.482 102.833V99.2188Z" fill="#C6D9F1"/>
<path d="M207.482 102.833V99.2188L215.104 101.648L210.969 103.945M207.482 102.833L200.367 106.784L203.854 107.895L210.969 103.945M207.482 102.833L210.969 103.945" stroke="#012750" stroke-width="0.219087"/>
<path d="M207.484 99.2188L215.107 101.648L210.971 103.945L207.484 102.833V99.2188Z" fill="#5A97D6" stroke="#012750" stroke-width="0.219087"/>
<path d="M229.903 131.107L210.059 124.782V122.648L219.981 125.811V123.678L239.825 130.003V132.136L249.748 135.299V137.432L229.903 131.107Z" fill="#C6D9F1"/>
<path d="M219.981 125.811L229.903 128.974L239.825 132.136M219.981 125.811L210.059 122.648V124.782L229.903 131.107L249.748 137.432V135.299L239.825 132.136M219.981 125.811V123.678L239.825 130.003V132.136" stroke="#012750" stroke-width="0.219087"/>
<path d="M229.903 131.107L210.059 124.782V122.648L219.981 125.811L229.903 128.974L239.825 132.136L249.748 135.299V137.432L229.903 131.107Z" fill="#93BAE6" stroke="#012750" stroke-width="0.219087"/>
<path d="M269.594 134.109L298.479 118.07L324.612 103.559L327.364 102.031V111.682V121.333L269.594 153.411V143.76V134.109Z" fill="#93BAE6"/>
<path d="M269.594 143.76V134.109L298.479 118.07L324.612 103.559L327.364 102.031V111.682M269.594 143.76V153.411L327.364 121.333V111.682M269.594 143.76L284.036 135.741M327.364 111.682L298.479 127.721M298.479 127.721L284.036 135.741M298.479 127.721V125.588L284.036 133.607V135.741" stroke="#012750" stroke-width="0.219087"/>
<path d="M298.478 127.719L284.035 135.739V133.605L298.478 125.586V127.719Z" fill="#5A97D6" stroke="#012750" stroke-width="0.219087"/>
<circle cx="258.762" cy="378.387" r="61.0931" stroke="#5A97D6" stroke-width="0.502824"/>
<circle cx="258.76" cy="378.385" r="56.7293" stroke="#5A97D6" stroke-width="0.466908"/>
<circle cx="259.007" cy="378.632" r="65.4573" stroke="#245FA5" stroke-width="0.537841"/>
<path d="M323.419 372.294L239.186 418.945L205.586 408.263L203.009 409.691L198.233 412.336L194.638 414.327L193.281 413.896V412.058L197.702 409.61L202.122 407.162L195.784 405.147V394.84V384.534L205.336 379.244L203.419 378.634L204.396 378.093L205.373 377.552L207.29 378.162L215.865 373.412L213.948 372.803L214.925 372.262L215.902 371.721L217.819 372.33L226.394 367.581L224.478 366.972L225.454 366.43L226.431 365.889L228.348 366.499L236.923 361.749L235.007 361.14L235.984 360.599L236.961 360.058L238.877 360.667L247.453 355.918L245.536 355.309L246.513 354.768L247.49 354.227L249.406 354.836L257.982 350.087L256.065 349.477L257.042 348.936L258.019 348.395L259.936 349.005L268.511 344.255L266.594 343.646L267.571 343.105L268.548 342.564L270.465 343.173L280.017 337.883L320.267 350.679L323.419 355.912V372.294Z" fill="white"/>
<path d="M239.186 418.945L323.419 372.294V355.912M239.186 418.945V410.754V402.563M239.186 418.945L205.586 408.263M195.784 384.534V394.84M195.784 384.534L197.7 385.143L236.034 397.33M195.784 384.534L205.336 379.244L203.419 378.634L204.396 378.093L205.373 377.552L207.29 378.162L215.865 373.412L213.948 372.803L214.925 372.262L215.902 371.721L217.819 372.33L226.394 367.581L224.478 366.972L225.454 366.43L226.431 365.889L228.348 366.499L236.923 361.749L235.007 361.14L235.984 360.599L236.961 360.058L238.877 360.667L247.453 355.918L245.536 355.309L246.513 354.768L247.49 354.227L249.406 354.836L257.982 350.087L256.065 349.477L257.042 348.936L258.019 348.395L259.936 349.005L268.511 344.255L266.594 343.646L267.571 343.105L268.548 342.564L270.465 343.173L280.017 337.883L320.267 350.679M236.034 397.33L239.186 402.563M236.034 397.33L246.563 391.499M239.186 402.563L249.715 396.732M323.419 355.912L320.267 350.679M323.419 355.912L312.89 361.743M320.267 350.679L309.738 356.51M195.784 394.84V405.147L202.122 407.162M195.784 394.84L206.634 398.29L209.198 399.105M239.186 408.639L228.335 405.189L222.91 403.464M278.15 374.005L281.302 379.237M278.15 374.005L267.621 379.836M278.15 374.005L288.68 368.173M281.302 379.237L270.773 385.069M281.302 379.237L291.832 373.406M257.092 385.667L260.244 390.9M257.092 385.667L246.563 391.499M257.092 385.667L267.621 379.836M260.244 390.9L249.715 396.732M260.244 390.9L270.773 385.069M246.563 391.499L249.715 396.732M267.621 379.836L270.773 385.069M299.209 362.342L302.361 367.575M299.209 362.342L288.68 368.173M299.209 362.342L309.738 356.51M302.361 367.575L291.832 373.406M302.361 367.575L312.89 361.743M288.68 368.173L291.832 373.406M309.738 356.51L312.89 361.743M222.91 403.464V400.97M222.91 403.464L218.134 406.11V403.615M222.91 400.97L218.134 403.615M222.91 400.97L212.059 397.52L209.198 399.105M207.283 400.166V402.66L210.145 401.075M207.283 400.166L209.198 399.105M207.283 400.166L209.996 401.028L211.352 401.459L212.03 401.675M218.134 403.615L215.494 402.776M213.387 402.106L212.708 401.89L212.03 401.675M213.387 402.106L214.065 402.321L215.421 402.753L215.494 402.776M213.387 402.106L212.561 402.563L208.61 404.751L203.834 407.396L203.479 407.593L199.058 410.041L194.638 412.49M212.03 401.675L207.254 404.32L202.478 406.965L202.122 407.162M202.122 407.162L197.702 409.61L193.281 412.058M194.638 412.49V414.327M194.638 412.49L193.281 412.058M193.281 412.058V413.896L194.638 414.327M215.494 402.776L215.037 403.029L214.212 403.486L213.387 403.943L212.561 404.401L207.785 407.046L205.586 408.263M194.638 414.327L198.233 412.336L203.009 409.691L205.586 408.263" stroke="#012750" stroke-width="0.219087"/>
<path d="M222.909 400.969V403.463L218.133 406.108V403.614L222.909 400.969Z" fill="#C6D9F1"/>
<path d="M215.42 402.752L214.064 402.32L213.386 402.105L212.56 402.562L208.609 404.75L203.833 407.395L203.478 407.592L199.057 410.04L194.637 412.488V414.326L198.232 412.335L203.008 409.69L205.585 408.262L207.784 407.045L212.56 404.399L213.386 403.942L214.211 403.485L215.036 403.028L215.494 402.775L215.42 402.752Z" fill="#C6D9F1"/>
<path d="M222.909 400.969V403.463L218.133 406.108V403.614L222.909 400.969Z" stroke="#012750" stroke-width="0.219087"/>
<path d="M215.42 402.752L214.064 402.32L213.386 402.105L212.56 402.562L208.609 404.75L203.833 407.395L203.478 407.592L199.057 410.04L194.637 412.488V414.326L198.232 412.335L203.008 409.69L205.585 408.262L207.784 407.045L212.56 404.399L213.386 403.942L214.211 403.485L215.036 403.028L215.494 402.775L215.42 402.752Z" stroke="#012750" stroke-width="0.219087"/>
<path d="M323.421 372.291L239.187 418.942V410.751V402.56L236.035 397.327L246.564 391.496L257.094 385.664L267.623 379.833L278.152 374.001L288.681 368.17L299.21 362.339L309.74 356.507L320.269 350.676L323.421 355.909V372.291Z" fill="#C6D9F1"/>
<path d="M239.187 402.56L236.035 397.327L246.564 391.496M239.187 402.56V410.751V418.942L323.421 372.291V355.909M239.187 402.56L249.716 396.728M323.421 355.909L320.269 350.676L309.74 356.507M323.421 355.909L312.892 361.74M278.152 374.001L281.304 379.234M278.152 374.001L267.623 379.833M278.152 374.001L288.681 368.17M281.304 379.234L270.775 385.066M281.304 379.234L291.833 373.403M257.094 385.664L260.246 390.897M257.094 385.664L246.564 391.496M257.094 385.664L267.623 379.833M260.246 390.897L249.716 396.728M260.246 390.897L270.775 385.066M246.564 391.496L249.716 396.728M267.623 379.833L270.775 385.066M299.21 362.339L302.362 367.571M299.21 362.339L288.681 368.17M299.21 362.339L309.74 356.507M302.362 367.571L291.833 373.403M302.362 367.571L312.892 361.74M288.681 368.17L291.833 373.403M309.74 356.507L312.892 361.74" stroke="#012750" stroke-width="0.219087"/>
<path d="M239.187 402.56L236.035 397.327L246.564 391.496L257.094 385.664L267.623 379.833L278.152 374.001L288.681 368.17L299.21 362.339L309.74 356.507L320.269 350.676L323.421 355.909L312.892 361.74L302.362 367.571L291.833 373.403L281.304 379.234L270.775 385.066L260.246 390.897L249.716 396.728L239.187 402.56Z" fill="#5A97D6"/>
<path d="M278.152 374.001L281.304 379.234M278.152 374.001L267.623 379.833M278.152 374.001L288.681 368.17M281.304 379.234L270.775 385.066M281.304 379.234L291.833 373.403M257.094 385.664L260.246 390.897M257.094 385.664L246.564 391.496M257.094 385.664L267.623 379.833M260.246 390.897L249.716 396.728M260.246 390.897L270.775 385.066M246.564 391.496L236.035 397.327L239.187 402.56L249.716 396.728M246.564 391.496L249.716 396.728M267.623 379.833L270.775 385.066M299.21 362.339L302.362 367.571M299.21 362.339L288.681 368.17M299.21 362.339L309.74 356.507M302.362 367.571L291.833 373.403M302.362 367.571L312.892 361.74M288.681 368.17L291.833 373.403M309.74 356.507L320.269 350.676L323.421 355.909L312.892 361.74M309.74 356.507L312.892 361.74" stroke="#012750" stroke-width="0.219087"/>
<circle cx="809.114" cy="378.387" r="61.0931" stroke="#5A97D6" stroke-width="0.502824"/>
<circle cx="809.111" cy="378.385" r="56.7293" stroke="#5A97D6" stroke-width="0.466908"/>
<circle cx="809.359" cy="378.632" r="65.4573" stroke="#245FA5" stroke-width="0.537841"/>
<path d="M745.387 391.109V378.494L750.111 375.874L752.473 374.563L755.248 375.447L757.197 374.366V371.943L761.92 369.322L764.696 370.206L766.644 369.125V366.702L771.368 364.081L774.143 364.965L776.092 363.884V361.461L780.816 358.84L783.591 359.724L785.54 358.643V356.22L790.264 353.6L793.039 354.483L794.988 353.402V350.979L799.712 348.359L802.487 349.242L804.436 348.161L804.436 345.738L809.16 343.118L811.935 344.001L813.884 342.92L813.884 340.497L816.245 339.187L820.969 336.566L872.896 353.101V378.33L865.81 382.261L862.216 381.116L861.086 381.744V384.881L856.362 387.502L852.769 386.357L851.638 386.985V390.122L846.914 392.743L843.321 391.598L842.19 392.226V395.363L837.466 397.984L833.873 396.839L832.742 397.467V400.604L828.018 403.225L824.425 402.08L823.294 402.708V405.845L818.571 408.466L814.977 407.321L813.847 407.949V411.086L809.123 413.707L805.529 412.562L804.399 413.19V416.327L797.313 420.258L745.387 403.723V397.416V394.262V391.109Z" fill="white"/>
<path d="M745.387 378.494V391.109V394.262M745.387 378.494L797.313 395.029M745.387 378.494L750.111 375.874L752.473 374.563L755.248 375.447M797.313 395.029L802.037 392.408L804.399 391.098M797.313 395.029V407.643V410.797M797.313 420.258L745.387 403.723V397.416V394.262M797.313 420.258L804.399 416.327V413.19L805.529 412.562M797.313 420.258V413.951V410.797M872.896 353.101L820.969 336.566L816.246 339.187L813.884 340.497M872.896 353.101V378.33L865.81 382.261M872.896 353.101L868.172 355.722L865.81 357.032M757.197 371.943L761.507 373.316L758.732 374.855M757.197 371.943V374.366M757.197 371.943L761.92 369.322L764.696 370.206M757.197 374.366L758.732 374.855M757.197 374.366L755.248 375.447M758.732 374.855L756.783 375.936L755.248 375.447M766.644 366.702L770.955 368.075L768.18 369.614M766.644 366.702V369.125M766.644 366.702L771.368 364.081L774.143 364.965M776.092 361.461V363.884M776.092 361.461L780.403 362.834L777.628 364.373M776.092 361.461L780.816 358.84L783.591 359.724M785.54 356.22V358.643M785.54 356.22L789.851 357.593L787.076 359.132M785.54 356.22L790.264 353.6L793.039 354.483M794.988 350.979V353.402M794.988 350.979L799.299 352.352L796.523 353.891M794.988 350.979L799.712 348.359L802.487 349.242M804.436 345.738L804.436 348.161M804.436 345.738L808.746 347.111L805.971 348.65M804.436 345.738L809.16 343.118L811.935 344.001M813.884 340.497L813.884 342.92M813.884 340.497L818.194 341.87L815.419 343.409M764.696 370.206L766.231 370.695L768.18 369.614M764.696 370.206L766.644 369.125M768.18 369.614L766.644 369.125M774.143 364.965L775.679 365.454L777.628 364.373M774.143 364.965L776.092 363.884M777.628 364.373L776.092 363.884M783.591 359.724L785.127 360.213L787.076 359.132M783.591 359.724L785.54 358.643M787.076 359.132L785.54 358.643M793.039 354.483L794.575 354.972L796.523 353.891M793.039 354.483L794.988 353.402M796.523 353.891L794.988 353.402M802.487 349.242L804.023 349.731L805.971 348.65M802.487 349.242L804.436 348.161M805.971 348.65L804.436 348.161M811.935 344.001L813.47 344.49L815.419 343.409M811.935 344.001L813.884 342.92M815.419 343.409L813.884 342.92M809.123 388.478L811.485 387.167L813.847 385.857M809.123 388.478V393.509M809.123 388.478L800.501 385.732M804.399 391.098V396.129L809.123 393.509M804.399 391.098L795.777 388.353L800.501 385.732M800.501 385.732L809.123 393.509M813.847 385.857L805.225 383.112L809.949 380.491M813.847 385.857V390.888L818.571 388.268M818.571 383.237L820.933 381.927L823.294 380.616M818.571 383.237L809.949 380.491M818.571 383.237V388.268M823.294 380.616L814.673 377.871L819.397 375.25M823.294 380.616V385.647L828.018 383.027M828.018 377.996L830.38 376.686L832.742 375.375M828.018 377.996L819.397 375.25M828.018 377.996V383.027M832.742 375.375L824.121 372.63L828.845 370.009M832.742 375.375V380.406L837.466 377.786M837.466 372.755L839.828 371.445L842.19 370.134M837.466 372.755L828.845 370.009M837.466 372.755V377.786M842.19 370.134L833.569 367.389L838.293 364.768M842.19 370.134V375.165L846.914 372.545M846.914 367.514L849.276 366.204L851.638 364.893M846.914 367.514L838.293 364.768M846.914 367.514V372.545M851.638 364.893L843.016 362.148L847.74 359.527M851.638 364.893V369.925L856.362 367.304M856.362 362.273L858.724 360.963L861.086 359.652M856.362 362.273L847.74 359.527M856.362 362.273V367.304M861.086 359.652L852.464 356.907L857.188 354.286M861.086 359.652V364.684L865.81 362.063M865.81 357.032L857.188 354.286M865.81 357.032V362.063M809.949 380.491L818.571 388.268M819.397 375.25L828.018 383.027M828.845 370.009L837.466 377.786M838.293 364.768L846.914 372.545M847.74 359.527L856.362 367.304M857.188 354.286L865.81 362.063M809.123 413.707V410.569L806.761 411.879L805.529 412.562M809.123 413.707L813.847 411.086V407.949L816.209 406.638L818.571 405.328V408.466M809.123 413.707L805.529 412.562M818.571 408.466L823.294 405.845V402.708L825.656 401.397L828.018 400.087V403.225M818.571 408.466L814.977 407.321M828.018 403.225L832.742 400.604V397.467L835.104 396.156L837.466 394.846V397.984M828.018 403.225L824.425 402.08M837.466 397.984L842.19 395.363V392.226L844.552 390.915L846.914 389.605V392.743M837.466 397.984L833.873 396.839M846.914 392.743L851.638 390.122V386.985L854 385.674L856.362 384.364V387.502M846.914 392.743L843.321 391.598M856.362 387.502L861.086 384.881V381.744L863.448 380.433L865.81 379.123V382.261M856.362 387.502L852.769 386.357M865.81 382.261L862.216 381.116M784.331 403.51L771.35 399.376L768.988 400.686M784.331 403.51L781.969 404.82M784.331 403.51V406.663M781.969 411.127V404.82M781.969 411.127L784.331 409.817V406.663M781.969 411.127L768.988 406.993V401.777M768.988 400.686L781.969 404.82M768.988 400.686V401.777M797.313 410.797L784.331 406.663M745.387 394.262L768.988 401.777" stroke="#012750" stroke-width="0.219087"/>
<path d="M771.35 399.375L784.332 403.509V406.662V409.816L781.97 411.126L768.988 406.992V401.776V400.685L771.35 399.375Z" fill="#C6D9F1"/>
<path d="M784.332 403.509L771.35 399.375L768.988 400.685M784.332 403.509L781.97 404.819M784.332 403.509V406.662V409.816L781.97 411.126M781.97 411.126V404.819M781.97 411.126L768.988 406.992V401.776V400.685M768.988 400.685L781.97 404.819" stroke="#012750" stroke-width="0.219087"/>
<path d="M771.35 399.375L784.332 403.509V406.662V409.816L781.97 411.126V404.819L768.988 400.685L771.35 399.375Z" fill="#5A97D6"/>
<path d="M784.332 403.509L771.35 399.375L768.988 400.685L781.97 404.819M784.332 403.509L781.97 404.819M784.332 403.509V406.662V409.816L781.97 411.126V404.819" stroke="#012750" stroke-width="0.219087"/>
<path d="M757.197 371.942L761.507 373.315L758.732 374.854L756.783 375.935L755.248 375.446L757.197 374.365V371.942Z" fill="#93BAE6"/>
<path d="M766.644 366.701L770.955 368.074L768.18 369.613L766.231 370.694L764.696 370.205L766.644 369.124V366.701Z" fill="#93BAE6"/>
<path d="M775.679 365.453L774.143 364.964L776.092 363.883V361.46L780.403 362.833L777.628 364.372L775.679 365.453Z" fill="#93BAE6"/>
<path d="M785.127 360.212L783.591 359.723L785.54 358.642V356.219L789.851 357.592L787.076 359.131L785.127 360.212Z" fill="#93BAE6"/>
<path d="M794.575 354.971L793.039 354.482L794.988 353.401V350.978L799.299 352.351L796.524 353.89L794.575 354.971Z" fill="#93BAE6"/>
<path d="M804.023 349.73L802.487 349.241L804.436 348.16L804.436 345.737L808.747 347.11L805.971 348.649L804.023 349.73Z" fill="#93BAE6"/>
<path d="M813.47 344.489L811.935 344L813.884 342.919L813.884 340.496L818.194 341.869L815.419 343.408L813.47 344.489Z" fill="#93BAE6"/>
<path d="M752.473 374.562L755.248 375.446M757.197 374.365V371.942L761.507 373.315L758.732 374.854M757.197 374.365L758.732 374.854M757.197 374.365L755.248 375.446M758.732 374.854L756.783 375.935L755.248 375.446M768.18 369.613L770.955 368.074L766.644 366.701V369.124M768.18 369.613L766.231 370.694L764.696 370.205L766.644 369.124M768.18 369.613L766.644 369.124M777.628 364.372L780.403 362.833L776.092 361.46V363.883M777.628 364.372L775.679 365.453L774.143 364.964L776.092 363.883M777.628 364.372L776.092 363.883M787.076 359.131L789.851 357.592L785.54 356.219V358.642M787.076 359.131L785.127 360.212L783.591 359.723L785.54 358.642M787.076 359.131L785.54 358.642M796.524 353.89L799.299 352.351L794.988 350.978V353.401M796.524 353.89L794.575 354.971L793.039 354.482L794.988 353.401M796.524 353.89L794.988 353.401M805.971 348.649L808.747 347.11L804.436 345.737L804.436 348.16M805.971 348.649L804.023 349.73L802.487 349.241L804.436 348.16M805.971 348.649L804.436 348.16M815.419 343.408L818.194 341.869L813.884 340.496L813.884 342.919M815.419 343.408L813.47 344.489L811.935 344L813.884 342.919M815.419 343.408L813.884 342.919" stroke="#012750" stroke-width="0.219087"/>
<path d="M757.195 374.368L758.731 374.857L756.782 375.938L755.246 375.449L757.195 374.368Z" fill="#C6D9F1"/>
<path d="M764.694 370.208L766.23 370.697L768.178 369.616L766.643 369.127L764.694 370.208Z" fill="#C6D9F1"/>
<path d="M774.142 364.967L775.677 365.456L777.626 364.375L776.091 363.886L774.142 364.967Z" fill="#C6D9F1"/>
<path d="M783.59 359.726L785.125 360.215L787.074 359.134L785.538 358.645L783.59 359.726Z" fill="#C6D9F1"/>
<path d="M793.037 354.485L794.573 354.974L796.522 353.893L794.986 353.404L793.037 354.485Z" fill="#C6D9F1"/>
<path d="M802.485 349.244L804.021 349.733L805.97 348.652L804.434 348.163L802.485 349.244Z" fill="#C6D9F1"/>
<path d="M811.933 344.003L813.469 344.492L815.418 343.411L813.882 342.922L811.933 344.003Z" fill="#C6D9F1"/>
<path d="M757.195 374.368L758.731 374.857L756.782 375.938L755.246 375.449L757.195 374.368Z" stroke="#012750" stroke-width="0.219087"/>
<path d="M764.694 370.208L766.23 370.697L768.178 369.616L766.643 369.127L764.694 370.208Z" stroke="#012750" stroke-width="0.219087"/>
<path d="M774.142 364.967L775.677 365.456L777.626 364.375L776.091 363.886L774.142 364.967Z" stroke="#012750" stroke-width="0.219087"/>
<path d="M783.59 359.726L785.125 360.215L787.074 359.134L785.538 358.645L783.59 359.726Z" stroke="#012750" stroke-width="0.219087"/>
<path d="M793.037 354.485L794.573 354.974L796.522 353.893L794.986 353.404L793.037 354.485Z" stroke="#012750" stroke-width="0.219087"/>
<path d="M802.485 349.244L804.021 349.733L805.97 348.652L804.434 348.163L802.485 349.244Z" stroke="#012750" stroke-width="0.219087"/>
<path d="M811.933 344.003L813.469 344.492L815.418 343.411L813.882 342.922L811.933 344.003Z" stroke="#012750" stroke-width="0.219087"/>
<path d="M795.777 388.355L800.501 385.735L809.123 388.48V393.512L804.399 396.132V391.101L795.777 388.355Z" fill="#93BAE6"/>
<path d="M813.847 385.86L805.225 383.114L809.949 380.494L818.571 383.239V388.271L813.847 390.891V385.86Z" fill="#93BAE6"/>
<path d="M823.295 380.619L814.673 377.873L819.397 375.253L828.018 377.998V383.03L823.295 385.65V380.619Z" fill="#93BAE6"/>
<path d="M832.742 375.378L824.121 372.633L828.845 370.012L837.466 372.757V377.789L832.742 380.409V375.378Z" fill="#93BAE6"/>
<path d="M842.19 370.137L833.569 367.392L838.293 364.771L846.914 367.516V372.548L842.19 375.168V370.137Z" fill="#93BAE6"/>
<path d="M851.638 364.896L843.017 362.151L847.74 359.53L856.362 362.275V367.307L851.638 369.927V364.896Z" fill="#93BAE6"/>
<path d="M861.086 359.655L852.464 356.91L857.188 354.289L865.81 357.034V362.066L861.086 364.686V359.655Z" fill="#93BAE6"/>
<path d="M800.501 385.735L795.777 388.355L804.399 391.101V396.132L809.123 393.512M800.501 385.735L809.123 388.48V393.512M800.501 385.735L809.123 393.512M809.949 380.494L818.571 383.239V388.271M809.949 380.494L805.225 383.114L813.847 385.86V390.891L818.571 388.271M809.949 380.494L818.571 388.271M819.397 375.253L828.018 377.998V383.03M819.397 375.253L814.673 377.873L823.295 380.619V385.65L828.018 383.03M819.397 375.253L828.018 383.03M828.845 370.012L837.466 372.757V377.789M828.845 370.012L824.121 372.633L832.742 375.378V380.409L837.466 377.789M828.845 370.012L837.466 377.789M838.293 364.771L846.914 367.516V372.548M838.293 364.771L833.569 367.392L842.19 370.137V375.168L846.914 372.548M838.293 364.771L846.914 372.548M847.74 359.53L856.362 362.275V367.307M847.74 359.53L843.017 362.151L851.638 364.896V369.927L856.362 367.307M847.74 359.53L856.362 367.307M857.188 354.289L865.81 357.034V362.066M857.188 354.289L852.464 356.91L861.086 359.655V364.686L865.81 362.066M857.188 354.289L865.81 362.066" stroke="#012750" stroke-width="0.219087"/>
<path d="M800.501 385.735L795.777 388.355L804.399 391.101V396.132L809.123 393.512L800.501 385.735Z" fill="#C6D9F1"/>
<path d="M813.847 385.86L805.225 383.114L809.949 380.494L818.571 388.271L813.847 390.891V385.86Z" fill="#C6D9F1"/>
<path d="M823.295 380.619L814.673 377.873L819.397 375.253L828.018 383.03L823.295 385.65V380.619Z" fill="#C6D9F1"/>
<path d="M832.742 375.378L824.121 372.633L828.845 370.012L837.466 377.789L832.742 380.409V375.378Z" fill="#C6D9F1"/>
<path d="M842.19 370.137L833.569 367.392L838.293 364.771L846.914 372.548L842.19 375.168V370.137Z" fill="#C6D9F1"/>
<path d="M851.638 364.896L843.017 362.151L847.74 359.53L856.362 367.307L851.638 369.927V364.896Z" fill="#C6D9F1"/>
<path d="M861.086 359.655L852.464 356.91L857.188 354.289L865.81 362.066L861.086 364.686V359.655Z" fill="#C6D9F1"/>
<path d="M800.501 385.735L795.777 388.355L804.399 391.101V396.132L809.123 393.512L800.501 385.735Z" stroke="#012750" stroke-width="0.219087"/>
<path d="M813.847 385.86L805.225 383.114L809.949 380.494L818.571 388.271L813.847 390.891V385.86Z" stroke="#012750" stroke-width="0.219087"/>
<path d="M823.295 380.619L814.673 377.873L819.397 375.253L828.018 383.03L823.295 385.65V380.619Z" stroke="#012750" stroke-width="0.219087"/>
<path d="M832.742 375.378L824.121 372.633L828.845 370.012L837.466 377.789L832.742 380.409V375.378Z" stroke="#012750" stroke-width="0.219087"/>
<path d="M842.19 370.137L833.569 367.392L838.293 364.771L846.914 372.548L842.19 375.168V370.137Z" stroke="#012750" stroke-width="0.219087"/>
<path d="M851.638 364.896L843.017 362.151L847.74 359.53L856.362 367.307L851.638 369.927V364.896Z" stroke="#012750" stroke-width="0.219087"/>
<path d="M861.086 359.655L852.464 356.91L857.188 354.289L865.81 362.066L861.086 364.686V359.655Z" stroke="#012750" stroke-width="0.219087"/>
<path d="M809.121 410.571L806.759 411.881L805.527 412.564L809.121 413.708V410.571Z" fill="#5A97D6"/>
<path d="M818.569 405.33L814.975 407.323L818.569 408.467V405.33Z" fill="#5A97D6"/>
<path d="M828.016 400.089L824.423 402.082L828.016 403.226V400.089Z" fill="#5A97D6"/>
<path d="M837.464 394.848L833.871 396.841L837.464 397.986V394.848Z" fill="#5A97D6"/>
<path d="M846.912 389.607L843.319 391.6L846.912 392.745V389.607Z" fill="#5A97D6"/>
<path d="M856.36 384.366L852.767 386.359L856.36 387.504V384.366Z" fill="#5A97D6"/>
<path d="M865.808 379.125L862.214 381.118L865.808 382.263V379.125Z" fill="#5A97D6"/>
<path d="M809.121 410.571L806.759 411.881L805.527 412.564L809.121 413.708V410.571Z" stroke="#012750" stroke-width="0.219087"/>
<path d="M818.569 405.33L814.975 407.323L818.569 408.467V405.33Z" stroke="#012750" stroke-width="0.219087"/>
<path d="M828.016 400.089L824.423 402.082L828.016 403.226V400.089Z" stroke="#012750" stroke-width="0.219087"/>
<path d="M837.464 394.848L833.871 396.841L837.464 397.986V394.848Z" stroke="#012750" stroke-width="0.219087"/>
<path d="M846.912 389.607L843.319 391.6L846.912 392.745V389.607Z" stroke="#012750" stroke-width="0.219087"/>
<path d="M856.36 384.366L852.767 386.359L856.36 387.504V384.366Z" stroke="#012750" stroke-width="0.219087"/>
<path d="M865.808 379.125L862.214 381.118L865.808 382.263V379.125Z" stroke="#012750" stroke-width="0.219087"/>
<path d="M872.895 353.102V378.33L865.809 382.261V379.124L863.447 380.434L861.085 381.744V384.882L856.361 387.502V384.365L854 385.675L851.638 386.985V390.123L846.914 392.743V389.606L844.552 390.916L842.19 392.226V395.364L837.466 397.984V394.847L835.104 396.157L832.742 397.467V400.605L828.018 403.225V400.088L825.656 401.398L823.294 402.708V405.846L818.57 408.466V405.329L816.208 406.639L813.846 407.949V411.087L809.122 413.707V410.57L806.76 411.88L805.529 412.563L804.398 413.19V416.328L797.312 420.258V413.951V410.797V407.644V395.029L802.036 392.409L804.398 391.099V396.13L809.122 393.509V388.478L811.484 387.168L813.846 385.858V390.889L818.57 388.268V383.237L820.932 381.927L823.294 380.617V385.648L828.018 383.027V377.996L830.38 376.686L832.742 375.376V380.407L837.466 377.786V372.755L839.828 371.445L842.19 370.135V375.166L846.914 372.545V367.514L849.276 366.204L851.638 364.894V369.925L856.361 367.304V362.273L858.723 360.963L861.085 359.653V364.684L865.809 362.064V357.032L868.171 355.722L872.895 353.102Z" fill="#E5EDF9" stroke="#012750" stroke-width="0.219087"/>
<circle cx="809.114" cy="115.481" r="61.0931" stroke="#5A97D6" stroke-width="0.502824"/>
<circle cx="809.111" cy="115.478" r="56.7293" stroke="#5A97D6" stroke-width="0.466908"/>
<circle cx="809.359" cy="115.726" r="65.4573" stroke="#245FA5" stroke-width="0.537841"/>
<path d="M848.794 151.088L796.453 180.14L789.711 177.992V176.354L784.843 174.803L779.786 173.192L776.227 173.695L769.484 171.547V80.3684L776.027 76.7369L818.963 52.9052L821.825 51.3164L848.794 59.9093V151.088Z" fill="white"/>
<path d="M796.453 88.9612V180.14M796.453 88.9612L789.711 86.813M796.453 88.9612L802.996 85.3297L845.932 61.498L848.794 59.9093M796.453 180.14L848.794 151.088V59.9093M796.453 180.14L789.711 177.992V176.354M848.794 59.9093L821.825 51.3164L818.963 52.9052L776.027 76.7369L769.484 80.3684M769.484 80.3684V171.547L776.227 173.695M769.484 80.3684L776.227 82.5166M776.227 173.695V82.5166M776.227 173.695L779.786 173.192M776.227 82.5166L779.786 82.0135M789.711 86.813L789.9 85.2358L788.214 84.6987L784.843 83.6246M789.711 86.813V176.354M784.843 83.6246L781.472 82.5505L779.786 82.0135M784.843 83.6246V174.803M779.786 82.0135V173.192M779.786 173.192L784.843 174.803M784.843 174.803L789.711 176.354M822.334 53.9793L842.561 60.4239L799.625 84.2556L781.574 78.5042M822.334 53.9793L779.398 77.811L781.574 78.5042M822.334 53.9793V55.8801M822.334 55.8801L781.574 78.5042M822.334 55.8801L840.385 61.6315" stroke="#012750" stroke-width="0.219087"/>
<path d="M796.453 180.137V88.9582L802.996 85.3267L845.931 61.495L848.794 59.9062V151.085L796.453 180.137Z" fill="#93BAE6" stroke="#012750" stroke-width="0.219087"/>
<path d="M822.334 53.9766L842.561 60.4212L840.385 61.6288L799.625 84.2529L781.574 78.5014L779.398 77.8082L822.334 53.9766Z" fill="#93BAE6"/>
<path d="M822.334 53.9766L842.561 60.4212L799.625 84.2529L781.574 78.5014M822.334 53.9766L779.398 77.8082L781.574 78.5014M822.334 53.9766V55.8774M822.334 55.8774L781.574 78.5014M822.334 55.8774L840.385 61.6288" stroke="#012750" stroke-width="0.219087"/>
<path d="M781.574 78.503L822.334 55.8789L840.385 61.6303L799.625 84.2544L781.574 78.503Z" fill="#5A97D6" stroke="#012750" stroke-width="0.219087"/>
<path d="M796.453 88.96V180.139L789.711 177.99V176.353L784.843 174.802L779.786 173.191L776.227 173.694L769.484 171.546V80.3672L776.227 82.5154L779.786 82.0123L781.472 82.5494L784.843 83.6235L788.214 84.6976L789.9 85.2346L789.711 86.8118L796.453 88.96Z" fill="white"/>
<path d="M776.227 173.694L769.484 171.546V80.3672L776.227 82.5154M776.227 173.694V82.5154M776.227 173.694L779.786 173.191M776.227 82.5154L779.786 82.0123M789.711 86.8118L796.453 88.96V180.139L789.711 177.99V176.353M789.711 86.8118L789.9 85.2346L788.214 84.6976L784.843 83.6235M789.711 86.8118V176.353M784.843 83.6235L781.472 82.5494L779.786 82.0123M784.843 83.6235V174.802M779.786 82.0123V173.191M779.786 173.191L784.843 174.802M784.843 174.802L789.711 176.353" stroke="#012750" stroke-width="0.219087"/>
<path d="M776.227 173.693V82.5148L779.786 82.0117L781.472 82.5488L784.843 83.6229L788.214 84.697L789.899 85.234L789.711 86.8112V176.353L784.843 174.801L779.786 173.19L776.227 173.693Z" fill="#C6D9F1"/>
<path d="M789.711 177.99V176.353M784.843 83.6229L781.472 82.5488L779.786 82.0117M784.843 83.6229L788.214 84.697L789.899 85.234L789.711 86.8112V176.353M784.843 83.6229V174.801M779.786 82.0117L776.227 82.5148V173.693L779.786 173.19M779.786 82.0117V173.19M779.786 173.19L784.843 174.801M784.843 174.801L789.711 176.353" stroke="#012750" stroke-width="0.219087"/>
<path d="M781.471 82.5488L784.842 83.6229L788.213 84.697L789.899 85.234L789.71 86.8112V176.353L784.842 174.801L779.785 173.19V82.0117L781.471 82.5488Z" fill="#93BAE6"/>
<path d="M784.842 83.6229L781.471 82.5488L779.785 82.0117V173.19L784.842 174.801M784.842 83.6229L788.213 84.697L789.899 85.234L789.71 86.8112V176.353L784.842 174.801M784.842 83.6229V174.801" stroke="#012750" stroke-width="0.219087"/>
<path d="M92.1425 113.866V123.457H89.24V108.524H91.5536L99.2724 118.367V108.545H102.175V123.457H99.7562L92.1425 113.866ZM104.903 119.335V112.436H107.721V118.725C107.721 119.566 107.875 120.204 108.184 120.639C108.492 121.059 108.948 121.27 109.551 121.27C109.915 121.27 110.273 121.2 110.624 121.059C110.988 120.905 111.318 120.681 111.612 120.386C111.921 120.092 112.18 119.72 112.39 119.272V112.436H115.209V120.302C115.209 120.597 115.258 120.807 115.356 120.933C115.468 121.059 115.643 121.136 115.882 121.164V123.457C115.601 123.499 115.363 123.527 115.167 123.541C114.984 123.569 114.816 123.583 114.662 123.583C114.157 123.583 113.743 123.471 113.421 123.247C113.112 123.008 112.93 122.686 112.874 122.279L112.811 121.396C112.32 122.139 111.689 122.707 110.918 123.099C110.147 123.478 109.298 123.667 108.373 123.667C107.237 123.667 106.375 123.303 105.786 122.574C105.197 121.831 104.903 120.751 104.903 119.335ZM135.13 123.457H132.311V117.274C132.311 116.404 132.157 115.766 131.849 115.36C131.554 114.939 131.141 114.729 130.608 114.729C130.061 114.729 129.535 114.946 129.03 115.381C128.54 115.801 128.189 116.355 127.979 117.042V123.457H125.16V117.274C125.16 116.39 125.006 115.745 124.698 115.339C124.403 114.932 123.99 114.729 123.457 114.729C122.91 114.729 122.384 114.939 121.879 115.36C121.389 115.78 121.038 116.334 120.828 117.021V123.457H118.009V112.436H120.554V114.476C120.975 113.761 121.536 113.214 122.237 112.836C122.938 112.443 123.744 112.247 124.656 112.247C125.567 112.247 126.275 112.471 126.78 112.92C127.299 113.368 127.628 113.922 127.768 114.581C128.217 113.824 128.785 113.249 129.472 112.857C130.173 112.45 130.958 112.247 131.828 112.247C132.515 112.247 133.069 112.373 133.489 112.625C133.924 112.864 134.26 113.193 134.499 113.614C134.737 114.02 134.898 114.483 134.982 115.002C135.081 115.521 135.13 116.047 135.13 116.579V123.457ZM136.826 120.197C136.826 119.482 137.023 118.858 137.415 118.325C137.822 117.778 138.383 117.358 139.098 117.063C139.813 116.769 140.633 116.622 141.559 116.622C142.021 116.622 142.491 116.657 142.968 116.727C143.444 116.797 143.858 116.909 144.209 117.063V116.474C144.209 115.773 143.998 115.233 143.578 114.855C143.171 114.476 142.561 114.287 141.748 114.287C141.145 114.287 140.57 114.392 140.023 114.602C139.476 114.813 138.901 115.121 138.299 115.528L137.394 113.677C138.123 113.2 138.866 112.843 139.624 112.604C140.395 112.366 141.201 112.247 142.042 112.247C143.613 112.247 144.833 112.639 145.702 113.425C146.585 114.21 147.027 115.332 147.027 116.79V120.302C147.027 120.597 147.076 120.807 147.174 120.933C147.286 121.059 147.462 121.136 147.7 121.164V123.457C147.448 123.499 147.216 123.534 147.006 123.562C146.81 123.59 146.641 123.604 146.501 123.604C145.94 123.604 145.513 123.478 145.218 123.226C144.938 122.973 144.763 122.665 144.692 122.3L144.629 121.732C144.153 122.349 143.557 122.826 142.842 123.163C142.126 123.499 141.397 123.667 140.654 123.667C139.925 123.667 139.266 123.52 138.677 123.226C138.102 122.917 137.647 122.504 137.31 121.985C136.988 121.452 136.826 120.856 136.826 120.197ZM143.683 120.765C143.837 120.597 143.963 120.428 144.061 120.26C144.16 120.092 144.209 119.938 144.209 119.797V118.683C143.872 118.542 143.508 118.437 143.115 118.367C142.722 118.283 142.351 118.241 142 118.241C141.271 118.241 140.668 118.402 140.191 118.725C139.729 119.033 139.497 119.447 139.497 119.966C139.497 120.246 139.575 120.512 139.729 120.765C139.883 121.017 140.107 121.221 140.402 121.375C140.696 121.529 141.047 121.606 141.453 121.606C141.874 121.606 142.288 121.529 142.694 121.375C143.101 121.207 143.43 121.003 143.683 120.765ZM156.223 114.876C155.367 114.876 154.603 115.044 153.93 115.381C153.257 115.703 152.773 116.173 152.479 116.79V123.457H149.661V112.436H152.248V114.792C152.64 114.035 153.138 113.439 153.741 113.004C154.344 112.569 154.982 112.331 155.655 112.289C155.809 112.289 155.928 112.289 156.012 112.289C156.097 112.289 156.167 112.296 156.223 112.31V114.876ZM157.794 123.457V112.436H160.613V123.457H157.794ZM157.794 110.901V108.103H160.613V110.901H157.794ZM167.214 123.667C166.275 123.667 165.377 123.513 164.522 123.205C163.667 122.896 162.931 122.44 162.314 121.838L163.323 120.008C163.982 120.541 164.627 120.933 165.258 121.186C165.903 121.438 166.52 121.564 167.109 121.564C167.656 121.564 168.091 121.466 168.413 121.27C168.75 121.073 168.918 120.779 168.918 120.386C168.918 120.12 168.827 119.917 168.645 119.776C168.462 119.622 168.196 119.489 167.845 119.377C167.509 119.265 167.095 119.138 166.604 118.998C165.791 118.732 165.111 118.472 164.564 118.22C164.017 117.968 163.604 117.652 163.323 117.274C163.057 116.881 162.924 116.383 162.924 115.78C162.924 115.051 163.106 114.427 163.471 113.908C163.849 113.376 164.368 112.962 165.027 112.667C165.7 112.373 166.485 112.226 167.383 112.226C168.168 112.226 168.911 112.352 169.612 112.604C170.313 112.843 170.951 113.235 171.526 113.782L170.39 115.57C169.829 115.135 169.297 114.82 168.792 114.623C168.287 114.413 167.775 114.308 167.256 114.308C166.962 114.308 166.681 114.343 166.415 114.413C166.163 114.483 165.952 114.602 165.784 114.771C165.63 114.925 165.553 115.149 165.553 115.444C165.553 115.71 165.623 115.92 165.763 116.075C165.917 116.215 166.142 116.341 166.436 116.453C166.745 116.565 167.116 116.692 167.551 116.832C168.434 117.084 169.177 117.344 169.78 117.61C170.397 117.876 170.86 118.206 171.168 118.599C171.477 118.977 171.631 119.503 171.631 120.176C171.631 121.27 171.232 122.125 170.432 122.742C169.633 123.359 168.56 123.667 167.214 123.667Z" fill="#5A97D6"/>
<path d="M894.166 123.457V108.524H900.497C901.184 108.524 901.815 108.664 902.389 108.945C902.964 109.225 903.462 109.604 903.883 110.08C904.317 110.557 904.654 111.09 904.892 111.679C905.131 112.268 905.25 112.871 905.25 113.488C905.25 114.329 905.054 115.128 904.661 115.885C904.268 116.643 903.729 117.259 903.041 117.736C902.354 118.213 901.541 118.451 900.602 118.451H897.068V123.457H894.166ZM897.068 115.906H900.433C900.784 115.906 901.099 115.808 901.38 115.612C901.66 115.416 901.885 115.135 902.053 114.771C902.221 114.392 902.305 113.964 902.305 113.488C902.305 112.969 902.207 112.527 902.011 112.163C901.829 111.798 901.583 111.525 901.275 111.342C900.98 111.16 900.658 111.069 900.307 111.069H897.068V115.906ZM913.559 114.876C912.703 114.876 911.939 115.044 911.266 115.381C910.593 115.703 910.109 116.173 909.815 116.79V123.457H906.997V112.436H909.584V114.792C909.976 114.035 910.474 113.439 911.077 113.004C911.68 112.569 912.318 112.331 912.991 112.289C913.145 112.289 913.264 112.289 913.348 112.289C913.432 112.289 913.503 112.296 913.559 112.31V114.876ZM920.076 123.667C919.179 123.667 918.373 123.52 917.657 123.226C916.942 122.917 916.332 122.497 915.828 121.964C915.337 121.431 914.958 120.821 914.692 120.134C914.426 119.447 914.292 118.725 914.292 117.968C914.292 117.196 914.426 116.467 914.692 115.78C914.958 115.093 915.337 114.483 915.828 113.95C916.332 113.418 916.942 113.004 917.657 112.709C918.373 112.401 919.179 112.247 920.076 112.247C920.974 112.247 921.773 112.401 922.474 112.709C923.189 113.004 923.799 113.418 924.304 113.95C924.808 114.483 925.187 115.093 925.439 115.78C925.706 116.467 925.839 117.196 925.839 117.968C925.839 118.725 925.706 119.447 925.439 120.134C925.187 120.821 924.808 121.431 924.304 121.964C923.813 122.497 923.21 122.917 922.495 123.226C921.78 123.52 920.974 123.667 920.076 123.667ZM917.195 117.968C917.195 118.613 917.321 119.187 917.573 119.692C917.826 120.183 918.169 120.569 918.604 120.849C919.039 121.129 919.529 121.27 920.076 121.27C920.609 121.27 921.093 121.129 921.527 120.849C921.962 120.555 922.306 120.162 922.558 119.671C922.824 119.166 922.958 118.592 922.958 117.947C922.958 117.316 922.824 116.748 922.558 116.243C922.306 115.738 921.962 115.346 921.527 115.065C921.093 114.785 920.609 114.644 920.076 114.644C919.529 114.644 919.039 114.792 918.604 115.086C918.169 115.367 917.826 115.759 917.573 116.264C917.321 116.755 917.195 117.323 917.195 117.968ZM930.337 123.457L926.278 112.436H929.201L931.978 120.891L934.775 112.436H937.446L933.408 123.457H930.337ZM943.677 123.667C942.793 123.667 941.994 123.52 941.279 123.226C940.564 122.917 939.954 122.504 939.449 121.985C938.944 121.452 938.552 120.849 938.271 120.176C938.005 119.489 937.872 118.767 937.872 118.01C937.872 116.958 938.103 115.998 938.566 115.128C939.042 114.259 939.715 113.565 940.585 113.046C941.468 112.513 942.506 112.247 943.698 112.247C944.903 112.247 945.934 112.513 946.789 113.046C947.645 113.565 948.297 114.259 948.745 115.128C949.208 115.984 949.439 116.909 949.439 117.904C949.439 118.073 949.432 118.248 949.418 118.43C949.404 118.599 949.39 118.739 949.376 118.851H940.858C940.914 119.412 941.076 119.903 941.342 120.323C941.622 120.744 941.973 121.066 942.394 121.291C942.828 121.501 943.291 121.606 943.782 121.606C944.343 121.606 944.868 121.473 945.359 121.207C945.864 120.926 946.207 120.562 946.39 120.113L948.808 120.786C948.542 121.347 948.156 121.845 947.652 122.279C947.161 122.714 946.579 123.057 945.906 123.31C945.233 123.548 944.49 123.667 943.677 123.667ZM940.795 117.063H946.558C946.502 116.502 946.341 116.019 946.074 115.612C945.822 115.191 945.485 114.869 945.065 114.644C944.644 114.406 944.174 114.287 943.655 114.287C943.151 114.287 942.688 114.406 942.267 114.644C941.861 114.869 941.524 115.191 941.258 115.612C941.005 116.019 940.851 116.502 940.795 117.063ZM956.267 123.667C955.384 123.667 954.585 123.52 953.87 123.226C953.154 122.917 952.544 122.504 952.04 121.985C951.535 121.452 951.142 120.849 950.862 120.176C950.595 119.489 950.462 118.767 950.462 118.01C950.462 116.958 950.694 115.998 951.156 115.128C951.633 114.259 952.306 113.565 953.175 113.046C954.059 112.513 955.096 112.247 956.288 112.247C957.494 112.247 958.525 112.513 959.38 113.046C960.235 113.565 960.887 114.259 961.336 115.128C961.799 115.984 962.03 116.909 962.03 117.904C962.03 118.073 962.023 118.248 962.009 118.43C961.995 118.599 961.981 118.739 961.967 118.851H953.449C953.505 119.412 953.666 119.903 953.933 120.323C954.213 120.744 954.564 121.066 954.984 121.291C955.419 121.501 955.882 121.606 956.372 121.606C956.933 121.606 957.459 121.473 957.95 121.207C958.455 120.926 958.798 120.562 958.98 120.113L961.399 120.786C961.133 121.347 960.747 121.845 960.242 122.279C959.752 122.714 959.17 123.057 958.497 123.31C957.824 123.548 957.08 123.667 956.267 123.667ZM953.386 117.063H959.149C959.093 116.502 958.931 116.019 958.665 115.612C958.413 115.191 958.076 114.869 957.655 114.644C957.235 114.406 956.765 114.287 956.246 114.287C955.741 114.287 955.279 114.406 954.858 114.644C954.451 114.869 954.115 115.191 953.848 115.612C953.596 116.019 953.442 116.502 953.386 117.063ZM963.074 117.947C963.074 116.881 963.284 115.92 963.705 115.065C964.126 114.196 964.707 113.509 965.451 113.004C966.194 112.499 967.042 112.247 967.996 112.247C968.809 112.247 969.538 112.45 970.183 112.857C970.842 113.249 971.354 113.754 971.718 114.371V108.103H974.537V120.302C974.537 120.597 974.586 120.807 974.684 120.933C974.782 121.059 974.95 121.136 975.189 121.164V123.457C974.698 123.555 974.298 123.604 973.99 123.604C973.485 123.604 973.064 123.478 972.728 123.226C972.405 122.973 972.223 122.644 972.181 122.237L972.139 121.543C971.732 122.23 971.178 122.756 970.477 123.121C969.79 123.485 969.068 123.667 968.311 123.667C967.554 123.667 966.853 123.52 966.208 123.226C965.577 122.931 965.023 122.525 964.546 122.006C964.084 121.487 963.719 120.884 963.453 120.197C963.2 119.496 963.074 118.746 963.074 117.947ZM971.718 119.419V116.79C971.578 116.383 971.354 116.019 971.045 115.696C970.737 115.374 970.393 115.121 970.015 114.939C969.636 114.743 969.258 114.644 968.879 114.644C968.444 114.644 968.052 114.736 967.701 114.918C967.351 115.1 967.042 115.346 966.776 115.654C966.523 115.962 966.327 116.32 966.187 116.727C966.061 117.133 965.997 117.561 965.997 118.01C965.997 118.458 966.068 118.886 966.208 119.293C966.362 119.685 966.579 120.029 966.86 120.323C967.14 120.618 967.463 120.849 967.827 121.017C968.206 121.186 968.613 121.27 969.047 121.27C969.314 121.27 969.58 121.228 969.846 121.143C970.127 121.045 970.386 120.919 970.625 120.765C970.877 120.597 971.094 120.4 971.277 120.176C971.473 119.938 971.62 119.685 971.718 119.419ZM982.393 123.667C981.496 123.667 980.689 123.52 979.974 123.226C979.259 122.917 978.649 122.497 978.144 121.964C977.654 121.431 977.275 120.821 977.009 120.134C976.742 119.447 976.609 118.725 976.609 117.968C976.609 117.196 976.742 116.467 977.009 115.78C977.275 115.093 977.654 114.483 978.144 113.95C978.649 113.418 979.259 113.004 979.974 112.709C980.689 112.401 981.496 112.247 982.393 112.247C983.29 112.247 984.09 112.401 984.791 112.709C985.506 113.004 986.116 113.418 986.62 113.95C987.125 114.483 987.504 115.093 987.756 115.78C988.023 116.467 988.156 117.196 988.156 117.968C988.156 118.725 988.023 119.447 987.756 120.134C987.504 120.821 987.125 121.431 986.62 121.964C986.13 122.497 985.527 122.917 984.812 123.226C984.097 123.52 983.29 123.667 982.393 123.667ZM979.511 117.968C979.511 118.613 979.638 119.187 979.89 119.692C980.142 120.183 980.486 120.569 980.921 120.849C981.355 121.129 981.846 121.27 982.393 121.27C982.926 121.27 983.409 121.129 983.844 120.849C984.279 120.555 984.622 120.162 984.875 119.671C985.141 119.166 985.274 118.592 985.274 117.947C985.274 117.316 985.141 116.748 984.875 116.243C984.622 115.738 984.279 115.346 983.844 115.065C983.409 114.785 982.926 114.644 982.393 114.644C981.846 114.644 981.355 114.792 980.921 115.086C980.486 115.367 980.142 115.759 979.89 116.264C979.638 116.755 979.511 117.323 979.511 117.968ZM996.62 114.876C995.765 114.876 995.001 115.044 994.328 115.381C993.655 115.703 993.171 116.173 992.876 116.79V123.457H990.058V112.436H992.645V114.792C993.038 114.035 993.535 113.439 994.138 113.004C994.741 112.569 995.379 112.331 996.052 112.289C996.207 112.289 996.326 112.289 996.41 112.289C996.494 112.289 996.564 112.296 996.62 112.31V114.876Z" fill="#012750"/>
<path d="M1015.08 119.608C1015.08 120.449 1014.86 121.157 1014.42 121.732C1013.99 122.293 1013.4 122.721 1012.66 123.015C1011.93 123.31 1011.13 123.457 1010.26 123.457H1003.05V108.524H1011.04C1011.74 108.524 1012.34 108.713 1012.85 109.092C1013.37 109.456 1013.76 109.933 1014.02 110.522C1014.3 111.097 1014.44 111.7 1014.44 112.331C1014.44 113.046 1014.26 113.726 1013.9 114.371C1013.53 115.016 1013 115.493 1012.3 115.801C1013.15 116.054 1013.83 116.509 1014.32 117.168C1014.82 117.827 1015.08 118.641 1015.08 119.608ZM1012.15 119.061C1012.15 118.683 1012.08 118.346 1011.92 118.052C1011.77 117.743 1011.56 117.505 1011.29 117.337C1011.04 117.154 1010.74 117.063 1010.41 117.063H1005.95V120.996H1010.26C1010.61 120.996 1010.93 120.912 1011.21 120.744C1011.5 120.562 1011.73 120.323 1011.9 120.029C1012.07 119.734 1012.15 119.412 1012.15 119.061ZM1005.95 111.006V114.771H1009.82C1010.14 114.771 1010.43 114.694 1010.7 114.539C1010.97 114.385 1011.18 114.168 1011.33 113.887C1011.5 113.607 1011.58 113.27 1011.58 112.878C1011.58 112.499 1011.51 112.17 1011.35 111.889C1011.21 111.609 1011.02 111.391 1010.76 111.237C1010.53 111.083 1010.25 111.006 1009.94 111.006H1005.95Z" fill="#5A97D6"/>
<path d="M51.5564 386.363V371.43H57.8871C58.5742 371.43 59.2052 371.57 59.7801 371.851C60.355 372.131 60.8527 372.51 61.2734 372.987C61.708 373.463 62.0446 373.996 62.2829 374.585C62.5213 375.174 62.6405 375.777 62.6405 376.394C62.6405 377.235 62.4442 378.034 62.0516 378.792C61.659 379.549 61.1191 380.166 60.4321 380.642C59.745 381.119 58.9318 381.358 57.9923 381.358H54.4589V386.363H51.5564ZM54.4589 378.813H57.8241C58.1746 378.813 58.4901 378.714 58.7705 378.518C59.0509 378.322 59.2753 378.041 59.4435 377.677C59.6118 377.298 59.6959 376.871 59.6959 376.394C59.6959 375.875 59.5978 375.433 59.4015 375.069C59.2192 374.704 58.9738 374.431 58.6653 374.249C58.3709 374.066 58.0484 373.975 57.6979 373.975H54.4589V378.813ZM70.9493 377.782C70.0939 377.782 69.3298 377.95 68.6567 378.287C67.9837 378.609 67.4999 379.079 67.2055 379.696V386.363H64.3871V375.342H66.9741V377.698C67.3667 376.941 67.8645 376.345 68.4674 375.91C69.0704 375.476 69.7083 375.237 70.3814 375.195C70.5356 375.195 70.6548 375.195 70.7389 375.195C70.8231 375.195 70.8932 375.202 70.9493 375.216V377.782ZM77.4668 386.574C76.5694 386.574 75.7632 386.426 75.0481 386.132C74.333 385.823 73.7231 385.403 73.2183 384.87C72.7275 384.337 72.3489 383.727 72.0825 383.04C71.8161 382.353 71.6829 381.631 71.6829 380.874C71.6829 380.103 71.8161 379.374 72.0825 378.686C72.3489 377.999 72.7275 377.389 73.2183 376.857C73.7231 376.324 74.333 375.91 75.0481 375.616C75.7632 375.307 76.5694 375.153 77.4668 375.153C78.3642 375.153 79.1634 375.307 79.8645 375.616C80.5796 375.91 81.1896 376.324 81.6943 376.857C82.1991 377.389 82.5777 377.999 82.8301 378.686C83.0965 379.374 83.2297 380.103 83.2297 380.874C83.2297 381.631 83.0965 382.353 82.8301 383.04C82.5777 383.727 82.1991 384.337 81.6943 384.87C81.2036 385.403 80.6007 385.823 79.8856 386.132C79.1705 386.426 78.3642 386.574 77.4668 386.574ZM74.5854 380.874C74.5854 381.519 74.7116 382.094 74.964 382.598C75.2164 383.089 75.5599 383.475 75.9946 383.755C76.4292 384.036 76.92 384.176 77.4668 384.176C77.9997 384.176 78.4834 384.036 78.9181 383.755C79.3527 383.461 79.6963 383.068 79.9487 382.577C80.2151 382.073 80.3483 381.498 80.3483 380.853C80.3483 380.222 80.2151 379.654 79.9487 379.149C79.6963 378.644 79.3527 378.252 78.9181 377.971C78.4834 377.691 77.9997 377.551 77.4668 377.551C76.92 377.551 76.4292 377.698 75.9946 377.992C75.5599 378.273 75.2164 378.665 74.964 379.17C74.7116 379.661 74.5854 380.229 74.5854 380.874ZM87.7278 386.363L83.6686 375.342H86.5921L89.3684 383.797L92.1657 375.342H94.8368L90.7986 386.363H87.7278ZM101.067 386.574C100.184 386.574 99.3846 386.426 98.6695 386.132C97.9544 385.823 97.3444 385.41 96.8396 384.891C96.3349 384.358 95.9423 383.755 95.6618 383.082C95.3954 382.395 95.2622 381.673 95.2622 380.916C95.2622 379.864 95.4936 378.904 95.9563 378.034C96.433 377.165 97.106 376.471 97.9754 375.952C98.8587 375.419 99.8963 375.153 101.088 375.153C102.294 375.153 103.325 375.419 104.18 375.952C105.035 376.471 105.687 377.165 106.136 378.034C106.599 378.89 106.83 379.815 106.83 380.811C106.83 380.979 106.823 381.154 106.809 381.337C106.795 381.505 106.781 381.645 106.767 381.757H98.2488C98.3049 382.318 98.4661 382.809 98.7326 383.229C99.013 383.65 99.3635 383.973 99.7842 384.197C100.219 384.407 100.682 384.512 101.172 384.512C101.733 384.512 102.259 384.379 102.75 384.113C103.255 383.832 103.598 383.468 103.78 383.019L106.199 383.692C105.933 384.253 105.547 384.751 105.042 385.185C104.552 385.62 103.97 385.964 103.297 386.216C102.624 386.454 101.88 386.574 101.067 386.574ZM98.1857 379.969H103.949C103.893 379.409 103.731 378.925 103.465 378.518C103.212 378.098 102.876 377.775 102.455 377.551C102.035 377.312 101.565 377.193 101.046 377.193C100.541 377.193 100.079 377.312 99.658 377.551C99.2514 377.775 98.9148 378.098 98.6484 378.518C98.396 378.925 98.2418 379.409 98.1857 379.969ZM113.658 386.574C112.774 386.574 111.975 386.426 111.26 386.132C110.545 385.823 109.935 385.41 109.43 384.891C108.926 384.358 108.533 383.755 108.253 383.082C107.986 382.395 107.853 381.673 107.853 380.916C107.853 379.864 108.084 378.904 108.547 378.034C109.024 377.165 109.697 376.471 110.566 375.952C111.449 375.419 112.487 375.153 113.679 375.153C114.885 375.153 115.915 375.419 116.771 375.952C117.626 376.471 118.278 377.165 118.727 378.034C119.189 378.89 119.421 379.815 119.421 380.811C119.421 380.979 119.414 381.154 119.4 381.337C119.386 381.505 119.372 381.645 119.358 381.757H110.839C110.896 382.318 111.057 382.809 111.323 383.229C111.604 383.65 111.954 383.973 112.375 384.197C112.81 384.407 113.272 384.512 113.763 384.512C114.324 384.512 114.85 384.379 115.34 384.113C115.845 383.832 116.189 383.468 116.371 383.019L118.79 383.692C118.523 384.253 118.138 384.751 117.633 385.185C117.142 385.62 116.56 385.964 115.887 386.216C115.214 386.454 114.471 386.574 113.658 386.574ZM110.776 379.969H116.539C116.483 379.409 116.322 378.925 116.056 378.518C115.803 378.098 115.467 377.775 115.046 377.551C114.625 377.312 114.156 377.193 113.637 377.193C113.132 377.193 112.669 377.312 112.249 377.551C111.842 377.775 111.506 378.098 111.239 378.518C110.987 378.925 110.832 379.409 110.776 379.969ZM120.465 380.853C120.465 379.787 120.675 378.827 121.096 377.971C121.516 377.102 122.098 376.415 122.841 375.91C123.584 375.405 124.433 375.153 125.386 375.153C126.199 375.153 126.929 375.356 127.574 375.763C128.233 376.156 128.744 376.66 129.109 377.277V371.01H131.927V383.208C131.927 383.503 131.976 383.713 132.074 383.839C132.173 383.966 132.341 384.043 132.579 384.071V386.363C132.089 386.461 131.689 386.511 131.38 386.511C130.876 386.511 130.455 386.384 130.118 386.132C129.796 385.88 129.614 385.55 129.572 385.143L129.53 384.449C129.123 385.136 128.569 385.662 127.868 386.027C127.181 386.391 126.459 386.574 125.702 386.574C124.945 386.574 124.243 386.426 123.598 386.132C122.967 385.837 122.414 385.431 121.937 384.912C121.474 384.393 121.11 383.79 120.843 383.103C120.591 382.402 120.465 381.652 120.465 380.853ZM129.109 382.325V379.696C128.969 379.289 128.744 378.925 128.436 378.602C128.127 378.28 127.784 378.027 127.405 377.845C127.027 377.649 126.648 377.551 126.27 377.551C125.835 377.551 125.442 377.642 125.092 377.824C124.741 378.006 124.433 378.252 124.166 378.56C123.914 378.869 123.718 379.226 123.577 379.633C123.451 380.04 123.388 380.467 123.388 380.916C123.388 381.365 123.458 381.792 123.598 382.199C123.753 382.591 123.97 382.935 124.25 383.229C124.531 383.524 124.853 383.755 125.218 383.924C125.597 384.092 126.003 384.176 126.438 384.176C126.704 384.176 126.971 384.134 127.237 384.05C127.517 383.952 127.777 383.825 128.015 383.671C128.268 383.503 128.485 383.307 128.667 383.082C128.864 382.844 129.011 382.591 129.109 382.325ZM139.784 386.574C138.886 386.574 138.08 386.426 137.365 386.132C136.65 385.823 136.04 385.403 135.535 384.87C135.044 384.337 134.666 383.727 134.399 383.04C134.133 382.353 134 381.631 134 380.874C134 380.103 134.133 379.374 134.399 378.686C134.666 377.999 135.044 377.389 135.535 376.857C136.04 376.324 136.65 375.91 137.365 375.616C138.08 375.307 138.886 375.153 139.784 375.153C140.681 375.153 141.48 375.307 142.181 375.616C142.896 375.91 143.506 376.324 144.011 376.857C144.516 377.389 144.894 377.999 145.147 378.686C145.413 379.374 145.546 380.103 145.546 380.874C145.546 381.631 145.413 382.353 145.147 383.04C144.894 383.727 144.516 384.337 144.011 384.87C143.52 385.403 142.917 385.823 142.202 386.132C141.487 386.426 140.681 386.574 139.784 386.574ZM136.902 380.874C136.902 381.519 137.028 382.094 137.281 382.598C137.533 383.089 137.877 383.475 138.311 383.755C138.746 384.036 139.237 384.176 139.784 384.176C140.316 384.176 140.8 384.036 141.235 383.755C141.669 383.461 142.013 383.068 142.265 382.577C142.532 382.073 142.665 381.498 142.665 380.853C142.665 380.222 142.532 379.654 142.265 379.149C142.013 378.644 141.669 378.252 141.235 377.971C140.8 377.691 140.316 377.551 139.784 377.551C139.237 377.551 138.746 377.698 138.311 377.992C137.877 378.273 137.533 378.665 137.281 379.17C137.028 379.661 136.902 380.229 136.902 380.874ZM154.011 377.782C153.155 377.782 152.391 377.95 151.718 378.287C151.045 378.609 150.561 379.079 150.267 379.696V386.363H147.449V375.342H150.036V377.698C150.428 376.941 150.926 376.345 151.529 375.91C152.132 375.476 152.77 375.237 153.443 375.195C153.597 375.195 153.716 375.195 153.8 375.195C153.885 375.195 153.955 375.202 154.011 375.216V377.782Z" fill="#012750"/>
<path d="M163.838 371.43H166.783L172.272 386.363H169.285L167.897 382.641H162.681L161.314 386.363H158.328L163.838 371.43ZM167.371 380.6L165.31 374.438L163.165 380.6H167.371Z" fill="#5A97D6"/>
<path d="M894.166 386.363V371.43H900.497C901.184 371.43 901.815 371.57 902.389 371.851C902.964 372.131 903.462 372.51 903.883 372.987C904.317 373.463 904.654 373.996 904.892 374.585C905.131 375.174 905.25 375.777 905.25 376.394C905.25 377.235 905.054 378.034 904.661 378.792C904.268 379.549 903.729 380.166 903.041 380.642C902.354 381.119 901.541 381.358 900.602 381.358H897.068V386.363H894.166ZM897.068 378.813H900.433C900.784 378.813 901.099 378.714 901.38 378.518C901.66 378.322 901.885 378.041 902.053 377.677C902.221 377.298 902.305 376.871 902.305 376.394C902.305 375.875 902.207 375.433 902.011 375.069C901.829 374.704 901.583 374.431 901.275 374.249C900.98 374.066 900.658 373.975 900.307 373.975H897.068V378.813ZM913.559 377.782C912.703 377.782 911.939 377.95 911.266 378.287C910.593 378.609 910.109 379.079 909.815 379.696V386.363H906.997V375.342H909.584V377.698C909.976 376.941 910.474 376.345 911.077 375.91C911.68 375.476 912.318 375.237 912.991 375.195C913.145 375.195 913.264 375.195 913.348 375.195C913.432 375.195 913.503 375.202 913.559 375.216V377.782ZM920.076 386.574C919.179 386.574 918.373 386.426 917.657 386.132C916.942 385.823 916.332 385.403 915.828 384.87C915.337 384.337 914.958 383.727 914.692 383.04C914.426 382.353 914.292 381.631 914.292 380.874C914.292 380.103 914.426 379.374 914.692 378.686C914.958 377.999 915.337 377.389 915.828 376.857C916.332 376.324 916.942 375.91 917.657 375.616C918.373 375.307 919.179 375.153 920.076 375.153C920.974 375.153 921.773 375.307 922.474 375.616C923.189 375.91 923.799 376.324 924.304 376.857C924.808 377.389 925.187 377.999 925.439 378.686C925.706 379.374 925.839 380.103 925.839 380.874C925.839 381.631 925.706 382.353 925.439 383.04C925.187 383.727 924.808 384.337 924.304 384.87C923.813 385.403 923.21 385.823 922.495 386.132C921.78 386.426 920.974 386.574 920.076 386.574ZM917.195 380.874C917.195 381.519 917.321 382.094 917.573 382.598C917.826 383.089 918.169 383.475 918.604 383.755C919.039 384.036 919.529 384.176 920.076 384.176C920.609 384.176 921.093 384.036 921.527 383.755C921.962 383.461 922.306 383.068 922.558 382.577C922.824 382.073 922.958 381.498 922.958 380.853C922.958 380.222 922.824 379.654 922.558 379.149C922.306 378.644 921.962 378.252 921.527 377.971C921.093 377.691 920.609 377.551 920.076 377.551C919.529 377.551 919.039 377.698 918.604 377.992C918.169 378.273 917.826 378.665 917.573 379.17C917.321 379.661 917.195 380.229 917.195 380.874ZM930.337 386.363L926.278 375.342H929.201L931.978 383.797L934.775 375.342H937.446L933.408 386.363H930.337ZM943.677 386.574C942.793 386.574 941.994 386.426 941.279 386.132C940.564 385.823 939.954 385.41 939.449 384.891C938.944 384.358 938.552 383.755 938.271 383.082C938.005 382.395 937.872 381.673 937.872 380.916C937.872 379.864 938.103 378.904 938.566 378.034C939.042 377.165 939.715 376.471 940.585 375.952C941.468 375.419 942.506 375.153 943.698 375.153C944.903 375.153 945.934 375.419 946.789 375.952C947.645 376.471 948.297 377.165 948.745 378.034C949.208 378.89 949.439 379.815 949.439 380.811C949.439 380.979 949.432 381.154 949.418 381.337C949.404 381.505 949.39 381.645 949.376 381.757H940.858C940.914 382.318 941.076 382.809 941.342 383.229C941.622 383.65 941.973 383.973 942.394 384.197C942.828 384.407 943.291 384.512 943.782 384.512C944.343 384.512 944.868 384.379 945.359 384.113C945.864 383.832 946.207 383.468 946.39 383.019L948.808 383.692C948.542 384.253 948.156 384.751 947.652 385.185C947.161 385.62 946.579 385.964 945.906 386.216C945.233 386.454 944.49 386.574 943.677 386.574ZM940.795 379.969H946.558C946.502 379.409 946.341 378.925 946.074 378.518C945.822 378.098 945.485 377.775 945.065 377.551C944.644 377.312 944.174 377.193 943.655 377.193C943.151 377.193 942.688 377.312 942.267 377.551C941.861 377.775 941.524 378.098 941.258 378.518C941.005 378.925 940.851 379.409 940.795 379.969ZM956.267 386.574C955.384 386.574 954.585 386.426 953.87 386.132C953.154 385.823 952.544 385.41 952.04 384.891C951.535 384.358 951.142 383.755 950.862 383.082C950.595 382.395 950.462 381.673 950.462 380.916C950.462 379.864 950.694 378.904 951.156 378.034C951.633 377.165 952.306 376.471 953.175 375.952C954.059 375.419 955.096 375.153 956.288 375.153C957.494 375.153 958.525 375.419 959.38 375.952C960.235 376.471 960.887 377.165 961.336 378.034C961.799 378.89 962.03 379.815 962.03 380.811C962.03 380.979 962.023 381.154 962.009 381.337C961.995 381.505 961.981 381.645 961.967 381.757H953.449C953.505 382.318 953.666 382.809 953.933 383.229C954.213 383.65 954.564 383.973 954.984 384.197C955.419 384.407 955.882 384.512 956.372 384.512C956.933 384.512 957.459 384.379 957.95 384.113C958.455 383.832 958.798 383.468 958.98 383.019L961.399 383.692C961.133 384.253 960.747 384.751 960.242 385.185C959.752 385.62 959.17 385.964 958.497 386.216C957.824 386.454 957.08 386.574 956.267 386.574ZM953.386 379.969H959.149C959.093 379.409 958.931 378.925 958.665 378.518C958.413 378.098 958.076 377.775 957.655 377.551C957.235 377.312 956.765 377.193 956.246 377.193C955.741 377.193 955.279 377.312 954.858 377.551C954.451 377.775 954.115 378.098 953.848 378.518C953.596 378.925 953.442 379.409 953.386 379.969ZM963.074 380.853C963.074 379.787 963.284 378.827 963.705 377.971C964.126 377.102 964.707 376.415 965.451 375.91C966.194 375.405 967.042 375.153 967.996 375.153C968.809 375.153 969.538 375.356 970.183 375.763C970.842 376.156 971.354 376.66 971.718 377.277V371.01H974.537V383.208C974.537 383.503 974.586 383.713 974.684 383.839C974.782 383.966 974.95 384.043 975.189 384.071V386.363C974.698 386.461 974.298 386.511 973.99 386.511C973.485 386.511 973.064 386.384 972.728 386.132C972.405 385.88 972.223 385.55 972.181 385.143L972.139 384.449C971.732 385.136 971.178 385.662 970.477 386.027C969.79 386.391 969.068 386.574 968.311 386.574C967.554 386.574 966.853 386.426 966.208 386.132C965.577 385.837 965.023 385.431 964.546 384.912C964.084 384.393 963.719 383.79 963.453 383.103C963.2 382.402 963.074 381.652 963.074 380.853ZM971.718 382.325V379.696C971.578 379.289 971.354 378.925 971.045 378.602C970.737 378.28 970.393 378.027 970.015 377.845C969.636 377.649 969.258 377.551 968.879 377.551C968.444 377.551 968.052 377.642 967.701 377.824C967.351 378.006 967.042 378.252 966.776 378.56C966.523 378.869 966.327 379.226 966.187 379.633C966.061 380.04 965.997 380.467 965.997 380.916C965.997 381.365 966.068 381.792 966.208 382.199C966.362 382.591 966.579 382.935 966.86 383.229C967.14 383.524 967.463 383.755 967.827 383.924C968.206 384.092 968.613 384.176 969.047 384.176C969.314 384.176 969.58 384.134 969.846 384.05C970.127 383.952 970.386 383.825 970.625 383.671C970.877 383.503 971.094 383.307 971.277 383.082C971.473 382.844 971.62 382.591 971.718 382.325ZM982.393 386.574C981.496 386.574 980.689 386.426 979.974 386.132C979.259 385.823 978.649 385.403 978.144 384.87C977.654 384.337 977.275 383.727 977.009 383.04C976.742 382.353 976.609 381.631 976.609 380.874C976.609 380.103 976.742 379.374 977.009 378.686C977.275 377.999 977.654 377.389 978.144 376.857C978.649 376.324 979.259 375.91 979.974 375.616C980.689 375.307 981.496 375.153 982.393 375.153C983.29 375.153 984.09 375.307 984.791 375.616C985.506 375.91 986.116 376.324 986.62 376.857C987.125 377.389 987.504 377.999 987.756 378.686C988.023 379.374 988.156 380.103 988.156 380.874C988.156 381.631 988.023 382.353 987.756 383.04C987.504 383.727 987.125 384.337 986.62 384.87C986.13 385.403 985.527 385.823 984.812 386.132C984.097 386.426 983.29 386.574 982.393 386.574ZM979.511 380.874C979.511 381.519 979.638 382.094 979.89 382.598C980.142 383.089 980.486 383.475 980.921 383.755C981.355 384.036 981.846 384.176 982.393 384.176C982.926 384.176 983.409 384.036 983.844 383.755C984.279 383.461 984.622 383.068 984.875 382.577C985.141 382.073 985.274 381.498 985.274 380.853C985.274 380.222 985.141 379.654 984.875 379.149C984.622 378.644 984.279 378.252 983.844 377.971C983.409 377.691 982.926 377.551 982.393 377.551C981.846 377.551 981.355 377.698 980.921 377.992C980.486 378.273 980.142 378.665 979.89 379.17C979.638 379.661 979.511 380.229 979.511 380.874ZM996.62 377.782C995.765 377.782 995.001 377.95 994.328 378.287C993.655 378.609 993.171 379.079 992.876 379.696V386.363H990.058V375.342H992.645V377.698C993.038 376.941 993.535 376.345 994.138 375.91C994.741 375.476 995.379 375.237 996.052 375.195C996.207 375.195 996.326 375.195 996.41 375.195C996.494 375.195 996.564 375.202 996.62 375.216V377.782Z" fill="#012750"/>
<path d="M1002.14 378.792C1002.14 377.88 1002.3 376.99 1002.62 376.121C1002.96 375.237 1003.45 374.438 1004.08 373.723C1004.71 372.994 1005.48 372.419 1006.39 371.998C1007.3 371.563 1008.34 371.346 1009.5 371.346C1010.88 371.346 1012.06 371.648 1013.06 372.251C1014.07 372.853 1014.82 373.639 1015.31 374.606L1013.08 376.142C1012.83 375.581 1012.5 375.139 1012.09 374.816C1011.68 374.48 1011.25 374.249 1010.79 374.122C1010.32 373.982 1009.87 373.912 1009.42 373.912C1008.69 373.912 1008.05 374.059 1007.5 374.354C1006.97 374.648 1006.52 375.034 1006.16 375.511C1005.79 375.987 1005.52 376.52 1005.34 377.109C1005.17 377.698 1005.09 378.287 1005.09 378.876C1005.09 379.535 1005.19 380.173 1005.4 380.79C1005.61 381.393 1005.91 381.932 1006.28 382.409C1006.68 382.872 1007.14 383.243 1007.67 383.524C1008.22 383.79 1008.82 383.924 1009.46 383.924C1009.92 383.924 1010.39 383.846 1010.87 383.692C1011.35 383.538 1011.79 383.293 1012.19 382.956C1012.6 382.62 1012.92 382.185 1013.14 381.652L1015.52 383.019C1015.22 383.762 1014.74 384.393 1014.07 384.912C1013.41 385.431 1012.66 385.823 1011.84 386.09C1011.01 386.356 1010.19 386.489 1009.38 386.489C1008.31 386.489 1007.34 386.272 1006.45 385.837C1005.57 385.389 1004.81 384.8 1004.16 384.071C1003.53 383.328 1003.03 382.5 1002.67 381.589C1002.32 380.664 1002.14 379.731 1002.14 378.792Z" fill="#5A97D6"/>
<path d="M340.512 115.289H421.793V137.417" stroke="#245FA5" stroke-width="1.31452" stroke-linecap="round" stroke-dasharray="4.38 4.38"/>
<path d="M340.512 384.547H421.793V362.419" stroke="#245FA5" stroke-width="1.31452" stroke-linecap="round" stroke-dasharray="4.38 4.38"/>
<path d="M730.266 115.289H648.984V137.417" stroke="#245FA5" stroke-width="1.31452" stroke-linecap="round" stroke-dasharray="4.38 4.38"/>
<path d="M730.266 384.547H648.984V362.419" stroke="#245FA5" stroke-width="1.31452" stroke-linecap="round" stroke-dasharray="4.38 4.38"/>
</svg>
