<svg width="604" height="372" viewBox="0 0 604 372" fill="none" xmlns="http://www.w3.org/2000/svg">
<path d="M188.547 300.639L168.84 294.576L149.133 288.512L129.426 282.449L109.719 276.385L90.0123 270.321L70.3053 264.258L50.5983 258.194V234.784L70.3053 240.847L90.0123 246.911L109.719 252.974L129.426 259.038L149.133 265.101L168.84 271.165L188.547 277.228L208.254 283.292L227.961 289.355L247.668 295.419V318.83L227.961 312.766L208.254 306.703L188.547 300.639Z" fill="#1F4C85"/>
<path d="M286.478 322.292L247.668 318.83V295.419L286.478 298.881V322.292Z" fill="#1F4C85"/>
<path d="M420.239 304.082L401.13 306.684L382.021 309.285L362.913 311.886L343.804 314.488L324.695 317.089L305.587 319.691L286.478 322.292V298.881L305.587 296.28L324.695 293.678L343.804 291.077L362.913 288.476L382.021 285.874L401.13 283.273L420.239 280.671L439.348 278.07L458.456 275.469L477.565 272.867L496.674 270.266L515.783 267.664L534.891 265.063L554 262.462V285.872L534.891 288.474L515.783 291.075L496.674 293.677L477.565 296.278L458.456 298.879L439.348 301.481L420.239 304.082Z" fill="#1F4C85"/>
<path d="M188.547 277.228L168.84 271.165L149.133 265.101L129.426 259.038L109.719 252.974L90.0123 246.911L70.3053 240.847L50.5983 234.784L50 226.119L336.631 187.098L553.402 253.797L554 262.462L534.891 265.063L515.783 267.664L496.674 270.266L477.565 272.867L458.456 275.469L439.348 278.07L420.239 280.671L401.13 283.273L382.021 285.874L362.913 288.476L343.804 291.077L324.695 293.678L305.587 296.28L286.478 298.881L247.668 295.419L227.961 289.355L208.254 283.292L188.547 277.228Z" fill="white"/>
<path d="M109.719 276.385L129.426 282.449M109.719 276.385V252.974M109.719 276.385L90.0123 270.321M188.547 300.639L208.254 306.703M188.547 300.639V277.228M188.547 300.639L168.84 294.576M420.239 304.082V280.671M420.239 304.082L401.13 306.684M420.239 304.082L439.348 301.481M343.804 314.488L324.695 317.089M343.804 314.488V291.077M343.804 314.488L362.913 311.886M305.587 319.691L286.478 322.292M305.587 319.691V296.28M305.587 319.691L324.695 317.089M227.961 312.766L247.668 318.83M227.961 312.766V289.355M227.961 312.766L208.254 306.703M247.668 318.83L286.478 322.292M247.668 318.83V295.419M286.478 322.292V298.881M70.3053 264.258L50.5983 258.194M70.3053 264.258L90.0123 270.321M70.3053 264.258V240.847M50.5983 258.194L50 249.529V226.119M50.5983 258.194V234.784M496.674 293.677L477.565 296.278M496.674 293.677V270.266M496.674 293.677L515.783 291.075M534.891 288.474L554 285.872V262.462M534.891 288.474L515.783 291.075M534.891 288.474V265.063M188.547 277.228L208.254 283.292M188.547 277.228L168.84 271.165M109.719 252.974L129.426 259.038M109.719 252.974L90.0123 246.911M343.804 291.077L324.695 293.678M343.804 291.077L362.913 288.476M420.239 280.671L401.13 283.273M420.239 280.671L439.348 278.07M305.587 296.28L286.478 298.881M305.587 296.28L324.695 293.678M227.961 289.355L247.668 295.419M227.961 289.355L208.254 283.292M247.668 295.419L286.478 298.881M70.3053 240.847L50.5983 234.784M70.3053 240.847L90.0123 246.911M50.5983 234.784L50 226.119M50 226.119L336.631 187.098L553.402 253.797L554 262.462M496.674 270.266L477.565 272.867M496.674 270.266L515.783 267.664M534.891 265.063L554 262.462M534.891 265.063L515.783 267.664M208.254 283.292V306.703M149.133 265.101V288.512M149.133 265.101L168.84 271.165M149.133 265.101L129.426 259.038M149.133 288.512L168.84 294.576M149.133 288.512L129.426 282.449M168.84 271.165V294.576M129.426 259.038V282.449M90.0123 246.911V270.321M324.695 293.678V317.089M382.021 285.874V309.285M382.021 285.874L362.913 288.476M382.021 285.874L401.13 283.273M382.021 309.285L362.913 311.886M382.021 309.285L401.13 306.684M362.913 288.476V311.886M401.13 283.273V306.684M458.456 275.469V298.879M458.456 275.469L439.348 278.07M458.456 275.469L477.565 272.867M458.456 298.879L439.348 301.481M458.456 298.879L477.565 296.278M439.348 278.07V301.481M477.565 272.867V296.278M515.783 267.664V291.075" stroke="black" stroke-width="0.5"/>
<path d="M188.547 276.924L168.84 270.86L149.133 264.797L129.426 258.733L109.719 252.669L90.0123 246.606L70.3053 240.542L50.5982 234.479L50 225.814L336.631 186.793L553.402 253.492L554 262.157L534.891 264.758L515.783 267.36L496.674 269.961L477.565 272.562L458.456 275.164L439.348 277.765L420.239 280.367L401.13 282.968L382.021 285.569L362.913 288.171L343.804 290.772L324.695 293.374L305.586 295.975L286.478 298.576L247.668 295.114L227.961 289.051L208.254 282.987L188.547 276.924Z" fill="white"/>
<path d="M188.547 276.924L168.84 270.86L149.133 264.797L129.426 258.733L109.719 252.669L90.0123 246.606L70.3053 240.542L50.5982 234.479L50 225.814L336.631 186.793L553.402 253.492L554 262.157L534.891 264.758L515.783 267.36L496.674 269.961L477.565 272.562L458.456 275.164L439.348 277.765L420.239 280.367L401.13 282.968L382.021 285.569L362.913 288.171L343.804 290.772L324.695 293.374L305.586 295.975L286.478 298.576L247.668 295.114L227.961 289.051L208.254 282.987L188.547 276.924Z" stroke="black" stroke-width="0.5"/>
<path d="M83.0384 235.537L207.862 218.544L332.685 201.551L349.328 199.285M123.841 229.982L199.321 239.129L324.144 222.136L393.088 212.75M337.212 239.779L261.732 230.632M337.212 239.779L399.623 231.283L494.023 260.329L500.902 262.446M337.212 239.779L261.732 248.926L305.125 289.098L312.641 288.075L306.167 286.083L117.367 227.99L106.677 224.701M371.697 235.084L277.297 206.038L267.012 202.873" stroke="black" stroke-width="0.5" stroke-dasharray="2.19 2.19"/>
<path d="M199.32 239.129L123.84 229.982M332.163 194.004L267.012 202.873L106.677 224.701L82.5166 227.99L83.0377 235.537L254.679 288.348L288.481 291.364L521.484 259.643L520.963 252.097L393.088 212.75L349.327 199.285L332.163 194.004Z" stroke="black" stroke-width="0.5"/>
<path d="M123.841 229.98L199.321 239.127L261.732 230.631L337.212 239.778L399.623 231.281L494.023 260.327" stroke="#245FA5" stroke-width="2.80311"/>
<path d="M476.848 192.398C470.4 192.406 464.219 194.971 459.659 199.53C455.1 204.09 452.535 210.271 452.527 216.719C452.527 229.452 472.689 248.927 474.989 251.108C475.491 251.584 476.156 251.849 476.848 251.849C477.54 251.849 478.205 251.584 478.707 251.108C481.007 248.927 501.168 229.452 501.168 216.719C501.16 210.271 498.596 204.09 494.036 199.53C489.477 194.971 483.296 192.406 476.848 192.398ZM476.848 227.528C474.71 227.528 472.62 226.894 470.843 225.706C469.065 224.519 467.68 222.83 466.862 220.855C466.043 218.88 465.829 216.707 466.246 214.61C466.663 212.513 467.693 210.587 469.205 209.076C470.716 207.564 472.642 206.535 474.739 206.118C476.836 205.7 479.009 205.914 480.984 206.733C482.959 207.551 484.648 208.936 485.835 210.714C487.023 212.491 487.657 214.581 487.657 216.719C487.657 219.586 486.518 222.335 484.491 224.362C482.464 226.389 479.715 227.528 476.848 227.528Z" fill="#245FA5" stroke="black" stroke-width="0.5"/>
<path d="M230.738 77.9462L234.696 73.9883" stroke="#3274BA" stroke-width="2" stroke-miterlimit="10"/>
<path d="M237.996 73.9883L241.954 77.9462" stroke="#3274BA" stroke-width="2" stroke-miterlimit="10"/>
<path d="M245.25 77.9462L249.208 73.9883" stroke="#3274BA" stroke-width="2" stroke-miterlimit="10"/>
<path d="M241.621 91.8008H245.579V97.0781H241.621V91.8008Z" stroke="#012750" stroke-width="2" stroke-miterlimit="10"/>
<path d="M227.109 91.8008H231.067V97.0781H227.109V91.8008Z" stroke="#012750" stroke-width="2" stroke-miterlimit="10"/>
<path d="M248.879 82.5664H252.837V97.0789H248.879V82.5664Z" stroke="#012750" stroke-width="2" stroke-miterlimit="10"/>
<path d="M234.363 82.5664H238.321V97.0789H234.363V82.5664Z" stroke="#012750" stroke-width="2" stroke-miterlimit="10"/>
<path d="M229.088 81.247C230.181 81.247 231.067 80.361 231.067 79.268C231.067 78.1751 230.181 77.2891 229.088 77.2891C227.995 77.2891 227.109 78.1751 227.109 79.268C227.109 80.361 227.995 81.247 229.088 81.247Z" stroke="#3274BA" stroke-width="2" stroke-miterlimit="10" stroke-linecap="square"/>
<path d="M243.6 81.247C244.693 81.247 245.579 80.361 245.579 79.268C245.579 78.1751 244.693 77.2891 243.6 77.2891C242.507 77.2891 241.621 78.1751 241.621 79.268C241.621 80.361 242.507 81.247 243.6 81.247Z" stroke="#3274BA" stroke-width="2" stroke-miterlimit="10" stroke-linecap="square"/>
<path d="M236.342 74.6494C237.435 74.6494 238.321 73.7633 238.321 72.6704C238.321 71.5774 237.435 70.6914 236.342 70.6914C235.249 70.6914 234.363 71.5774 234.363 72.6704C234.363 73.7633 235.249 74.6494 236.342 74.6494Z" stroke="#3274BA" stroke-width="2" stroke-miterlimit="10" stroke-linecap="square"/>
<path d="M250.858 74.6494C251.951 74.6494 252.837 73.7633 252.837 72.6704C252.837 71.5774 251.951 70.6914 250.858 70.6914C249.765 70.6914 248.879 71.5774 248.879 72.6704C248.879 73.7633 249.765 74.6494 250.858 74.6494Z" stroke="#3274BA" stroke-width="2" stroke-miterlimit="10" stroke-linecap="square"/>
<circle cx="240.61" cy="84.1997" r="22.6059" stroke="#1D416F" stroke-width="0.5"/>
<circle cx="240.612" cy="84.198" r="33.948" stroke="#5A97D6" stroke-width="0.5"/>
<circle cx="240.613" cy="84.2028" r="28.191" stroke="#245FA5" stroke-width="0.5"/>
<circle cx="379.926" cy="111.953" r="22.7933" stroke="#1D416F" stroke-width="0.5"/>
<circle cx="379.928" cy="111.951" r="34.2283" stroke="#5A97D6" stroke-width="0.5"/>
<circle cx="379.928" cy="111.955" r="28.4242" stroke="#245FA5" stroke-width="0.5"/>
<path d="M376.865 97.9609V106.518H368.309" stroke="#012750" stroke-width="2" stroke-miterlimit="10"/>
<path d="M375.914 124.582H371.161C369.586 124.582 368.309 123.305 368.309 121.729V106.748C368.309 105.992 368.609 105.266 369.144 104.731L375.079 98.7963C375.614 98.2614 376.339 97.9609 377.096 97.9609H388.274C389.849 97.9609 391.126 99.2379 391.126 100.813V111.271" stroke="#012750" stroke-width="2" stroke-miterlimit="10" stroke-linecap="square"/>
<path d="M383.52 113.176V124.585" stroke="#3274BA" stroke-width="2" stroke-miterlimit="10" stroke-linecap="square"/>
<path d="M387.324 118.875V124.579" stroke="#3274BA" stroke-width="2" stroke-miterlimit="10" stroke-linecap="square"/>
<path d="M379.719 121.73V124.583" stroke="#3274BA" stroke-width="2" stroke-miterlimit="10" stroke-linecap="square"/>
<path d="M391.129 115.074V124.582" stroke="#3274BA" stroke-width="2" stroke-miterlimit="10" stroke-linecap="square"/>
<path d="M238.648 120.555L235.762 123.441L238.648 126.328L241.535 123.441L238.648 120.555ZM238.148 123.441V124.827H239.148V123.441H238.148ZM238.148 127.598V130.368H239.148V127.598H238.148ZM238.148 133.139V135.91H239.148V133.139H238.148ZM238.148 138.681V141.451H239.148V138.681H238.148ZM238.148 144.222V146.993H239.148V144.222H238.148ZM238.148 149.764V152.535H239.148V149.764H238.148ZM238.148 155.305V158.076H239.148V155.305H238.148ZM238.148 160.847V163.618H239.148V160.847H238.148ZM238.148 166.388V169.159H239.148V166.388H238.148ZM238.148 171.93V174.701H239.148V171.93H238.148ZM238.148 177.471V180.242H239.148V177.471H238.148ZM238.148 183.013V185.784H239.148V183.013H238.148ZM238.148 188.555V191.325H239.148V188.555H238.148ZM238.148 194.096V195.481H239.148V194.096H238.148Z" fill="#3274BA"/>
<path d="M378.246 148.309L375.359 151.195L378.246 154.082L381.133 151.195L378.246 148.309ZM377.746 151.195V152.614H378.746V151.195H377.746ZM377.746 155.453V158.291H378.746V155.453H377.746ZM377.746 161.129V163.967H378.746V161.129H377.746ZM377.746 166.805V169.643H378.746V166.805H377.746ZM377.746 172.481V175.32H378.746V172.481H377.746ZM377.746 178.158V180.996H378.746V178.158H377.746ZM377.746 183.834V186.672H378.746V183.834H377.746ZM377.746 189.51V192.349H378.746V189.51H377.746ZM377.746 195.187V196.606H378.746V195.187H377.746Z" fill="#3274BA"/>
<path d="M208.913 221.156V225.588L212.697 224.551L216.481 223.515L212.697 220.119L208.913 221.156Z" fill="#93BAE6"/>
<path d="M208.913 225.588V221.156L203.293 217.175L201.419 215.849L203.293 221.608L205.166 222.934L208.913 225.588Z" fill="#93BAE6"/>
<path d="M239.182 217.297V212.865L235.399 213.902L231.615 219.37L235.399 218.334L239.182 217.297Z" fill="#93BAE6"/>
<path d="M123.929 224.663V219.377L123.639 219.342L118.643 218.736L116 218.416V223.702L118.643 224.022L123.639 224.627L123.929 224.663Z" fill="#1F4C85"/>
<path d="M231.615 214.938L224.048 217.01L216.481 219.083L214.589 219.601L216.481 221.299L231.615 217.154L233.507 214.42L231.615 214.938Z" fill="#1F4C85"/>
<path d="M208.913 221.156L212.697 220.119L201.419 215.849L203.293 217.175L208.913 221.156Z" fill="#93BAE6"/>
<path fill-rule="evenodd" clip-rule="evenodd" d="M231.688 207.558L224.194 202.252L222.303 202.77L220.411 203.288L216.627 204.324L209.06 206.397L201.493 208.469L197.709 209.506L195.817 210.024L193.925 210.542L201.419 215.849L212.697 220.119L214.589 219.601L216.481 219.083L224.048 217.01L231.615 214.938L233.507 214.42L235.399 213.902L231.688 207.558Z" fill="white"/>
<path d="M239.182 212.865L231.688 207.558L235.399 213.902L239.182 212.865Z" fill="#93BAE6"/>
<path d="M188.929 226.826C196.923 227.795 198.921 234.461 198.921 237.673L205.602 238.483L208.913 236.668V234.452V230.02V225.588L205.166 222.934L203.293 221.608L201.419 215.849L193.925 210.542L159.302 206.351V233.143L163.949 233.704L166.447 234.007L168.465 234.251L168.945 234.309L173.941 234.915L178.937 235.52V235.251C178.937 232.039 180.936 225.858 188.929 226.826Z" fill="white"/>
<path d="M193.925 210.542L177.245 185.948L166.794 184.683L161.569 184.051L159.302 206.351L193.925 210.542Z" fill="white"/>
<path d="M177.245 185.948L193.925 210.542L195.817 210.024L197.709 209.506L201.493 208.469L209.06 206.397L216.627 204.324L220.411 203.288L222.303 202.77L224.194 202.252L202.4 179.058L177.245 185.948Z" fill="white"/>
<path d="M135.441 180.89L118.643 201.429L123.639 202.033L159.302 206.351L161.569 184.051L156.343 183.419L135.441 180.89Z" fill="white"/>
<path d="M160.596 174L135.441 180.89L156.343 183.419L161.569 184.051L166.794 184.683L177.245 185.948L202.4 179.058L160.596 174Z" fill="#1F4C85"/>
<path fill-rule="evenodd" clip-rule="evenodd" d="M208.913 225.588V230.02V234.452L212.697 233.437V235.632L216.481 234.595L217.979 232.523L230.612 229.063L231.615 230.45L235.399 229.414V227.204L239.182 226.162V221.729V217.297L235.399 218.334L231.615 219.37L235.399 213.902L233.507 214.42L231.615 217.154L216.481 221.299L214.589 219.601L212.697 220.119L216.481 223.515L212.697 224.551L208.913 225.588ZM218.372 222.997L224.048 221.443L229.723 219.888L230.669 220.737L231.615 221.586L227.831 224.05L224.048 226.515L220.264 226.123L216.481 225.731L217.427 224.364L218.372 222.997Z" fill="white"/>
<path d="M224.048 232.523L216.481 234.595L212.697 235.632L208.913 236.668L205.602 238.483L235.871 230.192L239.182 228.378L235.399 229.414L231.615 230.45L224.048 232.523Z" fill="#1F4C85"/>
<path d="M208.913 234.452V236.668L212.697 235.632V233.437L208.913 234.452Z" fill="#93BAE6"/>
<path d="M216.481 234.595L224.048 232.523L231.615 230.45L230.612 229.063L217.979 232.523L216.481 234.595Z" fill="#1F4C85"/>
<path d="M239.182 228.378V226.162L235.399 227.204V229.414L239.182 228.378Z" fill="#93BAE6"/>
<path d="M218.372 222.997L224.048 221.443L229.723 219.888L230.669 220.737L231.615 221.586L227.831 224.05L224.048 226.515L220.264 226.123L216.481 225.731L217.427 224.364L218.372 222.997Z" fill="#1F4C85"/>
<path fill-rule="evenodd" clip-rule="evenodd" d="M118.643 228.223V224.022L123.639 224.627L123.929 224.663V219.377L123.639 219.342L118.643 218.736V205.755L123.639 206.361V202.033L159.302 206.351V233.143L145.359 231.461C145.359 229.952 144.918 227.682 143.623 225.598C142.582 223.923 140.988 222.368 138.627 221.425C137.671 221.043 136.589 220.762 135.367 220.614C134.84 220.55 134.338 220.517 133.862 220.513C133.784 220.512 133.707 220.512 133.631 220.513C131.48 220.534 129.852 221.14 128.635 222.05C126.144 223.912 125.375 227.047 125.375 229.039L123.639 228.829L118.643 228.223Z" fill="white"/>
<path d="M118.643 201.429V205.755L123.639 206.361V202.033L118.643 201.429Z" fill="#93BAE6"/>
<path d="M177.245 185.948L193.925 210.542M177.245 185.948L166.794 184.683L161.569 184.051M177.245 185.948L202.4 179.058M118.643 224.022V228.223L123.639 228.829L125.375 229.039C125.375 227.047 126.144 223.912 128.635 222.05C129.852 221.14 131.48 220.534 133.631 220.513C133.707 220.512 133.784 220.512 133.862 220.513C134.338 220.517 134.84 220.55 135.367 220.614C136.589 220.762 137.671 221.043 138.627 221.425C140.988 222.368 142.582 223.923 143.623 225.598C144.918 227.682 145.359 229.952 145.359 231.461L159.302 233.143M118.643 224.022L116 223.702V218.416L118.643 218.736M118.643 224.022L123.639 224.627L123.929 224.663V219.377L123.639 219.342L118.643 218.736M118.643 218.736V205.755M208.913 221.156V225.588M208.913 221.156L212.697 220.119M208.913 221.156L203.293 217.175L201.419 215.849M239.182 212.865L224.194 202.252M239.182 212.865V217.297M239.182 212.865L235.399 213.902M239.182 212.865L231.688 207.558M193.925 210.542L195.817 210.024L197.709 209.506L201.493 208.469L209.06 206.397L216.627 204.324L220.411 203.288L222.303 202.77L224.194 202.252M193.925 210.542L201.419 215.849M193.925 210.542L159.302 206.351M224.194 202.252L202.4 179.058M224.194 202.252L231.688 207.558M202.4 179.058L160.596 174L135.441 180.89M208.913 225.588V230.02V234.452M208.913 225.588L212.697 224.551L216.481 223.515L212.697 220.119M208.913 225.588L205.166 222.934L203.293 221.608L201.419 215.849M239.182 217.297V221.729V226.162M239.182 217.297L235.399 218.334L231.615 219.37L235.399 213.902M201.419 215.849L212.697 220.119M208.913 234.452V236.668M208.913 234.452L212.697 233.437V235.632M239.182 226.162V228.378M239.182 226.162L235.399 227.204V229.414M118.643 201.429L135.441 180.89M118.643 201.429V205.755M118.643 201.429L123.639 202.033M161.569 184.051L159.302 206.351M161.569 184.051L156.343 183.419L135.441 180.89M159.302 233.143L163.949 233.704L166.447 234.007L168.465 234.251L168.945 234.309L173.941 234.915L178.937 235.52V235.251C178.937 232.039 180.936 225.858 188.929 226.826C196.923 227.795 198.921 234.461 198.921 237.673L205.602 238.483M159.302 233.143V206.351M212.697 220.119L214.589 219.601M235.399 213.902L233.507 214.42M235.399 213.902L231.688 207.558M214.589 219.601L216.481 219.083L224.048 217.01L231.615 214.938L233.507 214.42M214.589 219.601L216.481 221.299L231.615 217.154L233.507 214.42M208.913 236.668L205.602 238.483M208.913 236.668L212.697 235.632M239.182 228.378L235.871 230.192L205.602 238.483M239.182 228.378L235.399 229.414M216.481 234.595L224.048 232.523L231.615 230.45M216.481 234.595L217.979 232.523L230.612 229.063L231.615 230.45M216.481 234.595L212.697 235.632M231.615 230.45L235.399 229.414M212.697 235.642V235.632M235.399 229.417V229.414M216.481 225.731L231.615 221.586M216.481 225.731L217.427 224.364M216.481 225.731L220.264 226.123M231.615 221.586L230.669 220.737M231.615 221.586L227.831 224.05M159.302 206.351L123.639 202.033M212.697 235.632L235.399 229.414M118.643 205.755L123.639 206.361V202.033M217.427 224.364L218.372 222.997L224.048 221.443L229.723 219.888L230.669 220.737M217.427 224.364L230.669 220.737M220.264 226.123L224.048 226.515L227.831 224.05M220.264 226.123L227.831 224.05" stroke="#012750" stroke-width="0.5"/>
<path d="M187.574 227.399L192.746 229.079L195.943 233.479V238.918L192.746 243.318L187.574 244.999L182.401 243.318L179.205 238.918V233.479L182.401 229.079L187.574 227.399Z" fill="#1F4C85"/>
<path d="M187.574 231.46L190.359 232.365L192.08 234.734V237.663L190.359 240.032L187.574 240.937L184.789 240.032L183.067 237.663V234.734L184.789 232.365L187.574 231.46Z" fill="white"/>
<path d="M182.401 229.079L187.574 227.399L188.627 226.767C187.932 226.71 187.285 226.709 186.683 226.757L185.786 227.049L182.401 229.079Z" fill="#012750"/>
<path d="M187.574 227.399L192.746 229.079L193.939 228.364C192.661 227.61 191.096 227.055 189.191 226.824C189 226.801 188.811 226.782 188.627 226.767L187.574 227.399Z" fill="#012750"/>
<path d="M192.746 229.079L195.943 233.479L197.778 232.378C196.963 230.875 195.733 229.423 193.939 228.364L192.746 229.079Z" fill="#012750"/>
<path d="M195.943 233.479V238.918L199.156 236.99C199.054 235.681 198.657 234 197.778 232.378L195.943 233.479Z" fill="#012750"/>
<path d="M195.943 238.918L192.746 243.318L196.131 241.287L199.164 237.112L199.156 236.99L195.943 238.918Z" fill="#012750"/>
<path d="M179.199 235.518V235.25M187.574 227.399L192.746 229.079M187.574 227.399L182.401 229.079M187.574 227.399L188.627 226.767M192.746 229.079L195.943 233.479M192.746 229.079L193.939 228.364M195.943 233.479V238.918M195.943 233.479L197.778 232.378M195.943 238.918L192.746 243.318M195.943 238.918L199.156 236.99M192.746 243.318L187.574 244.999L182.401 243.318L179.205 238.918V233.479L182.401 229.079M192.746 243.318L196.131 241.287L199.164 237.112M182.401 229.079L185.786 227.049L186.683 226.757C187.285 226.709 187.932 226.71 188.627 226.767M199.164 237.112C199.162 237.072 199.159 237.031 199.156 236.99M199.164 237.112L199.156 236.99M199.156 236.99C199.054 235.681 198.657 234 197.778 232.378M197.778 232.378C196.963 230.875 195.733 229.423 193.939 228.364M193.939 228.364C192.661 227.61 191.096 227.055 189.191 226.824C189 226.801 188.811 226.782 188.627 226.767M187.574 231.46L190.359 232.365L192.08 234.734V237.663L190.359 240.032L187.574 240.937L184.789 240.032L183.067 237.663V234.734L184.789 232.365L187.574 231.46Z" stroke="#012750" stroke-width="0.5"/>
<path d="M133.433 221.094L138.606 222.775L141.803 227.175V232.613L138.606 237.013L133.433 238.694L128.261 237.013L125.064 232.613V227.175L128.261 222.775L133.433 221.094Z" fill="#1F4C85"/>
<path d="M133.433 225.155L136.218 226.06L137.94 228.43V231.358L136.218 233.727L133.433 234.632L130.648 233.727L128.927 231.358V228.43L130.648 226.06L133.433 225.155Z" fill="white"/>
<path d="M128.261 222.775L133.433 221.094L134.486 220.462C133.791 220.405 133.144 220.405 132.542 220.452L131.645 220.744L128.261 222.775Z" fill="#012750"/>
<path d="M133.433 221.094L138.606 222.775L139.798 222.059C138.52 221.305 136.956 220.751 135.051 220.52C134.859 220.497 134.671 220.477 134.486 220.462L133.433 221.094Z" fill="#012750"/>
<path d="M138.606 222.775L141.803 227.175L143.638 226.074C142.822 224.57 141.593 223.118 139.798 222.059L138.606 222.775Z" fill="#012750"/>
<path d="M141.803 227.175V232.613L145.015 230.686C144.913 229.376 144.517 227.695 143.638 226.074L141.803 227.175Z" fill="#012750"/>
<path d="M141.803 232.613L138.606 237.013L141.99 234.982L145.024 230.807L145.015 230.686L141.803 232.613Z" fill="#012750"/>
<path d="M125.059 229.214V228.945M133.433 221.094L138.606 222.775M133.433 221.094L128.261 222.775M133.433 221.094L134.486 220.462M138.606 222.775L141.803 227.175M138.606 222.775L139.798 222.059M141.803 227.175V232.613M141.803 227.175L143.638 226.074M141.803 232.613L138.606 237.013M141.803 232.613L145.015 230.686M138.606 237.013L133.433 238.694L128.261 237.013L125.064 232.613V227.175L128.261 222.775M138.606 237.013L141.99 234.982L145.024 230.807M128.261 222.775L131.645 220.744L132.542 220.452C133.144 220.405 133.791 220.405 134.486 220.462M145.024 230.807C145.021 230.767 145.018 230.727 145.015 230.686M145.024 230.807L145.015 230.686M145.015 230.686C144.913 229.376 144.517 227.695 143.638 226.074M143.638 226.074C142.822 224.57 141.593 223.118 139.798 222.059M139.798 222.059C138.52 221.305 136.956 220.751 135.051 220.52C134.859 220.497 134.671 220.477 134.486 220.462M133.433 225.155L136.218 226.06L137.94 228.43V231.358L136.218 233.727L133.433 234.632L130.648 233.727L128.927 231.358V228.43L130.648 226.06L133.433 225.155Z" stroke="#012750" stroke-width="0.5"/>
</svg>
