<svg width="564" height="320" viewBox="0 0 564 320" fill="none" xmlns="http://www.w3.org/2000/svg">
<path fill-rule="evenodd" clip-rule="evenodd" d="M30.0001 255.283L419.83 302.474L476.915 275.321L534 248.167L144.17 200.977L95.3636 224.192L119.292 227.089L111.014 231.026L102.735 234.964L78.8064 232.068L30.0001 255.283ZM456.821 277.828L400.286 270.984L408.565 267.046L416.844 263.109L473.378 269.952L465.099 273.89L456.821 277.828ZM338.792 263.54L282.258 256.696L290.537 252.759L298.815 248.821L355.349 255.664L347.071 259.602L338.792 263.54ZM220.764 249.252L164.229 242.408L172.508 238.471L180.787 234.533L237.321 241.377L229.042 245.314L220.764 249.252Z" fill="white"/>
<path d="M400.286 270.984L456.821 277.828L465.099 273.89L473.378 269.952L416.844 263.109L408.565 267.046L400.286 270.984Z" fill="#1F4C85"/>
<path d="M282.258 256.696L338.792 263.54L347.071 259.602L355.349 255.664L298.815 248.821L290.537 252.759L282.258 256.696Z" fill="#1F4C85"/>
<path d="M164.229 242.408L220.764 249.252L229.042 245.314L237.321 241.377L180.787 234.533L172.508 238.471L164.229 242.408Z" fill="#1F4C85"/>
<path d="M102.735 234.964L111.014 231.026L119.292 227.089L95.3636 224.192L87.085 228.13L78.8064 232.068L102.735 234.964Z" fill="#1F4C85"/>
<path d="M78.8064 232.068L102.735 234.964L111.014 231.026L119.292 227.089L95.3636 224.192M78.8064 232.068L30.0001 255.283L419.83 302.474L476.915 275.321L534 248.167L144.17 200.977L95.3636 224.192M78.8064 232.068L87.085 228.13L95.3636 224.192M456.821 277.828L400.287 270.984L408.565 267.046L416.844 263.109L473.378 269.952L465.099 273.89L456.821 277.828ZM338.792 263.54L282.258 256.696L290.537 252.759L298.815 248.821L355.349 255.664L347.071 259.602L338.792 263.54ZM220.764 249.252L164.229 242.408L172.508 238.471L180.787 234.533L237.321 241.377L229.042 245.314L220.764 249.252Z" stroke="black" stroke-width="0.5"/>
<g filter="url(#filter0_f_4093_9991)">
<path d="M175.965 252.624L324.381 270.094L336.731 271.591L392.692 256.264L231.925 237.297L175.965 252.624Z" fill="#E6E6E6"/>
</g>
<path d="M343.408 231.711V239.905L350.403 237.989L357.398 236.073L350.403 229.795L343.408 231.711Z" fill="#93BAE6"/>
<path d="M343.408 239.905V231.711L333.017 224.353L329.553 221.9L333.017 232.546L336.481 234.999L343.408 239.905Z" fill="#93BAE6"/>
<path d="M399.368 224.578V216.384L392.373 218.3L385.378 228.41L392.373 226.494L399.368 224.578Z" fill="#93BAE6"/>
<path d="M186.291 238.194V228.422L185.755 228.357L176.519 227.238L171.633 226.646V236.418L176.519 237.01L185.755 238.13L186.291 238.194Z" fill="#1F4C85"/>
<path d="M385.378 220.216L371.388 224.048L357.398 227.879L353.9 228.837L357.398 231.976L385.378 224.313L388.876 219.258L385.378 220.216Z" fill="#1F4C85"/>
<path d="M343.408 231.711L350.403 229.795L329.553 221.9L333.017 224.353L343.408 231.711Z" fill="#93BAE6"/>
<path fill-rule="evenodd" clip-rule="evenodd" d="M385.514 206.573L371.659 196.762L368.161 197.72L364.664 198.678L357.669 200.594L343.679 204.425L329.689 208.257L322.694 210.173L319.196 211.131L315.699 212.089L329.553 221.9L350.403 229.795L353.9 228.837L357.398 227.879L371.388 224.048L385.378 220.216L388.876 219.258L392.373 218.3L385.514 206.573Z" fill="white"/>
<path d="M399.368 216.384L385.514 206.573L392.373 218.3L399.368 216.384Z" fill="#93BAE6"/>
<path d="M306.462 242.195C321.241 243.986 324.935 256.31 324.935 262.248L337.286 263.745L343.408 260.389V256.293V248.099V239.905L336.481 234.999L333.017 232.546L329.553 221.9L315.699 212.089L251.688 204.34V253.873L260.28 254.91L264.898 255.47L268.629 255.922L269.517 256.029L278.753 257.149L287.989 258.268V257.771C287.989 251.833 291.684 240.404 306.462 242.195Z" fill="white"/>
<path d="M315.699 212.089L284.861 166.62L265.539 164.282L255.879 163.113L251.688 204.34L315.699 212.089Z" fill="white"/>
<path d="M284.861 166.62L315.699 212.089L319.196 211.131L322.694 210.173L329.689 208.257L343.679 204.425L357.669 200.594L364.664 198.678L368.161 197.72L371.659 196.762L331.367 153.883L284.861 166.62Z" fill="white"/>
<path d="M207.575 157.269L176.519 195.24L185.755 196.358L251.688 204.34L255.879 163.113L246.218 161.944L207.575 157.269Z" fill="white"/>
<path d="M254.081 144.531L207.575 157.269L246.218 161.944L255.879 163.113L265.539 164.282L284.861 166.62L331.367 153.883L254.081 144.531Z" fill="#1F4C85"/>
<path fill-rule="evenodd" clip-rule="evenodd" d="M343.408 239.905V248.099V256.293L350.403 254.416V258.474L357.398 256.558L360.169 252.726L383.523 246.329L385.378 248.894L392.373 246.978V242.894L399.368 240.966V232.772V224.578L392.373 226.494L385.378 228.41L392.373 218.3L388.876 219.258L385.378 224.313L357.398 231.976L353.9 228.837L350.403 229.795L357.398 236.073L350.403 237.989L343.408 239.905ZM360.896 235.115L371.388 232.241L381.881 229.368L383.629 230.937L385.378 232.507L378.383 237.063L371.388 241.619L364.393 240.894L357.398 240.17L359.147 237.643L360.896 235.115Z" fill="white"/>
<path d="M371.388 252.726L357.398 256.558L350.403 258.474L343.408 260.389L337.286 263.745L393.246 248.418L399.368 245.063L392.373 246.978L385.378 248.894L371.388 252.726Z" fill="#1F4C85"/>
<path d="M343.408 256.293V260.389L350.403 258.474V254.416L343.408 256.293Z" fill="#93BAE6"/>
<path d="M357.398 256.558L371.388 252.726L385.378 248.894L383.523 246.329L360.169 252.726L357.398 256.558Z" fill="#1F4C85"/>
<path d="M399.368 245.063V240.966L392.373 242.894V246.978L399.368 245.063Z" fill="#93BAE6"/>
<path d="M360.896 235.115L371.388 232.241L381.881 229.368L383.629 230.937L385.378 232.507L378.383 237.063L371.388 241.619L364.393 240.894L357.398 240.17L359.147 237.643L360.896 235.115Z" fill="#1F4C85"/>
<path fill-rule="evenodd" clip-rule="evenodd" d="M176.519 244.777V237.01L185.755 238.13L186.291 238.194V228.422L185.755 228.357L176.519 227.238V203.24L185.755 204.359V196.358L251.688 204.34V253.873L225.911 250.763C225.911 247.974 225.096 243.777 222.701 239.924C220.776 236.827 217.83 233.952 213.465 232.209C211.697 231.503 209.697 230.983 207.438 230.71C206.463 230.591 205.536 230.531 204.656 230.522C204.512 230.521 204.37 230.521 204.228 230.522C200.252 230.561 197.242 231.682 194.992 233.364C190.386 236.807 188.965 242.603 188.965 246.286L185.755 245.897L176.519 244.777Z" fill="white"/>
<path d="M176.519 195.24V203.24L185.755 204.359V196.358L176.519 195.24Z" fill="#93BAE6"/>
<path d="M284.861 166.62L315.699 212.089M284.861 166.62L265.539 164.282L255.879 163.113M284.861 166.62L331.367 153.883M176.519 237.01V244.777L185.755 245.897L188.965 246.286C188.965 242.603 190.386 236.807 194.992 233.364C197.242 231.682 200.252 230.561 204.228 230.522C204.37 230.521 204.512 230.521 204.656 230.522C205.536 230.531 206.463 230.591 207.438 230.71C209.697 230.983 211.697 231.503 213.465 232.209C217.83 233.952 220.776 236.827 222.701 239.924C225.096 243.777 225.911 247.974 225.911 250.763L251.688 253.873M176.519 237.01L171.633 236.418V226.646L176.519 227.238M176.519 237.01L185.755 238.13L186.291 238.194V228.422L185.755 228.357L176.519 227.238M176.519 227.238V203.24M343.408 231.711V239.905M343.408 231.711L350.403 229.795M343.408 231.711L333.017 224.353L329.553 221.9M399.368 216.384L371.659 196.762M399.368 216.384V224.578M399.368 216.384L392.373 218.3M399.368 216.384L385.514 206.573M315.699 212.089L319.196 211.131L322.694 210.173L329.689 208.257L343.679 204.425L357.669 200.594L364.664 198.678L368.161 197.72L371.659 196.762M315.699 212.089L329.553 221.9M315.699 212.089L251.688 204.34M371.659 196.762L331.367 153.883M371.659 196.762L385.514 206.573M331.367 153.883L254.081 144.531L207.575 157.269M343.408 239.905V248.099V256.293M343.408 239.905L350.403 237.989L357.398 236.073L350.403 229.795M343.408 239.905L336.481 234.999L333.017 232.546L329.553 221.9M399.368 224.578V232.772V240.966M399.368 224.578L392.373 226.494L385.378 228.41L392.373 218.3M329.553 221.9L350.403 229.795M343.408 256.293V260.389M343.408 256.293L350.403 254.416V258.474M399.368 240.966V245.063M399.368 240.966L392.373 242.894V246.978M176.519 195.24L207.575 157.269M176.519 195.24V203.24M176.519 195.24L185.755 196.358M255.879 163.113L251.688 204.34M255.879 163.113L246.218 161.944L207.575 157.269M251.688 253.873L260.28 254.91L264.898 255.47L268.629 255.922L269.517 256.029L278.753 257.149L287.989 258.268V257.771C287.989 251.833 291.684 240.404 306.462 242.195C321.241 243.986 324.935 256.31 324.935 262.248L337.286 263.745M251.688 253.873V204.34M350.403 229.795L353.9 228.837M392.373 218.3L388.876 219.258M392.373 218.3L385.514 206.573M353.9 228.837L357.398 227.879L371.388 224.048L385.378 220.216L388.876 219.258M353.9 228.837L357.398 231.976L385.378 224.313L388.876 219.258M343.408 260.389L337.286 263.745M343.408 260.389L350.403 258.474M399.368 245.063L393.246 248.418L337.286 263.745M399.368 245.063L392.373 246.978M357.398 256.558L371.388 252.726L385.378 248.894M357.398 256.558L360.169 252.726L383.523 246.329L385.378 248.894M357.398 256.558L350.403 258.474M385.378 248.894L392.373 246.978M350.403 258.493V258.474M392.373 246.985V246.978M357.398 240.17L385.378 232.507M357.398 240.17L359.147 237.643M357.398 240.17L364.393 240.894M385.378 232.507L383.629 230.937M385.378 232.507L378.383 237.063M251.688 204.34L185.755 196.358M350.403 258.474L392.373 246.978M176.519 203.24L185.755 204.359V196.358M359.147 237.643L360.896 235.115L371.388 232.241L381.881 229.368L383.629 230.937M359.147 237.643L383.629 230.937M364.393 240.894L371.388 241.619L378.383 237.063M364.393 240.894L378.383 237.063" stroke="black" stroke-width="0.5"/>
<path d="M303.956 243.254L313.518 246.361L319.428 254.495V264.55L313.518 272.685L303.956 275.792L294.393 272.685L288.483 264.55V254.495L294.393 246.361L303.956 243.254Z" fill="#1F4C85"/>
<path d="M303.955 250.762L309.104 252.436L312.287 256.816V262.23L309.104 266.61L303.955 268.283L298.806 266.61L295.624 262.23V256.816L298.806 252.436L303.955 250.762Z" fill="white"/>
<path d="M294.393 246.361L303.956 243.254L305.902 242.086C304.617 241.981 303.421 241.979 302.308 242.068L300.65 242.606L294.393 246.361Z" fill="black"/>
<path d="M303.956 243.254L313.518 246.361L315.723 245.038C313.36 243.644 310.467 242.619 306.946 242.192C306.591 242.149 306.243 242.114 305.902 242.086L303.956 243.254Z" fill="black"/>
<path d="M313.518 246.361L319.428 254.495L322.821 252.46C321.314 249.681 319.04 246.996 315.723 245.038L313.518 246.361Z" fill="black"/>
<path d="M319.428 254.495V264.55L325.368 260.987C325.179 258.565 324.446 255.458 322.821 252.46L319.428 254.495Z" fill="black"/>
<path d="M319.428 264.55L313.518 272.685L319.776 268.93L325.384 261.211L325.368 260.987L319.428 264.55Z" fill="black"/>
<path d="M288.473 258.265V257.768M303.956 243.254L313.518 246.361M303.956 243.254L294.393 246.361M303.956 243.254L305.902 242.086M313.518 246.361L319.428 254.495M313.518 246.361L315.723 245.038M319.428 254.495V264.55M319.428 254.495L322.821 252.46M319.428 264.55L313.518 272.685M319.428 264.55L325.368 260.987M313.518 272.685L303.956 275.792L294.393 272.685L288.483 264.55V254.495L294.393 246.361M313.518 272.685L319.776 268.93L325.384 261.211M294.393 246.361L300.65 242.606L302.308 242.068C303.421 241.979 304.617 241.981 305.902 242.086M325.384 261.211C325.379 261.137 325.374 261.062 325.368 260.987M325.384 261.211L325.368 260.987M325.368 260.987C325.179 258.565 324.446 255.458 322.821 252.46M322.821 252.46C321.314 249.681 319.04 246.996 315.723 245.038M315.723 245.038C313.36 243.644 310.467 242.619 306.946 242.192C306.591 242.149 306.243 242.114 305.902 242.086M303.955 250.762L309.104 252.436L312.287 256.816V262.23L309.104 266.61L303.955 268.283L298.806 266.61L295.624 262.23V256.816L298.806 252.436L303.955 250.762Z" stroke="black" stroke-width="0.5"/>
<path d="M203.862 231.594L213.425 234.701L219.335 242.835V252.89L213.425 261.025L203.862 264.132L194.299 261.025L188.389 252.89V242.835L194.299 234.701L203.862 231.594Z" fill="#1F4C85"/>
<path d="M203.861 239.102L209.011 240.775L212.193 245.155V250.57L209.011 254.95L203.861 256.623L198.712 254.95L195.53 250.57V245.155L198.712 240.775L203.861 239.102Z" fill="white"/>
<path d="M194.299 234.701L203.862 231.594L205.808 230.426C204.523 230.32 203.327 230.319 202.214 230.408L200.556 230.946L194.299 234.701Z" fill="black"/>
<path d="M203.862 231.594L213.425 234.701L215.629 233.378C213.266 231.984 210.374 230.959 206.852 230.532C206.498 230.489 206.15 230.454 205.808 230.426L203.862 231.594Z" fill="black"/>
<path d="M213.425 234.701L219.335 242.835L222.727 240.8C221.22 238.021 218.946 235.335 215.629 233.378L213.425 234.701Z" fill="black"/>
<path d="M219.335 242.835V252.89L225.274 249.326C225.086 246.905 224.352 243.798 222.727 240.8L219.335 242.835Z" fill="black"/>
<path d="M219.335 252.89L213.425 261.025L219.682 257.27L225.29 249.551L225.274 249.326L219.335 252.89Z" fill="black"/>
<path d="M188.379 246.605V246.108M203.862 231.594L213.425 234.701M203.862 231.594L194.299 234.701M203.862 231.594L205.808 230.426M213.425 234.701L219.335 242.835M213.425 234.701L215.629 233.378M219.335 242.835V252.89M219.335 242.835L222.727 240.8M219.335 252.89L213.425 261.025M219.335 252.89L225.274 249.326M213.425 261.025L203.862 264.132L194.299 261.025L188.389 252.89V242.835L194.299 234.701M213.425 261.025L219.682 257.27L225.29 249.551M194.299 234.701L200.556 230.946L202.214 230.408C203.327 230.319 204.523 230.32 205.808 230.426M225.29 249.551C225.285 249.477 225.28 249.402 225.274 249.326M225.29 249.551L225.274 249.326M225.274 249.326C225.086 246.905 224.352 243.798 222.727 240.8M222.727 240.8C221.22 238.021 218.946 235.335 215.629 233.378M215.629 233.378C213.266 231.984 210.374 230.959 206.852 230.532C206.498 230.489 206.15 230.454 205.808 230.426M203.861 239.102L209.011 240.775L212.193 245.155V250.57L209.011 254.95L203.861 256.623L198.712 254.95L195.53 250.57V245.155L198.712 240.775L203.861 239.102Z" stroke="black" stroke-width="0.5"/>
<path d="M340.669 200.238L351.929 197.154L357.559 195.612L360.374 194.841L363.189 194.07L346.974 176.815L338.867 168.187L334.814 163.873L325.13 161.102L298.961 168.269L296.434 174.385L299.536 178.96L305.741 188.108L318.15 206.405L320.965 205.635L323.78 204.864L329.41 203.322L340.669 200.238Z" fill="#93BAE6" stroke="black" stroke-width="0.5"/>
<path d="M212.67 162.859L188.992 191.81L246.303 198.747L249.498 167.315L242.132 166.424L212.67 162.859Z" fill="#93BAE6" stroke="black" stroke-width="0.5"/>
<path d="M282.99 171.482L306.675 206.404L257.512 200.453L260.73 168.789L268.15 169.687L282.99 171.482Z" fill="#93BAE6" stroke="black" stroke-width="0.5"/>
<path d="M256.249 158.497L266.485 164.407L266.485 152.039L266.485 139.671L251.215 134.935L251.215 149.553L256.249 158.497Z" fill="#1F4C85"/>
<path d="M266.485 139.671L268.926 134.382L271.367 129.093L254.1 128.683L252.657 131.809L251.215 134.935L266.485 139.671Z" fill="#1F4C85"/>
<path d="M271.367 129.093L275.316 125.33L279.266 121.568L258.768 124.237L256.434 126.46L254.1 128.683L271.367 129.093Z" fill="#1F4C85"/>
<path d="M279.266 121.568L283.216 120.77L287.166 119.971L263.437 123.293L261.102 123.765L258.768 124.237L279.266 121.568Z" fill="#1F4C85"/>
<path fill-rule="evenodd" clip-rule="evenodd" d="M292.048 124.912L287.166 119.971L283.216 120.77L279.266 121.568L275.316 125.33L271.367 129.093L268.926 134.382L266.485 139.671L266.485 152.039L266.485 164.407L279.266 157.028L292.048 149.648L292.048 137.28L292.048 124.912ZM286.554 126.142L289.823 129.451L289.823 132.662L289.823 135.873L286.554 142.956L281.265 147.994L275.975 149.063L274.03 147.945L272.395 146.291L270.761 144.637L270.761 141.426L270.761 138.215L272.395 134.673L274.03 131.132L276.675 128.613L279.319 126.094L281.964 125.559L284.609 125.024L286.554 126.142Z" fill="white"/>
<path d="M274.03 147.945L275.975 149.063L274.341 147.409L272.395 146.291L274.03 147.945Z" fill="#1F4C85"/>
<path d="M272.706 145.755L270.761 144.637L272.395 146.291L274.341 147.409L272.706 145.755Z" fill="#1F4C85"/>
<path d="M270.761 144.637L272.706 145.755L272.706 142.544L270.761 141.426L270.761 144.637Z" fill="#1F4C85"/>
<path d="M272.706 139.333L270.761 138.215L270.761 141.426L272.706 142.544L272.706 139.333Z" fill="#1F4C85"/>
<path d="M270.761 138.215L272.706 139.333L274.341 135.792L272.395 134.673L270.761 138.215Z" fill="#1F4C85"/>
<path d="M275.975 132.25L274.03 131.132L272.395 134.673L274.341 135.792L275.975 132.25Z" fill="#1F4C85"/>
<path d="M274.03 131.132L275.975 132.25L278.62 129.731L276.675 128.613L274.03 131.132Z" fill="#1F4C85"/>
<path d="M281.265 127.212L279.319 126.094L276.675 128.613L278.62 129.731L281.265 127.212Z" fill="#1F4C85"/>
<path d="M279.319 126.094L281.265 127.212L283.909 126.677L281.964 125.559L279.319 126.094Z" fill="#1F4C85"/>
<path d="M286.554 126.142L284.609 125.024L281.964 125.559L283.909 126.677L286.554 126.142Z" fill="#1F4C85"/>
<path d="M278.421 143.829L279.46 144.427L278.587 143.543L277.548 142.946L278.421 143.829Z" fill="#1F4C85"/>
<path d="M277.714 142.659L276.675 142.062L277.548 142.946L278.587 143.543L277.714 142.659Z" fill="#1F4C85"/>
<path d="M276.675 142.062L277.714 142.659L277.714 140.944L276.675 140.346L276.675 142.062Z" fill="#1F4C85"/>
<path d="M277.714 139.228L276.675 138.631L276.675 140.346L277.714 140.944L277.714 139.228Z" fill="#1F4C85"/>
<path d="M276.675 138.631L277.714 139.228L278.587 137.336L277.548 136.739L276.675 138.631Z" fill="#1F4C85"/>
<path d="M279.46 135.444L278.421 134.847L277.548 136.739L278.587 137.336L279.46 135.444Z" fill="#1F4C85"/>
<path d="M278.421 134.847L279.46 135.444L280.873 134.098L279.834 133.501L278.421 134.847Z" fill="#1F4C85"/>
<path d="M282.286 132.753L281.247 132.155L279.834 133.501L280.873 134.098L282.286 132.753Z" fill="#1F4C85"/>
<path d="M281.247 132.155L282.286 132.753L283.699 132.467L282.66 131.87L281.247 132.155Z" fill="#1F4C85"/>
<path fill-rule="evenodd" clip-rule="evenodd" d="M289.823 129.451L286.554 126.142L283.909 126.677L281.265 127.212L278.62 129.731L275.975 132.25L274.341 135.792L272.706 139.333L272.706 142.544L272.706 145.755L274.341 147.409L275.975 149.063L281.265 147.994L286.554 142.956L289.823 135.873L289.823 132.662L289.823 129.451ZM285.112 132.181L286.859 133.949L286.859 135.664L286.859 137.38L285.112 141.164L282.286 143.855L279.46 144.427L278.421 143.829L277.548 142.946L276.675 142.062L276.675 140.346L276.675 138.631L277.548 136.739L278.421 134.847L279.834 133.501L281.247 132.155L282.66 131.87L284.073 131.584L285.112 132.181Z" fill="#93BAE6"/>
<path d="M285.112 132.181L284.073 131.584L282.66 131.87L283.699 132.467L285.112 132.181Z" fill="#1F4C85"/>
<path d="M286.859 133.949L285.112 132.181L283.699 132.467L282.286 132.753L280.873 134.098L279.46 135.444L278.587 137.336L277.714 139.228L277.714 140.944L277.714 142.659L278.587 143.543L279.46 144.427L282.286 143.855L285.112 141.164L286.859 137.38L286.859 135.664L286.859 133.949Z" fill="white"/>
<path d="M284.117 136.542L283.419 135.836L282.854 135.95L282.289 136.064L281.724 136.602L281.159 137.14L280.81 137.897L280.461 138.653L280.461 139.339L280.461 140.025L280.81 140.378L281.159 140.731L282.289 140.503L283.419 139.427L284.117 137.914L284.117 136.542Z" fill="black"/>
<path d="M285.423 133.48L285.073 133.127L284.791 133.184L284.509 133.241L284.226 133.51L283.944 133.779L283.769 134.157L283.595 134.536L283.595 134.878L283.595 135.221L283.769 135.398L283.944 135.575L284.509 135.46L285.073 134.922L285.423 134.166L285.423 133.48Z" fill="black"/>
<path d="M279.266 121.568L275.316 125.33L271.367 129.093M279.266 121.568L283.216 120.77L287.166 119.971M279.266 121.568L258.768 124.237M287.166 119.971L292.048 124.912L292.048 137.28L292.048 149.648L279.266 157.028L266.485 164.407M287.166 119.971L263.437 123.293L261.102 123.765L258.768 124.237M266.485 139.671L268.926 134.382L271.367 129.093M266.485 139.671L251.215 134.935M266.485 139.671L266.485 152.039L266.485 164.407M271.367 129.093L254.1 128.683M266.485 164.407L256.249 158.497M256.249 158.497L266.485 164.407M256.249 158.497L251.215 149.553L251.215 134.935M251.215 134.935L252.657 131.809L254.1 128.683M254.1 128.683L256.434 126.46L258.768 124.237M281.265 127.212L279.319 126.094M281.265 127.212L278.62 129.731M281.265 127.212L283.909 126.677M286.554 126.142L289.823 129.451L289.823 132.662L289.823 135.873L286.554 142.956L281.265 147.994L275.975 149.063M286.554 126.142L284.609 125.024L281.964 125.559M286.554 126.142L283.909 126.677M275.975 149.063L274.03 147.945L272.395 146.291M275.975 149.063L274.341 147.409M272.706 145.755L270.761 144.637M272.706 145.755L274.341 147.409M272.706 145.755L272.706 142.544M272.706 139.333L270.761 138.215M272.706 139.333L272.706 142.544M272.706 139.333L274.341 135.792M275.975 132.25L274.03 131.132M275.975 132.25L274.341 135.792M275.975 132.25L278.62 129.731M279.319 126.094L276.675 128.613M279.319 126.094L281.964 125.559M270.761 144.637L272.395 146.291M270.761 144.637L270.761 141.426M270.761 138.215L270.761 141.426M270.761 138.215L272.395 134.673M274.03 131.132L272.395 134.673M274.03 131.132L276.675 128.613M272.395 146.291L274.341 147.409M270.761 141.426L272.706 142.544M272.395 134.673L274.341 135.792M276.675 128.613L278.62 129.731M281.964 125.559L283.909 126.677M282.286 132.753L281.247 132.155M282.286 132.753L280.873 134.098M282.286 132.753L283.699 132.467M285.112 132.181L286.859 133.949L286.859 135.664L286.859 137.38L285.112 141.164L282.286 143.855L279.46 144.427M285.112 132.181L284.073 131.584L282.66 131.87M285.112 132.181L283.699 132.467M279.46 144.427L278.421 143.829L277.548 142.946M279.46 144.427L278.587 143.543M277.714 142.659L276.675 142.062M277.714 142.659L278.587 143.543M277.714 142.659L277.714 140.944M277.714 139.228L276.675 138.631M277.714 139.228L277.714 140.944M277.714 139.228L278.587 137.336M279.46 135.444L278.421 134.847M279.46 135.444L278.587 137.336M279.46 135.444L280.873 134.098M281.247 132.155L279.834 133.501M281.247 132.155L282.66 131.87M276.675 142.062L277.548 142.946M276.675 142.062L276.675 140.346M276.675 138.631L276.675 140.346M276.675 138.631L277.548 136.739M278.421 134.847L277.548 136.739M278.421 134.847L279.834 133.501M277.548 142.946L278.587 143.543M276.675 140.346L277.714 140.944M277.548 136.739L278.587 137.336M279.834 133.501L280.873 134.098M282.66 131.87L283.699 132.467M283.419 135.836L284.117 136.542L284.117 137.914L283.419 139.427L282.289 140.503L281.159 140.731L280.81 140.378L280.461 140.025L280.461 139.339L280.461 138.653L280.81 137.897L281.159 137.14L281.724 136.602L282.289 136.064L282.854 135.95L283.419 135.836ZM285.073 133.127L285.423 133.48L285.423 134.166L285.073 134.922L284.509 135.46L283.944 135.575L283.769 135.398L283.595 135.221L283.595 134.878L283.595 134.536L283.769 134.157L283.944 133.779L284.226 133.51L284.509 133.241L284.791 133.184L285.073 133.127Z" stroke="black" stroke-width="0.5"/>
<circle cx="419.379" cy="49.3364" r="20.4418" stroke="#1D416F"/>
<circle cx="419.381" cy="49.3341" r="30.8341" stroke="#5A97D6"/>
<circle cx="419.38" cy="49.3366" r="25.5592" stroke="#245FA5"/>
<path d="M407.473 42.7417V37.5078H412.707" stroke="#012750" stroke-width="2" stroke-miterlimit="10" stroke-linecap="square"/>
<path d="M431.023 42.7417V37.5078H425.789" stroke="#012750" stroke-width="2" stroke-miterlimit="10" stroke-linecap="square"/>
<path d="M407.473 55.8281V61.062H412.707" stroke="#012750" stroke-width="2" stroke-miterlimit="10" stroke-linecap="square"/>
<path d="M431.023 55.8281V61.062H425.789" stroke="#012750" stroke-width="2" stroke-miterlimit="10" stroke-linecap="square"/>
<path d="M407.035 49.2832C407.035 49.2832 412.269 42.3047 419.248 42.3047C426.226 42.3047 431.46 49.2832 431.46 49.2832C431.46 49.2832 426.226 56.2617 419.248 56.2617C412.269 56.2617 407.035 49.2832 407.035 49.2832Z" stroke="#012750" stroke-width="2" stroke-miterlimit="10" stroke-linecap="square"/>
<path d="M419.247 52.7715C421.174 52.7715 422.736 51.2093 422.736 49.2822C422.736 47.3552 421.174 45.793 419.247 45.793C417.32 45.793 415.758 47.3552 415.758 49.2822C415.758 51.2093 417.32 52.7715 419.247 52.7715Z" stroke="#3274BA" stroke-width="2" stroke-miterlimit="10" stroke-linecap="square"/>
<circle cx="157.157" cy="72.809" r="20.4418" stroke="#1D416F"/>
<circle cx="157.158" cy="72.8067" r="30.8341" stroke="#5A97D6"/>
<circle cx="157.161" cy="72.8092" r="25.5592" stroke="#245FA5"/>
<path d="M164.342 84.1068H145.328V68.6304L150.192 63.3242H159.92L162.131 65.9773L164.342 68.6304V84.1068Z" stroke="#012750" stroke-width="2" stroke-linecap="round" stroke-linejoin="round"/>
<path d="M169.429 63.9898L166.997 62L164.344 64.1707" stroke="#3274BA" stroke-width="2" stroke-linecap="round" stroke-linejoin="round"/>
<path d="M423.544 168.288V168.788H424.044V168.288H423.544ZM423.544 84.6757L420.657 87.5625L423.544 90.4493L426.43 87.5625L423.544 84.6757ZM352.551 168.788H354.03V167.788H352.551V168.788ZM356.988 168.788H359.946V167.788H356.988V168.788ZM362.904 168.788H365.862V167.788H362.904V168.788ZM368.82 168.788H371.778V167.788H368.82V168.788ZM374.736 168.788H377.694V167.788H374.736V168.788ZM380.652 168.788H383.61V167.788H380.652V168.788ZM386.568 168.788H389.526V167.788H386.568V168.788ZM392.484 168.788H395.442V167.788H392.484V168.788ZM398.4 168.788H401.358V167.788H398.4V168.788ZM404.316 168.788H407.274V167.788H404.316V168.788ZM410.232 168.788H413.19V167.788H410.232V168.788ZM416.149 168.788H419.107V167.788H416.149V168.788ZM422.065 168.788H423.544V167.788H422.065V168.788ZM424.044 168.288V166.847H423.044V168.288H424.044ZM424.044 163.964V161.081H423.044V163.964H424.044ZM424.044 158.197V155.314H423.044V158.197H424.044ZM424.044 152.431V149.548H423.044V152.431H424.044ZM424.044 146.665V143.782H423.044V146.665H424.044ZM424.044 140.899V138.016H423.044V140.899H424.044ZM424.044 135.133V132.25H423.044V135.133H424.044ZM424.044 129.367V126.484H423.044V129.367H424.044ZM424.044 123.601V120.718H423.044V123.601H424.044ZM424.044 117.835V114.952H423.044V117.835H424.044ZM424.044 112.068V109.185H423.044V112.068H424.044ZM424.044 106.302V103.419H423.044V106.302H424.044ZM424.044 100.536V97.6532H423.044V100.536H424.044ZM424.044 94.7702V91.8871H423.044V94.7702H424.044ZM424.044 89.004V87.5625H423.044V89.004H424.044Z" fill="#3274BA"/>
<path d="M157.031 105.285L154.144 108.172L157.031 111.059L159.918 108.172L157.031 105.285ZM157.031 168.573H156.531V169.073H157.031V168.573ZM156.531 108.172V109.545H157.531V108.172H156.531ZM156.531 112.29V115.036H157.531V112.29H156.531ZM156.531 117.781V120.527H157.531V117.781H156.531ZM156.531 123.272V126.018H157.531V123.272H156.531ZM156.531 128.763V131.509H157.531V128.763H156.531ZM156.531 134.254V137H157.531V134.254H156.531ZM156.531 139.745V142.491H157.531V139.745H156.531ZM156.531 145.236V147.982H157.531V145.236H156.531ZM156.531 150.727V153.473H157.531V150.727H156.531ZM156.531 156.218V158.964H157.531V156.218H156.531ZM156.531 161.709V164.455H157.531V161.709H156.531ZM156.531 167.2V168.573H157.531V167.2H156.531ZM157.031 169.073H158.558V168.073H157.031V169.073ZM161.611 169.073H164.665V168.073H161.611V169.073ZM167.718 169.073H170.772V168.073H167.718V169.073ZM173.825 169.073H176.879V168.073H173.825V169.073ZM179.932 169.073H182.986V168.073H179.932V169.073ZM186.039 169.073H189.093V168.073H186.039V169.073ZM192.146 169.073H193.673V168.073H192.146V169.073Z" fill="#3274BA"/>
<defs>
<filter id="filter0_f_4093_9991" x="168.375" y="229.707" width="231.905" height="49.4719" filterUnits="userSpaceOnUse" color-interpolation-filters="sRGB">
<feFlood flood-opacity="0" result="BackgroundImageFix"/>
<feBlend mode="normal" in="SourceGraphic" in2="BackgroundImageFix" result="shape"/>
<feGaussianBlur stdDeviation="3.79472" result="effect1_foregroundBlur_4093_9991"/>
</filter>
</defs>
</svg>
