<svg width="336" height="235" viewBox="0 0 336 235" fill="none" xmlns="http://www.w3.org/2000/svg">
<circle opacity="0.9" cx="143.625" cy="52.328" r="24.2889" fill="#C6D9F1"/>
<path d="M138.191 39.1048V36.2344" stroke="#012750" stroke-width="1.21444" stroke-miterlimit="10" stroke-linecap="square"/>
<path d="M149.676 39.1048V36.2344" stroke="#012750" stroke-width="1.21444" stroke-miterlimit="10" stroke-linecap="square"/>
<path d="M143.934 39.1048V36.2344" stroke="#012750" stroke-width="1.21444" stroke-miterlimit="10" stroke-linecap="square"/>
<path d="M159.718 57.7617H156.848" stroke="#012750" stroke-width="1.21444" stroke-miterlimit="10" stroke-linecap="square"/>
<path d="M159.718 46.2812H156.848" stroke="#012750" stroke-width="1.21444" stroke-miterlimit="10" stroke-linecap="square"/>
<path d="M159.718 52.0195H156.848" stroke="#012750" stroke-width="1.21444" stroke-miterlimit="10" stroke-linecap="square"/>
<path d="M131.015 57.7617H128.145" stroke="#012750" stroke-width="1.21444" stroke-miterlimit="10" stroke-linecap="square"/>
<path d="M131.015 46.2812H128.145" stroke="#012750" stroke-width="1.21444" stroke-miterlimit="10" stroke-linecap="square"/>
<path d="M131.015 52.0195H128.145" stroke="#012750" stroke-width="1.21444" stroke-miterlimit="10" stroke-linecap="square"/>
<path d="M138.191 67.8118V64.9414" stroke="#012750" stroke-width="1.21444" stroke-miterlimit="10" stroke-linecap="square"/>
<path d="M149.676 67.8118V64.9414" stroke="#012750" stroke-width="1.21444" stroke-miterlimit="10" stroke-linecap="square"/>
<path d="M143.934 67.8118V64.9414" stroke="#012750" stroke-width="1.21444" stroke-miterlimit="10" stroke-linecap="square"/>
<path d="M153.979 39.1055H133.886C132.301 39.1055 131.016 40.3906 131.016 41.9759V62.0689C131.016 63.6542 132.301 64.9393 133.886 64.9393H153.979C155.564 64.9393 156.85 63.6542 156.85 62.0689V41.9759C156.85 40.3906 155.564 39.1055 153.979 39.1055Z" stroke="#012750" stroke-width="1.21444" stroke-miterlimit="10" stroke-linecap="square"/>
<path d="M152.543 43.4141H135.32V60.6366H152.543V43.4141Z" stroke="#012750" stroke-width="1.21444" stroke-miterlimit="10" stroke-linecap="square"/>
<path d="M143.236 56.2571L144.157 53.6967H147.683L148.584 56.2571H150.176L146.724 47H145.081L141.636 56.2571H143.236ZM144.554 52.3971L145.415 49.8855C145.478 49.7176 145.566 49.4528 145.678 49.0911C145.79 48.7294 145.866 48.4646 145.907 48.2967C146.038 48.872 146.204 49.4385 146.405 49.9931L147.238 52.3957L144.554 52.3971Z" fill="#3274BA"/>
<path d="M140.344 56.2582V47.0391H138.909V56.2582H140.344Z" fill="#3274BA"/>
<circle opacity="0.9" cx="268.101" cy="106.972" r="24.2889" fill="#C6D9F1"/>
<path d="M268.083 122.84C276.421 119 280.616 112.434 282.52 106.334M268.083 122.84L268.083 106.334M268.083 122.84C263.769 121.332 256.373 116.216 253.503 106.334M268.083 90.5781C262.708 94.1795 255.392 95.0798 252.405 95.0798C252.111 99.3669 252.566 103.105 253.503 106.334M268.083 90.5781C270.323 92.3288 276.594 95.68 283.761 95.0798C284.073 97.7999 283.889 101.947 282.52 106.334M268.083 90.5781V106.334M268.083 106.334H282.52M268.083 106.334H253.503" stroke="#012750" stroke-width="1.21444" stroke-linecap="round"/>
<circle opacity="0.9" cx="68.3241" cy="164.055" r="24.2889" fill="#C6D9F1"/>
<path d="M53.4023 155.391V148.625H60.1686" stroke="#012750" stroke-width="1.21444" stroke-miterlimit="10" stroke-linecap="square"/>
<path d="M83.8522 155.391V148.625H77.0859" stroke="#012750" stroke-width="1.21444" stroke-miterlimit="10" stroke-linecap="square"/>
<path d="M53.4023 172.309V179.075H60.1686" stroke="#012750" stroke-width="1.21444" stroke-miterlimit="10" stroke-linecap="square"/>
<path d="M83.8522 172.309V179.075H77.0859" stroke="#012750" stroke-width="1.21444" stroke-miterlimit="10" stroke-linecap="square"/>
<path d="M52.8398 163.846C52.8398 163.846 59.6061 154.824 68.6277 154.824C77.6494 154.824 84.4156 163.846 84.4156 163.846C84.4156 163.846 77.6494 172.868 68.6277 172.868C59.6061 172.868 52.8398 163.846 52.8398 163.846Z" stroke="#012750" stroke-width="1.21444" stroke-miterlimit="10" stroke-linecap="square"/>
<path d="M68.628 168.358C71.1193 168.358 73.1388 166.338 73.1388 163.847C73.1388 161.356 71.1193 159.336 68.628 159.336C66.1368 159.336 64.1172 161.356 64.1172 163.847C64.1172 166.338 66.1368 168.358 68.628 168.358Z" stroke="#3274BA" stroke-width="1.21444" stroke-miterlimit="10" stroke-linecap="square"/>
<path d="M194.431 111.683L176.799 105.326L156.7 110.337L144.207 126.595L141.8 148.383L148.175 148.371L150.014 129.504L159.793 116.778L175.526 112.855L189.328 117.831L189.654 119.073L193.607 134.158L192.099 148.287C194.528 148.297 196.607 148.313 198.211 148.338L199.897 132.54L194.431 111.683Z" fill="white"/>
<path d="M150.014 129.504L148.175 148.371L151.819 150.808L153.658 131.942L150.014 129.504Z" fill="#245FA5"/>
<path d="M159.793 116.778L150.014 129.504L153.658 131.942L163.436 119.215L159.793 116.778Z" fill="#245FA5"/>
<path d="M175.526 112.855L159.793 116.778L163.436 119.215L179.17 115.293L175.526 112.855Z" fill="#245FA5"/>
<path d="M189.328 117.831L175.526 112.855L179.17 115.293L189.654 119.073L189.328 117.831Z" fill="#245FA5"/>
<path d="M194.431 111.683L199.897 132.54L203.54 134.977L198.074 114.12L194.431 111.683Z" fill="#245FA5"/>
<path d="M199.897 132.54L198.211 148.338L201.854 150.775L203.54 134.977L199.897 132.54Z" fill="#245FA5"/>
<path d="M194.431 111.683L176.799 105.326L156.7 110.337L144.207 126.595L141.8 148.383M194.431 111.683L199.897 132.54M194.431 111.683L198.074 114.12L203.54 134.977M199.897 132.54L198.211 148.338M199.897 132.54L203.54 134.977M141.8 148.383L148.175 148.371M141.8 148.383L145.443 150.821L151.819 150.808M175.526 112.855L189.328 117.831L189.654 119.073M175.526 112.855L159.793 116.778M175.526 112.855L179.17 115.293M148.175 148.371L150.014 129.504M148.175 148.371L151.819 150.808M150.014 129.504L159.793 116.778M150.014 129.504L153.658 131.942M159.793 116.778L163.436 119.215M192.099 148.287L193.607 134.158L189.654 119.073M192.099 148.287C194.528 148.297 196.607 148.313 198.211 148.338M192.099 148.287L195.742 150.725C198.171 150.734 200.25 150.751 201.854 150.775M198.211 148.338L201.854 150.775M203.54 134.977L201.854 150.775M179.17 115.293L163.436 119.215M179.17 115.293L189.654 119.073M151.819 150.808L153.658 131.942M153.658 131.942L163.436 119.215" stroke="#012750" stroke-width="0.303611"/>
<path d="M138.042 205.425C145.719 205.612 182.437 207.22 199.837 208C199.837 208 194.31 200.943 190.769 196.421C173.369 195.64 136.651 194.033 128.973 193.846C132.515 198.368 138.042 205.425 138.042 205.425Z" fill="#245FA5"/>
<path d="M203.877 186.121C203.877 186.121 200.846 188.502 197.323 191.271C195.125 192.998 192.735 194.875 190.769 196.421C194.31 200.943 199.837 208 199.837 208L206.391 202.85L212.945 197.701L203.877 186.121Z" fill="#245FA5"/>
<path d="M212.945 197.701L215.285 182.837L217.626 167.973L208.558 156.394L206.217 171.258L203.877 186.121L212.945 197.701Z" fill="#245FA5"/>
<path d="M203.877 186.121L206.217 171.258L208.558 156.394L197.323 146.563C189.649 146.316 153.551 146.563 136.464 146.563L125.228 156.628C123.73 164.306 121.405 176.602 120.547 181.674C120.547 181.674 125.683 189.092 128.973 193.846C136.651 194.033 173.369 195.64 190.769 196.421C192.735 194.875 195.125 192.998 197.323 191.271C200.846 188.502 203.877 186.121 203.877 186.121Z" fill="white"/>
<path d="M212.945 197.701L203.877 186.121M212.945 197.701L206.391 202.85M212.945 197.701L215.285 182.837M199.837 208C182.437 207.22 145.719 205.612 138.041 205.425C138.041 205.425 132.515 198.368 128.973 193.846M199.837 208C199.837 208 194.31 200.943 190.769 196.421M199.837 208L206.391 202.85M203.877 186.121C203.877 186.121 200.846 188.502 197.323 191.271M203.877 186.121L206.217 171.258M208.558 156.394L217.626 167.973L215.285 182.837M208.558 156.394L197.323 146.563C189.649 146.316 153.551 146.563 136.464 146.563L125.228 156.628C123.73 164.306 121.405 176.602 120.547 181.674C120.547 181.674 125.683 189.092 128.973 193.846M208.558 156.394L206.217 171.258M128.973 193.846C136.651 194.033 173.369 195.64 190.769 196.421M190.769 196.421C192.735 194.876 195.125 192.998 197.323 191.271M206.391 202.85L197.323 191.271M215.285 182.837L206.217 171.258M153.677 206.005L142.919 194.357M185.043 207.345L174.285 195.697M168.448 206.625L157.69 194.977" stroke="#012750" stroke-width="0.303611"/>
<path d="M197.324 146.563C189.65 146.316 153.552 146.563 136.465 146.563" stroke="#012750" stroke-width="0.303611"/>
<path d="M124.758 180.696L132.378 191.703C132.557 191.707 132.753 191.712 132.966 191.718L126.23 181.989L124.758 180.696Z" fill="#245FA5"/>
<path d="M128.991 158.049C127.636 164.991 125.534 176.11 124.758 180.696L126.23 181.989C127.003 177.425 129.095 166.36 130.443 159.452L128.991 158.049Z" fill="#245FA5"/>
<path d="M139.151 148.947L128.991 158.049L130.443 159.452L140.553 150.395L139.151 148.947Z" fill="#245FA5"/>
<path d="M194.183 148.947C187.244 148.723 154.602 148.947 139.151 148.947L140.553 150.395C155.929 150.395 188.411 150.172 195.316 150.395L194.183 148.947Z" fill="#245FA5"/>
<path d="M204.342 157.837L194.183 148.947L195.316 150.395L204.279 158.237L204.342 157.837Z" fill="#245FA5"/>
<path d="M188.256 194.031L200.109 184.718L204.279 158.237L195.316 150.395C188.411 150.172 155.929 150.395 140.553 150.395L130.443 159.452C129.095 166.36 127.003 177.425 126.23 181.989L132.966 191.718C141.02 191.946 172.928 193.344 188.256 194.031Z" fill="white"/>
<path d="M194.183 148.947C187.244 148.723 154.602 148.947 139.151 148.947M194.183 148.947L204.342 157.837L204.279 158.237M194.183 148.947L195.316 150.395M139.151 148.947L128.991 158.049M139.151 148.947L140.553 150.395M128.991 158.049C127.636 164.991 125.534 176.11 124.758 180.696M128.991 158.049L130.443 159.452M124.758 180.696L132.378 191.703C132.557 191.707 132.753 191.712 132.966 191.718M124.758 180.696L126.23 181.989M140.553 150.395C155.929 150.395 188.411 150.172 195.316 150.395M140.553 150.395L130.443 159.452M130.443 159.452C129.095 166.36 127.003 177.425 126.23 181.989M195.316 150.395L204.279 158.237M126.23 181.989L132.966 191.718M204.279 158.237L200.109 184.718L188.256 194.031C172.928 193.344 141.02 191.946 132.966 191.718" stroke="#012750" stroke-width="0.303611"/>
<path d="M160.193 171.486L160.206 171.364L160.09 171.326L157.741 170.548L155.982 165.806L156.52 160.769L159.907 157.021L165.477 155.938L170.381 157.504L171.991 162.404L171.453 167.444L168.067 171.19L165.277 171.651L165.163 171.67L165.151 171.785L164.604 176.906L164.07 181.913L161.379 182.358L159.113 181.607L159.646 176.608L160.193 171.486Z" fill="#3274BA" stroke="#012750" stroke-width="0.303611"/>
<path d="M160.888 158.705L165.126 157.881L168.849 159.069L170.072 162.791L169.663 166.625L167.09 169.471L162.834 170.175L159.242 168.985L157.906 165.384L158.315 161.553L160.888 158.705Z" fill="#012750" stroke="#012750" stroke-width="0.303611"/>
<path d="M219.827 180.144H268.101V135.817M119.635 165.267H95.043M182.483 103.331V57.7891H173.375" stroke="#5A97D6" stroke-width="0.607222" stroke-dasharray="3.04 3.04"/>
</svg>
