<svg width="547" height="320" viewBox="0 0 547 320" fill="none" xmlns="http://www.w3.org/2000/svg">
<g opacity="0.2" filter="url(#filter0_f_4093_10125)">
<path d="M198.618 275.778L147.663 268.848L79.3984 290.1L130.354 297.03L186.001 304.998L254.266 283.746L198.618 275.778Z" fill="#012750"/>
</g>
<path d="M379.007 233.069L382.434 234.183L384.551 237.098V240.7L382.434 243.615L379.007 244.729L375.581 243.615L373.463 240.7V237.098L375.581 234.183L379.007 233.069Z" fill="white"/>
<path fill-rule="evenodd" clip-rule="evenodd" d="M379.007 233.069L382.434 234.183L384.551 237.098V240.7L382.434 243.615L379.007 244.729L375.581 243.615L373.463 240.7V237.098L375.581 234.183L379.007 233.069Z" fill="white"/>
<path fill-rule="evenodd" clip-rule="evenodd" d="M385.371 230.14L379.007 228.073L372.644 230.14L368.711 235.553V242.245L372.644 247.658L379.007 249.725L385.371 247.658L389.304 242.245V235.553L385.371 230.14ZM382.434 234.183L379.007 233.069L375.581 234.183L373.463 237.098V240.7L375.581 243.615L379.007 244.729L382.434 243.615L384.551 240.7V237.098L382.434 234.183Z" fill="#1D416F"/>
<path d="M372.644 230.14L379.007 228.073L383.172 225.574L376.808 227.642L372.644 230.14Z" fill="#012750"/>
<path d="M379.007 228.073L385.371 230.14L389.535 227.642L383.172 225.574L379.007 228.073Z" fill="#012750"/>
<path d="M385.371 230.14L389.304 235.553L393.468 233.055L389.535 227.642L385.371 230.14Z" fill="#012750"/>
<path d="M389.304 235.553V242.245L393.468 239.746V233.055L389.304 235.553Z" fill="#012750"/>
<path d="M389.304 242.245L385.371 247.658L389.535 245.159L393.468 239.746L389.304 242.245Z" fill="#012750"/>
<path d="M379.007 228.073L385.371 230.14M379.007 228.073L372.644 230.14M379.007 228.073L383.172 225.574M385.371 230.14L389.304 235.553M385.371 230.14L389.535 227.642M389.304 235.553V242.245M389.304 235.553L393.468 233.055M389.304 242.245L385.371 247.658M389.304 242.245L393.468 239.746M385.371 247.658L379.007 249.725L372.644 247.658L368.711 242.245V235.553L372.644 230.14M385.371 247.658L389.535 245.159L393.468 239.746M372.644 230.14L376.808 227.642L383.172 225.574M393.468 239.746V233.055M393.468 233.055L389.535 227.642M389.535 227.642L383.172 225.574M379.007 233.069L382.434 234.183L384.551 237.098V240.7L382.434 243.615L379.007 244.729L375.581 243.615L373.463 240.7V237.098L375.581 234.183L379.007 233.069Z" stroke="#012750" stroke-width="0.5"/>
<path d="M322.808 225.8L326.235 226.913L328.352 229.828V233.431L326.235 236.346L322.808 237.459L319.381 236.346L317.264 233.431V229.828L319.381 226.913L322.808 225.8Z" fill="white"/>
<path fill-rule="evenodd" clip-rule="evenodd" d="M322.808 225.8L326.235 226.913L328.352 229.828V233.431L326.235 236.346L322.808 237.459L319.381 236.346L317.264 233.431V229.828L319.381 226.913L322.808 225.8Z" fill="white"/>
<path fill-rule="evenodd" clip-rule="evenodd" d="M329.172 222.871L322.808 220.803L316.445 222.871L312.512 228.284V234.975L316.445 240.388L322.808 242.456L329.172 240.388L333.105 234.975V228.284L329.172 222.871ZM326.235 226.913L322.808 225.8L319.381 226.913L317.264 229.828V233.431L319.381 236.346L322.808 237.459L326.235 236.346L328.352 233.431V229.828L326.235 226.913Z" fill="#1D416F"/>
<path d="M316.445 222.871L322.808 220.803L326.972 218.305L320.609 220.372L316.445 222.871Z" fill="#012750"/>
<path d="M322.808 220.803L329.172 222.871L333.336 220.372L326.972 218.305L322.808 220.803Z" fill="#012750"/>
<path d="M329.172 222.871L333.105 228.284L337.269 225.786L333.336 220.372L329.172 222.871Z" fill="#012750"/>
<path d="M333.105 228.284V234.975L337.269 232.477V225.786L333.105 228.284Z" fill="#012750"/>
<path d="M333.105 234.975L329.172 240.388L333.336 237.89L337.269 232.477L333.105 234.975Z" fill="#012750"/>
<path d="M322.808 220.803L329.172 222.871M322.808 220.803L316.445 222.871M322.808 220.803L326.972 218.305M329.172 222.871L333.105 228.284M329.172 222.871L333.336 220.372M333.105 228.284V234.975M333.105 228.284L337.269 225.786M333.105 234.975L329.172 240.388M333.105 234.975L337.269 232.477M329.172 240.388L322.808 242.456L316.445 240.388L312.512 234.975V228.284L316.445 222.871M329.172 240.388L333.336 237.89L337.269 232.477M316.445 222.871L320.609 220.372L326.972 218.305M337.269 232.477V225.786M337.269 225.786L333.336 220.372M333.336 220.372L326.972 218.305M322.808 225.8L326.235 226.913L328.352 229.828V233.431L326.235 236.346L322.808 237.459L319.381 236.346L317.264 233.431V229.828L319.381 226.913L322.808 225.8Z" stroke="#012750" stroke-width="0.5"/>
<path d="M260.874 218.921L264.301 220.034L266.419 222.949V226.552L264.301 229.467L260.874 230.58L257.448 229.467L255.33 226.552V222.949L257.448 220.034L260.874 218.921Z" fill="white"/>
<path fill-rule="evenodd" clip-rule="evenodd" d="M260.874 218.921L264.301 220.034L266.419 222.949V226.552L264.301 229.467L260.874 230.58L257.448 229.467L255.33 226.552V222.949L257.448 220.034L260.874 218.921Z" fill="white"/>
<path fill-rule="evenodd" clip-rule="evenodd" d="M267.238 215.992L260.875 213.924L254.511 215.992L250.578 221.405V228.096L254.511 233.509L260.875 235.577L267.238 233.509L271.171 228.096V221.405L267.238 215.992ZM264.301 220.034L260.874 218.921L257.448 220.034L255.33 222.949V226.552L257.448 229.467L260.874 230.58L264.301 229.467L266.419 226.552V222.949L264.301 220.034Z" fill="#1D416F"/>
<path d="M254.511 215.992L260.875 213.924L265.039 211.426L258.675 213.493L254.511 215.992Z" fill="#012750"/>
<path d="M260.875 213.924L267.238 215.992L271.402 213.493L265.039 211.426L260.875 213.924Z" fill="#012750"/>
<path d="M267.238 215.992L271.171 221.405L275.335 218.907L271.402 213.493L267.238 215.992Z" fill="#012750"/>
<path d="M271.171 221.405V228.096L275.335 225.598V218.907L271.171 221.405Z" fill="#012750"/>
<path d="M271.171 228.096L267.238 233.509L271.402 231.011L275.335 225.598L271.171 228.096Z" fill="#012750"/>
<path d="M260.875 213.924L267.238 215.992M260.875 213.924L254.511 215.992M260.875 213.924L265.039 211.426M267.238 215.992L271.171 221.405M267.238 215.992L271.402 213.493M271.171 221.405V228.096M271.171 221.405L275.335 218.907M271.171 228.096L267.238 233.509M271.171 228.096L275.335 225.598M267.238 233.509L260.875 235.577L254.511 233.509L250.578 228.096V221.405L254.511 215.992M267.238 233.509L271.402 231.011L275.335 225.598M254.511 215.992L258.675 213.493L265.039 211.426M275.335 225.598V218.907M275.335 218.907L271.402 213.493M271.402 213.493L265.039 211.426M260.874 218.921L264.301 220.034L266.419 222.949V226.552L264.301 229.467L260.874 230.58L257.448 229.467L255.33 226.552V222.949L257.448 220.034L260.874 218.921Z" stroke="#012750" stroke-width="0.5"/>
<path d="M344.288 228.343L347.715 229.456L349.833 232.371V235.974L347.715 238.889L344.288 240.002L340.862 238.889L338.744 235.974V232.371L340.862 229.456L344.288 228.343Z" fill="white"/>
<path fill-rule="evenodd" clip-rule="evenodd" d="M344.288 228.343L347.715 229.456L349.833 232.371V235.974L347.715 238.889L344.288 240.002L340.862 238.889L338.744 235.974V232.371L340.862 229.456L344.288 228.343Z" fill="white"/>
<path fill-rule="evenodd" clip-rule="evenodd" d="M350.652 225.414L344.289 223.346L337.925 225.414L333.992 230.827V237.518L337.925 242.931L344.289 244.999L350.652 242.931L354.585 237.518V230.827L350.652 225.414ZM347.715 229.456L344.288 228.343L340.862 229.456L338.744 232.371V235.974L340.862 238.889L344.288 240.002L347.715 238.889L349.833 235.974V232.371L347.715 229.456Z" fill="#1D416F"/>
<path d="M337.925 225.414L344.289 223.346L348.453 220.848L342.089 222.915L337.925 225.414Z" fill="#012750"/>
<path d="M344.289 223.346L350.652 225.414L354.816 222.915L348.453 220.848L344.289 223.346Z" fill="#012750"/>
<path d="M350.652 225.414L354.585 230.827L358.749 228.329L354.816 222.915L350.652 225.414Z" fill="#012750"/>
<path d="M354.585 230.827V237.518L358.749 235.02V228.329L354.585 230.827Z" fill="#012750"/>
<path d="M354.585 237.518L350.652 242.931L354.816 240.433L358.749 235.02L354.585 237.518Z" fill="#012750"/>
<path d="M344.289 223.346L350.652 225.414M344.289 223.346L337.925 225.414M344.289 223.346L348.453 220.848M350.652 225.414L354.585 230.827M350.652 225.414L354.816 222.915M354.585 230.827V237.518M354.585 230.827L358.749 228.329M354.585 237.518L350.652 242.931M354.585 237.518L358.749 235.02M350.652 242.931L344.289 244.999L337.925 242.931L333.992 237.518V230.827L337.925 225.414M350.652 242.931L354.816 240.433L358.749 235.02M337.925 225.414L342.089 222.915L348.453 220.848M358.749 235.02V228.329M358.749 228.329L354.816 222.915M354.816 222.915L348.453 220.848M344.288 228.343L347.715 229.456L349.833 232.371V235.974L347.715 238.889L344.288 240.002L340.862 238.889L338.744 235.974V232.371L340.862 229.456L344.288 228.343Z" stroke="#012750" stroke-width="0.5"/>
<path d="M282.359 221.464L285.785 222.577L287.903 225.492V229.095L285.785 232.01L282.359 233.123L278.932 232.01L276.815 229.095V225.492L278.932 222.577L282.359 221.464Z" fill="white"/>
<path fill-rule="evenodd" clip-rule="evenodd" d="M282.359 221.464L285.785 222.577L287.903 225.492V229.095L285.785 232.01L282.359 233.123L278.932 232.01L276.815 229.095V225.492L278.932 222.577L282.359 221.464Z" fill="white"/>
<path fill-rule="evenodd" clip-rule="evenodd" d="M288.723 218.535L282.359 216.467L275.995 218.535L272.062 223.948V230.639L275.995 236.052L282.359 238.12L288.723 236.052L292.656 230.639V223.948L288.723 218.535ZM285.785 222.577L282.359 221.464L278.932 222.577L276.815 225.492V229.095L278.932 232.01L282.359 233.123L285.785 232.01L287.903 229.095V225.492L285.785 222.577Z" fill="#1D416F"/>
<path d="M275.995 218.535L282.359 216.467L286.523 213.969L280.159 216.036L275.995 218.535Z" fill="#012750"/>
<path d="M282.359 216.467L288.723 218.535L292.887 216.036L286.523 213.969L282.359 216.467Z" fill="#012750"/>
<path d="M288.723 218.535L292.656 223.948L296.82 221.45L292.887 216.036L288.723 218.535Z" fill="#012750"/>
<path d="M292.656 223.948V230.639L296.82 228.141V221.45L292.656 223.948Z" fill="#012750"/>
<path d="M292.656 230.639L288.723 236.052L292.887 233.554L296.82 228.141L292.656 230.639Z" fill="#012750"/>
<path d="M282.359 216.467L288.723 218.535M282.359 216.467L275.995 218.535M282.359 216.467L286.523 213.969M288.723 218.535L292.656 223.948M288.723 218.535L292.887 216.036M292.656 223.948V230.639M292.656 223.948L296.82 221.45M292.656 230.639L288.723 236.052M292.656 230.639L296.82 228.141M288.723 236.052L282.359 238.12L275.995 236.052L272.062 230.639V223.948L275.995 218.535M288.723 236.052L292.887 233.554L296.82 228.141M275.995 218.535L280.159 216.036L286.523 213.969M296.82 228.141V221.45M296.82 221.45L292.887 216.036M292.887 216.036L286.523 213.969M282.359 221.464L285.785 222.577L287.903 225.492V229.095L285.785 232.01L282.359 233.123L278.932 232.01L276.815 229.095V225.492L278.932 222.577L282.359 221.464Z" stroke="#012750" stroke-width="0.5"/>
<path d="M251.77 208.643L256.19 209.179V207.432L251.77 208.643Z" fill="#1D416F"/>
<path d="M364.495 222.34L360.074 221.804L355.229 221.217V224.789V233.066L364.495 234.174V222.34Z" fill="#5A97D6"/>
<path d="M307.024 215.375L304.819 215.108L298.183 214.304V226.242L307.024 227.299V215.375Z" fill="#5A97D6"/>
<path d="M315.866 216.447L311.445 215.911V219.483L320.267 220.552L322.491 220.822L323.28 220.918L345.644 223.628L355.229 224.789V221.217L351.232 220.732L346.812 220.197L342.52 219.677L340.627 219.447L340.18 219.393L339.715 219.337L338.229 219.157L315.866 216.447Z" fill="#5A97D6"/>
<path d="M311.445 215.911L307.024 215.375V227.299L311.445 227.828V219.483V215.911Z" fill="#5A97D6"/>
<path d="M298.183 226.242V214.304L293.762 213.768V217.34V225.713L298.183 226.242Z" fill="#5A97D6"/>
<path d="M251.77 212.252L256.19 212.787L278.554 215.497L293.762 217.34V213.768L289.341 213.232L280.952 212.216L280.505 212.162L280.039 212.105L257.079 209.288L256.19 209.179L251.77 208.643V212.252Z" fill="#5A97D6"/>
<path d="M311.445 219.483V227.828L313.145 227.363L316.439 222.829L320.193 220.577L320.267 220.552L311.445 219.483Z" fill="#93BAE6"/>
<path d="M256.19 207.432V209.179L257.079 209.288L360.074 221.795V159.089L256.19 146.5V182.554V207.432Z" fill="white"/>
<path d="M282.974 139.164L256.19 146.5L360.074 159.089L386.858 151.753L282.974 139.164Z" fill="#1D416F"/>
<path d="M430.644 231.61L418.026 235.066V230.214L430.644 226.758V231.61Z" fill="#1D416F"/>
<path d="M395.441 213.084V198.261V182.719V180.458L393.1 180.174L364.646 176.726L364.516 216.007L382.399 218.195L393.1 219.492L395.441 226.09V213.084Z" fill="white"/>
<path d="M395.441 198.261V213.084V226.09L408.512 227.665V203.015L401.976 200.638L395.441 198.261Z" fill="white"/>
<path d="M401.976 183.511L395.441 180.458V182.719L401.976 183.511Z" fill="white"/>
<path d="M417.543 172.555L391.43 169.39L386.858 170.643L364.646 176.726L393.1 180.174L395.441 180.458L422.225 173.122L417.543 172.555Z" fill="#1D416F"/>
<path d="M422.225 173.122L395.441 180.458L401.976 183.511L428.76 176.176L422.225 173.122Z" fill="#5A97D6"/>
<path d="M401.976 200.638L408.512 203.015C405.96 195.398 404.529 191.128 401.976 183.511L395.441 182.719V198.261L401.976 200.638Z" fill="#93BAE6"/>
<path d="M401.976 183.511C404.529 191.128 405.96 195.398 408.512 203.015L435.296 195.679L428.76 176.176L401.976 183.511Z" fill="#93BAE6"/>
<path d="M386.858 151.753L360.074 159.089V221.795L364.495 222.332L364.516 216.007L364.646 176.726L386.858 170.643V157.149V151.753Z" fill="#1D416F"/>
<path d="M364.495 222.34V234.174L368.956 234.708V226.453L373.417 226.993L377.32 227.466L384.464 228.332L389.852 228.985L394.953 237.736L404.381 238.945V232.064L410.943 232.849V229.43L408.512 227.665L395.441 226.09L393.1 219.492L382.399 218.195L364.516 216.007L364.495 222.332L364.495 222.34Z" fill="#5A97D6"/>
<path d="M410.943 239.73V232.849L404.381 232.064V238.945L410.943 239.73Z" fill="#93BAE6"/>
<path d="M410.943 232.849V239.73L413.809 238.945V232.064L410.943 232.849Z" fill="#93BAE6"/>
<path d="M437.727 232.394V225.513L434.861 226.298V233.179L437.727 232.394Z" fill="#93BAE6"/>
<path fill-rule="evenodd" clip-rule="evenodd" d="M437.727 222.094L410.943 229.43V232.849L413.809 232.064V238.945L434.861 233.179V226.298L437.727 225.513V222.094ZM430.644 231.61L418.026 235.066V230.214L430.644 226.758V231.61Z" fill="#5A97D6"/>
<path d="M408.512 227.665L410.943 229.43L437.727 222.094L435.296 220.329L433.427 220.841L410.381 227.153L408.512 227.665Z" fill="#5A97D6"/>
<path fill-rule="evenodd" clip-rule="evenodd" d="M435.296 195.679L408.512 203.015V227.665L410.381 227.153V224.256V221.36L433.427 215.048V217.945V220.841L435.296 220.329V195.679ZM410.381 206.641V207.987L413.536 207.123V205.777L410.381 206.641ZM433.427 200.325V201.671L430.272 202.535V201.189L433.427 200.325Z" fill="white"/>
<path d="M410.381 207.987V206.641L413.536 205.777V207.123L410.381 207.987Z" fill="#1D416F"/>
<path d="M433.427 201.671V200.325L430.272 201.189V202.535L433.427 201.671Z" fill="#1D416F"/>
<path d="M433.427 215.048L410.381 221.36V224.256L433.427 217.945V215.048Z" fill="#1D416F"/>
<path d="M410.381 227.153L433.427 220.841V217.945L410.381 224.256V227.153Z" fill="#1D416F"/>
<path d="M373.417 226.993L368.956 226.453V234.708L369.408 234.584L372.643 230.131L376.807 227.633L377.32 227.466L373.417 226.993Z" fill="#1D416F"/>
<path d="M311.445 215.911L315.866 216.447L338.229 219.157L339.715 219.337M311.445 215.911L307.024 215.375M311.445 215.911V219.483M364.495 222.34L360.074 221.804M364.495 222.34V234.174M364.495 222.34L364.495 222.332M364.495 222.34L364.646 176.726M360.074 221.804L355.229 221.217M360.074 221.804V221.795M355.229 221.217L351.232 220.732L346.812 220.197L342.52 219.677L340.627 219.447M355.229 221.217V224.789M251.77 208.643V212.252L256.19 212.787L278.554 215.497L293.762 217.34M251.77 208.643L256.19 209.179M251.77 208.643L256.19 207.432M251.77 208.643L257.079 209.288M256.19 209.179V207.432M256.19 209.179L257.079 209.288M256.19 207.432V182.554V146.5M280.952 212.224V212.216M339.715 219.339V219.337M340.627 219.466V219.447M280.952 212.216L280.505 212.162L280.039 212.105L257.079 209.288M280.952 212.216L289.341 213.232L293.762 213.768M339.715 219.337L340.18 219.393L340.627 219.447M307.024 215.375L304.819 215.108L298.183 214.304M307.024 215.375L298.183 214.304M307.024 215.375V227.299M298.183 214.304V226.242M298.183 214.304L293.762 213.768M395.441 198.261V213.084V226.09M395.441 198.261L401.976 200.638L408.512 203.015M395.441 198.261V182.719M395.441 226.09L408.512 227.665M395.441 226.09L393.1 219.492L382.399 218.195L364.516 216.007M364.495 234.174L355.229 233.066V224.789M364.495 234.174L368.956 234.708M307.024 227.299L298.183 226.242M307.024 227.299L311.445 227.828M298.183 226.242L293.762 225.713V217.34M311.445 227.828V219.483M311.445 227.828L313.145 227.363L316.439 222.829L320.193 220.577L320.267 220.552M293.762 213.768V217.34M311.445 219.483L320.267 220.552M355.229 224.789L345.644 223.628L323.28 220.918L322.491 220.822L320.267 220.552M256.19 146.5L282.974 139.164L386.858 151.753M256.19 146.5L360.074 159.089M257.079 209.288L360.074 221.795M364.495 222.332L360.074 221.795M364.495 222.332L364.516 216.007M360.074 159.089L386.858 151.753M360.074 159.089V221.795M386.858 151.753V157.149V170.643M364.646 176.726L386.858 170.643M364.646 176.726L393.1 180.174L395.441 180.458M364.646 176.726L364.516 216.007M386.858 170.643L391.43 169.39L417.543 172.555L422.225 173.122M408.512 203.015C405.96 195.398 404.529 191.128 401.976 183.511M408.512 203.015L435.296 195.679M408.512 203.015V227.665M395.441 180.458L422.225 173.122M395.441 180.458L401.976 183.511M395.441 180.458V182.719M422.225 173.122L428.76 176.176M401.976 183.511L428.76 176.176M401.976 183.511L395.441 182.719M435.296 195.679L428.76 176.176M435.296 195.679V220.329M410.943 239.73V229.43M410.943 239.73L413.809 238.945M410.943 239.73L404.381 238.945M410.943 239.73V232.849M437.727 232.394V222.094M437.727 232.394L434.861 233.179M437.727 232.394V225.513M410.943 229.43L408.512 227.665M410.943 229.43L437.727 222.094M410.943 229.43V232.849M408.512 227.665L410.381 227.153M435.296 220.329L437.727 222.094M435.296 220.329L433.427 220.841M437.727 222.094V225.513M404.381 238.945L394.953 237.736L389.852 228.985L384.464 228.332L377.32 227.466M404.381 238.945V232.064L410.943 232.849M413.809 238.945V232.064L410.943 232.849M413.809 238.945L434.861 233.179M437.727 225.513L434.861 226.298V233.179M410.381 227.153L433.427 220.841M410.381 227.153V224.256M433.427 220.841V217.945M410.381 224.256V221.36L433.427 215.048V217.945M410.381 224.256L433.427 217.945M368.956 234.708V226.453L373.417 226.993L377.32 227.466M368.956 234.708L369.408 234.584L372.643 230.131L376.807 227.633L377.32 227.466M410.381 207.987V206.641L413.536 205.777V207.123L410.381 207.987ZM418.026 235.066L430.644 231.61V226.758L418.026 230.214V235.066ZM433.427 201.671V200.325L430.272 201.189V202.535L433.427 201.671Z" stroke="#012750" stroke-width="0.5"/>
<path d="M281.876 192.084L288.381 192.873L294.886 193.661L297.349 192.986L299.812 192.312L304.739 190.962L314.592 188.264L324.445 185.565L329.371 184.216L331.835 183.541L334.298 182.866L230.216 170.254L190.805 181.048L197.31 181.837L203.815 182.625L210.32 183.413L216.825 184.202L223.33 184.99L229.835 185.778L236.34 186.566L242.845 187.355L249.35 188.143L255.855 188.931L262.36 189.719L268.866 190.508L275.371 191.296L278.623 191.69L281.876 192.084Z" fill="#1D416F"/>
<path d="M334.107 218.705L343.96 216.007L348.887 214.657L351.35 213.983L341.592 198.762L336.713 191.152L331.811 188.021L326.884 189.37L317.031 192.069L307.178 194.767L302.252 196.117L302.228 200.597L307.107 208.207L316.864 223.428L319.328 222.753L324.254 221.404L334.107 218.705Z" fill="#93BAE6"/>
<path d="M278.623 195.2V219.767L312.063 223.819L294.988 197.183L292.65 196.9L287.974 196.333L278.623 195.2Z" fill="#93BAE6"/>
<path d="M373.328 227.128L353.813 213.308L351.35 213.983L348.887 214.657L343.96 216.007L334.107 218.705L324.254 221.404L319.328 222.753L316.864 223.428L314.401 224.103L324.159 231.012L333.916 237.922L343.769 235.224L353.622 232.525L363.475 229.826L373.328 227.128Z" fill="white"/>
<path d="M333.916 261.006L353.622 255.608L373.328 250.211V244.44L333.916 255.235V261.006Z" fill="#1D416F"/>
<path d="M333.916 243.693V249.464V255.235L373.328 244.44V238.669V232.899L368.402 234.248L365.939 237.808L363.475 241.368L353.622 244.067L343.769 246.765L341.306 244.554L338.843 242.344L333.916 243.693Z" fill="white"/>
<path d="M343.769 246.765L353.622 244.067V238.296L343.769 240.994L338.843 242.344L341.306 244.554L343.769 246.765Z" fill="#1D416F"/>
<path d="M353.622 244.067L363.475 241.368L365.939 237.808L368.402 234.248L363.475 235.597L353.622 238.296V244.067Z" fill="#1D416F"/>
<path d="M353.622 238.296V232.525L343.769 235.224L341.306 238.784L338.843 242.344L343.769 240.994L353.622 238.296Z" fill="#1D416F"/>
<path d="M353.622 232.525V238.296L363.475 235.597L368.402 234.248L365.939 232.037L363.475 229.826L353.622 232.525Z" fill="#1D416F"/>
<path d="M333.916 237.922V243.693L338.843 242.344L341.306 238.784L343.769 235.224L333.916 237.922Z" fill="#93BAE6"/>
<path d="M373.328 232.899V227.128L363.475 229.826L365.939 232.037L368.402 234.248L373.328 232.899Z" fill="#93BAE6"/>
<path d="M333.916 243.693V237.922L324.159 231.012V236.783L333.916 243.693Z" fill="#93BAE6"/>
<path d="M294.886 193.661L314.401 224.103L316.864 223.428L307.107 208.207L302.228 200.597L302.252 196.117L307.178 194.767L317.031 192.069L326.884 189.37L331.811 188.021L336.713 191.152L341.592 198.762L351.35 213.983L353.813 213.308L344.055 198.087L339.177 190.477L336.737 186.672L334.298 182.866L331.835 183.541L329.371 184.216L324.445 185.565L314.592 188.264L304.739 190.962L299.812 192.312L297.349 192.986L294.886 193.661Z" fill="white"/>
<path fill-rule="evenodd" clip-rule="evenodd" d="M278.623 219.767V195.2L287.974 196.333L292.65 196.9L294.988 197.183L312.063 223.819L278.623 219.767Z" fill="#93BAE6"/>
<path d="M190.805 238.543V244.013L197.31 244.802V239.331L190.805 238.543Z" fill="#93BAE6"/>
<path d="M197.687 239.377V232.495L197.31 232.449L190.805 231.661L187.363 231.244V238.126L190.805 238.543L197.31 239.331L197.687 239.377Z" fill="#1D416F"/>
<path d="M305.79 246.054L312.525 248.242L316.688 253.971V261.052L312.525 266.781L305.79 268.97L299.055 266.781L294.893 261.052V255.891V253.971L295.21 253.534L299.055 248.242L305.79 246.054Z" fill="#1D416F"/>
<path d="M305.79 251.342L309.416 252.52L311.658 255.605V259.418L309.416 262.503L305.79 263.681L302.163 262.503L299.922 259.418V255.605L302.163 252.52L305.79 251.342Z" fill="white"/>
<path d="M299.055 248.242L305.79 246.054L307.161 245.231C306.256 245.157 305.414 245.156 304.63 245.218L303.462 245.598L299.055 248.242Z" fill="#012750"/>
<path d="M305.79 246.054L312.525 248.242L314.078 247.31C312.413 246.328 310.376 245.606 307.896 245.306C307.647 245.276 307.402 245.251 307.161 245.231L305.79 246.054Z" fill="#012750"/>
<path d="M312.525 248.242L316.688 253.971L319.077 252.537C318.015 250.58 316.414 248.689 314.078 247.31L312.525 248.242Z" fill="#012750"/>
<path d="M316.688 253.971V261.052L320.87 258.543C320.738 256.837 320.221 254.649 319.077 252.537L316.688 253.971Z" fill="#012750"/>
<path d="M316.688 261.052L312.525 266.781L316.932 264.137L320.882 258.701L320.88 258.672L320.876 258.624L320.87 258.543L316.688 261.052Z" fill="#012750"/>
<path d="M210.6 234.595L217.335 236.784L221.497 242.513V249.594L217.335 255.323L210.6 257.512L203.865 255.323L199.703 249.594V243.347V242.513L199.924 242.209L203.865 236.784L210.6 234.595Z" fill="#1D416F"/>
<path d="M210.6 239.884L214.226 241.062L216.467 244.147V247.96L214.226 251.045L210.6 252.223L206.973 251.045L204.732 247.96V244.147L206.973 241.062L210.6 239.884Z" fill="white"/>
<path d="M210.32 233.974C209.589 233.981 208.905 234.04 208.264 234.144L203.865 236.784L210.6 234.595L211.575 234.011C211.249 233.989 210.931 233.977 210.621 233.974C210.52 233.973 210.419 233.973 210.32 233.974Z" fill="#012750"/>
<path d="M216.825 235.162C215.58 234.665 214.171 234.298 212.58 234.106C212.237 234.064 211.901 234.032 211.575 234.011L210.6 234.595L217.335 236.784L218.607 236.02C218.054 235.704 217.461 235.416 216.825 235.162Z" fill="#012750"/>
<path d="M217.335 236.784L221.497 242.513L223.685 241.2C223.573 240.997 223.454 240.796 223.33 240.595C222.255 238.865 220.727 237.234 218.607 236.02L217.335 236.784Z" fill="#012750"/>
<path d="M221.497 242.513V249.594L225.54 247.169C225.383 245.452 224.844 243.282 223.685 241.2L221.497 242.513Z" fill="#012750"/>
<path d="M221.497 249.594L217.335 255.323L221.742 252.679L225.561 247.423C225.555 247.34 225.548 247.255 225.54 247.169L221.497 249.594Z" fill="#012750"/>
<path fill-rule="evenodd" clip-rule="evenodd" d="M190.805 181.048V231.661L197.31 232.449L197.687 232.495V239.377L197.31 239.331V244.802L199.57 245.076C199.57 244.551 199.611 243.967 199.703 243.347V242.513L199.924 242.209C200.448 240.023 201.616 237.618 203.815 235.975C204.986 235.099 206.45 234.44 208.264 234.144C208.905 234.04 209.589 233.981 210.32 233.974C210.419 233.973 210.52 233.973 210.621 233.974C210.931 233.977 211.249 233.989 211.575 234.011C211.901 234.032 212.237 234.064 212.58 234.106C214.171 234.298 215.58 234.665 216.825 235.162C217.461 235.416 218.054 235.704 218.607 236.02C220.727 237.234 222.255 238.865 223.33 240.595C223.454 240.796 223.573 240.997 223.685 241.2C224.844 243.282 225.383 245.452 225.54 247.169C225.548 247.255 225.555 247.34 225.561 247.423C225.581 247.706 225.59 247.976 225.59 248.229L229.835 248.743L230.216 248.789L236.531 249.554L242.845 250.32L249.35 251.108L255.23 251.82L262.36 252.684L268.866 253.473L275.371 254.261L278.623 254.655L281.251 254.974L281.876 255.049L288.381 255.838L294.886 256.626V256.276C294.886 256.151 294.888 256.023 294.893 255.891V253.971L295.21 253.534C296.036 249.939 298.596 245.699 304.63 245.218C305.414 245.156 306.256 245.157 307.161 245.231C307.402 245.251 307.647 245.276 307.896 245.306C310.376 245.606 312.413 246.328 314.078 247.31C316.414 248.689 318.015 250.58 319.077 252.537C320.221 254.649 320.738 256.837 320.87 258.543C320.873 258.57 320.875 258.597 320.876 258.624L320.88 258.672L320.882 258.701C320.898 258.956 320.906 259.199 320.906 259.429L333.916 261.006V255.235V249.464V243.693L324.159 236.783V231.012L314.401 224.103L294.886 193.661L288.381 192.873L281.876 192.084L278.623 191.69L275.371 191.296L268.866 190.508L262.36 189.719L255.855 188.931L249.35 188.143L242.845 187.355L236.34 186.566L229.835 185.778L223.33 184.99L216.825 184.202L210.32 183.413L203.815 182.625L197.31 181.837L190.805 181.048ZM278.623 219.767V195.2L287.974 196.333L292.65 196.9L294.988 197.183L312.063 223.819L278.623 219.767Z" fill="white"/>
<path d="M294.886 193.661L288.381 192.873L281.876 192.084L278.623 191.69L275.371 191.296L268.866 190.508L262.36 189.719L255.855 188.931L249.35 188.143L242.845 187.355L236.34 186.566L229.835 185.778L223.33 184.99L216.825 184.202L210.32 183.413L203.815 182.625L197.31 181.837L190.805 181.048M294.886 193.661L314.401 224.103M294.886 193.661L297.349 192.986L299.812 192.312L304.739 190.962L314.592 188.264L324.445 185.565L329.371 184.216L331.835 183.541L334.298 182.866M294.886 193.661L334.298 182.866M190.805 181.048V231.661M190.805 181.048L230.216 170.254L334.298 182.866M334.298 182.866L336.737 186.672L339.177 190.477L344.055 198.087L353.813 213.308M190.805 238.543V244.013L197.31 244.802M190.805 238.543L187.363 238.126V231.244L190.805 231.661M190.805 238.543L197.31 239.331M190.805 231.661L197.31 232.449L197.687 232.495V239.377L197.31 239.331M333.916 261.006L320.906 259.429C320.906 259.199 320.898 258.956 320.882 258.701M333.916 261.006L353.622 255.608L373.328 250.211V244.44M333.916 261.006V255.235M333.916 237.922V243.693M333.916 237.922L324.159 231.012M333.916 237.922L343.769 235.224M373.328 227.128L353.813 213.308M373.328 227.128V232.899M373.328 227.128L363.475 229.826M197.31 239.331V244.802M197.31 244.802L199.57 245.076C199.57 244.551 199.611 243.967 199.703 243.347M314.401 224.103L316.864 223.428M314.401 224.103L324.159 231.012M353.813 213.308L351.35 213.983M351.35 213.983L348.887 214.657L343.96 216.007L334.107 218.705L324.254 221.404L319.328 222.753L316.864 223.428M351.35 213.983L341.592 198.762L336.713 191.152L331.811 188.021L326.884 189.37L317.031 192.069L307.178 194.767L302.252 196.117L302.228 200.597L307.107 208.207L316.864 223.428M353.622 232.525V238.296M353.622 232.525L363.475 229.826M353.622 232.525L343.769 235.224M333.916 243.693V249.464V255.235M333.916 243.693L324.159 236.783V231.012M333.916 243.693L338.843 242.344M373.328 232.899V238.669V244.44M373.328 232.899L368.402 234.248M353.622 244.067L343.769 246.765L341.306 244.554M353.622 244.067L363.475 241.368L365.939 237.808M353.622 244.067V238.296M353.622 238.296L363.475 235.597L368.402 234.248M353.622 238.296L343.769 240.994L338.843 242.344M368.402 234.248L365.939 232.037M368.402 234.248L365.939 237.808M363.475 229.826L365.939 232.037M338.843 242.344L341.306 238.784M338.843 242.344L341.306 244.554M343.769 235.224L341.306 238.784M333.916 255.235L373.328 244.44M341.306 238.784L365.939 232.037M341.306 244.554L365.939 237.808M305.79 246.054L312.525 248.242M305.79 246.054L299.055 248.242M305.79 246.054L307.161 245.231M312.525 248.242L316.688 253.971M312.525 248.242L314.078 247.31M316.688 253.971V261.052M316.688 253.971L319.077 252.537M316.688 261.052L312.525 266.781M316.688 261.052L320.87 258.543M312.525 266.781L305.79 268.97L299.055 266.781L294.893 261.052V255.891M312.525 266.781L316.932 264.137L320.882 258.701M299.055 248.242L303.462 245.598L304.63 245.218M299.055 248.242L295.21 253.534M320.882 258.701L320.88 258.672M320.882 258.701C320.881 258.691 320.88 258.682 320.88 258.672M320.87 258.543C320.738 256.837 320.221 254.649 319.077 252.537M320.87 258.543C320.873 258.57 320.875 258.597 320.876 258.624M320.87 258.543L320.876 258.624M319.077 252.537C318.015 250.58 316.414 248.689 314.078 247.31M314.078 247.31C312.413 246.328 310.376 245.606 307.896 245.306C307.647 245.276 307.402 245.251 307.161 245.231M307.161 245.231C306.256 245.157 305.414 245.156 304.63 245.218M304.63 245.218C298.596 245.699 296.036 249.939 295.21 253.534M210.6 234.595L217.335 236.784M210.6 234.595L203.865 236.784M210.6 234.595L211.575 234.011M217.335 236.784L221.497 242.513M217.335 236.784L218.607 236.02M221.497 242.513V249.594M221.497 242.513L223.685 241.2M221.497 249.594L217.335 255.323M221.497 249.594L225.54 247.169M217.335 255.323L210.6 257.512L203.865 255.323L199.703 249.594V243.347M217.335 255.323L221.742 252.679L225.561 247.423M203.865 236.784L208.264 234.144M203.865 236.784L199.924 242.209M208.272 234.14L208.264 234.144M225.561 247.423C225.581 247.706 225.59 247.976 225.59 248.229L229.835 248.743L230.216 248.789L236.531 249.554L242.845 250.32L249.35 251.108L255.23 251.82L262.36 252.684L268.866 253.473L275.371 254.261L278.623 254.655L281.251 254.974L281.876 255.049L288.381 255.838L294.886 256.626V256.276C294.886 256.151 294.888 256.023 294.893 255.891M225.561 247.423C225.555 247.34 225.548 247.255 225.54 247.169M225.54 247.169C225.383 245.452 224.844 243.282 223.685 241.2M223.685 241.2C223.573 240.997 223.454 240.796 223.33 240.595C222.255 238.865 220.727 237.234 218.607 236.02M218.607 236.02C218.054 235.704 217.461 235.416 216.825 235.162C215.58 234.665 214.171 234.298 212.58 234.106C212.237 234.064 211.901 234.032 211.575 234.011M211.575 234.011C211.249 233.989 210.931 233.977 210.621 233.974C210.52 233.973 210.419 233.973 210.32 233.974C209.589 233.981 208.905 234.04 208.264 234.144M208.264 234.144C206.45 234.44 204.986 235.099 203.815 235.975C201.616 237.618 200.448 240.023 199.924 242.209M199.703 243.347V242.513L199.924 242.209M199.703 243.347C199.758 242.978 199.83 242.597 199.924 242.209M294.893 255.891V253.971L295.21 253.534M294.893 255.891C294.919 255.178 295.017 254.374 295.21 253.534M320.876 258.624C320.878 258.64 320.879 258.656 320.88 258.672M320.876 258.624L320.88 258.672M278.623 219.767V195.2L287.974 196.333L292.65 196.9L294.988 197.183L312.063 223.819L278.623 219.767ZM305.79 251.342L309.416 252.52L311.658 255.605V259.418L309.416 262.503L305.79 263.681L302.163 262.503L299.922 259.418V255.605L302.163 252.52L305.79 251.342ZM210.6 239.884L214.226 241.062L216.467 244.147V247.96L214.226 251.045L210.6 252.223L206.973 251.045L204.732 247.96V244.147L206.973 241.062L210.6 239.884Z" stroke="#012750" stroke-width="0.5"/>
<path d="M256.053 259.02V265.708L261.762 264.144L267.471 262.58L261.762 257.457L256.053 259.02Z" fill="#93BAE6"/>
<path d="M256.053 265.708V259.02L247.573 253.015L244.746 251.013L247.573 259.702L250.399 261.704L256.053 265.708Z" fill="#93BAE6"/>
<path d="M301.723 253.199V246.512L296.015 248.075L290.306 256.326L296.015 254.763L301.723 253.199Z" fill="#93BAE6"/>
<path d="M127.826 264.312V256.336L127.389 256.283L119.851 255.37L115.863 254.887V262.862L119.851 263.345L127.389 264.259L127.826 264.312Z" fill="#1D416F"/>
<path d="M290.306 249.639L278.888 252.766L267.471 255.893L264.616 256.675L267.471 259.237L290.306 252.983L293.16 248.857L290.306 249.639Z" fill="#1D416F"/>
<path d="M256.053 259.02L261.762 257.457L244.746 251.013L247.573 253.015L256.053 259.02Z" fill="#93BAE6"/>
<path fill-rule="evenodd" clip-rule="evenodd" d="M290.416 238.505L279.109 230.498L276.255 231.279L273.4 232.061L267.692 233.625L256.274 236.752L244.856 239.879L239.148 241.443L236.293 242.224L233.439 243.006L244.746 251.013L261.762 257.457L264.616 256.675L267.471 255.893L278.888 252.766L290.306 249.639L293.16 248.857L296.015 248.075L290.416 238.505Z" fill="white"/>
<path d="M301.723 246.512L290.416 238.505L296.015 248.075L301.723 246.512Z" fill="#93BAE6"/>
<path d="M225.901 267.577C237.962 269.038 240.977 279.096 240.977 283.942L251.056 285.164L256.053 282.426V279.082V272.395V265.708L250.399 261.704L247.573 259.702L244.746 251.013L233.439 243.006L181.198 236.682V277.108L188.21 277.954L191.979 278.41L195.024 278.779L195.748 278.867L203.287 279.781L210.825 280.694V280.289C210.825 275.442 213.84 266.115 225.901 267.577Z" fill="white"/>
<path d="M233.439 243.006L208.271 205.898L192.502 203.99L184.618 203.036L181.198 236.682L233.439 243.006Z" fill="white"/>
<path d="M208.271 205.898L233.439 243.006L236.293 242.224L239.148 241.443L244.856 239.879L256.274 236.752L267.692 233.625L273.4 232.061L276.255 231.279L279.109 230.498L246.226 195.503L208.271 205.898Z" fill="white"/>
<path d="M145.196 198.267L119.851 229.256L127.389 230.168L181.198 236.682L184.618 203.036L176.734 202.082L145.196 198.267Z" fill="white"/>
<path d="M183.151 187.871L145.196 198.267L176.734 202.082L184.618 203.036L192.502 203.99L208.271 205.898L246.226 195.503L183.151 187.871Z" fill="#1D416F"/>
<path fill-rule="evenodd" clip-rule="evenodd" d="M256.053 265.708V272.395V279.082L261.762 277.55V280.862L267.471 279.299L269.732 276.171L288.792 270.951L290.306 273.044L296.015 271.481V268.147L301.723 266.573V259.886V253.199L296.015 254.763L290.306 256.326L296.015 248.075L293.16 248.857L290.306 252.983L267.471 259.237L264.616 256.675L261.762 257.457L267.471 262.58L261.762 264.144L256.053 265.708ZM270.325 261.799L278.888 259.453L287.451 257.108L288.879 258.389L290.306 259.67L284.597 263.388L278.888 267.106L273.179 266.515L267.471 265.924L268.898 263.861L270.325 261.799Z" fill="white"/>
<path d="M278.888 276.171L267.471 279.299L261.762 280.862L256.053 282.426L251.056 285.164L296.727 272.655L301.723 269.917L296.015 271.481L290.306 273.044L278.888 276.171Z" fill="#1D416F"/>
<path d="M256.053 279.082V282.426L261.762 280.862V277.55L256.053 279.082Z" fill="#93BAE6"/>
<path d="M267.471 279.299L278.888 276.171L290.306 273.044L288.792 270.951L269.732 276.171L267.471 279.299Z" fill="#1D416F"/>
<path d="M301.723 269.917V266.573L296.015 268.147V271.481L301.723 269.917Z" fill="#93BAE6"/>
<path d="M270.325 261.799L278.888 259.453L287.451 257.108L288.879 258.389L290.306 259.67L284.597 263.388L278.888 267.106L273.179 266.515L267.471 265.924L268.898 263.861L270.325 261.799Z" fill="#1D416F"/>
<path fill-rule="evenodd" clip-rule="evenodd" d="M119.851 269.684V263.345L127.389 264.259L127.826 264.312V256.336L127.389 256.283L119.851 255.37V235.784L127.389 236.698V230.168L181.198 236.682V277.108L160.161 274.569C160.161 272.293 159.496 268.868 157.541 265.724C155.97 263.196 153.566 260.849 150.003 259.427C148.561 258.851 146.928 258.427 145.084 258.203C144.289 258.107 143.533 258.057 142.814 258.05C142.697 258.049 142.581 258.049 142.465 258.05C139.22 258.082 136.764 258.997 134.927 260.37C131.168 263.18 130.008 267.909 130.008 270.915L127.389 270.598L119.851 269.684Z" fill="white"/>
<path d="M119.851 229.256V235.784L127.389 236.698V230.168L119.851 229.256Z" fill="#93BAE6"/>
<path d="M208.271 205.898L233.439 243.006M208.271 205.898L192.502 203.99L184.618 203.036M208.271 205.898L246.226 195.503M119.851 263.345V269.684L127.389 270.598L130.008 270.915C130.008 267.909 131.168 263.18 134.927 260.37C136.764 258.997 139.22 258.082 142.465 258.05C142.581 258.049 142.697 258.049 142.814 258.05C143.533 258.057 144.289 258.107 145.084 258.203C146.928 258.427 148.561 258.851 150.003 259.427C153.566 260.849 155.97 263.196 157.541 265.724C159.496 268.868 160.161 272.293 160.161 274.569L181.198 277.108M119.851 263.345L115.863 262.862V254.887L119.851 255.37M119.851 263.345L127.389 264.259L127.826 264.312V256.336L127.389 256.283L119.851 255.37M119.851 255.37V235.784M256.053 259.02V265.708M256.053 259.02L261.762 257.457M256.053 259.02L247.573 253.015L244.746 251.013M301.723 246.512L279.109 230.498M301.723 246.512V253.199M301.723 246.512L296.015 248.075M301.723 246.512L290.416 238.505M233.439 243.006L236.293 242.224L239.148 241.443L244.856 239.879L256.274 236.752L267.692 233.625L273.4 232.061L276.255 231.279L279.109 230.498M233.439 243.006L244.746 251.013M233.439 243.006L181.198 236.682M279.109 230.498L246.226 195.503M279.109 230.498L290.416 238.505M246.226 195.503L183.151 187.871L145.196 198.267M256.053 265.708V272.395V279.082M256.053 265.708L261.762 264.144L267.471 262.58L261.762 257.457M256.053 265.708L250.399 261.704L247.573 259.702L244.746 251.013M301.723 253.199V259.886V266.573M301.723 253.199L296.015 254.763L290.306 256.326L296.015 248.075M244.746 251.013L261.762 257.457M256.053 279.082V282.426M256.053 279.082L261.762 277.55V280.862M301.723 266.573V269.917M301.723 266.573L296.015 268.147V271.481M119.851 229.256L145.196 198.267M119.851 229.256V235.784M119.851 229.256L127.389 230.168M184.618 203.036L181.198 236.682M184.618 203.036L176.734 202.082L145.196 198.267M181.198 277.108L188.21 277.954L191.979 278.41L195.024 278.779L195.748 278.867L203.287 279.781L210.825 280.694V280.289C210.825 275.442 213.84 266.115 225.901 267.577C237.962 269.038 240.977 279.096 240.977 283.942L251.056 285.164M181.198 277.108V236.682M261.762 257.457L264.616 256.675M296.015 248.075L293.16 248.857M296.015 248.075L290.416 238.505M264.616 256.675L267.471 255.893L278.888 252.766L290.306 249.639L293.16 248.857M264.616 256.675L267.471 259.237L290.306 252.983L293.16 248.857M256.053 282.426L251.056 285.164M256.053 282.426L261.762 280.862M301.723 269.917L296.727 272.655L251.056 285.164M301.723 269.917L296.015 271.481M267.471 279.299L278.888 276.171L290.306 273.044M267.471 279.299L269.732 276.171L288.792 270.951L290.306 273.044M267.471 279.299L261.762 280.862M290.306 273.044L296.015 271.481M261.762 280.878V280.862M296.015 271.486V271.481M267.471 265.924L290.306 259.67M267.471 265.924L268.898 263.861M267.471 265.924L273.179 266.515M290.306 259.67L288.879 258.389M290.306 259.67L284.597 263.388M181.198 236.682L127.389 230.168M261.762 280.862L296.015 271.481M119.851 235.784L127.389 236.698V230.168M268.898 263.861L270.325 261.799L278.888 259.453L287.451 257.108L288.879 258.389M268.898 263.861L288.879 258.389M273.179 266.515L278.888 267.106L284.597 263.388M273.179 266.515L284.597 263.388" stroke="#012750" stroke-width="0.5"/>
<path d="M223.855 268.446L231.659 270.982L236.482 277.62V285.826L231.659 292.465L223.855 295.001L216.05 292.465L211.227 285.826V277.62L216.05 270.982L223.855 268.446Z" fill="#1D416F"/>
<path d="M223.854 274.574L228.057 275.939L230.654 279.514V283.933L228.057 287.507L223.854 288.873L219.652 287.507L217.055 283.933V279.514L219.652 275.939L223.854 274.574Z" fill="white"/>
<path d="M216.05 270.982L223.855 268.446L225.443 267.493C224.395 267.407 223.418 267.406 222.51 267.478L221.157 267.917L216.05 270.982Z" fill="#012750"/>
<path d="M223.855 268.446L231.659 270.982L233.458 269.902C231.53 268.764 229.169 267.928 226.295 267.579C226.006 267.544 225.722 267.516 225.443 267.493L223.855 268.446Z" fill="#012750"/>
<path d="M231.659 270.982L236.482 277.62L239.251 275.959C238.021 273.691 236.166 271.5 233.458 269.902L231.659 270.982Z" fill="#012750"/>
<path d="M236.482 277.62V285.826L241.33 282.918C241.176 280.942 240.578 278.406 239.251 275.959L236.482 277.62Z" fill="#012750"/>
<path d="M236.482 285.826L231.659 292.465L236.766 289.401L241.343 283.102L241.33 282.918L236.482 285.826Z" fill="#012750"/>
<path d="M211.219 280.697V280.291M223.855 268.446L231.659 270.982M223.855 268.446L216.05 270.982M223.855 268.446L225.443 267.493M231.659 270.982L236.482 277.62M231.659 270.982L233.458 269.902M236.482 277.62V285.826M236.482 277.62L239.251 275.959M236.482 285.826L231.659 292.465M236.482 285.826L241.33 282.918M231.659 292.465L223.855 295.001L216.05 292.465L211.227 285.826V277.62L216.05 270.982M231.659 292.465L236.766 289.401L241.343 283.102M216.05 270.982L221.157 267.917L222.51 267.478C223.418 267.406 224.395 267.407 225.443 267.493M241.343 283.102C241.339 283.041 241.334 282.98 241.33 282.918M241.343 283.102L241.33 282.918M241.33 282.918C241.176 280.942 240.578 278.406 239.251 275.959M239.251 275.959C238.021 273.691 236.166 271.5 233.458 269.902M233.458 269.902C231.53 268.764 229.169 267.928 226.295 267.579C226.006 267.544 225.722 267.516 225.443 267.493M223.854 274.574L228.057 275.939L230.654 279.514V283.933L228.057 287.507L223.854 288.873L219.652 287.507L217.055 283.933V279.514L219.652 275.939L223.854 274.574Z" stroke="#012750" stroke-width="0.5"/>
<path d="M142.167 258.926L149.972 261.462L154.795 268.101V276.307L149.972 282.946L142.167 285.481L134.363 282.946L129.539 276.307V268.101L134.363 261.462L142.167 258.926Z" fill="#1D416F"/>
<path d="M142.167 265.054L146.369 266.42L148.966 269.994V274.413L146.369 277.988L142.167 279.353L137.965 277.988L135.367 274.413V269.994L137.965 266.42L142.167 265.054Z" fill="white"/>
<path d="M134.363 261.462L142.167 258.926L143.756 257.973C142.707 257.887 141.731 257.886 140.823 257.958L139.47 258.398L134.363 261.462Z" fill="#012750"/>
<path d="M142.167 258.926L149.972 261.462L151.771 260.383C149.842 259.245 147.482 258.408 144.607 258.06C144.318 258.025 144.034 257.996 143.756 257.973L142.167 258.926Z" fill="#012750"/>
<path d="M149.972 261.462L154.795 268.101L157.564 266.44C156.334 264.171 154.478 261.98 151.771 260.383L149.972 261.462Z" fill="#012750"/>
<path d="M154.795 268.101V276.307L159.642 273.398C159.488 271.422 158.89 268.886 157.564 266.44L154.795 268.101Z" fill="#012750"/>
<path d="M154.795 276.307L149.972 282.946L155.078 279.882L159.655 273.582L159.642 273.398L154.795 276.307Z" fill="#012750"/>
<path d="M129.531 271.177V270.772M142.167 258.926L149.972 261.462M142.167 258.926L134.363 261.462M142.167 258.926L143.756 257.973M149.972 261.462L154.795 268.101M149.972 261.462L151.771 260.383M154.795 268.101V276.307M154.795 268.101L157.564 266.44M154.795 276.307L149.972 282.946M154.795 276.307L159.642 273.398M149.972 282.946L142.167 285.481L134.363 282.946L129.539 276.307V268.101L134.363 261.462M149.972 282.946L155.078 279.882L159.655 273.582M134.363 261.462L139.47 258.398L140.823 257.958C141.731 257.886 142.707 257.887 143.756 257.973M159.655 273.582C159.651 273.521 159.647 273.46 159.642 273.398M159.655 273.582L159.642 273.398M159.642 273.398C159.488 271.422 158.89 268.886 157.564 266.44M157.564 266.44C156.334 264.171 154.478 261.98 151.771 260.383M151.771 260.383C149.842 259.245 147.482 258.408 144.607 258.06C144.318 258.025 144.034 257.996 143.756 257.973M142.167 265.054L146.369 266.42L148.966 269.994V274.413L146.369 277.988L142.167 279.353L137.965 277.988L135.367 274.413V269.994L137.965 266.42L142.167 265.054Z" stroke="#012750" stroke-width="0.5"/>
<path d="M253.817 233.334L263.006 230.818L267.601 229.559L269.898 228.93L272.195 228.301L258.962 214.218L252.346 207.177L249.038 203.657L241.135 201.395L219.777 207.244L217.715 212.236L220.247 215.969L225.311 223.435L235.438 238.368L237.736 237.739L240.033 237.11L244.628 235.851L253.817 233.334Z" fill="#93BAE6" stroke="#012750" stroke-width="0.5"/>
<path d="M149.355 202.828L130.031 226.455L176.804 232.117L179.411 206.465L173.4 205.737L149.355 202.828Z" fill="#93BAE6" stroke="#012750" stroke-width="0.5"/>
<path d="M206.747 209.874L226.076 238.374L185.953 233.517L188.58 207.676L194.635 208.408L206.747 209.874Z" fill="#93BAE6" stroke="#012750" stroke-width="0.5"/>
<circle cx="71" cy="120.004" r="39.5" stroke="#1D416F"/>
<circle cx="71" cy="120" r="49.5" stroke="#5A97D6"/>
<circle cx="71" cy="120" r="44.5" stroke="#245FA5"/>
<circle cx="201" cy="80" r="39.5" stroke="#1D416F"/>
<circle cx="201" cy="80" r="49.5" stroke="#5A97D6"/>
<circle cx="201" cy="79.9961" r="44.5" stroke="#245FA5"/>
<circle cx="475" cy="105.004" r="39.5" stroke="#1D416F"/>
<circle cx="475" cy="105" r="49.5" stroke="#5A97D6"/>
<circle cx="475" cy="105" r="44.5" stroke="#245FA5"/>
<circle cx="348" cy="65" r="39.5" stroke="#1D416F"/>
<circle cx="348" cy="65" r="49.5" stroke="#5A97D6"/>
<circle cx="348" cy="65" r="44.5" stroke="#245FA5"/>
<path d="M117.936 204.971H71.3047V174.919M200.318 160.93V133.5M443.837 179.583H474.924V160.93M347.984 138.651V119.5" stroke="#3274BA" stroke-dasharray="2.07 2.07"/>
<path d="M60.8975 132.136C67.4683 138.183 77.6969 137.758 83.7437 131.188L71.8462 120.239L59.9487 109.29C53.9019 115.861 54.3267 126.089 60.8975 132.136Z" stroke="#012750" stroke-width="2" stroke-linecap="round"/>
<path d="M71.8438 120.242L73 119" stroke="#012750" stroke-width="2" stroke-linecap="round"/>
<path d="M79.8557 111.372C81.8555 113.212 81.9848 116.325 80.1445 118.325C78.3041 120.325 75.1911 120.454 73.1913 118.613C71.1915 116.773 71.0622 113.66 72.9025 111.66C74.7429 109.66 77.8559 109.531 79.8557 111.372Z" stroke="#012750" stroke-width="2" stroke-linecap="round"/>
<path d="M84.035 119.86C86.5993 115.804 85.3905 110.438 81.3351 107.874C77.2796 105.309 71.9132 106.518 69.3489 110.574" stroke="#245FA5" stroke-width="2" stroke-linecap="round"/>
<path d="M87.6605 121.508C91.4398 115.531 89.6583 107.622 83.6813 103.843C77.7044 100.064 69.7955 101.845 66.0162 107.822" stroke="#245FA5" stroke-width="2" stroke-linecap="round"/>
<path d="M62.498 133.5L56.7305 144.002H75.711L71.498 136.5" stroke="#012750" stroke-width="2" stroke-linecap="round" stroke-linejoin="round"/>
<path d="M219.073 79C220.689 79 222.021 80.3166 221.801 81.9183C221.186 86.4095 219.162 90.6054 215.996 93.8492C212.151 97.7875 206.937 100 201.5 100C196.063 100 190.849 97.7875 187.004 93.8492C183.838 90.6054 181.814 86.4095 181.199 81.9183C180.979 80.3167 182.311 79 183.927 79L201.5 79H219.073Z" stroke="#012750" stroke-width="2" stroke-linejoin="round"/>
<path d="M207.274 92.1938C207.274 95.6965 204.435 98.536 200.932 98.536C197.429 98.536 194.59 95.6965 194.59 92.1938C194.59 88.6911 197.429 85.8516 200.932 85.8516C204.435 85.8516 207.274 88.6911 207.274 92.1938Z" stroke="#245FA5" stroke-width="2"/>
<path d="M178 73.9515C178 72.8737 178.874 72 179.951 72H223.049C224.126 72 225 72.8737 225 73.9515V77.0485C225 78.1263 224.126 79 223.049 79H179.951C178.874 79 178 78.1263 178 77.0485V73.9515Z" stroke="#012750" stroke-width="2"/>
<path d="M186 70.0485C186 71.1263 186.874 72 187.951 72H215.049C216.126 72 217 71.1263 217 70.0485V61.9515C217 60.8737 216.126 60 215.049 60H187.951C186.874 60 186 60.8737 186 61.9515V70.0485Z" stroke="#012750" stroke-width="2"/>
<path d="M349.074 49H337.037H331.018H325V57.25V69.625V75.8125V82H331.018H367.129H373.148V75.8125V65.5V57.25V49H367.129H361.111H349.074Z" stroke="#012750" stroke-width="2" stroke-linecap="round" stroke-linejoin="round"/>
<path d="M349.075 72.2611V65.4988M358.102 72.2611V62.5234M340.047 72.2611L340.098 68.4743" stroke="#3274BA" stroke-width="2" stroke-linecap="round" stroke-linejoin="round"/>
<path d="M491.168 111.949L495.632 115.978C496.319 116.598 496.872 117.352 497.259 118.193C497.645 119.034 497.856 119.945 497.88 120.87C497.903 121.795 497.738 122.716 497.395 123.575C497.052 124.435 496.537 125.216 495.883 125.87C495.228 126.524 494.447 127.039 493.588 127.382C492.728 127.726 491.808 127.891 490.883 127.867C489.957 127.844 489.047 127.632 488.205 127.246C487.364 126.86 486.611 126.306 485.99 125.619L479.938 118.921" stroke="#245FA5" stroke-width="2" stroke-miterlimit="10" stroke-linecap="square"/>
<path d="M473.513 99.5576L465.428 91.4715V88.7142L458.714 82L452 88.7142L458.714 95.4284H461.471L469.356 103.313" stroke="#245FA5" stroke-width="2" stroke-miterlimit="10"/>
<path d="M498.456 90.276L492.035 96.6959L484.313 88.9746L490.733 82.5536C489.248 82.1157 487.696 81.943 486.151 82.0433C483.298 82.2794 480.622 83.5196 478.598 85.5434C476.574 87.5673 475.333 90.2435 475.097 93.096C474.996 94.6435 475.169 96.1967 475.609 97.684L453.119 117.988C452.779 118.295 452.505 118.669 452.313 119.086C452.121 119.503 452.017 119.955 452.005 120.414C451.993 120.873 452.075 121.329 452.245 121.755C452.416 122.182 452.671 122.569 452.995 122.894L458.115 128.013C458.44 128.337 458.827 128.591 459.253 128.761C459.679 128.93 460.135 129.012 460.593 129C461.052 128.988 461.503 128.883 461.92 128.691C462.336 128.5 462.71 128.226 463.017 127.886L483.333 105.401C484.82 105.84 486.374 106.013 487.921 105.912C490.774 105.676 493.45 104.435 495.474 102.411C497.498 100.387 498.738 97.711 498.974 94.8585C499.072 93.3124 498.896 91.7612 498.456 90.276Z" stroke="#012750" stroke-width="2" stroke-miterlimit="10" stroke-linecap="square"/>
<defs>
<filter id="filter0_f_4093_10125" x="75.1949" y="264.644" width="183.274" height="44.5594" filterUnits="userSpaceOnUse" color-interpolation-filters="sRGB">
<feFlood flood-opacity="0" result="BackgroundImageFix"/>
<feBlend mode="normal" in="SourceGraphic" in2="BackgroundImageFix" result="shape"/>
<feGaussianBlur stdDeviation="2.10177" result="effect1_foregroundBlur_4093_10125"/>
</filter>
</defs>
</svg>
