<svg width="547" height="320" viewBox="0 0 547 320" fill="none" xmlns="http://www.w3.org/2000/svg">
<g opacity="0.2" filter="url(#filter0_f_4093_10477)">
<path d="M257.737 271.602L193.699 288.466L327.716 304.999L392.413 288.466L257.737 271.602Z" fill="#012750"/>
</g>
<path d="M228.768 203.136L217.914 99.3264L265.784 77.3398L410.784 215.104L228.768 203.136Z" fill="url(#paint0_linear_4093_10477)"/>
<path d="M363.728 280.296L367.094 281.39L369.174 284.251V287.789L367.094 290.651L363.728 291.744L360.362 290.651L358.281 287.789V284.251L360.362 281.39L363.728 280.296Z" fill="white"/>
<path fill-rule="evenodd" clip-rule="evenodd" d="M363.728 280.296L367.094 281.39L369.174 284.251V287.789L367.094 290.651L363.728 291.744L360.362 290.651L358.281 287.789V284.251L360.362 281.39L363.728 280.296Z" fill="white"/>
<path fill-rule="evenodd" clip-rule="evenodd" d="M369.979 277.421L363.728 275.39L357.477 277.421L353.613 282.735V289.305L357.477 294.62L363.728 296.65L369.979 294.62L373.843 289.305V282.735L369.979 277.421ZM367.094 281.39L363.728 280.296L360.362 281.39L358.281 284.251V287.789L360.362 290.651L363.728 291.744L367.094 290.651L369.174 287.789V284.251L367.094 281.39Z" fill="#1F4C85"/>
<path d="M357.477 277.421L363.728 275.39L367.819 272.938L361.567 274.968L357.477 277.421Z" fill="#012750"/>
<path d="M363.728 275.39L369.979 277.421L374.07 274.968L367.819 272.938L363.728 275.39Z" fill="#012750"/>
<path d="M369.979 277.421L373.843 282.735L377.933 280.282L374.07 274.968L369.979 277.421Z" fill="#012750"/>
<path d="M373.843 282.735V289.305L377.933 286.852V280.282L373.843 282.735Z" fill="#012750"/>
<path d="M373.843 289.305L369.979 294.62L374.07 292.167L377.933 286.852L373.843 289.305Z" fill="#012750"/>
<path d="M363.728 275.39L369.979 277.421M363.728 275.39L357.477 277.421M363.728 275.39L367.819 272.938M369.979 277.421L373.843 282.735M369.979 277.421L374.07 274.968M373.843 282.735V289.305M373.843 282.735L377.933 280.282M373.843 289.305L369.979 294.62M373.843 289.305L377.933 286.852M369.979 294.62L363.728 296.65L357.477 294.62L353.613 289.305V282.735L357.477 277.421M369.979 294.62L374.07 292.167L377.933 286.852M357.477 277.421L361.567 274.968L367.819 272.938M377.933 286.852V280.282M377.933 280.282L374.07 274.968M374.07 274.968L367.819 272.938M363.728 280.296L367.094 281.39L369.174 284.251V287.789L367.094 290.651L363.728 291.744L360.362 290.651L358.281 287.789V284.251L360.362 281.39L363.728 280.296Z" stroke="#012750" stroke-width="0.5"/>
<path d="M302.318 274.218L305.684 275.311L307.764 278.173V281.711L305.684 284.572L302.318 285.665L298.952 284.572L296.871 281.711V278.173L298.952 275.311L302.318 274.218Z" fill="white"/>
<path fill-rule="evenodd" clip-rule="evenodd" d="M302.318 274.218L305.684 275.311L307.764 278.173V281.711L305.684 284.572L302.318 285.665L298.952 284.572L296.871 281.711V278.173L298.952 275.311L302.318 274.218Z" fill="white"/>
<path fill-rule="evenodd" clip-rule="evenodd" d="M308.569 271.342L302.318 269.312L296.067 271.342L292.203 276.657V283.227L296.067 288.541L302.318 290.571L308.569 288.541L312.433 283.227V276.657L308.569 271.342ZM305.684 275.311L302.318 274.218L298.952 275.311L296.871 278.173V281.711L298.952 284.572L302.318 285.665L305.684 284.572L307.764 281.711V278.173L305.684 275.311Z" fill="#1F4C85"/>
<path d="M296.067 271.342L302.318 269.312L306.408 266.859L300.157 268.889L296.067 271.342Z" fill="#012750"/>
<path d="M302.318 269.312L308.569 271.342L312.66 268.889L306.408 266.859L302.318 269.312Z" fill="#012750"/>
<path d="M308.569 271.342L312.433 276.657L316.523 274.204L312.66 268.889L308.569 271.342Z" fill="#012750"/>
<path d="M312.433 276.657V283.227L316.523 280.774V274.204L312.433 276.657Z" fill="#012750"/>
<path d="M312.433 283.227L308.569 288.541L312.66 286.088L316.523 280.774L312.433 283.227Z" fill="#012750"/>
<path d="M302.318 269.312L308.569 271.342M302.318 269.312L296.067 271.342M302.318 269.312L306.408 266.859M308.569 271.342L312.433 276.657M308.569 271.342L312.66 268.889M312.433 276.657V283.227M312.433 276.657L316.523 274.204M312.433 283.227L308.569 288.541M312.433 283.227L316.523 280.774M308.569 288.541L302.318 290.571L296.067 288.541L292.203 283.227V276.657L296.067 271.342M308.569 288.541L312.66 286.088L316.523 280.774M296.067 271.342L300.157 268.889L306.408 266.859M316.523 280.774V274.204M316.523 274.204L312.66 268.889M312.66 268.889L306.408 266.859M302.318 274.218L305.684 275.311L307.764 278.173V281.711L305.684 284.572L302.318 285.665L298.952 284.572L296.871 281.711V278.173L298.952 275.311L302.318 274.218Z" stroke="#012750" stroke-width="0.5"/>
<path d="M236.654 266.007L240.02 267.1L242.1 269.962V273.5L240.02 276.361L236.654 277.455L233.288 276.361L231.207 273.5V269.962L233.288 267.1L236.654 266.007Z" fill="white"/>
<path fill-rule="evenodd" clip-rule="evenodd" d="M236.654 266.007L240.02 267.1L242.1 269.962V273.5L240.02 276.361L236.654 277.455L233.288 276.361L231.207 273.5V269.962L233.288 267.1L236.654 266.007Z" fill="white"/>
<path fill-rule="evenodd" clip-rule="evenodd" d="M242.905 263.131L236.654 261.101L230.403 263.131L226.539 268.446V275.016L230.403 280.33L236.654 282.361L242.905 280.33L246.769 275.016V268.446L242.905 263.131ZM240.02 267.1L236.654 266.007L233.288 267.1L231.207 269.962V273.5L233.288 276.361L236.654 277.455L240.02 276.361L242.1 273.5V269.962L240.02 267.1Z" fill="#1F4C85"/>
<path d="M230.403 263.131L236.654 261.101L240.744 258.648L234.493 260.678L230.403 263.131Z" fill="#012750"/>
<path d="M236.654 261.101L242.905 263.131L246.996 260.679L240.744 258.648L236.654 261.101Z" fill="#012750"/>
<path d="M242.905 263.131L246.769 268.446L250.859 265.993L246.996 260.679L242.905 263.131Z" fill="#012750"/>
<path d="M246.769 268.446V275.016L250.859 272.563V265.993L246.769 268.446Z" fill="#012750"/>
<path d="M246.769 275.016L242.905 280.33L246.996 277.878L250.859 272.563L246.769 275.016Z" fill="#012750"/>
<path d="M236.654 261.101L242.905 263.131M236.654 261.101L230.403 263.131M236.654 261.101L240.744 258.648M242.905 263.131L246.769 268.446M242.905 263.131L246.996 260.679M246.769 268.446V275.016M246.769 268.446L250.859 265.993M246.769 275.016L242.905 280.33M246.769 275.016L250.859 272.563M242.905 280.33L236.654 282.361L230.403 280.33L226.539 275.016V268.446L230.403 263.131M242.905 280.33L246.996 277.878L250.859 272.563M230.403 263.131L234.493 260.678L240.744 258.648M250.859 272.563V265.993M250.859 265.993L246.996 260.679M246.996 260.679L240.744 258.648M236.654 266.007L240.02 267.1L242.1 269.962V273.5L240.02 276.361L236.654 277.455L233.288 276.361L231.207 273.5V269.962L233.288 267.1L236.654 266.007Z" stroke="#012750" stroke-width="0.5"/>
<path d="M254.896 267.527L258.262 268.62L260.342 271.482V275.019L258.262 277.881L254.896 278.974L251.53 277.881L249.449 275.019V271.482L251.53 268.62L254.896 267.527Z" fill="white"/>
<path fill-rule="evenodd" clip-rule="evenodd" d="M254.896 267.527L258.262 268.62L260.342 271.482V275.019L258.262 277.881L254.896 278.974L251.53 277.881L249.449 275.019V271.482L251.53 268.62L254.896 267.527Z" fill="white"/>
<path fill-rule="evenodd" clip-rule="evenodd" d="M261.147 264.651L254.896 262.621L248.645 264.651L244.781 269.966V276.535L248.645 281.85L254.896 283.88L261.147 281.85L265.011 276.535V269.966L261.147 264.651ZM258.262 268.62L254.896 267.527L251.53 268.62L249.449 271.482V275.019L251.53 277.881L254.896 278.974L258.262 277.881L260.342 275.019V271.482L258.262 268.62Z" fill="#1F4C85"/>
<path d="M248.645 264.651L254.896 262.621L258.987 260.168L252.735 262.198L248.645 264.651Z" fill="#012750"/>
<path d="M254.896 262.621L261.147 264.651L265.238 262.198L258.987 260.168L254.896 262.621Z" fill="#012750"/>
<path d="M261.147 264.651L265.011 269.966L269.101 267.513L265.238 262.198L261.147 264.651Z" fill="#012750"/>
<path d="M265.011 269.966V276.535L269.101 274.082V267.513L265.011 269.966Z" fill="#012750"/>
<path d="M265.011 276.535L261.147 281.85L265.238 279.397L269.101 274.082L265.011 276.535Z" fill="#012750"/>
<path d="M254.896 262.621L261.147 264.651M254.896 262.621L248.645 264.651M254.896 262.621L258.987 260.168M261.147 264.651L265.011 269.966M261.147 264.651L265.238 262.198M265.011 269.966V276.535M265.011 269.966L269.101 267.513M265.011 276.535L261.147 281.85M265.011 276.535L269.101 274.082M261.147 281.85L254.896 283.88L248.645 281.85L244.781 276.535V269.966L248.645 264.651M261.147 281.85L265.238 279.397L269.101 274.082M248.645 264.651L252.735 262.198L258.987 260.168M269.101 274.082V267.513M269.101 267.513L265.238 262.198M265.238 262.198L258.987 260.168M254.896 267.527L258.262 268.62L260.342 271.482V275.019L258.262 277.881L254.896 278.974L251.53 277.881L249.449 275.019V271.482L251.53 268.62L254.896 267.527Z" stroke="#012750" stroke-width="0.5"/>
<path d="M325.728 276.652L329.094 277.745L331.174 280.607V284.144L329.094 287.006L325.728 288.099L322.362 287.006L320.281 284.144V280.607L322.362 277.745L325.728 276.652Z" fill="white"/>
<path fill-rule="evenodd" clip-rule="evenodd" d="M325.728 276.652L329.094 277.745L331.174 280.607V284.144L329.094 287.006L325.728 288.099L322.362 287.006L320.281 284.144V280.607L322.362 277.745L325.728 276.652Z" fill="white"/>
<path fill-rule="evenodd" clip-rule="evenodd" d="M331.979 273.776L325.728 271.746L319.477 273.776L315.613 279.091V285.66L319.477 290.975L325.728 293.005L331.979 290.975L335.843 285.66V279.091L331.979 273.776ZM329.094 277.745L325.728 276.652L322.362 277.745L320.281 280.607V284.144L322.362 287.006L325.728 288.099L329.094 287.006L331.174 284.144V280.607L329.094 277.745Z" fill="#1F4C85"/>
<path d="M319.477 273.776L325.728 271.746L329.819 269.293L323.567 271.323L319.477 273.776Z" fill="#012750"/>
<path d="M325.728 271.746L331.979 273.776L336.07 271.323L329.819 269.293L325.728 271.746Z" fill="#012750"/>
<path d="M331.979 273.776L335.843 279.091L339.933 276.638L336.07 271.323L331.979 273.776Z" fill="#012750"/>
<path d="M335.843 279.091V285.66L339.933 283.207V276.638L335.843 279.091Z" fill="#012750"/>
<path d="M335.843 285.66L331.979 290.975L336.07 288.522L339.933 283.207L335.843 285.66Z" fill="#012750"/>
<path d="M325.728 271.746L331.979 273.776M325.728 271.746L319.477 273.776M325.728 271.746L329.819 269.293M331.979 273.776L335.843 279.091M331.979 273.776L336.07 271.323M335.843 279.091V285.66M335.843 279.091L339.933 276.638M335.843 285.66L331.979 290.975M335.843 285.66L339.933 283.207M331.979 290.975L325.728 293.005L319.477 290.975L315.613 285.66V279.091L319.477 273.776M331.979 290.975L336.07 288.522L339.933 283.207M319.477 273.776L323.567 271.323L329.819 269.293M339.933 283.207V276.638M339.933 276.638L336.07 271.323M336.07 271.323L329.819 269.293M325.728 276.652L329.094 277.745L331.174 280.607V284.144L329.094 287.006L325.728 288.099L322.362 287.006L320.281 284.144V280.607L322.362 277.745L325.728 276.652Z" stroke="#012750" stroke-width="0.5"/>
<path d="M395.439 248.154L388.27 245.546L381.102 242.938V225.884L388.27 226.753L417.649 218.703L424.818 240.105L395.439 248.154Z" fill="#93BAE6"/>
<path d="M395.439 248.154L388.27 245.546L381.102 242.938V225.884L388.27 226.753M395.439 248.154C392.64 239.797 391.07 235.111 388.27 226.753M395.439 248.154L424.818 240.105L417.649 218.703L388.27 226.753" stroke="#012750" stroke-width="0.5"/>
<path d="M410.48 215.352L381.102 223.401L388.27 226.752L417.649 218.702L410.48 215.352Z" fill="#3274BA" stroke="#012750" stroke-width="0.5"/>
<path d="M347.159 282.344L336.995 281.128V272.046L326.482 270.771L301.952 267.798L301.087 267.693L298.647 267.397L298.565 267.423L294.448 269.895L290.835 274.87L288.97 275.381L284.121 274.801L274.423 273.64L269.574 273.06V263.872L252.893 261.85L228.363 258.876V254.916L229.338 255.036L342.31 268.76L347.159 269.349L347.182 262.41L366.797 264.811L378.534 266.233L381.102 273.473L395.439 275.202L397.49 274.64V271.461V268.283L422.767 261.357V264.535V267.714L424.818 267.152L427.484 269.088V272.841V280.391L424.341 281.253L401.249 287.58L398.106 288.441L390.908 287.58L380.567 286.253L374.972 276.65L369.061 275.933L361.226 274.983L360.663 275.166L356.096 277.908L352.548 282.794L352.052 282.93L347.159 282.344Z" fill="#93BAE6"/>
<path d="M288.97 262.304L293.819 262.892L318.349 265.865L319.978 266.063M288.97 262.304L284.121 261.716M288.97 262.304V266.224M347.159 269.358L342.31 268.77M347.159 269.358V282.344M347.159 269.358L347.159 269.349M342.31 268.77L336.995 268.126M342.31 268.77V268.76M336.995 268.126L332.612 267.594L327.762 267.007L323.056 266.436L320.979 266.184M336.995 268.126V272.046M228.363 254.916V253M228.363 254.916L229.338 255.036M228.363 254.916V258.876L252.893 261.85L269.574 263.872M255.523 258.258V258.249M319.978 266.065V266.063M320.979 266.205V266.184M255.523 258.249L255.033 258.19L254.522 258.128L229.338 255.036M255.523 258.249L264.725 259.365L269.574 259.952M319.978 266.063L320.489 266.125L320.979 266.184M284.121 261.716L281.703 261.423L274.423 260.54M284.121 261.716L274.423 260.54M284.121 261.716V274.801M274.423 260.54V273.64M274.423 260.54L269.574 259.952M347.159 282.344L336.995 281.128V272.046M347.159 282.344L352.052 282.93M284.121 274.801L274.423 273.64M284.121 274.801L288.97 275.381M274.423 273.64L269.574 273.06V263.872M288.97 275.381V266.224M288.97 275.381L290.835 274.87L294.448 269.895L298.565 267.423L298.647 267.397M269.574 259.952V263.872M288.97 266.224L298.647 267.397M336.995 272.046L326.482 270.771L301.952 267.798L301.087 267.693L298.647 267.397M229.338 255.036L342.31 268.76M347.159 269.349L342.31 268.76M347.159 269.349L347.182 262.41L366.797 264.811L378.534 266.233L381.102 273.473L395.439 275.202M398.106 288.441V277.138M398.106 288.441L401.249 287.58M398.106 288.441L390.908 287.58M398.106 288.441V280.89M427.484 280.391V269.088M427.484 280.391L424.341 281.253M427.484 280.391V272.841M398.106 277.138L395.439 275.202M398.106 277.138L427.484 269.088M398.106 277.138V280.89M395.439 275.202L397.49 274.64M427.484 269.088L424.818 267.152L422.767 267.714M427.484 269.088V272.841M390.908 287.58L380.567 286.253L374.972 276.65L369.061 275.933L361.226 274.983M390.908 287.58V280.029L398.106 280.89M401.249 287.58V280.029L398.106 280.89M401.249 287.58L424.341 281.253M427.484 272.841L424.341 273.702V281.253M397.49 274.64L422.767 267.714M397.49 274.64V271.461M422.767 267.714V264.535M397.49 271.461V268.283L422.767 261.357V264.535M397.49 271.461L422.767 264.535M352.052 282.93V273.871L356.945 274.464L361.226 274.983M352.052 282.93L352.548 282.794L356.096 277.908L360.663 275.166L361.226 274.983M405.875 283.323L419.715 279.531V274.206L405.875 277.998V283.323Z" stroke="#012750" stroke-width="0.5"/>
<path d="M390.906 287.578V280.028L398.103 280.889L401.247 280.028V287.578L398.103 288.44L390.906 287.578Z" fill="#5A97D6"/>
<path d="M427.482 272.839L424.339 273.701V281.251L427.482 280.39V272.839Z" fill="#5A97D6"/>
<path d="M422.765 267.713L397.488 274.639V271.46V268.281L422.765 261.355V264.534V267.713Z" fill="#5A97D6"/>
<path d="M419.713 279.53L405.873 283.322V277.997L419.713 274.205V279.53Z" fill="#5A97D6"/>
<path d="M398.103 288.44L401.247 287.578V280.028L398.103 280.889M398.103 288.44L390.906 287.578V280.028L398.103 280.889M398.103 288.44V280.889M397.488 271.46V274.639L422.765 267.713V264.534M397.488 271.46V268.281L422.765 261.355V264.534M397.488 271.46L422.765 264.534M427.482 280.39L424.339 281.251V273.701L427.482 272.839V280.39ZM405.873 283.322L419.713 279.53V274.205L405.873 277.997V283.322Z" stroke="#012750" stroke-width="0.5"/>
<path d="M228.363 253.003V254.919L229.338 255.039L342.31 268.763V199.955L228.363 186.141V225.703V253.003Z" fill="white"/>
<path d="M381.102 259.204V242.939V225.885V223.403L378.534 223.092L347.325 219.308L347.182 262.412L366.797 264.813L378.534 266.236L381.102 273.476V259.204Z" fill="white"/>
<path d="M381.102 242.939V259.204V273.476L395.439 275.204V248.155L388.271 245.547L381.102 242.939Z" fill="white"/>
<path d="M388.271 226.754L381.102 223.403V225.885L388.271 226.754Z" fill="white"/>
<path fill-rule="evenodd" clip-rule="evenodd" d="M424.818 240.106L395.439 248.155V275.204L397.49 274.642V271.464V268.285L422.767 261.359V264.538V267.716L424.818 267.155V240.106Z" fill="white"/>
<path d="M347.159 269.361L342.31 268.773M347.159 269.361L347.159 269.352M347.159 269.361L347.325 219.308M342.31 268.773L336.995 268.128L332.612 267.597L327.762 267.009L323.056 266.439L320.979 266.187M342.31 268.773V268.763M255.523 258.261V258.252M319.978 266.068V266.065M320.979 266.207V266.187M255.523 258.252L255.033 258.192L254.522 258.13L229.338 255.039M255.523 258.252L264.725 259.367L269.574 259.955L274.423 260.543M319.978 266.065L318.349 265.868L293.819 262.894L288.97 262.306L284.121 261.719M319.978 266.065L320.489 266.127L320.979 266.187M284.121 261.719L281.703 261.425L274.423 260.543M284.121 261.719L274.423 260.543M381.102 242.939V259.204V273.476M381.102 242.939L388.271 245.547L395.439 248.155M381.102 242.939V225.885M381.102 273.476L395.439 275.204M381.102 273.476L378.534 266.236L366.797 264.813L347.182 262.412M229.338 255.039L228.363 254.919V253.003V225.703V186.141L342.31 199.955V268.763M229.338 255.039L342.31 268.763M347.159 269.352L342.31 268.763M347.159 269.352L347.182 262.412M347.325 219.308L378.534 223.092L381.102 223.403M347.325 219.308L347.182 262.412M395.439 248.155C392.64 239.798 391.07 235.112 388.271 226.754M395.439 248.155L424.818 240.106V267.155L422.767 267.716V264.538V261.359L397.49 268.285V271.464V274.642L395.439 275.204M395.439 248.155V275.204M381.102 223.403L388.271 226.754M381.102 223.403V225.885M388.271 226.754L381.102 225.885" stroke="#012750" stroke-width="0.5"/>
<path fill-rule="evenodd" clip-rule="evenodd" d="M397.488 252.133V253.61L400.948 252.662V251.185L397.488 252.133ZM422.766 245.203V246.68L419.306 247.628V246.151L422.766 245.203Z" fill="#245FA5" stroke="#012750" stroke-width="0.5"/>
<path d="M347.158 269.358L342.309 268.77V268.76V199.952L371.687 191.902V197.824V212.63L347.324 219.306L347.181 262.41L347.158 269.349L347.158 269.358Z" fill="#3274BA"/>
<path d="M347.158 269.358L342.309 268.77V268.76M347.158 269.358L347.158 269.349M347.158 269.358L347.324 219.306M347.158 269.349L342.309 268.76M347.158 269.349L347.181 262.41L347.324 219.306M342.309 268.76V199.952L371.687 191.902V197.824V212.63L347.324 219.306" stroke="#012750" stroke-width="0.5"/>
<path d="M257.742 178.09L228.363 186.139L342.31 199.953L371.688 191.904L257.742 178.09Z" fill="#012750"/>
<path d="M405.345 214.73L376.703 211.258L371.688 212.632L347.325 219.307L378.534 223.091L381.102 223.402L410.48 215.352L405.345 214.73Z" fill="#012750"/>
<path d="M257.742 178.09L228.363 186.139L342.31 199.953L371.688 191.904L257.742 178.09Z" stroke="#012750" stroke-width="0.5"/>
<path d="M405.345 214.73L376.703 211.258L371.688 212.632L347.325 219.307L378.534 223.091L381.102 223.402L410.48 215.352L405.345 214.73Z" stroke="#012750" stroke-width="0.5"/>
<path fill-rule="evenodd" clip-rule="evenodd" d="M229.176 37.8495L228.057 35.9227L230.285 35.9168L261.481 35.8346L263.774 35.8286L266.003 35.8227L297.198 35.7405L299.427 35.7346L300.546 37.6614L316.215 64.6368L317.334 66.5636L315.145 66.5693L283.91 66.6517L281.682 66.6575L279.428 66.6635L248.193 66.7458L245.965 66.7517L244.845 64.8249L229.176 37.8495ZM302.246 44.4111L306.172 51.1549L310.098 57.8987L314.024 64.6425L310.12 64.6528L306.215 64.6631L302.311 64.6734L298.407 64.6837L294.503 64.694L290.599 64.7043L286.695 64.7146L282.791 64.7249L278.874 57.981L274.956 51.2372L271.039 44.4933L267.122 37.7495L271.022 37.7392L274.921 37.7289L278.821 37.7187L282.721 37.7084L286.621 37.6981L290.521 37.6878L294.42 37.6776L298.32 37.6673L302.246 44.4111ZM235.322 44.5875L231.405 37.8436L235.304 37.8334L239.204 37.8231L243.104 37.8128L247.004 37.8025L250.903 37.7922L254.803 37.782L258.703 37.7717L262.603 37.7614L266.529 44.5052L270.455 51.249L274.38 57.9929L278.306 64.7367L274.402 64.747L270.498 64.7573L266.594 64.7675L262.69 64.7778L258.786 64.7881L254.882 64.7984L250.978 64.8087L247.074 64.819L243.156 58.0752L239.239 51.3313L235.322 44.5875Z" fill="white"/>
<path d="M243.156 58.0752L247.074 64.819L250.978 64.8087L247.059 58.0649L243.156 58.0752Z" fill="#5A97D6"/>
<path d="M254.882 64.7984L250.962 58.0546L247.059 58.0649L250.978 64.8087L254.882 64.7984Z" fill="#5A97D6"/>
<path d="M262.69 64.7778L266.594 64.7675L262.671 58.0237L258.768 58.034L262.69 64.7778Z" fill="#5A97D6"/>
<path d="M254.882 64.7984L258.786 64.7881L254.865 58.0443L250.962 58.0546L254.882 64.7984Z" fill="#5A97D6"/>
<path d="M270.498 64.7573L266.574 58.0134L262.671 58.0237L266.594 64.7675L270.498 64.7573Z" fill="#5A97D6"/>
<path d="M270.498 64.7573L274.402 64.747L270.477 58.0031L266.574 58.0134L270.498 64.7573Z" fill="#5A97D6"/>
<path d="M274.402 64.747L278.306 64.7367L274.38 57.9929L270.477 58.0031L274.402 64.747Z" fill="#5A97D6"/>
<path d="M274.38 57.9929L270.455 51.249L266.553 51.2593L270.477 58.0031L274.38 57.9929Z" fill="#5A97D6"/>
<path d="M262.651 51.2696L266.574 58.0134L270.477 58.0031L266.553 51.2593L262.651 51.2696Z" fill="#5A97D6"/>
<path d="M258.749 51.2799L262.671 58.0237L266.574 58.0134L262.651 51.2696L258.749 51.2799Z" fill="#5A97D6"/>
<path d="M258.768 58.034L262.671 58.0237L258.749 51.2799L254.847 51.2902L258.768 58.034Z" fill="#5A97D6"/>
<path d="M250.945 51.3005L254.865 58.0443L258.768 58.034L254.847 51.2902L250.945 51.3005Z" fill="#5A97D6"/>
<path d="M247.043 51.3107L250.962 58.0546L254.865 58.0443L250.945 51.3005L247.043 51.3107Z" fill="#5A97D6"/>
<path d="M243.141 51.321L247.059 58.0649L250.962 58.0546L247.043 51.3107L243.141 51.321Z" fill="#5A97D6"/>
<path d="M239.239 51.3313L243.156 58.0752L247.059 58.0649L243.141 51.321L239.239 51.3313Z" fill="#5A97D6"/>
<path d="M235.322 44.5875L239.239 51.3313L243.141 51.321L239.223 44.5772L235.322 44.5875Z" fill="#5A97D6"/>
<path d="M231.405 37.8436L235.322 44.5875L239.223 44.5772L235.304 37.8334L231.405 37.8436Z" fill="#5A97D6"/>
<path d="M247.043 51.3107L243.124 44.5669L239.223 44.5772L243.141 51.321L247.043 51.3107Z" fill="#5A97D6"/>
<path d="M239.204 37.8231L235.304 37.8334L239.223 44.5772L243.124 44.5669L239.204 37.8231Z" fill="#5A97D6"/>
<path d="M250.945 51.3005L247.024 44.5566L243.124 44.5669L247.043 51.3107L250.945 51.3005Z" fill="#5A97D6"/>
<path d="M243.104 37.8128L239.204 37.8231L243.124 44.5669L247.024 44.5566L243.104 37.8128Z" fill="#5A97D6"/>
<path d="M254.847 51.2902L250.925 44.5463L247.024 44.5566L250.945 51.3005L254.847 51.2902Z" fill="#5A97D6"/>
<path d="M247.004 37.8025L243.104 37.8128L247.024 44.5566L250.925 44.5463L247.004 37.8025Z" fill="#5A97D6"/>
<path d="M258.749 51.2799L254.826 44.5361L250.925 44.5463L254.847 51.2902L258.749 51.2799Z" fill="#5A97D6"/>
<path d="M250.903 37.7922L247.004 37.8025L250.925 44.5463L254.826 44.5361L250.903 37.7922Z" fill="#5A97D6"/>
<path d="M262.651 51.2696L258.727 44.5258L254.826 44.5361L258.749 51.2799L262.651 51.2696Z" fill="#5A97D6"/>
<path d="M254.803 37.782L250.903 37.7922L254.826 44.5361L258.727 44.5258L254.803 37.782Z" fill="#5A97D6"/>
<path d="M266.553 51.2593L262.628 44.5155L258.727 44.5258L262.651 51.2696L266.553 51.2593Z" fill="#5A97D6"/>
<path d="M258.703 37.7717L254.803 37.782L258.727 44.5258L262.628 44.5155L258.703 37.7717Z" fill="#5A97D6"/>
<path d="M270.455 51.249L266.529 44.5052L262.628 44.5155L266.553 51.2593L270.455 51.249Z" fill="#5A97D6"/>
<path d="M262.603 37.7614L258.703 37.7717L262.628 44.5155L266.529 44.5052L262.603 37.7614Z" fill="#5A97D6"/>
<path d="M282.791 64.7249L286.695 64.7146L282.777 57.9707L278.874 57.981L282.791 64.7249Z" fill="#5A97D6"/>
<path d="M274.956 51.2372L278.874 57.981L282.777 57.9707L278.858 51.2269L274.956 51.2372Z" fill="#5A97D6"/>
<path d="M271.039 44.4933L274.956 51.2372L278.858 51.2269L274.94 44.4831L271.039 44.4933Z" fill="#5A97D6"/>
<path d="M271.022 37.7392L267.122 37.7495L271.039 44.4933L274.94 44.4831L271.022 37.7392Z" fill="#5A97D6"/>
<path d="M290.599 64.7043L286.68 57.9604L282.777 57.9707L286.695 64.7146L290.599 64.7043Z" fill="#5A97D6"/>
<path d="M290.599 64.7043L294.503 64.694L290.583 57.9502L286.68 57.9604L290.599 64.7043Z" fill="#5A97D6"/>
<path d="M278.858 51.2269L282.777 57.9707L286.68 57.9604L282.76 51.2166L278.858 51.2269Z" fill="#5A97D6"/>
<path d="M286.68 57.9604L290.583 57.9502L286.662 51.2063L282.76 51.2166L286.68 57.9604Z" fill="#5A97D6"/>
<path d="M274.94 44.4831L278.858 51.2269L282.76 51.2166L278.841 44.4728L274.94 44.4831Z" fill="#5A97D6"/>
<path d="M282.76 51.2166L286.662 51.2063L282.742 44.4625L278.841 44.4728L282.76 51.2166Z" fill="#5A97D6"/>
<path d="M274.921 37.7289L271.022 37.7392L274.94 44.4831L278.841 44.4728L274.921 37.7289Z" fill="#5A97D6"/>
<path d="M278.821 37.7187L274.921 37.7289L278.841 44.4728L282.742 44.4625L278.821 37.7187Z" fill="#5A97D6"/>
<path d="M286.643 44.4522L282.721 37.7084L278.821 37.7187L282.742 44.4625L286.643 44.4522Z" fill="#5A97D6"/>
<path d="M286.621 37.6981L282.721 37.7084L286.643 44.4522L290.543 44.4419L286.621 37.6981Z" fill="#5A97D6"/>
<path d="M294.444 44.4316L290.521 37.6878L286.621 37.6981L290.543 44.4419L294.444 44.4316Z" fill="#5A97D6"/>
<path d="M294.42 37.6776L290.521 37.6878L294.444 44.4316L298.345 44.4214L294.42 37.6776Z" fill="#5A97D6"/>
<path d="M302.246 44.4111L298.32 37.6673L294.42 37.6776L298.345 44.4214L302.246 44.4111Z" fill="#5A97D6"/>
<path d="M298.368 51.1755L302.27 51.1652L298.345 44.4214L294.444 44.4316L298.368 51.1755Z" fill="#5A97D6"/>
<path d="M290.543 44.4419L294.466 51.1858L298.368 51.1755L294.444 44.4316L290.543 44.4419Z" fill="#5A97D6"/>
<path d="M286.643 44.4522L290.564 51.196L294.466 51.1858L290.543 44.4419L286.643 44.4522Z" fill="#5A97D6"/>
<path d="M282.742 44.4625L286.662 51.2063L290.564 51.196L286.643 44.4522L282.742 44.4625Z" fill="#5A97D6"/>
<path d="M306.172 51.1549L302.246 44.4111L298.345 44.4214L302.27 51.1652L306.172 51.1549Z" fill="#5A97D6"/>
<path d="M310.098 57.8987L306.172 51.1549L302.27 51.1652L306.195 57.909L310.098 57.8987Z" fill="#5A97D6"/>
<path d="M314.024 64.6425L310.098 57.8987L306.195 57.909L310.12 64.6528L314.024 64.6425Z" fill="#5A97D6"/>
<path d="M306.215 64.6631L310.12 64.6528L306.195 57.909L302.292 57.9193L306.215 64.6631Z" fill="#5A97D6"/>
<path d="M302.27 51.1652L298.368 51.1755L302.292 57.9193L306.195 57.909L302.27 51.1652Z" fill="#5A97D6"/>
<path d="M298.368 51.1755L294.466 51.1858L298.389 57.9296L302.292 57.9193L298.368 51.1755Z" fill="#5A97D6"/>
<path d="M294.466 51.1858L290.564 51.196L294.486 57.9399L298.389 57.9296L294.466 51.1858Z" fill="#5A97D6"/>
<path d="M294.503 64.694L298.407 64.6837L294.486 57.9399L290.583 57.9502L294.503 64.694Z" fill="#5A97D6"/>
<path d="M298.407 64.6837L302.311 64.6734L298.389 57.9296L294.486 57.9399L298.407 64.6837Z" fill="#5A97D6"/>
<path d="M302.311 64.6734L306.215 64.6631L302.292 57.9193L298.389 57.9296L302.311 64.6734Z" fill="#5A97D6"/>
<path d="M286.662 51.2063L290.583 57.9502L294.486 57.9399L290.564 51.196L286.662 51.2063Z" fill="#5A97D6"/>
<path d="M258.786 64.7881L262.69 64.7778L258.768 58.034L254.865 58.0443L258.786 64.7881Z" fill="#5A97D6"/>
<path d="M229.176 37.8495L228.057 35.9227L225.897 39.753L243.805 70.582L245.965 66.7517L244.845 64.8249L229.176 37.8495Z" fill="white"/>
<path d="M248.193 66.7458L245.965 66.7517L243.805 70.582L315.174 70.3939L317.334 66.5636L315.145 66.5693L283.91 66.6517L281.682 66.6575L279.428 66.6635L248.193 66.7458Z" fill="white"/>
<path d="M245.965 66.7517L244.845 64.8249L229.176 37.8495L228.057 35.9227M245.965 66.7517L248.193 66.7458L279.428 66.6635L281.682 66.6575L283.91 66.6517L315.145 66.5693L317.334 66.5636M245.965 66.7517L243.805 70.582M228.057 35.9227L230.285 35.9168L261.481 35.8346L263.774 35.8286L266.003 35.8227L297.198 35.7405L299.427 35.7346L300.546 37.6614L316.215 64.6368L317.334 66.5636M228.057 35.9227L225.897 39.753L243.805 70.582M317.334 66.5636L315.174 70.3939L243.805 70.582M239.239 51.3313L235.322 44.5875M239.239 51.3313L243.156 58.0752M239.239 51.3313L243.141 51.321M306.172 51.1549L302.246 44.4111M306.172 51.1549L310.098 57.8987M306.172 51.1549L302.27 51.1652M302.246 44.4111L298.32 37.6673L294.42 37.6776M302.246 44.4111L298.345 44.4214M235.322 44.5875L231.405 37.8436L235.304 37.8334M235.322 44.5875L239.223 44.5772M243.156 58.0752L247.074 64.819L250.978 64.8087M243.156 58.0752L247.059 58.0649M310.098 57.8987L314.024 64.6425L310.12 64.6528M310.098 57.8987L306.195 57.909M298.407 64.6837L294.503 64.694M298.407 64.6837L302.311 64.6734M298.407 64.6837L294.486 57.9399M282.721 37.7084L278.821 37.7187M282.721 37.7084L286.621 37.6981M282.721 37.7084L286.643 44.4522M290.599 64.7043L286.695 64.7146M290.599 64.7043L294.503 64.694M290.599 64.7043L286.68 57.9604M274.921 37.7289L271.022 37.7392M274.921 37.7289L278.821 37.7187M274.921 37.7289L278.841 44.4728M286.695 64.7146L282.791 64.7249L278.874 57.981M286.695 64.7146L282.777 57.9707M271.022 37.7392L267.122 37.7495L271.039 44.4933M271.022 37.7392L274.94 44.4831M294.503 64.694L290.583 57.9502M278.821 37.7187L282.742 44.4625M306.215 64.6631L302.311 64.6734M306.215 64.6631L310.12 64.6528M306.215 64.6631L302.292 57.9193M290.521 37.6878L286.621 37.6981M290.521 37.6878L294.42 37.6776M290.521 37.6878L294.444 44.4316M302.311 64.6734L298.389 57.9296M286.621 37.6981L290.543 44.4419M310.12 64.6528L306.195 57.909M294.42 37.6776L298.345 44.4214M262.69 64.7778L258.786 64.7881M262.69 64.7778L266.594 64.7675M262.69 64.7778L258.768 58.034M247.004 37.8025L243.104 37.8128M247.004 37.8025L250.903 37.7922M247.004 37.8025L250.925 44.5463M254.882 64.7984L250.978 64.8087M254.882 64.7984L258.786 64.7881M254.882 64.7984L250.962 58.0546M239.204 37.8231L235.304 37.8334M239.204 37.8231L243.104 37.8128M239.204 37.8231L243.124 44.5669M250.978 64.8087L247.059 58.0649M235.304 37.8334L239.223 44.5772M258.786 64.7881L254.865 58.0443M243.104 37.8128L247.024 44.5566M270.498 64.7573L266.594 64.7675M270.498 64.7573L274.402 64.747M270.498 64.7573L266.574 58.0134M254.803 37.782L250.903 37.7922M254.803 37.782L258.703 37.7717M254.803 37.782L258.727 44.5258M266.594 64.7675L262.671 58.0237M250.903 37.7922L254.826 44.5361M274.402 64.747L278.306 64.7367L274.38 57.9929M274.402 64.747L270.477 58.0031M258.703 37.7717L262.603 37.7614L266.529 44.5052M258.703 37.7717L262.628 44.5155M274.38 57.9929L270.455 51.249M274.38 57.9929L270.477 58.0031M270.455 51.249L266.529 44.5052M270.455 51.249L266.553 51.2593M266.529 44.5052L262.628 44.5155M278.874 57.981L274.956 51.2372M278.874 57.981L282.777 57.9707M274.956 51.2372L271.039 44.4933M274.956 51.2372L278.858 51.2269M271.039 44.4933L274.94 44.4831M247.059 58.0649L250.962 58.0546M247.059 58.0649L243.141 51.321M250.962 58.0546L254.865 58.0443M250.962 58.0546L247.043 51.3107M254.865 58.0443L258.768 58.034M254.865 58.0443L250.945 51.3005M258.768 58.034L262.671 58.0237M258.768 58.034L254.847 51.2902M262.671 58.0237L266.574 58.0134M262.671 58.0237L258.749 51.2799M266.574 58.0134L270.477 58.0031M266.574 58.0134L262.651 51.2696M270.477 58.0031L266.553 51.2593M266.553 51.2593L262.651 51.2696M266.553 51.2593L262.628 44.5155M262.651 51.2696L258.749 51.2799M262.651 51.2696L258.727 44.5258M258.749 51.2799L254.847 51.2902M258.749 51.2799L254.826 44.5361M254.847 51.2902L250.945 51.3005M254.847 51.2902L250.925 44.5463M250.945 51.3005L247.043 51.3107M250.945 51.3005L247.024 44.5566M247.043 51.3107L243.141 51.321M247.043 51.3107L243.124 44.5669M243.141 51.321L239.223 44.5772M239.223 44.5772L243.124 44.5669M243.124 44.5669L247.024 44.5566M247.024 44.5566L250.925 44.5463M250.925 44.5463L254.826 44.5361M254.826 44.5361L258.727 44.5258M258.727 44.5258L262.628 44.5155M282.777 57.9707L278.858 51.2269M282.777 57.9707L286.68 57.9604M278.858 51.2269L274.94 44.4831M278.858 51.2269L282.76 51.2166M274.94 44.4831L278.841 44.4728M286.68 57.9604L290.583 57.9502M286.68 57.9604L282.76 51.2166M290.583 57.9502L286.662 51.2063M290.583 57.9502L294.486 57.9399M282.76 51.2166L286.662 51.2063M282.76 51.2166L278.841 44.4728M286.662 51.2063L282.742 44.4625M286.662 51.2063L290.564 51.196M278.841 44.4728L282.742 44.4625M282.742 44.4625L286.643 44.4522M286.643 44.4522L290.543 44.4419M286.643 44.4522L290.564 51.196M290.543 44.4419L294.444 44.4316M290.543 44.4419L294.466 51.1858M294.444 44.4316L298.345 44.4214M294.444 44.4316L298.368 51.1755M298.345 44.4214L302.27 51.1652M298.368 51.1755L302.27 51.1652M298.368 51.1755L294.466 51.1858M298.368 51.1755L302.292 57.9193M302.27 51.1652L306.195 57.909M294.466 51.1858L290.564 51.196M294.466 51.1858L298.389 57.9296M290.564 51.196L294.486 57.9399M306.195 57.909L302.292 57.9193M302.292 57.9193L298.389 57.9296M298.389 57.9296L294.486 57.9399" stroke="#012750" stroke-width="0.5"/>
<path d="M244.032 64.4694L243.326 65.7002L242.62 66.9311L235.985 66.9644L237.397 64.5027L244.032 64.4694Z" fill="#1F4C85"/>
<path d="M242.607 62.0152L243.32 63.2423L244.032 64.4694L237.397 64.5027L235.972 62.0485L242.607 62.0152Z" fill="#1F4C85"/>
<path d="M237.397 64.5027L235.985 66.9644L234.559 64.5102L235.972 62.0485L237.397 64.5027Z" fill="#1F4C85"/>
<path d="M231.128 42.5045L229.715 44.9662L223.073 44.9996L224.486 42.5379L231.128 42.5045Z" fill="#1F4C85"/>
<path d="M224.486 42.5379L223.073 44.9996L221.648 42.5454L223.06 40.0837L224.486 42.5379Z" fill="#1F4C85"/>
<path d="M229.702 40.0503L231.128 42.5045L224.486 42.5379L223.06 40.0837L229.702 40.0503Z" fill="#1F4C85"/>
<path d="M231.128 42.5045L229.702 40.0503L223.06 40.0837M231.128 42.5045L229.715 44.9662L223.073 44.9996M231.128 42.5045L224.486 42.5379M224.486 42.5379L223.073 44.9996M224.486 42.5379L223.06 40.0837M223.073 44.9996L221.648 42.5454L223.06 40.0837M244.032 64.4694L237.397 64.5027M244.032 64.4694L243.32 63.2423L242.607 62.0152L235.972 62.0485M244.032 64.4694L243.326 65.7002L242.62 66.9311L235.985 66.9644M237.397 64.5027L235.985 66.9644M237.397 64.5027L235.972 62.0485M235.985 66.9644L234.559 64.5102L235.972 62.0485" stroke="#012750" stroke-width="0.5"/>
<path d="M221.565 78.0353L224.791 81.2059L227.987 81.6758L225.494 79.2258L221.565 78.0353Z" fill="#1F4C85"/>
<path d="M222.591 72.8887L222.078 75.462L221.565 78.0353L225.494 79.2258L225.891 77.2374L226.287 75.249L222.591 72.8887Z" fill="#1F4C85"/>
<path d="M227.478 67.732L225.034 70.3104L222.591 72.8887L226.287 75.249L228.175 73.2567L230.063 71.2643L227.478 67.732Z" fill="#1F4C85"/>
<path d="M234.357 64.5348L230.917 66.1334L227.478 67.732L230.063 71.2643L232.721 70.0291L235.379 68.7938L234.357 64.5348Z" fill="#1F4C85"/>
<path d="M237.48 64.5266L234.357 64.5348L235.379 68.7938L237.792 68.7874L240.204 68.7811L240.602 64.5183L237.48 64.5266Z" fill="#1F4C85"/>
<path d="M243.828 67.6889L242.215 66.1036L240.602 64.5183L240.204 68.7811L241.451 70.0061L242.697 71.231L243.828 67.6889Z" fill="#1F4C85"/>
<path d="M242.801 72.8355L243.828 67.6889L242.697 71.231L241.904 75.2078L242.801 72.8355Z" fill="#1F4C85"/>
<path d="M211.685 49.8004L213.572 47.8081L215.46 45.8157L218.118 44.5805L220.776 43.3452L223.189 43.3388L225.602 43.3325L226.516 43.6573L227.536 41.8793L221.04 41.8965L214.544 41.9136L211.311 47.548L208.077 53.1824L208.494 53.1813L210.929 53.1749L210.982 52.908L211.685 49.8004Z" fill="#93BAE6"/>
<path d="M208.077 53.1824L211.311 47.548L214.544 41.9136L213.469 40.1963L212.574 41.7557L210.951 44.5852L210.236 45.8307L209.56 47.0079L208.504 48.8487L207.448 50.6895L207.003 51.4652L207.571 52.3728L208.077 53.1824Z" fill="#93BAE6"/>
<path d="M214.544 41.9136L221.04 41.8965L227.536 41.8793L227.105 41.1902L226.982 40.9945L226.462 40.1621L225.391 40.1649L223.843 40.169L221.21 40.1759L219.965 40.1792L218.827 40.1822L215.734 40.1904L213.469 40.1963L214.544 41.9136Z" fill="#93BAE6"/>
<path d="M227.478 67.732L230.917 66.1334L234.357 64.5348L222.748 44.5541L219.308 46.1527L215.868 47.7513L227.478 67.732Z" fill="white"/>
<path d="M222.591 72.8887L225.034 70.3104L227.478 67.732L215.868 47.7513L213.425 50.3297L210.982 52.908L222.591 72.8887Z" fill="white"/>
<path d="M221.565 78.0353L222.078 75.462L222.591 72.8887L210.982 52.908L210.929 53.1749L210.858 53.5289L209.956 58.0546L221.565 78.0353Z" fill="white"/>
<path d="M234.357 64.5348L237.48 64.5266L240.602 64.5183L228.993 44.5376L225.87 44.5459L222.748 44.5541L234.357 64.5348Z" fill="white"/>
<path d="M240.602 64.5183L242.215 66.1036L243.828 67.6889L232.218 47.7082L228.993 44.5376L240.602 64.5183Z" fill="white"/>
<path d="M222.748 44.5541L225.87 44.5459L228.993 44.5376L226.516 43.6573L225.602 43.3325L223.189 43.3388L220.776 43.3452L222.748 44.5541Z" fill="#1F4C85"/>
<path d="M215.868 47.7513L219.308 46.1527L222.748 44.5541L220.776 43.3452L218.118 44.5805L215.46 45.8157L215.868 47.7513Z" fill="#1F4C85"/>
<path d="M210.982 52.908L213.425 50.3297L215.868 47.7513L215.46 45.8157L213.572 47.8081L211.685 49.8004L210.982 52.908Z" fill="#1F4C85"/>
<path d="M206.333 16.5121L209.455 16.5039L212.578 16.4957L209.187 15.2905L206.774 15.2969L204.361 15.3032L206.333 16.5121Z" fill="#1F4C85"/>
<path d="M194.567 24.8661L197.01 22.2877L199.453 19.7093L199.045 17.7738L197.157 19.7661L195.27 21.7584L194.567 24.8661Z" fill="#1F4C85"/>
<path d="M205.15 49.9933L205.663 47.42L206.176 44.8468L194.567 24.8661L193.541 30.0126L205.15 49.9933Z" fill="white"/>
<path d="M206.176 44.8468L208.619 42.2684L211.063 39.69L199.453 19.7093L197.01 22.2877L194.567 24.8661L206.176 44.8468Z" fill="white"/>
<path d="M211.063 39.69L214.502 38.0914L217.942 36.4928L206.333 16.5121L202.833 18.1387L201.216 18.89L199.453 19.7093L211.063 39.69Z" fill="white"/>
<path d="M217.942 36.4928L221.065 36.4846L224.187 36.4764L212.578 16.4957L209.455 16.5039L206.333 16.5121L217.942 36.4928Z" fill="white"/>
<path d="M224.187 36.4764L225.8 38.0617L227.413 39.6469L215.803 19.6663L212.578 16.4957L224.187 36.4764Z" fill="white"/>
<path d="M227.413 39.6469L225.8 38.0617L224.187 36.4764L223.843 40.169L225.391 40.1649L226.462 40.1621L226.982 40.9945L227.413 39.6469Z" fill="#1F4C85"/>
<path d="M221.065 36.4846L217.942 36.4928L218.827 40.1822L219.965 40.1792L221.21 40.1759L223.843 40.169L224.187 36.4764L221.065 36.4846Z" fill="#1F4C85"/>
<path d="M217.942 36.4928L214.502 38.0914L211.063 39.69L212.574 41.7557L213.469 40.1963L215.734 40.1904L218.827 40.1822L217.942 36.4928Z" fill="#1F4C85"/>
<path d="M211.063 39.69L208.619 42.2684L206.176 44.8468L209.56 47.0079L210.236 45.8307L210.951 44.5852L212.574 41.7557L211.063 39.69Z" fill="#1F4C85"/>
<path d="M206.176 44.8468L205.663 47.42L205.15 49.9933L207.448 50.6895L208.504 48.8487L209.56 47.0079L206.176 44.8468Z" fill="#1F4C85"/>
<path d="M205.15 49.9933L207.571 52.3728L207.003 51.4652L207.448 50.6895L205.15 49.9933Z" fill="#1F4C85"/>
<path d="M210.858 53.5289L210.929 53.1749L208.494 53.1813L210.858 53.5289Z" fill="#1F4C85"/>
<path d="M206.333 16.5121L204.361 15.3032L201.734 16.5243L200.244 17.2165L199.045 17.7738L199.453 19.7093L201.216 18.89L202.833 18.1387L206.333 16.5121Z" fill="#1F4C85"/>
<path d="M222.591 72.8887L226.287 75.249M222.591 72.8887L210.982 52.908M222.591 72.8887L225.034 70.3104M222.591 72.8887L222.078 75.462M227.478 67.732L230.063 71.2643M227.478 67.732L215.868 47.7513M227.478 67.732L230.917 66.1334M227.478 67.732L225.034 70.3104M234.357 64.5348L237.48 64.5266M234.357 64.5348L235.379 68.7938M234.357 64.5348L222.748 44.5541M234.357 64.5348L230.917 66.1334M240.602 64.5183L237.48 64.5266M240.602 64.5183L240.204 68.7811M240.602 64.5183L228.993 44.5376M240.602 64.5183L242.215 66.1036M243.828 67.6889L242.801 72.8355L241.904 75.2078M243.828 67.6889L242.697 71.231M243.828 67.6889L232.218 47.7082L228.993 44.5376M243.828 67.6889L242.215 66.1036M221.565 78.0353L224.791 81.2059L227.987 81.6758M221.565 78.0353L225.494 79.2258M221.565 78.0353L209.956 58.0546L210.858 53.5289M221.565 78.0353L222.078 75.462M237.48 64.5266L237.792 68.7874M232.696 72.8621L248.373 99.8509M226.287 75.249L241.904 75.2078M226.287 75.249L228.175 73.2567M226.287 75.249L225.891 77.2374M230.063 71.2643L232.721 70.0291M230.063 71.2643L228.175 73.2567M235.379 68.7938L237.792 68.7874M235.379 68.7938L232.721 70.0291M240.204 68.7811L237.792 68.7874M240.204 68.7811L241.451 70.0061M242.697 71.231L241.904 75.2078M242.697 71.231L241.451 70.0061M241.904 75.2078L238.128 79.1925L232.812 81.663L230.399 81.6694M227.987 81.6758L225.494 79.2258M227.987 81.6758L230.399 81.6694M225.494 79.2258L225.891 77.2374M237.792 68.7874L230.399 81.6694M210.982 52.908L211.685 49.8004L213.572 47.8081M210.982 52.908L210.929 53.1749M210.982 52.908L213.425 50.3297M215.868 47.7513L215.46 45.8157M215.868 47.7513L213.425 50.3297M215.868 47.7513L219.308 46.1527M222.748 44.5541L225.87 44.5459M222.748 44.5541L220.776 43.3452M222.748 44.5541L219.308 46.1527M228.993 44.5376L225.87 44.5459M228.993 44.5376L226.516 43.6573M225.87 44.5459L223.189 43.3388M215.46 45.8157L213.572 47.8081M215.46 45.8157L218.118 44.5805M220.776 43.3452L223.189 43.3388M220.776 43.3452L218.118 44.5805M223.189 43.3388L225.602 43.3325L226.516 43.6573M208.077 53.1824L211.311 47.548L214.544 41.9136M208.077 53.1824L207.571 52.3728M208.077 53.1824L208.494 53.1813M214.544 41.9136L221.04 41.8965L227.536 41.8793M214.544 41.9136L213.469 40.1963M227.536 41.8793L226.516 43.6573M227.536 41.8793L227.105 41.1902M213.469 40.1963L212.574 41.7557M213.469 40.1963L215.734 40.1904M210.929 53.1749L210.858 53.5289M210.929 53.1749L208.494 53.1813M206.176 44.8468L194.567 24.8661M206.176 44.8468L209.56 47.0079M206.176 44.8468L205.663 47.42M206.176 44.8468L208.619 42.2684M211.063 39.69L199.453 19.7093M211.063 39.69L212.574 41.7557M211.063 39.69L208.619 42.2684M211.063 39.69L214.502 38.0914M217.942 36.4928L221.065 36.4846M217.942 36.4928L206.333 16.5121M217.942 36.4928L218.827 40.1822M217.942 36.4928L214.502 38.0914M224.187 36.4764L221.065 36.4846M224.187 36.4764L212.578 16.4957M224.187 36.4764L223.843 40.169M224.187 36.4764L225.8 38.0617M227.413 39.6469L215.803 19.6662L212.578 16.4957M227.413 39.6469L227.105 41.1902M227.413 39.6469L226.982 40.9945M227.413 39.6469L225.8 38.0617M205.15 49.9933L193.541 30.0126L194.567 24.8661M205.15 49.9933L207.571 52.3728M205.15 49.9933L207.448 50.6895M205.15 49.9933L205.663 47.42M221.065 36.4846L221.21 40.1759M194.567 24.8661L195.27 21.7584L197.157 19.7661M194.567 24.8661L197.01 22.2877M199.453 19.7093L199.045 17.7738M199.453 19.7093L201.216 18.89L202.833 18.1387M199.453 19.7093L197.01 22.2877M206.333 16.5121L209.455 16.5039M206.333 16.5121L204.361 15.3032M206.333 16.5121L202.833 18.1387M212.578 16.4957L209.455 16.5039M212.578 16.4957L209.187 15.2905L206.774 15.2969M209.455 16.5039L206.774 15.2969M199.045 17.7738L200.244 17.2165L201.734 16.5242M199.045 17.7738L197.157 19.7661M204.361 15.3032L206.774 15.2969M204.361 15.3032L201.734 16.5242M207.571 52.3728L207.003 51.4652L207.448 50.6895M227.105 41.1902L226.982 40.9945M226.982 40.9945L226.462 40.1621L225.391 40.1649M210.858 53.5289L208.494 53.1813M223.843 40.169L221.21 40.1759M223.843 40.169L225.391 40.1649M218.827 40.1822L219.965 40.1792L221.21 40.1759M218.827 40.1822L215.734 40.1904M212.574 41.7557L210.951 44.5852M209.56 47.0079L210.236 45.8307L210.951 44.5852M209.56 47.0079L208.504 48.8487M207.448 50.6895L208.504 48.8487M230.917 66.1334L232.721 70.0291M225.034 70.3104L228.175 73.2567M222.078 75.462L225.891 77.2374M242.215 66.1036L241.451 70.0061M213.425 50.3297L213.572 47.8081M219.308 46.1527L218.118 44.5805M205.663 47.42L208.504 48.8487M208.619 42.2684L210.951 44.5852M214.502 38.0914L215.734 40.1904M225.8 38.0617L225.391 40.1649M197.01 22.2877L197.157 19.7661M202.833 18.1387L201.734 16.5242" stroke="#012750" stroke-width="0.5"/>
<path d="M219.95 88.3607L219.016 93.0475L217.76 99.3453L224.644 106.113L231.309 106.095L237.974 106.077L252.657 99.2534L263.086 88.247L265.277 77.2623L258.392 70.4951L255.003 70.504L251.728 70.5126L247.696 70.5233L245.063 70.5302L240.025 72.8713L236.012 74.7364L233.532 75.889L230.379 77.3543L230.002 77.7528L226.826 81.1041L223.156 84.9779L219.95 88.3607Z" fill="#93BAE6"/>
<path d="M247.355 68.517L252.967 68.5022L258.392 70.4951L255.003 70.504L251.728 70.5126L247.696 70.5233L245.063 70.5302L241.744 68.5318L247.355 68.517Z" fill="white"/>
<path d="M241.139 67.7614L244.876 67.7516L252.967 68.5022L247.355 68.517L241.744 68.5318L237.401 67.7713L241.139 67.7614Z" fill="white"/>
<path d="M229.381 74.2773L241.744 68.5318L245.063 70.5302L240.025 72.8713L236.012 74.7364L233.532 75.889L230.379 77.3543L229.381 74.2773Z" fill="white"/>
<path d="M229.167 71.5981L237.401 67.7713L241.744 68.5318L229.381 74.2773L229.167 71.5981Z" fill="white"/>
<path d="M220.601 83.544L229.381 74.2773L230.379 77.3543L230.002 77.7528L226.826 81.1041L223.156 84.9779L219.95 88.3607L220.601 83.544Z" fill="white"/>
<path d="M223.319 77.7704L229.167 71.5981L229.381 74.2773L220.601 83.544L223.319 77.7704Z" fill="white"/>
<path d="M218.756 92.7925L220.601 83.544L219.95 88.3607L219.016 93.0475L217.76 99.3453L218.756 92.7925Z" fill="white"/>
<path d="M225.951 87.7254L229.688 87.7156L233.426 87.7057M225.951 87.7254L223.156 84.9779M225.951 87.7254L224.553 98.4901M225.951 87.7254L235.414 77.7385M233.426 87.7057L241.66 83.8789M233.426 87.7057L235.775 98.4605M233.426 87.7057L235.414 77.7385M241.66 83.8789L247.509 77.7066M241.66 83.8789L248.138 92.7151M241.66 83.8789L235.414 77.7385M247.509 77.7066L248.737 71.5465M247.509 77.7066L235.414 77.7385M247.509 77.7066L252.213 80.5775L256.918 83.4483M248.737 71.5465L247.696 70.5233M248.737 71.5465L258.763 74.1998M248.737 71.5465L235.414 77.7385M237.401 67.7713L229.167 71.5981M237.401 67.7713L241.139 67.7614L244.876 67.7516L252.967 68.5022M237.401 67.7713L241.744 68.5318M229.167 71.5981L223.319 77.7704L220.601 83.544M229.167 71.5981L229.381 74.2773M235.414 77.7385L226.826 81.1041M235.414 77.7385L230.002 77.7528M235.414 77.7385L233.532 75.889M235.414 77.7385L236.012 74.7364M235.414 77.7385L240.025 72.8713M220.601 83.544L218.756 92.7925L217.76 99.3453M220.601 83.544L229.381 74.2773M220.601 83.544L219.95 88.3607M224.553 98.4901L230.164 98.4753L235.775 98.4605M224.553 98.4901L219.016 93.0475M224.553 98.4901L224.644 106.113M235.775 98.4605L248.138 92.7151M235.775 98.4605L237.974 106.077M248.138 92.7151L256.918 83.4483M248.138 92.7151L252.657 99.2534M256.918 83.4483L258.763 74.1998M256.918 83.4483L263.086 88.247M258.763 74.1998L255.003 70.504M258.763 74.1998L265.277 77.2623M252.967 68.5022L247.355 68.517L241.744 68.5318M252.967 68.5022L258.392 70.4951M241.744 68.5318L229.381 74.2773M241.744 68.5318L245.063 70.5302M229.381 74.2773L230.379 77.3543M219.95 88.3607L223.156 84.9779M219.95 88.3607L219.016 93.0475M217.76 99.3453L224.644 106.113M217.76 99.3453L219.016 93.0475M224.644 106.113L231.309 106.095L237.974 106.077M237.974 106.077L252.657 99.2534M252.657 99.2534L263.086 88.247M263.086 88.247L265.277 77.2623M265.277 77.2623L258.392 70.4951M258.392 70.4951L255.003 70.504M245.063 70.5302L247.696 70.5233M245.063 70.5302L240.025 72.8713M230.379 77.3543L230.002 77.7528M230.379 77.3543L233.532 75.889M223.156 84.9779L226.826 81.1041M247.696 70.5233L251.728 70.5126L255.003 70.504M226.826 81.1041L230.002 77.7528M233.532 75.889L236.012 74.7364M236.012 74.7364L240.025 72.8713" stroke="#012750" stroke-width="0.5"/>
<path d="M242.458 90.8005L241.99 91.294L241.892 91.7865L242.201 92.0899L242.499 92.0891L242.798 92.0883L243.457 91.7824L243.924 91.2889L244.022 90.7964L243.714 90.493L243.415 90.4938L243.116 90.4945L242.458 90.8005Z" fill="#1F4C85"/>
<path d="M234.151 77.7989L234.053 78.2914L241.892 91.7865L241.99 91.294L234.151 77.7989Z" fill="#1F4C85"/>
<path d="M234.619 77.3054L234.151 77.7989L241.99 91.294L242.458 90.8005L234.619 77.3054Z" fill="#1F4C85"/>
<path d="M235.277 76.9995L234.619 77.3054L242.458 90.8005L243.116 90.4945L235.277 76.9995Z" fill="#1F4C85"/>
<path d="M235.576 76.9987L235.277 76.9995L243.116 90.4945L243.415 90.4938L243.714 90.493L235.875 76.9979L235.576 76.9987Z" fill="#1F4C85"/>
<path d="M236.183 77.3013L235.875 76.9979L243.714 90.493L244.022 90.7964L236.183 77.3013Z" fill="#1F4C85"/>
<path d="M234.151 77.7989L234.619 77.3054M234.151 77.7989L234.053 78.2914L241.892 91.7865M234.151 77.7989L241.99 91.294M234.619 77.3054L235.277 76.9995M234.619 77.3054L242.458 90.8005M235.277 76.9995L235.576 76.9987L235.875 76.9979M235.277 76.9995L243.116 90.4945M235.875 76.9979L236.183 77.3013L244.022 90.7964M235.875 76.9979L243.714 90.493M241.99 91.294L242.458 90.8005M241.99 91.294L241.892 91.7865M241.99 91.294L243.924 91.2889M242.458 90.8005L243.116 90.4945M243.116 90.4945L243.415 90.4938M243.714 90.493L244.022 90.7964M243.714 90.493L243.415 90.4938M244.022 90.7964L243.924 91.2889M243.924 91.2889L243.457 91.7824L242.798 92.0883L242.499 92.0891M241.892 91.7865L242.201 92.0899L242.499 92.0891M242.499 92.0891L242.957 91.2417L243.415 90.4938" stroke="#012750" stroke-width="0.5"/>
<path d="M244.12 89.8603L242.917 89.4884L241.568 90.8409L242.321 91.0453L244.12 89.8603Z" fill="#1F4C85"/>
<path d="M242.917 89.4884L241.81 90.4704L240.891 91.4415L241.568 90.8409L242.917 89.4884Z" fill="#1F4C85"/>
<path d="M241.568 90.8409L240.891 91.4415L240.549 92.6176L240.671 93.9201L240.942 94.3857L241.212 94.8513L241.965 95.0557L242.642 94.4551L242.984 93.2789L242.862 91.9765L242.591 91.5109L242.321 91.0453L241.568 90.8409Z" fill="#1F4C85"/>
<path d="M242.335 96.0456L243.566 96.3797L241.965 95.0557L241.212 94.8513L242.335 96.0456Z" fill="#1F4C85"/>
<path d="M243.566 96.3797L244.672 95.3977L242.642 94.4551L241.965 95.0557L243.566 96.3797Z" fill="#1F4C85"/>
<path d="M244.672 95.3977L245.233 93.4747L242.984 93.2789L242.642 94.4551L244.672 95.3977Z" fill="#1F4C85"/>
<path d="M245.233 93.4747L245.005 91.3829L242.862 91.9765L242.984 93.2789L245.233 93.4747Z" fill="#1F4C85"/>
<path d="M244.563 90.6216L244.12 89.8603L242.321 91.0453L242.591 91.5109L242.862 91.9765L245.005 91.3829L244.563 90.6216Z" fill="#1F4C85"/>
<path d="M245.919 89.8502L244.688 89.516L242.917 89.4884L244.12 89.8603L245.919 89.8502Z" fill="#1F4C85"/>
<path d="M246.321 90.617L245.919 89.8502L244.12 89.8603L244.563 90.6216L245.005 91.3829L246.803 91.3728L246.321 90.617Z" fill="#1F4C85"/>
<path d="M247.004 93.5023L246.803 91.3728L245.005 91.3829L245.233 93.4747L247.004 93.5023Z" fill="#1F4C85"/>
<path d="M246.443 95.4253L247.004 93.5023L245.233 93.4747L244.672 95.3977L246.443 95.4253Z" fill="#1F4C85"/>
<path d="M245.337 96.4073L246.443 95.4253L244.672 95.3977L243.566 96.3797L245.337 96.4073Z" fill="#1F4C85"/>
<path d="M247.004 93.5023L246.443 95.4253L247.221 94.443L247.564 93.2669L247.004 93.5023Z" fill="#1F4C85"/>
<path d="M246.803 91.3728L247.004 93.5023L247.564 93.2669L247.441 91.9644L246.803 91.3728Z" fill="#1F4C85"/>
<path d="M245.919 89.8502L246.321 90.617L246.803 91.3728L247.441 91.9644L247.171 91.4988L246.9 91.0332L245.919 89.8502Z" fill="#1F4C85"/>
<path d="M245.919 89.8502L244.688 89.516L242.917 89.4884M245.919 89.8502L246.321 90.617L246.803 91.3728M245.919 89.8502L244.12 89.8603M245.919 89.8502L246.9 91.0332L247.171 91.4988L247.441 91.9644M246.803 91.3728L247.004 93.5023M246.803 91.3728L245.005 91.3829M246.803 91.3728L247.441 91.9644M247.004 93.5023L246.443 95.4253M247.004 93.5023L245.233 93.4747M247.004 93.5023L247.564 93.2669M246.443 95.4253L245.337 96.4073L243.566 96.3797M246.443 95.4253L244.672 95.3977M246.443 95.4253L247.221 94.443L247.564 93.2669M242.917 89.4884L241.81 90.4704L240.891 91.4415M242.917 89.4884L244.12 89.8603M242.917 89.4884L241.568 90.8409M244.12 89.8603L244.563 90.6216L245.005 91.3829M244.12 89.8603L242.321 91.0453M245.005 91.3829L245.233 93.4747M245.005 91.3829L242.862 91.9765M245.233 93.4747L244.672 95.3977M245.233 93.4747L242.984 93.2789M244.672 95.3977L243.566 96.3797M244.672 95.3977L242.642 94.4551M243.566 96.3797L242.335 96.0456L241.212 94.8513M243.566 96.3797L241.965 95.0557M240.891 91.4415L241.568 90.8409M240.891 91.4415L240.549 92.6176L240.671 93.9201L240.942 94.3857L241.212 94.8513M241.568 90.8409L242.321 91.0453M242.321 91.0453L242.591 91.5109L242.862 91.9765M242.862 91.9765L242.984 93.2789M242.984 93.2789L242.642 94.4551M242.642 94.4551L241.965 95.0557M241.965 95.0557L241.212 94.8513M247.441 91.9644L247.564 93.2669" stroke="#012750" stroke-width="0.5"/>
<path d="M217.263 64.5436L216.557 65.7744L215.85 67.0053L209.215 67.0387L210.628 64.577L217.263 64.5436Z" fill="#1F4C85"/>
<path d="M215.837 62.0894L216.55 63.3165L217.263 64.5436L210.628 64.577L209.202 62.1227L215.837 62.0894Z" fill="#1F4C85"/>
<path d="M210.628 64.577L209.215 67.0387L207.79 64.5844L209.202 62.1227L210.628 64.577Z" fill="#1F4C85"/>
<path d="M204.358 42.5787L202.946 45.0404L196.304 45.0738L197.716 42.6121L204.358 42.5787Z" fill="#1F4C85"/>
<path d="M197.716 42.6121L196.304 45.0738L194.878 42.6196L196.291 40.1579L197.716 42.6121Z" fill="#1F4C85"/>
<path d="M202.933 40.1245L204.358 42.5787L197.716 42.6121L196.291 40.1579L202.933 40.1245Z" fill="#1F4C85"/>
<path d="M204.358 42.5787L202.933 40.1245L196.291 40.1579M204.358 42.5787L202.946 45.0404L196.304 45.0738M204.358 42.5787L197.716 42.6121M197.716 42.6121L196.304 45.0738M197.716 42.6121L196.291 40.1579M196.304 45.0738L194.878 42.6196L196.291 40.1579M217.263 64.5436L210.628 64.577M217.263 64.5436L216.55 63.3165L215.837 62.0894L209.202 62.1227M217.263 64.5436L216.557 65.7744L215.85 67.0053L209.215 67.0387M210.628 64.577L209.215 67.0387M210.628 64.577L209.202 62.1227M209.215 67.0387L207.79 64.5844L209.202 62.1227" stroke="#012750" stroke-width="0.5"/>
<path fill-rule="evenodd" clip-rule="evenodd" d="M123.555 38.1269L122.436 36.2L124.664 36.1942L155.86 36.1119L158.153 36.1059L160.381 36.1L191.577 36.0178L193.806 36.0119L194.925 37.9387L210.594 64.9141L211.713 66.8409L209.524 66.8467L178.289 66.929L176.061 66.9349L173.807 66.9408L142.572 67.0232L140.344 67.029L139.224 65.1022L123.555 38.1269ZM196.625 44.6884L200.551 51.4322L204.477 58.1761L208.403 64.9199L204.498 64.9302L200.594 64.9405L196.69 64.9508L192.786 64.961L188.882 64.9713L184.978 64.9816L181.074 64.9919L177.17 65.0022L173.253 58.2584L169.335 51.5145L165.418 44.7707L161.501 38.0268L165.4 38.0166L169.3 38.0063L173.2 37.996L177.1 37.9857L181 37.9754L184.899 37.9652L188.799 37.9549L192.699 37.9446L196.625 44.6884ZM129.701 44.8648L125.783 38.121L129.683 38.1107L133.583 38.1004L137.483 38.0901L141.383 38.0799L145.282 38.0696L149.182 38.0593L153.082 38.049L156.982 38.0388L160.908 44.7826L164.834 51.5264L168.759 58.2702L172.685 65.014L168.781 65.0243L164.877 65.0346L160.973 65.0449L157.069 65.0552L153.165 65.0655L149.261 65.0758L145.357 65.0861L141.453 65.0963L137.535 58.3525L133.618 51.6087L129.701 44.8648Z" fill="white"/>
<path d="M137.535 58.3525L141.453 65.0963L145.357 65.0861L141.438 58.3422L137.535 58.3525Z" fill="#5A97D6"/>
<path d="M149.261 65.0758L145.341 58.3319L141.438 58.3422L145.357 65.0861L149.261 65.0758Z" fill="#5A97D6"/>
<path d="M157.069 65.0552L160.973 65.0449L157.05 58.3011L153.147 58.3113L157.069 65.0552Z" fill="#5A97D6"/>
<path d="M149.261 65.0758L153.165 65.0655L149.244 58.3216L145.341 58.3319L149.261 65.0758Z" fill="#5A97D6"/>
<path d="M164.877 65.0346L160.953 58.2908L157.05 58.3011L160.973 65.0449L164.877 65.0346Z" fill="#5A97D6"/>
<path d="M164.877 65.0346L168.781 65.0243L164.856 58.2805L160.953 58.2908L164.877 65.0346Z" fill="#5A97D6"/>
<path d="M168.781 65.0243L172.685 65.014L168.759 58.2702L164.856 58.2805L168.781 65.0243Z" fill="#5A97D6"/>
<path d="M168.759 58.2702L164.834 51.5264L160.932 51.5367L164.856 58.2805L168.759 58.2702Z" fill="#5A97D6"/>
<path d="M157.03 51.547L160.953 58.2908L164.856 58.2805L160.932 51.5367L157.03 51.547Z" fill="#5A97D6"/>
<path d="M153.128 51.5572L157.05 58.3011L160.953 58.2908L157.03 51.547L153.128 51.5572Z" fill="#5A97D6"/>
<path d="M153.147 58.3113L157.05 58.3011L153.128 51.5572L149.226 51.5675L153.147 58.3113Z" fill="#5A97D6"/>
<path d="M145.324 51.5778L149.244 58.3216L153.147 58.3113L149.226 51.5675L145.324 51.5778Z" fill="#5A97D6"/>
<path d="M141.422 51.5881L145.341 58.3319L149.244 58.3216L145.324 51.5778L141.422 51.5881Z" fill="#5A97D6"/>
<path d="M137.52 51.5984L141.438 58.3422L145.341 58.3319L141.422 51.5881L137.52 51.5984Z" fill="#5A97D6"/>
<path d="M133.618 51.6087L137.535 58.3525L141.438 58.3422L137.52 51.5984L133.618 51.6087Z" fill="#5A97D6"/>
<path d="M129.701 44.8648L133.618 51.6087L137.52 51.5984L133.602 44.8545L129.701 44.8648Z" fill="#5A97D6"/>
<path d="M125.783 38.121L129.701 44.8648L133.602 44.8545L129.683 38.1107L125.783 38.121Z" fill="#5A97D6"/>
<path d="M141.422 51.5881L137.502 44.8443L133.602 44.8545L137.52 51.5984L141.422 51.5881Z" fill="#5A97D6"/>
<path d="M133.583 38.1004L129.683 38.1107L133.602 44.8545L137.502 44.8443L133.583 38.1004Z" fill="#5A97D6"/>
<path d="M145.324 51.5778L141.403 44.834L137.502 44.8443L141.422 51.5881L145.324 51.5778Z" fill="#5A97D6"/>
<path d="M137.483 38.0901L133.583 38.1004L137.502 44.8443L141.403 44.834L137.483 38.0901Z" fill="#5A97D6"/>
<path d="M149.226 51.5675L145.304 44.8237L141.403 44.834L145.324 51.5778L149.226 51.5675Z" fill="#5A97D6"/>
<path d="M141.383 38.0799L137.483 38.0901L141.403 44.834L145.304 44.8237L141.383 38.0799Z" fill="#5A97D6"/>
<path d="M153.128 51.5572L149.205 44.8134L145.304 44.8237L149.226 51.5675L153.128 51.5572Z" fill="#5A97D6"/>
<path d="M145.282 38.0696L141.383 38.0799L145.304 44.8237L149.205 44.8134L145.282 38.0696Z" fill="#5A97D6"/>
<path d="M157.03 51.547L153.106 44.8031L149.205 44.8134L153.128 51.5572L157.03 51.547Z" fill="#5A97D6"/>
<path d="M149.182 38.0593L145.282 38.0696L149.205 44.8134L153.106 44.8031L149.182 38.0593Z" fill="#5A97D6"/>
<path d="M160.932 51.5367L157.007 44.7928L153.106 44.8031L157.03 51.547L160.932 51.5367Z" fill="#5A97D6"/>
<path d="M153.082 38.049L149.182 38.0593L153.106 44.8031L157.007 44.7928L153.082 38.049Z" fill="#5A97D6"/>
<path d="M164.834 51.5264L160.908 44.7826L157.007 44.7928L160.932 51.5367L164.834 51.5264Z" fill="#5A97D6"/>
<path d="M156.982 38.0388L153.082 38.049L157.007 44.7928L160.908 44.7826L156.982 38.0388Z" fill="#5A97D6"/>
<path d="M177.17 65.0022L181.074 64.9919L177.156 58.2481L173.253 58.2584L177.17 65.0022Z" fill="#5A97D6"/>
<path d="M169.335 51.5145L173.253 58.2584L177.156 58.2481L173.237 51.5042L169.335 51.5145Z" fill="#5A97D6"/>
<path d="M165.418 44.7707L169.335 51.5145L173.237 51.5042L169.319 44.7604L165.418 44.7707Z" fill="#5A97D6"/>
<path d="M165.4 38.0166L161.501 38.0268L165.418 44.7707L169.319 44.7604L165.4 38.0166Z" fill="#5A97D6"/>
<path d="M184.978 64.9816L181.059 58.2378L177.156 58.2481L181.074 64.9919L184.978 64.9816Z" fill="#5A97D6"/>
<path d="M184.978 64.9816L188.882 64.9713L184.962 58.2275L181.059 58.2378L184.978 64.9816Z" fill="#5A97D6"/>
<path d="M173.237 51.5042L177.156 58.2481L181.059 58.2378L177.139 51.494L173.237 51.5042Z" fill="#5A97D6"/>
<path d="M181.059 58.2378L184.962 58.2275L181.041 51.4837L177.139 51.494L181.059 58.2378Z" fill="#5A97D6"/>
<path d="M169.319 44.7604L173.237 51.5042L177.139 51.494L173.22 44.7501L169.319 44.7604Z" fill="#5A97D6"/>
<path d="M177.139 51.494L181.041 51.4837L177.121 44.7398L173.22 44.7501L177.139 51.494Z" fill="#5A97D6"/>
<path d="M169.3 38.0063L165.4 38.0166L169.319 44.7604L173.22 44.7501L169.3 38.0063Z" fill="#5A97D6"/>
<path d="M173.2 37.996L169.3 38.0063L173.22 44.7501L177.121 44.7398L173.2 37.996Z" fill="#5A97D6"/>
<path d="M181.021 44.7296L177.1 37.9857L173.2 37.996L177.121 44.7398L181.021 44.7296Z" fill="#5A97D6"/>
<path d="M181 37.9754L177.1 37.9857L181.021 44.7296L184.922 44.7193L181 37.9754Z" fill="#5A97D6"/>
<path d="M188.823 44.709L184.899 37.9652L181 37.9754L184.922 44.7193L188.823 44.709Z" fill="#5A97D6"/>
<path d="M188.799 37.9549L184.899 37.9652L188.823 44.709L192.724 44.6987L188.799 37.9549Z" fill="#5A97D6"/>
<path d="M196.625 44.6884L192.699 37.9446L188.799 37.9549L192.724 44.6987L196.625 44.6884Z" fill="#5A97D6"/>
<path d="M192.747 51.4528L196.649 51.4425L192.724 44.6987L188.823 44.709L192.747 51.4528Z" fill="#5A97D6"/>
<path d="M184.922 44.7193L188.845 51.4631L192.747 51.4528L188.823 44.709L184.922 44.7193Z" fill="#5A97D6"/>
<path d="M181.021 44.7296L184.943 51.4734L188.845 51.4631L184.922 44.7193L181.021 44.7296Z" fill="#5A97D6"/>
<path d="M177.121 44.7398L181.041 51.4837L184.943 51.4734L181.021 44.7296L177.121 44.7398Z" fill="#5A97D6"/>
<path d="M200.551 51.4322L196.625 44.6884L192.724 44.6987L196.649 51.4425L200.551 51.4322Z" fill="#5A97D6"/>
<path d="M204.477 58.1761L200.551 51.4322L196.649 51.4425L200.574 58.1863L204.477 58.1761Z" fill="#5A97D6"/>
<path d="M208.403 64.9199L204.477 58.1761L200.574 58.1863L204.498 64.9302L208.403 64.9199Z" fill="#5A97D6"/>
<path d="M200.594 64.9405L204.498 64.9302L200.574 58.1863L196.671 58.1966L200.594 64.9405Z" fill="#5A97D6"/>
<path d="M196.649 51.4425L192.747 51.4528L196.671 58.1966L200.574 58.1863L196.649 51.4425Z" fill="#5A97D6"/>
<path d="M192.747 51.4528L188.845 51.4631L192.768 58.2069L196.671 58.1966L192.747 51.4528Z" fill="#5A97D6"/>
<path d="M188.845 51.4631L184.943 51.4734L188.865 58.2172L192.768 58.2069L188.845 51.4631Z" fill="#5A97D6"/>
<path d="M188.882 64.9713L192.786 64.961L188.865 58.2172L184.962 58.2275L188.882 64.9713Z" fill="#5A97D6"/>
<path d="M192.786 64.961L196.69 64.9508L192.768 58.2069L188.865 58.2172L192.786 64.961Z" fill="#5A97D6"/>
<path d="M196.69 64.9508L200.594 64.9405L196.671 58.1966L192.768 58.2069L196.69 64.9508Z" fill="#5A97D6"/>
<path d="M181.041 51.4837L184.962 58.2275L188.865 58.2172L184.943 51.4734L181.041 51.4837Z" fill="#5A97D6"/>
<path d="M153.165 65.0655L157.069 65.0552L153.147 58.3113L149.244 58.3216L153.165 65.0655Z" fill="#5A97D6"/>
<path d="M123.555 38.1269L122.436 36.2L120.276 40.0304L138.184 70.8594L140.344 67.029L139.224 65.1022L123.555 38.1269Z" fill="white"/>
<path d="M142.572 67.0232L140.344 67.029L138.184 70.8594L209.553 70.6713L211.713 66.8409L209.524 66.8467L178.289 66.929L176.061 66.9349L173.807 66.9408L142.572 67.0232Z" fill="white"/>
<path d="M140.344 67.029L139.224 65.1022L123.555 38.1269L122.436 36.2M140.344 67.029L142.572 67.0232L173.807 66.9408L176.061 66.9349L178.289 66.929L209.524 66.8467L211.713 66.8409M140.344 67.029L138.184 70.8594M122.436 36.2L124.664 36.1942L155.86 36.1119L158.153 36.1059L160.381 36.1L191.577 36.0178L193.806 36.0119L194.925 37.9387L210.594 64.9141L211.713 66.8409M122.436 36.2L120.276 40.0304L138.184 70.8594M211.713 66.8409L209.553 70.6713L138.184 70.8594M133.618 51.6087L129.701 44.8648M133.618 51.6087L137.535 58.3525M133.618 51.6087L137.52 51.5984M200.551 51.4322L196.625 44.6884M200.551 51.4322L204.477 58.1761M200.551 51.4322L196.649 51.4425M196.625 44.6884L192.699 37.9446L188.799 37.9549M196.625 44.6884L192.724 44.6987M129.701 44.8648L125.783 38.121L129.683 38.1107M129.701 44.8648L133.602 44.8545M137.535 58.3525L141.453 65.0963L145.357 65.0861M137.535 58.3525L141.438 58.3422M204.477 58.1761L208.403 64.9199L204.498 64.9302M204.477 58.1761L200.574 58.1863M192.786 64.961L188.882 64.9713M192.786 64.961L196.69 64.9508M192.786 64.961L188.865 58.2172M177.1 37.9857L173.2 37.996M177.1 37.9857L181 37.9754M177.1 37.9857L181.021 44.7296M184.978 64.9816L181.074 64.9919M184.978 64.9816L188.882 64.9713M184.978 64.9816L181.059 58.2378M169.3 38.0063L165.4 38.0166M169.3 38.0063L173.2 37.996M169.3 38.0063L173.22 44.7501M181.074 64.9919L177.17 65.0022L173.253 58.2584M181.074 64.9919L177.156 58.2481M165.4 38.0166L161.501 38.0268L165.418 44.7707M165.4 38.0166L169.319 44.7604M188.882 64.9713L184.962 58.2275M173.2 37.996L177.121 44.7398M200.594 64.9405L196.69 64.9508M200.594 64.9405L204.498 64.9302M200.594 64.9405L196.671 58.1966M184.899 37.9652L181 37.9754M184.899 37.9652L188.799 37.9549M184.899 37.9652L188.823 44.709M196.69 64.9508L192.768 58.2069M181 37.9754L184.922 44.7193M204.498 64.9302L200.574 58.1863M188.799 37.9549L192.724 44.6987M157.069 65.0552L153.165 65.0655M157.069 65.0552L160.973 65.0449M157.069 65.0552L153.147 58.3113M141.383 38.0799L137.483 38.0901M141.383 38.0799L145.282 38.0696M141.383 38.0799L145.304 44.8237M149.261 65.0758L145.357 65.0861M149.261 65.0758L153.165 65.0655M149.261 65.0758L145.341 58.3319M133.583 38.1004L129.683 38.1107M133.583 38.1004L137.483 38.0901M133.583 38.1004L137.502 44.8443M145.357 65.0861L141.438 58.3422M129.683 38.1107L133.602 44.8545M153.165 65.0655L149.244 58.3216M137.483 38.0901L141.403 44.834M164.877 65.0346L160.973 65.0449M164.877 65.0346L168.781 65.0243M164.877 65.0346L160.953 58.2908M149.182 38.0593L145.282 38.0696M149.182 38.0593L153.082 38.049M149.182 38.0593L153.106 44.8031M160.973 65.0449L157.05 58.3011M145.282 38.0696L149.205 44.8134M168.781 65.0243L172.685 65.014L168.759 58.2702M168.781 65.0243L164.856 58.2805M153.082 38.049L156.982 38.0388L160.908 44.7826M153.082 38.049L157.007 44.7928M168.759 58.2702L164.834 51.5264M168.759 58.2702L164.856 58.2805M164.834 51.5264L160.908 44.7826M164.834 51.5264L160.932 51.5367M160.908 44.7826L157.007 44.7928M173.253 58.2584L169.335 51.5145M173.253 58.2584L177.156 58.2481M169.335 51.5145L165.418 44.7707M169.335 51.5145L173.237 51.5042M165.418 44.7707L169.319 44.7604M141.438 58.3422L145.341 58.3319M141.438 58.3422L137.52 51.5984M145.341 58.3319L149.244 58.3216M145.341 58.3319L141.422 51.5881M149.244 58.3216L153.147 58.3113M149.244 58.3216L145.324 51.5778M153.147 58.3113L157.05 58.3011M153.147 58.3113L149.226 51.5675M157.05 58.3011L160.953 58.2908M157.05 58.3011L153.128 51.5572M160.953 58.2908L164.856 58.2805M160.953 58.2908L157.03 51.547M164.856 58.2805L160.932 51.5367M160.932 51.5367L157.03 51.547M160.932 51.5367L157.007 44.7928M157.03 51.547L153.128 51.5572M157.03 51.547L153.106 44.8031M153.128 51.5572L149.226 51.5675M153.128 51.5572L149.205 44.8134M149.226 51.5675L145.324 51.5778M149.226 51.5675L145.304 44.8237M145.324 51.5778L141.422 51.5881M145.324 51.5778L141.403 44.834M141.422 51.5881L137.52 51.5984M141.422 51.5881L137.502 44.8443M137.52 51.5984L133.602 44.8545M133.602 44.8545L137.502 44.8443M137.502 44.8443L141.403 44.834M141.403 44.834L145.304 44.8237M145.304 44.8237L149.205 44.8134M149.205 44.8134L153.106 44.8031M153.106 44.8031L157.007 44.7928M177.156 58.2481L173.237 51.5042M177.156 58.2481L181.059 58.2378M173.237 51.5042L169.319 44.7604M173.237 51.5042L177.139 51.494M169.319 44.7604L173.22 44.7501M181.059 58.2378L184.962 58.2275M181.059 58.2378L177.139 51.494M184.962 58.2275L181.041 51.4837M184.962 58.2275L188.865 58.2172M177.139 51.494L181.041 51.4837M177.139 51.494L173.22 44.7501M181.041 51.4837L177.121 44.7398M181.041 51.4837L184.943 51.4734M173.22 44.7501L177.121 44.7398M177.121 44.7398L181.021 44.7296M181.021 44.7296L184.922 44.7193M181.021 44.7296L184.943 51.4734M184.922 44.7193L188.823 44.709M184.922 44.7193L188.845 51.4631M188.823 44.709L192.724 44.6987M188.823 44.709L192.747 51.4528M192.724 44.6987L196.649 51.4425M192.747 51.4528L196.649 51.4425M192.747 51.4528L188.845 51.4631M192.747 51.4528L196.671 58.1966M196.649 51.4425L200.574 58.1863M188.845 51.4631L184.943 51.4734M188.845 51.4631L192.768 58.2069M184.943 51.4734L188.865 58.2172M200.574 58.1863L196.671 58.1966M196.671 58.1966L192.768 58.2069M192.768 58.2069L188.865 58.2172" stroke="#012750" stroke-width="0.5"/>
<defs>
<filter id="filter0_f_4093_10477" x="188.699" y="266.602" width="208.715" height="43.3984" filterUnits="userSpaceOnUse" color-interpolation-filters="sRGB">
<feFlood flood-opacity="0" result="BackgroundImageFix"/>
<feBlend mode="normal" in="SourceGraphic" in2="BackgroundImageFix" result="shape"/>
<feGaussianBlur stdDeviation="2.5" result="effect1_foregroundBlur_4093_10477"/>
</filter>
<linearGradient id="paint0_linear_4093_10477" x1="285.265" y1="77.3398" x2="303.077" y2="204.806" gradientUnits="userSpaceOnUse">
<stop stop-color="#5A97D6"/>
<stop offset="1" stop-color="#5A97D6" stop-opacity="0"/>
</linearGradient>
</defs>
</svg>
