<svg width="564" height="320" viewBox="0 0 564 320" fill="none" xmlns="http://www.w3.org/2000/svg">
<path d="M347.311 266.984L352.628 231.366L357.944 195.748L332.426 172.189C314.998 171.596 233.013 172.189 194.205 172.189L168.687 196.309C165.285 214.707 160.004 244.174 158.055 256.327C158.055 256.327 169.719 274.104 177.193 285.495C194.63 285.943 278.024 289.795 317.541 291.665C322.007 287.962 327.434 283.463 332.426 279.324C340.429 272.69 347.311 266.984 347.311 266.984Z" fill="white"/>
<path d="M317.541 291.665C278.024 289.795 194.63 285.943 177.193 285.495L188.461 300.676H221.083L254.63 302.162L292.32 303.887L327.838 305.539L317.541 291.665Z" fill="#012750"/>
<path d="M347.311 266.984L332.426 279.324L342.724 293.199L357.609 280.858L347.311 266.984Z" fill="#012750"/>
<path d="M332.426 279.324L317.541 291.665L327.838 305.539L342.724 293.199L332.426 279.324Z" fill="#012750"/>
<path d="M352.628 231.366L347.311 266.984L357.609 280.858L362.925 245.24L352.628 231.366Z" fill="#012750"/>
<path d="M357.944 195.748L352.628 231.366L362.925 245.24L368.241 209.622L357.944 195.748Z" fill="#012750"/>
<path d="M202.096 179.562C236.104 179.562 307.948 179.042 323.22 179.562L345.582 200.206L340.923 231.419L336.265 262.632L323.221 273.446L310.176 284.26C275.547 282.621 202.468 279.246 187.188 278.853L170.417 253.293C172.125 242.643 176.753 216.82 179.734 200.698L202.096 179.562Z" fill="#F3F6FC"/>
<path d="M347.311 266.984C347.311 266.984 340.429 272.69 332.426 279.324M347.311 266.984L352.628 231.366M347.311 266.984L357.609 280.858M347.311 266.984L332.426 279.324M357.944 195.748L332.426 172.189C314.998 171.596 233.013 172.189 194.205 172.189L168.687 196.309C165.285 214.707 160.004 244.174 158.055 256.327C158.055 256.327 169.719 274.104 177.193 285.495M357.944 195.748L352.628 231.366M357.944 195.748L368.241 209.622L362.925 245.24M177.193 285.495C194.63 285.943 278.024 289.795 317.541 291.665M177.193 285.495C180.574 290.051 184.753 295.68 188.461 300.676M177.193 285.495L188.461 300.676M317.541 291.665C322.007 287.962 327.434 283.463 332.426 279.324M317.541 291.665L327.838 305.539M317.541 291.665L332.426 279.324M332.426 279.324L342.724 293.199M352.628 231.366L362.925 245.24M208.866 286.72L221.083 300.676M242.413 288.206L254.63 302.162M280.103 289.931L292.32 303.887M362.925 245.24L357.609 280.858M357.609 280.858L342.724 293.199M342.724 293.199L327.838 305.539M327.838 305.539L292.32 303.887M292.32 303.887L254.63 302.162M254.63 302.162L221.083 300.676M221.083 300.676H188.461M323.22 179.562C307.948 179.042 236.104 179.562 202.096 179.562L179.734 200.698C176.753 216.82 172.125 242.643 170.417 253.293L187.188 278.853C202.468 279.246 275.547 282.621 310.176 284.26L323.221 273.446L336.265 262.632L340.923 231.419L345.582 200.206L323.22 179.562Z" stroke="black" stroke-width="0.5"/>
<path d="M264.035 258.802L262.87 266.605L260.572 282C264.714 282.189 268.839 282.378 272.892 282.565L275.19 267.166L276.355 259.363L264.035 258.802Z" fill="#012750"/>
<path fill-rule="evenodd" clip-rule="evenodd" d="M276.355 259.363L277.519 251.56L265.199 250.999L264.035 258.802L276.355 259.363ZM289.24 252.105L301.56 252.666L300.395 260.47L299.231 268.273L286.911 267.712L288.075 259.908L289.24 252.105Z" fill="#F3F6FC"/>
<path d="M284.623 283.107C288.904 283.306 293.03 283.498 296.926 283.68L299.231 268.273L286.911 267.712L284.623 283.107Z" fill="#012750"/>
<path d="M264.035 258.802L262.87 266.605L260.572 282M264.035 258.802L265.199 250.999L277.519 251.56L276.355 259.363M264.035 258.802L276.355 259.363M276.355 259.363L275.19 267.166L272.892 282.565M260.572 282C229.312 280.574 197.085 279.159 187.517 278.912L170.746 253.352C172.455 242.702 177.082 216.88 180.063 200.758L202.425 179.622C213.13 179.622 227.584 179.57 242.843 179.516C276.058 179.397 313.085 179.266 323.55 179.622L345.911 200.266L341.253 231.479L336.594 262.692L323.55 273.505L310.505 284.319C303.265 283.977 294.345 283.558 284.623 283.107M260.572 282C264.714 282.189 268.839 282.378 272.892 282.565M272.892 282.565C276.89 282.749 280.818 282.93 284.623 283.107M286.911 267.712L288.075 259.908L289.24 252.105L301.56 252.666L300.395 260.47L299.231 268.273M286.911 267.712L299.231 268.273M286.911 267.712L284.623 283.107M299.231 268.273L296.926 283.68C293.03 283.498 288.904 283.306 284.623 283.107" stroke="black" stroke-width="0.5"/>
<path d="M235.954 187.237L223.989 183.416L220.378 203.088L235.954 187.237Z" fill="#E5EDF9"/>
<path d="M239.877 199.179L235.954 187.237L220.378 203.088L239.877 199.179Z" fill="#012750"/>
<path d="M238.573 211.399L239.877 199.179L220.378 203.088L216.767 222.761L230.331 220.519L238.573 211.399Z" fill="#93BAE6"/>
<path d="M205.229 218.94L216.767 222.761L220.378 203.088L223.989 183.416L210.488 186.043L202.246 195.162L200.941 207.382L205.229 218.94Z" fill="#5A97D6"/>
<path d="M221.127 202.683L235.845 187.705L239.552 198.989L221.127 202.683ZM220.593 203.3L239.593 199.491L238.333 211.292L230.204 220.286L217.078 222.456L220.593 203.3ZM219.985 203.845L216.573 222.433L205.422 218.741L201.196 207.351L202.486 195.269L210.618 186.272L223.677 183.732L220.163 202.877L220.146 202.968L219.63 203.493L220.066 203.406L219.985 203.845ZM220.771 202.332L224.183 183.741L235.491 187.351L220.771 202.332Z" stroke="black" stroke-width="0.5"/>
<path d="M280.645 247.71L288.911 239.896M281.557 238.75L282.684 239.11L283.053 240.234L282.931 241.385L282.154 242.244L280.877 242.455L279.791 242.095L279.387 241.007L279.51 239.856L280.286 238.997L281.557 238.75ZM288.734 244.271L289.861 244.63L290.23 245.755L290.107 246.906L289.331 247.764L288.054 247.976L286.967 247.616L286.563 246.527L286.686 245.377L287.462 244.518L288.734 244.271Z" stroke="black" stroke-width="0.5"/>
<path d="M180.32 225.118L179.31 231.843L240.194 232.115L241.174 224.938L180.32 225.118Z" fill="#245FA5"/>
<path d="M180.122 252.244L178.102 265.694L181.228 265.824L183.247 252.373L180.122 252.244Z" fill="#1D416F"/>
<path d="M183.247 252.373L181.228 265.824L184.582 265.963L186.601 252.513L187.611 245.787L184.257 245.648L183.247 252.373Z" fill="#3274BA"/>
<path d="M186.601 252.513L184.582 265.963L187.611 266.089L189.63 252.638L186.601 252.513Z" fill="#E5EDF9"/>
<path d="M199.521 259.475L198.448 266.623L201.477 266.749L202.55 259.601L199.521 259.475Z" fill="#E5EDF9"/>
<path d="M197.114 253.033L195.094 266.484L198.448 266.623L199.521 259.475L201.477 246.447L198.123 246.308L197.114 253.033Z" fill="#3274BA"/>
<path d="M193.988 252.903L191.969 266.354L195.094 266.484L197.114 253.033L193.988 252.903Z" fill="#1D416F"/>
<path fill-rule="evenodd" clip-rule="evenodd" d="M178.301 238.569L176.281 252.019L174.262 265.47L172.242 278.92L233.333 282.36L240.194 232.115L179.31 231.843L178.301 238.569ZM178.102 265.694L180.122 252.244L183.247 252.373L184.257 245.648L187.611 245.787L186.601 252.513L189.63 252.638L187.611 266.089L184.582 265.963L181.228 265.824L178.102 265.694ZM191.969 266.354L193.988 252.903L197.114 253.033L198.123 246.308L201.477 246.447L199.521 259.475L202.55 259.601L201.477 266.749L198.448 266.623L195.094 266.484L191.969 266.354ZM205.643 266.922L209.748 239.285L212.873 239.415L211.797 246.876L215.151 247.015L214.141 253.74L217.171 253.866L215.151 267.317L212.122 267.191L208.768 267.052L205.643 266.922ZM222.051 267.603L222.392 265.331L225.518 265.461L228.206 247.557L231.56 247.697L229.303 262.726L232.332 262.852L231.56 267.998L228.53 267.873L225.177 267.733L222.051 267.603Z" fill="#C6D9F1"/>
<path d="M214.141 253.74L212.122 267.191L215.151 267.317L217.171 253.866L214.141 253.74Z" fill="#E5EDF9"/>
<path d="M212.873 239.415L208.768 267.052L212.122 267.191L214.141 253.74L215.151 247.015L211.797 246.876L212.873 239.415Z" fill="#3274BA"/>
<path d="M209.748 239.285L205.643 266.922L208.768 267.052L212.873 239.415L209.748 239.285Z" fill="#1D416F"/>
<path d="M229.303 262.726L228.53 267.873L231.56 267.998L232.332 262.852L229.303 262.726Z" fill="#E5EDF9"/>
<path d="M225.518 265.461L225.177 267.733L228.53 267.873L229.303 262.726L231.56 247.697L228.206 247.557L225.518 265.461Z" fill="#3274BA"/>
<path d="M222.392 265.331L222.051 267.603L225.177 267.733L225.518 265.461L222.392 265.331Z" fill="#1D416F"/>
<path d="M179.31 231.843L178.301 238.569L176.281 252.019L174.262 265.47L172.242 278.92L233.333 282.36M179.31 231.843L180.32 225.118L241.174 224.938M179.31 231.843L240.194 232.115M178.102 265.694L180.122 252.244L183.247 252.373M178.102 265.694L187.611 266.089M178.102 265.694L181.228 265.824M181.228 265.824L183.247 252.373M181.228 265.824L184.582 265.963M183.247 252.373L184.257 245.648L187.611 245.787L186.601 252.513M184.582 265.963L186.601 252.513M184.582 265.963L187.611 266.089M186.601 252.513L189.63 252.638L187.611 266.089M191.969 266.354L193.988 252.903L197.114 253.033M191.969 266.354L201.477 266.749M191.969 266.354L195.094 266.484M195.094 266.484L197.114 253.033M195.094 266.484L198.448 266.623M197.114 253.033L198.123 246.308L201.477 246.447L199.521 259.475M198.448 266.623L199.521 259.475M198.448 266.623L201.477 266.749M199.521 259.475L202.55 259.601L201.477 266.749M205.643 266.922L209.748 239.285L212.873 239.415M205.643 266.922L215.151 267.317M205.643 266.922L208.768 267.052M208.768 267.052L212.873 239.415M208.768 267.052L212.122 267.191M212.873 239.415L211.797 246.876L215.151 247.015L214.141 253.74M212.122 267.191L214.141 253.74M212.122 267.191L215.151 267.317M214.141 253.74L217.171 253.866L215.151 267.317M222.051 267.603L222.392 265.331L225.518 265.461M222.051 267.603L231.56 267.998M222.051 267.603L225.177 267.733M225.177 267.733L225.518 265.461M225.177 267.733L228.53 267.873M225.518 265.461L228.206 247.557L231.56 247.697L229.303 262.726M228.53 267.873L229.303 262.726M228.53 267.873L231.56 267.998M229.303 262.726L232.332 262.852L231.56 267.998M241.174 224.938L233.333 282.36M241.174 224.938L240.194 232.115M233.333 282.36L240.194 232.115" stroke="black" stroke-width="0.5"/>
<path d="M254.613 179.661L253.603 186.387L344.929 186.795L345.894 179.391L315.467 179.481L254.613 179.661Z" fill="#245FA5"/>
<path d="M248.555 220.013L246.535 233.464L307.626 236.904L338.171 238.624L344.929 186.795L253.603 186.387L248.555 220.013Z" fill="#C6D9F1"/>
<path d="M253.603 186.387L254.613 179.661L315.467 179.481L345.894 179.391L344.929 186.795M253.603 186.387L248.555 220.013L246.535 233.464L307.626 236.904L338.171 238.624L344.929 186.795M253.603 186.387L344.929 186.795" stroke="black" stroke-width="0.5"/>
<path d="M258.827 207.389L259.074 207.426L258.827 207.389ZM259.75 192.359C259.75 193.096 260.347 193.693 261.083 193.693C261.82 193.693 262.417 193.096 262.417 192.359C262.417 191.623 261.82 191.026 261.083 191.026C260.347 191.026 259.75 191.623 259.75 192.359ZM274.469 223.162L274.458 223.412L274.682 223.421L274.716 223.199L274.469 223.162ZM276.725 208.132L276.478 208.095L276.725 208.132ZM278.982 193.103L278.992 192.853L278.768 192.844L278.734 193.066L278.982 193.103ZM316.317 209.777V209.527H316.102L316.07 209.74L316.317 209.777ZM337.486 209.777L336.042 208.333L334.599 209.777L336.042 211.22L337.486 209.777ZM256.57 222.418L256.323 222.381L256.282 222.657L256.56 222.668L256.57 222.418ZM298.189 193.901L298.437 193.938L298.478 193.662L298.2 193.651L298.189 193.901ZM293.676 223.96L293.429 223.922L293.388 224.198L293.666 224.209L293.676 223.96ZM295.933 208.93L295.686 208.893L295.933 208.93ZM314.061 224.806L314.051 225.056L314.275 225.065L314.308 224.843L314.061 224.806ZM260.723 193.074C260.703 193.21 260.797 193.338 260.933 193.358C261.07 193.379 261.197 193.285 261.218 193.148L260.723 193.074ZM260.992 194.651C261.013 194.514 260.919 194.387 260.782 194.367C260.646 194.346 260.518 194.44 260.498 194.577L260.992 194.651ZM260.272 196.08C260.252 196.216 260.346 196.343 260.482 196.364C260.619 196.384 260.746 196.29 260.767 196.154L260.272 196.08ZM260.541 197.657C260.561 197.52 260.467 197.393 260.331 197.372C260.194 197.352 260.067 197.446 260.046 197.583L260.541 197.657ZM259.821 199.086C259.8 199.222 259.894 199.349 260.031 199.37C260.167 199.39 260.295 199.296 260.315 199.16L259.821 199.086ZM260.09 200.663C260.11 200.526 260.016 200.399 259.879 200.378C259.743 200.358 259.616 200.452 259.595 200.588L260.09 200.663ZM259.369 202.091C259.349 202.228 259.443 202.355 259.58 202.376C259.716 202.396 259.843 202.302 259.864 202.166L259.369 202.091ZM259.638 203.669C259.659 203.532 259.565 203.405 259.428 203.384C259.292 203.364 259.164 203.458 259.144 203.594L259.638 203.669ZM258.918 205.097C258.898 205.234 258.992 205.361 259.128 205.382C259.265 205.402 259.392 205.308 259.413 205.172L258.918 205.097ZM259.187 206.675C259.207 206.538 259.113 206.411 258.977 206.39C258.84 206.37 258.713 206.464 258.692 206.6L259.187 206.675ZM258.467 208.103C258.446 208.24 258.54 208.367 258.677 208.388C258.813 208.408 258.941 208.314 258.961 208.177L258.467 208.103ZM258.736 209.68C258.756 209.544 258.662 209.417 258.526 209.396C258.389 209.376 258.262 209.47 258.241 209.606L258.736 209.68ZM258.015 211.109C257.995 211.246 258.089 211.373 258.226 211.393C258.362 211.414 258.489 211.32 258.51 211.183L258.015 211.109ZM258.284 212.686C258.305 212.55 258.211 212.422 258.074 212.402C257.938 212.381 257.81 212.476 257.79 212.612L258.284 212.686ZM257.564 214.115C257.544 214.252 257.638 214.379 257.774 214.399C257.911 214.42 258.038 214.326 258.059 214.189L257.564 214.115ZM257.833 215.692C257.853 215.556 257.759 215.428 257.623 215.408C257.486 215.387 257.359 215.481 257.339 215.618L257.833 215.692ZM257.113 217.121C257.092 217.257 257.186 217.385 257.323 217.405C257.46 217.426 257.587 217.332 257.607 217.195L257.113 217.121ZM257.382 218.698C257.402 218.562 257.308 218.434 257.172 218.414C257.035 218.393 256.908 218.487 256.887 218.624L257.382 218.698ZM256.662 220.127C256.641 220.263 256.735 220.391 256.872 220.411C257.008 220.432 257.136 220.338 257.156 220.201L256.662 220.127ZM256.93 221.704C256.951 221.567 256.857 221.44 256.72 221.42C256.584 221.399 256.456 221.493 256.436 221.63L256.93 221.704ZM257.306 222.699C257.444 222.705 257.56 222.598 257.566 222.46C257.572 222.322 257.464 222.205 257.326 222.2L257.306 222.699ZM258.818 222.261C258.68 222.256 258.564 222.363 258.558 222.501C258.552 222.639 258.659 222.755 258.797 222.761L258.818 222.261ZM260.289 222.823C260.427 222.829 260.543 222.722 260.549 222.584C260.555 222.446 260.447 222.329 260.309 222.323L260.289 222.823ZM261.801 222.385C261.663 222.38 261.547 222.487 261.541 222.625C261.535 222.763 261.642 222.879 261.78 222.885L261.801 222.385ZM263.272 222.947C263.41 222.953 263.526 222.845 263.532 222.707C263.538 222.57 263.43 222.453 263.293 222.447L263.272 222.947ZM264.784 222.509C264.646 222.504 264.53 222.611 264.524 222.749C264.518 222.887 264.625 223.003 264.763 223.009L264.784 222.509ZM266.255 223.071C266.393 223.077 266.509 222.969 266.515 222.831C266.521 222.693 266.414 222.577 266.276 222.571L266.255 223.071ZM267.767 222.633C267.629 222.627 267.513 222.735 267.507 222.873C267.501 223.011 267.608 223.127 267.746 223.133L267.767 222.633ZM269.238 223.195C269.376 223.2 269.492 223.093 269.498 222.955C269.504 222.817 269.397 222.701 269.259 222.695L269.238 223.195ZM270.75 222.757C270.612 222.751 270.496 222.859 270.49 222.997C270.484 223.134 270.591 223.251 270.729 223.257L270.75 222.757ZM272.221 223.319C272.359 223.324 272.475 223.217 272.481 223.079C272.487 222.941 272.38 222.825 272.242 222.819L272.221 223.319ZM273.733 222.881C273.595 222.875 273.479 222.982 273.473 223.12C273.467 223.258 273.574 223.375 273.712 223.381L273.733 222.881ZM274.829 222.447C274.849 222.311 274.755 222.184 274.618 222.163C274.482 222.143 274.355 222.237 274.334 222.373L274.829 222.447ZM274.56 220.87C274.539 221.007 274.633 221.134 274.77 221.155C274.906 221.175 275.034 221.081 275.054 220.944L274.56 220.87ZM275.28 219.442C275.3 219.305 275.206 219.178 275.07 219.157C274.933 219.137 274.806 219.231 274.785 219.367L275.28 219.442ZM275.011 217.864C274.991 218.001 275.085 218.128 275.221 218.149C275.358 218.169 275.485 218.075 275.506 217.939L275.011 217.864ZM275.731 216.436C275.752 216.299 275.658 216.172 275.521 216.151C275.385 216.131 275.257 216.225 275.237 216.361L275.731 216.436ZM275.462 214.858C275.442 214.995 275.536 215.122 275.673 215.143C275.809 215.163 275.936 215.069 275.957 214.933L275.462 214.858ZM276.183 213.43C276.203 213.293 276.109 213.166 275.972 213.145C275.836 213.125 275.709 213.219 275.688 213.355L276.183 213.43ZM275.914 211.853C275.893 211.989 275.987 212.116 276.124 212.137C276.26 212.157 276.388 212.063 276.408 211.927L275.914 211.853ZM276.634 210.424C276.654 210.287 276.56 210.16 276.424 210.139C276.287 210.119 276.16 210.213 276.139 210.35L276.634 210.424ZM276.365 208.847C276.345 208.983 276.439 209.11 276.575 209.131C276.712 209.151 276.839 209.057 276.859 208.921L276.365 208.847ZM277.085 207.418C277.106 207.281 277.012 207.154 276.875 207.134C276.738 207.113 276.611 207.207 276.591 207.344L277.085 207.418ZM276.816 205.841C276.796 205.977 276.89 206.105 277.026 206.125C277.163 206.146 277.29 206.052 277.311 205.915L276.816 205.841ZM277.536 204.412C277.557 204.275 277.463 204.148 277.326 204.128C277.19 204.107 277.062 204.201 277.042 204.338L277.536 204.412ZM277.268 202.835C277.247 202.971 277.341 203.099 277.478 203.119C277.614 203.14 277.742 203.046 277.762 202.909L277.268 202.835ZM277.988 201.406C278.008 201.27 277.914 201.142 277.778 201.122C277.641 201.101 277.514 201.195 277.493 201.332L277.988 201.406ZM277.719 199.829C277.698 199.965 277.793 200.093 277.929 200.113C278.066 200.134 278.193 200.04 278.213 199.903L277.719 199.829ZM278.439 198.4C278.46 198.264 278.365 198.136 278.229 198.116C278.092 198.095 277.965 198.189 277.945 198.326L278.439 198.4ZM278.17 196.823C278.15 196.96 278.244 197.087 278.38 197.107C278.517 197.128 278.644 197.034 278.665 196.897L278.17 196.823ZM278.89 195.394C278.911 195.258 278.817 195.13 278.68 195.11C278.544 195.089 278.416 195.184 278.396 195.32L278.89 195.394ZM278.622 193.817C278.601 193.954 278.695 194.081 278.832 194.101C278.968 194.122 279.096 194.028 279.116 193.891L278.622 193.817ZM279.772 193.386C279.91 193.392 280.026 193.284 280.032 193.146C280.037 193.008 279.93 192.892 279.792 192.886L279.772 193.386ZM281.393 192.953C281.255 192.947 281.139 193.054 281.133 193.192C281.127 193.33 281.234 193.447 281.372 193.452L281.393 192.953ZM282.973 193.519C283.111 193.525 283.227 193.417 283.233 193.279C283.239 193.141 283.132 193.025 282.994 193.019L282.973 193.519ZM284.594 193.086C284.456 193.08 284.34 193.187 284.334 193.325C284.328 193.463 284.436 193.58 284.574 193.585L284.594 193.086ZM286.174 193.652C286.312 193.657 286.429 193.55 286.434 193.412C286.44 193.274 286.333 193.158 286.195 193.152L286.174 193.652ZM287.796 193.219C287.658 193.213 287.541 193.32 287.535 193.458C287.53 193.596 287.637 193.713 287.775 193.718L287.796 193.219ZM289.376 193.785C289.513 193.79 289.63 193.683 289.636 193.545C289.641 193.407 289.534 193.291 289.396 193.285L289.376 193.785ZM290.997 193.352C290.859 193.346 290.742 193.453 290.737 193.591C290.731 193.729 290.838 193.845 290.976 193.851L290.997 193.352ZM292.577 193.918C292.715 193.923 292.831 193.816 292.837 193.678C292.843 193.54 292.736 193.424 292.598 193.418L292.577 193.918ZM294.198 193.485C294.06 193.479 293.944 193.586 293.938 193.724C293.932 193.862 294.04 193.978 294.177 193.984L294.198 193.485ZM295.778 194.051C295.916 194.056 296.033 193.949 296.038 193.811C296.044 193.673 295.937 193.557 295.799 193.551L295.778 194.051ZM297.4 193.618C297.262 193.612 297.145 193.719 297.139 193.857C297.134 193.995 297.241 194.111 297.379 194.117L297.4 193.618ZM297.829 194.615C297.809 194.752 297.903 194.879 298.04 194.899C298.176 194.92 298.303 194.826 298.324 194.689L297.829 194.615ZM298.098 196.192C298.119 196.056 298.025 195.928 297.888 195.908C297.752 195.887 297.624 195.981 297.604 196.118L298.098 196.192ZM297.378 197.621C297.358 197.757 297.452 197.885 297.588 197.905C297.725 197.926 297.852 197.832 297.873 197.695L297.378 197.621ZM297.647 199.198C297.667 199.062 297.573 198.934 297.437 198.914C297.3 198.893 297.173 198.987 297.152 199.124L297.647 199.198ZM296.927 200.627C296.906 200.763 297 200.891 297.137 200.911C297.273 200.932 297.401 200.838 297.421 200.701L296.927 200.627ZM297.196 202.204C297.216 202.067 297.122 201.94 296.985 201.92C296.849 201.899 296.722 201.993 296.701 202.13L297.196 202.204ZM296.475 203.633C296.455 203.769 296.549 203.897 296.686 203.917C296.822 203.938 296.949 203.843 296.97 203.707L296.475 203.633ZM296.744 205.21C296.765 205.073 296.671 204.946 296.534 204.925C296.398 204.905 296.27 204.999 296.25 205.136L296.744 205.21ZM296.024 206.639C296.004 206.775 296.098 206.902 296.234 206.923C296.371 206.943 296.498 206.849 296.519 206.713L296.024 206.639ZM296.293 208.216C296.313 208.079 296.219 207.952 296.083 207.931C295.946 207.911 295.819 208.005 295.799 208.141L296.293 208.216ZM295.573 209.644C295.552 209.781 295.646 209.908 295.783 209.929C295.92 209.949 296.047 209.855 296.067 209.719L295.573 209.644ZM295.842 211.222C295.862 211.085 295.768 210.958 295.632 210.937C295.495 210.917 295.368 211.011 295.347 211.147L295.842 211.222ZM295.122 212.65C295.101 212.787 295.195 212.914 295.332 212.935C295.468 212.955 295.596 212.861 295.616 212.725L295.122 212.65ZM295.39 214.228C295.411 214.091 295.317 213.964 295.18 213.943C295.044 213.923 294.916 214.017 294.896 214.153L295.39 214.228ZM294.67 215.656C294.65 215.793 294.744 215.92 294.88 215.941C295.017 215.961 295.144 215.867 295.165 215.73L294.67 215.656ZM294.939 217.233C294.96 217.097 294.865 216.97 294.729 216.949C294.592 216.929 294.465 217.023 294.445 217.159L294.939 217.233ZM294.219 218.662C294.198 218.799 294.293 218.926 294.429 218.946C294.566 218.967 294.693 218.873 294.713 218.736L294.219 218.662ZM294.488 220.239C294.508 220.103 294.414 219.975 294.278 219.955C294.141 219.934 294.014 220.029 293.993 220.165L294.488 220.239ZM293.768 221.668C293.747 221.805 293.841 221.932 293.978 221.952C294.114 221.973 294.242 221.879 294.262 221.742L293.768 221.668ZM294.036 223.245C294.057 223.109 293.963 222.981 293.826 222.961C293.69 222.94 293.562 223.034 293.542 223.171L294.036 223.245ZM294.394 224.24C294.532 224.245 294.648 224.138 294.654 224C294.66 223.862 294.553 223.746 294.415 223.74L294.394 224.24ZM295.871 223.8C295.733 223.795 295.616 223.902 295.611 224.04C295.605 224.178 295.712 224.294 295.85 224.3L295.871 223.8ZM297.306 224.361C297.444 224.366 297.561 224.259 297.566 224.121C297.572 223.983 297.465 223.867 297.327 223.861L297.306 224.361ZM298.783 223.921C298.645 223.916 298.528 224.023 298.523 224.161C298.517 224.299 298.624 224.415 298.762 224.421L298.783 223.921ZM300.218 224.482C300.356 224.487 300.473 224.38 300.478 224.242C300.484 224.104 300.377 223.988 300.239 223.982L300.218 224.482ZM301.695 224.042C301.557 224.037 301.441 224.144 301.435 224.282C301.429 224.42 301.536 224.536 301.674 224.542L301.695 224.042ZM303.13 224.602C303.268 224.608 303.385 224.501 303.39 224.363C303.396 224.225 303.289 224.109 303.151 224.103L303.13 224.602ZM304.607 224.163C304.469 224.158 304.353 224.265 304.347 224.403C304.341 224.541 304.448 224.657 304.586 224.663L304.607 224.163ZM306.042 224.723C306.18 224.729 306.297 224.622 306.302 224.484C306.308 224.346 306.201 224.23 306.063 224.224L306.042 224.723ZM307.519 224.284C307.381 224.279 307.265 224.386 307.259 224.524C307.253 224.662 307.36 224.778 307.498 224.784L307.519 224.284ZM308.954 224.844C309.092 224.85 309.209 224.743 309.215 224.605C309.22 224.467 309.113 224.351 308.975 224.345L308.954 224.844ZM310.431 224.405C310.293 224.4 310.177 224.507 310.171 224.645C310.165 224.783 310.272 224.899 310.41 224.905L310.431 224.405ZM311.866 224.965C312.004 224.971 312.121 224.864 312.127 224.726C312.132 224.588 312.025 224.471 311.887 224.466L311.866 224.965ZM313.343 224.526C313.205 224.521 313.089 224.628 313.083 224.766C313.077 224.904 313.185 225.02 313.323 225.026L313.343 224.526ZM314.421 224.092C314.441 223.955 314.347 223.828 314.211 223.808C314.074 223.787 313.947 223.881 313.927 224.018L314.421 224.092ZM314.152 222.515C314.132 222.651 314.226 222.779 314.362 222.799C314.499 222.82 314.626 222.725 314.647 222.589L314.152 222.515ZM314.872 221.086C314.893 220.949 314.799 220.822 314.662 220.802C314.526 220.781 314.398 220.875 314.378 221.012L314.872 221.086ZM314.603 219.509C314.583 219.645 314.677 219.773 314.814 219.793C314.95 219.814 315.077 219.72 315.098 219.583L314.603 219.509ZM315.324 218.08C315.344 217.944 315.25 217.816 315.113 217.796C314.977 217.775 314.85 217.869 314.829 218.006L315.324 218.08ZM315.055 216.503C315.034 216.639 315.128 216.767 315.265 216.787C315.401 216.808 315.529 216.714 315.549 216.577L315.055 216.503ZM315.775 215.074C315.795 214.938 315.701 214.81 315.565 214.79C315.428 214.769 315.301 214.863 315.28 215L315.775 215.074ZM315.506 213.497C315.486 213.634 315.58 213.761 315.716 213.781C315.853 213.802 315.98 213.708 316.001 213.571L315.506 213.497ZM316.226 212.068C316.247 211.932 316.153 211.804 316.016 211.784C315.88 211.763 315.752 211.858 315.732 211.994L316.226 212.068ZM315.957 210.491C315.937 210.628 316.031 210.755 316.168 210.775C316.304 210.796 316.431 210.702 316.452 210.565L315.957 210.491ZM317.139 210.027C317.277 210.027 317.389 209.915 317.389 209.777C317.389 209.639 317.277 209.527 317.139 209.527V210.027ZM318.783 209.527C318.645 209.527 318.533 209.639 318.533 209.777C318.533 209.915 318.645 210.027 318.783 210.027V209.527ZM320.427 210.027C320.565 210.027 320.677 209.915 320.677 209.777C320.677 209.639 320.565 209.527 320.427 209.527V210.027ZM322.07 209.527C321.932 209.527 321.82 209.639 321.82 209.777C321.82 209.915 321.932 210.027 322.07 210.027V209.527ZM323.714 210.027C323.852 210.027 323.964 209.915 323.964 209.777C323.964 209.639 323.852 209.527 323.714 209.527V210.027ZM325.358 209.527C325.22 209.527 325.108 209.639 325.108 209.777C325.108 209.915 325.22 210.027 325.358 210.027V209.527ZM327.002 210.027C327.14 210.027 327.252 209.915 327.252 209.777C327.252 209.639 327.14 209.527 327.002 209.527V210.027ZM328.645 209.527C328.507 209.527 328.395 209.639 328.395 209.777C328.395 209.915 328.507 210.027 328.645 210.027V209.527ZM330.289 210.027C330.427 210.027 330.539 209.915 330.539 209.777C330.539 209.639 330.427 209.527 330.289 209.527V210.027ZM331.933 209.527C331.795 209.527 331.683 209.639 331.683 209.777C331.683 209.915 331.795 210.027 331.933 210.027V209.527ZM333.577 210.027C333.715 210.027 333.827 209.915 333.827 209.777C333.827 209.639 333.715 209.527 333.577 209.527V210.027ZM335.22 209.527C335.082 209.527 334.97 209.639 334.97 209.777C334.97 209.915 335.082 210.027 335.22 210.027V209.527ZM260.836 192.322L260.723 193.074L261.218 193.148L261.331 192.396L260.836 192.322ZM260.498 194.577L260.272 196.08L260.767 196.154L260.992 194.651L260.498 194.577ZM260.046 197.583L259.821 199.086L260.315 199.16L260.541 197.657L260.046 197.583ZM259.595 200.588L259.369 202.091L259.864 202.166L260.09 200.663L259.595 200.588ZM259.144 203.594L258.918 205.097L259.413 205.172L259.638 203.669L259.144 203.594ZM258.692 206.6L258.58 207.352L259.074 207.426L259.187 206.675L258.692 206.6ZM258.58 207.352L258.467 208.103L258.961 208.177L259.074 207.426L258.58 207.352ZM258.241 209.606L258.015 211.109L258.51 211.183L258.736 209.68L258.241 209.606ZM257.79 212.612L257.564 214.115L258.059 214.189L258.284 212.686L257.79 212.612ZM257.339 215.618L257.113 217.121L257.607 217.195L257.833 215.692L257.339 215.618ZM256.887 218.624L256.662 220.127L257.156 220.201L257.382 218.698L256.887 218.624ZM256.436 221.63L256.323 222.381L256.818 222.455L256.93 221.704L256.436 221.63ZM256.56 222.668L257.306 222.699L257.326 222.2L256.581 222.169L256.56 222.668ZM258.797 222.761L260.289 222.823L260.309 222.323L258.818 222.261L258.797 222.761ZM261.78 222.885L263.272 222.947L263.293 222.447L261.801 222.385L261.78 222.885ZM264.763 223.009L266.255 223.071L266.276 222.571L264.784 222.509L264.763 223.009ZM267.746 223.133L269.238 223.195L269.259 222.695L267.767 222.633L267.746 223.133ZM270.729 223.257L272.221 223.319L272.242 222.819L270.75 222.757L270.729 223.257ZM273.712 223.381L274.458 223.412L274.479 222.912L273.733 222.881L273.712 223.381ZM274.716 223.199L274.829 222.447L274.334 222.373L274.221 223.125L274.716 223.199ZM275.054 220.944L275.28 219.442L274.785 219.367L274.56 220.87L275.054 220.944ZM275.506 217.939L275.731 216.436L275.237 216.361L275.011 217.864L275.506 217.939ZM275.957 214.933L276.183 213.43L275.688 213.355L275.462 214.858L275.957 214.933ZM276.408 211.927L276.634 210.424L276.139 210.35L275.914 211.853L276.408 211.927ZM276.859 208.921L276.972 208.169L276.478 208.095L276.365 208.847L276.859 208.921ZM276.972 208.169L277.085 207.418L276.591 207.344L276.478 208.095L276.972 208.169ZM277.311 205.915L277.536 204.412L277.042 204.338L276.816 205.841L277.311 205.915ZM277.762 202.909L277.988 201.406L277.493 201.332L277.268 202.835L277.762 202.909ZM278.213 199.903L278.439 198.4L277.945 198.326L277.719 199.829L278.213 199.903ZM278.665 196.897L278.89 195.394L278.396 195.32L278.17 196.823L278.665 196.897ZM279.116 193.891L279.229 193.14L278.734 193.066L278.622 193.817L279.116 193.891ZM278.971 193.353L279.772 193.386L279.792 192.886L278.992 192.853L278.971 193.353ZM281.372 193.452L282.973 193.519L282.994 193.019L281.393 192.953L281.372 193.452ZM284.574 193.585L286.174 193.652L286.195 193.152L284.594 193.086L284.574 193.585ZM287.775 193.718L289.376 193.785L289.396 193.285L287.796 193.219L287.775 193.718ZM290.976 193.851L292.577 193.918L292.598 193.418L290.997 193.352L290.976 193.851ZM294.177 193.984L295.778 194.051L295.799 193.551L294.198 193.485L294.177 193.984ZM297.379 194.117L298.179 194.15L298.2 193.651L297.4 193.618L297.379 194.117ZM297.942 193.863L297.829 194.615L298.324 194.689L298.437 193.938L297.942 193.863ZM297.604 196.118L297.378 197.621L297.873 197.695L298.098 196.192L297.604 196.118ZM297.152 199.124L296.927 200.627L297.421 200.701L297.647 199.198L297.152 199.124ZM296.701 202.13L296.475 203.633L296.97 203.707L297.196 202.204L296.701 202.13ZM296.25 205.136L296.024 206.639L296.519 206.713L296.744 205.21L296.25 205.136ZM295.799 208.141L295.686 208.893L296.18 208.967L296.293 208.216L295.799 208.141ZM295.686 208.893L295.573 209.644L296.067 209.719L296.18 208.967L295.686 208.893ZM295.347 211.147L295.122 212.65L295.616 212.725L295.842 211.222L295.347 211.147ZM294.896 214.153L294.67 215.656L295.165 215.73L295.39 214.228L294.896 214.153ZM294.445 217.159L294.219 218.662L294.713 218.736L294.939 217.233L294.445 217.159ZM293.993 220.165L293.768 221.668L294.262 221.742L294.488 220.239L293.993 220.165ZM293.542 223.171L293.429 223.922L293.924 223.997L294.036 223.245L293.542 223.171ZM293.666 224.209L294.394 224.24L294.415 223.74L293.687 223.71L293.666 224.209ZM295.85 224.3L297.306 224.361L297.327 223.861L295.871 223.8L295.85 224.3ZM298.762 224.421L300.218 224.482L300.239 223.982L298.783 223.921L298.762 224.421ZM301.674 224.542L303.13 224.602L303.151 224.103L301.695 224.042L301.674 224.542ZM304.586 224.663L306.042 224.723L306.063 224.224L304.607 224.163L304.586 224.663ZM307.498 224.784L308.954 224.844L308.975 224.345L307.519 224.284L307.498 224.784ZM310.41 224.905L311.866 224.965L311.887 224.466L310.431 224.405L310.41 224.905ZM313.323 225.026L314.051 225.056L314.071 224.556L313.343 224.526L313.323 225.026ZM314.308 224.843L314.421 224.092L313.927 224.018L313.814 224.769L314.308 224.843ZM314.647 222.589L314.872 221.086L314.378 221.012L314.152 222.515L314.647 222.589ZM315.098 219.583L315.324 218.08L314.829 218.006L314.603 219.509L315.098 219.583ZM315.549 216.577L315.775 215.074L315.28 215L315.055 216.503L315.549 216.577ZM316.001 213.571L316.226 212.068L315.732 211.994L315.506 213.497L316.001 213.571ZM316.452 210.565L316.565 209.814L316.07 209.74L315.957 210.491L316.452 210.565ZM316.317 210.027H317.139V209.527H316.317V210.027ZM318.783 210.027H320.427V209.527H318.783V210.027ZM322.07 210.027H323.714V209.527H322.07V210.027ZM325.358 210.027H327.002V209.527H325.358V210.027ZM328.645 210.027H330.289V209.527H328.645V210.027ZM331.933 210.027H333.577V209.527H331.933V210.027ZM335.22 210.027H336.042V209.527H335.22V210.027Z" fill="black"/>
<circle cx="487.014" cy="192.014" r="46.5142" stroke="#E5EDF9"/>
<circle cx="487.018" cy="192.014" r="37.1114" stroke="#245FA5"/>
<circle cx="487.012" cy="192.012" r="41.8128" stroke="#93BAE6"/>
<path d="M508.999 171.867C508.999 173.45 507.716 174.733 506.132 174.733C504.549 174.733 503.266 173.45 503.266 171.867C503.266 170.283 504.549 169 506.132 169C507.716 169 508.999 170.283 508.999 171.867Z" fill="#3274BA"/>
<path d="M466 169.164V208.342C466 210.89 467.338 215.986 472.689 215.986C478.04 215.986 479.378 210.89 479.378 208.342V177.764C479.378 174.897 479.378 169.164 486.067 169.164C492.756 169.164 492.756 174.897 492.756 177.764V208.342C492.756 210.89 494.093 215.986 499.444 215.986C504.796 215.986 506.133 210.89 506.133 208.342V177.764" stroke="#012750" stroke-width="2" stroke-dasharray="5.73 5.73"/>
<circle cx="280.014" cy="62.0142" r="46.5142" stroke="#E5EDF9"/>
<circle cx="280.018" cy="62.0137" r="37.1114" stroke="#245FA5"/>
<circle cx="280.012" cy="62.012" r="41.8128" stroke="#93BAE6"/>
<path d="M281.074 46H269.037H263.018H257V54.25V66.625V72.8125V79H263.018H299.129H305.148V72.8125V62.5V54.25V46H299.129H293.111H281.074Z" stroke="#012750" stroke-width="2" stroke-linecap="round" stroke-linejoin="round"/>
<path d="M281.075 69.2611V62.4988M290.102 69.2611V59.5234M272.047 69.2611L272.098 65.4743" stroke="#3274BA" stroke-width="2" stroke-linecap="round" stroke-linejoin="round"/>
<circle cx="77.0142" cy="160.014" r="46.5142" stroke="#E5EDF9"/>
<circle cx="77.0176" cy="160.014" r="37.1114" stroke="#245FA5"/>
<circle cx="77.012" cy="160.012" r="41.8128" stroke="#93BAE6"/>
<path d="M95.0728 159C96.6895 159 98.0206 160.317 97.8012 161.918C97.186 166.41 95.1623 170.605 91.9957 173.849C88.1512 177.788 82.9369 180 77.5 180C72.0631 180 66.8488 177.788 63.0043 173.849C59.8377 170.605 57.814 166.41 57.1988 161.918C56.9794 160.317 58.3105 159 59.9272 159L77.5 159H95.0728Z" stroke="#012750" stroke-width="2" stroke-linejoin="round"/>
<path d="M83.2743 172.194C83.2743 175.697 80.4348 178.536 76.9321 178.536C73.4294 178.536 70.5898 175.697 70.5898 172.194C70.5898 168.691 73.4294 165.852 76.9321 165.852C80.4348 165.852 83.2743 168.691 83.2743 172.194Z" stroke="#3274BA" stroke-width="2"/>
<path d="M54 153.951C54 152.874 54.8737 152 55.9515 152H99.0485C100.126 152 101 152.874 101 153.951V157.049C101 158.126 100.126 159 99.0485 159H55.9515C54.8737 159 54 158.126 54 157.049V153.951Z" stroke="#012750" stroke-width="2"/>
<path d="M62 150.049C62 151.126 62.8737 152 63.9515 152H91.0485C92.1263 152 93 151.126 93 150.049V141.951C93 140.874 92.1263 140 91.0485 140H63.9515C62.8737 140 62 140.874 62 141.951V150.049Z" stroke="#012750" stroke-width="2"/>
<path d="M125.113 160.5L128 163.387L130.887 160.5L128 157.613L125.113 160.5ZM173 160.5H173.5V160H173V160.5ZM128 161H130.25V160H128V161ZM134.75 161H139.25V160H134.75V161ZM143.75 161H148.25V160H143.75V161ZM152.75 161H157.25V160H152.75V161ZM161.75 161H166.25V160H161.75V161ZM170.75 161H173V160H170.75V161ZM172.5 160.5V162.792H173.5V160.5H172.5ZM172.5 167.375V171.958H173.5V167.375H172.5ZM172.5 176.542V181.125H173.5V176.542H172.5ZM172.5 185.708V188H173.5V185.708H172.5Z" fill="#3274BA"/>
<path d="M281 109.613L278.113 112.5L281 115.387L283.887 112.5L281 109.613ZM280.5 112.5V114.812H281.5V112.5H280.5ZM280.5 119.438V124.062H281.5V119.438H280.5ZM280.5 128.688V133.312H281.5V128.688H280.5ZM280.5 137.938V142.563H281.5V137.938H280.5ZM280.5 147.188V151.812H281.5V147.188H280.5ZM280.5 156.438V161.062H281.5V156.438H280.5ZM280.5 165.688V168H281.5V165.688H280.5Z" fill="#3274BA"/>
<path d="M412 248V248.5H412.5V248H412ZM412 195V194.5H411.5V195H412ZM439.387 195L436.5 192.113L433.613 195L436.5 197.887L439.387 195ZM366 248.5H368.3V247.5H366V248.5ZM372.9 248.5H377.5V247.5H372.9V248.5ZM382.1 248.5H386.7V247.5H382.1V248.5ZM391.3 248.5H395.9V247.5H391.3V248.5ZM400.5 248.5H405.1V247.5H400.5V248.5ZM409.7 248.5H412V247.5H409.7V248.5ZM412.5 248V245.35H411.5V248H412.5ZM412.5 240.05V234.75H411.5V240.05H412.5ZM412.5 229.45V224.15H411.5V229.45H412.5ZM412.5 218.85V213.55H411.5V218.85H412.5ZM412.5 208.25V202.95H411.5V208.25H412.5ZM412.5 197.65V195H411.5V197.65H412.5ZM412 195.5H415.062V194.5H412V195.5ZM421.188 195.5H427.312V194.5H421.188V195.5ZM433.438 195.5H436.5V194.5H433.438V195.5Z" fill="#3274BA"/>
</svg>
