<svg width="79" height="65" viewBox="0 0 79 65" fill="none" xmlns="http://www.w3.org/2000/svg">

<path d="M23.8118 43.0923H23.1576C23.1685 42.9816 23.124 42.7731 22.7449 42.7731H21.8611C21.7283 42.7865 21.4628 42.8877 21.4628 43.1858V44.0496C21.4628 44.3551 21.6565 44.5031 22.0123 44.5031H22.441C22.8352 44.5031 23.1576 44.5031 23.1576 43.908H22.2482V43.5489H23.8118V44.4151C23.7721 44.5844 23.5546 44.923 23.0024 44.923H21.5676C21.4348 44.923 20.771 44.7478 20.771 44.216V43.0923C20.7734 42.8497 20.9361 42.3644 21.5676 42.3644H23.0024C23.2797 42.3423 23.8297 42.4569 23.8118 43.0923Z" fill="white"/>
<path d="M28.87 42.3748H28.2242V44.184C28.2242 44.7462 28.6009 44.9062 29.0368 44.9062H30.3604C30.8683 44.9062 31.217 44.6822 31.217 44.184V42.3748H30.4932V44.184C30.4932 44.667 28.87 44.5559 28.87 44.184V42.3748Z" fill="white"/>
<path d="M48.7955 44.9062V42.3748H51.3916V42.8299H49.5097V43.4138H51.2621V43.8681H49.5097V44.8958L48.7955 44.9062Z" fill="white"/>
<path fill-rule="evenodd" clip-rule="evenodd" d="M36.5764 44.9062H37.8353C38.2767 44.9062 38.7662 44.6974 38.7662 44.184V43.0515C38.7662 42.5852 38.2935 42.3748 37.7473 42.3748H36.4452C35.8046 42.3748 35.3599 42.6988 35.3599 43.0643V44.216C35.3599 44.8678 36.1477 44.9062 36.5764 44.9062ZM38.0264 44.0888V43.2378C38.0264 43.0515 37.9856 42.7683 37.5681 42.7683H36.5764C36.2021 42.7683 36.1413 43.0083 36.1413 43.2378V44.184C36.1413 44.4863 36.4452 44.5167 36.63 44.5167H37.5681C37.884 44.5167 38.0264 44.4199 38.0264 44.0888Z" fill="white"/>
<path fill-rule="evenodd" clip-rule="evenodd" d="M24.5212 42.3748V44.9062H25.2352V44.0624H26.3559C26.6285 44.0624 26.7174 44.2506 26.7278 44.3447V44.9062H27.442V44.2831C27.442 43.9192 27.0832 43.8403 26.9214 43.8457C27.3379 43.8117 27.442 43.494 27.442 43.3394V42.8587C27.442 42.4057 26.691 42.3748 26.3559 42.3748H24.5212ZM25.2352 43.6089V42.8323H26.4583C26.9565 42.8323 26.8174 43.6089 26.4583 43.6089H25.2352Z" fill="white"/>
<path fill-rule="evenodd" clip-rule="evenodd" d="M41.0704 44.8958V42.3645H42.9051C43.2402 42.3645 44.1256 42.3689 44.1256 42.8219V43.2282C44.117 43.3418 44.0035 43.5689 43.6177 43.5689C44.2535 43.5689 44.6454 44.8958 43.4706 44.8958H41.0704ZM41.7844 42.8219V43.421H43.0075C43.4769 43.421 43.5057 42.8219 43.0075 42.8219H41.7844ZM41.7844 44.4423V43.8065H43.0075C43.6113 43.8065 43.6369 44.4423 43.0075 44.4423H41.7844Z" fill="white"/>
<path fill-rule="evenodd" clip-rule="evenodd" d="M44.739 44.8958H45.486L45.6932 44.3951H47.228L47.4503 44.8958H48.1629L46.984 42.3645H45.9275L44.739 44.8958ZM45.8747 44.0624H47.0424L46.4594 42.8171L45.8747 44.0624Z" fill="white"/>
<path fill-rule="evenodd" clip-rule="evenodd" d="M51.7332 44.8958H52.4802L52.6873 44.3951H54.2221L54.4444 44.8958H55.157L53.9782 42.3645H52.9216L51.7332 44.8958ZM52.8689 44.0624H54.0365L53.4535 42.8171L52.8689 44.0624Z" fill="white"/>
<path fill-rule="evenodd" clip-rule="evenodd" d="M32.0432 42.3748V44.9062H32.7006V44.0624H33.8779C34.2944 44.0285 34.8033 43.9704 34.8033 43.6569V42.8843C34.8033 42.4313 34.213 42.3748 33.8779 42.3748H32.0432ZM32.7006 43.6569V42.8323H33.7611C34.3122 42.8323 34.253 43.6569 33.7611 43.6569H32.7006Z" fill="white"/>
<path fill-rule="evenodd" clip-rule="evenodd" d="M55.7401 42.3644V44.8958H56.4541V44.052H57.5748C57.8474 44.052 57.9363 44.2402 57.9467 44.3343V44.8958H58.6609V44.2727C58.6609 43.9088 58.3021 43.8299 58.1402 43.8353C58.5568 43.8013 58.6609 43.4836 58.6609 43.329V42.8483C58.6609 42.3953 57.9099 42.3644 57.5748 42.3644H55.7401ZM56.4541 43.5985V42.8219H57.6772C58.1754 42.8219 58.0363 43.5985 57.6772 43.5985H56.4541Z" fill="white"/>
<path fill-rule="evenodd" clip-rule="evenodd" d="M47.927 27.6759L47.927 27.6759C48.4445 28.2284 48.8717 28.6845 49.4495 28.7017C49.5913 28.6854 49.8542 28.7004 49.771 28.8904C49.594 29.1098 49.0376 29.4799 48.2282 29.2047C48.0629 29.1485 47.8782 29.0672 47.6762 28.9782L47.6762 28.9782L47.6761 28.9782C47.1934 28.7656 46.6117 28.5095 45.9577 28.4481C45.6649 28.4481 45.4402 28.6898 46.1128 28.8904C47.7404 29.3759 49.4495 31.1578 48.7121 32.16C48.5745 32.079 48.4368 31.9353 48.2792 31.7708C47.979 31.4574 47.6065 31.0684 47.0238 30.8939C46.6108 30.791 45.873 30.7547 46.2256 31.4329C46.3927 31.8107 47.1356 32.8044 48.7697 33.7571C48.3202 34.1842 47.1549 34.055 46.4383 33.6572C46.2758 33.5669 46.1316 33.4522 45.9937 33.3426L45.9936 33.3426C45.7501 33.1489 45.5262 32.9709 45.2562 32.9709C45.6671 33.3218 46.2463 34.3266 45.7849 35.4655C45.5588 36.0235 45.2134 37.3128 45.6401 38.0064C45.3386 38.0525 44.6935 37.6716 44.5436 36.9739C44.4922 36.7346 44.447 36.4424 44.4003 36.1402C44.2536 35.1921 44.0917 34.1458 43.6751 34.3266C43.6584 34.4912 43.6862 34.7349 43.7198 35.0286C43.8282 35.9791 43.9965 37.4538 42.9129 38.4711C42.3378 39.0109 42.1163 38.8134 42.2186 38.4711C42.2493 38.3465 42.2861 38.218 42.3232 38.0887C42.4174 37.7598 42.513 37.4259 42.513 37.1394C42.513 36.3588 42.0609 35.5435 41.634 36.1589C41.4764 36.386 41.0359 37.1941 40.9598 38.827C40.98 39.1632 40.9377 39.769 40.6063 39.5028C40.2744 39.2381 39.4082 38.2319 39.8473 36.586C39.9006 36.386 39.7229 35.9253 39.6105 36.386C39.3449 37.4754 38.5544 37.6731 37.6854 37.8905C36.9485 38.0748 36.1553 38.2732 35.578 39.0413C35.3573 37.9053 35.9307 37.4985 36.64 36.9953C36.9664 36.7638 37.3216 36.5118 37.6415 36.1589C37.946 35.8229 38.0542 35.1719 37.3479 35.8126C36.5259 36.5583 34.3743 37.7193 33.1699 36.3556C33.5892 36.3556 34.6079 36.1741 35.3277 35.4479C35.5354 35.1943 35.7927 34.6612 35.1605 34.5569C34.9142 34.5377 33.5793 34.7163 32.6676 35.2543C32.6175 35.2839 32.5673 35.3144 32.5176 35.3445C32.1012 35.5974 31.7263 35.8251 31.831 35.2543C32.0427 34.0999 33.0043 33.6703 33.6423 33.3852C33.9779 33.2353 34.224 33.1254 34.224 32.9709C32.8587 33.2573 32.3771 32.7903 31.743 32.068C31.2277 31.4809 30.4946 30.7907 29.646 30.9011C29.658 30.7537 29.8568 30.4404 30.5562 30.3668C31.179 30.3668 31.9675 30.6803 32.5396 30.9078C32.7896 31.0072 32.9983 31.0902 33.1339 31.1234C33.6913 31.2602 34.1677 31.0154 33.3698 30.7387C32.4772 30.4292 30.2218 29.128 30.7417 27.418C30.8741 27.5401 30.9927 27.6523 31.1014 27.755L31.1014 27.7551C31.7965 28.4122 32.0862 28.6861 32.9811 28.7345C33.7897 28.7782 33.2914 27.6252 31.4511 26.3631C31.2333 26.2533 30.6717 25.964 30.7977 25.832C31.2304 25.3266 32.5492 25.3514 33.8817 26.5111C34.1376 26.7338 34.5455 26.7106 33.9824 26.2535C33.2265 25.6399 33.6665 24.1281 33.9433 23.1772C34.0088 22.952 34.0652 22.7582 34.0944 22.6153C34.1365 22.4092 34.021 22.1648 33.9287 21.9697C33.8333 21.7679 33.7628 21.6188 33.9168 21.6188C34.8499 21.7085 34.9476 22.4195 35.0766 23.3571C35.1454 23.8574 35.2231 24.4221 35.4412 24.9915C35.5396 25.2482 35.9004 25.7105 35.7636 24.5444C35.6228 23.345 35.7376 20.9274 37.3231 20.8526C37.3542 20.9855 37.2938 21.1702 37.2179 21.4025C37.0728 21.8466 36.8709 22.4646 37.1424 23.2271C37.2385 23.497 37.6327 24.0925 38.0334 23.2271C38.2485 22.7625 38.6788 21.4665 38.6788 20C38.7093 20.0197 38.7423 20.0398 38.7773 20.061L38.7773 20.061C39.1524 20.2889 39.7441 20.6484 39.7441 22.0658C39.7441 22.1708 39.7219 22.2685 39.6982 22.3726C39.6405 22.6264 39.5739 22.9187 39.7985 23.4495C39.9682 22.2674 40.8154 22.0266 41.768 21.7558C42.5208 21.5418 43.3394 21.3091 43.9414 20.5782C44.2089 21.5719 43.9807 21.7589 42.338 23.1057C42.2076 23.2127 42.0682 23.3269 41.9195 23.4495C41.3541 23.9154 41.7369 24.2805 41.9979 24.0125C42.0064 24.0038 42.0153 23.9946 42.0244 23.9852C42.2421 23.7603 42.643 23.3462 43.8526 22.8568C44.646 22.5359 45.4605 22.3243 46.3927 23.2335C46.3927 23.2335 44.9435 23.5399 44.434 24.0125C44.1205 24.3034 43.6408 24.9083 44.2301 25.0011C45.2314 25.0924 46.6449 24.4434 46.9479 24.3043C46.974 24.2923 46.9919 24.2841 47.0006 24.2805C47.0364 24.2655 47.0819 24.2389 47.1345 24.208C47.2757 24.1254 47.4685 24.0125 47.666 24.0125C47.7532 24.9507 47.0589 25.5761 46.5903 25.8824C46.3946 26.0103 46.1982 26.0688 46.0161 26.123C45.7205 26.2111 45.463 26.2878 45.309 26.6318C45.7078 26.5167 46.6711 26.4428 47.3333 27.0685C47.5496 27.2729 47.7439 27.4804 47.9269 27.6758L47.927 27.6759ZM39.7985 30.1917H41.0493C41.2741 30.1917 41.1549 30.4996 40.9918 30.5268C40.7134 30.5732 41.0493 30.8499 41.3661 30.5852C42.1595 29.9219 42.6966 29.6819 43.0412 29.5279C43.418 29.3595 43.5647 29.294 43.5647 28.8904C43.5622 28.8282 43.5602 28.7658 43.5582 28.7035V28.7035V28.7034V28.7034C43.5413 28.1707 43.5246 27.6454 43.1824 27.3444C42.4058 26.6614 40.296 26.2271 39.7985 26.2271C39.2346 26.2271 38.4564 26.2271 37.0408 27.0109C36.9541 27.0589 36.8604 27.0849 36.7658 27.1111C36.385 27.2167 35.9907 27.3259 35.9907 28.8904C36.1222 29.4958 36.2938 29.5356 36.6074 29.6083C36.9214 29.6811 37.3779 29.7868 38.0789 30.5268C38.454 30.9227 38.9243 30.5565 38.5276 30.5268C38.3826 30.5159 38.2704 30.1917 38.5276 30.1917H39.7985ZM38.8339 28.2834C38.8846 28.4545 38.9478 28.8765 38.7956 29.1951C38.7062 29.0384 38.4502 28.7389 38.1405 28.7953C36.9728 28.8904 36.5942 28.9178 36.529 28.1186C36.9763 27.9899 38.2133 27.9731 38.8339 28.2834ZM40.9942 28.1514C40.5791 28.2233 40.4407 28.3698 40.755 29.2375C40.7615 29.2204 40.7679 29.2024 40.7746 29.1837C40.8507 28.9711 40.9553 28.679 41.3693 28.7673C41.3733 28.7681 41.3779 28.7691 41.383 28.7703C41.3906 28.772 41.3992 28.7739 41.4089 28.7761L41.4094 28.7763C41.7294 28.8492 43.1714 29.1781 42.9584 28.0243C42.61 28.0136 41.7293 28.0241 40.9942 28.1514ZM40.69 32.489C41.0442 32.5623 41.3634 32.6284 41.2309 32.9709C41.3686 32.7193 41.5588 32.5915 41.7387 32.4707C41.9025 32.3606 42.0577 32.2563 42.1571 32.0696C42.3655 31.6777 42.5883 30.8939 41.8115 30.8939C41.2365 30.9048 40.0568 31.1317 39.9384 31.952C39.9384 32.3334 40.3321 32.4149 40.69 32.489ZM38.3261 32.9709C38.202 32.6791 38.5275 32.591 38.8862 32.494C39.249 32.3959 39.6457 32.2886 39.6457 31.952C39.6457 31.3898 38.3261 30.8939 37.7798 30.8939C36.7417 30.9827 37.0272 31.952 38.3261 32.9709ZM38.7416 34.1155C38.4604 33.9904 38.1715 33.8619 38.706 32.9709C38.9971 33.5124 39.4778 33.5124 39.7985 33.5124C39.8164 33.5113 39.8356 33.5104 39.8561 33.5094C40.1235 33.4965 40.5938 33.4739 40.8278 32.9709C41.2309 33.8555 41.1029 33.9475 40.7022 34.1842C40.1992 34.4814 39.421 34.4957 38.8827 34.1842C38.8388 34.1588 38.7903 34.1372 38.7416 34.1155Z" fill="white"/>
</svg>
