<svg width="102" height="62" viewBox="0 0 102 62" fill="none" xmlns="http://www.w3.org/2000/svg">

<path fill-rule="evenodd" clip-rule="evenodd" d="M56.292 36.5568C52.9302 36.5568 50.2049 33.8316 50.2049 30.4698C50.2049 27.108 52.9302 24.3827 56.292 24.3827C57.8905 24.3827 59.345 24.9988 60.4312 26.0066V24.3827H62.379V36.5568H60.4312V34.9329C59.345 35.9407 57.8905 36.5568 56.292 36.5568ZM56.292 34.609C58.578 34.609 60.4312 32.7558 60.4312 30.4698C60.4312 28.1837 58.578 26.3306 56.292 26.3306C54.0059 26.3306 52.1528 28.1837 52.1528 30.4698C52.1528 32.7558 54.0059 34.609 56.292 34.609Z" fill="white"/>
<path fill-rule="evenodd" clip-rule="evenodd" d="M46.7961 24.3827H48.744V36.5568C48.3382 38.0177 46.5527 40.9395 42.6569 40.9395C38.7612 40.9395 36.9757 38.0177 36.5699 36.5568H38.7612C39.0047 37.3684 40.1247 38.9917 42.6569 38.9917C45.1892 38.9917 46.4715 37.3684 46.7961 36.5568V34.9329C45.71 35.9407 44.2554 36.5568 42.6569 36.5568C39.2951 36.5568 36.5699 33.8316 36.5699 30.4698C36.5699 27.108 39.2951 24.3827 42.6569 24.3827C44.2554 24.3827 45.71 24.9988 46.7961 26.0066V24.3827ZM42.6569 34.609C44.943 34.609 46.7961 32.7558 46.7961 30.4698C46.7961 28.1837 44.943 26.3306 42.6569 26.3306C40.3709 26.3306 38.5177 28.1837 38.5177 30.4698C38.5177 32.7558 40.3709 34.609 42.6569 34.609Z" fill="white"/>
<path d="M32.6741 24.3827H35.109V36.5568H32.6741V24.3827Z" fill="white"/>
<path d="M21.4739 20.487V22.9218H26.8306L20.5 36.5568H28.7784V37.7742L31.7002 35.3394L28.7784 33.1481V34.122H23.9088L30.4828 20.487H21.4739Z" fill="white"/>
<path d="M63.353 31.9307V30.4698H78.4489V31.9307H63.353Z" fill="white"/>
<path d="M63.353 34.122V32.6611H81.3707V34.122H63.353Z" fill="white"/>
<path d="M63.353 36.5568V35.0959H75.5271V36.5568H63.353Z" fill="white"/>
<path d="M51.098 37.2521V37.6756C50.9393 37.6076 50.8033 37.5736 50.69 37.5736C50.6055 37.5736 50.5354 37.5911 50.4798 37.6261C50.4241 37.6591 50.3891 37.6982 50.3747 37.7436C50.3602 37.7868 50.353 37.9043 50.353 38.096V38.5503H51.0547V38.9213H50.3499V41.9134H49.9172V38.9213H49.4752V38.5503H49.9172V38.0249C49.9172 37.7838 49.9388 37.6117 49.9821 37.5086C50.0274 37.4056 50.1027 37.3232 50.2078 37.2614C50.3149 37.1975 50.4437 37.1655 50.5941 37.1655C50.7343 37.1655 50.9022 37.1944 51.098 37.2521Z" fill="white"/>
<path d="M51.6389 37.2521H52.0717V41.9134H51.6389V37.2521Z" fill="white"/>
<path d="M55.8026 40.7976L56.1674 40.9892C56.0479 41.2241 55.9098 41.4137 55.7532 41.558C55.5965 41.7022 55.4204 41.8125 55.2246 41.8887C55.0288 41.9629 54.8073 42 54.56 42C54.0119 42 53.5832 41.8207 53.2741 41.4622C52.965 41.1015 52.8104 40.6945 52.8104 40.2412C52.8104 39.8146 52.9413 39.4344 53.203 39.1006C53.5348 38.676 53.9789 38.4638 54.5353 38.4638C55.1082 38.4638 55.5656 38.6812 55.9077 39.116C56.1509 39.4231 56.2745 39.8064 56.2787 40.2659H53.2556C53.2638 40.6574 53.3885 40.9789 53.6296 41.2303C53.8707 41.4797 54.1685 41.6043 54.5229 41.6043C54.694 41.6043 54.8598 41.5745 55.0206 41.5147C55.1834 41.4549 55.3214 41.3756 55.4348 41.2767C55.5481 41.1778 55.6707 41.0181 55.8026 40.7976ZM55.8026 39.8919C55.7449 39.6611 55.6604 39.4766 55.5492 39.3386C55.4399 39.2005 55.2947 39.0892 55.1133 39.0047C54.932 38.9202 54.7413 38.878 54.5415 38.878C54.2117 38.878 53.9284 38.9841 53.6914 39.1964C53.5183 39.3509 53.3875 39.5828 53.2988 39.8919H55.8026Z" fill="white"/>
<path d="M59.92 40.7976L60.2847 40.9892C60.1652 41.2241 60.0271 41.4137 59.8705 41.558C59.7139 41.7022 59.5377 41.8125 59.3419 41.8887C59.1462 41.9629 58.9246 42 58.6773 42C58.1292 42 57.7006 41.8207 57.3914 41.4622C57.0823 41.1015 56.9278 40.6945 56.9278 40.2412C56.9278 39.8146 57.0586 39.4344 57.3204 39.1006C57.6521 38.676 58.0962 38.4638 58.6526 38.4638C59.2255 38.4638 59.683 38.6812 60.0251 39.116C60.2682 39.4231 60.3919 39.8064 60.396 40.2659H57.3729C57.3811 40.6574 57.5058 40.9789 57.7469 41.2303C57.988 41.4797 58.2858 41.6043 58.6402 41.6043C58.8113 41.6043 58.9772 41.5745 59.1379 41.5147C59.3007 41.4549 59.4388 41.3756 59.5521 41.2767C59.6655 41.1778 59.7881 41.0181 59.92 40.7976ZM59.92 39.8919C59.8623 39.6611 59.7778 39.4766 59.6665 39.3386C59.5573 39.2005 59.412 39.0892 59.2306 39.0047C59.0493 38.9202 58.8587 38.878 58.6588 38.878C58.3291 38.878 58.0457 38.9841 57.8087 39.1964C57.6356 39.3509 57.5048 39.5828 57.4162 39.8919H59.92Z" fill="white"/>
<path d="M61.583 37.3015H62.0188V38.5503H62.705V38.9213H62.0188V41.9134H61.583V38.9213H60.9926V38.5503H61.583V37.3015Z" fill="white"/>
<path d="M35.5959 21.7044C35.5959 22.6457 34.8329 23.4088 33.8916 23.4088C32.9502 23.4088 32.1872 22.6457 32.1872 21.7044C32.1872 20.7631 32.9502 20 33.8916 20C34.8329 20 35.5959 20.7631 35.5959 21.7044Z" fill="white"/>
</svg>
