<svg width="144" height="66" viewBox="0 0 144 66" fill="none" xmlns="http://www.w3.org/2000/svg">

<path d="M23.5801 22.5442H26.2997C26.2997 22.5442 26.3874 23.3338 26.212 23.6847C26.0366 24.0356 25.93 24.1849 25.4224 24.3865C25.1592 24.4911 22.1763 24.562 21.8254 24.3865C21.3105 24.1291 21.2616 23.7617 21.1236 23.4215C20.8847 22.4749 20.8844 21.9369 21.1236 20.965C21.2421 20.5347 21.3461 20.3617 21.9132 20.1755C23.3916 19.9626 24.1993 19.9579 25.5979 20.1755C25.9408 20.2999 26.0977 20.4094 26.212 20.7896V21.2282M31.739 22.5442C32.1411 22.3973 32.3882 22.281 32.5286 21.9301C32.704 21.4914 32.6547 21.235 32.5286 20.7896C32.3642 20.3692 32.2026 20.2211 31.739 20.1755H27.9666V22.5442M31.739 22.5442H27.9666M31.739 22.5442C32.3601 22.6227 32.5254 22.7527 32.5286 23.246V24.562M27.9666 22.5442V24.562M34.2832 20V23.7724C34.3552 24.2253 34.5464 24.3423 34.985 24.3865C36.3002 24.5191 37.0329 24.5184 38.3188 24.3865C38.7575 24.2988 39.1084 24.2111 39.1084 23.7724V20.1755M40.9507 24.562V20.1755H44.8109C45.2719 20.182 45.4375 20.2938 45.425 20.7896V21.9301C45.439 22.3473 45.3004 22.4564 44.8109 22.4565H40.9507M51.303 20.1755C51.822 20.2432 51.9854 20.371 52.0048 20.7896C52.1923 21.9559 52.1966 22.609 52.0048 23.7724C51.9171 24.1233 51.7255 24.2328 51.303 24.2988C49.7406 24.419 48.9294 24.4166 47.6183 24.2988C47.1468 24.2409 46.8827 24.1233 46.8287 23.7724C46.6532 22.6319 46.6586 21.9385 46.8287 20.7896C46.9287 20.3898 47.0981 20.254 47.6183 20.1755C48.9988 20.002 49.8149 20.0029 51.303 20.1755Z" stroke="white" stroke-width="0.526385"/>
<path d="M38.7143 34.4753H33.9291C33.9291 33.9197 33.9291 32.1943 32.4377 31.9311C25.3315 31.2292 25.2438 32.5452 25.507 36.4931C25.7234 39.7391 34.4555 39.4759 33.9291 36.6686H38.7143C39.0175 41.1428 37.1927 42.3711 29.8935 42.3711C22.875 42.3711 20.8572 41.3534 20.8572 35.5281C20.5063 28.9483 24.0682 28.7728 30.2444 28.7728C37.7892 28.7728 39.0175 30.3519 38.7143 34.4753Z" fill="white"/>
<path d="M68.5828 28.9483H63.6698V42.0201H68.846V34.2998C69.1092 31.7556 74.4607 32.1066 74.4607 34.2998V35.0017H78.8473V32.9839C78.8473 30.3519 76.9172 28.8782 73.7589 28.7728C71.3902 28.6937 69.4601 29.036 68.5828 31.2293V28.9483Z" fill="white"/>
<path d="M98.9376 32.8084H93.6738C93.6738 31.5802 92.0288 31.7556 90.2523 31.7556C88.4757 31.7556 86.743 31.7556 86.743 32.7207C86.743 33.2471 87.0062 33.6857 89.1118 33.6857C94.8143 33.6857 99.7272 32.9839 99.6395 37.7213C99.3763 41.7569 98.4112 42.0201 91.3928 42.2833C87.7958 42.2833 81.3915 43.1606 81.3915 37.9845H86.6553C86.6553 38.9496 87.3572 39.2127 90.5155 39.2127C93.3897 39.2961 94.3756 39.0373 94.3756 38.2477C94.3756 36.9317 93.0016 37.0175 89.6382 37.1072C83.5869 37.2686 81.5669 36.4054 81.5669 32.8084C81.5669 28.8605 83.5847 28.6851 90.6909 28.6851C96.9198 28.6851 99.2008 29.5624 98.9376 32.8084Z" fill="white"/>
<path fill-rule="evenodd" clip-rule="evenodd" d="M42.7022 32.9839H47.5274C47.2363 31.6011 49.7221 31.6673 52.0805 31.73C52.5651 31.7429 53.0444 31.7556 53.4931 31.7556C54.5458 31.7556 54.8968 32.5452 54.7213 34.6508C53.844 33.5103 51.1716 33.5055 48.0538 33.638L47.9602 33.6419C44.6677 33.7815 41.9143 33.8982 42.0881 37.8091C42.0881 41.7459 44.4205 42.2639 47.5274 42.2833C47.8165 42.2851 48.1052 42.2892 48.392 42.2932C50.9993 42.3296 53.4568 42.3639 54.7213 40.7042V42.0201H59.6342V32.9839C59.6342 28.8605 56.2601 28.8605 51.0366 28.8605C50.5008 28.8605 49.9905 28.8556 49.5059 28.8509C44.9916 28.8071 42.7022 28.7849 42.7022 32.9839ZM51.1243 36.2299C54.0195 36.2299 54.599 36.5389 54.7213 37.7213C54.8277 38.7497 54.0195 39.0696 50.9489 39.2127C48.9311 39.3068 46.9133 39.0658 46.9133 37.8091C46.9133 36.6351 48.1414 36.2299 51.1243 36.2299Z" fill="white"/>
<ellipse cx="113.852" cy="35.7914" rx="10.089" ry="9.29946" fill="white"/>
</svg>
