<svg width="67" height="62" viewBox="0 0 67 62" fill="none" xmlns="http://www.w3.org/2000/svg">

<path d="M24.3936 24.8245C25.0642 23.3494 26.8075 23.0364 27.4781 22.947C28.0144 22.8755 28.2826 22.947 28.5508 22.947C28.9532 22.947 29.4731 22.3882 30.026 22.1424C30.4283 21.9636 30.9647 21.7401 31.7694 22.0083C32.7081 21.2037 32.9763 21.2037 33.2445 21.3378C33.4491 21.44 33.6469 21.606 34.0492 21.606C34.4515 21.606 34.5856 20.6672 35.5243 21.2037C35.8788 21.4062 36.1949 20.2649 37.67 20.6672C37.9382 20.7119 38.4747 20.9355 38.877 20.5331C39.628 19.5676 40.2627 20.1308 40.4862 20.5331C40.608 20.7523 41.0195 20.6688 41.2909 20.5331C41.5591 20.399 41.8273 20.5332 41.9614 20.6673C42.1849 20.9355 42.2652 21.4718 41.8273 21.4719C41.5591 21.4719 41.425 21.606 41.2909 21.7401C41.0788 21.9521 40.969 22.1156 40.7545 22.0083C39.8962 21.2573 39.9498 22.0083 39.8157 22.4106C39.8157 22.4106 39.713 22.7103 39.5475 22.5447C39.1184 22.1156 39.1452 22.4106 39.1452 22.5448C39.1452 22.8129 38.9574 23.0812 38.7429 23.0812C38.3406 23.0812 38.0723 22.6788 37.8041 22.6789C37.4018 22.6788 36.4107 22.9764 36.1949 22.5447C36.1433 22.4416 35.7926 22.2765 35.6584 22.5447C35.5243 22.8129 35.2561 22.8129 35.122 22.8129C34.9879 22.8129 34.8002 22.7592 34.5856 22.5447C34.371 22.3301 34.1386 22.4553 34.0492 22.5447C33.781 22.8129 32.7886 23.0275 32.574 22.8129C32.2556 22.4944 32.1717 22.5447 32.0376 22.6788C31.9035 22.8129 31.7157 23.1884 30.9647 23.6175C30.1065 23.9394 30.1601 23.6622 30.2942 23.4834L30.5624 23.2152C30.6071 23.1705 30.6965 22.947 30.4283 23.0812C29.7846 23.5103 29.132 23.5281 28.8191 23.4834C28.5955 23.4387 27.9876 23.4566 27.3439 23.8857C26.5929 24.6367 26.2264 24.4668 26.1369 24.288C26.0922 24.1986 25.976 24.0466 25.8687 24.1539C25.3752 24.9049 24.9479 25.1821 24.796 25.2268C24.5724 25.2715 24.2863 25.2537 24.3936 24.8245Z" fill="white"/>
<path d="M41.4251 22.947C42.9003 21.3378 41.1653 22.8213 41.0228 22.6788C40.7009 22.357 40.3523 22.6788 40.2182 22.947C40.0393 23.26 39.9499 23.4835 39.4135 23.3494C38.7153 23.1748 38.6089 23.3494 38.6089 23.4835C38.6089 23.6176 38.4748 24.0199 38.2066 23.8858C37.3483 23.3494 36.9996 23.4835 36.8655 23.8858C36.7314 24.154 36.6241 24.3954 35.6584 24.8245C34.2637 25.2537 33.1999 26.1656 32.8423 26.5679L30.8308 26.702L28.8192 29.7864C27.667 31.0957 26.5394 32.8709 25.7347 33.2732C25.243 33.452 24.2596 33.6755 24.2596 34.4801C24.2596 35.0166 24.0757 35.3709 23.8573 35.553C23.0526 36.2235 21.497 37.8596 21.7116 38.5033C21.9262 39.147 21.9798 39.7103 21.8457 39.8444C21.6886 40.1586 21.3779 40.4055 21.3092 40.7831C21.2198 41.2748 21.2556 41.8828 21.5775 41.99C21.8457 42.0795 22.1275 41.5469 22.248 41.1854C22.3821 40.7831 22.7039 40.4076 22.9185 40.5149C23.1331 40.6222 23.4102 40.4255 23.4549 40.3808C23.6337 40.2467 23.8573 40.0321 23.8573 39.7103C23.8573 39.3268 24.1254 39.3079 24.1254 39.8444C24.1254 39.9785 24.1254 40.3808 24.2596 40.3808C24.3936 40.3808 24.2834 40.0634 24.357 39.8929C24.4186 39.7501 24.5152 39.625 24.6619 39.5761C24.9837 39.4689 25.0851 39.8929 25.4665 39.8444C25.8479 39.7958 27.3959 38.4773 28.6851 37.8328C29.3109 37.5199 30.2943 36.894 30.8307 36.894C31.6353 36.894 30.6966 37.4305 31.233 37.5646C31.6353 37.6651 32.7082 37.2963 33.3787 36.7599C33.7334 36.4762 34.0847 36.2994 34.3175 36.3576C34.8539 36.4917 35.9267 36.3576 36.4632 36.0894C36.8655 35.8212 37.6701 36.6258 38.743 35.6871C38.9665 35.4636 39.5744 35.097 40.2181 35.4189C40.7546 35.6871 42.2297 35.9553 43.1684 35.6871C43.5707 35.553 43.839 35.1507 44.6436 35.4189C45.6594 35.7575 46.7893 34.8824 44.5095 35.0166C43.9731 34.6142 43.5707 34.7483 43.1685 34.8824C42.9002 35.0166 42.632 35.0166 42.3638 34.8824C41.0764 34.1315 40.2181 34.2566 39.9499 34.346C39.7264 34.4354 39.038 34.5606 38.0724 34.346C37.1069 33.9169 36.5079 34.0778 36.3291 34.2119C36.0609 34.4801 35.3635 34.9361 34.7198 34.6142C34.0761 34.2924 33.5128 34.346 33.2446 34.7483C33.0783 34.9978 32.6956 35.1444 32.44 35.0166C31.5817 34.5874 31.099 35.0166 30.9648 35.2848C30.8754 35.5083 30.5894 35.9017 30.1602 35.6871C29.6238 35.4189 29.3556 35.4189 28.9533 35.6871C28.6314 35.9017 28.1486 35.9553 28.0145 35.6871C27.9698 35.5977 27.7195 35.4993 27.0758 35.8212C23.75 37.4305 25.0642 35.5977 26.137 34.4801L28.2827 32.8709C28.6851 32.558 29.5433 31.7444 29.7579 30.9934C30.2943 30.1351 31.1437 29.7417 31.5013 29.6523C32.0377 29.5182 32.3059 29.5182 32.9764 28.7136C33.9152 27.5066 34.1834 27.5066 34.988 27.2384C35.7927 26.9702 36.1617 27.0456 36.9996 26.8361C37.4019 26.3444 38.3943 25.2805 39.1453 24.9586C40.2072 24.6401 40.3494 24.4266 40.6123 24.0322L40.6205 24.0199C40.7868 23.7704 41.1569 23.2153 41.4251 22.947Z" fill="white"/>
<path d="M23.0527 26.2998L22.3822 27.2386L22.6504 27.3727L23.0527 26.8362H25.1984L20.6388 31.7982H26.4054L27.21 30.5912C26.8077 30.8594 26.6736 30.9935 26.2713 30.9935H23.455L27.7464 26.2998H23.0527Z" fill="white"/>
<path d="M29.0875 26.2998H33.1106L32.9765 27.3727C32.8424 27.2386 32.7083 26.9703 32.306 26.9703H31.2332L30.6967 28.5796H32.1719L32.0378 29.5184C32.0378 29.3842 31.7696 29.116 31.5014 29.116H30.6967L30.0262 30.9935H32.306C32.5742 30.9935 32.8424 30.8594 33.1106 30.7253L32.1719 31.7982H27.6123C28.2828 31.1276 28.551 30.4571 28.9534 28.9819C29.0875 28.3114 29.0875 27.0598 29.0875 26.2998Z" fill="white"/>
<path d="M34.9881 26.2998L34.3176 27.2386C34.5858 26.9703 34.7199 26.9703 34.9881 26.9703H36.1951C36.061 27.5515 35.7391 28.9283 35.5245 29.7866C35.2921 30.7164 34.7199 31.5299 34.4517 31.7982H37.402C37.0802 31.6909 36.8656 31.1276 36.9997 30.5912L38.2067 26.9703H39.0113C39.4136 26.9703 39.5477 27.2386 39.5477 27.3727L40.2182 26.2998H34.9881Z" fill="white"/>
<path fill-rule="evenodd" clip-rule="evenodd" d="M38.2067 31.7982L42.2298 26.9703C42.3639 26.7021 42.2298 26.4339 42.0957 26.2998H44.6437C44.6437 27.775 45.5825 30.9935 46.1189 31.7982H43.1686C43.6156 31.4852 44.1609 30.6985 43.3027 30.0548H41.157C40.7547 30.323 40.0841 31.1276 40.0841 31.7982H38.2067ZM42.9003 27.5068L41.4252 29.3842H43.3027L42.9003 27.5068Z" fill="white"/>
<path d="M22.9186 26.0316L22.2481 26.9703L22.5163 27.1045L22.9186 26.568H25.0643L20.5047 31.5299H26.2713L27.0759 30.323C26.6736 30.5912 26.5395 30.7253 26.1371 30.7253H23.3209L27.6123 26.0316H22.9186Z" fill="white"/>
<path d="M28.9534 26.0316H32.9765L32.8424 27.1045C32.7083 26.9703 32.5742 26.7021 32.1719 26.7021H31.0991L30.5626 28.3114H32.0378L31.9037 29.2501C31.9037 29.116 31.6355 28.8478 31.3673 28.8478H30.5626L29.8921 30.7253H32.1719C32.4401 30.7253 32.7083 30.5912 32.9765 30.4571L32.0378 31.5299H27.4782C28.1487 30.8594 28.4169 30.1889 28.8193 28.7137C28.9534 28.0432 28.9534 26.7915 28.9534 26.0316Z" fill="white"/>
<path d="M34.854 26.0316L34.1835 26.9703C34.4517 26.7021 34.5858 26.7021 34.854 26.7021H36.061C35.9269 27.2833 35.605 28.6601 35.3904 29.5184C35.158 30.4482 34.5858 31.2617 34.3176 31.5299H37.2679C36.9461 31.4227 36.7315 30.8594 36.8656 30.323L38.0725 26.7021H38.8772C39.2795 26.7021 39.4136 26.9703 39.4136 27.1045L40.0841 26.0316H34.854Z" fill="white"/>
<path fill-rule="evenodd" clip-rule="evenodd" d="M38.0725 31.5299L42.0957 26.7021C42.2298 26.4339 42.0957 26.1657 41.9616 26.0316H44.5096C44.5096 27.5068 45.4484 30.7253 45.9848 31.5299H43.0345C43.4815 31.217 44.0268 30.4303 43.1686 29.7866H41.0229C40.6206 30.0548 39.95 30.8594 39.95 31.5299H38.0725ZM42.7662 27.2386L41.2911 29.116H43.1686L42.7662 27.2386Z" fill="white"/>
<path d="M20.7835 33.3944V32.4912H20.3706V32.3539H21.413V32.4912H21.002V33.3944H20.7835Z" fill="#3274BA"/>
<path d="M21.6883 33.3944V32.3539H22.2817C22.426 32.3539 22.5309 32.384 22.5964 32.4444C22.6632 32.5036 22.6966 32.5844 22.6966 32.6867C22.6966 32.76 22.6739 32.8224 22.6284 32.8741C22.583 32.9258 22.5175 32.9619 22.432 32.9824C22.456 32.9964 22.4748 33.0115 22.4881 33.0276C22.5015 33.0438 22.5148 33.0653 22.5282 33.0923L22.6906 33.3944H22.4661L22.3077 33.1036C22.293 33.0756 22.275 33.0556 22.2536 33.0438C22.2335 33.0319 22.1988 33.026 22.1494 33.026H21.9068V33.3944H21.6883ZM21.9068 32.8838H22.2235C22.3024 32.8838 22.3645 32.8682 22.4099 32.837C22.4554 32.8057 22.4781 32.7557 22.4781 32.6867C22.4781 32.5564 22.3999 32.4912 22.2436 32.4912H21.9068V32.8838Z" fill="#3274BA"/>
<path d="M22.8839 33.3944L23.377 32.3539H23.6215L24.1107 33.3944H23.8861L23.7579 33.1262H23.2387L23.1104 33.3944H22.8839ZM23.2728 32.9905H23.7218L23.4973 32.5138L23.2728 32.9905Z" fill="#3274BA"/>
<path d="M24.4258 33.3944V32.3539H24.6182L25.2917 33.1197V32.3539H25.5082V33.3944H25.3158L24.6443 32.6302V33.3944H24.4258Z" fill="#3274BA"/>
<path d="M26.2539 33.4106C26.0868 33.4106 25.9525 33.3933 25.851 33.3589V33.2037C25.9084 33.221 25.9699 33.235 26.0354 33.2458C26.1022 33.2565 26.1684 33.2619 26.2338 33.2619C26.3367 33.2619 26.4136 33.2522 26.4644 33.2328C26.5165 33.2134 26.5425 33.1747 26.5425 33.1165C26.5425 33.081 26.5318 33.0524 26.5105 33.0309C26.4891 33.0093 26.4537 32.991 26.4042 32.9759C26.3548 32.9598 26.2866 32.9431 26.1998 32.9258C26.0608 32.8968 25.9632 32.8601 25.9071 32.816C25.851 32.7707 25.8229 32.7088 25.8229 32.6302C25.8229 32.5386 25.8643 32.467 25.9472 32.4153C26.03 32.3636 26.1537 32.3377 26.318 32.3377C26.3929 32.3377 26.463 32.342 26.5285 32.3506C26.5953 32.3593 26.6474 32.369 26.6849 32.3797V32.5348C26.5833 32.5036 26.471 32.488 26.3481 32.488C26.2519 32.488 26.177 32.4982 26.1236 32.5187C26.0701 32.5391 26.0434 32.5763 26.0434 32.6302C26.0434 32.6614 26.0528 32.6867 26.0715 32.7061C26.0902 32.7255 26.1223 32.7422 26.1677 32.7562C26.2145 32.7702 26.2786 32.7858 26.3601 32.803C26.4657 32.8246 26.5472 32.8504 26.6047 32.8806C26.6635 32.9097 26.7042 32.9442 26.727 32.984C26.751 33.0228 26.763 33.0669 26.763 33.1165C26.763 33.2081 26.7209 33.2802 26.6367 33.333C26.5526 33.3847 26.4249 33.4106 26.2539 33.4106Z" fill="#3274BA"/>
<path d="M27.0751 33.3944V32.3539H27.6504C27.7493 32.3539 27.8308 32.369 27.895 32.3991C27.9591 32.4293 28.0066 32.4707 28.0373 32.5235C28.068 32.5752 28.0834 32.6345 28.0834 32.7013C28.0834 32.8047 28.0433 32.8876 27.9631 32.9501C27.8843 33.0126 27.7774 33.0438 27.6424 33.0438H27.2936V33.3944H27.0751ZM27.2936 32.9048H27.6023C27.6892 32.9048 27.7547 32.8865 27.7988 32.8499C27.8429 32.8133 27.8649 32.7637 27.8649 32.7013C27.8649 32.6345 27.8435 32.5828 27.8008 32.5461C27.7593 32.5095 27.6965 32.4912 27.6123 32.4912H27.2936V32.9048Z" fill="#3274BA"/>
<path d="M28.929 33.4106C28.7245 33.4106 28.5715 33.3675 28.47 33.2813C28.3684 33.1941 28.3176 33.0594 28.3176 32.8774C28.3176 32.6878 28.3684 32.5505 28.47 32.4654C28.5715 32.3803 28.7245 32.3377 28.929 32.3377C29.1348 32.3377 29.2878 32.3803 29.388 32.4654C29.4896 32.5505 29.5404 32.6878 29.5404 32.8774C29.5404 33.0594 29.4896 33.1941 29.388 33.2813C29.2878 33.3675 29.1348 33.4106 28.929 33.4106ZM28.929 33.2619C29.064 33.2619 29.1629 33.2323 29.2257 33.173C29.2898 33.1127 29.3219 33.0142 29.3219 32.8774C29.3219 32.733 29.2898 32.6323 29.2257 32.5752C29.1629 32.5171 29.064 32.488 28.929 32.488C28.7954 32.488 28.6965 32.5171 28.6323 32.5752C28.5695 32.6323 28.5381 32.733 28.5381 32.8774C28.5381 33.0142 28.5695 33.1127 28.6323 33.173C28.6965 33.2323 28.7954 33.2619 28.929 33.2619Z" fill="#3274BA"/>
<path d="M29.8537 33.3944V32.3539H30.447C30.5913 32.3539 30.6962 32.384 30.7617 32.4444C30.8285 32.5036 30.862 32.5844 30.862 32.6867C30.862 32.76 30.8392 32.8224 30.7938 32.8741C30.7484 32.9258 30.6829 32.9619 30.5974 32.9824C30.6214 32.9964 30.6401 33.0115 30.6535 33.0276C30.6668 33.0438 30.6802 33.0653 30.6936 33.0923L30.8559 33.3944H30.6314L30.4731 33.1036C30.4584 33.0756 30.4403 33.0556 30.419 33.0438C30.3989 33.0319 30.3642 33.026 30.3147 33.026H30.0722V33.3944H29.8537ZM30.0722 32.8838H30.3889C30.4677 32.8838 30.5299 32.8682 30.5753 32.837C30.6207 32.8057 30.6435 32.7557 30.6435 32.6867C30.6435 32.5564 30.5653 32.4912 30.4089 32.4912H30.0722V32.8838Z" fill="#3274BA"/>
<path d="M31.5121 33.3944V32.4912H31.0992V32.3539H32.1416V32.4912H31.7306V33.3944H31.5121Z" fill="#3274BA"/>
<path d="M32.4169 33.3944V32.3539H33.3169V32.4912H32.6354V32.8063H33.2428V32.942H32.6354V33.2587H33.3169V33.3944H32.4169Z" fill="#3274BA"/>
<path d="M33.971 33.4106C33.8039 33.4106 33.6696 33.3933 33.5681 33.3589V33.2037C33.6255 33.221 33.687 33.235 33.7525 33.2458C33.8193 33.2565 33.8854 33.2619 33.9509 33.2619C34.0538 33.2619 34.1307 33.2522 34.1814 33.2328C34.2336 33.2134 34.2596 33.1747 34.2596 33.1165C34.2596 33.081 34.2489 33.0524 34.2275 33.0309C34.2062 33.0093 34.1708 32.991 34.1213 32.9759C34.0719 32.9598 34.0037 32.9431 33.9168 32.9258C33.7779 32.8968 33.6803 32.8601 33.6242 32.816C33.5681 32.7707 33.54 32.7088 33.54 32.6302C33.54 32.5386 33.5814 32.467 33.6643 32.4153C33.7471 32.3636 33.8707 32.3377 34.0351 32.3377C34.1099 32.3377 34.1801 32.342 34.2456 32.3506C34.3124 32.3593 34.3645 32.369 34.4019 32.3797V32.5348C34.3004 32.5036 34.1881 32.488 34.0652 32.488C33.969 32.488 33.8941 32.4982 33.8407 32.5187C33.7872 32.5391 33.7605 32.5763 33.7605 32.6302C33.7605 32.6614 33.7698 32.6867 33.7886 32.7061C33.8073 32.7255 33.8393 32.7422 33.8848 32.7562C33.9315 32.7702 33.9957 32.7858 34.0772 32.803C34.1828 32.8246 34.2643 32.8504 34.3218 32.8806C34.3806 32.9097 34.4213 32.9442 34.444 32.984C34.4681 33.0228 34.4801 33.0669 34.4801 33.1165C34.4801 33.2081 34.438 33.2802 34.3538 33.333C34.2696 33.3847 34.142 33.4106 33.971 33.4106Z" fill="#3274BA"/>
<path d="M35.7453 33.4106C35.5783 33.4106 35.4439 33.3933 35.3424 33.3589V33.2037C35.3998 33.221 35.4613 33.235 35.5268 33.2458C35.5936 33.2565 35.6598 33.2619 35.7253 33.2619C35.8282 33.2619 35.905 33.2522 35.9558 33.2328C36.0079 33.2134 36.034 33.1747 36.034 33.1165C36.034 33.081 36.0233 33.0524 36.0019 33.0309C35.9805 33.0093 35.9451 32.991 35.8956 32.9759C35.8462 32.9598 35.778 32.9431 35.6912 32.9258C35.5522 32.8968 35.4546 32.8601 35.3985 32.816C35.3424 32.7707 35.3143 32.7088 35.3143 32.6302C35.3143 32.5386 35.3557 32.467 35.4386 32.4153C35.5215 32.3636 35.6451 32.3377 35.8094 32.3377C35.8843 32.3377 35.9544 32.342 36.0199 32.3506C36.0867 32.3593 36.1389 32.369 36.1763 32.3797V32.5348C36.0747 32.5036 35.9625 32.488 35.8395 32.488C35.7433 32.488 35.6685 32.4982 35.615 32.5187C35.5615 32.5391 35.5348 32.5763 35.5348 32.6302C35.5348 32.6614 35.5442 32.6867 35.5629 32.7061C35.5816 32.7255 35.6137 32.7422 35.6591 32.7562C35.7059 32.7702 35.77 32.7858 35.8515 32.803C35.9571 32.8246 36.0386 32.8504 36.0961 32.8806C36.1549 32.9097 36.1957 32.9442 36.2184 32.984C36.2424 33.0228 36.2545 33.0669 36.2545 33.1165C36.2545 33.2081 36.2124 33.2802 36.1282 33.333C36.044 33.3847 35.9164 33.4106 35.7453 33.4106Z" fill="#3274BA"/>
<path d="M36.5264 33.3944V33.2571H36.7109V33.3944H36.5264Z" fill="#3274BA"/>
<path d="M36.9869 33.3944L37.48 32.3539H37.7246L38.2137 33.3944H37.9892L37.8609 33.1262H37.3417L37.2134 33.3944H36.9869ZM37.3758 32.9905H37.8248L37.6003 32.5138L37.3758 32.9905Z" fill="#3274BA"/>
<path d="M38.4887 33.3944V33.2571H38.6731V33.3944H38.4887Z" fill="#3274BA"/>
<path d="M39.5495 33.3944V32.3539H40.0726C40.2637 32.3539 40.4054 32.3948 40.4976 32.4767C40.5898 32.5575 40.6359 32.6921 40.6359 32.8806C40.6359 33.0583 40.5905 33.1887 40.4996 33.2716C40.4087 33.3535 40.2664 33.3944 40.0726 33.3944H39.5495ZM39.768 33.2587H40.0386C40.1228 33.2587 40.1929 33.249 40.249 33.2296C40.3052 33.2091 40.3473 33.1714 40.3753 33.1165C40.4034 33.0616 40.4174 32.9829 40.4174 32.8806C40.4174 32.7783 40.4047 32.6991 40.3793 32.6431C40.3539 32.5871 40.3132 32.5478 40.2571 32.5251C40.2023 32.5025 40.1294 32.4912 40.0386 32.4912H39.768V33.2587Z" fill="#3274BA"/>
<path d="M40.9515 33.3944V32.3539H41.8515V32.4912H41.17V32.8063H41.7773V32.942H41.17V33.2587H41.8515V33.3944H40.9515Z" fill="#3274BA"/>
<path d="M43.3214 33.4106C43.1089 33.4106 42.9479 33.3637 42.8383 33.27C42.73 33.1763 42.6759 33.0497 42.6759 32.8903C42.6759 32.7761 42.6986 32.6781 42.7441 32.5962C42.7908 32.5133 42.8617 32.4497 42.9566 32.4056C43.0514 32.3603 43.1724 32.3377 43.3194 32.3377C43.3942 32.3377 43.4624 32.3426 43.5238 32.3523C43.5866 32.3609 43.6448 32.3727 43.6982 32.3878V32.5413C43.6448 32.5241 43.5873 32.5111 43.5258 32.5025C43.4657 32.4928 43.4022 32.488 43.3354 32.488C43.175 32.488 43.0615 32.5224 42.9946 32.5914C42.9292 32.6603 42.8964 32.76 42.8964 32.8903C42.8964 33.012 42.9325 33.1046 43.0047 33.1682C43.0768 33.2307 43.1884 33.2619 43.3394 33.2619C43.4009 33.2619 43.4624 33.2581 43.5238 33.2506C43.5866 33.242 43.6454 33.2291 43.7002 33.2118V33.3669C43.6468 33.3809 43.5886 33.3917 43.5258 33.3993C43.4644 33.4068 43.3962 33.4106 43.3214 33.4106Z" fill="#3274BA"/>
<path d="M43.9722 33.3944V33.2571H44.1566V33.3944H43.9722Z" fill="#3274BA"/>
<path d="M44.9258 33.3944L44.4327 32.3539H44.6592L45.0461 33.2054L45.4329 32.3539H45.6595L45.1703 33.3944H44.9258Z" fill="#3274BA"/>
<path d="M45.9345 33.3944V33.2571H46.1189V33.3944H45.9345Z" fill="#3274BA"/>
</svg>
