<svg width="116" height="65" viewBox="0 0 116 65" fill="none" xmlns="http://www.w3.org/2000/svg">

<path d="M63.5901 37.0836H61.7265V24.1609H63.5901V37.0836Z" fill="white"/>
<path d="M67.741 20H65.9056V31.5773C65.9244 33.5069 67.1932 37.366 72.3437 37.366V35.2482C69.6329 35.8129 67.741 32.3962 67.741 31.5773V20Z" fill="white"/>
<path d="M88.9756 20.0282H87.1684V31.5773C87.1684 34.9941 89.6137 37.8743 95.8937 37.8743V35.2482C94.5666 35.2482 88.9756 34.9941 88.9756 31.5773V26.184H95.8937V24.1609L88.9756 24.1509V20.0282Z" fill="white"/>
<path fill-rule="evenodd" clip-rule="evenodd" d="M46.0547 43.55V29.8549C46.0547 26.1275 49.6408 24.1227 52.747 24.1227C59.0947 24.1227 59.9098 29.6007 59.5239 32.3397C59.1062 35.3047 55.373 37.1401 54.413 37.366C52.2104 37.8842 49.0479 37.7331 48.3984 37.366V43.55H46.0547ZM53.6788 35.0505H48.3984V30.1937C48.3984 28.8665 49.2681 26.2122 52.747 26.2122C54.413 26.2122 57.039 26.9464 57.039 30.9279C57.039 32.5939 55.9095 35.0505 53.6788 35.0505Z" fill="white"/>
<path fill-rule="evenodd" clip-rule="evenodd" d="M78.8666 24.1609C84.13 24.1609 85.7471 28.4087 85.8977 30.5326C85.8977 36.3382 81.2103 37.846 78.8666 37.8743C73.6483 37.8743 72.1178 32.9798 72.0049 30.5326C72.276 25.4352 76.6923 24.1609 78.8666 24.1609ZM83.2716 30.5326C83.1869 29.1207 82.1873 26.2744 78.8666 26.184C77.3512 26.184 74.3203 27.0537 74.3203 30.5326C74.0662 32.6786 75.6588 35.6435 78.8666 35.6435C80.3349 35.6435 83.2716 34.6213 83.2716 30.5326Z" fill="white"/>
<path fill-rule="evenodd" clip-rule="evenodd" d="M30.8627 44.1714C36.477 44.1714 41.0282 39.6201 41.0282 34.0059C41.0282 28.3917 36.477 23.8405 30.8627 23.8405C25.2485 23.8405 20.6973 28.3917 20.6973 34.0059C20.6973 39.6201 25.2485 44.1714 30.8627 44.1714ZM31.2734 29.8716V32.4694H30.3981V29.8716C30.3981 28.4597 28.4215 27.0174 26.3884 28.0079C24.1859 29.0809 24.8353 32.9777 27.1508 32.9777H29.8616V34.8131H27.1508C26.8684 34.8508 26.1625 35.0955 25.5977 35.7732C24.9577 36.6109 24.3835 38.6795 26.3037 40.0088C27.3484 40.7321 30.3981 40.2065 30.3981 38.0604V35.7732H31.2734V38.0604C31.2734 38.8793 32.2335 40.8146 35.2267 40.0088C37.4292 39.4158 37.0904 34.8131 34.4925 34.8131H32.2335V32.9777H34.8596C36.3844 32.9777 37.9618 29.5045 35.2267 28.0079C33.7301 27.189 31.2734 28.5726 31.2734 29.8716ZM32.2335 32.4694V30.4081C32.2335 29.1204 33.3442 28.855 33.8995 28.8832C35.3453 28.8832 35.7444 29.8998 35.7632 30.4081C35.7632 31.6731 34.6902 32.4694 34.3231 32.4694H32.2335ZM32.2335 37.778V35.7732H34.3231C35.6559 35.7732 35.9514 36.978 35.9326 37.5804C35.8648 38.9809 34.6619 39.3876 33.956 39.3876C32.7587 39.3876 32.2335 38.2863 32.2335 37.778ZM29.8616 35.7732V37.778C29.8616 38.8623 28.8168 39.444 27.8567 39.444C26.5013 39.444 26.2189 38.3428 26.2189 37.778C26.2189 35.7732 27.2637 35.7732 27.5743 35.7732H29.8616ZM27.8567 28.855C27.292 28.855 26.2472 28.9849 26.2472 30.4081C26.2472 31.3334 26.9531 32.4694 27.5743 32.4694H29.8616V30.4081C29.8616 29.9563 29.2573 28.855 27.8567 28.855ZM30.3981 32.9777H31.2734V34.8131H30.3981V32.9777Z" fill="white"/>
</svg>
