<svg width="99" height="63" viewBox="0 0 99 63" fill="none" xmlns="http://www.w3.org/2000/svg">

<path fill-rule="evenodd" clip-rule="evenodd" d="M30.5563 20.017L30.5258 20L30.5299 20.0317L20.4937 25.6277V34.0691C20.4937 36.467 21.7986 37.8336 22.4511 38.2172L30.5258 42.9642V43L30.5563 42.9821L30.5867 43V42.9642L38.6614 38.2172C39.3139 37.8336 40.6189 36.467 40.6189 34.0691V25.6277L30.5836 20.0323L30.5867 20L30.5563 20.017ZM30.561 20.2683L31.5045 27.4628L34.8689 23.9149L33.0338 28.4415L40.6189 25.6277L30.5563 31.4213L20.4937 25.6277L28.2623 28.3803L26.3048 23.8537L29.8527 27.6463L30.561 20.2683Z" fill="white"/>
<path d="M59.5775 24.4516C59.5775 23.8961 59.5888 23.325 59.5704 22.7546C59.5647 22.5781 59.5449 22.4336 59.773 22.4534C59.9658 22.4697 60.2598 22.3223 60.2598 22.7135C60.2613 24.4027 60.2662 26.0927 60.2613 27.7819C60.2613 27.8662 60.1812 28.0193 60.1344 28.0207C59.9856 28.025 59.8312 27.9846 59.688 27.9357C59.6462 27.9215 59.6327 27.8223 59.6172 27.7862C59.3132 27.901 59.0411 28.0675 58.7527 28.1015C57.8372 28.2099 57.2874 27.8032 57.0465 26.9019C56.7404 25.7547 57.3759 24.6564 58.4934 24.4615C58.8413 24.4006 59.2097 24.4523 59.5768 24.4523L59.5775 24.4516ZM59.615 26.2145H59.6165C59.6165 25.8985 59.6065 25.5818 59.62 25.2665C59.6292 25.0504 59.5286 24.9469 59.3351 24.8902C58.5848 24.6699 57.9052 25.0135 57.7302 25.7703C57.6516 26.1097 57.6743 26.4881 57.7246 26.8381C57.8316 27.58 58.6748 27.9045 59.4514 27.4808C59.5378 27.4333 59.5994 27.2746 59.6072 27.1633C59.6278 26.8487 59.6143 26.5313 59.6143 26.2153L59.615 26.2145Z" fill="white"/>
<path d="M44.8933 25.6548C44.8933 24.7981 44.9018 23.9407 44.8884 23.0841C44.8841 22.8269 44.9557 22.7298 45.2256 22.7355C45.9569 22.7511 46.6881 22.7418 47.4194 22.7397C47.5979 22.7397 47.7623 22.7411 47.7312 22.9934C47.7057 23.1989 47.6305 23.2917 47.3875 23.274C46.9184 23.2386 46.4451 23.2598 45.9739 23.2407C45.7358 23.2308 45.6692 23.3292 45.6763 23.5517C45.6898 23.9627 45.694 24.3751 45.6763 24.7854C45.665 25.0433 45.7479 25.1474 46.015 25.1368C46.4153 25.1212 46.8171 25.1226 47.2174 25.1397C47.3188 25.1439 47.4166 25.2346 47.5158 25.2863C47.4088 25.3869 47.3096 25.5634 47.1941 25.5747C46.8206 25.6116 46.4401 25.5995 46.0632 25.5825C45.7797 25.5698 45.6628 25.6576 45.6749 25.9609C45.6976 26.5469 45.672 27.135 45.6898 27.7217C45.6968 27.9725 45.6111 28.0576 45.3652 28.0434C45.1477 28.0306 44.9394 28.0724 44.9472 27.7345C44.9635 27.0415 44.9521 26.3478 44.9521 25.6541C44.933 25.6541 44.9139 25.6541 44.8947 25.6541L44.8933 25.6548Z" fill="white"/>
<path d="M70.5827 26.3514C70.5778 25.1716 71.3005 24.4156 72.4335 24.4163C73.5127 24.417 74.1632 25.066 74.171 26.1501C74.1802 27.3441 73.4291 28.1235 72.2656 28.1278C71.2063 28.132 70.5877 27.4787 70.582 26.3514H70.5827ZM73.5573 26.3245C73.461 25.9524 73.4114 25.6626 73.3093 25.3934C73.1733 25.0348 72.8835 24.8442 72.5016 24.8067C72.1111 24.7691 71.7824 24.886 71.5485 25.2148C71.1673 25.7498 71.1666 26.7829 71.545 27.3172C71.9382 27.872 72.7545 27.9173 73.1357 27.3561C73.349 27.0415 73.434 26.6398 73.558 26.3245H73.5573Z" fill="white"/>
<path d="M52.9604 24.5097H53.5705C53.5975 24.6189 53.6244 24.7266 53.6633 24.8817C53.781 24.8024 53.8745 24.74 53.9666 24.6755C54.362 24.4013 54.8034 24.3716 55.2527 24.4708C55.7012 24.5693 55.9889 24.9434 56.008 25.4982C56.0342 26.2613 56.0123 27.0259 56.0215 27.7897C56.025 28.071 55.8401 28.0335 55.6629 28.042C55.4667 28.0519 55.3533 28.0073 55.3583 27.7734C55.371 27.1506 55.3738 26.5278 55.3646 25.9049C55.3597 25.5499 55.3455 25.1637 54.9537 25.0043C54.5519 24.8413 54.1395 24.9002 53.7788 25.1489C53.6974 25.2048 53.6265 25.3388 53.6258 25.4373C53.6201 26.2011 53.6223 26.9649 53.6463 27.7281C53.652 27.9187 53.6796 28.0646 53.4238 28.0391C53.224 28.0193 52.9498 28.1433 52.9597 27.7522C52.9746 27.1414 52.9612 26.5299 52.9604 25.9191C52.9604 25.4621 52.9604 25.0057 52.9604 24.509V24.5097Z" fill="white"/>
<path d="M75.8125 24.7591C76.2781 24.645 76.7061 24.48 77.144 24.4466C77.7448 24.4006 78.1615 24.8434 78.1771 25.4472C78.1976 26.245 78.2054 27.0429 78.2295 27.8407C78.2366 28.076 78.0814 28.0441 77.9468 28.0391C77.764 28.032 77.5209 28.1227 77.5259 27.7826C77.5351 27.1251 77.55 26.4661 77.5202 25.8099C77.5089 25.5683 77.4295 25.2934 77.2878 25.1014C77.0341 24.7577 76.1796 24.9221 75.8919 25.1977C75.8331 25.2544 75.8409 25.394 75.8402 25.496C75.8366 26.2245 75.8154 26.9536 75.848 27.6799C75.8664 28.0795 75.6432 28.0405 75.3846 28.0448C75.0671 28.0497 75.1522 27.8627 75.1536 27.6678C75.1585 26.7651 75.1394 25.8617 75.1387 24.9589C75.1387 24.796 74.9977 24.548 75.301 24.5083C75.5376 24.4778 75.8324 24.4155 75.8125 24.7591Z" fill="white"/>
<path d="M51.6355 24.5445C51.6355 25.3324 51.6312 26.1154 51.6376 26.8984C51.6397 27.1556 51.6879 27.4135 51.6794 27.67C51.6752 27.794 51.6008 28.0101 51.5356 28.0193C51.3442 28.0448 51.0566 28.1561 51.0346 27.782C51.0325 27.7501 51.007 27.7189 50.9715 27.6445C50.8801 27.699 50.8029 27.7664 50.7129 27.7968C50.3848 27.9088 50.0561 28.0817 49.7216 28.0966C49.0768 28.1249 48.668 27.692 48.6446 27.0479C48.6169 26.2741 48.6049 25.4996 48.578 24.7259C48.5695 24.4878 48.7225 24.492 48.8812 24.4984C49.0683 24.5062 49.3028 24.4269 49.2972 24.7627C49.2865 25.3735 49.2943 25.9843 49.2965 26.5951C49.2965 26.7127 49.2929 26.8318 49.3099 26.9465C49.3914 27.49 49.8314 27.7366 50.421 27.5758C50.8993 27.4454 50.9864 27.3327 50.9864 26.8431C50.9864 26.2323 50.985 25.6215 50.985 25.0107C50.985 24.4424 51.0509 24.3971 51.6355 24.5438V24.5445Z" fill="white"/>
<path d="M64.088 28.0123C63.8513 28.0406 63.5572 28.1738 63.4807 27.8493C63.0499 27.94 62.6403 28.0739 62.2244 28.1016C61.7702 28.132 61.411 27.8259 61.3309 27.4532C61.231 26.9863 61.3805 26.5987 61.8283 26.401C62.1543 26.2571 62.5256 26.2139 62.8763 26.1268C63.086 26.0743 63.407 26.2479 63.4389 25.8405C63.4843 25.2616 63.3255 24.9491 62.9167 24.8669C62.493 24.7819 62.1252 24.908 61.8184 25.2056C61.7702 25.2524 61.749 25.3261 61.715 25.387C61.4308 25.1107 61.4358 24.9342 61.6746 24.7365C62.1082 24.3766 63.2278 24.3199 63.694 24.6388C63.9817 24.8357 64.0858 25.127 64.0873 25.4614C64.0894 25.99 64.0873 26.5186 64.0873 27.0479C64.0873 27.3611 64.0873 27.6743 64.0873 28.0123H64.088ZM63.4396 26.4244C63.2462 26.4244 63.0938 26.4116 62.945 26.4279C62.7587 26.4477 62.5737 26.4867 62.3902 26.525C62.0664 26.5923 61.9098 26.8049 61.9091 27.1259C61.9091 27.4235 62.1415 27.6729 62.4519 27.7331C62.8409 27.8082 63.412 27.5708 63.4332 27.3051C63.4566 27.0174 63.4389 26.7262 63.4389 26.4251L63.4396 26.4244Z" fill="white"/>
<path d="M67.9849 24.5954C67.8587 25.112 67.7709 25.1573 67.3564 24.9689C66.7016 24.6706 65.9739 25.0078 65.8251 25.7277C65.7557 26.0629 65.7578 26.4384 65.8322 26.7729C66.003 27.5431 66.7286 27.8584 67.5271 27.5559C67.6462 27.5105 67.7603 27.4517 67.8878 27.3936C67.9884 27.6529 67.8524 27.7982 67.6611 27.9137C66.9596 28.336 65.5212 28.1936 65.1896 27.04C64.9571 26.2308 65.1336 25.4082 65.7132 24.915C66.3955 24.3354 67.1573 24.3276 67.9856 24.5954H67.9849Z" fill="white"/>
<path d="M69.6124 26.272C69.6124 26.7538 69.5904 27.2363 69.6188 27.716C69.6421 28.1178 69.3814 28.0285 69.1561 28.0413C68.8854 28.0569 68.8974 27.8932 68.8989 27.6983C68.9052 26.8076 68.9152 25.917 68.8918 25.027C68.879 24.5395 68.8875 24.5034 69.2864 24.4934C69.5422 24.4871 69.6138 24.5912 69.6081 24.8272C69.5968 25.3083 69.6046 25.7901 69.6046 26.272H69.6117H69.6124Z" fill="white"/>
<path d="M73.417 22.457C73.3596 23.4405 72.4782 23.3888 71.9673 23.7594C72.3322 23.2237 72.8927 22.9098 73.417 22.457Z" fill="white"/>
<path d="M69.3694 22.5576C69.4743 22.7206 69.6408 22.8736 69.6684 23.0486C69.7052 23.2825 69.5281 23.4476 69.2808 23.4454C69.0257 23.4433 68.872 23.2485 68.9074 23.0302C68.935 22.8587 69.1129 22.7114 69.2241 22.5533C69.2723 22.5548 69.3205 22.5562 69.3694 22.5576Z" fill="white"/>
<path d="M44.8895 36.3571C44.8895 35.0041 44.8824 33.6512 44.9016 32.2983C44.9036 32.1731 45.0772 31.9439 45.1722 31.9439C46.512 31.9419 47.874 31.8257 49.1875 32.0206C52.3861 32.4951 53.0131 35.2323 52.2064 37.5818C51.5804 39.4052 50.068 40.1352 48.2617 40.2674C47.2813 40.3391 46.2868 40.2139 45.2984 40.1988C44.9682 40.1937 44.9672 40.0059 44.9672 39.7717C44.9702 38.6338 44.9682 37.4959 44.9682 36.3581C44.942 36.3581 44.9157 36.3581 44.8884 36.3581L44.8895 36.3571ZM46.6351 36.0552C46.6351 36.9245 46.623 37.7948 46.6463 38.6631C46.6503 38.8267 46.7704 39.1053 46.8825 39.1296C47.98 39.3729 49.0381 39.284 49.868 38.4369C50.8 37.4869 50.8545 36.2965 50.6525 35.0667C50.4587 33.8854 49.7398 33.1908 48.5807 32.9848C48.1092 32.901 47.6135 32.9656 47.1299 32.9404C46.7523 32.9202 46.6271 33.0888 46.6321 33.4462C46.6442 34.3155 46.6362 35.1849 46.6362 36.0542L46.6351 36.0552Z" fill="white"/>
<path d="M70.591 34.5255V31.9226C71.01 31.9226 71.4704 31.8964 71.9237 31.9448C72.0136 31.9539 72.1348 32.2487 72.1358 32.4123C72.1509 34.3216 72.1469 36.2298 72.1469 38.1391C72.1469 38.7842 72.1469 39.4294 72.1469 40.1069C71.6118 40.1371 71.0403 40.1907 70.6364 39.598C69.9973 40.2361 69.2542 40.4229 68.4344 40.2351C67.1986 39.9524 66.5574 39.1063 66.4757 37.717C66.3262 35.1838 68.4717 34.2256 70.1942 34.4851C70.3063 34.5023 70.4204 34.5083 70.591 34.5255ZM70.6122 37.2546C70.6122 36.769 70.6314 36.2823 70.6001 35.7987C70.591 35.6533 70.4739 35.4342 70.3527 35.3888C69.5854 35.099 68.6121 35.4604 68.3263 36.2318C68.1375 36.7417 68.0951 37.3354 68.1184 37.8866C68.1658 39.0356 69.335 39.6737 70.3588 39.1396C70.484 39.074 70.592 38.862 70.6011 38.7115C70.6314 38.2279 70.6122 37.7412 70.6122 37.2556V37.2546Z" fill="white"/>
<path d="M59.2362 37.2768C59.2302 39.2032 58.0368 40.2966 55.9498 40.2885C54.188 40.2825 53.142 39.2264 53.146 37.4595C53.15 35.5927 54.3818 34.4265 56.3385 34.4356C58.2023 34.4437 59.2423 35.4634 59.2362 37.2768ZM57.6844 37.4171C57.5723 36.9638 57.5006 36.467 57.3229 36.0107C57.1291 35.5109 56.6747 35.2847 56.1507 35.3029C55.6146 35.3221 55.1643 35.5573 54.9745 36.0934C54.6554 36.993 54.6544 37.8967 55.0876 38.766C55.3178 39.2274 55.7348 39.4495 56.2386 39.4384C56.7626 39.4273 57.1937 39.18 57.3865 38.6842C57.534 38.3036 57.5804 37.8846 57.6864 37.4171H57.6844Z" fill="white"/>
<path d="M61.808 35.2383C62.5289 34.5154 63.3528 34.267 64.312 34.5174C65.0389 34.7072 65.4357 35.2191 65.4791 35.9218C65.5589 37.2051 65.5549 38.4934 65.5963 39.7797C65.6053 40.0563 65.4771 40.1119 65.2328 40.1189C64.0091 40.1563 64 40.1613 63.9707 38.9639C63.9505 38.1279 63.9596 37.2909 63.9515 36.4539C63.9465 35.9844 63.7587 35.6573 63.2619 35.5452C62.7652 35.4342 62.0039 35.6129 61.8363 35.936C61.7646 36.0743 61.7596 36.259 61.7626 36.4216C61.7838 37.4747 61.803 38.5277 61.8515 39.5788C61.8696 39.9655 61.7596 40.1099 61.3497 40.1109C60.2168 40.1119 60.2279 40.129 60.2178 39.0154C60.2047 37.6281 60.1643 36.2409 60.1562 34.8546C60.1562 34.7486 60.3117 34.5618 60.4117 34.5497C60.9973 34.4821 61.5102 34.6224 61.809 35.2383H61.808Z" fill="white"/>
<path d="M78.133 38.8428C78.24 39.3204 78.1683 39.7081 77.717 39.9191C76.5266 40.4764 75.3231 40.5027 74.2185 39.7596C73.1725 39.0548 73.0837 37.9261 73.2675 36.8225C73.5714 34.994 75.1161 34.0662 76.9264 34.5377C78.1582 34.8587 78.5106 36.0027 78.3632 36.9669C78.345 37.0891 78.0471 37.2486 77.8735 37.2556C77.0173 37.291 76.1591 37.2769 75.3019 37.289C74.7819 37.296 74.686 37.4273 74.8001 37.9382C75.0414 39.0256 75.9592 39.5203 77.1778 39.2023C77.4817 39.1225 77.7685 38.9832 78.134 38.8438L78.133 38.8428ZM75.9763 36.6266V36.6155C76.1601 36.6155 76.3439 36.6175 76.5266 36.6155C77.0456 36.6085 77.1183 36.5115 77.0021 36.0269C76.8992 35.5978 76.672 35.306 76.2035 35.2616C75.6502 35.2091 75.2211 35.4807 74.9909 36.0279C74.789 36.5065 74.8637 36.6236 75.3756 36.6276C75.5755 36.6287 75.7764 36.6276 75.9763 36.6276V36.6266Z" fill="white"/>
<path d="M77.5728 31.1805C77.699 32.0398 77.5556 32.3447 76.9145 32.6779C76.3572 32.9676 75.7968 33.2523 75.188 33.4735C75.6171 32.3336 76.7509 31.96 77.5728 31.1805Z" fill="white"/>
</svg>
