<svg width="98" height="62" viewBox="0 0 98 62" fill="none" xmlns="http://www.w3.org/2000/svg">

<path d="M20 23L21.5 20H37.5V23H32.5H31V36H28V23H20Z" fill="white" stroke="white" stroke-width="0.25"/>
<path d="M37.5 34.25V22C37.5 21 37.5 20 39.5 20H55V23.5H53H40.5V31.5C40.5 32.3 41 32.5 41.5 32.5H51.5V29.5H47.5V26.5H53H55V36H39.5C37.9 36 37.5 35.25 37.5 34.25Z" fill="white" stroke="white" stroke-width="0.25"/>
<path d="M55 36V22.5C55 21 55.5 20 58 20H65.75L66.5 20.5L67.25 20H74.25C76.5 20 77.5 21 77.5 22.5V36H74V24C74 23 73.25 23 72.75 23H69.5C68.5 23 68 23 68 24V36H64.5V24C64.5 23 64 23 63.5 23H59.5C59 23 58.5 23 58.5 24V36H55Z" fill="white" stroke="white" stroke-width="0.25"/>
<path d="M20 38.75L20.375 38H24.375V38.75H23.125H22.75V42H22V38.75H20Z" fill="white" stroke="white" stroke-width="0.25"/>
<path fill-rule="evenodd" clip-rule="evenodd" d="M25.125 42H25.875V40.5H28.125V42H29.375V41.5H28.875V40.5C29.0417 40.5 29.375 40.4 29.375 40V38.5C29.375 38.3333 29.275 38 28.875 38H25.125V39.75H24.375V40.5H25.125V42ZM25.875 39.75V38.5H28.125C28.4514 38.5 28.625 38.7383 28.625 39V39.25C28.625 39.65 28.375 39.75 28.125 39.75H25.875Z" fill="white"/>
<path d="M25.125 38C26.2917 38 28.475 38 28.875 38M25.125 38V39.75H24.375V40.5H25.125V42H25.875V40.5H28.125V42H29.375V41.5H28.875V40.5C29.0417 40.5 29.375 40.4 29.375 40M25.125 38H28.875M29.375 40C29.375 39.6 29.375 38.8333 29.375 38.5M29.375 40V38.5M29.375 38.5C29.375 38.3333 29.275 38 28.875 38M25.875 38.5V39.75H28.125C28.375 39.75 28.625 39.65 28.625 39.25M25.875 38.5C26.5417 38.5 27.725 38.5 28.125 38.5M25.875 38.5H28.125M28.625 39.25C28.625 39.0764 28.625 39.25 28.625 39M28.625 39.25V39M28.125 38.5C28.4514 38.5 28.625 38.7383 28.625 39" stroke="white" stroke-width="0.25"/>
<path fill-rule="evenodd" clip-rule="evenodd" d="M29.875 38.5C29.875 38.3333 29.975 38 30.375 38H33.375C33.5417 38 33.875 38.1 33.875 38.5V42H33.375V40.5H30.375V42H29.875V40.5H29.375V39.75H29.875V38.5ZM30.625 39.75V38.75H33.125V39.75H30.625Z" fill="white"/>
<path d="M29.375 40V39.75M29.375 39.75V40.5H29.875V42H30.375V40.5H33.375V42H33.875V38.5C33.875 38.1 33.5417 38 33.375 38H30.375C29.975 38 29.875 38.3333 29.875 38.5V39.75H29.375ZM30.625 38.75V39.75H33.125V38.75H30.625Z" stroke="white" stroke-width="0.25"/>
<path d="M38.375 38H34.375C33.875 38 33.875 38.5156 33.875 39V41C33.875 41.5 33.875 42 34.375 42H38.375V39.75H36.875V40.5H37.625V41H34.875V39H38.375V38Z" fill="white" stroke="white" stroke-width="0.25"/>
<path fill-rule="evenodd" clip-rule="evenodd" d="M38.875 38.5C38.875 38.3333 38.975 38 39.375 38H42.375C42.5417 38 42.875 38.1 42.875 38.5V42H42.375V40.5H39.375V42H38.875V40.5H38.375V39.75H38.875V38.5ZM39.625 39.75V38.75H42.125V39.75H39.625Z" fill="white" stroke="white" stroke-width="0.25"/>
<path d="M42.875 38.625V42H43.75V39C43.75 38.75 43.875 38.75 44 38.75H45C45.125 38.75 45.25 38.75 45.25 39V42H46.125V39C46.125 38.75 46.25 38.75 46.5 38.75H47.3125C47.4375 38.75 47.625 38.75 47.625 39V42H48.5V38.625C48.5 38.25 48.25 38 47.6875 38H45.9375L45.75 38.125L45.5625 38H43.625C43 38 42.875 38.25 42.875 38.625Z" fill="white" stroke="white" stroke-width="0.25"/>
<path d="M50.125 38H53.625V39H50.125V39.5H52.625V40.5H50.125V41H53.625V42H50.125C49.625 42 49.125 41.75 49.125 41V40.5H48.5V39.5H49.125V39C49.125 38.6667 49.325 38 50.125 38Z" fill="white" stroke="white" stroke-width="0.25"/>
<path d="M54.5 38H53.625L55.25 40L53.625 42H54.5L55.6713 40.5185L56.875 42H57.875L56.125 40L57.875 38H56.875L55.6713 39.4815L54.5 38Z" fill="white" stroke="white" stroke-width="0.25"/>
</svg>
