<svg width="165" height="64" viewBox="0 0 165 64" fill="none" xmlns="http://www.w3.org/2000/svg">

<path d="M20.9839 42.7921V20.5181H37.9916V26.9067H28.4086V28.7197H36.6966V34.5041H28.4086V36.4034H37.9916V42.7921H20.9839Z" fill="white"/>
<path d="M55.2582 26.9067V20.5181H48.9559C36.6966 20.5181 33.4159 41.2381 48.9559 42.7921H55.2582V36.4034H50.8552C44.1212 35.6264 45.1572 27.2521 50.8552 26.9067H55.2582Z" fill="white"/>
<path d="M87.5469 20.6044H80.1222V42.7921H93.5902L95.7486 36.3171H87.5469V20.6044Z" fill="white"/>
<path fill-rule="evenodd" clip-rule="evenodd" d="M94.5399 42.7921H102.655L103.432 39.7704H110.512L111.375 42.7921H119.49L112.411 20.6044H101.619L94.5399 42.7921ZM106.972 26.4751L109.13 34.2451H104.814L106.972 26.4751Z" fill="white"/>
<path fill-rule="evenodd" clip-rule="evenodd" d="M120.095 20.6044V42.7921H133.045C140.728 41.8424 142.023 33.7271 135.721 31.2234C140.728 29.4104 140.038 21.5541 133.045 20.6044H120.095ZM127.433 28.8924C127.404 27.7413 127.364 25.4391 127.433 25.4391H130.282C132.095 25.6981 132.181 28.5471 130.282 28.8924H127.433ZM127.433 37.6984V33.8134H130.541C132.786 34.0724 132.699 37.5257 130.541 37.6984H127.433Z" fill="white"/>
<path d="M144.254 23.0216C144.254 24.2539 143.255 25.253 142.023 25.253C140.79 25.253 139.791 24.2539 139.791 23.0216C139.791 21.7892 140.79 20.7902 142.023 20.7902C143.255 20.7902 144.254 21.7892 144.254 23.0216Z" stroke="white" stroke-width="0.371897"/>
<path fill-rule="evenodd" clip-rule="evenodd" d="M67.4312 43.5342C73.9157 43.5628 79.1956 38.3292 79.2241 31.8447C79.2527 25.3602 74.0192 20.0803 67.5347 20.0517C61.0502 20.0232 55.7703 25.2567 55.7417 31.7412C55.7131 38.2257 60.9467 43.5056 67.4312 43.5342ZM69.2191 29.6423L74.2542 23.3621L70.016 30.7777L69.9866 31.804L76.7836 37.1003L69.8078 33.1846L69.2875 33.7003L75.6541 38.7357L68.3337 34.6457L67.125 34.6404L61.8295 41.2648L65.8312 34.3757L65.3155 33.8554L60.3671 40.0497L64.37 32.9016L64.3746 31.8656L57.7506 26.4837L64.6397 30.4854L65.0736 29.9693L58.7078 24.7612L66.3728 29.0254L67.4959 28.8577L72.5313 22.4911L68.7026 29.2946L69.2191 29.6423Z" fill="white"/>
<path d="M141.286 24.3299V21.864H142.119C142.311 21.864 142.47 21.8969 142.593 21.9627C142.717 22.0278 142.808 22.1173 142.868 22.2312C142.927 22.3452 142.957 22.4749 142.957 22.6201C142.957 22.7654 142.927 22.8943 142.868 23.0066C142.808 23.119 142.717 23.2073 142.594 23.2715C142.472 23.3349 142.315 23.3666 142.124 23.3666H141.449V23.0969H142.114C142.246 23.0969 142.352 23.0777 142.432 23.0391C142.513 23.0006 142.572 22.946 142.608 22.8754C142.645 22.804 142.663 22.7189 142.663 22.6201C142.663 22.5214 142.645 22.4351 142.608 22.3613C142.571 22.2874 142.512 22.2304 142.431 22.1903C142.35 22.1494 142.242 22.1289 142.109 22.1289H141.584V24.3299H141.286ZM142.446 23.2222L143.053 24.3299H142.706L142.109 23.2222H142.446Z" fill="white"/>
</svg>
