<svg width="104" height="63" viewBox="0 0 104 63" fill="none" xmlns="http://www.w3.org/2000/svg">

<path d="M54.7353 29.7241C54.8562 26.5265 57.0412 24.2925 58.1172 23.5751C59.1404 23.2996 61.7111 23.3385 65.1885 24.9869C62.5752 25.4763 59.4682 29.5612 58.4247 30.9539C57.0424 32.7985 54.6144 32.9215 54.7353 29.7241Z" fill="white"/>
<path d="M79.1774 38.6401C77.7939 37.4103 75.0269 31.415 68.5704 26.957C67.3722 26.1296 66.2389 25.4848 65.1885 24.9869C61.711 23.3385 59.1404 23.2996 58.1172 23.5751C65.9571 18.5022 75.0268 19.2708 78.87 23.1139C81.9444 26.1884 82.918 30.8514 83.0205 32.7985C83.328 38.3326 80.5609 39.8699 79.1774 38.6401Z" fill="white"/>
<path d="M65.4825 33.3285C65.8913 33.3285 66.2932 33.3199 66.6933 33.3366C66.7637 33.3395 66.8509 33.4342 66.896 33.5075C68.4387 36.0261 70.1824 38.424 71.4856 41.0875C71.4931 41.1031 71.5081 41.1158 71.5185 41.1273V33.3447H72.5688V42.8294C72.1912 42.8294 71.8193 42.8387 71.4481 42.8214C71.3776 42.8179 71.2922 42.7226 71.2477 42.6493C69.694 40.0805 67.9485 37.6266 66.6021 34.9325C66.5946 34.9169 66.5749 34.9071 66.5472 34.8829V42.8144H65.4819V33.3285H65.4825Z" fill="white"/>
<path d="M44.8429 38.1688C44.8613 36.8194 45.1772 35.5711 46.1021 34.552C47.2402 33.2979 48.6923 32.9423 50.3021 33.291C51.8968 33.6369 52.8761 34.705 53.3068 36.238C53.7675 37.8766 53.6694 39.495 52.801 40.998C51.9055 42.5488 50.2097 43.162 48.563 42.964C46.582 42.7261 45.2297 41.2208 44.926 39.1417C44.8792 38.8201 44.8688 38.4927 44.8423 38.1682L44.8429 38.1688ZM46.1558 38.1058C46.1553 39.1186 46.3868 39.9927 46.8383 40.6827C48.0306 42.5021 50.5174 42.498 51.6023 40.6152C52.5579 38.9563 52.5666 37.2022 51.5989 35.5428C50.477 33.619 47.8626 33.6859 46.7575 35.619C46.3175 36.3881 46.1547 37.2282 46.1553 38.1064L46.1558 38.1058Z" fill="white"/>
<path d="M37.0087 42.8341C36.5947 42.8341 36.22 42.8457 35.8476 42.8243C35.7731 42.8203 35.6715 42.7007 35.6409 42.6135C35.3481 41.7821 35.06 40.9495 34.7904 40.1106C34.7217 39.8975 34.6212 39.8305 34.4035 39.8334C33.4624 39.8444 32.5207 39.8438 31.5795 39.8334C31.3722 39.8311 31.277 39.8958 31.2134 40.0973C30.9617 40.9016 30.6759 41.6949 30.434 42.5021C30.3508 42.7787 30.2175 42.8612 29.9472 42.8405C29.6637 42.8185 29.3774 42.8358 29.0552 42.8358C30.1407 39.6435 31.2129 36.4904 32.2885 33.3257C32.7464 33.3257 33.1881 33.3159 33.6287 33.3355C33.702 33.339 33.8042 33.4585 33.8342 33.5451C34.4139 35.2195 34.9855 36.8968 35.5583 38.5741C36.0069 39.8883 36.4555 41.203 36.9036 42.5177C36.9342 42.6072 36.9636 42.6973 37.0093 42.8353L37.0087 42.8341ZM32.9912 34.5018C32.5316 35.928 32.0593 37.394 31.5795 38.8819H34.4214C33.9353 37.3928 33.4583 35.932 32.9912 34.5018Z" fill="white"/>
<path d="M38.2417 41.4542C38.8115 41.6239 39.3502 41.8248 39.9068 41.9374C40.4352 42.0442 40.9773 42.016 41.4912 41.8012C42.6246 41.3277 42.8521 39.849 41.8775 39.1036C41.5108 38.8236 41.061 38.6504 40.6436 38.439C40.2169 38.2237 39.7637 38.0533 39.3566 37.8068C38.4593 37.2629 38.0419 36.4482 38.1839 35.3997C38.3156 34.4268 38.8976 33.7778 39.7994 33.4366C40.9814 32.9891 42.1477 33.1155 43.3331 33.6075C43.2216 33.9458 43.1183 34.2582 43.0195 34.5567C42.5599 34.4337 42.1269 34.2853 41.6812 34.2068C41.1557 34.1144 40.6286 34.1473 40.1378 34.4031C39.2619 34.8604 39.0939 36.0435 39.8549 36.6699C40.203 36.9569 40.6355 37.1474 41.0431 37.3559C41.4773 37.5776 41.9444 37.7398 42.3682 37.9789C43.4116 38.5672 43.8498 39.4864 43.6824 40.6614C43.5219 41.7885 42.8134 42.4773 41.7527 42.7931C40.5472 43.1523 39.3629 43.0177 38.2111 42.5304C38.0228 42.4507 37.9408 42.3549 38.028 42.1401C38.1181 41.9195 38.1712 41.684 38.2422 41.4553C38.2469 41.4397 38.2659 41.4282 38.2422 41.4542H38.2417Z" fill="white"/>
<path d="M28.1713 33.575C28.068 33.926 27.9762 34.2373 27.8948 34.5144C27.3884 34.4082 26.9005 34.2552 26.404 34.2118C25.0379 34.0918 23.8242 34.418 22.9552 35.5727C22.5407 36.1236 22.334 36.7633 22.2635 37.4406C22.1827 38.2195 22.2075 38.9949 22.4777 39.7432C22.9731 41.1139 24.1804 41.9454 25.6949 41.9737C26.4421 41.9875 27.1667 41.8801 27.9029 41.5909C27.9785 41.8807 28.0645 42.1515 28.109 42.4286C28.1188 42.4893 27.9929 42.6117 27.9069 42.6411C27.0137 42.946 26.0922 43.0413 25.1533 42.9685C24.5361 42.9206 23.9414 42.7803 23.3796 42.5106C22.3189 42.0008 21.5943 41.1844 21.2358 40.0723C20.7583 38.5902 20.7912 37.115 21.4944 35.7055C22.2537 34.1853 23.5499 33.4185 25.2007 33.2147C26.0171 33.1137 26.8306 33.165 27.628 33.385C27.8018 33.433 27.9693 33.5034 28.1719 33.575H28.1713Z" fill="white"/>
<path d="M56.3865 34.3355C56.3865 35.384 56.3882 36.3719 56.3847 37.3604C56.3841 37.5596 56.5181 37.5348 56.6417 37.5348C57.6411 37.5354 58.6406 37.5348 59.6395 37.5348C59.7445 37.5348 59.849 37.5348 59.998 37.5348C59.998 37.8293 60.0148 38.1064 59.9853 38.3789C59.979 38.4407 59.8138 38.5296 59.7209 38.5308C58.7699 38.5418 57.8184 38.5348 56.8668 38.5389C56.3108 38.5412 56.3882 38.473 56.3865 39.0054C56.3824 40.2629 56.3853 41.5199 56.3853 42.8052H55.208V33.3441H60.2867V34.3349H56.3865V34.3355Z" fill="white"/>
<path d="M62.0737 33.3344H63.2585V42.8133H62.0737V33.3344Z" fill="white"/>
</svg>
