<svg width="83" height="66" viewBox="0 0 83 66" fill="none" xmlns="http://www.w3.org/2000/svg">

<path d="M40.1725 45.0729H41.126L41.0139 45.6899H40.0603L40.1725 45.0729Z" fill="white"/>
<path d="M52.6248 45.0729H53.5223L53.354 45.6899H52.4565L52.6248 45.0729Z" fill="white"/>
<path d="M41.9674 28.0211H38.7141L36.0778 35.6495C35.2364 35.6495 35.1243 35.6495 35.3486 36.6592H38.7141C38.9168 35.8256 38.8263 35.6495 38.3776 35.6495L39.8359 31.8914V36.6592H41.9674L44.6598 31.8914L43.9306 35.7056C43.1453 35.7056 43.0332 35.7056 43.2575 36.6592H45.3527H46.9596C47.0305 36.3042 47.0616 36.079 47.0317 35.9373C46.9907 35.7431 46.8351 35.7056 46.5108 35.7056L48.0814 29.3112L47.6887 28.0211H44.3793L41.9674 32.0597V28.0211Z" fill="white"/>
<path d="M22.2232 43.1658H23.7938L23.5133 44.6802L24.9717 43.1658H26.2618L25.1961 45.8021H23.962L24.4669 44.3437L23.1768 45.8021H22.3915V44.3437L21.5501 45.8021H20.9331L22.2232 43.1658Z" fill="white"/>
<path fill-rule="evenodd" clip-rule="evenodd" d="M31.3661 33.7424H36.19C36.2869 32.9672 36.328 32.6384 36.1847 32.4989C36.0792 32.3962 35.8737 32.3962 35.5169 32.3962L37.7044 26.8993H48.9788C49.4837 28.1333 49.9451 28.4383 50.2689 27.6845L50.9981 25.2726H36.6747H35.8179H35.0235H31.3661L30.7491 26.8993C30.658 27.7498 30.9616 27.9588 31.3661 27.8202C31.6748 27.7144 32.0423 27.4062 32.3378 27.0261C32.3934 26.9847 32.4508 26.9424 32.51 26.8993H33.0828H33.7707H34.6755L32.4318 32.3962C32.3911 32.3962 32.3519 32.3961 32.3141 32.3961H32.3135C31.362 32.3941 31.3122 32.394 31.3661 33.7424Z" fill="white"/>
<path fill-rule="evenodd" clip-rule="evenodd" d="M25.5887 45.8021L28.225 43.1658H29.0664V45.8021H27.8324L27.9644 45.2972H26.5983L26.2057 45.8021H25.5887ZM27.7202 44.0071L27.2714 44.6802H27.9445V44.0071H27.7202Z" fill="white"/>
<path fill-rule="evenodd" clip-rule="evenodd" d="M30.3004 43.1658H33.2171C33.6659 43.5023 33.2171 44.6802 32.7123 44.9607V45.8021H31.5905C31.5905 44.9607 30.5247 44.9046 30.4687 45.8021H29.5712C29.6224 45.6598 29.6724 45.5229 29.7206 45.3909L29.7207 45.3906C30.0524 44.4818 30.3004 43.8024 30.3004 43.1658ZM31.1418 43.7828C30.9174 43.895 30.8613 44.6802 30.8613 44.6802H31.9831C32.114 44.4185 32.3758 43.8725 32.3758 43.7828C32.3758 43.693 31.3661 43.6706 31.1418 43.7828Z" fill="white"/>
<path d="M33.8902 43.1658V45.8021H35.1243L37.7045 43.1658H36.807V43.4462L35.1243 45.129V43.1658H33.8902Z" fill="white"/>
<path fill-rule="evenodd" clip-rule="evenodd" d="M35.7974 45.8021L38.4897 43.1658H39.3872V45.8021H38.1532L38.2093 45.2972H36.807L36.3583 45.8021H35.7974ZM38.2654 43.895L37.5362 44.6802H38.2654V43.895Z" fill="white"/>
<path d="M59.4119 45.8021H59.9728L60.6459 45.129L61.1507 45.8021H62.2725L61.5433 44.4559L62.553 43.5023V43.1658H61.936L61.4312 43.895H61.0385V43.1658H59.8606V43.5023L60.4776 44.5681L59.4119 45.8021Z" fill="white"/>
<path d="M54.2514 45.8021L55.4294 43.1658H56.7756V44.6802L58.0657 43.1658H59.468L58.4022 45.8021H57.1682L57.6169 44.3437L56.3829 45.8021H55.5976L55.6537 44.3437L54.8124 45.8021H54.2514Z" fill="white"/>
<path d="M48.9789 43.1658L47.857 45.8021H48.4179L49.2593 44.3437L49.1471 45.8021H49.9885L51.1664 44.3437L50.8299 45.8021H52.0639L53.0735 43.1658H51.7273L50.325 44.6802V43.1658H48.9789Z" fill="white"/>
<path fill-rule="evenodd" clip-rule="evenodd" d="M45.7816 43.1658H48.2497C48.474 43.1658 47.9433 44.4559 47.5766 45.4094C47.4471 45.746 47.3522 45.8021 47.0717 45.8021H44.772C44.5476 45.8021 45.2207 44.1193 45.5573 43.334C45.6134 43.2032 45.7255 43.1658 45.7816 43.1658ZM47.1278 43.7828H46.3986C46.2865 43.7828 45.6695 45.1851 45.9499 45.1851H46.623C46.9035 45.1851 47.3522 43.7828 47.1278 43.7828Z" fill="white"/>
<path d="M44.2111 45.9143V45.5216H42.921C42.7415 45.2524 43.2575 44.2876 43.538 43.8389H44.9403L45.1646 43.278H43.0892C42.5844 43.278 42.0796 44.2876 41.7991 45.1851C41.5748 45.903 41.7991 45.9143 42.4722 45.9143H44.2111Z" fill="white"/>
<path d="M62.4969 28.3015C63.0162 26.7437 60.0289 25.8896 52.8492 26.6749C60.0597 27.3174 54.7763 32.4178 47.0317 35.9373C47.0616 36.079 47.0305 36.3042 46.9596 36.6592H45.3527C41.3268 38.2936 36.8622 39.4248 33.2171 39.2955C42.2479 39.8854 59.8606 36.2104 62.4969 28.3015Z" fill="white"/>
<path d="M29.2907 39.5198V40.5295C50.6055 41.6513 59.7484 34.3594 62.3286 29.8721C54.588 39.5198 36.19 40.0807 29.2907 39.5198Z" fill="white"/>
<path d="M30.7491 26.8993L31.3661 25.2726H35.0235C38.3727 23.3213 43.7241 20.9312 50.4933 20C37.7044 20.5048 21.3835 28.6381 21.2697 32.3962C21.2136 34.2472 25.0839 35.2569 31.0296 34.3594C24.2986 32.0597 28.8981 30.1526 31.3661 27.8202C30.9616 27.9588 30.658 27.7498 30.7491 26.8993Z" fill="white"/>
<path d="M31.5905 34.5277C26.8227 35.4812 23.0085 34.9203 21.7184 33.9107C22.5037 35.313 25.1961 36.0982 31.5905 35.0325V34.5277Z" fill="white"/>
<path d="M50.9981 21.1779V20.2805C46.5836 20.545 40.6183 22.6606 35.8179 25.2726H36.6747C41.6284 22.73 47.3405 20.893 50.9981 21.1779Z" fill="white"/>
<path d="M28.1128 31.4427C29.347 29.9513 31.3722 28.3667 33.7707 26.8993H33.0828C30.752 28.4215 28.943 30.012 28.1128 31.4427Z" fill="white"/>
<path d="M52.2882 27.0114V27.6845C53.8588 27.7743 55.2237 28.4324 55.7098 28.7503C55.5416 27.348 52.9613 27.0114 52.2882 27.0114Z" fill="white"/>
</svg>
