<svg width="108" height="65" viewBox="0 0 108 65" fill="none" xmlns="http://www.w3.org/2000/svg">

<path d="M47.6315 43.247L34.4418 20.2123C33.9605 19.9113 33.739 19.9477 33.2427 20.2123L20.053 43.247C19.8607 44.163 20.1906 44.3241 21.0627 44.383H47.1267C47.6077 44.2158 47.7161 43.965 47.6315 43.247Z" stroke="white" stroke-width="1.26218"/>
<path d="M67.2986 23.7267L65.5082 28.9208H64.4258L66.6812 22.9282H67.3727L67.2986 23.7267ZM68.7968 28.9208L67.0023 23.7267L66.9241 22.9282H67.6196L69.8833 28.9208H68.7968ZM68.7103 26.6983V27.5173H65.4506V26.6983H68.7103Z" fill="white"/>
<path d="M62.6696 22.9282V28.9208H61.6447V22.9282H62.6696ZM64.5505 22.9282V23.7514H59.7803V22.9282H64.5505Z" fill="white"/>
<path d="M60.4147 28.1018V28.9208H57.4061V28.1018H60.4147ZM57.6942 22.9282V28.9208H56.6611V22.9282H57.6942Z" fill="white"/>
<path d="M55.7973 28.1018V28.9208H52.6158V28.1018H55.7973ZM52.9081 22.9282V28.9208H51.875V22.9282H52.9081ZM55.3817 25.4306V26.2373H52.6158V25.4306H55.3817ZM55.7768 22.9282V23.7514H52.6158V22.9282H55.7768Z" fill="white"/>
<path d="M48.0896 28.9208H46.8096L46.8178 28.1018H48.0896C48.46 28.1018 48.7701 28.0208 49.0198 27.8589C49.2722 27.697 49.4615 27.4652 49.5878 27.1634C49.7167 26.8615 49.7812 26.5021 49.7812 26.085V25.7599C49.7812 25.4361 49.7442 25.1494 49.6701 24.8997C49.5987 24.65 49.4917 24.4401 49.349 24.27C49.2091 24.0999 49.0362 23.9709 48.8305 23.8831C48.6274 23.7953 48.3928 23.7514 48.1267 23.7514H46.7849V22.9282H48.1267C48.5245 22.9282 48.8881 22.9954 49.2173 23.1299C49.5466 23.2616 49.8306 23.4523 50.0693 23.702C50.3108 23.9517 50.496 24.2508 50.6249 24.5992C50.7539 24.9477 50.8184 25.3373 50.8184 25.7681V26.085C50.8184 26.5158 50.7539 26.9054 50.6249 27.2539C50.496 27.6024 50.3108 27.9015 50.0693 28.1512C49.8278 28.3981 49.5397 28.5888 49.205 28.7233C48.873 28.855 48.5012 28.9208 48.0896 28.9208ZM47.3817 22.9282V28.9208H46.3486V22.9282H47.3817Z" fill="white"/>
<path d="M83.6736 32.0298V37.7688H82.9247V32.0298H83.6736ZM85.5183 32.0298V32.6526H81.084V32.0298H85.5183Z" fill="white"/>
<path d="M79.9122 35.944H80.669C80.6296 36.3067 80.5258 36.6312 80.3576 36.9176C80.1895 37.204 79.9516 37.4313 79.6442 37.5995C79.3367 37.7651 78.9531 37.8478 78.4932 37.8478C78.1569 37.8478 77.8508 37.7848 77.5748 37.6586C77.3016 37.5325 77.0664 37.3538 76.8693 37.1226C76.6722 36.8887 76.5198 36.6089 76.4121 36.283C76.3069 35.9546 76.2544 35.5893 76.2544 35.1872V34.6157C76.2544 34.2137 76.3069 33.8497 76.4121 33.5239C76.5198 33.1954 76.6735 32.9142 76.8732 32.6804C77.0756 32.4465 77.3186 32.2665 77.6024 32.1404C77.8862 32.0142 78.2055 31.9512 78.5602 31.9512C78.9938 31.9512 79.3604 32.0326 79.66 32.1956C79.9595 32.3585 80.1921 32.5845 80.3576 32.8735C80.5258 33.1599 80.6296 33.4923 80.669 33.8707H79.9122C79.8754 33.6027 79.8071 33.3728 79.7073 33.181C79.6074 32.9865 79.4655 32.8367 79.2816 32.7316C79.0976 32.6265 78.8572 32.5739 78.5602 32.5739C78.3054 32.5739 78.0807 32.6226 77.8862 32.7198C77.6944 32.817 77.5328 32.955 77.4014 33.1337C77.2726 33.3123 77.1754 33.5265 77.1097 33.7761C77.044 34.0258 77.0112 34.303 77.0112 34.6078V35.1872C77.0112 35.4684 77.0401 35.7325 77.0979 35.9795C77.1583 36.2265 77.249 36.4433 77.3699 36.6299C77.4908 36.8165 77.6445 36.9636 77.831 37.0713C78.0176 37.1765 78.2383 37.229 78.4932 37.229C78.8165 37.229 79.074 37.1778 79.2658 37.0753C79.4576 36.9728 79.6022 36.8257 79.6994 36.6338C79.7992 36.442 79.8702 36.2121 79.9122 35.944Z" fill="white"/>
<path d="M75.541 37.15V37.7688H72.502V37.15H75.541ZM72.6558 32.0298V37.7688H71.895V32.0298H72.6558ZM75.139 34.4972V35.1161H72.502V34.4972H75.139ZM75.5016 32.0298V32.6526H72.502V32.0298H75.5016Z" fill="white"/>
<path d="M69.2347 32.0298V37.7688H68.4858V32.0298H69.2347ZM71.0794 32.0298V32.6526H66.645V32.0298H71.0794Z" fill="white"/>
<path d="M66.1205 34.7182V35.0808C66.1205 35.5118 66.0667 35.8981 65.9589 36.2397C65.8512 36.5813 65.6961 36.8716 65.4938 37.1108C65.2915 37.3499 65.0484 37.5325 64.7646 37.6586C64.4834 37.7848 64.1681 37.8478 63.8186 37.8478C63.4796 37.8478 63.1683 37.7848 62.8845 37.6586C62.6033 37.5325 62.3589 37.3499 62.1513 37.1108C61.9463 36.8716 61.7874 36.5813 61.6744 36.2397C61.5614 35.8981 61.5049 35.5118 61.5049 35.0808V34.7182C61.5049 34.2872 61.5601 33.9023 61.6704 33.5633C61.7834 33.2217 61.9424 32.9313 62.1474 32.6922C62.3523 32.4504 62.5954 32.2665 62.8766 32.1404C63.1604 32.0142 63.4718 31.9512 63.8107 31.9512C64.1602 31.9512 64.4756 32.0142 64.7567 32.1404C65.0405 32.2665 65.2836 32.4504 65.4859 32.6922C65.6909 32.9313 65.8472 33.2217 65.955 33.5633C66.0653 33.9023 66.1205 34.2872 66.1205 34.7182ZM65.3677 35.0808V34.7103C65.3677 34.3687 65.3322 34.0665 65.2613 33.8037C65.1929 33.541 65.0918 33.3202 64.9578 33.1415C64.8237 32.9629 64.6595 32.8275 64.465 32.7356C64.2732 32.6436 64.0551 32.5976 63.8107 32.5976C63.5742 32.5976 63.3601 32.6436 63.1683 32.7356C62.9791 32.8275 62.8161 32.9629 62.6795 33.1415C62.5455 33.3202 62.4417 33.541 62.3681 33.8037C62.2945 34.0665 62.2577 34.3687 62.2577 34.7103V35.0808C62.2577 35.4251 62.2945 35.7299 62.3681 35.9953C62.4417 36.2581 62.5468 36.4801 62.6834 36.6614C62.8227 36.8401 62.9869 36.9754 63.1761 37.0674C63.368 37.1594 63.5821 37.2054 63.8186 37.2054C64.0656 37.2054 64.285 37.1594 64.4769 37.0674C64.6687 36.9754 64.8303 36.8401 64.9617 36.6614C65.0957 36.4801 65.1969 36.2581 65.2652 35.9953C65.3335 35.7299 65.3677 35.4251 65.3677 35.0808Z" fill="white"/>
<path d="M56.7627 32.0298H58.6626C59.0935 32.0298 59.4575 32.0955 59.7544 32.2269C60.054 32.3583 60.2813 32.5527 60.4363 32.8102C60.594 33.0651 60.6728 33.3791 60.6728 33.7523C60.6728 34.0151 60.6189 34.2555 60.5112 34.4736C60.4061 34.6891 60.2537 34.873 60.054 35.0254C59.8569 35.1752 59.6204 35.2869 59.3445 35.3605L59.1316 35.4432H57.3461L57.3382 34.8244H58.6862C58.9595 34.8244 59.1868 34.7771 59.3681 34.6825C59.5494 34.5853 59.6861 34.4552 59.778 34.2923C59.87 34.1294 59.916 33.9494 59.916 33.7523C59.916 33.5315 59.8726 33.3384 59.7859 33.1729C59.6992 33.0073 59.5626 32.8799 59.376 32.7905C59.1921 32.6985 58.9542 32.6526 58.6626 32.6526H57.5234V37.7688H56.7627V32.0298ZM60.117 37.7688L58.7217 35.1673L59.514 35.1634L60.929 37.7215V37.7688H60.117Z" fill="white"/>
<path d="M53.8227 35.5181H52.2894V34.8993H53.8227C54.1196 34.8993 54.3601 34.852 54.544 34.7574C54.728 34.6628 54.862 34.5314 54.9461 34.3632C55.0328 34.1951 55.0761 34.0032 55.0761 33.7878C55.0761 33.5907 55.0328 33.4054 54.9461 33.232C54.862 33.0586 54.728 32.9193 54.544 32.8142C54.3601 32.7064 54.1196 32.6526 53.8227 32.6526H52.4668V37.7688H51.7061V32.0298H53.8227C54.2563 32.0298 54.6229 32.1047 54.9224 32.2545C55.222 32.4042 55.4493 32.6118 55.6043 32.8772C55.7594 33.14 55.8369 33.4409 55.8369 33.7799C55.8369 34.1478 55.7594 34.4618 55.6043 34.7219C55.4493 34.9821 55.222 35.1805 54.9224 35.3171C54.6229 35.4511 54.2563 35.5181 53.8227 35.5181Z" fill="white"/>
<path fill-rule="evenodd" clip-rule="evenodd" d="M86.6225 32.9804C87.0581 32.9804 87.4113 32.6272 87.4113 32.1916C87.4113 31.7559 87.0581 31.4027 86.6225 31.4027C86.1868 31.4027 85.8336 31.7559 85.8336 32.1916C85.8336 32.6272 86.1868 32.9804 86.6225 32.9804ZM86.6225 33.296C87.2324 33.296 87.7269 32.8015 87.7269 32.1916C87.7269 31.5816 87.2324 31.0872 86.6225 31.0872C86.0125 31.0872 85.5181 31.5816 85.5181 32.1916C85.5181 32.8015 86.0125 33.296 86.6225 33.296Z" fill="white"/>
<path d="M66.6299 12.4019H66.9817C67.0615 12.4019 67.1289 12.414 67.1839 12.4384C67.2394 12.4627 67.2815 12.4987 67.3102 12.5464C67.3394 12.5936 67.354 12.6517 67.354 12.7208C67.354 12.7695 67.344 12.814 67.324 12.8544C67.3046 12.8943 67.2764 12.9284 67.2394 12.9566C67.2029 12.9843 67.1591 13.005 67.108 13.0186L67.0686 13.034H66.7379L66.7365 12.9194H66.9861C67.0367 12.9194 67.0788 12.9106 67.1124 12.8931C67.1459 12.8751 67.1712 12.851 67.1883 12.8208C67.2053 12.7907 67.2138 12.7573 67.2138 12.7208C67.2138 12.68 67.2058 12.6442 67.1897 12.6135C67.1737 12.5829 67.1484 12.5593 67.1138 12.5427C67.0798 12.5257 67.0357 12.5172 66.9817 12.5172H66.7708V13.4646H66.6299V12.4019ZM67.2511 13.4646L66.9927 12.9829L67.1394 12.9822L67.4014 13.4559V13.4646H67.2511Z" fill="white"/>
</svg>
