<svg width="76" height="63" viewBox="0 0 76 63" fill="none" xmlns="http://www.w3.org/2000/svg">

<path d="M20.0215 33.907H20.8629V35.63C20.8386 35.6397 20.8198 35.6549 20.804 35.6519C20.0719 35.5181 20.1935 35.6878 20.1808 34.9649C20.1777 34.774 20.1929 34.5818 20.1723 34.3934C20.165 34.3277 20.0744 34.2712 20.0215 34.2104C20.0215 34.1094 20.0215 34.0085 20.0215 33.907Z" fill="white"/>
<path d="M20.0215 28.9951C20.2902 28.8881 20.5583 28.7811 20.8866 28.6504C20.8866 29.1903 20.8915 29.6773 20.8793 30.1631C20.8781 30.2111 20.7784 30.2786 20.7122 30.2992C20.5529 30.3491 20.3863 30.3771 20.1796 30.4233C20.1796 30.0706 20.1814 29.7514 20.1783 29.4323C20.1771 29.3356 20.196 29.1994 20.0215 29.2985C20.0215 29.197 20.0215 29.096 20.0215 28.9951Z" fill="white"/>
<path d="M20.0215 30.6932C20.2969 30.6494 20.5723 30.6056 20.8909 30.5546C20.8909 31.0093 20.897 31.4586 20.883 31.9067C20.8812 31.962 20.7778 32.0466 20.7091 32.0611C20.5541 32.0952 20.3917 32.094 20.1802 32.111C20.1802 31.8046 20.1856 31.5176 20.1765 31.2306C20.1741 31.1467 20.2367 30.9674 20.0215 31.0568C20.0215 30.9358 20.0215 30.8142 20.0215 30.6932Z" fill="white"/>
<path d="M20.0215 32.3906C20.292 32.3706 20.5626 32.3511 20.8641 32.3286V33.6382H20.1796C20.1796 33.3756 20.1905 33.1257 20.1723 32.8782C20.1674 32.8132 20.0744 32.7548 20.0215 32.694C20.0215 32.5931 20.0215 32.4922 20.0215 32.3906Z" fill="white"/>
<path d="M20.0215 28.4491C20.1145 28.3798 20.2258 28.3251 20.2951 28.2369C20.3662 28.1469 20.3954 28.0241 20.4422 27.9177C20.582 28.0302 20.7079 28.1311 20.8897 28.2777C20.6957 28.5409 20.3358 28.578 20.0215 28.6917C20.0215 28.6108 20.0215 28.53 20.0215 28.4491Z" fill="white"/>
<path d="M47.1587 36.8587C46.9234 36.8909 46.7349 36.9171 46.5215 36.9462V29.1957C46.7914 29.2589 47.0535 29.2948 47.293 29.3878C47.3897 29.4255 47.4383 29.5884 47.5386 29.7398C47.3599 29.7654 47.2742 29.7775 47.158 29.7939V36.8587H47.1587Z" fill="white"/>
<path d="M48.3814 36.6666V36.3158C48.3814 34.3174 48.3808 32.3189 48.3826 30.3205C48.3826 30.1411 48.3911 29.9946 48.1479 29.9423C48.064 29.9241 48.0197 29.7222 47.957 29.6043C47.9838 29.586 48.0099 29.5678 48.0367 29.5496C48.337 29.6316 48.7377 29.6268 48.9073 29.8219C49.0611 29.9989 48.9724 30.3947 48.973 30.6938C48.9766 32.4904 48.9784 34.287 48.973 36.0835C48.9711 36.7086 49.0806 36.5827 48.3808 36.666L48.3814 36.6666Z" fill="white"/>
<path d="M32.9022 42.924H32.5392C32.5392 42.5124 32.5392 42.1111 32.5392 41.7105C32.5392 41.266 32.5313 40.8216 32.5459 40.3784C32.549 40.2872 32.6444 40.1188 32.687 40.1224C32.87 40.1364 33.1211 39.9735 33.2147 40.2933C33.3977 40.9207 33.5923 41.5445 33.782 42.1701C33.7959 42.2163 33.8111 42.2619 33.8525 42.3944C33.9528 42.0862 34.0312 41.8558 34.1024 41.6229C34.2337 41.19 34.3699 40.7578 34.4866 40.3206C34.576 39.9862 34.8344 40.1218 35.0295 40.1133C35.246 40.1036 35.1773 40.2908 35.1779 40.4057C35.1834 41.1529 35.1809 41.8995 35.1797 42.6468C35.1797 42.7349 35.1694 42.8237 35.1627 42.9234H34.7943V40.7699C34.7742 40.7644 34.7535 40.7584 34.7335 40.7529C34.7043 40.8252 34.6702 40.8964 34.6465 40.9706C34.4617 41.5554 34.2769 42.1403 34.0969 42.7264C34.0549 42.8632 33.996 42.9878 33.8336 42.9307C33.7431 42.8985 33.6354 42.8103 33.6063 42.7234C33.4026 42.1123 33.2171 41.4952 33.025 40.8806C33.005 40.8173 32.9776 40.7565 32.9016 40.7006V42.924H32.9022Z" fill="white"/>
<path d="M20.168 40.1382C20.5309 40.0312 20.7224 40.1455 20.8568 40.4817C21.1012 41.0939 21.3937 41.6867 21.7353 42.2752C21.7353 41.7274 21.7353 41.1796 21.7353 40.6318C21.7353 40.551 21.7426 40.4695 21.7341 40.3899C21.7062 40.1394 21.8101 40.0549 22.0667 40.1333V42.9008C21.5998 42.9866 21.6022 42.986 21.4119 42.5683C21.1292 41.9469 20.8428 41.3268 20.4993 40.7109V42.9245H20.168V40.1388V40.1382Z" fill="white"/>
<path d="M37.4973 42.9228H37.1562V40.9329C37.2876 40.9566 37.408 40.9785 37.5283 41.0004C37.9326 40.8307 38.1977 40.8453 38.4622 41.0934C38.5801 41.0186 38.6835 40.9529 38.8288 40.8605C38.8264 40.6982 38.8373 40.4702 39.179 40.4672C39.1881 40.6082 39.1979 40.7529 39.2088 40.9238C39.3298 40.9353 39.4556 40.9469 39.59 40.9596C39.7007 41.3457 39.376 41.1779 39.1979 41.2703C39.1979 41.6509 39.1772 42.0619 39.2137 42.468C39.2222 42.5604 39.4258 42.6358 39.5845 42.6632C39.5967 42.6887 39.618 42.7143 39.6192 42.7404C39.6222 42.7976 39.6143 42.8553 39.6107 42.9265C39.5049 42.9319 39.4161 42.9398 39.3267 42.9398C38.9322 42.9417 38.8416 42.8541 38.8404 42.468C38.8391 42.0662 38.8404 41.6643 38.8404 41.2466H38.5467V42.9192C38.4421 42.9246 38.3491 42.9301 38.2105 42.9374C38.2105 42.5033 38.2263 42.0917 38.202 41.6825C38.1929 41.5311 38.1327 41.3244 38.0226 41.2484C37.7898 41.0873 37.5137 41.2898 37.5004 41.6144C37.487 41.947 37.4967 42.2808 37.4967 42.6139C37.4967 42.7124 37.4967 42.8103 37.4967 42.921L37.4973 42.9228Z" fill="white"/>
<path d="M36.8103 38.3744C36.5939 38.3647 36.3926 38.3561 36.189 38.347V34.3635H36.8103V38.3744Z" fill="white"/>
<path d="M36.8265 26.3383H36.1723V26.072C36.1723 25.0414 36.1821 24.0103 36.1657 22.9798C36.1614 22.7195 36.2654 22.59 36.4946 22.5864C36.7445 22.5821 36.8405 22.7177 36.835 22.9925C36.815 24.0024 36.8271 25.0135 36.8271 26.0239C36.8271 26.134 36.8271 26.2434 36.8271 26.3389L36.8265 26.3383Z" fill="white"/>
<path d="M39.6287 37.9398C39.4178 37.9702 39.242 37.9957 39.0493 38.0237V34.3575H39.8324C39.8087 34.546 40.0014 34.7801 39.6682 34.8993C39.6299 34.9132 39.6305 35.064 39.6299 35.1516C39.6275 36.069 39.6281 36.9871 39.6281 37.9392L39.6287 37.9398Z" fill="white"/>
<path d="M36.8164 30.2943H36.1938V26.8142H36.8164V30.2943Z" fill="white"/>
<path d="M34.0245 37.9483C33.6358 37.8992 33.4415 37.6942 33.4415 37.333C33.4415 36.5773 33.4463 35.8216 33.4354 35.0658C33.4342 34.9722 33.3351 34.8841 33.3071 34.7862C33.2633 34.6324 33.2421 34.4725 33.208 34.2955H34.0245V37.9483Z" fill="white"/>
<path d="M38.3395 34.346C38.2921 34.5703 38.4568 34.802 38.1717 34.9315C38.1285 34.9509 38.1334 35.0987 38.1334 35.1874C38.131 36.024 38.1316 36.8606 38.1316 37.6972C38.1316 38.2152 38.1225 38.2237 37.5564 38.1969C37.551 38.093 37.5394 37.9854 37.5394 37.8778C37.5382 36.8193 37.5461 35.7608 37.5333 34.7029C37.5303 34.4402 37.5832 34.301 37.8787 34.3429C38.0148 34.3624 38.1565 34.346 38.3389 34.346H38.3395Z" fill="white"/>
<path d="M35.4778 38.206C35.3878 38.1926 35.3191 38.1738 35.2504 38.1731C34.9945 38.1713 34.9185 38.0528 34.9233 37.7962C34.9398 36.9292 34.9325 36.0616 34.9264 35.1946C34.9252 35.0627 34.9933 34.9071 34.7683 34.8262C34.6996 34.8013 34.7239 34.5198 34.7026 34.3319H35.4778V38.2054V38.206Z" fill="white"/>
<path d="M31.1092 34.2152V37.4412C30.8976 37.4083 30.7043 37.3785 30.4769 37.3433C30.4769 36.79 30.4769 36.2471 30.4769 35.7048C30.4769 35.4324 30.4793 35.1594 30.475 34.887C30.4738 34.8202 30.4604 34.7022 30.4325 34.6961C30.1376 34.628 30.2604 34.4128 30.23 34.2152H31.1098H31.1092Z" fill="white"/>
<path d="M41.136 37.7239C40.9348 37.7507 40.7567 37.7744 40.5542 37.8011V34.3508H41.35C41.3324 34.535 41.5112 34.7649 41.1737 34.8548C41.1409 34.8634 41.1373 35.0208 41.1373 35.109C41.1348 35.8659 41.1354 36.6229 41.1354 37.3798C41.1354 37.4892 41.1354 37.5987 41.1354 37.7245L41.136 37.7239Z" fill="white"/>
<path d="M39.0355 23.5591C39.5956 23.7066 39.8627 23.963 39.8368 24.3282C39.7772 24.3355 39.7146 24.3428 39.6295 24.3531V27.0781C39.4592 27.0422 39.3109 27.0282 39.1777 26.9753C39.1151 26.9504 39.0422 26.8513 39.0416 26.7856C39.033 25.718 39.0355 24.6504 39.0355 23.5591Z" fill="white"/>
<path d="M32.5645 37.6978C32.3542 37.6619 32.1772 37.6321 31.9748 37.5975C31.9748 36.7986 31.9827 36.0137 31.9693 35.2294C31.9663 35.0366 32.0945 34.7831 31.7723 34.6706C31.7206 34.6524 31.7468 34.4104 31.7358 34.2554H32.5645V37.6978Z" fill="white"/>
<path d="M46.2658 41.747V42.9228C46.1357 42.9289 46.0305 42.9331 45.9028 42.9392V40.1382C46.2615 40.1382 46.6239 40.1042 46.9765 40.1474C47.3425 40.1924 47.5061 40.4538 47.5146 40.8696C47.5231 41.2879 47.3498 41.5779 47.0033 41.6588C46.7722 41.7129 46.5291 41.7172 46.2652 41.7464L46.2658 41.747ZM46.2761 41.3493C46.5655 41.3609 46.8847 41.4594 47.0428 41.1578C47.1188 41.0131 47.1048 40.7444 47.016 40.6058C46.8409 40.3328 46.5394 40.4702 46.2761 40.4702V41.3493Z" fill="white"/>
<path d="M33.4449 27.0434V24.3458C33.1646 24.3695 33.2273 24.1762 33.2315 24.0285C33.2382 23.8011 33.4267 23.6947 34.0444 23.5615V25.4365C34.0444 25.7594 34.0444 26.0828 34.0444 26.4057C34.0444 26.7713 33.8446 26.9839 33.4449 27.0434Z" fill="white"/>
<path d="M43.5402 34.3125H44.3944C44.3901 34.4912 44.5372 34.7198 44.2035 34.7952C44.1719 34.8025 44.1639 34.9594 44.1633 35.0476C44.1603 35.782 44.1615 36.5164 44.1615 37.2819C43.9542 37.3141 43.7602 37.3451 43.5396 37.3792V34.3131L43.5402 34.3125Z" fill="white"/>
<path d="M54.3238 41.0581V40.1266C54.4351 40.1193 54.5299 40.1132 54.6503 40.1047V42.9477C54.5202 42.9233 54.398 42.9008 54.1986 42.8638C53.7803 43.1319 53.376 42.9787 53.2653 42.3962C53.2209 42.1615 53.2215 41.9147 53.2288 41.6745C53.2513 40.9924 53.6672 40.7443 54.3238 41.0574V41.0581ZM54.3396 41.9311C54.3116 41.77 54.3141 41.5773 54.2393 41.4216C54.1913 41.3213 54.0308 41.2228 53.9195 41.2222C53.8271 41.2222 53.6629 41.3578 53.6544 41.4459C53.6216 41.7712 53.6143 42.1044 53.6544 42.4278C53.6666 42.5269 53.8557 42.6607 53.9742 42.6716C54.0618 42.6795 54.204 42.5324 54.2533 42.4236C54.3171 42.2831 54.3122 42.1117 54.3402 41.9311H54.3396Z" fill="white"/>
<path d="M28.7773 34.1752H29.6485V37.1865C29.446 37.1555 29.2527 37.1263 29.0284 37.0923V34.6366C28.6976 34.6068 28.7432 34.3971 28.7779 34.1752H28.7773Z" fill="white"/>
<path d="M51.3253 42.9629C51.1667 42.9264 51.0505 42.8991 50.8742 42.8583C50.5532 43.09 49.9732 42.9897 49.9215 42.3932C49.9014 42.1628 49.8838 41.9312 49.8899 41.7007C49.91 40.9973 50.3155 40.7456 50.9764 41.049V40.1455C51.2244 40.0659 51.3332 40.1042 51.3296 40.3747C51.318 41.2198 51.3253 42.0649 51.3253 42.9629ZM51.0025 41.9129C50.9709 41.7463 50.9636 41.5591 50.8943 41.398C50.8566 41.3104 50.7107 41.2131 50.6201 41.2192C50.5143 41.2265 50.3337 41.3341 50.327 41.4107C50.2966 41.7652 50.2972 42.1251 50.3301 42.479C50.3374 42.5574 50.5234 42.6747 50.6255 42.6729C50.7222 42.6717 50.8633 42.5568 50.9034 42.4589C50.9697 42.2972 50.9709 42.1081 51.0019 41.9135L51.0025 41.9129Z" fill="white"/>
<path d="M36.1958 30.7893H36.8141V33.8791H36.1958V30.7893Z" fill="white"/>
<path d="M42.9161 41.0502V40.1273H43.242V42.9617C43.1173 42.921 43.0122 42.8797 42.9027 42.8547C42.8608 42.845 42.8067 42.8651 42.7647 42.8845C42.3239 43.09 41.9622 42.9289 41.8758 42.4583C41.8272 42.1939 41.8108 41.9166 41.8278 41.6485C41.8716 40.9712 42.2595 40.7505 42.9161 41.0496V41.0502ZM42.9319 41.9221C42.8997 41.7488 42.8912 41.5524 42.82 41.3822C42.7848 41.2983 42.6322 41.2156 42.5355 41.2186C42.4388 41.2217 42.2698 41.3257 42.2637 41.3968C42.2333 41.7512 42.2248 42.1118 42.2583 42.4656C42.2662 42.5495 42.4625 42.6687 42.5762 42.6729C42.665 42.6766 42.8 42.5434 42.8419 42.4413C42.9045 42.2887 42.9033 42.11 42.9319 41.9215V41.9221Z" fill="white"/>
<path d="M37.5386 22.9633C37.803 23.0636 38.011 23.1353 38.2128 23.221C38.3362 23.2733 38.4025 23.7451 38.2931 23.7652C38.0578 23.8084 38.1356 23.9664 38.135 24.085C38.1283 24.882 38.132 25.6797 38.1301 26.4768C38.1301 26.5358 38.1198 26.5953 38.1149 26.6513C37.6085 26.6738 37.5386 26.6112 37.5386 26.1436C37.5386 25.2152 37.5386 24.2868 37.5386 23.3584C37.5386 23.249 37.5386 23.1396 37.5386 22.9633Z" fill="white"/>
<path d="M35.4854 26.5498C35.3103 26.5942 35.1455 26.6361 34.9455 26.6872C34.9394 26.5595 34.9297 26.4531 34.9291 26.3467C34.9278 25.5691 34.9321 24.7915 34.923 24.0139C34.9218 23.927 34.8506 23.8412 34.7734 23.7658C34.6828 23.2162 34.7716 23.1238 35.4854 23.0083V26.5504V26.5498Z" fill="white"/>
<path d="M30.4857 25.4433H30.2613C30.1568 25.115 30.2741 24.9387 30.5933 24.8651C30.7575 24.8274 30.9113 24.7472 31.0998 24.6748V27.6533C30.9174 27.6995 30.7192 27.75 30.4863 27.8083V25.4433H30.4857Z" fill="white"/>
<path d="M42.9054 34.3082C42.8476 34.5204 43.0397 34.7593 42.7029 34.8262C42.6689 34.8329 42.6476 34.9825 42.647 35.0658C42.6427 35.7412 42.6263 36.4173 42.6525 37.0915C42.6646 37.4144 42.5929 37.5913 42.2408 37.567C42.1922 37.564 42.1424 37.5804 42.0603 37.5925C42.0493 37.4983 42.0317 37.4138 42.0317 37.3293C42.0299 36.4222 42.0384 35.5151 42.025 34.6079C42.0214 34.3635 42.1071 34.2851 42.3393 34.3058C42.5084 34.3204 42.6804 34.3088 42.9054 34.3088V34.3082Z" fill="white"/>
<path d="M40.5508 24.1483C41.2968 24.2821 41.4044 24.3824 41.346 24.8949H41.1357V27.4752C40.9314 27.4241 40.7484 27.3785 40.5508 27.3293V24.1483Z" fill="white"/>
<path d="M39.6184 30.6282C39.5041 30.6282 39.4335 30.6233 39.3636 30.6288C39.0985 30.6507 39.0237 30.534 39.028 30.2713C39.0438 29.3235 39.0341 28.3756 39.0341 27.3767C39.3168 27.4424 39.5655 27.5001 39.8311 27.5615C39.8184 27.7591 40.0075 28.0108 39.6177 28.0674V30.6276L39.6184 30.6282Z" fill="white"/>
<path d="M31.9884 24.8803C31.8747 24.8912 31.8181 24.8967 31.7628 24.9016C31.6631 24.6176 31.7519 24.4194 32.0236 24.3136C32.1993 24.2449 32.3763 24.1799 32.5708 24.1069V27.2794C32.3878 27.328 32.2066 27.3767 31.9884 27.4344V24.8797V24.8803Z" fill="white"/>
<path d="M34.0217 30.5546C33.8302 30.5795 33.6605 30.6014 33.4423 30.6294C33.4423 30.4579 33.4423 30.3023 33.4423 30.1472C33.4423 29.5216 33.4478 28.8966 33.4356 28.271C33.4338 28.1834 33.3322 28.102 33.3006 28.0096C33.2641 27.9019 33.2301 27.7822 33.2423 27.6727C33.2489 27.6101 33.3401 27.5286 33.4095 27.5061C33.6004 27.4453 33.7992 27.4113 34.0211 27.3608V30.554L34.0217 30.5546Z" fill="white"/>
<path d="M43.5169 25.2451C43.7972 25.3503 44.0592 25.4111 44.2756 25.5455C44.3826 25.6117 44.4064 25.813 44.4854 25.9942H44.1583V28.234C43.9777 28.195 43.8233 28.1841 43.6902 28.1245C43.6142 28.0905 43.5254 27.9786 43.5242 27.9008C43.5126 27.0338 43.5169 26.1674 43.5169 25.2451Z" fill="white"/>
<path d="M27.2583 34.5053V34.1338H28.194V36.9342C28.0444 36.9117 27.9088 36.8813 27.7727 36.874C27.5903 36.8642 27.5386 36.7767 27.5416 36.6016C27.5507 36.0264 27.538 35.4513 27.5483 34.8761C27.552 34.6633 27.5471 34.4846 27.2589 34.5047L27.2583 34.5053Z" fill="white"/>
<path d="M31.104 30.8872C30.9033 30.9073 30.7149 30.9267 30.4771 30.9504C30.4771 30.5935 30.4771 30.264 30.4771 29.9351C30.4771 29.6117 30.4905 29.2876 30.4705 28.9654C30.4632 28.8456 30.3774 28.7313 30.2917 28.6304C30.1567 28.3385 30.2923 28.2145 30.5829 28.1841C30.7507 28.1665 30.9143 28.1105 31.104 28.0662V30.8872Z" fill="white"/>
<path d="M38.1313 30.4579C37.9616 30.4476 37.8358 30.4621 37.7263 30.4257C37.6522 30.4013 37.5494 30.3071 37.5488 30.2427C37.5379 29.1848 37.5409 28.1269 37.5409 27.0125C37.8218 27.0781 38.068 27.1359 38.3404 27.1997C38.2668 27.3906 38.493 27.6362 38.1617 27.7366C38.1313 27.7457 38.1331 27.8855 38.1331 27.9652C38.1313 28.6716 38.1319 29.3781 38.1319 30.0846C38.1319 30.194 38.1319 30.3035 38.1319 30.4573L38.1313 30.4579Z" fill="white"/>
<path d="M34.7018 27.1974C34.9705 27.1299 35.2113 27.0697 35.4788 27.0022V30.3801C35.3177 30.4039 35.1529 30.4282 34.9498 30.458C34.9419 30.3279 34.9304 30.2215 34.9298 30.1151C34.9279 29.4098 34.9334 28.7039 34.9243 27.9987C34.9231 27.8765 35.021 27.688 34.7577 27.6552C34.7218 27.6509 34.7206 27.3688 34.7012 27.1968L34.7018 27.1974Z" fill="white"/>
<path d="M29.0105 28.1768V25.9807C28.9247 25.9893 28.8591 25.9959 28.7904 26.0026C28.6919 25.7151 28.7588 25.5284 29.0822 25.4524C29.2737 25.4074 29.4549 25.3162 29.6647 25.2372C29.6647 26.1279 29.6689 26.9839 29.6574 27.84C29.6561 27.9172 29.5662 28.0272 29.4902 28.0613C29.3558 28.1215 29.2002 28.1342 29.0105 28.1768Z" fill="white"/>
<path d="M42.6456 25.4421V27.8047C42.1148 27.829 42.0303 27.7512 42.0303 27.2593C42.0303 26.5231 42.0303 25.7868 42.0303 25.0505C42.0303 24.9411 42.0303 24.8323 42.0303 24.6766C42.344 24.794 42.6133 24.8949 42.8869 24.997V25.4567C42.8121 25.4524 42.7416 25.4482 42.6456 25.4421Z" fill="white"/>
<path d="M41.1363 30.8197C40.7342 30.8164 40.5332 30.6269 40.5332 30.2512C40.5332 29.4243 40.5332 28.5981 40.5332 27.7396C40.7898 27.801 41.0159 27.8466 41.2354 27.9141C41.2914 27.9311 41.3595 28.0169 41.3619 28.074C41.3667 28.1737 41.3309 28.3604 41.3023 28.3622C41.0853 28.3768 41.1381 28.5276 41.1381 28.6461C41.1357 29.2723 41.1369 29.8986 41.1369 30.5248V30.8197H41.1363Z" fill="white"/>
<path d="M32.5597 30.7266C32.3676 30.7443 32.1901 30.7607 31.9755 30.7807C31.9755 30.1302 31.9755 29.4985 31.9755 28.8662C31.9755 28.7556 31.9943 28.64 31.9694 28.5349C31.9499 28.4534 31.8751 28.3853 31.8247 28.3111L31.7529 28.3482V27.9074C32.015 27.8424 32.2752 27.7779 32.5597 27.7074V30.7266Z" fill="white"/>
<path d="M47.4421 29.0802C47.1113 28.9981 46.8201 28.9258 46.5161 28.8504V26.3893C46.8043 26.4969 47.087 26.5741 47.3381 26.7109C47.4305 26.7614 47.4469 26.9505 47.5181 27.1249C47.3539 27.1073 47.2706 27.0982 47.1563 27.086C47.1563 27.5499 47.1539 28.0004 47.16 28.4516C47.1606 28.5002 47.2056 28.5829 47.242 28.5902C47.5278 28.6485 47.4579 28.8474 47.4415 29.0802H47.4421Z" fill="white"/>
<path d="M43.5371 28.468C43.7821 28.5258 44.0393 28.5513 44.2606 28.6547C44.3658 28.7039 44.4023 28.9009 44.4941 29.0766H44.17V31.2125C43.9414 31.1893 43.7487 31.1699 43.5371 31.1486V28.468Z" fill="white"/>
<path d="M45.9173 34.3058V34.6943C45.6516 34.676 45.6541 34.8542 45.6559 35.0475C45.6614 35.6014 45.6407 36.1559 45.6644 36.7085C45.6772 37.0034 45.5939 37.1457 45.2874 37.1286C45.2102 37.1244 45.1312 37.1469 45.0278 37.1609V34.3064H45.9173V34.3058Z" fill="white"/>
<path d="M29.0259 29.0273H28.7869C28.6903 28.8346 28.7742 28.6254 28.9657 28.578C29.1888 28.5221 29.4131 28.474 29.6539 28.4187V31.0428C29.4508 31.0695 29.2545 31.0956 29.0259 31.126V29.0273Z" fill="white"/>
<path d="M39.0587 31.0439C39.3323 31.0743 39.5791 31.1023 39.8527 31.1327C39.8084 31.326 39.9859 31.5559 39.6661 31.641C39.6333 31.6495 39.6308 31.807 39.6302 31.8957C39.6272 32.5505 39.6284 33.2053 39.6284 33.885H39.0581V31.0439H39.0587Z" fill="white"/>
<path d="M28.1872 28.3933C27.9957 28.4407 27.7932 28.4911 27.5555 28.5507V26.5267C27.4455 26.5407 27.3682 26.5505 27.2017 26.5723C27.2698 26.3954 27.2831 26.1966 27.3804 26.1395C27.6193 25.9984 27.8966 25.923 28.1878 25.8093V28.3933H28.1872Z" fill="white"/>
<path d="M42.033 28.1019C42.3498 28.1779 42.6124 28.2412 42.883 28.3062V28.7306C42.8113 28.7348 42.7383 28.7391 42.641 28.7452V31.0227C42.4647 31.0069 42.3139 31.0069 42.171 30.9728C42.1157 30.9594 42.0391 30.8689 42.0391 30.8129C42.0306 29.9265 42.033 29.04 42.033 28.1019Z" fill="white"/>
<path d="M34.0276 33.8718C33.8178 33.8614 33.6421 33.8523 33.4415 33.8426C33.4415 33.158 33.4433 32.505 33.4396 31.852C33.439 31.7341 33.4895 31.5997 33.2968 31.5377C33.2445 31.5207 33.2335 31.3061 33.2469 31.1863C33.2524 31.1383 33.3703 31.0805 33.4445 31.0671C33.6305 31.0343 33.8202 31.0252 34.0276 31.0045V33.8712V33.8718Z" fill="white"/>
<path d="M30.2026 31.3856C30.5528 31.3516 30.8197 31.3248 31.1055 31.2969V33.8024H30.4768C30.4768 33.2163 30.4781 32.6569 30.4756 32.097C30.4756 31.976 30.5157 31.8489 30.3157 31.8003C30.2537 31.7851 30.2446 31.5522 30.2026 31.385V31.3856Z" fill="white"/>
<path d="M52.9627 42.9733C52.8113 42.9252 52.6897 42.8869 52.5335 42.8371C52.3432 43.0037 52.055 43.0128 51.8015 42.8724C51.5333 42.724 51.54 42.4139 51.6014 42.1634C51.7285 41.6442 52.2094 41.733 52.6034 41.6582C52.6301 41.4503 52.6149 41.2576 52.3839 41.1931C52.1304 41.1226 52.0228 41.2965 51.9711 41.5196H51.6865C51.6738 41.4971 51.647 41.4716 51.6476 41.4472C51.6567 41.0879 51.8787 40.9031 52.3 40.9001C52.7037 40.897 52.9457 41.0837 52.9584 41.4497C52.9749 41.9318 52.9627 42.4158 52.9627 42.9721V42.9733ZM52.6034 41.9932C52.1456 41.944 51.9547 42.0455 51.9419 42.327C51.9334 42.5288 52.0161 42.6693 52.2216 42.6875C52.4745 42.71 52.6216 42.4383 52.6034 41.9938V41.9932Z" fill="white"/>
<path d="M25.2692 34.051V36.4337C25.0345 36.3918 24.8217 36.3535 24.5901 36.3121C24.5901 35.7692 24.5925 35.2463 24.5882 34.7241C24.587 34.586 24.6472 34.4207 24.4235 34.3611C24.3815 34.3502 24.3846 34.1714 24.3633 34.051H25.2692Z" fill="white"/>
<path d="M37.5659 30.8738C37.831 30.9054 38.0675 30.934 38.3283 30.965C38.2852 31.1638 38.4718 31.393 38.1666 31.5097C38.1313 31.5231 38.1338 31.6575 38.1332 31.7359C38.1307 32.3402 38.1326 32.9452 38.1307 33.5495C38.1307 33.6577 38.1216 33.766 38.1161 33.8912H37.5659V30.8738Z" fill="white"/>
<path d="M34.7061 30.9345C34.9888 30.9096 35.2259 30.889 35.4837 30.8665V33.8687H34.9292C34.9292 33.6784 34.9292 33.4911 34.9292 33.3045C34.9292 32.8211 34.9353 32.3372 34.9255 31.8538C34.9225 31.6927 35.01 31.4975 34.7535 31.3972C34.6933 31.3735 34.7219 31.1224 34.7061 30.9345Z" fill="white"/>
<path d="M26.727 36.6587C26.6838 36.6715 26.6735 36.6782 26.665 36.6764C25.9646 36.5396 26.0789 36.7056 26.0686 35.9894C26.0643 35.6769 26.0807 35.3644 26.0637 35.0531C26.0515 34.8287 26.1616 34.5758 25.922 34.3867C25.8783 34.3521 25.916 34.2147 25.916 34.104H26.7276V36.6587H26.727Z" fill="white"/>
<path d="M41.0765 42.0473H39.9621C39.9767 42.2029 39.956 42.3373 40.0077 42.4333C40.0624 42.5355 40.1773 42.6546 40.2795 42.6692C40.3792 42.6832 40.5567 42.5999 40.5944 42.5136C40.6856 42.3014 40.8169 42.288 40.9981 42.3397C41.0309 42.727 40.8552 42.9221 40.4837 42.944C39.7985 42.9848 39.6678 42.8212 39.5894 42.147C39.5608 41.9019 39.5961 41.6429 39.6417 41.3973C39.7019 41.0702 39.9955 40.8878 40.3743 40.9024C40.7585 40.917 40.9647 41.086 41.02 41.4484C41.0479 41.6332 41.0565 41.8211 41.0771 42.0473H41.0765ZM39.9694 41.7761H40.6746C40.6601 41.3128 40.5725 41.162 40.3165 41.1845C39.9548 41.2168 39.9888 41.5025 39.9694 41.7761Z" fill="white"/>
<path d="M31.0064 42.9587C30.8769 42.9228 30.7499 42.8875 30.5887 42.8432C30.3826 42.9939 30.0932 43.0207 29.8464 42.8657C29.6141 42.7197 29.6008 42.4395 29.6561 42.1817C29.7728 41.6351 30.2586 41.7512 30.635 41.6558C30.6733 41.4673 30.6842 41.28 30.4665 41.2016C30.2574 41.1262 30.1394 41.2369 30.0452 41.4326C30.0093 41.508 29.8391 41.5184 29.7169 41.5634C29.7011 41.1019 29.9042 40.9086 30.3486 40.9025C30.7736 40.8964 31.001 41.0897 31.0052 41.4758C31.0107 41.9482 31.0064 42.4212 31.0064 42.9587ZM30.6398 41.992C30.2021 41.947 29.971 42.0662 29.9814 42.3361C29.9881 42.5191 30.0671 42.6748 30.2817 42.6839C30.5425 42.6948 30.6708 42.4474 30.6398 41.992Z" fill="white"/>
<path d="M28.1975 28.7622V31.2081C27.9866 31.2355 27.7829 31.2616 27.5531 31.2908V29.3811C27.4485 29.3708 27.3646 29.3629 27.2661 29.3532V28.989C27.5731 28.9142 27.8741 28.8406 28.1982 28.7616L28.1975 28.7622Z" fill="white"/>
<path d="M41.1299 33.907C41.0423 33.9173 40.9925 33.9264 40.9426 33.9282C40.6694 33.9384 40.5326 33.8034 40.5322 33.5233C40.5322 32.7688 40.5322 32.0143 40.5322 31.2094C40.8186 31.2404 41.0806 31.2683 41.3348 31.2957C41.3765 31.5754 41.3082 31.7472 41.1299 31.8113V33.9064V33.907Z" fill="white"/>
<path d="M45.9257 26.1546V26.5431H45.6643V28.578C45.6047 28.595 45.5853 28.6078 45.5688 28.6041C45.1919 28.5243 45.0034 28.2874 45.0034 27.8934C45.0034 27.2191 45.0034 26.5449 45.0034 25.8147C45.339 25.9387 45.6266 26.0445 45.9251 26.1552L45.9257 26.1546Z" fill="white"/>
<path d="M49.6884 42.347C49.6562 42.7678 49.4848 42.9368 49.1054 42.9423C48.4579 42.9514 48.2615 42.7653 48.2493 42.1142C48.2457 41.9038 48.2414 41.6886 48.2803 41.4831C48.3606 41.0612 48.636 40.8721 49.0628 40.911C49.4975 40.9511 49.6793 41.1438 49.6994 41.5956C49.7055 41.7336 49.7006 41.8722 49.7006 42.0412H48.5947C48.6305 42.2218 48.636 42.372 48.6913 42.5015C48.7917 42.7374 49.1485 42.7641 49.247 42.5294C49.3443 42.2984 49.4762 42.2905 49.689 42.3458L49.6884 42.347ZM48.6117 41.7749H49.3267C49.3474 41.3694 49.2525 41.198 49.0099 41.1809C48.7594 41.1633 48.664 41.2977 48.6117 41.7749Z" fill="white"/>
<path d="M31.752 31.2319C32.0262 31.207 32.2754 31.1845 32.5521 31.1589V33.8243H31.9751C31.9751 33.1993 31.9751 32.5792 31.9751 31.959C31.9751 31.8077 32.0213 31.6186 31.752 31.7025V31.2319Z" fill="white"/>
<path d="M44.9504 42.3385C44.9352 42.7531 44.7607 42.9349 44.388 42.9422C43.7247 42.9544 43.5265 42.7653 43.515 42.0983C43.5119 41.9074 43.5052 41.7129 43.5368 41.5256C43.611 41.0824 43.8779 40.8799 44.3181 40.9055C44.751 40.931 44.9407 41.1365 44.9656 41.6138C44.9723 41.7427 44.9668 41.8728 44.9668 42.043H43.8609C43.8919 42.2144 43.884 42.3579 43.9454 42.4601C44.0044 42.5586 44.129 42.6607 44.236 42.6741C44.3266 42.6856 44.4944 42.595 44.5218 42.5136C44.6014 42.2807 44.7522 42.3014 44.951 42.3379L44.9504 42.3385ZM43.8822 41.7797H44.5783C44.6245 41.3998 44.5315 41.2082 44.2956 41.1821C44.0348 41.1535 43.9229 41.3073 43.8822 41.7797Z" fill="white"/>
<path d="M23.7422 42.9586C23.6182 42.9258 23.5002 42.8942 23.3215 42.8474C23.1519 43.003 22.854 43.0194 22.5931 42.8705C22.3141 42.7112 22.3651 42.3932 22.4034 42.1281C22.4436 41.8497 22.6807 41.7506 23.4169 41.6539C23.3993 41.4563 23.4169 41.2405 23.1531 41.1894C22.9123 41.1432 22.8041 41.2909 22.7895 41.5195H22.4758C22.4308 41.1736 22.5548 40.993 22.8771 40.9353C23.4078 40.8404 23.7878 41.0022 23.7471 41.6272C23.7197 42.0473 23.7416 42.471 23.7416 42.958L23.7422 42.9586ZM23.4042 41.9865C22.9348 41.9494 22.7542 42.0442 22.739 42.3184C22.7275 42.5318 22.8114 42.6778 23.0345 42.6857C23.2783 42.6942 23.4072 42.4449 23.4042 41.9865Z" fill="white"/>
<path d="M27.7859 41.9469C27.7859 42.0375 27.7907 42.1287 27.7853 42.2187C27.7445 42.8589 27.2314 43.1781 26.6538 42.8978C26.5188 42.8322 26.3717 42.6577 26.3529 42.5166C26.3048 42.1634 26.2866 41.7955 26.331 41.4429C26.379 41.0629 26.6447 40.8976 27.0472 40.9018C27.4314 40.9055 27.6582 41.072 27.7451 41.4387C27.784 41.6028 27.7871 41.7761 27.8059 41.9451C27.7992 41.9451 27.7926 41.9463 27.7859 41.9469ZM27.4478 41.9421C27.4259 41.7791 27.4132 41.629 27.384 41.4818C27.3445 41.2812 27.1955 41.1651 27.0125 41.2161C26.8854 41.2514 26.7104 41.3912 26.6964 41.5025C26.6575 41.8059 26.6654 42.1232 26.7128 42.426C26.7292 42.5294 26.9177 42.6735 27.0301 42.6753C27.1414 42.6771 27.3001 42.5464 27.3572 42.4327C27.4302 42.2874 27.4223 42.1014 27.4478 41.9415V41.9421Z" fill="white"/>
<path d="M35.4185 41.933C35.4258 41.8278 35.433 41.7379 35.4385 41.6473C35.4671 41.1566 35.6775 40.9311 36.1341 40.9043C36.5876 40.8776 36.8357 41.0794 36.9098 41.5585C36.939 41.7458 36.9463 41.9397 36.9378 42.13C36.9068 42.831 36.5615 43.0943 35.8769 42.935C35.5893 42.8681 35.4957 42.6261 35.4489 42.3702C35.4221 42.2224 35.427 42.0692 35.4185 41.933ZM36.584 41.8965C36.5682 41.7695 36.5876 41.6108 36.5244 41.4983C36.4569 41.3779 36.3256 41.2521 36.1973 41.2156C36.0125 41.1633 35.8416 41.2886 35.8282 41.4783C35.8057 41.7938 35.8063 42.1178 35.8586 42.4273C35.8763 42.5313 36.0866 42.6778 36.1991 42.6699C36.3152 42.662 36.4593 42.5076 36.5183 42.3829C36.5827 42.2461 36.5645 42.0698 36.584 41.8965Z" fill="white"/>
<path d="M44.1586 33.9124H43.5366V31.5461C43.823 31.5747 44.1051 31.6033 44.3817 31.6313C44.4174 31.8753 44.3428 32.0311 44.158 32.0988V33.9124H44.1586Z" fill="white"/>
<path d="M26.7414 26.3759C26.7414 27.1535 26.7451 27.8873 26.7347 28.6211C26.7341 28.6819 26.6466 28.7707 26.5803 28.7962C26.4319 28.8534 26.2708 28.8789 26.0672 28.9294C26.0672 28.3931 26.0745 27.8818 26.0611 27.3711C26.058 27.2659 25.948 27.165 25.9419 27.0586C25.934 26.9261 25.937 26.7188 26.0149 26.6701C26.2216 26.5406 26.4702 26.4792 26.7414 26.3759Z" fill="white"/>
<path d="M29.6501 33.7787H29.0245V31.9882C28.9279 31.9633 28.8549 31.9444 28.771 31.9232V31.5341C29.064 31.5031 29.348 31.4727 29.6501 31.4404V33.7787Z" fill="white"/>
<path d="M48.0401 28.8279C48.1374 28.8456 48.2341 28.8626 48.3776 28.8887C48.3776 28.4413 48.3818 28.0126 48.3715 27.5846C48.3703 27.5378 48.2931 27.4636 48.2402 27.4515C47.9623 27.3882 47.969 27.2046 48.0292 26.9633C48.3083 27.069 48.5819 27.1651 48.8475 27.2794C48.9041 27.3037 48.9679 27.3913 48.9685 27.4509C48.977 28.1154 48.974 28.7805 48.974 29.4712C48.6846 29.4007 48.4104 29.3654 48.166 29.2602C48.059 29.214 48.014 29.0255 47.9404 28.9015C47.9733 28.8772 48.0061 28.8523 48.0389 28.8279H48.0401Z" fill="white"/>
<path d="M28.3361 42.9276H28.0078V40.9249C28.1391 40.959 28.2559 40.9888 28.3726 41.0192C28.3641 41.0392 28.3556 41.0599 28.3477 41.08C28.4942 41.0259 28.6365 40.9474 28.7872 40.9219C29.1344 40.8629 29.3587 41.0009 29.3825 41.3481C29.4183 41.8667 29.3916 42.389 29.3916 42.924C29.2894 42.9295 29.2007 42.9337 29.0651 42.941C29.0651 42.4789 29.0827 42.029 29.0535 41.5822C29.045 41.4551 28.9198 41.2642 28.8128 41.2356C28.7003 41.2058 28.513 41.3055 28.4194 41.4058C28.344 41.4867 28.3452 41.6515 28.3398 41.7804C28.3288 42.0521 28.3367 42.3251 28.3361 42.5969C28.3361 42.6966 28.3361 42.7963 28.3361 42.9276Z" fill="white"/>
<path d="M25.285 26.9456C25.285 27.6587 25.288 28.3299 25.2789 29.0018C25.2783 29.0577 25.2035 29.1422 25.1458 29.1617C24.9774 29.2188 24.8004 29.2498 24.6016 29.2972V27.753C24.494 27.6295 24.37 27.5426 24.3827 27.4891C24.4083 27.3863 24.4916 27.2654 24.5852 27.2179C24.7956 27.1103 25.026 27.0428 25.2844 26.9456H25.285Z" fill="white"/>
<path d="M45.0195 28.8328C45.2949 28.896 45.5509 28.924 45.7777 29.02C45.8762 29.062 45.9151 29.245 46.0136 29.4219C45.8804 29.4219 45.8439 29.4219 45.8081 29.4219C45.7698 29.4219 45.7321 29.4219 45.6524 29.4219V31.3662C45.602 31.3851 45.5928 31.3918 45.5843 31.3912C44.8943 31.3036 45.0165 31.4447 45.0061 30.7807C44.9982 30.2475 45.0037 29.7137 45.0049 29.1799C45.0049 29.0723 45.014 28.9641 45.0195 28.8328Z" fill="white"/>
<path d="M42.0346 31.3705C42.3501 31.407 42.6085 31.4368 42.8803 31.4678V31.8374C42.8535 31.8295 42.8274 31.8216 42.8007 31.8137C42.7484 31.9468 42.6553 32.0788 42.6511 32.2131C42.6341 32.7646 42.6438 33.3172 42.6438 33.9258C42.4766 33.9258 42.3301 33.9392 42.1878 33.9191C42.1313 33.9112 42.0413 33.8304 42.0407 33.7817C42.0316 32.9895 42.034 32.1973 42.034 31.3699L42.0346 31.3705Z" fill="white"/>
<path d="M22.902 33.9781C23.2443 33.9946 23.5209 34.0073 23.8127 34.0213V36.1699C23.5805 36.1347 23.3677 36.1024 23.1233 36.066C23.1233 35.5905 23.1263 35.1285 23.1215 34.6664C23.1196 34.5296 23.1853 34.3612 22.9622 34.2998C22.9233 34.2888 22.9269 34.1253 22.9014 33.9781H22.902Z" fill="white"/>
<path d="M27.2666 31.6806C27.5858 31.6496 27.8752 31.621 28.1877 31.5906V33.7623H27.559V32.114C27.4478 32.0909 27.3651 32.0733 27.2666 32.0533V31.6806Z" fill="white"/>
<path d="M26.7414 29.1161C26.7414 29.8396 26.745 30.5321 26.7347 31.2246C26.7335 31.2854 26.6459 31.382 26.5833 31.3966C26.4301 31.4313 26.2684 31.4276 26.0671 31.4428C26.0671 31.0209 26.0781 30.6202 26.0623 30.2208C26.0544 30.0196 26.1608 29.7879 25.9218 29.6238C25.8756 29.5921 25.9152 29.4359 25.9152 29.3149C26.1821 29.2505 26.4429 29.1878 26.7408 29.1161H26.7414Z" fill="white"/>
<path d="M25.2734 29.4681V31.5414C25.0515 31.5645 24.8387 31.587 24.5894 31.6125C24.5894 31.1632 24.5949 30.7528 24.5864 30.343C24.5834 30.2141 24.6697 30.0232 24.4229 30.0038C24.4435 29.8895 24.4332 29.6967 24.4903 29.6742C24.7293 29.5806 24.9877 29.5374 25.2728 29.4675L25.2734 29.4681Z" fill="white"/>
<path d="M23.8287 27.511C23.8287 28.1591 23.8341 28.744 23.822 29.3289C23.8208 29.4 23.7387 29.5046 23.6694 29.5331C23.5131 29.597 23.3411 29.6225 23.1441 29.6718V28.2795C23.0365 28.17 22.9216 28.1032 22.9264 28.046C22.9331 27.9597 23.0042 27.8417 23.0815 27.8046C23.3046 27.6958 23.5435 27.6198 23.8293 27.511H23.8287Z" fill="white"/>
<path d="M45.6565 33.9392H45.0327V31.7207C45.3203 31.7462 45.6048 31.7712 45.9094 31.7985V32.1779C45.8401 32.1901 45.7653 32.2028 45.6559 32.2223V33.9392H45.6565Z" fill="white"/>
<path d="M50.3999 34.2955C50.4941 34.5223 50.4169 34.6403 50.1488 34.6469C50.1488 35.0902 50.1488 35.5218 50.1488 35.9541C50.1488 36.5055 50.1348 36.5177 49.5171 36.4849V34.2961H50.3999V34.2955Z" fill="white"/>
<path d="M21.4917 33.9769H22.352V35.914C22.1532 35.8854 21.9647 35.8726 21.7854 35.824C21.7288 35.8088 21.6674 35.6981 21.6632 35.6276C21.6486 35.3771 21.6717 35.1242 21.6528 34.8743C21.6352 34.6439 21.7659 34.3758 21.496 34.1946C21.4638 34.1733 21.4917 34.0627 21.4917 33.9775V33.9769Z" fill="white"/>
<path d="M23.8133 29.8243V31.7054C23.592 31.734 23.384 31.7608 23.1232 31.7942C23.1232 31.3723 23.1257 30.974 23.1214 30.5764C23.1202 30.481 23.1773 30.3332 22.981 30.3533C22.9937 30.2408 22.9767 30.0481 23.0247 30.0298C23.2661 29.9392 23.5251 29.8943 23.8133 29.8243Z" fill="white"/>
<path d="M50.9987 36.3116V34.2664H51.9398C51.8565 34.4044 51.7982 34.4907 51.7507 34.5831C51.7094 34.6646 51.6528 34.7515 51.6504 34.8366C51.6401 35.2799 51.6455 35.7231 51.6455 36.2034C51.4321 36.2387 51.2297 36.2727 50.998 36.311L50.9987 36.3116Z" fill="white"/>
<path d="M25.4494 41.5822H25.1776C25.0749 41.4472 25.0116 41.2946 24.8979 41.2302C24.7247 41.1323 24.504 41.2812 24.476 41.5293C24.4462 41.7956 24.4426 42.0759 24.4942 42.3361C24.5204 42.4668 24.6955 42.5677 24.8037 42.6814C24.9052 42.5756 25.008 42.471 25.1077 42.3634C25.1265 42.3434 25.1314 42.3099 25.1454 42.2771H25.4634C25.4439 42.6881 25.2725 42.9143 24.9733 42.941C24.4304 42.989 24.2091 42.8826 24.138 42.4394C24.0851 42.1087 24.0905 41.7561 24.1404 41.4241C24.1981 41.0429 24.5046 40.8666 24.9016 40.9104C25.284 40.9523 25.4293 41.1262 25.4494 41.5822Z" fill="white"/>
<path d="M25.9159 31.8143C26.2053 31.7857 26.4552 31.7614 26.7245 31.7346V33.7027C26.6814 33.7191 26.6546 33.7367 26.6266 33.7397C26.0776 33.8018 26.0679 33.7926 26.0679 33.243C26.0679 33.0612 26.077 32.8788 26.0655 32.6977C26.0533 32.5025 26.1451 32.2848 25.9226 32.1262C25.8758 32.0927 25.9159 31.9371 25.9159 31.8143Z" fill="white"/>
<path d="M24.3364 31.973C24.6872 31.9402 24.9639 31.9141 25.2648 31.8861V33.7052H24.5893C24.5893 33.3155 24.5991 32.9452 24.5827 32.5756C24.579 32.4868 24.4799 32.4059 24.441 32.3147C24.4009 32.2223 24.3808 32.1208 24.3364 31.973Z" fill="white"/>
<path d="M50.1536 29.7496C49.7146 29.6848 49.4951 29.4576 49.4951 29.0681C49.4951 28.5671 49.4951 28.0655 49.4951 27.5214C49.7997 27.6375 50.0624 27.7147 50.2995 27.8399C50.3889 27.8874 50.4199 28.0461 50.5068 28.209C50.3402 28.1987 50.2654 28.1938 50.1536 28.1865V29.749V29.7496Z" fill="white"/>
<path d="M21.657 30.0475C21.657 29.6882 21.6667 29.3666 21.6522 29.0461C21.6467 28.9221 21.7567 28.7288 21.5093 28.6953C21.5409 28.5871 21.5409 28.4193 21.6108 28.3816C21.8364 28.2594 22.0881 28.1852 22.3714 28.0764C22.3714 28.6583 22.375 29.1981 22.3659 29.738C22.3647 29.794 22.2948 29.8797 22.2389 29.8985C22.0613 29.9587 21.8753 29.994 21.657 30.0475Z" fill="white"/>
<path d="M50.9966 28.0959C51.2288 28.1829 51.4313 28.2741 51.6423 28.3331C51.8496 28.3908 51.9238 28.5033 51.8581 28.7313C51.8003 28.7349 51.7304 28.7398 51.6398 28.7459V30.1515C51.41 30.0944 51.2082 30.0439 50.9966 29.991V28.0959Z" fill="white"/>
<path d="M49.4953 29.9174C49.772 29.983 49.9841 30.0505 50.2024 30.0815C50.4231 30.1131 50.4681 30.225 50.4073 30.4384C50.1927 30.4068 50.1355 30.5168 50.1446 30.7278C50.1617 31.1278 50.1495 31.5291 50.1495 31.9164C50.093 31.9359 50.0747 31.9492 50.0583 31.9468C49.3725 31.8532 49.5105 31.979 49.4978 31.3449C49.4886 30.8834 49.4959 30.4214 49.4959 29.9167L49.4953 29.9174Z" fill="white"/>
<path d="M53.1533 35.9936C52.9259 36.0277 52.7296 36.0574 52.4912 36.0939C52.4912 35.5096 52.4858 34.9479 52.5004 34.3861C52.5016 34.332 52.6274 34.2444 52.7022 34.2359C52.901 34.2146 53.1035 34.2286 53.343 34.2286C53.343 34.3296 53.371 34.4712 53.3388 34.4864C53.0342 34.6311 53.1728 34.8974 53.1582 35.1126C53.1394 35.3935 53.1533 35.6768 53.1533 35.9936Z" fill="white"/>
<path d="M23.8128 32.0289V33.6936H23.1233C23.1233 33.3586 23.1318 33.0205 23.1173 32.6831C23.1136 32.5998 23.0309 32.522 22.992 32.4381C22.961 32.3718 22.9178 32.2983 22.9245 32.2326C22.9294 32.1846 23.0011 32.111 23.051 32.1043C23.2972 32.0697 23.5465 32.0539 23.8134 32.0295L23.8128 32.0289Z" fill="white"/>
<path d="M21.7031 31.9462C21.6527 31.4185 21.6034 30.9072 21.5518 30.3667C21.7725 30.315 22.0436 30.2518 22.3695 30.1758C22.3695 30.7351 22.3725 31.2531 22.3634 31.7717C22.3628 31.8131 22.2783 31.8787 22.2248 31.8885C22.0491 31.9195 21.8697 31.9298 21.7031 31.9462Z" fill="white"/>
<path d="M51.6463 32.1499C51.4025 32.1159 51.2061 32.0879 50.9976 32.0587V30.2816C51.2176 30.3345 51.431 30.3825 51.6432 30.4373C51.8743 30.4962 51.8737 30.4987 51.8682 30.7595C51.842 30.751 51.8159 30.7431 51.7898 30.7346C51.7423 30.8416 51.659 30.9474 51.6536 31.0568C51.6359 31.4064 51.6469 31.7572 51.6469 32.1506L51.6463 32.1499Z" fill="white"/>
<path d="M52.502 28.6716C52.7719 28.7713 53.0084 28.8504 53.2358 28.9495C53.2929 28.9744 53.3464 29.0632 53.3543 29.1282C53.3598 29.172 53.2765 29.2231 53.2431 29.2766C53.2072 29.3331 53.1598 29.3963 53.158 29.4578C53.1495 29.7988 53.1543 30.1399 53.1543 30.5321C52.9202 30.4761 52.7147 30.4269 52.502 30.3758V28.6716Z" fill="white"/>
<path d="M49.5166 32.2095C49.789 32.2362 50.0328 32.2417 50.2662 32.294C50.3495 32.3128 50.4073 32.4442 50.5155 32.5688C50.3435 32.6107 50.2608 32.6314 50.1513 32.6582V33.9392H49.5166V32.2095Z" fill="white"/>
<path d="M53.9835 35.8349V34.2407H54.7958C54.8006 34.3003 54.8365 34.4012 54.8073 34.4255C54.524 34.6621 54.6553 34.9782 54.6462 35.2579C54.6274 35.8616 54.6401 35.8616 53.9829 35.8349H53.9835Z" fill="white"/>
<path d="M22.3533 32.173V33.682C22.1654 33.682 21.9782 33.696 21.7952 33.6735C21.7429 33.6668 21.6742 33.5586 21.6644 33.4899C21.6444 33.3415 21.6717 33.1871 21.6541 33.0381C21.6328 32.8594 21.7623 32.6338 21.5003 32.5141C21.4705 32.5007 21.496 32.3657 21.496 32.2563C21.7806 32.2289 22.0554 32.2022 22.3527 32.173H22.3533Z" fill="white"/>
<path d="M51 32.3755C51.29 32.4059 51.5587 32.4339 51.8451 32.4636C51.8755 32.5974 51.963 32.7281 51.7284 32.7786C51.6864 32.7877 51.6524 32.9269 51.6499 33.0066C51.6408 33.3087 51.6463 33.6115 51.6463 33.9368H51V32.3749V32.3755Z" fill="white"/>
<path d="M53.1536 32.3335C52.9165 32.3031 52.7281 32.2788 52.5146 32.2508V30.65C52.7548 30.7084 52.9883 30.7619 53.2199 30.8221C53.4035 30.8695 53.4205 31.0586 53.3014 31.0963C53.1001 31.1607 53.1591 31.2835 53.1561 31.396C53.1488 31.6958 53.1536 31.9955 53.1536 32.3335Z" fill="white"/>
<path d="M53.9664 29.231C54.2364 29.3307 54.4777 29.4 54.696 29.5125C54.7617 29.5465 54.7629 29.7034 54.7939 29.8037C54.5537 29.8395 54.651 30.0286 54.6443 30.1581C54.6315 30.3959 54.6407 30.6342 54.6407 30.9066C54.4321 30.8603 54.2643 30.8348 54.1062 30.7813C54.0485 30.7619 53.9743 30.6773 53.9725 30.6214C53.9615 30.1721 53.9664 29.7228 53.9664 29.2316V29.231Z" fill="white"/>
<path d="M31.6527 42.9234H31.3524C31.3433 42.8462 31.3269 42.7696 31.3262 42.6936C31.3244 41.9263 31.3317 41.1584 31.3214 40.3911C31.3183 40.1467 31.3883 40.0476 31.6527 40.1419V42.924V42.9234Z" fill="white"/>
<path d="M54.6404 32.5208C54.385 32.485 54.1886 32.4576 53.9819 32.4284V31.0063C54.2263 31.0665 54.4549 31.1061 54.669 31.1851C54.7346 31.2094 54.7608 31.3401 54.8045 31.4216C54.5328 31.5517 54.6653 31.7992 54.644 31.998C54.627 32.1548 54.6404 32.3147 54.6404 32.5214V32.5208Z" fill="white"/>
<path d="M52.5156 32.5403C52.7631 32.5701 53.002 32.5938 53.2391 32.6309C53.2835 32.6376 53.3498 32.6965 53.3522 32.7342C53.3559 32.7914 53.3157 32.8534 53.2872 32.9099C53.2458 32.9908 53.1656 33.0668 53.1601 33.1489C53.1437 33.4079 53.154 33.6687 53.154 33.9496H52.5162V32.5403H52.5156Z" fill="white"/>
<path d="M54.6215 33.9526H53.9819V32.7092C54.2172 32.7311 54.4464 32.739 54.6683 32.7828C54.7255 32.7943 54.7608 32.9172 54.8064 32.9889C54.5139 33.1652 54.686 33.4522 54.6416 33.6875C54.627 33.7647 54.6288 33.8455 54.6215 33.9519V33.9526Z" fill="white"/>
<path d="M36.5233 20C36.5556 20.2383 36.5957 20.4754 36.6182 20.715C36.6583 21.1388 36.9422 21.52 36.8383 21.9693C36.8249 22.0264 36.8291 22.0878 36.8267 22.1231H36.1816C36.2005 21.8075 36.136 21.4677 36.3081 21.0992C36.4589 20.7764 36.4382 20.3739 36.4935 20.0067C36.5033 20.0049 36.5136 20.0024 36.5233 20.0006V20Z" fill="white"/>
<path d="M26.0721 42.9204H25.7505V40.9688H26.0721V42.9204Z" fill="white"/>
<path d="M47.7056 40.9535H47.9937V42.9209C47.9044 42.927 47.8187 42.9325 47.7056 42.9398V40.9535Z" fill="white"/>
<path d="M34.7573 22.8077C34.5956 22.3116 35.034 22.0684 35.079 21.6014C35.2261 21.9316 35.6723 22.0513 35.4772 22.376C35.3519 22.5839 35.0133 22.6636 34.7579 22.8077H34.7573Z" fill="white"/>
<path d="M39.0426 22.7444C39.2262 22.5869 39.3539 22.4781 39.5199 22.3358C39.6494 22.6532 39.7801 22.973 39.9291 23.3378C39.242 23.2624 39.0238 23.0812 39.0426 22.7444Z" fill="white"/>
<path d="M37.7148 22.224C37.8041 22.0592 37.8935 21.8938 37.992 21.7126C38.037 22.0537 38.4407 22.2957 38.316 22.7237C37.7141 22.6654 37.5251 22.5006 37.55 22.0616C37.6047 22.1157 37.6594 22.1692 37.7141 22.2234L37.7148 22.224Z" fill="white"/>
<path d="M30.2592 24.5824C30.1364 24.1015 30.7225 23.9787 30.6471 23.5215C30.827 23.682 30.9504 23.792 31.1262 23.9495C31.1985 24.1562 31.0739 24.2979 30.8045 24.3727C30.624 24.4225 30.4531 24.5064 30.2592 24.5824Z" fill="white"/>
<path d="M41.01 22.9548C41.1505 23.2704 41.2891 23.5817 41.4496 23.9416C40.7121 23.8449 40.5145 23.6826 40.5455 23.3373C40.7158 23.1968 40.8508 23.0855 41.01 22.9542V22.9548Z" fill="white"/>
<path d="M31.7703 23.9707C31.6176 23.4983 32.1721 23.3414 32.1563 22.9329C32.2524 23.1809 32.6397 23.1833 32.5746 23.508C32.5612 23.5755 32.5199 23.6667 32.4658 23.6916C32.2402 23.7956 32.0055 23.8789 31.7703 23.9713V23.9707Z" fill="white"/>
<path d="M33.6338 22.317C33.7493 22.5657 34.2132 22.6648 34.0193 22.9682C33.8861 23.1767 33.5487 23.2551 33.2812 23.4035C33.1128 22.9007 33.604 22.6964 33.6344 22.317H33.6338Z" fill="white"/>
<path d="M42.1004 23.9258C42.2329 23.8169 42.3654 23.7075 42.5284 23.5737C42.5387 23.9397 42.9898 24.1306 42.8749 24.5708C42.6366 24.4796 42.3971 24.4188 42.1946 24.2966C42.0894 24.2334 42.0493 24.0613 41.98 23.9385C42.0201 23.9343 42.0602 23.9294 42.0998 23.9251L42.1004 23.9258Z" fill="white"/>
<path d="M43.4995 24.5733C43.7062 24.4389 43.8473 24.3471 44.0193 24.2358C44.1592 24.507 44.3154 24.8092 44.4711 25.1107C44.4431 25.1302 44.4145 25.1496 44.3866 25.1691C44.144 25.0742 43.8862 25.0049 43.6649 24.8742C43.5621 24.8134 43.5305 24.6341 43.4995 24.5733Z" fill="white"/>
<path d="M29.2423 24.1945C29.3737 24.3118 29.4959 24.4212 29.6758 24.5824C29.677 25.1083 29.0794 24.9246 28.7967 25.2159C28.7468 24.9781 28.7335 24.8517 28.9408 24.7191C29.0873 24.6249 29.1402 24.3841 29.2423 24.1945Z" fill="white"/>
<path d="M27.2007 25.7113C27.3952 25.4244 27.5898 25.1368 27.7892 24.8425C27.8999 24.9283 28.0342 25.0322 28.2233 25.1787C28.1856 25.7107 27.5813 25.5192 27.3217 25.7952C27.2815 25.7673 27.2408 25.7393 27.2007 25.7113Z" fill="white"/>
<path d="M45.086 25.1509C45.2355 25.0597 45.3851 24.9691 45.5535 24.8663C45.6842 25.1247 45.8307 25.4147 45.9773 25.7053C45.9535 25.7254 45.9298 25.7455 45.9061 25.7649C45.6496 25.6664 45.382 25.5874 45.1407 25.4591C45.0507 25.4111 45.0209 25.2494 44.9644 25.1399C45.0051 25.1436 45.0452 25.1472 45.086 25.1503V25.1509Z" fill="white"/>
<path d="M47.4607 26.3796C47.1847 26.2714 46.9646 26.1692 46.7342 26.0993C46.5269 26.0367 46.4515 25.926 46.5263 25.6944C46.7731 25.8093 46.8898 25.6379 46.9762 25.4609C47.1349 25.6689 47.2966 25.8616 47.4334 26.0701C47.4759 26.1346 47.451 26.2428 47.4607 26.3796Z" fill="white"/>
<path d="M48.9325 26.9608C48.671 26.8586 48.4011 26.7729 48.1524 26.6459C48.0606 26.599 48.0181 26.4549 47.9536 26.3558C47.9767 26.3376 47.9992 26.3188 48.0223 26.3005C48.1068 26.3218 48.1907 26.3437 48.285 26.3674C48.361 26.2719 48.4351 26.1789 48.516 26.0762C48.685 26.3558 48.8473 26.6246 49.0097 26.8933C48.9835 26.9158 48.958 26.9383 48.9319 26.9602L48.9325 26.9608Z" fill="white"/>
<path d="M26.3092 25.4354C26.4454 25.5546 26.57 25.6634 26.7506 25.8215C26.7019 26.255 26.1973 26.1109 25.959 26.3371C25.9286 26.3152 25.8976 26.2933 25.8672 26.2714C26.0119 25.9978 26.1572 25.7236 26.3092 25.436V25.4354Z" fill="white"/>
<path d="M24.3438 26.8726C24.5146 26.6094 24.686 26.3461 24.8618 26.0756C24.9694 26.1649 25.1001 26.2732 25.2691 26.4136C25.2819 26.6428 25.2253 26.6811 24.3438 26.8732V26.8726Z" fill="white"/>
<path d="M49.4897 27.0429C49.7111 26.9152 49.8588 26.8301 50.0169 26.7389C50.1512 26.9669 50.3044 27.2277 50.4583 27.4879C50.4321 27.5074 50.4066 27.5268 50.3804 27.5457C50.1044 27.3359 49.6484 27.4156 49.4897 27.0429Z" fill="white"/>
<path d="M22.894 27.4818C23.0643 27.2131 23.2345 26.9444 23.3865 26.7048C23.5069 26.7784 23.6577 26.8441 23.7659 26.9523C23.803 26.9888 23.7622 27.1888 23.7069 27.2174C23.4692 27.3414 23.212 27.4289 22.9627 27.5305C22.9396 27.5141 22.9171 27.4983 22.894 27.4818Z" fill="white"/>
<path d="M51.058 27.5998C51.1978 27.5123 51.3377 27.4253 51.4805 27.3359C51.6131 27.5615 51.7572 27.8071 51.9019 28.0527L51.8362 28.1099C51.5663 27.9074 51.1115 28.0096 50.9644 27.6053L51.058 27.5998Z" fill="white"/>
<path d="M55.0238 42.2145C55.2938 42.285 55.4068 42.3768 55.4056 42.5902C55.4044 42.8109 55.2877 42.9629 55.0858 42.921C54.9594 42.8948 54.7843 42.7209 54.7776 42.6042C54.7703 42.4796 54.9344 42.3446 55.0238 42.2145Z" fill="white"/>
<path d="M21.9255 27.3141C22.0446 27.4077 22.1735 27.5092 22.3656 27.6606C22.2282 27.9914 21.799 27.9239 21.5303 28.1124C21.509 28.0953 21.4877 28.0783 21.4658 28.0607C21.6221 27.8072 21.7777 27.5536 21.9255 27.3141Z" fill="white"/>
<path d="M52.5137 28.2381C52.6827 28.1318 52.825 28.0424 52.9654 27.9536C53.0906 28.1622 53.2311 28.3962 53.3849 28.6522C52.8633 28.595 52.5228 28.4017 52.5137 28.2381Z" fill="white"/>
<path d="M54.8156 29.2152C54.4989 29.1216 54.1572 29.1209 53.9565 28.8601C54.1298 28.7416 54.2715 28.6437 54.4095 28.5494C54.5378 28.7592 54.6764 28.9878 54.8156 29.2158V29.2152Z" fill="white"/>
<path d="M48.084 40.458H47.6377C47.6663 40.3333 47.6651 40.2099 47.724 40.1321C47.7569 40.0889 47.9259 40.0871 47.9703 40.1309C48.0335 40.1935 48.039 40.3145 48.084 40.458Z" fill="white"/>
<path d="M25.7349 40.447V40.1302H26.0705V40.447H25.7349Z" fill="white"/>
</svg>
