<svg width="105" height="66" viewBox="0 0 105 66" fill="none" xmlns="http://www.w3.org/2000/svg">

<path d="M27.2811 33.8709H25.6301L25.6291 37.5029H22.3271V33.8702H20.6758V42.7871H22.327V39.1543H25.6295V42.7872H27.2811V33.8709Z" fill="white"/>
<path d="M52.7102 36.1819H51.0597V39.5603C51.0597 41.3711 53.6114 43.1818 56.015 41.8712C56.015 43.3069 55.1513 44.3882 53.2201 43.1818L52.2105 44.247C52.7102 45.6989 57.6637 45.6989 57.6637 42.5566V36.1819H56.015V39.5603C56.015 41.4822 52.7102 40.8871 52.7102 39.5603V36.1819Z" fill="white"/>
<path fill-rule="evenodd" clip-rule="evenodd" d="M43.4623 36.1819V45.0991H45.1133V42.1398C46.9055 43.7167 50.0732 42.1398 50.0732 39.8243C50.0732 36.9103 48.3667 36.1819 46.843 36.1819C46.0627 36.1819 45.368 36.6126 45.1133 36.8557V36.1819H43.4623ZM48.5334 39.4491C48.5334 38.7452 48.2328 37.8014 46.7249 37.8421C46.0604 37.8421 45.1179 38.1635 45.1179 39.4491C45.1179 40.1971 45.5394 41.1326 46.7249 41.1326C47.4567 41.1326 48.5334 40.8959 48.5334 39.4491Z" fill="white"/>
<path fill-rule="evenodd" clip-rule="evenodd" d="M35.8672 36.1819V45.0991H37.5182V42.1398C39.3105 43.7167 42.4782 42.1398 42.4782 39.8243C42.4782 36.9103 40.7716 36.1819 39.2479 36.1819C38.4676 36.1819 37.7729 36.6126 37.5182 36.8557V36.1819H35.8672ZM40.9383 39.4491C40.9383 38.7452 40.6378 37.8014 39.1299 37.8421C38.4653 37.8421 37.5229 38.1635 37.5229 39.4491C37.5229 40.1971 37.9443 41.1326 39.1299 41.1326C39.8616 41.1326 40.9383 40.8959 40.9383 39.4491Z" fill="white"/>
<path fill-rule="evenodd" clip-rule="evenodd" d="M32.894 36.1819H34.8765V42.787L32.894 42.7872V42.1329C31.7293 43.2721 30.1856 42.6284 29.3674 42.1329C27.0842 40.2295 28.54 37.406 29.3674 36.8858C30.487 36.1819 32.0303 35.8137 32.894 36.8858V36.1819ZM33.1649 39.4839C33.1649 38.7799 32.8644 37.8361 31.3565 37.8769C30.6919 37.8769 29.7495 38.1983 29.7495 39.4839C29.7495 40.2318 30.1709 41.1673 31.3565 41.1673C32.0882 41.1673 33.1649 40.9306 33.1649 39.4839Z" fill="white"/>
<path fill-rule="evenodd" clip-rule="evenodd" d="M46.1055 30.2381V20H56.0138L60.3069 25.1091L56.0138 30.2381H46.1055ZM47.7588 28.5865V21.652H55.0227L57.9936 25.1091L55.0227 28.5865H47.7588Z" fill="white"/>
<path d="M54.6939 23.9629H53.3717V24.9563C53.3717 26.2739 50.7297 26.3179 50.7297 24.9563V23.9629H49.4089V25.4889C49.4089 27.9202 54.6939 27.9202 54.6939 25.4889V23.9629Z" fill="white"/>
<path d="M59.647 36.1814V42.7875L61.298 42.7863V39.0641C61.298 37.5613 64.2703 37.5149 64.2703 39.0641V42.7875H66.252V39.0641C66.252 37.5034 69.2242 37.5265 69.2242 39.0641V42.7863H70.8752V38.4944C70.8752 36.7068 67.4162 35.0493 65.2599 37.1722C64.7667 36.3039 62.2613 35.6995 61.298 36.7253V36.1814H59.647Z" fill="white"/>
<path d="M73.8474 42.7863H72.1974V36.8418H73.8474V42.7863Z" fill="white"/>
<path d="M76.8193 42.7863H75.1636V33.8702H76.8193V42.7863Z" fill="white"/>
<path fill-rule="evenodd" clip-rule="evenodd" d="M79.7924 40.1454H84.4004V38.9367C84.4004 35.7875 77.8728 35.9149 77.8728 38.9367C77.8728 41.9585 79.0468 42.7863 81.0521 42.7863C82.497 42.7863 83.38 42.1469 83.3631 41.9076L82.3349 40.9304C81.0521 41.9076 79.7924 40.9304 79.7924 40.1454ZM82.4345 38.8232H79.7809C79.7809 37.6238 82.4345 37.3644 82.4345 38.8232Z" fill="white"/>
</svg>
