<svg width="78" height="63" viewBox="0 0 78 63" fill="none" xmlns="http://www.w3.org/2000/svg">

<path d="M38.9337 43C34.612 42.8132 30.4616 42.0648 26.5927 40.1137C24.6723 39.1451 22.9399 37.8978 21.6368 36.1459C19.177 32.8387 19.5101 28.7079 22.4981 25.7115C25.181 23.0217 28.5355 21.6196 32.1675 20.7918C35.2168 20.0963 38.3094 19.8176 41.427 20.1228C46.2798 20.5967 50.8998 21.752 54.7102 25.0397C56.7073 26.7637 58.0132 28.8946 57.9518 31.6137C57.8947 34.1293 56.646 36.1125 54.8105 37.7486C51.9841 40.2684 48.5836 41.5757 44.9293 42.2474C42.9517 42.6112 40.9337 42.7561 38.9351 43H38.9337ZM38.3944 42.3338C42.588 42.3185 45.8589 41.7875 48.6393 40.7436C51.5284 39.6594 54.1847 38.2141 56.0314 35.6358C57.6508 33.3739 57.9477 30.9224 56.7184 28.3999C55.5269 25.9553 53.4781 24.347 51.0838 23.2126C43.8952 19.8092 36.5241 19.6852 29.0735 22.2342C26.4297 23.1387 24.0604 24.5449 22.257 26.7581C19.9115 29.636 19.885 33.1202 22.1845 36.0274C23.4333 37.6065 25.0304 38.7437 26.8046 39.6538C30.6344 41.6203 34.743 42.3087 38.3944 42.3338Z" fill="white"/>
<path d="M41.463 32.3551C42.1571 30.6019 42.8107 28.9518 43.5382 27.1163C44.2727 28.9323 44.9374 30.574 45.6608 32.3593C45.8977 31.7851 46.0914 31.3308 46.274 30.8709C46.9137 29.2528 47.5576 27.6348 48.1819 26.0111C48.3408 25.5986 48.5373 25.384 49.0348 25.4007C50.2376 25.4425 51.4431 25.4146 52.7838 25.4146C52.3978 26.4334 52.0508 27.3546 51.6982 28.2745C50.4536 31.5231 49.1979 34.769 47.9701 38.0246C47.8042 38.465 47.5882 38.6462 47.113 38.6211C46.4175 38.5835 45.7165 38.5723 45.0238 38.6239C44.3758 38.6713 43.9493 38.4901 43.7849 37.8239C43.7472 37.672 43.6413 37.5382 43.5675 37.3947C43.5089 37.4212 43.4448 37.4295 43.4378 37.4546C43.1229 38.5347 42.3466 38.741 41.3445 38.6225C40.6812 38.5445 39.8519 38.7911 39.3822 38.472C38.9154 38.1556 38.8067 37.3138 38.5224 36.6602C36.6757 38.2629 34.496 38.8539 32.1323 38.8106C30.1645 38.7744 28.3067 38.2894 26.7277 37.0518C24.2637 35.123 24.2901 32.3273 26.7639 30.4138C27.0008 30.2312 27.2531 30.0681 27.4928 29.9009C26.9367 28.0111 27.4106 26.7749 29.0607 25.7603C31.1791 24.4586 34.3915 24.6314 36.2702 26.2118C36.7148 26.5867 37.0534 27.1177 37.3461 27.632C37.5259 27.9469 37.6555 28.1198 38.0527 28.1267C39.824 28.156 39.8185 28.1727 40.447 29.8145C40.7592 30.6298 41.0951 31.4367 41.4644 32.3565L41.463 32.3551ZM37.2137 29.9106C37.4004 30.0416 37.6081 30.1824 37.8102 30.3287C39.8171 31.7796 40.4191 34.0861 39.0296 35.9634C38.9432 36.0804 38.8833 36.2616 38.9014 36.4024C39.0631 37.7347 39.6038 38.2155 40.9111 38.2155C41.2832 38.2155 41.6651 38.2713 42.0219 38.1974C42.295 38.1403 42.61 37.9772 42.7703 37.7612C43.0657 37.3598 43.2622 36.8832 43.5479 36.3494C43.7668 36.8051 43.9828 37.1647 44.1124 37.5522C44.2866 38.072 44.5807 38.2838 45.1423 38.2281C45.6942 38.1737 46.2573 38.1863 46.8119 38.2253C47.283 38.2588 47.4962 38.0915 47.6649 37.64C48.7143 34.8387 49.8055 32.0541 50.8773 29.2612C51.3051 28.1448 51.7177 27.0215 52.1664 25.8258C51.1574 25.8258 50.2529 25.8592 49.3512 25.8118C48.8662 25.7867 48.6516 25.9735 48.4857 26.3986C47.6523 28.5337 46.7938 30.6604 45.9451 32.7914C45.8656 32.9921 45.782 33.19 45.6552 33.498C44.9277 31.6904 44.2573 30.0235 43.5326 28.2229C42.8177 30.043 42.1584 31.7168 41.4867 33.4241C41.4045 33.3363 41.3599 33.3084 41.3445 33.2708C40.7996 31.866 40.2658 30.4556 39.7042 29.0563C39.622 28.85 39.4282 28.5588 39.2596 28.5393C38.6966 28.4738 38.121 28.5142 37.59 28.5142C37.4492 29.034 37.3349 29.4521 37.2109 29.9106H37.2137ZM29.8216 34.1126C29.8244 35.5202 30.9923 36.6797 32.3902 36.6672C33.7616 36.6546 34.9085 35.5118 34.9253 34.1418C34.942 32.7231 33.8048 31.5705 32.3832 31.5663C30.9519 31.5621 29.8175 32.6882 29.8202 34.1126H29.8216ZM32.3539 27.0857C31.5818 27.0912 30.9798 27.6766 30.9617 28.4389C30.9435 29.2208 31.5693 29.8605 32.3553 29.866C33.133 29.8716 33.788 29.2347 33.7894 28.4751C33.7908 27.7128 33.1386 27.0815 32.3539 27.087V27.0857Z" fill="white"/>
</svg>
