<svg width="131" height="63" viewBox="0 0 131 63" fill="none" xmlns="http://www.w3.org/2000/svg">

<path d="M20.7197 20.3195H35.7169V24.424H33.5068V22.6875H30.0338V26.1605H33.5068V25.0555H35.7169V35.3167H20.7197V20.3195Z" fill="white"/>
<path fill-rule="evenodd" clip-rule="evenodd" d="M105.493 24.424V25.0555V26.1605H106.914H109.124V22.5296H105.809H105.493V24.424Z" fill="white"/>
<path d="M40.4529 25.0555H45.1888V35.3167H40.4529V25.0555Z" fill="white"/>
<path d="M36.3484 20.3195H49.2933V24.1083H45.1888V24.424H40.4529V24.1083H36.3484V20.3195Z" fill="white"/>
<path d="M59.081 25.0555H63.8169V31.2122C63.8169 36.8954 50.0827 36.8954 50.0827 31.2122V25.0555H54.6608V29.9493C54.6608 32.633 59.081 32.633 59.081 29.9493V25.0555Z" fill="white"/>
<path d="M74.236 25.0555H81.8136V35.3167H77.3933V26.0027L74.7096 35.3167H71.5523L68.7108 26.0027V35.3167H64.4484V25.0555H71.8681L73.131 29.1562L74.236 25.0555Z" fill="white"/>
<path d="M83.0765 25.0555H88.1282C90.3383 26.792 95.0743 25.2133 95.8636 30.265C95.8636 32.633 94.2849 35.3167 89.3911 35.3167C82.7608 35.3167 82.445 31.6858 82.445 30.265H87.0231C87.0231 32.633 91.2855 33.2645 91.2855 30.8965C90.9698 28.6864 82.7608 29.6336 83.0765 25.0555Z" fill="white"/>
<path fill-rule="evenodd" clip-rule="evenodd" d="M105.493 25.0555H98.7052L94.9164 35.3167H99.3366L100.126 33.1066H104.862L105.493 35.3167H110.229L106.914 26.1605H105.493V25.0555ZM103.915 29.7914H101.073C101.073 29.4126 102.652 25.3712 102.652 25.3712L103.915 29.7914Z" fill="white"/>
<path d="M105.493 24.424V22.5296H105.809L104.862 20.3195H100.284L98.863 24.424H105.493Z" fill="white"/>
<path d="M83.0765 24.424H87.3389C87.3389 22.5296 90.9698 22.8454 90.9698 24.424H95.2321C95.2321 20.7931 91.6012 20.0652 89.3911 20.0038C85.2866 19.8898 82.7608 22.3718 83.0765 24.424Z" fill="white"/>
<path d="M74.236 24.424H81.8136V20.3195H75.3411L74.236 24.424Z" fill="white"/>
<path d="M64.4484 24.424H71.8681L70.9209 20.3195H64.4484V24.424Z" fill="white"/>
<path d="M63.8169 20.3195H59.081V24.424H63.8169V20.3195Z" fill="white"/>
<path d="M50.0827 20.3195V24.424H54.6608V20.3195H50.0827Z" fill="white"/>
<path d="M22.9307 40.5232L21.9829 40.5231C21.9829 41.6282 21.1936 41.7861 21.1936 40.2074C21.1936 38.3738 21.9829 38.4221 21.9829 39.576L22.9307 39.576C22.9307 37.6816 20.4043 37.3658 20.4043 40.0496C20.4043 43.049 23.088 42.5754 22.9307 40.5232Z" fill="white"/>
<path fill-rule="evenodd" clip-rule="evenodd" d="M27.3504 38.1552C28.7712 38.1552 28.7712 39.8917 28.7712 40.2074C28.7712 40.2147 28.7712 40.2226 28.7712 40.2312C28.7721 40.5951 28.776 42.1018 27.3504 42.1018C25.9247 42.1018 25.9286 40.5951 25.9295 40.2312C25.9296 40.2226 25.9296 40.2147 25.9296 40.2074C25.9296 39.7338 25.9296 38.1552 27.3504 38.1552ZM27.3504 38.7866C26.561 38.7866 26.561 41.3125 27.3504 41.3125C28.1397 41.3125 27.9818 38.7866 27.3504 38.7866Z" fill="white"/>
<path fill-rule="evenodd" clip-rule="evenodd" d="M54.6616 37.9974C56.0824 37.9974 56.0824 39.734 56.0824 40.0497C56.0824 40.057 56.0824 40.0649 56.0824 40.0735C56.0834 40.4374 56.0872 41.9441 54.6616 41.9441C53.236 41.9441 53.2398 40.4374 53.2408 40.0735C53.2408 40.0649 53.2408 40.057 53.2408 40.0497C53.2408 39.5761 53.2408 37.9974 54.6616 37.9974ZM54.6616 38.6289C53.8723 38.6289 53.8723 41.1547 54.6616 41.1547C55.4509 41.1547 55.2931 38.6289 54.6616 38.6289Z" fill="white"/>
<path d="M32.8754 38.1552H31.9282V41.9439H32.8754V40.0495L33.5069 41.9439H34.4541V38.1552H33.6647V40.5231L32.8754 38.1552Z" fill="white"/>
<path d="M37.9271 41.9439V38.1552H40.1372V38.9445H38.8743V39.7338H40.1372V40.5231H38.8743V41.3125H40.1372V41.9439H37.9271Z" fill="white"/>
<path d="M44.0838 38.1552H43.1367L44.0838 40.0495L43.1367 41.9439H44.0838L44.5574 40.8389L45.031 41.9439H45.9782L45.031 40.0495L45.9782 38.1552H45.031L44.5574 39.2602L44.0838 38.1552Z" fill="white"/>
<path d="M49.767 38.1552H49.1355V41.9439H49.767V38.1552Z" fill="white"/>
<path d="M60.1864 38.1551H59.2393V41.9438H60.1864V40.0495L60.8179 41.9438H61.7651V38.1551H60.9758V40.3652L60.1864 38.1551Z" fill="white"/>
<path d="M65.2381 41.9438V38.1551H67.4483V38.9444H66.0275V39.7337H67.2904V40.5231H66.0275V41.3124H67.4483V41.9438H65.2381Z" fill="white"/>
<path d="M72.9735 39.2601H72.0263C72.0263 38.6287 71.3949 38.6287 71.3949 39.2601C71.3949 39.5759 71.5527 39.8916 72.3421 39.8916C73.1314 39.8916 73.2893 41.3124 72.4999 41.9438C71.8685 42.2596 70.4477 42.2596 70.4477 40.9967H71.237C71.237 41.4703 72.0263 41.6281 72.0263 40.9967C72.0263 40.2073 70.4477 40.5231 70.4477 39.2601C70.4477 37.9972 72.9735 37.492 72.9735 39.2601Z" fill="white"/>
<path d="M81.3404 41.9438H80.5511V38.1551H82.6033V39.1023H81.3404V39.7337H82.6033V40.5231H81.3404V41.9438Z" fill="white"/>
<path d="M86.8657 41.9438H85.9185V38.1551H86.8657V41.9438Z" fill="white"/>
<path d="M96.8112 41.9438H96.0219V38.1551H97.2848L97.7584 40.2073L98.232 38.1551H99.4949V41.9438H98.7056V39.418L98.0741 41.9438H97.4426L96.8112 39.418V41.9438Z" fill="white"/>
<path d="M105.178 38.1551H102.968V41.9438H105.178V41.3124H103.915V40.6809H105.02V39.7337H103.915V39.1023H105.178V38.1551Z" fill="white"/>
<path fill-rule="evenodd" clip-rule="evenodd" d="M90.023 41.9438V38.1551H91.9174C92.7067 38.1551 93.0224 40.2073 92.0752 40.2073C92.391 40.2073 92.5488 40.3652 92.5488 40.6809V41.9438H91.6016V40.6809H90.9702V41.9438H90.023ZM90.9702 38.9444V39.8916C92.0752 39.8916 92.0752 38.9444 90.9702 38.9444Z" fill="white"/>
<path d="M110.703 39.1419H109.756C109.756 38.5104 109.124 38.5104 109.124 39.1419C109.124 39.4576 109.282 39.7733 110.072 39.7733C110.861 39.7733 111.019 41.1941 110.229 41.8256C109.598 42.1413 108.177 42.1413 108.177 40.8784H108.967C108.967 41.352 109.756 41.5098 109.756 40.8784C109.756 40.089 108.177 40.4048 108.177 39.1419C108.177 37.8789 110.703 37.3738 110.703 39.1419Z" fill="white"/>
</svg>
