<svg width="99" height="65" viewBox="0 0 99 65" fill="none" xmlns="http://www.w3.org/2000/svg">

<path d="M25.2498 24.873H28.5279C28.7052 22.4809 28.4323 20.3545 24.6296 20.3545C22.4147 20.3545 20.6427 21.0633 20.6427 24.0756C20.4655 29.0371 25.6042 27.6196 25.6042 31.2521C25.6042 32.8469 24.098 32.8469 24.098 31.7837V29.5687H20.8199V31.2521C20.8198 33.6443 22.4147 34.796 24.9839 34.796C27.1104 34.796 28.8823 34.2645 28.8823 30.7205C28.7937 26.2906 24.541 26.0248 24.098 24.6072C23.3892 22.8352 25.7814 21.2405 25.2498 24.873Z" fill="white"/>
<path d="M31.9833 23.2782H29.5025V30.1003C29.5025 30.2775 29.6318 30.8431 30.2113 31.0749C30.6543 31.2521 31.8947 31.5179 32.6035 30.4547V31.0749H35.0842V23.2782H32.5149V29.2143C32.5149 30.0117 31.9833 30.1003 31.9833 29.2143V23.2782Z" fill="white"/>
<path d="M50.4118 31.0749H47.7538V23.2782H50.4118V24.2528C50.5004 23.928 50.9257 23.2782 51.918 23.2782V26.0248C51.2092 25.8476 50.4118 26.0248 50.4118 26.7336V31.0749Z" fill="white"/>
<path fill-rule="evenodd" clip-rule="evenodd" d="M44.2099 27.3538H47.3994V25.6704C47.3994 23.544 45.7161 23.2782 44.4757 23.2782C42.8809 23.2782 41.9063 24.0756 41.9063 24.873V29.6573C41.9063 30.8977 43.9441 31.3534 45.2731 31.1635C46.6907 30.961 47.3994 29.6573 47.3994 29.1257V27.7968H45.0959V29.0371C45.0959 29.9231 44.2099 29.9231 44.2099 29.0371V27.3538ZM44.2099 26.1134H44.9187V25.0502C44.9187 24.43 44.2099 24.43 44.2099 25.0502V26.1134Z" fill="white"/>
<path fill-rule="evenodd" clip-rule="evenodd" d="M38.008 30.7205V32.4039H35.5272V23.2782H38.008V23.8098C38.5042 23.3846 39.2499 23.1378 39.6914 23.101C40.7546 23.0124 41.2861 23.8984 41.2861 24.5186V30.0117C41.2861 30.7205 40.4888 31.3496 39.6914 31.4293C38.8054 31.5179 38.1557 30.9568 38.008 30.7205ZM38.8054 29.4801C38.8054 30.1889 38.008 30.1889 38.008 29.4801V25.0502C38.008 24.2528 38.8054 24.2528 38.8054 25.0502V29.4801Z" fill="white"/>
<path d="M52.3564 23.1895V31.0748H54.9258V23.1895H52.3564Z" fill="white"/>
<path d="M59.6215 20V22.3036H47.9265V20H59.6215Z" fill="white"/>
<path d="M55.2802 23.1895H57.9381V23.9869C58.2925 23.4553 58.9127 23.1895 59.6215 23.1895V26.0247C59.0013 25.7589 57.9381 25.9538 57.9381 26.7335V31.0748H55.2802V23.1895Z" fill="white"/>
<path d="M66.798 40.0233C59.5034 37.8083 40.7323 34.4416 24.0049 38.6943C32.6875 37.6311 54.5714 36.3907 57.5837 42.6812C60.2417 42.947 65.3804 43.4786 68.6586 44.9848V35.5047C68.0384 35.5047 67.5954 35.5047 66.798 35.2389V36.7451C60.0645 34.796 44.3826 32.581 28.4348 36.2135C36.2315 35.0617 52.3564 34.0872 66.798 38.0741V40.0233Z" fill="white"/>
<path d="M69.5445 44.8076C69.3674 44.8076 69.1902 44.8962 69.1016 44.9848V35.5047C69.1902 35.5047 69.4028 35.4693 69.5445 35.3275V37.2767L71.8481 37.8969V34.6188H73.5315V40.7321C73.1476 40.5844 72.2734 40.2891 71.8481 40.2891V39.0487L69.5445 38.3399V44.8076Z" fill="white"/>
<path d="M74.4175 40.3777C74.2403 40.4663 73.8859 40.6435 73.7973 40.7321V34.6188H74.4175V40.3777Z" fill="white"/>
<path d="M73.5315 33.5556H71.8481V21.5948H73.5315V33.5556Z" fill="white"/>
<path d="M74.4175 33.5556H73.7973V21.5948H74.4175V24.3413L75.3035 22.8352H78.2272L76.0122 26.2905L78.4044 31.0748H75.3035L74.4175 29.7458V33.5556Z" fill="white"/>
<path d="M69.1016 26.1133H71.4051V25.1387C71.4051 23.7211 69.9875 22.9238 68.57 22.9238C67.7726 22.9238 66.0006 23.5439 66.0006 24.7843V29.1256C66.0301 29.8344 66.5449 31.0346 68.3928 31.252C69.8989 31.4292 71.2279 30.2774 71.4051 29.3028V27.7081H69.1016V29.1256C69.0861 30.0116 68.3928 29.9762 68.3928 29.1256V24.7843C68.3928 24.2527 69.1016 24.0755 69.0861 24.9615L69.1016 26.1133Z" fill="white"/>
<path fill-rule="evenodd" clip-rule="evenodd" d="M63.0769 31.0748H65.3804V25.1387C65.3804 23.7211 64.335 22.9238 62.6339 22.9238C60.9328 22.9238 59.9759 23.8097 59.9759 24.9615V26.1133H62.1909V24.7843C62.1909 24.1641 63.0769 24.1641 63.0769 24.7843V25.6703C62.9708 26.2711 62.456 26.3926 61.8754 26.5296C61.0004 26.7361 59.9759 26.9779 59.9759 28.9485C59.9759 32.0494 62.3681 31.252 63.0769 30.366V31.0748ZM62.9883 29.3914V27.2651C62.8083 27.4751 62.6588 27.6038 62.5397 27.7063C62.3072 27.9065 62.1909 28.0066 62.1909 28.4169C62.1909 30.1026 62.9883 29.923 62.9883 29.3914Z" fill="white"/>
</svg>
