<svg width="129" height="63" viewBox="0 0 129 63" fill="none" xmlns="http://www.w3.org/2000/svg">

<path d="M108.3 33.3415C108.19 33.7171 108.067 34.0904 107.975 34.4681C106.618 39.9936 102.252 43.1648 96.2343 42.9935C90.621 42.8332 86.5999 39.5324 85.4425 34.1277C84.2961 28.7802 86.6877 23.4238 91.5455 21.4144C97.7276 18.8559 106.426 20.6611 108.1 29.3468C108.133 29.5203 108.232 29.6828 108.302 29.8497V33.3415H108.3ZM90.9109 30.6271C91.0382 34.4857 91.1854 37.255 92.7556 39.6773C94.6355 42.5784 98.7269 42.6553 100.662 39.8003C101.241 38.946 101.698 37.9402 101.938 36.941C102.785 33.3964 102.746 29.8123 101.957 26.2634C101.564 24.4933 100.769 22.8792 99.0387 21.992C96.1859 20.5293 93.0082 21.9546 91.9189 25.4025C91.282 27.4186 91.1063 29.5774 90.913 30.6293L90.9109 30.6271Z" fill="white"/>
<path d="M33.6668 37.1473C33.0409 34.5712 32.5292 31.8854 28.8661 32.1072C28.8661 34.3385 28.8617 36.5434 28.8705 38.7483C28.8705 39.1831 28.82 39.6684 28.9913 40.0396C29.1999 40.4876 29.5491 41.0432 29.9664 41.1926C32.874 42.2357 37.1147 40.7467 38.6762 38.1751C39.0693 37.5294 39.3109 36.7915 39.6403 36.1063C39.7347 35.9087 39.895 35.744 40.0268 35.5639C40.1256 35.5924 40.2266 35.621 40.3255 35.6495C40.1849 36.7608 40.0509 37.8742 39.8972 38.9855C39.7435 40.0989 39.5678 41.2079 39.3877 42.407H20.7602C20.7382 42.3323 20.7163 42.2555 20.6943 42.1808C21.0303 42.0952 21.3597 41.981 21.7001 41.9305C23.0661 41.7262 23.5647 41.3243 23.58 39.9935C23.6415 34.5427 23.6767 29.0897 23.6437 23.6389C23.6327 21.8952 23.0639 21.4472 21.3158 21.3001C21.094 21.2803 20.8766 21.1991 20.6592 21.1463C20.668 21.0585 20.6789 20.9685 20.6877 20.8806H38.6542V27.1088C38.5444 27.1571 38.4368 27.2055 38.327 27.2516C37.7384 25.2838 37.2882 23.0723 35.0482 22.5123C33.1024 22.0248 31.0403 21.994 28.8332 21.7371C28.8332 23.3732 28.8332 24.7063 28.8332 26.0393C28.8332 27.3109 28.8837 28.5868 28.8178 29.8562C28.7673 30.8071 29.1845 30.952 30.0037 30.8466C31.8396 30.6094 32.6895 29.3972 33.1573 27.794C33.3528 27.1198 33.478 26.4258 33.6361 25.7406C33.7349 25.7516 33.8359 25.7626 33.9347 25.7736V36.9738C33.8447 37.0309 33.7547 37.0858 33.6646 37.1429L33.6668 37.1473Z" fill="white"/>
<path d="M67.4474 42.9802V34.8985C67.5418 34.8743 67.6363 34.8524 67.7307 34.8282C67.88 35.2279 68.0513 35.621 68.1743 36.0295C68.8507 38.2805 70.0871 40.0967 72.213 41.2233C73.5944 41.9546 75.0548 42.1633 76.5503 41.6604C79.0034 40.8324 79.693 38.14 77.8153 36.3787C76.8798 35.5002 75.6719 34.8963 74.5497 34.2309C73.3286 33.5084 72.0197 32.9286 70.8294 32.1643C67.566 30.067 66.4526 26.8168 67.9042 23.8564C69.3932 20.8214 73.1112 19.4707 76.647 20.705C77.297 20.9312 77.9141 21.2562 78.5576 21.5109C79.7172 21.9699 79.9939 21.8447 80.4704 20.7072C80.5341 20.5578 80.6176 20.4173 80.6922 20.2723C80.7867 20.2855 80.8811 20.2987 80.9755 20.3119V27.4317C80.8987 27.4602 80.8196 27.4888 80.7427 27.5173C80.5978 27.1616 80.4265 26.8124 80.3145 26.4456C79.4317 23.5973 77.2004 21.5571 74.5848 21.5109C73.6427 21.4934 72.5468 21.836 71.7738 22.374C70.4407 23.303 70.3639 25.0357 71.5695 26.1667C72.4546 26.9969 73.5592 27.614 74.6156 28.2421C76.2714 29.2259 78.0437 30.0319 79.6337 31.1102C82.1505 32.8166 83.0618 35.3531 82.3503 38.0214C81.6739 40.5601 79.1462 42.6135 76.3703 42.9297C74.5519 43.1362 72.795 42.9363 71.1347 42.1721C69.8697 41.5901 68.7563 41.4517 67.9196 42.8375C67.8669 42.9231 67.6692 42.9209 67.4518 42.9846L67.4474 42.9802Z" fill="white"/>
<path d="M54.7647 42.104C55.2149 42.0315 55.6651 41.9612 56.1131 41.8844C57.1036 41.7131 57.4901 41.1926 57.1607 40.2834C56.728 39.0909 56.2251 37.9182 55.6761 36.774C55.5641 36.539 55.1095 36.3479 54.8086 36.3435C52.7289 36.3062 50.6492 36.3106 48.5694 36.3392C48.2905 36.3435 47.8579 36.4841 47.7613 36.6861C47.2979 37.6678 46.8235 38.6649 46.549 39.708C46.2371 40.8961 46.8389 41.612 48.1082 41.8426C48.5233 41.9173 48.9362 41.9986 49.3512 42.0776C49.3359 42.1808 49.3205 42.2841 49.3073 42.3873H42.1743C42.2182 42.2379 42.2314 42.0183 42.2995 41.9986C44.1969 41.4825 44.8997 39.8903 45.6091 38.3332C47.1881 34.8634 48.7254 31.3759 50.2802 27.8951C51.4156 25.3563 52.551 22.8176 53.8116 20C54.0971 20.5842 54.2728 20.9114 54.4199 21.2496C56.9015 26.9002 59.3787 32.553 61.856 38.2059C61.9438 38.4057 62.0207 38.6099 62.1217 38.8032C62.8508 40.189 63.3471 41.7768 65.3193 42.0886C65.2578 42.1852 65.1941 42.2819 65.1326 42.3763H54.8152C54.7998 42.2863 54.7845 42.1962 54.7669 42.1062L54.7647 42.104ZM51.7472 27.6579C50.5723 30.2954 49.5247 32.6409 48.4508 35.05H54.9536C53.8906 32.6036 52.8804 30.2713 51.745 27.6579H51.7472Z" fill="white"/>
</svg>
