<svg width="113" height="63" viewBox="0 0 113 63" fill="none" xmlns="http://www.w3.org/2000/svg">

<path d="M50.8076 20C50.7992 21.4605 50.7945 22.92 50.7804 24.3805C50.7776 24.6241 50.7196 24.8677 50.7205 25.1113C50.7205 25.2096 50.7879 25.3314 50.8629 25.4035C51.1645 25.6958 51.4887 25.9638 51.7885 26.257C52.3337 26.79 52.329 26.7947 51.9768 27.4955C51.4165 26.8846 50.8526 26.2692 50.2362 25.5984C45.746 30.1626 41.3046 34.6771 36.7676 39.289C36.7676 38.7803 36.7676 38.399 36.7676 38.0187C36.7676 36.8842 36.7563 35.7497 36.7779 34.6152C36.7816 34.4091 36.8716 34.1525 37.0121 34.0082C40.2422 30.704 43.4864 27.413 46.7269 24.1182C47.9485 22.876 49.171 21.6338 50.3898 20.3888C50.5069 20.2689 50.6053 20.1302 50.713 20C50.7439 20 50.7758 20 50.8067 20H50.8076Z" fill="white"/>
<path d="M36.3744 33.9463C31.8299 29.325 27.3341 24.7543 22.7915 20.1339C22.9536 20.1143 23.0651 20.0899 23.1756 20.089C25.4361 20.0871 27.6976 20.0787 29.9581 20.1012C30.183 20.103 30.4481 20.2501 30.6223 20.4084C30.9671 20.7204 31.2744 21.0773 31.5704 21.437C31.7634 21.6703 31.9629 21.7321 32.2599 21.6722C35.2989 21.0604 38.352 21.008 41.4135 21.4886C41.7161 21.5364 41.9709 21.5111 42.1405 21.2281C42.7466 20.2136 43.6506 19.9953 44.7851 20.0646C46.3233 20.1583 47.871 20.088 49.4148 20.088C49.5638 20.088 49.7127 20.088 49.9985 20.088C45.4071 24.7581 40.9086 29.3344 36.3744 33.9463ZM36.7622 27.1198C38.3426 25.3885 39.8865 23.6966 41.4987 21.9308C38.3529 21.4127 35.328 21.4633 32.2402 22.1612C33.7607 23.8278 35.2333 25.4429 36.7622 27.1198Z" fill="white"/>
<path d="M92.6667 35.5061V36.0242C92.4371 36.0242 92.2385 36.0242 92.039 36.0242C79.3161 36.0242 66.5933 36.0261 53.8704 36.0148C53.4526 36.0148 53.209 36.1376 52.9682 36.4851C51.5274 38.5714 49.5142 39.9523 47.2396 40.9865C44.2905 42.3271 41.1747 42.9248 37.9483 42.9932C34.2057 43.0728 30.5952 42.462 27.1899 40.861C25.1655 39.9092 23.3527 38.6623 21.9906 36.8523C19.583 33.655 19.716 30.022 22.3428 27.0017C22.6276 26.6739 22.9358 26.3675 23.2806 26.0012C23.4249 26.2008 23.5485 26.3722 23.7059 26.5905C23.4717 26.9558 23.1373 27.3877 22.8993 27.8683C22.4393 28.7957 21.8913 29.7148 21.6374 30.7031C21.2674 32.1439 21.7873 33.4985 22.5471 34.7314C23.7911 36.753 25.6545 38.058 27.7614 39.0407C30.6271 40.3776 33.6624 40.9603 36.8166 41.023C40.0964 41.0877 43.2741 40.6015 46.3047 39.3237C48.6551 38.3325 50.7555 36.9807 52.1232 34.7614C52.5532 34.0634 52.779 33.2344 53.0563 32.4512C53.3654 31.579 53.6277 30.69 53.9697 29.8122C54.3725 30.7293 54.5346 31.6858 54.3838 32.6507C54.2348 33.6053 53.9584 34.5403 53.7327 35.5061H92.6648H92.6667Z" fill="white"/>
<path d="M71.0503 20.0562C71.8185 20.0562 72.611 20.06 73.4026 20.0534C73.6584 20.0515 73.7118 20.1808 73.709 20.4047C73.7005 21.0577 73.7062 21.7097 73.7062 22.3627C73.7062 25.1441 73.7062 27.9264 73.7062 30.7078C73.7062 32.2076 74.9296 33.2794 76.4323 33.0423C76.9148 32.9665 77.3963 32.7875 77.8366 32.5721C78.513 32.2395 78.8549 31.7008 78.8483 30.8914C78.8193 27.473 78.8465 24.0536 78.8249 20.6342C78.8221 20.1499 78.9692 20.0197 79.4329 20.044C80.1308 20.0796 80.8316 20.0534 81.5089 20.0534C81.4724 20.3448 81.4124 20.6061 81.4124 20.8675C81.4058 24.4424 81.3899 28.0163 81.4227 31.5912C81.4302 32.3753 81.1126 32.8934 80.5037 33.2981C79.4938 33.9689 78.3593 34.2808 77.1705 34.4026C75.5779 34.5647 74.0275 34.4026 72.5773 33.6738C72.2747 33.5211 71.9862 33.3234 71.7267 33.1051C71.3304 32.7716 71.1262 32.3491 71.1281 31.802C71.1421 28.1503 71.1365 24.4977 71.1318 20.846C71.1318 20.6052 71.084 20.3644 71.0512 20.0572L71.0503 20.0562Z" fill="white"/>
<path d="M85.4738 25.3614C86.9642 25.5422 89.4262 25.4383 89.7934 25.1788V27.1854C89.6585 27.1198 89.5255 26.999 89.3906 26.9971C88.2524 26.9812 87.1141 26.9868 85.9759 26.9859C85.8232 26.9859 85.6714 26.9859 85.4934 26.9859V32.558C86.4209 32.7004 90.7743 32.6283 91.1124 32.47V34.1591H82.7954C83.0024 33.0161 82.8647 31.8498 82.8882 30.6882C82.9125 29.5068 82.8938 28.3246 82.8938 27.1433C82.8938 25.9619 82.8994 24.7797 82.8919 23.5983C82.8853 22.4301 82.9238 21.2601 82.8657 20.0759H91.1921V21.7191H85.4728V25.3614H85.4738Z" fill="white"/>
<path d="M55.7203 23.0653C55.1723 24.6626 54.6243 26.2598 54.0762 27.8571C53.3924 29.8525 52.7047 31.847 52.0312 33.8462C51.9506 34.0851 51.8569 34.205 51.5815 34.1937C51.0232 34.1722 50.4639 34.1872 49.9233 34.1872C51.0241 32.2985 51.5262 30.1926 52.2766 28.1887C53.1853 25.7633 54.0191 23.3098 54.8707 20.8638C54.9522 20.6305 54.9306 20.3626 54.9625 20.0563C55.5808 20.0563 56.2974 20.03 57.0085 20.0778C57.1518 20.0872 57.3438 20.3542 57.3991 20.5368C58.4193 23.9394 59.4217 27.3475 60.4269 30.7547C60.7211 31.7514 61.0152 32.7482 61.3075 33.745C61.3459 33.8752 61.3721 34.0082 61.4106 34.1675H58.9833C58.7922 33.5052 58.5936 32.8269 58.4015 32.1468C58.1692 31.3261 57.9359 30.5055 57.7186 29.6802C57.6464 29.4075 57.534 29.2595 57.2192 29.2633C56.363 29.2726 55.5058 29.2511 54.6496 29.2427C54.465 29.2408 54.2805 29.2427 54.0191 29.2427C54.2458 28.5625 54.4538 27.9386 54.6721 27.2847H57.0319C56.6216 25.8373 56.2281 24.4452 55.8337 23.0531C55.7962 23.0578 55.7588 23.0616 55.7213 23.0662L55.7203 23.0653Z" fill="white"/>
<path d="M62.5674 20.0834H65.2139V32.6076H65.8078C67.1334 32.6076 68.4581 32.6133 69.7837 32.6011C69.9954 32.5992 70.2071 32.5158 70.4254 32.469V34.1562H62.5749C62.6114 33.877 62.6798 33.5941 62.6807 33.3103C62.6873 29.1901 62.6882 25.07 62.6807 20.9499C62.6807 20.6661 62.6086 20.3822 62.5683 20.0834H62.5674Z" fill="white"/>
<path d="M89.5973 40.1584C88.8956 40.1584 88.4562 39.7331 88.4441 39.0426C88.4319 38.3644 88.9621 37.8416 89.6563 37.8482C90.3411 37.8548 90.787 38.2997 90.7964 38.9883C90.8067 39.704 90.3402 40.1593 89.5973 40.1593V40.1584ZM88.8366 39.0183C88.8366 39.5345 89.141 39.8736 89.6048 39.8764C90.0966 39.8792 90.4123 39.5354 90.4067 39.0033C90.4011 38.4955 90.0891 38.1686 89.6151 38.1733C89.1401 38.178 88.8356 38.5096 88.8366 39.0183Z" fill="white"/>
<path d="M67.0885 40.1584C66.3587 40.1621 65.9212 39.7312 65.9268 39.0127C65.9324 38.3344 66.4196 37.8557 67.1128 37.8473C67.7986 37.8388 68.2857 38.3269 68.2792 39.0155C68.2726 39.7012 67.8004 40.1537 67.0894 40.1584H67.0885ZM67.8838 39.0398C67.896 38.5377 67.5878 38.1873 67.1231 38.1742C66.6379 38.1611 66.3268 38.4721 66.3156 38.9808C66.3034 39.5382 66.5938 39.8755 67.0857 39.8745C67.5597 39.8736 67.8716 39.5467 67.8848 39.0408L67.8838 39.0398Z" fill="white"/>
<path d="M58.7855 37.9062C59.3307 37.968 59.934 37.6851 60.2235 38.2603C60.349 38.5095 60.1588 38.918 60.112 39.2534C60.053 39.2608 59.9939 39.2683 59.9359 39.2768C60.2113 39.5269 60.4858 39.777 60.8389 40.0974C60.2712 40.2126 60.0305 39.8941 59.7607 39.6131C59.6211 39.4679 59.444 39.3583 59.2848 39.2318C59.2361 39.2637 59.1873 39.2946 59.1386 39.3264C59.1386 39.5213 59.1536 39.718 59.1311 39.911C59.1218 39.9906 59.0318 40.0618 58.9784 40.1368C58.9138 40.0562 58.7958 39.9775 58.7939 39.8951C58.778 39.2608 58.7855 38.6266 58.7855 37.9062ZM59.1583 39.1297C59.4665 38.9892 59.7063 38.918 59.89 38.7756C59.9574 38.7231 59.9424 38.4102 59.875 38.3709C59.6745 38.2547 59.429 38.2163 59.1592 38.1348V39.1297H59.1583Z" fill="white"/>
<path d="M86.6923 39.1775C86.5905 39.7883 86.4593 40.095 86.2988 40.0975V37.9231C86.7963 37.9512 87.3406 37.718 87.6919 38.2098C87.9635 38.5892 87.7387 38.9415 87.3724 39.259C87.6788 39.5288 87.9579 39.7752 88.3149 40.09C87.7687 40.2239 87.5204 39.9204 87.2506 39.6394C87.1026 39.4848 86.9199 39.364 86.6932 39.1775H86.6923ZM86.6455 39.1101C86.9321 38.9902 87.1738 38.9283 87.3593 38.7906C87.4277 38.74 87.4164 38.4206 87.3462 38.3775C87.1485 38.2566 86.9021 38.2154 86.6455 38.133V39.1091V39.1101Z" fill="white"/>
<path d="M73.1423 38.5208V40.1134C73.1095 40.1303 73.0767 40.1481 73.0448 40.1649C72.9821 40.0938 72.865 40.0235 72.864 39.9514C72.85 39.2872 72.8556 38.623 72.8556 37.8267C73.6378 38.192 73.843 38.9696 74.4388 39.4305C74.4679 38.9031 74.4941 38.4056 74.5213 37.9091C74.5831 37.9147 74.6459 37.9203 74.7077 37.926V40.2305C74.0313 39.8071 73.754 39.0839 73.1423 38.5208Z" fill="white"/>
<path d="M78.3098 38.5358V40.1171C78.2705 40.133 78.2321 40.148 78.1927 40.164C78.1384 40.089 78.04 40.0141 78.0382 39.9382C78.026 39.274 78.0307 38.6098 78.0307 37.7994C78.7848 38.2116 79.0321 38.948 79.6289 39.4707V37.9044C79.9661 38.0514 80.0664 39.2759 79.8603 40.2089C79.1942 39.8136 78.9375 39.0857 78.3089 38.5358H78.3098Z" fill="white"/>
<path d="M75.3325 40.0638C75.5939 39.4361 75.8487 38.8066 76.1232 38.1845C76.171 38.0759 76.2956 37.9391 76.3921 37.9325C76.4811 37.9269 76.6234 38.06 76.6693 38.1639C76.9504 38.7982 77.2118 39.4418 77.4797 40.0844C77.1612 40.2352 77.0628 40.0591 76.9935 39.8268C76.9045 39.5261 76.7762 39.3359 76.3874 39.3378C76.0014 39.3387 75.8862 39.527 75.77 39.8221C75.7147 39.9636 75.5648 40.0675 75.458 40.1884C75.4168 40.1472 75.3747 40.106 75.3335 40.0647L75.3325 40.0638Z" fill="white"/>
<path d="M58.1101 38.2379C57.7551 38.2145 57.4787 38.1686 57.2061 38.1845C56.6674 38.2145 56.3536 38.6257 56.4473 39.1353C56.54 39.6403 57.0403 39.9982 57.5087 39.8529C57.6099 39.822 57.6548 39.6103 57.726 39.482C57.7785 39.3883 57.831 39.2946 57.8834 39.2009C57.949 39.2993 58.0624 39.393 58.0727 39.497C58.1317 40.0909 58.0905 40.1284 57.4928 40.1555C56.6637 40.193 56.1625 39.8633 56.081 39.2009C56.0248 38.7428 56.1353 38.3241 56.5494 38.0627C57.0019 37.7779 57.4975 37.8069 57.9874 37.9606C58.0408 37.9774 58.0567 38.1105 58.1111 38.2379H58.1101Z" fill="white"/>
<path d="M63.1373 37.956C63.1373 38.4497 63.1663 38.9452 63.1289 39.4352C63.0923 39.9186 62.7111 40.1631 62.1087 40.1556C61.5279 40.1481 61.2009 39.9073 61.1662 39.4118C61.1372 38.9958 61.1484 38.5752 61.1662 38.1583C61.17 38.0665 61.2805 37.9794 61.3414 37.8904C61.3958 37.9054 61.451 37.9204 61.5054 37.9344C61.5054 38.3616 61.482 38.7897 61.5119 39.215C61.5447 39.6834 61.7724 39.8783 62.1836 39.8652C62.5921 39.8521 62.7916 39.6319 62.8047 39.1607C62.8141 38.8356 62.7916 38.5087 62.8169 38.1855C62.8253 38.0806 62.9387 37.985 63.0043 37.8848C63.0483 37.9082 63.0923 37.9316 63.1364 37.955L63.1373 37.956Z" fill="white"/>
<path d="M64.3877 39.1006C64.6931 38.9873 65.2046 39.0669 65.1063 38.5404C65.0323 38.1451 64.6791 38.1591 64.2987 38.2144V40.0955C64.2491 40.1208 64.1985 40.1471 64.1488 40.1724C64.0758 40.0787 63.9427 39.9869 63.9399 39.8913C63.9212 39.258 63.9306 38.6238 63.9306 37.9427C64.3072 37.9427 64.6772 37.8706 64.9948 37.969C65.2009 38.0327 65.4557 38.3428 65.4594 38.546C65.4632 38.7803 65.2599 39.08 65.0576 39.2346C64.9161 39.3423 64.6247 39.2552 64.4008 39.2552C64.3962 39.2037 64.3915 39.1522 64.3877 39.1006Z" fill="white"/>
<path d="M82.4926 38.2304C81.9633 38.1967 81.3965 37.9878 81.1061 38.5358C80.9778 38.7785 80.9843 39.201 81.1127 39.4474C81.3909 39.9795 81.9361 39.8914 82.4411 39.7996L82.5235 39.9158C82.4186 39.9916 82.3221 40.1191 82.2087 40.1369C81.345 40.2727 80.7595 39.9383 80.6105 39.2497C80.4738 38.6183 80.8232 38.0562 81.4462 37.9063C82.0251 37.7667 82.3858 37.8651 82.4926 38.2295V38.2304Z" fill="white"/>
<path d="M84.3007 37.9381H85.6966C85.3762 38.3531 84.9771 38.0992 84.6624 38.2566V38.8337C84.9762 38.8524 85.275 38.8693 85.5739 38.8871C85.5823 38.9489 85.5917 39.0107 85.6001 39.0716C85.3041 39.1194 85.008 39.1681 84.6661 39.2234V39.7602C84.9668 39.9906 85.454 39.6159 85.7687 40.1134H84.2998V37.9371L84.3007 37.9381Z" fill="white"/>
<path d="M70.1829 38.8374C70.5155 38.8974 70.8068 38.9499 71.0991 39.0023C71.0888 39.0641 71.0776 39.1269 71.0673 39.1887H70.2738C69.9731 39.482 70.4134 40.0094 69.8213 40.1668V37.9493H71.1759C70.8949 38.3718 70.4817 38.0833 70.1829 38.266V38.8365V38.8374Z" fill="white"/>
<path d="M71.8881 40.1846C71.8206 40.0928 71.697 40.0029 71.6942 39.9092C71.6764 39.3227 71.6792 38.7363 71.6923 38.1499C71.6942 38.0721 71.7869 37.9962 71.8375 37.9185C71.9031 37.9953 72.0239 38.0721 72.0258 38.1508C72.0408 38.7972 72.0342 39.4436 72.0342 40.09C71.9855 40.1218 71.9368 40.1537 71.8881 40.1846Z" fill="white"/>
<path d="M83.3253 40.1733C83.2494 40.0843 83.1117 39.9981 83.1089 39.9063C83.0892 39.3199 83.093 38.7334 83.1061 38.147C83.108 38.0692 83.2017 37.9943 83.2532 37.9175C83.3188 37.9952 83.4387 38.0721 83.4405 38.1517C83.4555 38.7981 83.449 39.4445 83.449 40.0909C83.4078 40.1181 83.3675 40.1462 83.3263 40.1733H83.3253Z" fill="white"/>
</svg>
