<svg width="147" height="63" viewBox="0 0 147 63" fill="none" xmlns="http://www.w3.org/2000/svg">

<path opacity="0.7" d="M20.248 21.2748V41.7628C20.248 42.4461 20.8019 43 21.4852 43H26.3636H29.4213H32.4791H34.2846C34.9737 43 35.532 42.4409 35.4959 41.7527C35.1013 34.2313 31.8879 21.3741 21.5217 20.0965C20.8291 20.0111 20.248 20.577 20.248 21.2748Z" fill="white"/>
<path opacity="0.7" d="M44.7102 21.2372V41.7628C44.7102 42.4461 44.1563 43 43.473 43H38.5947H35.5369H32.4791H30.6734C29.9844 43 29.4262 42.4413 29.4611 41.7531C29.8506 34.0856 33.0666 21.0175 43.4721 20.0562C44.1525 19.9933 44.7102 20.5539 44.7102 21.2372Z" fill="white"/>
<path d="M55.7277 39.0384H52.5269C52.7653 33.9941 53.0015 28.9859 53.241 23.8921C54.2803 23.8617 55.3026 23.8156 56.3227 23.8201C56.4554 23.8201 56.623 24.0642 56.7141 24.2284C57.7668 26.1055 58.8049 27.9905 59.8542 29.8687C60.0151 30.1567 60.2141 30.4243 60.4402 30.7674C60.5887 30.5256 60.7 30.3614 60.7945 30.1881C61.8213 28.3178 62.8605 26.4542 63.8615 24.5714C64.1123 24.0991 64.3688 23.8145 64.9604 23.8539C65.7803 23.9079 66.6058 23.8674 67.5123 23.8674C67.7372 28.8689 67.9644 33.9266 68.1938 39.0305H64.8872C64.7163 35.7588 64.5453 32.4938 64.3665 29.0961C64.2147 29.3503 64.1202 29.4953 64.0392 29.6483C63.1811 31.269 62.3139 32.8852 61.476 34.516C61.2983 34.8613 61.088 34.9569 60.7079 35.0075C59.7946 35.1289 59.2986 34.7848 58.8982 33.9559C58.2887 32.6951 57.5329 31.5052 56.8266 30.2916C56.6927 30.0622 56.4993 29.8676 56.3339 29.6562C56.2597 29.6708 56.1855 29.6865 56.1113 29.7012C55.983 32.8053 55.8548 35.9095 55.7255 39.0395L55.7277 39.0384Z" fill="white"/>
<path d="M119.095 34.5767C119.312 35.8049 120.217 36.6563 121.357 36.7564C122.702 36.8734 123.972 36.6563 125.156 35.7903C125.576 36.4786 125.979 37.1377 126.463 37.9294C125.704 38.2927 125.037 38.8033 124.307 38.9203C122.969 39.1351 121.539 39.3915 120.247 39.134C117.986 38.6841 116.396 37.1343 116.107 34.6881C115.978 33.6016 116.029 32.5174 116.399 31.4692C117.106 29.4627 118.563 28.3718 120.632 28.1019C121.292 28.0153 121.988 28.031 122.647 28.1277C124.168 28.3515 125.235 29.2254 125.891 30.6122C126.478 31.8516 126.645 33.1832 126.799 34.5767H119.095ZM121.349 32.577C121.349 32.5512 121.349 32.5253 121.349 32.4994C121.983 32.4994 122.617 32.5039 123.252 32.4983C123.661 32.4938 123.74 32.2734 123.559 31.9494C123.157 31.2319 122.525 30.4783 121.351 30.5065C120.283 30.5323 119.686 31.1363 119.22 31.9753C119.045 32.288 119.13 32.4758 119.502 32.4938C120.117 32.5242 120.732 32.5489 121.348 32.577H121.349Z" fill="white"/>
<path d="M80.3652 34.5902C79.47 34.5902 78.6883 34.5879 77.9055 34.5902C76.575 34.5947 75.2456 34.5992 73.9151 34.6093C73.6913 34.6104 73.4663 34.6318 73.2436 34.6588C72.796 34.7117 72.7364 34.9478 72.9209 35.3246C73.4124 36.3278 74.636 36.9565 75.9013 36.8025C76.4175 36.7395 76.9371 36.6315 77.432 36.4729C77.9089 36.32 78.3565 36.0748 78.8772 35.8431C79.2743 36.4853 79.6747 37.132 80.0863 37.7989C79.0291 38.7347 77.7503 39.0642 76.4209 39.1902C75.6437 39.2644 74.8373 39.279 74.0692 39.1621C71.6241 38.7898 69.982 36.9397 69.7773 34.3922C69.6345 32.6186 69.8842 30.9349 71.2035 29.601C72.7859 28.0006 74.717 27.6677 76.7988 28.2987C78.8379 28.9161 79.8895 30.4401 80.2168 32.4859C80.3225 33.1461 80.3146 33.8231 80.3641 34.5902H80.3652ZM72.8073 32.3453C72.9591 32.3914 73.0783 32.4566 73.1998 32.4589C74.3751 32.478 75.5504 32.5095 76.7246 32.4904C77.2993 32.4803 77.4005 32.2452 77.1385 31.7323C76.6942 30.8618 75.8439 30.4198 74.8103 30.5233C73.761 30.6279 73.1177 31.197 72.8073 32.3453Z" fill="white"/>
<path d="M94.9121 36.2008H101.371V39.071C101.023 39.071 100.709 39.0733 100.395 39.071C97.6609 39.044 94.9267 39.0058 92.1926 38.9979C91.7034 38.9968 91.5583 38.8427 91.5572 38.3535C91.5414 33.6343 91.502 28.9139 91.4717 24.1947C91.4717 24.0856 91.4818 23.9765 91.4897 23.8314H94.9132V36.2008H94.9121Z" fill="white"/>
<path d="M109.503 30.918H107.931V28.2986H109.498C109.553 25.9086 110.444 24.1046 112.888 23.5209C114.456 23.1464 115.919 23.495 117.231 24.4881C117.082 24.7243 116.942 24.9031 116.845 25.1022C116.385 26.0447 115.8 26.4642 114.64 26.1279C113.403 25.7692 112.637 26.7308 112.829 28.257H115.173V30.8944H112.774V38.9933C111.788 38.9933 110.876 38.9967 109.963 38.9922C109.568 38.9899 109.6 38.6773 109.595 38.4242C109.569 37.2444 109.546 36.0646 109.537 34.8837C109.528 33.7601 109.536 32.6354 109.534 31.5118C109.534 31.3296 109.517 31.1474 109.506 30.9169L109.503 30.918Z" fill="white"/>
<path d="M90.2366 38.2151C88.761 39.1813 87.1831 39.4995 85.5017 39.1486C83.9226 38.8202 83.1466 37.7439 83.0442 35.7813C82.9734 34.417 82.97 33.0494 82.9464 31.684C82.9329 30.9249 82.9419 30.9282 82.2075 30.8878C81.8937 30.8709 81.581 30.8338 81.2515 30.8045V28.3707C81.7924 28.3291 82.3379 28.2863 82.9363 28.2402V25.4802H86.0922C86.1371 26.4306 86.1788 27.3056 86.2249 28.2582H88.815V30.89H86.2699C86.2384 31.0407 86.1979 31.1442 86.1979 31.2477C86.1967 32.577 86.1743 33.9076 86.2204 35.2347C86.235 35.6362 86.3621 36.0906 86.5915 36.4111C86.8637 36.7924 87.3383 36.8779 87.8141 36.6991C88.1976 36.5551 88.5856 36.4224 89.0321 36.2627C89.4302 36.9094 89.8273 37.5527 90.2355 38.214L90.2366 38.2151Z" fill="white"/>
<path d="M102.868 28.3436H106.053V38.981C105.119 38.981 104.192 38.9945 103.264 38.9742C102.903 38.9664 102.902 38.6638 102.9 38.3928C102.89 36.8002 102.875 35.2065 102.87 33.6139C102.864 31.8909 102.869 30.1679 102.869 28.3436H102.868Z" fill="white"/>
<path d="M106.291 25.2463C106.281 26.1089 105.375 27.0233 104.528 27.0233C103.579 27.0233 102.747 26.2056 102.761 25.2845C102.776 24.2622 103.603 23.3782 104.528 23.3984C105.568 23.4198 106.304 24.1902 106.291 25.2463Z" fill="white"/>
</svg>
