<svg width="68" height="63" viewBox="0 0 68 63" fill="none" xmlns="http://www.w3.org/2000/svg">

<path d="M34.4471 20C34.7828 20.0687 35.1264 20.1119 35.454 20.2094C38.1846 21.0229 40.0401 22.7186 40.5172 25.593C41.0926 29.0595 38.7791 32.4006 36.0797 33.1422C35.7497 33.2325 35.4021 33.2588 35.0641 33.318C34.7708 33.3699 34.6222 33.1478 34.6605 32.9568C34.7484 32.5109 34.4439 32.3215 34.1922 32.0522C34.2689 31.9994 34.3465 31.9451 34.4687 31.8612C34.2945 31.6742 34.1451 31.4928 33.9725 31.3354C33.8166 31.1931 33.6129 31.0981 33.473 30.9438C33.3324 30.788 33.1174 30.5395 33.163 30.4116C33.2309 30.2198 33.4746 30.024 33.6832 29.9633C34.0068 29.8682 34.3624 29.8634 34.7053 29.8594C35.1959 29.853 35.6874 29.8754 36.178 29.8954C37.0738 29.9321 37.634 29.4519 38.0839 28.6456C37.7171 28.4642 37.3767 28.2676 37.0139 28.1246C36.596 27.9599 36.154 27.8553 35.7305 27.7018C35.2503 27.5284 34.8587 27.2687 34.563 26.8052C34.384 26.5239 33.9972 26.3377 33.6656 26.1979C32.6635 25.7752 32.6595 25.7928 32.769 24.7195C32.8258 24.1682 32.8689 23.616 32.924 23.0031C32.7474 23.0854 32.6108 23.1325 32.4917 23.2076C32.0882 23.4625 31.7006 23.743 31.2899 23.986C30.5587 24.4183 30.0464 25.0128 29.6693 25.784C29.4543 26.2235 29.0236 26.5575 28.6768 26.9539C28.688 26.9627 28.7591 27.0146 28.8957 27.1161C28.5697 27.4621 28.25 27.8009 27.9136 28.1573C27.9943 28.2244 28.0607 28.2804 28.1358 28.3427C27.9807 28.6248 27.8249 28.9085 27.6515 29.2241C27.2935 28.7567 27.1904 28.2021 27.1385 27.6467C26.7965 23.9548 29.1027 20.8558 32.7155 20.1287C32.9208 20.0871 33.1262 20.0432 33.3308 20C33.7024 20 34.0748 20 34.4463 20H34.4471Z" fill="white"/>
<path d="M47.3582 42.9297C47.2224 42.8953 47.0314 42.9073 46.9603 42.821C45.9622 41.5991 44.9593 40.3805 44.014 39.1195C43.8318 38.8766 43.8885 38.4554 43.835 38.1158C43.8765 38.1006 43.9181 38.0846 43.9604 38.0695C44.4031 38.6192 44.8458 39.1698 45.2885 39.7196C45.7368 40.2758 46.1851 40.832 46.7038 41.4761V38.1622C46.9579 38.1893 47.1577 38.2109 47.3582 38.2333V42.9304V42.9297Z" fill="white"/>
<path d="M38.3084 38.171H38.9013C38.9245 38.2021 38.9533 38.2229 38.9533 38.2437C38.9397 39.3688 38.9653 40.4964 38.8941 41.6175C38.8398 42.4678 38.2181 42.9504 37.3878 42.9225C36.5751 42.8945 35.9902 42.3415 35.9702 41.5104C35.9438 40.4133 35.9638 39.3145 35.9638 38.1853H36.5855C36.5855 39.0116 36.5855 39.8299 36.5855 40.6474C36.5855 40.8863 36.5815 41.1245 36.5903 41.3626C36.6103 41.9292 36.9555 42.2904 37.4677 42.2888C37.9256 42.2872 38.2788 41.9292 38.2908 41.3962C38.3124 40.4692 38.3052 39.5414 38.3092 38.6137C38.3092 38.4714 38.3092 38.3292 38.3092 38.1702L38.3084 38.171Z" fill="white"/>
<path d="M23.0239 38.1326V38.7224C22.626 38.7224 22.2448 38.7224 21.8644 38.7224C21.154 38.7224 20.8112 38.9645 20.8152 39.4615C20.8192 39.9314 21.162 40.1752 21.8412 40.1903C22.8505 40.2135 23.4642 41.0414 23.1901 42.0083C23.0287 42.5765 22.5788 42.9393 21.9667 42.9696C21.6095 42.9872 21.2507 42.9752 20.8919 42.9752C20.3541 42.9752 20.3421 42.9585 20.4588 42.3543C20.8951 42.3543 21.3418 42.3575 21.7893 42.3535C22.3311 42.3479 22.638 42.0603 22.6324 41.572C22.6268 41.0941 22.3359 40.8288 21.8133 40.8073C21.5767 40.7969 21.3298 40.7953 21.1069 40.7265C20.5371 40.5507 20.1615 39.9674 20.1983 39.376C20.2374 38.7503 20.6722 38.2101 21.2955 38.1454C21.8564 38.0871 22.4278 38.1334 23.0247 38.1334L23.0239 38.1326Z" fill="white"/>
<path d="M30.6703 41.3338V38.1901H31.2384V42.9999C31.0866 42.9064 30.9515 42.8641 30.878 42.7722C29.9103 41.5759 28.9282 40.3908 28.0084 39.1586C27.8118 38.8957 27.8526 38.4562 27.7847 38.0974C27.8286 38.0838 27.8726 38.0702 27.9157 38.0566C28.8043 39.161 29.6929 40.2646 30.5816 41.369C30.6111 41.357 30.6407 41.3458 30.6703 41.3338Z" fill="white"/>
<path d="M34.9554 38.1854H35.4924C35.4924 39.3793 35.5499 40.5564 35.4732 41.7247C35.4189 42.551 34.8131 42.9801 34.0356 42.9337C33.286 42.889 32.7978 42.3632 32.749 41.5289C32.9144 41.5025 33.0815 41.4754 33.2828 41.4426C33.3212 41.5529 33.3587 41.66 33.3947 41.767C33.5114 42.1099 33.7727 42.2753 34.1139 42.2968C34.4759 42.32 34.722 42.1178 34.8411 41.7918C34.9074 41.6104 34.929 41.4042 34.9314 41.2093C34.941 40.3358 34.9362 39.4616 34.9378 38.5874C34.9378 38.4579 34.949 38.3293 34.9554 38.1854Z" fill="white"/>
<path d="M23.3579 42.8714C23.6903 42.0955 24.0172 41.3315 24.3456 40.5684C24.6381 39.8883 24.9226 39.2043 25.231 38.5314C25.2966 38.3884 25.4492 38.2845 25.5619 38.1622C25.6482 38.3668 25.7488 38.5674 25.8112 38.7791C25.8312 38.8479 25.7488 38.9478 25.7121 39.0325C25.2254 40.1616 24.7132 41.2812 24.2641 42.4255C24.0883 42.873 23.8606 43.0368 23.3579 42.8714Z" fill="white"/>
<path d="M39.3159 42.8841C39.3663 42.7579 39.411 42.6364 39.4622 42.5181C40.0375 41.1804 40.6089 39.8403 41.197 38.5082C41.2586 38.3699 41.4232 38.2772 41.5406 38.163C41.6222 38.3484 41.7244 38.5282 41.7748 38.7223C41.7964 38.8062 41.7148 38.9197 41.6725 39.0164C41.1866 40.148 40.6992 41.2787 40.2117 42.4094C40.0503 42.7834 39.7517 42.9416 39.3159 42.8841Z" fill="white"/>
<path d="M43.6106 42.8753C43.1016 43.032 42.8618 42.8554 42.71 42.4079C42.5238 41.8581 42.2945 41.3147 42.0172 40.8048C41.7375 40.2902 41.8014 39.8307 42.0899 39.3081C42.6037 40.5148 43.1048 41.6895 43.6098 42.8745L43.6106 42.8753Z" fill="white"/>
<path d="M26.1378 39.3193C26.6532 40.5283 27.1495 41.695 27.6481 42.8649C27.028 43.0048 27.0216 43.0024 26.7859 42.4582C26.5493 41.9116 26.3512 41.3442 26.0683 40.8224C25.7886 40.307 25.8317 39.8451 26.1378 39.3185V39.3193Z" fill="white"/>
<path d="M43.8811 39.774C44.3135 40.1888 44.6147 40.5436 44.55 41.1237C44.4933 41.6336 44.5276 42.1538 44.542 42.6692C44.5492 42.9193 44.4477 42.9865 44.2136 42.9841C43.9914 42.9817 43.8724 42.9409 43.8756 42.6796C43.8875 41.7423 43.8803 40.8049 43.8803 39.774H43.8811Z" fill="white"/>
<path d="M27.8665 39.8004C28.3484 40.1856 28.5386 40.6259 28.4858 41.2092C28.4355 41.7694 28.4746 42.3368 28.4746 42.9241H27.8657V39.8012L27.8665 39.8004Z" fill="white"/>
<path d="M31.3242 29.7276C31.1747 29.6805 31.0253 29.6333 30.8399 29.5742C30.7616 29.6469 30.633 29.766 30.4276 29.957V29.3289C30.1143 28.9397 29.9289 29.5183 29.5869 29.432C29.6245 29.3225 29.6437 29.2178 29.6932 29.1307C29.8722 28.8166 30.0568 28.505 30.2542 28.2021C30.2797 28.163 30.4539 28.1614 30.4595 28.1774C30.5778 28.517 30.6825 28.8622 30.7912 29.213C31.3314 28.7983 31.0557 29.6405 31.3897 29.5678C31.3681 29.6213 31.3458 29.6749 31.3242 29.7284V29.7276Z" fill="white"/>
<path d="M31.1313 25.6642C31.3975 25.3429 31.6516 25.0368 31.972 24.6509C31.9289 24.9394 31.9033 25.1192 31.8745 25.2982C31.7866 25.8376 31.7235 25.8719 31.1321 25.6642H31.1313Z" fill="white"/>
<path d="M32.9335 27.0322C33.2052 27.1249 33.4809 27.2096 33.7454 27.3191C33.7878 27.3367 33.8125 27.5277 33.7974 27.5349C33.7015 27.5796 33.5608 27.6483 33.4937 27.6092C33.2739 27.4813 33.0797 27.3103 32.876 27.1561C32.8952 27.1153 32.9143 27.0746 32.9335 27.033V27.0322Z" fill="white"/>
<path d="M28.807 35.7883H28.6317C28.6213 35.7379 28.6032 35.6936 28.5773 35.6554C28.5518 35.6173 28.5207 35.5852 28.4839 35.5593C28.4477 35.5329 28.4074 35.5131 28.3631 35.4999C28.3188 35.4867 28.2726 35.4801 28.2245 35.4801C28.1369 35.4801 28.0575 35.5023 27.9863 35.5466C27.9156 35.5909 27.8593 35.6562 27.8174 35.7424C27.7759 35.8286 27.7552 35.9344 27.7552 36.0598C27.7552 36.1851 27.7759 36.2909 27.8174 36.3771C27.8593 36.4634 27.9156 36.5286 27.9863 36.5729C28.0575 36.6172 28.1369 36.6394 28.2245 36.6394C28.2726 36.6394 28.3188 36.6328 28.3631 36.6196C28.4074 36.6064 28.4477 36.5868 28.4839 36.5609C28.5207 36.5345 28.5518 36.5022 28.5773 36.4641C28.6032 36.4254 28.6213 36.3811 28.6317 36.3312H28.807C28.7938 36.4052 28.7697 36.4714 28.7349 36.5298C28.7 36.5882 28.6567 36.638 28.6048 36.679C28.553 36.7195 28.4948 36.7503 28.4302 36.7716C28.3661 36.7928 28.2976 36.8034 28.2245 36.8034C28.1011 36.8034 27.9913 36.7732 27.8951 36.7129C27.799 36.6526 27.7234 36.5668 27.6682 36.4556C27.6131 36.3444 27.5855 36.2124 27.5855 36.0598C27.5855 35.9071 27.6131 35.7751 27.6682 35.6639C27.7234 35.5527 27.799 35.467 27.8951 35.4066C27.9913 35.3463 28.1011 35.3162 28.2245 35.3162C28.2976 35.3162 28.3661 35.3268 28.4302 35.348C28.4948 35.3692 28.553 35.4003 28.6048 35.4413C28.6567 35.4818 28.7 35.5313 28.7349 35.5897C28.7697 35.6477 28.7938 35.7139 28.807 35.7883ZM29.4092 36.8062C29.3112 36.8062 29.2252 36.7829 29.1512 36.7362C29.0777 36.6896 29.0202 36.6243 28.9787 36.5404C28.9377 36.4565 28.9172 36.3585 28.9172 36.2464C28.9172 36.1333 28.9377 36.0345 28.9787 35.9502C29.0202 35.8658 29.0777 35.8003 29.1512 35.7537C29.2252 35.707 29.3112 35.6837 29.4092 35.6837C29.5072 35.6837 29.593 35.707 29.6665 35.7537C29.7404 35.8003 29.7979 35.8658 29.8389 35.9502C29.8804 36.0345 29.9011 36.1333 29.9011 36.2464C29.9011 36.3585 29.8804 36.4565 29.8389 36.5404C29.7979 36.6243 29.7404 36.6896 29.6665 36.7362C29.593 36.7829 29.5072 36.8062 29.4092 36.8062ZM29.4092 36.6563C29.4836 36.6563 29.5449 36.6373 29.593 36.5991C29.641 36.5609 29.6766 36.5107 29.6997 36.4485C29.7228 36.3863 29.7343 36.3189 29.7343 36.2464C29.7343 36.1738 29.7228 36.1062 29.6997 36.0435C29.6766 35.9808 29.641 35.9302 29.593 35.8915C29.5449 35.8529 29.4836 35.8336 29.4092 35.8336C29.3347 35.8336 29.2735 35.8529 29.2254 35.8915C29.1773 35.9302 29.1418 35.9808 29.1187 36.0435C29.0956 36.1062 29.084 36.1738 29.084 36.2464C29.084 36.3189 29.0956 36.3863 29.1187 36.4485C29.1418 36.5107 29.1773 36.5609 29.2254 36.5991C29.2735 36.6373 29.3347 36.6563 29.4092 36.6563ZM30.0563 36.7836V35.6979H30.2174V35.8618H30.2287C30.2485 35.8081 30.2843 35.7645 30.3362 35.7311C30.388 35.6976 30.4464 35.6809 30.5115 35.6809C30.5237 35.6809 30.539 35.6811 30.5574 35.6816C30.5758 35.6821 30.5897 35.6828 30.5991 35.6837V35.8534C30.5935 35.8519 30.5805 35.8498 30.5602 35.847C30.5404 35.8437 30.5195 35.8421 30.4973 35.8421C30.4445 35.8421 30.3974 35.8531 30.356 35.8753C30.315 35.8969 30.2824 35.9271 30.2584 35.9657C30.2349 36.0039 30.2231 36.0475 30.2231 36.0965V36.7836H30.0563ZM30.6973 37.1907V35.6979H30.8585V35.8703H30.8783C30.8905 35.8515 30.9075 35.8274 30.9292 35.7982C30.9513 35.7685 30.9829 35.7422 31.0239 35.7191C31.0654 35.6955 31.1214 35.6837 31.1921 35.6837C31.2835 35.6837 31.3641 35.7066 31.4339 35.7523C31.5036 35.798 31.558 35.8628 31.5971 35.9467C31.6363 36.0305 31.6558 36.1295 31.6558 36.2435C31.6558 36.3585 31.6363 36.4582 31.5971 36.5425C31.558 36.6264 31.5038 36.6914 31.4346 36.7376C31.3653 36.7833 31.2854 36.8062 31.1949 36.8062C31.1252 36.8062 31.0694 36.7946 31.0274 36.7716C30.9855 36.748 30.9532 36.7214 30.9306 36.6917C30.908 36.6615 30.8905 36.6365 30.8783 36.6168H30.8641V37.1907H30.6973ZM30.8613 36.2407C30.8613 36.3227 30.8733 36.395 30.8974 36.4577C30.9214 36.5199 30.9565 36.5687 31.0027 36.604C31.0489 36.6389 31.1054 36.6563 31.1723 36.6563C31.2421 36.6563 31.3003 36.638 31.3469 36.6012C31.394 36.564 31.4294 36.514 31.4529 36.4514C31.477 36.3882 31.489 36.318 31.489 36.2407C31.489 36.1644 31.4772 36.0956 31.4537 36.0343C31.4306 35.9726 31.3955 35.9238 31.3483 35.888C31.3017 35.8517 31.243 35.8336 31.1723 35.8336C31.1045 35.8336 31.0475 35.8508 31.0013 35.8852C30.9551 35.9191 30.9202 35.9667 30.8967 36.028C30.8731 36.0887 30.8613 36.1597 30.8613 36.2407ZM32.2518 36.8062C32.1538 36.8062 32.0678 36.7829 31.9938 36.7362C31.9203 36.6896 31.8628 36.6243 31.8214 36.5404C31.7804 36.4565 31.7599 36.3585 31.7599 36.2464C31.7599 36.1333 31.7804 36.0345 31.8214 35.9502C31.8628 35.8658 31.9203 35.8003 31.9938 35.7537C32.0678 35.707 32.1538 35.6837 32.2518 35.6837C32.3498 35.6837 32.4356 35.707 32.5091 35.7537C32.5831 35.8003 32.6406 35.8658 32.6816 35.9502C32.7231 36.0345 32.7438 36.1333 32.7438 36.2464C32.7438 36.3585 32.7231 36.4565 32.6816 36.5404C32.6406 36.6243 32.5831 36.6896 32.5091 36.7362C32.4356 36.7829 32.3498 36.8062 32.2518 36.8062ZM32.2518 36.6563C32.3263 36.6563 32.3875 36.6373 32.4356 36.5991C32.4837 36.5609 32.5192 36.5107 32.5423 36.4485C32.5654 36.3863 32.577 36.3189 32.577 36.2464C32.577 36.1738 32.5654 36.1062 32.5423 36.0435C32.5192 35.9808 32.4837 35.9302 32.4356 35.8915C32.3875 35.8529 32.3263 35.8336 32.2518 35.8336C32.1774 35.8336 32.1161 35.8529 32.068 35.8915C32.02 35.9302 31.9844 35.9808 31.9613 36.0435C31.9382 36.1062 31.9267 36.1738 31.9267 36.2464C31.9267 36.3189 31.9382 36.3863 31.9613 36.4485C31.9844 36.5107 32.02 36.5609 32.068 36.5991C32.1161 36.6373 32.1774 36.6563 32.2518 36.6563ZM32.8989 36.7836V35.6979H33.0601V35.8618H33.0714C33.0912 35.8081 33.127 35.7645 33.1788 35.7311C33.2307 35.6976 33.2891 35.6809 33.3541 35.6809C33.3664 35.6809 33.3817 35.6811 33.4001 35.6816C33.4184 35.6821 33.4323 35.6828 33.4418 35.6837V35.8534C33.4361 35.8519 33.4231 35.8498 33.4029 35.847C33.3831 35.8437 33.3621 35.8421 33.34 35.8421C33.2872 35.8421 33.2401 35.8531 33.1986 35.8753C33.1576 35.8969 33.1251 35.9271 33.1011 35.9657C33.0775 36.0039 33.0657 36.0475 33.0657 36.0965V36.7836H32.8989ZM33.8595 36.809C33.7907 36.809 33.7282 36.7961 33.6722 36.7701C33.6161 36.7438 33.5716 36.7058 33.5386 36.6563C33.5056 36.6064 33.4891 36.5461 33.4891 36.4754C33.4891 36.4132 33.5013 36.3628 33.5258 36.3241C33.5503 36.285 33.5831 36.2544 33.6241 36.2322C33.6651 36.2101 33.7103 36.1936 33.7598 36.1828C33.8098 36.1714 33.8599 36.1625 33.9104 36.1559C33.9763 36.1474 34.0298 36.141 34.0708 36.1368C34.1123 36.1321 34.1424 36.1243 34.1613 36.1135C34.1806 36.1026 34.1903 36.0838 34.1903 36.0569V36.0513C34.1903 35.9815 34.1712 35.9273 34.133 35.8887C34.0953 35.8501 34.0381 35.8307 33.9613 35.8307C33.8816 35.8307 33.8192 35.8482 33.7739 35.883C33.7287 35.9179 33.6969 35.9551 33.6785 35.9947L33.5202 35.9382C33.5485 35.8722 33.5862 35.8208 33.6333 35.7841C33.6809 35.7469 33.7327 35.7209 33.7888 35.7063C33.8453 35.6913 33.9009 35.6837 33.9556 35.6837C33.9905 35.6837 34.0305 35.688 34.0758 35.6964C34.1215 35.7045 34.1655 35.7212 34.2079 35.7466C34.2508 35.7721 34.2864 35.8105 34.3147 35.8618C34.343 35.9132 34.3571 35.982 34.3571 36.0682V36.7836H34.1903V36.6365H34.1818C34.1705 36.6601 34.1516 36.6853 34.1252 36.7122C34.0989 36.739 34.0638 36.7619 34.0199 36.7807C33.9761 36.7996 33.9226 36.809 33.8595 36.809ZM33.8849 36.6592C33.9509 36.6592 34.0065 36.6462 34.0517 36.6203C34.0974 36.5944 34.1318 36.5609 34.1549 36.5199C34.1785 36.4789 34.1903 36.4358 34.1903 36.3906V36.2379C34.1832 36.2464 34.1677 36.2541 34.1436 36.2612C34.1201 36.2678 34.0927 36.2737 34.0616 36.2789C34.031 36.2836 34.0011 36.2878 33.9719 36.2916C33.9431 36.2949 33.9198 36.2977 33.9019 36.3001C33.8585 36.3057 33.818 36.3149 33.7803 36.3277C33.7431 36.3399 33.7129 36.3585 33.6898 36.3835C33.6672 36.408 33.6559 36.4415 33.6559 36.4839C33.6559 36.5418 33.6773 36.5857 33.7202 36.6153C33.7636 36.6446 33.8185 36.6592 33.8849 36.6592ZM35.0342 35.6979V35.8392H34.4716V35.6979H35.0342ZM34.6356 35.4377H34.8024V36.4726C34.8024 36.5197 34.8092 36.555 34.8229 36.5786C34.837 36.6017 34.8549 36.6172 34.8766 36.6252C34.8987 36.6328 34.9221 36.6365 34.9466 36.6365C34.9649 36.6365 34.98 36.6356 34.9918 36.6337C35.0036 36.6314 35.013 36.6295 35.0201 36.6281L35.054 36.7779C35.0427 36.7822 35.0269 36.7864 35.0066 36.7906C34.9864 36.7954 34.9607 36.7977 34.9296 36.7977C34.8825 36.7977 34.8363 36.7876 34.7911 36.7673C34.7463 36.747 34.7091 36.7162 34.6794 36.6747C34.6502 36.6332 34.6356 36.5809 34.6356 36.5178V35.4377ZM35.1856 36.7836V35.6979H35.3524V36.7836H35.1856ZM35.2704 35.5169C35.2379 35.5169 35.2099 35.5058 35.1863 35.4837C35.1632 35.4615 35.1517 35.4349 35.1517 35.4038C35.1517 35.3727 35.1632 35.3461 35.1863 35.3239C35.2099 35.3018 35.2379 35.2907 35.2704 35.2907C35.303 35.2907 35.3308 35.3018 35.3539 35.3239C35.3774 35.3461 35.3892 35.3727 35.3892 35.4038C35.3892 35.4349 35.3774 35.4615 35.3539 35.4837C35.3308 35.5058 35.303 35.5169 35.2704 35.5169ZM36.4462 35.6979L36.0448 36.7836H35.8751L35.4736 35.6979H35.6546L35.9543 36.563H35.9656L36.2653 35.6979H36.4462ZM36.9691 36.8062C36.8711 36.8062 36.7851 36.7829 36.7111 36.7362C36.6376 36.6896 36.5801 36.6243 36.5386 36.5404C36.4976 36.4565 36.4771 36.3585 36.4771 36.2464C36.4771 36.1333 36.4976 36.0345 36.5386 35.9502C36.5801 35.8658 36.6376 35.8003 36.7111 35.7537C36.7851 35.707 36.8711 35.6837 36.9691 35.6837C37.0671 35.6837 37.1529 35.707 37.2264 35.7537C37.3004 35.8003 37.3579 35.8658 37.3989 35.9502C37.4403 36.0345 37.4611 36.1333 37.4611 36.2464C37.4611 36.3585 37.4403 36.4565 37.3989 36.5404C37.3579 36.6243 37.3004 36.6896 37.2264 36.7362C37.1529 36.7829 37.0671 36.8062 36.9691 36.8062ZM36.9691 36.6563C37.0436 36.6563 37.1048 36.6373 37.1529 36.5991C37.2009 36.5609 37.2365 36.5107 37.2596 36.4485C37.2827 36.3863 37.2942 36.3189 37.2942 36.2464C37.2942 36.1738 37.2827 36.1062 37.2596 36.0435C37.2365 35.9808 37.2009 35.9302 37.1529 35.8915C37.1048 35.8529 37.0436 35.8336 36.9691 35.8336C36.8946 35.8336 36.8334 35.8529 36.7853 35.8915C36.7373 35.9302 36.7017 35.9808 36.6786 36.0435C36.6555 36.1062 36.644 36.1738 36.644 36.2464C36.644 36.3189 36.6555 36.3863 36.6786 36.4485C36.7017 36.5107 36.7373 36.5609 36.7853 36.5991C36.8334 36.6373 36.8946 36.6563 36.9691 36.6563ZM38.56 35.6979V35.8392H37.9747V35.6979H38.56ZM38.15 36.7836V35.548C38.15 35.4858 38.1646 35.434 38.1938 35.3925C38.223 35.351 38.261 35.3199 38.3076 35.2992C38.3543 35.2785 38.4035 35.2681 38.4553 35.2681C38.4963 35.2681 38.5298 35.2714 38.5557 35.278C38.5816 35.2846 38.601 35.2907 38.6137 35.2964L38.5656 35.4406C38.5571 35.4377 38.5454 35.4342 38.5303 35.43C38.5157 35.4257 38.4963 35.4236 38.4723 35.4236C38.4172 35.4236 38.3774 35.4375 38.3529 35.4653C38.3288 35.4931 38.3168 35.5339 38.3168 35.5876V36.7836H38.15ZM38.6942 36.7836V35.6979H38.861V36.7836H38.6942ZM38.779 35.5169C38.7465 35.5169 38.7185 35.5058 38.6949 35.4837C38.6718 35.4615 38.6603 35.4349 38.6603 35.4038C38.6603 35.3727 38.6718 35.3461 38.6949 35.3239C38.7185 35.3018 38.7465 35.2907 38.779 35.2907C38.8116 35.2907 38.8394 35.3018 38.8625 35.3239C38.886 35.3461 38.8978 35.3727 38.8978 35.4038C38.8978 35.4349 38.886 35.4615 38.8625 35.4837C38.8394 35.5058 38.8116 35.5169 38.779 35.5169ZM39.3865 36.809C39.3177 36.809 39.2553 36.7961 39.1992 36.7701C39.1432 36.7438 39.0986 36.7058 39.0656 36.6563C39.0327 36.6064 39.0162 36.5461 39.0162 36.4754C39.0162 36.4132 39.0284 36.3628 39.0529 36.3241C39.0774 36.285 39.1102 36.2544 39.1512 36.2322C39.1922 36.2101 39.2374 36.1936 39.2869 36.1828C39.3368 36.1714 39.387 36.1625 39.4374 36.1559C39.5034 36.1474 39.5569 36.141 39.5979 36.1368C39.6394 36.1321 39.6695 36.1243 39.6884 36.1135C39.7077 36.1026 39.7174 36.0838 39.7174 36.0569V36.0513C39.7174 35.9815 39.6983 35.9273 39.6601 35.8887C39.6224 35.8501 39.5651 35.8307 39.4883 35.8307C39.4087 35.8307 39.3463 35.8482 39.301 35.883C39.2558 35.9179 39.224 35.9551 39.2056 35.9947L39.0473 35.9382C39.0755 35.8722 39.1132 35.8208 39.1604 35.7841C39.208 35.7469 39.2598 35.7209 39.3159 35.7063C39.3724 35.6913 39.428 35.6837 39.4827 35.6837C39.5176 35.6837 39.5576 35.688 39.6028 35.6964C39.6486 35.7045 39.6926 35.7212 39.735 35.7466C39.7779 35.7721 39.8135 35.8105 39.8418 35.8618C39.87 35.9132 39.8842 35.982 39.8842 36.0682V36.7836H39.7174V36.6365H39.7089C39.6976 36.6601 39.6787 36.6853 39.6523 36.7122C39.6259 36.739 39.5908 36.7619 39.547 36.7807C39.5032 36.7996 39.4497 36.809 39.3865 36.809ZM39.412 36.6592C39.478 36.6592 39.5336 36.6462 39.5788 36.6203C39.6245 36.5944 39.6589 36.5609 39.682 36.5199C39.7056 36.4789 39.7174 36.4358 39.7174 36.3906V36.2379C39.7103 36.2464 39.6947 36.2541 39.6707 36.2612C39.6471 36.2678 39.6198 36.2737 39.5887 36.2789C39.5581 36.2836 39.5282 36.2878 39.4989 36.2916C39.4702 36.2949 39.4469 36.2977 39.429 36.3001C39.3856 36.3057 39.3451 36.3149 39.3074 36.3277C39.2702 36.3399 39.24 36.3585 39.2169 36.3835C39.1943 36.408 39.183 36.4415 39.183 36.4839C39.183 36.5418 39.2044 36.5857 39.2473 36.6153C39.2907 36.6446 39.3456 36.6592 39.412 36.6592Z" fill="white"/>
</svg>
