<svg width="74" height="64" viewBox="0 0 74 64" fill="none" xmlns="http://www.w3.org/2000/svg">

<circle cx="20.7119" cy="42.6293" r="0.712389" fill="white"/>
<path d="M33.5987 35.0822L39.7252 36.792L39.9695 36.1407L34.8403 34.7159L33.5987 35.0822Z" fill="white"/>
<path d="M34.1889 32.7415C34.9868 32.4973 34.3586 32.2055 33.9447 32.0902C32.832 32.4023 30.3135 33.1161 29.1412 33.4743C27.6757 33.9221 26.6987 34.3495 28.8969 34.8584C30.6555 35.2654 32.3707 34.933 33.0084 34.7159C33.904 34.4784 35.8091 33.975 36.265 33.861C36.721 33.747 37.2285 33.705 37.4252 33.6982L38.8093 34.2477L37.0181 34.8584L38.4633 35.3672L39.9695 34.7159C41.8217 34.0035 39.7252 33.4743 38.4633 33.23C37.4537 33.0346 35.8037 33.3114 35.1049 33.4743L32.3164 34.2477C31.9025 34.4038 30.8387 34.663 29.8943 34.4513C28.9498 34.2396 29.6229 33.9696 30.0774 33.861C31.1155 33.5896 33.3911 32.9858 34.1889 32.7415Z" fill="white"/>
<path d="M27.5532 27.6124C27.5532 29.2761 28.9019 30.6248 30.5656 30.6248C31.1727 30.6248 31.7378 30.4452 32.2108 30.1363L35.9391 26.5743C36.4072 26.174 37.543 25.5811 38.3408 26.4115C39.3382 27.4496 38.5647 28.3451 38.3408 28.5894C38.1617 28.7848 37.3163 29.5799 36.9161 29.9531L38.2187 31.3168L40.0913 29.4239C40.4305 28.9354 40.995 27.6368 40.5391 26.3504C39.9692 24.7425 38.463 24.0919 37.6284 24.1115C36.5863 23.9812 35.688 24.4779 35.3692 24.7425C34.2768 25.8212 32.0515 28.0113 31.8886 28.1416C31.6851 28.3044 30.7284 29.4442 29.7922 28.4469C29.0431 27.649 29.4122 26.9611 29.6904 26.7168L34.209 22.2186C35.0883 21.3556 34.4532 20.3799 34.0258 20L28.2728 25.6584C27.8241 26.1844 27.5532 26.8668 27.5532 27.6124Z" fill="white"/>
<path d="M34.8399 29.4239L33.6391 30.6248L39.7453 36.8124C40.5106 36.0959 40.2948 35.1434 40.0913 34.7566L34.8399 29.4239Z" fill="white"/>
<path d="M24.2199 42.2979C24.0849 42.2979 23.9521 42.2815 23.8217 42.2489C23.6913 42.221 23.5585 42.1651 23.4234 42.0813C23.2884 42.0021 23.1463 41.8903 22.9972 41.7459L23.13 41.5922C23.3443 41.8018 23.5399 41.9369 23.7169 41.9974C23.8939 42.0626 24.0592 42.0952 24.213 42.0952C24.5157 42.0952 24.7533 42.0463 24.9256 41.9485C25.098 41.8553 25.2214 41.7296 25.2959 41.5712C25.3705 41.4128 25.41 41.2358 25.4147 41.0402L25.4217 40.1179L25.4776 40.1808C25.3844 40.437 25.2167 40.6466 24.9745 40.8096C24.737 40.968 24.4691 41.0472 24.171 41.0472C23.9149 41.0472 23.682 40.9866 23.4723 40.8655C23.2674 40.7398 23.102 40.5721 22.9763 40.3625C22.8552 40.1482 22.7946 39.9107 22.7946 39.6498C22.7946 39.3703 22.8575 39.1258 22.9833 38.9162C23.1137 38.7066 23.286 38.5436 23.5003 38.4271C23.7146 38.306 23.9521 38.2455 24.213 38.2455C24.4785 38.2455 24.723 38.3177 24.9466 38.4621C25.1748 38.6018 25.3402 38.7858 25.4426 39.014L25.4147 39.1328L25.4566 38.3153H25.6523V41.0472C25.6523 41.2615 25.6057 41.4641 25.5125 41.6551C25.424 41.846 25.275 41.9997 25.0654 42.1162C24.8604 42.2373 24.5786 42.2979 24.2199 42.2979ZM23.0252 39.6428C23.0252 39.8664 23.0764 40.069 23.1789 40.2507C23.286 40.4324 23.4304 40.5791 23.6121 40.6909C23.7937 40.798 23.9964 40.8516 24.2199 40.8516C24.4342 40.8516 24.6298 40.8027 24.8068 40.7048C24.9885 40.6024 25.1329 40.4696 25.24 40.3066C25.3518 40.1389 25.4124 39.9572 25.4217 39.7616V39.4123C25.3844 39.226 25.3076 39.0606 25.1911 38.9162C25.0793 38.7671 24.9396 38.6507 24.7719 38.5669C24.6042 38.483 24.4202 38.4411 24.2199 38.4411C23.9964 38.4411 23.7937 38.4923 23.6121 38.5948C23.4304 38.6926 23.286 38.8324 23.1789 39.014C23.0764 39.1957 23.0252 39.4053 23.0252 39.6428ZM26.7683 38.3153L26.7962 39.1468L26.7683 39.0559C26.8242 38.8883 26.915 38.7462 27.0408 38.6297C27.1666 38.5086 27.3086 38.4155 27.467 38.3503C27.6254 38.2851 27.7861 38.2524 27.9491 38.2524L27.9351 38.469C27.7302 38.4737 27.5415 38.5226 27.3692 38.6158C27.1968 38.7043 27.0594 38.8277 26.9569 38.9861C26.8591 39.1398 26.8102 39.3145 26.8102 39.5101V40.9983H26.5797V38.3153H26.7683ZM29.3748 41.0612C29.1279 41.0612 28.93 40.9866 28.7809 40.8376C28.6319 40.6885 28.5527 40.4976 28.5434 40.2647V38.3153H28.7739V40.2018C28.7786 40.3881 28.8368 40.5418 28.9486 40.6629C29.0604 40.784 29.2257 40.8492 29.4447 40.8586C29.6263 40.8586 29.7987 40.8143 29.9617 40.7258C30.1247 40.6326 30.2551 40.5069 30.353 40.3485C30.4554 40.1855 30.5067 40.0038 30.5067 39.8035V38.3153H30.7372V40.9983H30.5346L30.5137 40.1669L30.5416 40.2856C30.4997 40.43 30.4182 40.5628 30.2971 40.6839C30.1806 40.8003 30.0409 40.8935 29.8778 40.9634C29.7195 41.0286 29.5518 41.0612 29.3748 41.0612ZM33.1201 41.0472C32.8453 41.0472 32.5937 40.975 32.3655 40.8306C32.1373 40.6816 31.9696 40.4906 31.8624 40.2577L31.9044 40.111V42.2839H31.6738V38.3014H31.8834L31.9044 39.2446L31.8624 39.042C31.9742 38.8091 32.1466 38.6181 32.3795 38.469C32.6124 38.32 32.8686 38.2455 33.148 38.2455C33.4042 38.2455 33.6348 38.3083 33.8397 38.4341C34.0493 38.5552 34.2147 38.7229 34.3358 38.9372C34.4616 39.1468 34.5244 39.3867 34.5244 39.6568C34.5244 39.9223 34.4616 40.1599 34.3358 40.3695C34.21 40.5791 34.04 40.7444 33.8258 40.8655C33.6162 40.9866 33.3809 41.0472 33.1201 41.0472ZM33.0852 40.8516C33.3087 40.8516 33.5114 40.798 33.693 40.6909C33.8747 40.5837 34.0191 40.4393 34.1262 40.2577C34.2333 40.076 34.2869 39.8757 34.2869 39.6568C34.2869 39.4286 34.2333 39.2236 34.1262 39.042C34.0191 38.8556 33.8747 38.7089 33.693 38.6018C33.516 38.4947 33.318 38.4411 33.0991 38.4411C32.8802 38.4411 32.6822 38.4947 32.5052 38.6018C32.3282 38.7043 32.1862 38.8417 32.079 39.014C31.9719 39.1864 31.9137 39.3797 31.9044 39.5939V39.7337C31.9137 39.9433 31.9719 40.1342 32.079 40.3066C32.1908 40.4743 32.3329 40.607 32.5052 40.7048C32.6822 40.8027 32.8755 40.8516 33.0852 40.8516ZM34.907 39.6428C34.907 39.3867 34.9699 39.1514 35.0957 38.9372C35.2214 38.7229 35.3915 38.5529 35.6057 38.4271C35.82 38.3014 36.0575 38.2385 36.3184 38.2385C36.5885 38.2385 36.8308 38.3014 37.045 38.4271C37.2593 38.5529 37.427 38.7229 37.5481 38.9372C37.6738 39.1514 37.7367 39.3867 37.7367 39.6428C37.7367 39.9037 37.6738 40.1412 37.5481 40.3555C37.427 40.5698 37.257 40.7398 37.038 40.8655C36.8238 40.9866 36.5839 41.0472 36.3184 41.0472C36.0529 41.0472 35.813 40.9866 35.5987 40.8655C35.3891 40.7444 35.2214 40.5791 35.0957 40.3695C34.9699 40.1599 34.907 39.9177 34.907 39.6428ZM35.1376 39.6498C35.1376 39.8734 35.1888 40.076 35.2913 40.2577C35.3984 40.4347 35.5405 40.5791 35.7175 40.6909C35.8992 40.798 36.0995 40.8516 36.3184 40.8516C36.5373 40.8516 36.7353 40.798 36.9123 40.6909C37.0939 40.5837 37.236 40.4393 37.3385 40.2577C37.4456 40.076 37.4992 39.8734 37.4992 39.6498C37.4992 39.4262 37.4456 39.2236 37.3385 39.042C37.236 38.8603 37.0939 38.7159 36.9123 38.6088C36.7353 38.497 36.5373 38.4411 36.3184 38.4411C36.0901 38.4411 35.8875 38.4993 35.7105 38.6158C35.5335 38.7276 35.3938 38.8766 35.2913 39.0629C35.1888 39.2492 35.1376 39.4449 35.1376 39.6498Z" fill="white"/>
<path d="M38.2717 37.4567L39.7519 41.226L39.6529 41.215L41.1111 37.4567H41.3202L39.6859 41.5176L38.0571 37.4567H38.2717ZM41.971 37.4567H42.158V41.3416H41.971V37.4567ZM45.0339 37.8144C44.9275 37.763 44.7917 37.7153 44.6267 37.6713C44.4616 37.6236 44.2947 37.5998 44.1259 37.5998C43.8545 37.5998 43.638 37.6676 43.4766 37.8034C43.3152 37.9391 43.2345 38.1097 43.2345 38.3151C43.2345 38.4692 43.2785 38.5976 43.3666 38.7003C43.4583 38.7993 43.5775 38.8837 43.7242 38.9534C43.871 39.0231 44.0269 39.091 44.192 39.157C44.324 39.2047 44.4524 39.2579 44.5771 39.3166C44.7055 39.3753 44.8211 39.4468 44.9238 39.5312C45.0302 39.6119 45.1146 39.7146 45.1769 39.8393C45.2393 39.9641 45.2705 40.1163 45.2705 40.2961C45.2705 40.5162 45.2191 40.7088 45.1164 40.8738C45.0137 41.0352 44.8724 41.1618 44.6927 41.2535C44.5129 41.3416 44.3075 41.3856 44.0764 41.3856C43.8746 41.3856 43.693 41.3599 43.5316 41.3085C43.3702 41.2572 43.2327 41.2003 43.1189 41.138C43.0089 41.0756 42.9245 41.0261 42.8658 40.9894L42.9539 40.8298C43.0346 40.8885 43.1318 40.9472 43.2455 41.0059C43.3629 41.0646 43.4913 41.1159 43.6307 41.16C43.7701 41.2003 43.9095 41.2205 44.0489 41.2205C44.2176 41.2205 44.3809 41.1875 44.5386 41.1214C44.6964 41.0517 44.8248 40.949 44.9238 40.8133C45.0265 40.6776 45.0779 40.507 45.0779 40.3016C45.0779 40.0961 45.0284 39.9329 44.9293 39.8118C44.8339 39.6871 44.7092 39.5881 44.5551 39.5147C44.4047 39.4376 44.2451 39.3679 44.0764 39.3056C43.9517 39.2579 43.8269 39.2084 43.7022 39.157C43.5812 39.102 43.4693 39.0396 43.3666 38.9699C43.2675 38.8966 43.1886 38.8085 43.1299 38.7058C43.0713 38.6031 43.0419 38.4802 43.0419 38.3371C43.0419 38.1574 43.0878 38.0015 43.1795 37.8694C43.2749 37.7337 43.4014 37.6291 43.5592 37.5557C43.7206 37.4787 43.9021 37.4384 44.1039 37.4347C44.2653 37.4347 44.4396 37.4567 44.6267 37.5007C44.8138 37.5447 44.9752 37.6016 45.1109 37.6713L45.0339 37.8144ZM45.7514 39.4046C45.7514 39.1332 45.8028 38.8782 45.9055 38.6398C46.0082 38.3976 46.1495 38.1849 46.3292 38.0015C46.5126 37.818 46.7236 37.675 46.962 37.5723C47.2041 37.4659 47.4609 37.4127 47.7324 37.4127C48.0075 37.4127 48.2643 37.4659 48.5027 37.5723C48.7412 37.675 48.9521 37.818 49.1355 38.0015C49.319 38.1849 49.462 38.3976 49.5647 38.6398C49.6711 38.8782 49.7243 39.1332 49.7243 39.4046C49.7243 39.6761 49.6711 39.9329 49.5647 40.175C49.462 40.4134 49.319 40.6244 49.1355 40.8078C48.9521 40.9876 48.7412 41.1288 48.5027 41.2315C48.2643 41.3342 48.0075 41.3856 47.7324 41.3856C47.4609 41.3856 47.2041 41.3379 46.962 41.2425C46.7236 41.1435 46.5126 41.0059 46.3292 40.8298C46.1495 40.6501 46.0082 40.4391 45.9055 40.197C45.8028 39.9549 45.7514 39.6908 45.7514 39.4046ZM45.944 39.4101C45.944 39.6596 45.9899 39.8925 46.0816 40.109C46.1733 40.3254 46.2999 40.5162 46.4613 40.6812C46.6263 40.8463 46.8171 40.9747 47.0335 41.0664C47.25 41.1581 47.4793 41.204 47.7214 41.204C47.9745 41.204 48.2093 41.1581 48.4257 41.0664C48.6458 40.9747 48.8366 40.8463 48.998 40.6812C49.1631 40.5162 49.2933 40.3254 49.3887 40.109C49.484 39.8889 49.5317 39.6541 49.5317 39.4046C49.5317 39.1552 49.484 38.9222 49.3887 38.7058C49.297 38.4857 49.1686 38.2931 49.0035 38.128C48.8384 37.9629 48.6458 37.8327 48.4257 37.7373C48.2093 37.642 47.9782 37.5943 47.7324 37.5943C47.4793 37.5943 47.2426 37.6438 47.0225 37.7428C46.8061 37.8382 46.6172 37.9703 46.4558 38.139C46.2944 38.3078 46.1678 38.5022 46.0761 38.7223C45.988 38.9387 45.944 39.168 45.944 39.4101Z" fill="white"/>
<circle cx="52.4834" cy="42.6293" r="0.712389" fill="white"/>
</svg>
