<svg width="165" height="65" viewBox="0 0 165 65" fill="none" xmlns="http://www.w3.org/2000/svg">

<path fill-rule="evenodd" clip-rule="evenodd" d="M21.044 20.0655C21.1095 20 21.2405 20 21.5025 20H52.3094C52.8334 20 52.8334 20 52.8334 20.524V43.4996C52.8334 44.0236 52.8334 44.0236 52.3094 44.0236H21.5025C21.2405 44.0236 21.1095 44.0236 21.044 43.9581C20.9785 43.8926 20.9785 43.7616 20.9785 43.4996V20.524C20.9785 20.262 20.9785 20.131 21.044 20.0655ZM49.6951 33.0541H32.9903V30.7047C32.9903 27.8428 27.7675 27.9637 27.7675 31.4936C22.6944 30.1807 23.3278 38.1559 27.7675 36.7106C27.7675 39.9352 32.9903 40.1771 32.9903 37.4419V35.1443H49.6951V33.0541ZM30.6582 30.1807C31.1073 30.1807 31.9308 30.5434 31.9308 31.4993C31.9308 32.3112 31.3607 32.841 30.6582 32.841C29.7714 32.841 29.328 32.3112 29.328 31.4993C29.328 30.555 30.163 30.1807 30.6582 30.1807ZM30.6409 35.1443C31.09 35.1443 31.9135 35.5071 31.9135 36.463C31.9135 37.2749 31.3434 37.8046 30.6409 37.8046C29.7541 37.8046 29.3107 37.2749 29.3107 36.463C29.3107 35.5186 30.1457 35.1443 30.6409 35.1443ZM27.0362 32.841C27.4853 32.841 28.3088 33.2038 28.3088 34.1596C28.3088 34.9716 27.7387 35.5013 27.0362 35.5013C26.1494 35.5013 25.706 34.9716 25.706 34.1596C25.706 33.2153 26.541 32.841 27.0362 32.841ZM48.6528 35.6683H44.4781V39.3208H46.0426V37.7554H47.6089V39.3208H48.6528V35.6683Z" fill="white"/>
<path fill-rule="evenodd" clip-rule="evenodd" d="M54.9613 20.1543C55.0708 20 55.3978 20 56.3752 20H142.737C144.206 20 144.206 20 144.206 20.524V43.4996C144.206 44.0236 144.206 44.0236 142.737 44.0236H103.489H101.37H90.4464H88.3274H56.3752C55.3979 44.0236 55.0708 44.0236 54.9613 43.8693C54.9063 43.7916 54.9063 43.675 54.9062 43.4996V20.524C54.9062 20.3486 54.9062 20.232 54.9613 20.1543ZM125.917 24.693H127.489V33.4226C127.489 35.7316 127.662 37.2265 130.276 37.2265H134.279V39.3133H129.822C128.929 39.3133 125.917 38.4553 125.917 36.0541V24.693ZM88.3273 44.0236V32.6164C88.3273 30.0597 91.5808 27.5491 94.1317 27.5491C99.5502 27.5491 100.454 31.8678 100.454 33.6817C100.454 38.5705 96.1068 39.6588 94.1317 39.6588C92.7221 39.6588 91.2468 39.1233 90.4464 38.0407V44.0236H88.3273ZM94.2699 29.9273C97.1536 29.9089 98.2489 32.6164 98.2489 33.5089C98.2489 34.8506 96.9878 37.2346 94.2814 37.2346C91.3331 37.2346 90.4963 34.866 90.4464 33.6817C90.4464 31.4878 92.1048 29.9273 94.2699 29.9273ZM101.37 32.6797C101.37 30.1231 104.623 27.6124 107.174 27.6124C112.593 27.6124 113.497 31.9312 113.497 33.745C113.497 38.6338 109.149 39.7221 107.174 39.7221C105.765 39.7221 104.289 39.1866 103.489 38.1041V44.0236H101.37V32.6797ZM107.312 29.9906C110.196 29.9722 111.291 32.6797 111.291 33.5723C111.291 34.914 110.03 37.2979 107.324 37.2979C104.376 37.2979 103.539 34.9293 103.489 33.745C103.489 31.5511 105.147 29.9906 107.312 29.9906ZM124.357 39.3133V37.2264H118.374L124.357 30.9004C124.823 30.3995 124.599 29.7771 124.357 29.553C119.111 24.693 114.395 29.9906 114.395 33.4686C114.395 38.1812 117.499 39.3133 119.111 39.3133H124.357ZM116.779 35.3689L121.996 30.3304C118.029 28.5395 115.616 32.3573 116.779 35.3689ZM74.231 37.2266V39.3191H68.3172C66.1061 39.3191 63.1636 36.2499 63.1636 32.1788C63.1636 28.6259 65.3978 24.6949 68.3172 24.6949H74.231V26.789H69.5438C68.1618 26.8024 65.3978 28.9772 65.3978 32.1788C65.3978 34.4821 68.1272 37.2266 69.5438 37.2266H74.231ZM81.3195 27.6124C77.9394 27.6124 75.5842 30.2382 75.5842 33.745C75.5842 38.0407 79.0392 39.7221 81.3195 39.7221C83.2946 39.7221 87.6421 38.6338 87.6421 33.745C87.6421 31.9312 86.738 27.6124 81.3195 27.6124ZM81.4577 29.9906C84.3414 29.9722 85.4367 32.6797 85.4367 33.5723C85.4367 34.914 84.1756 37.2979 81.4692 37.2979C78.5209 37.2979 77.6841 34.9293 77.6342 33.745C77.6342 31.5511 79.2926 29.9906 81.4577 29.9906Z" fill="white"/>
</svg>
