<svg width="115" height="63" viewBox="0 0 115 63" fill="none" xmlns="http://www.w3.org/2000/svg">

<path d="M20.6679 31.2789C21.5165 29.088 22.6036 28.3698 25.1814 28.281C26.2574 28.2436 27.3334 28.1867 28.3969 28.1382C28.5467 26.9055 27.9796 26.0624 26.8356 26.0305C25.4615 25.9903 24.0831 26.1318 22.7062 26.2011C22.483 26.2122 22.2625 26.2593 22.0628 26.2871C22.0088 26.1942 21.9713 26.1567 21.9672 26.1151C21.7384 24.1988 21.4513 24.5469 23.394 24.3181C24.8181 24.1503 26.2948 24.142 27.7175 24.3125C29.2705 24.4997 30.2411 25.6229 30.3146 27.1787C30.4242 29.5151 30.3992 31.8599 30.4408 34.1991C30.4478 34.5652 30.2827 34.6928 29.9389 34.672C29.7323 34.6595 29.5215 34.6498 29.3177 34.6748C28.7464 34.7441 28.3581 34.6082 28.4579 33.8261C26.8481 35.0228 25.1259 35.1601 23.3371 34.7607C21.9367 34.4487 20.9729 33.6639 20.7913 32.1456C20.7788 32.036 20.7095 31.9348 20.6665 31.8294C20.6665 31.645 20.6665 31.4619 20.6665 31.2775L20.6679 31.2789ZM28.3678 29.7689C26.8827 29.9089 25.3741 29.9866 23.8876 30.214C23.0335 30.3457 22.6688 30.9226 22.691 31.6547C22.7132 32.3757 23.1375 32.8541 23.9625 33.0677C25.0261 33.3422 26.0771 33.2923 27.045 32.7626C28.5245 31.9528 28.6493 31.4938 28.3678 29.7689Z" fill="white"/>
<path d="M85.8558 43C84.4497 42.4176 84.0698 41.9323 84.1779 40.859C84.2889 39.7567 85.1181 39.159 86.3439 39.2991C87.3006 39.4086 87.8303 40.1546 87.6972 41.318H84.9129C85.1153 42.2748 85.8031 42.5646 86.8611 42.2359C87.1356 42.1514 87.4795 41.8893 87.5807 42.5091C87.1925 42.6713 86.8001 42.835 86.409 43H85.8558ZM87.0372 40.7883C87.0039 40.0867 86.5865 39.8343 86.0069 39.801C85.3912 39.7664 85.021 40.1311 84.9558 40.7883H87.0372Z" fill="white"/>
<path d="M70.9082 43C70.8 42.9237 70.6502 42.871 70.5934 42.767C70.3965 42.4107 70.0498 42.003 70.1081 41.6771C70.1663 41.3554 70.6003 40.9838 70.9511 40.8576C71.4489 40.6788 72.0216 40.7037 72.5638 40.6413C72.4099 39.8496 71.9467 39.6471 70.9872 39.9106C70.6974 39.9896 70.3507 40.2073 70.2856 39.6332C70.9151 39.1881 71.6444 39.1535 72.31 39.3906C72.6761 39.5209 73.117 39.9619 73.1767 40.3196C73.307 41.1169 73.2169 41.9503 73.2169 42.8488C72.6595 42.6602 72.1506 42.5341 71.7387 42.9972H70.9082V43ZM72.5416 41.189C72.0799 41.2279 71.6209 41.2223 71.1869 41.3263C71.0038 41.3707 70.732 41.6757 70.7584 41.813C70.7986 42.021 71.0329 42.29 71.2396 42.351C71.9356 42.5535 72.4972 42.0654 72.5416 41.189Z" fill="white"/>
<path d="M92.0844 42.9999C91.9458 42.9237 91.8057 42.8488 91.6671 42.7711C91.2372 42.5243 90.9987 42.1125 91.1693 41.6799C91.2996 41.3485 91.6366 40.9866 91.9638 40.8715C92.4685 40.694 93.044 40.7162 93.5875 40.6538C93.5834 40.0298 93.2229 39.74 92.5212 39.8135C92.2952 39.837 92.0761 39.9563 91.8529 39.9605C91.6809 39.9646 91.5062 39.8578 91.1873 39.7511C92.0054 39.1923 92.7001 39.2034 93.374 39.3614C93.8926 39.4835 94.267 39.844 94.2836 40.4347C94.303 41.0989 94.3211 41.7645 94.2961 42.4273C94.2906 42.5632 94.0867 42.6921 93.9758 42.8238C93.4946 42.3385 93.1618 42.8502 92.775 42.9999H92.0831H92.0844ZM93.625 41.1862C93.1397 41.2278 92.6959 41.2126 92.2897 41.3249C92.0886 41.3804 91.8071 41.6882 91.8251 41.8532C91.8459 42.0432 92.1302 42.3025 92.3451 42.3579C93.0204 42.534 93.5376 42.0848 93.625 41.1862Z" fill="white"/>
<path d="M80.0431 43C79.085 42.6866 78.3306 42.211 78.3792 41.0393C78.4138 40.2142 78.8811 39.5639 79.641 39.3448C80.5589 39.0814 81.377 39.3573 82.0024 40.303C81.6086 40.2309 81.341 40.2503 81.1552 40.1366C80.4549 39.7095 79.8157 39.7303 79.3484 40.2531C78.9213 40.7287 78.9255 41.4761 79.3581 41.9475C79.8226 42.4536 80.4744 42.4619 81.1677 42.0224C81.3382 41.9142 81.5934 41.9392 81.8097 41.9018C81.8485 42.003 81.8887 42.1042 81.9275 42.2054C81.4838 42.4703 81.0415 42.7351 80.5978 43H80.0445H80.0431Z" fill="white"/>
<path d="M82.5669 30.5619H74.0572C74.2347 32.047 75.8695 33.2603 77.485 33.0481C78.1658 32.958 78.8952 32.707 79.4443 32.3118C79.9518 31.9458 80.3581 31.7905 80.9377 31.9846C81.2538 32.09 81.5963 32.1219 81.9333 32.1898C81.1498 34.3169 78.1672 35.4941 75.6366 34.7246C72.8439 33.8746 71.3242 30.9973 72.091 28.0175C72.7815 25.333 75.5007 23.6551 78.2753 24.2029C81.3315 24.8047 83.0301 27.2673 82.5669 30.5661V30.5619ZM74.042 28.5014H80.5466C80.297 27.0454 78.9368 26.0235 77.3047 26.0166C75.674 26.0096 74.2846 27.0413 74.042 28.5014Z" fill="white"/>
<path d="M53.0899 34.9686C49.8231 34.9631 47.549 32.714 47.5518 29.4887C47.5545 26.2773 49.8328 24.0864 53.1551 24.1016C56.4705 24.1169 58.7044 26.3147 58.6961 29.5538C58.6877 32.7472 56.3818 34.9742 53.0899 34.9686ZM53.1551 25.9861C51.0183 25.9764 49.579 27.3866 49.5721 29.4984C49.5665 31.613 51.0128 33.0967 53.0872 33.1064C55.2059 33.1161 56.6771 31.6352 56.6716 29.497C56.666 27.4171 55.2448 25.9972 53.1537 25.9875L53.1551 25.9861Z" fill="white"/>
<path d="M60.4449 24.698C62.7231 24.3347 64.9237 23.902 67.1645 24.2778C68.9241 24.5732 70.1208 25.9182 70.1859 27.7152C70.2622 29.8257 70.2206 31.9389 70.2414 34.0521C70.2456 34.4584 70.0903 34.6123 69.677 34.6345C68.2821 34.7122 68.2932 34.726 68.2807 33.3061C68.2641 31.5631 68.3029 29.8146 68.1739 28.0785C68.0755 26.7585 67.1742 26.0333 65.843 26.0263C64.9237 26.0208 64.0044 26.1179 63.085 26.1705C62.615 26.1983 62.4278 26.4077 62.4347 26.9152C62.4624 29.2336 62.4319 31.5534 62.4569 33.8732C62.4624 34.4182 62.3376 34.6553 61.7372 34.6401C60.1703 34.6026 60.4588 34.708 60.4504 33.3449C60.4352 30.7506 60.4463 28.1548 60.4463 25.5604V24.6993L60.4449 24.698Z" fill="white"/>
<path d="M31.5101 24.4636C33.0761 24.3841 34.3139 24.899 35.2235 26.0083C35.7615 26.6642 36.305 27.3159 36.9249 28.0661C37.3658 27.5336 37.7665 27.0511 38.1687 26.5671C38.36 26.337 38.5944 26.1303 38.733 25.8724C39.5109 24.4345 40.7492 24.178 42.2703 24.5191C42.1857 24.6508 42.1081 24.8033 42.0027 24.9337C40.9156 26.2718 39.8396 27.6182 38.7233 28.9327C38.3517 29.3695 38.2865 29.6607 38.7053 30.1335C39.7882 31.3538 40.8046 32.6322 41.846 33.8885C42.0027 34.0771 42.1511 34.2712 42.4145 34.604C41.552 34.604 40.8518 34.6387 40.1585 34.5818C39.9588 34.5652 39.755 34.3073 39.5969 34.1229C38.7316 33.112 37.8803 32.0901 36.9443 30.978C36.4936 31.5091 36.086 31.9874 35.6783 32.4672C35.3802 32.818 35.0834 33.1689 34.7853 33.5183C33.7523 34.7302 33.303 34.8772 31.5337 34.5264C31.7028 34.3031 31.8401 34.1062 31.994 33.9218C33.0631 32.6295 34.117 31.3219 35.2193 30.0573C35.5729 29.651 35.5327 29.4 35.2096 29.0187C34.1128 27.7194 33.0479 26.3924 31.9732 25.0737C31.8346 24.9032 31.7056 24.7243 31.5073 24.4636H31.5101Z" fill="white"/>
<path d="M94.2616 24.4318C92.8195 26.2025 91.4759 27.8526 90.0962 29.5456C91.4717 31.2054 92.8251 32.8402 94.2949 34.6137C93.4352 34.6137 92.753 34.647 92.0777 34.5929C91.8711 34.5763 91.652 34.3489 91.4953 34.1672C90.6106 33.1425 89.7426 32.104 88.7914 30.9794C88.2977 31.5618 87.8429 32.097 87.3895 32.6336C87.1066 32.9664 86.7655 33.2673 86.5534 33.6403C85.8088 34.959 84.6232 34.6318 83.3336 34.5777C83.715 34.1007 84.0061 33.7291 84.307 33.3658C85.2305 32.2495 86.1415 31.1222 87.0928 30.0309C87.4186 29.6566 87.4034 29.4194 87.0886 29.0478C85.8476 27.5738 84.6412 26.0694 83.3101 24.4387C84.1836 24.4387 84.9088 24.411 85.6285 24.4581C85.8074 24.4706 85.9946 24.7049 86.136 24.8727C87.0026 25.9071 87.8582 26.9513 88.7789 28.0661C89.6137 27.058 90.4165 26.1498 91.1445 25.1833C91.573 24.6148 92.0375 24.3208 92.7655 24.4193C93.1953 24.4775 93.639 24.4304 94.2616 24.4304V24.4318Z" fill="white"/>
<path d="M45.6978 24.4317C45.6978 25.2429 45.6978 25.9515 45.6978 26.6614C45.6978 29.0742 45.6812 31.4869 45.7103 33.8982C45.7173 34.4778 45.5301 34.6525 44.9629 34.6387C43.5 34.6026 43.715 34.7191 43.7108 33.3713C43.7011 30.6604 43.7233 27.9482 43.6956 25.2374C43.6886 24.6286 43.8259 24.3319 44.4943 24.4234C44.8534 24.4719 45.2236 24.4317 45.6978 24.4317Z" fill="white"/>
<path d="M63.1568 40.7453H61.1212C61.1212 41.2958 61.1115 41.7895 61.124 42.2831C61.1351 42.7324 60.9659 42.9265 60.4307 42.7559C60.4307 41.3055 60.4196 39.8426 60.4501 38.3811C60.4529 38.2563 60.7316 38.0386 60.8897 38.0317C61.6246 37.9943 62.3636 37.9984 63.0985 38.0303C63.2441 38.0359 63.3828 38.2258 63.5242 38.3312C63.3731 38.4297 63.2289 38.5919 63.068 38.6113C62.7047 38.6557 62.3304 38.6543 61.9643 38.6238C61.3847 38.5753 61.0893 38.707 61.099 39.3934C61.1087 40.0423 61.3777 40.181 61.9366 40.1255C62.2333 40.0964 62.5356 40.1255 62.8337 40.1214C63.2913 40.113 63.3162 40.3474 63.154 40.7453H63.1568Z" fill="white"/>
<path d="M66.0063 39.2491C66.317 39.3712 66.5388 39.4585 66.8175 39.5681C67.0588 39.4932 67.3957 39.324 67.7466 39.2907C68.6548 39.2034 69.1928 39.6721 69.2497 40.5761C69.2871 41.1696 69.2635 41.7659 69.2705 42.3607C69.2746 42.8128 69.0652 42.9237 68.6007 42.7268C68.6007 42.1292 68.5993 41.5163 68.6007 40.902C68.6035 40.321 68.3497 39.9258 67.7563 39.8301C67.2391 39.7469 66.7565 40.1407 66.6761 40.7536C66.6081 41.2722 66.6206 41.8033 66.6234 42.3288C66.6262 42.7545 66.4778 42.9334 66.0077 42.7573V39.2491H66.0063Z" fill="white"/>
<path d="M76.8994 42.7379C76.8994 42.1264 76.8994 41.5122 76.8994 40.8965C76.8994 40.3155 76.6401 39.9217 76.0452 39.8316C75.5266 39.7525 75.0469 40.145 74.9651 40.7592C74.8957 41.2778 74.911 41.8089 74.9151 42.3344C74.9193 42.7643 74.7695 42.9348 74.3064 42.7546C74.2953 42.6298 74.2718 42.4981 74.2718 42.3649C74.269 41.3832 74.2704 40.4029 74.2704 39.2631C74.6004 39.3837 74.8319 39.4683 75.0566 39.5501C75.4518 39.4669 75.8872 39.3047 76.324 39.2991C77.0242 39.2908 77.4832 39.747 77.5303 40.4486C77.5733 41.0865 77.5497 41.7299 77.5594 42.3705C77.5678 42.8378 77.339 42.9085 76.8994 42.7393V42.7379Z" fill="white"/>
<path d="M44.694 20C45.5038 19.9945 46.0196 20.459 46.0445 21.2175C46.0695 21.9704 45.4774 22.5639 44.7064 22.5598C43.9646 22.5556 43.4002 21.9982 43.3975 21.2647C43.3947 20.4965 43.898 20.0056 44.694 20Z" fill="white"/>
<path d="M89.31 39.5099C89.7828 39.4378 90.1683 39.3657 90.5565 39.3407C90.594 39.3379 90.6494 39.6277 90.6993 39.7914C89.4791 39.9702 89.2794 40.2032 89.2753 41.3666C89.2739 41.8214 89.2753 42.2776 89.2753 42.7352C88.8399 42.9071 88.6277 42.8336 88.6319 42.3663C88.6416 41.5177 88.625 40.6705 88.6416 39.8219C88.6444 39.661 88.7414 39.3712 88.8066 39.3685C88.9924 39.3587 89.1824 39.4669 89.31 39.5085V39.5099Z" fill="white"/>
<path d="M64.933 42.7421C64.4935 42.8988 64.2896 42.8364 64.2966 42.394C64.3104 41.526 64.2841 40.6566 64.316 39.7886C64.3215 39.6319 64.5253 39.4821 64.6363 39.3296C64.7347 39.4738 64.9164 39.6166 64.9205 39.7636C64.9455 40.7439 64.9344 41.7257 64.9344 42.7421H64.933Z" fill="white"/>
<path d="M83.0979 42.8932C82.9661 42.7282 82.7276 42.5673 82.7193 42.3968C82.6805 41.5301 82.6846 40.6593 82.7165 39.7927C82.7221 39.6346 82.9259 39.4848 83.0369 39.3309C83.1353 39.4751 83.3156 39.6166 83.3197 39.7622C83.3447 40.7619 83.3336 41.7631 83.3336 42.7642L83.0992 42.8946L83.0979 42.8932Z" fill="white"/>
<path d="M65.2703 38.2896C64.9611 38.4976 64.7919 38.7028 64.6422 38.689C64.4772 38.6737 64.3302 38.4574 64.1763 38.3284C64.3205 38.1898 64.4508 37.9638 64.6131 37.9374C64.7628 37.9138 64.9458 38.1038 65.2703 38.2882V38.2896Z" fill="white"/>
<path d="M83.6652 38.3548C83.3379 38.5295 83.1479 38.7153 82.9954 38.689C82.8373 38.6626 82.7153 38.4297 82.5767 38.2868C82.7333 38.162 82.8845 37.9485 83.0467 37.9402C83.1993 37.9319 83.3629 38.1412 83.6652 38.3548Z" fill="white"/>
</svg>
