<svg width="64" height="66" viewBox="0 0 64 66" fill="none" xmlns="http://www.w3.org/2000/svg">

<path d="M38.218 37.1322H35.1249V37.852H36.2233V40.7369H37.0741V37.852H38.218V37.1322Z" fill="white"/>
<path d="M33.523 37.1322V40.7369H32.7265L31.0147 38.4857V40.7369H30.2515V37.1322H31.0147L32.7265 39.2877V37.1322H33.523Z" fill="white"/>
<path d="M23.6574 37.6057L23.2076 38.1675C23.0556 38.0415 22.6019 37.7896 22.0026 37.7896C21.1512 37.7896 21.1512 38.4104 21.8425 38.4104C22.656 38.4104 24.0794 38.4104 23.8644 39.918C23.7451 40.7541 21.3405 41.4581 20.2061 40.0353L20.8024 39.4491C20.9069 39.6167 21.4307 40.0353 22.1003 40.0353C23.5238 40.0353 23.4715 39.0305 21.8425 39.2015C20.3014 39.3633 20.126 37.7562 21.2387 37.183C21.5829 37.0057 23.0183 36.8492 23.6574 37.6057Z" fill="white"/>
<path d="M26.0483 41.9812H25.2735V45.5662H27.8761V44.845H26.0483V41.9812Z" fill="white"/>
<path d="M24.0116 42.7072L23.4193 43.2208C22.5339 42.2485 21.0562 42.6285 21.0562 43.8056C21.0562 45.0452 22.7815 45.2921 23.5143 44.3043L24.0116 44.845C23.8829 45.1424 23.3205 45.7372 22.1003 45.7372C20.6776 45.7372 19.3532 43.6126 20.9347 42.3021C21.3755 41.9369 22.6696 41.3855 24.0116 42.7072Z" fill="white"/>
<path fill-rule="evenodd" clip-rule="evenodd" d="M42.8981 45.5662L41.3105 41.9615H40.5045L38.9053 45.5662H39.7683L40.1293 44.7473H41.647L42.0602 45.5662H42.8981ZM40.9244 42.9976L41.3946 44.1021H40.419L40.9244 42.9976Z" fill="white"/>
<path fill-rule="evenodd" clip-rule="evenodd" d="M34.4023 45.5662H35.1771V44.193H36.1514L36.815 45.5662H37.7268L37.0219 44.193C38.2648 43.6685 37.701 41.9615 36.6983 41.9615H34.4023V45.5662ZM35.1771 42.7424V43.4616H36.5632C37.1813 43.4616 37.1813 42.7424 36.5632 42.7424H35.1771Z" fill="white"/>
<path fill-rule="evenodd" clip-rule="evenodd" d="M32.9626 45.5662L31.375 41.9615H30.569L28.9698 45.5662H29.8328L30.1938 44.7473H31.7115L32.1247 45.5662H32.9626ZM30.9889 42.9976L31.4591 44.1021H30.4835L30.9889 42.9976Z" fill="white"/>
<path fill-rule="evenodd" clip-rule="evenodd" d="M42.8859 40.7369L41.2983 37.1322H40.4923L38.8931 40.7369H39.7561L40.1171 39.918H41.6348L42.048 40.7369H42.8859ZM40.9122 38.1682L41.3824 39.2728H40.4067L40.9122 38.1682Z" fill="white"/>
<path fill-rule="evenodd" clip-rule="evenodd" d="M28.9271 40.7369L27.3395 37.1322H26.5335L24.9343 40.7369H25.7973L26.1583 39.918H27.676L28.0892 40.7369H28.9271ZM26.9534 38.1682L27.4236 39.2728H26.448L26.9534 38.1682Z" fill="white"/>
<path d="M42.7279 42.6583V42.2281H42.8732C42.9069 42.2281 42.9344 42.2339 42.956 42.2453C42.9776 42.2567 42.9935 42.2723 43.0039 42.2922C43.0143 42.3121 43.0194 42.3347 43.0194 42.36C43.0194 42.3854 43.0143 42.4079 43.0039 42.4275C42.9935 42.4471 42.9776 42.4625 42.9562 42.4737C42.9348 42.4847 42.9074 42.4903 42.8741 42.4903H42.7564V42.4432H42.8724C42.8954 42.4432 42.9139 42.4399 42.9279 42.4331C42.942 42.4264 42.9522 42.4169 42.9585 42.4046C42.965 42.3921 42.9682 42.3773 42.9682 42.36C42.9682 42.3428 42.965 42.3278 42.9585 42.3149C42.9521 42.302 42.9418 42.292 42.9276 42.285C42.9135 42.2779 42.8948 42.2743 42.8716 42.2743H42.78V42.6583H42.7279ZM42.9304 42.4651L43.0363 42.6583H42.9758L42.8716 42.4651H42.9304Z" fill="white"/>
<path d="M43.3169 41.9972C43.3169 42.2531 43.1094 42.4606 42.8535 42.4606C42.5976 42.4606 42.3901 42.2531 42.3901 41.9972C42.3901 41.7413 42.5976 41.5338 42.8535 41.5338C43.1094 41.5338 43.3169 41.7413 43.3169 41.9972Z" stroke="white" stroke-width="0.135694"/>
<path d="M20.6389 32.7462H20.2759V34.6357H20.6389V32.7462Z" fill="white"/>
<path d="M25.3339 34.6181H23.7028C23.7028 33.9586 23.9889 33.502 24.5658 33.502C24.6873 33.502 25.015 33.502 25.015 33.2889C25.015 33.0976 24.5687 32.9296 23.9179 33.2889L23.7028 33.0372C24.0963 32.7322 24.4702 32.7272 24.6873 32.7272C25.6385 32.7272 25.5048 33.8514 24.6873 33.8514C24.3894 33.8514 24.0475 33.9769 24.0475 34.2734H25.3339V34.6181Z" fill="white"/>
<path fill-rule="evenodd" clip-rule="evenodd" d="M27.0246 34.6398V34.1655H25.6941V33.8385L26.9045 32.8167H27.2994V33.8385H27.7065V34.1655H27.2994V34.6398H27.0246ZM27.0246 33.122V33.8385H26.1324L27.0246 33.122Z" fill="white"/>
<path fill-rule="evenodd" clip-rule="evenodd" d="M22.8493 33.6974C21.8316 34.2965 21.2128 33.8134 21.2128 33.3385C21.2128 32.6288 23.2876 32.3479 23.2876 33.6974C23.2876 34.6782 21.8336 34.979 21.3058 34.3969L21.5263 34.1323C21.884 34.4297 23.0474 34.3969 22.8493 33.6974ZM22.7882 33.4307C22.7448 33.0166 21.5745 32.8445 21.5745 33.3385C21.6021 33.7547 22.7 33.563 22.7882 33.4307Z" fill="white"/>
<path d="M31.5927 30.5866C30.8742 30.5866 27.9764 33.0094 29.6224 34.7178C29.142 33.8962 30.4793 33.4285 31.748 33.7164C33.8886 34.2022 32.8716 35.0367 31.748 35.0367C30.8599 35.0367 30.503 34.5815 31.4597 34.27C30.8599 34.1187 30.2255 34.1791 30.2255 34.7178C30.2303 35.1387 31.0648 36.0613 32.9299 35.3895C33.4768 35.1925 34.3369 34.2782 33.4028 32.1966C33.2008 31.7434 32.457 30.5866 31.5927 30.5866Z" fill="white"/>
<path d="M26.7558 24.6548C26.7558 30.5866 33.2305 28.5512 34.0026 32.0589C34.2997 27.3843 28.4418 30.7922 27.5408 24.0944C27.5408 22.5692 29.0789 19.5263 31.9801 20.7509C31.0261 19.2149 28.1481 20.1851 27.1053 22.3066C26.4702 21.1302 24.4804 21.3276 23.9626 22.3066C23.8643 22.4925 23.7523 22.7809 24.198 23.5923C24.712 24.5279 25.4939 25.6779 26.7558 24.6548Z" fill="white"/>
<path d="M35.0827 23.114C34.7991 23.785 35.0827 25.2301 37.6758 26.1461C37.2477 26.1461 36.0542 26.2329 35.6322 27.7161C35.4058 28.5119 34.7034 29.366 32.1673 28.4434C30.7052 27.9114 27.89 26.1135 28.5999 23.7816C28.7897 23.1583 29.6062 22.0371 31.3545 22.5387C32.2969 22.9437 32.2385 23.8341 31.6822 23.996C30.9271 24.2158 30.7039 23.5767 31.1516 23.6011C31.5119 23.7111 31.6618 23.3849 31.3545 23.2701C31.0003 23.1378 30.0911 23.0706 29.9887 23.9587C29.9189 24.5652 31.7549 25.1836 32.4692 23.7816C32.9767 22.9919 33.4476 22.9771 34.1518 24.165C34.2645 24.3549 34.3995 24.4587 34.5949 24.4587C35.0223 24.4587 34.6368 24.3291 34.3995 23.8793C34.1145 23.3393 35.2231 23.3026 34.776 22.7965C34.572 22.5655 34.1353 21.8721 33.5046 21.3283C33.6516 21.3161 33.9895 21.3185 34.1654 21.426C34.8025 20.3859 35.0176 20.3859 36.5645 20.3859C37.1764 20.3859 37.9967 20.4836 37.6758 21.4999C37.5522 21.8914 36.1363 23.7029 35.0827 23.114Z" fill="white"/>
<path d="M38.7912 27.83C38.7912 28.2202 38.2097 28.4203 37.6758 28.8932C37.5154 29.0515 37.0391 29.3681 36.4166 29.3681C35.7286 29.3681 35.755 28.9669 36.0726 28.9916C36.5787 29.0309 36.9871 28.8294 37.5774 28.0607C37.8421 27.7161 37.5488 27.4379 37.4227 27.636C37.2764 27.866 36.9085 28.1957 36.8148 27.9847C36.69 27.7036 36.6441 27.111 37.4594 26.9894C37.7694 26.9432 37.9116 26.9385 38.3638 26.5939C38.5607 26.4446 38.9547 26.2956 38.9547 26.8937C38.9547 27.0939 38.7912 27.5478 38.7912 27.83Z" fill="white"/>
</svg>
