<svg width="102" height="63" viewBox="0 0 102 63" fill="none" xmlns="http://www.w3.org/2000/svg">

<path d="M81.9153 27.3207C81.8939 27.5393 81.8727 27.7581 81.8513 27.9767C81.8447 28.0445 81.8369 28.1121 81.7985 28.1897C81.7774 28.1496 81.7479 28.1118 81.7362 28.0693C81.6628 27.8015 81.6787 27.5415 81.8232 27.2988C81.8363 27.2771 81.8836 27.276 81.915 27.2651V27.3207H81.9153Z" fill="white"/>
<path d="M45.9848 34.4271C45.6464 34.4271 45.3164 34.4037 44.9916 34.4337C44.6671 34.4638 44.4705 34.3436 44.267 34.0914C41.9577 31.2324 39.6342 28.3849 37.3149 25.5339C36.9323 25.0634 36.55 24.5927 36.1674 24.1225C36.1332 24.0805 36.0976 24.0396 36.0348 23.9654V34.4184H34.2627V20.813C34.3061 20.8103 34.3511 20.805 34.3959 20.805C34.7896 20.8044 35.1833 20.8008 35.5771 20.8086C35.6402 20.8097 35.7231 20.8456 35.7623 20.8934C38.0204 23.657 40.2746 26.4234 42.5294 29.1896C43.0616 29.8424 43.5943 30.495 44.1271 31.1476C44.1505 31.1763 44.176 31.203 44.2208 31.2533V20.8178C44.277 20.8122 44.3167 20.8053 44.3562 20.805C44.8564 20.8041 45.357 20.808 45.8572 20.8019C45.9717 20.8005 45.9951 20.8406 45.9951 20.9457C45.9929 25.3902 45.9932 29.8344 45.9929 34.2789C45.9929 34.3239 45.9881 34.3689 45.9851 34.4271H45.9848Z" fill="white"/>
<path d="M20.0249 34.427V20.8233C20.08 20.8208 20.1292 20.8169 20.1787 20.8169C21.8554 20.8166 23.5321 20.8136 25.2085 20.8177C26.4614 20.8208 27.6523 21.0827 28.7409 21.7223C30.1357 22.5417 31.0697 23.7398 31.5362 25.28C32.047 26.9664 32.0362 28.6631 31.4108 30.3176C30.6009 32.46 29.0318 33.7541 26.8054 34.2602C26.2668 34.3825 25.7184 34.4284 25.1656 34.4279C23.5123 34.4262 21.8587 34.4273 20.2054 34.4273C20.1503 34.4273 20.0953 34.4273 20.0252 34.4273L20.0249 34.427ZM21.6577 32.8782H21.8309C22.8683 32.8782 23.906 32.8885 24.9432 32.8732C25.3764 32.8668 25.8163 32.8446 26.2398 32.7623C28.0566 32.4097 29.3115 31.3728 29.9416 29.6205C30.273 28.6982 30.3328 27.7425 30.2121 26.7754C30.107 25.9334 29.8429 25.1435 29.3518 24.4444C28.3842 23.0667 27.0097 22.4388 25.3675 22.3821C24.1646 22.3407 22.9595 22.3721 21.7553 22.3715C21.7244 22.3715 21.6935 22.3771 21.6574 22.3807V32.8782H21.6577Z" fill="white"/>
<path d="M61.6366 34.4268C61.0674 34.4268 60.5257 34.4285 59.984 34.4241C59.9348 34.4238 59.8801 34.3915 59.8375 34.3607C58.081 33.0936 56.3256 31.8248 54.57 30.556C53.8985 30.0708 53.2272 29.5856 52.5554 29.1006C52.5262 29.0795 52.4948 29.0609 52.4509 29.0322C52.3299 29.3042 52.2112 29.5686 52.095 29.8336C51.4429 31.3181 50.7903 32.8027 50.1413 34.2886C50.0968 34.3904 50.0457 34.4318 49.9286 34.4302C49.447 34.4224 48.9651 34.4268 48.4835 34.4268C48.4388 34.4268 48.3943 34.4268 48.3242 34.4268C48.4441 34.1493 48.555 33.8921 48.666 33.6352C50.4961 29.4034 52.3266 25.1719 54.1548 20.9393C54.1968 20.8423 54.243 20.7986 54.3573 20.8011C54.7693 20.8095 55.1817 20.8095 55.5941 20.8011C55.7156 20.7986 55.7706 20.8384 55.8182 20.9491C56.6657 22.918 57.5182 24.8853 58.3694 26.8528C59.4407 29.3289 60.5118 31.805 61.5829 34.2811C61.6007 34.322 61.6143 34.3648 61.6374 34.4268H61.6366ZM54.9787 22.871C54.3117 24.4682 53.661 26.0261 53.0084 27.588C54.9365 28.9246 56.8542 30.254 58.7717 31.5831C58.7795 31.5767 58.7873 31.5703 58.7953 31.5642C57.5288 28.6794 56.2622 25.7945 54.9787 22.871Z" fill="white"/>
<path d="M66.8639 39.5829C66.8639 39.4558 66.8661 39.3649 66.863 39.2742C66.8605 39.1991 66.8889 39.1638 66.9679 39.1649C67.3914 39.1713 67.3127 39.1124 67.3143 39.4897C67.3177 40.2483 67.3188 41.0071 67.3099 41.7656C67.3018 42.4594 66.8806 42.9001 66.1885 42.9807C65.7266 43.0344 65.2853 42.978 64.8627 42.7883C64.7593 42.7419 64.6658 42.6732 64.5524 42.6054C64.6333 42.4769 64.7031 42.3654 64.7626 42.2711C64.9953 42.3643 65.2055 42.4858 65.4305 42.5283C65.6793 42.5753 65.946 42.5814 66.1977 42.5484C66.5616 42.5008 66.7835 42.2414 66.8297 41.8746C66.8483 41.7272 66.8475 41.5777 66.838 41.415C66.3953 41.8332 65.884 41.8971 65.3348 41.7495C65.0354 41.6689 64.7943 41.4903 64.6224 41.2281C64.2693 40.6895 64.3572 39.9421 64.804 39.5064C65.2047 39.1157 66.2057 38.9025 66.8636 39.5829H66.8639ZM64.8919 40.4668C64.8913 41.026 65.2956 41.4161 65.8754 41.4155C66.4421 41.415 66.868 41.0135 66.86 40.474C66.8522 39.951 66.506 39.5548 65.869 39.545C65.2948 39.5361 64.8924 39.9229 64.8919 40.4668Z" fill="white"/>
<path d="M79.4842 41.5664C79.4842 41.9032 79.4842 42.2402 79.4842 42.5769C79.4842 42.5955 79.4847 42.6139 79.4842 42.6325C79.4731 43.0374 79.5704 42.9665 79.1133 42.9748C79.0349 42.9762 79.0032 42.9417 79.0084 42.8661C79.0101 42.843 79.0084 42.8199 79.0084 42.7969C79.0084 41.6451 79.0109 40.4934 79.0054 39.3417C79.0048 39.2016 79.0413 39.1568 79.1839 39.1624C79.5053 39.1746 79.4522 39.1346 79.4575 39.4379C79.4581 39.4774 79.4642 39.5166 79.4711 39.5984C79.8571 39.1587 80.3234 39.0681 80.8381 39.1757C81.1509 39.241 81.412 39.4048 81.6058 39.6643C82.0062 40.1995 81.9667 41.0629 81.5213 41.5414C81.3464 41.7294 81.1331 41.8534 80.8856 41.9185C80.6406 41.9827 80.3951 41.9935 80.146 41.9327C79.896 41.8715 79.6933 41.7352 79.5192 41.547C79.5076 41.5537 79.4959 41.5601 79.4842 41.5667V41.5664ZM81.4 40.5604C81.4017 39.9671 81.0146 39.5461 80.4393 39.5472C79.8604 39.5483 79.4684 39.939 79.4697 40.5518C79.4711 41.247 79.9611 41.5581 80.4099 41.5567C80.9985 41.5551 81.3986 41.156 81.4003 40.5604H81.4Z" fill="white"/>
<path d="M29.1543 40.7899C29.1957 41.1203 29.3426 41.3724 29.6212 41.5159C30.14 41.7826 30.6366 41.7298 31.0954 41.3385C31.1472 41.3997 31.1942 41.4559 31.2414 41.5115C31.3685 41.6611 31.3702 41.6647 31.2122 41.7881C30.8658 42.059 30.4687 42.1385 30.0383 42.0979C29.652 42.0615 29.3067 41.9341 29.0406 41.6427C28.6302 41.1937 28.5551 40.6648 28.735 40.1053C28.9046 39.5781 29.2833 39.2614 29.8331 39.163C30.6778 39.0117 31.3632 39.4814 31.5284 40.3214C31.6107 40.7404 31.5787 40.7807 31.1644 40.7807C30.5535 40.7807 29.9426 40.7807 29.3317 40.781C29.2778 40.781 29.2236 40.7863 29.1538 40.7899H29.1543ZM30.12 40.4393C30.3883 40.4393 30.6567 40.4401 30.925 40.439C31.0662 40.4385 31.0854 40.4118 31.054 40.2727C30.955 39.8367 30.5849 39.5573 30.1064 39.5578C29.6401 39.5584 29.2739 39.8403 29.1766 40.2747C29.1435 40.4223 29.1529 40.4376 29.3014 40.4387C29.5742 40.4407 29.8472 40.4393 30.1203 40.4393H30.12Z" fill="white"/>
<path d="M58.0079 41.693C57.8341 41.9104 57.6325 42.0222 57.3951 42.0726C57.0545 42.1448 56.723 42.1248 56.4091 41.9663C56.1113 41.8159 55.9381 41.5098 55.9695 41.1928C56.0034 40.8508 56.1822 40.6116 56.5128 40.5107C56.6788 40.4601 56.8554 40.4301 57.0289 40.4209C57.3106 40.4059 57.5939 40.4139 57.8764 40.4164C57.9643 40.4173 57.9965 40.3867 57.999 40.2955C58.0113 39.8559 57.7315 39.5734 57.2597 39.5603C56.9021 39.5506 56.5748 39.6493 56.2623 39.862C56.1944 39.7405 56.1305 39.6259 56.0621 39.5038C56.2603 39.3412 56.4822 39.2528 56.7169 39.1974C57.0072 39.129 57.3008 39.1173 57.5978 39.1638C58.1439 39.2494 58.4912 39.6359 58.4976 40.1937C58.5043 40.7815 58.4976 41.3696 58.5006 41.9574C58.5012 42.0531 58.4703 42.0954 58.3727 42.0862C58.2637 42.0759 58.1166 42.1093 58.0563 42.0511C57.9962 41.9933 58.0235 41.8451 58.0079 41.693ZM57.4802 40.759C57.4802 40.7554 57.4799 40.7518 57.4796 40.7482C57.2911 40.7593 57.1017 40.7637 56.9138 40.7832C56.6605 40.8096 56.4878 40.9656 56.4711 41.1675C56.4491 41.4341 56.572 41.6179 56.8417 41.6897C56.951 41.7189 57.0695 41.7211 57.184 41.7214C57.7174 41.7225 58.0246 41.3974 57.999 40.8727C57.9949 40.7871 57.9609 40.7579 57.8825 40.7584C57.7485 40.7596 57.6145 40.7587 57.4804 40.7587L57.4802 40.759Z" fill="white"/>
<path d="M39.6694 39.8556C39.6127 39.7538 39.5496 39.6615 39.5118 39.5594C39.4995 39.5269 39.5429 39.4513 39.5813 39.426C39.8541 39.2458 40.1624 39.1579 40.4844 39.144C40.6991 39.1348 40.9213 39.149 41.1306 39.1949C41.6014 39.298 41.8981 39.6712 41.9045 40.1522C41.9125 40.754 41.9056 41.356 41.9089 41.9577C41.9095 42.0539 41.8772 42.0948 41.7802 42.0856C41.6712 42.0756 41.5244 42.1089 41.4635 42.0508C41.4034 41.9935 41.4304 41.8453 41.4187 41.733C41.4034 41.7366 41.387 41.7355 41.3792 41.7433C40.9429 42.1823 40.4271 42.1901 39.8894 41.9966C39.5638 41.8795 39.3633 41.5564 39.3755 41.2411C39.39 40.8657 39.5927 40.601 39.9695 40.4959C40.128 40.4517 40.2953 40.4272 40.46 40.4195C40.728 40.4069 40.9972 40.4128 41.2658 40.4161C41.3625 40.4175 41.4051 40.3925 41.4065 40.2843C41.412 39.8469 41.1534 39.5783 40.6888 39.5605C40.3571 39.5477 40.0462 39.6234 39.7643 39.8038C39.7378 39.8208 39.7092 39.8339 39.6697 39.855L39.6694 39.8556ZM41.4037 41.0164C41.4037 40.9886 41.3998 40.9603 41.4042 40.9333C41.4284 40.7868 41.357 40.7456 41.2235 40.7567C41.1315 40.7645 41.038 40.7542 40.9457 40.759C40.711 40.7709 40.4727 40.7662 40.2428 40.8071C39.9937 40.8513 39.8796 41.0073 39.8774 41.2269C39.8749 41.4444 40.0017 41.6279 40.2308 41.6818C40.3854 41.7185 40.552 41.7277 40.7113 41.7177C41.1153 41.6919 41.404 41.3907 41.404 41.0167L41.4037 41.0164Z" fill="white"/>
<path d="M49.2935 39.138C50.1335 39.1266 50.8167 39.7358 50.8028 40.6615C50.7903 41.487 50.1424 42.1254 49.2824 42.1107C48.3971 42.0957 47.7756 41.5017 47.7701 40.6086C47.7648 39.7555 48.4121 39.1369 49.2935 39.138ZM49.2888 41.6675C49.8889 41.6675 50.297 41.2451 50.2976 40.6231C50.2984 40.005 49.883 39.5662 49.2941 39.5626C48.7066 39.559 48.2706 40.0122 48.2725 40.6245C48.2745 41.2404 48.6907 41.6675 49.2885 41.6675H49.2888Z" fill="white"/>
<path d="M52.4882 39.5903C52.5513 39.5306 52.5902 39.4936 52.6292 39.4566C53.0424 39.064 53.8826 39.0203 54.3323 39.3701C54.607 39.5837 54.7355 39.879 54.7444 40.2146C54.7594 40.7927 54.7496 41.371 54.7544 41.9494C54.7552 42.05 54.7235 42.0867 54.6189 42.0876C54.2672 42.0904 54.2672 42.094 54.2672 41.737C54.2672 41.339 54.2722 40.9411 54.2647 40.5432C54.2616 40.3923 54.2455 40.2377 54.2069 40.092C54.1287 39.7975 53.9191 39.627 53.6227 39.592C52.8727 39.5036 52.4929 39.9329 52.4957 40.5674C52.4979 41.0254 52.4935 41.4836 52.4979 41.9416C52.499 42.0478 52.4698 42.0879 52.3572 42.0879C51.9932 42.0879 51.9932 42.092 51.9932 41.7228C51.9932 40.9222 51.9955 40.122 51.9907 39.3215C51.9899 39.2011 52.023 39.1602 52.147 39.1624C52.4559 39.168 52.4559 39.1624 52.4704 39.4719C52.4715 39.4986 52.4782 39.525 52.4885 39.5901L52.4882 39.5903Z" fill="white"/>
<path d="M35.8919 39.5864C35.9277 39.5606 35.9511 39.5484 35.9692 39.5306C36.3926 39.1046 36.9037 39.0503 37.4445 39.2161C37.8933 39.3534 38.1233 39.7068 38.1466 40.1545C38.1781 40.759 38.1567 41.366 38.1597 41.9719C38.1603 42.0545 38.1286 42.0884 38.0449 42.0865C37.5964 42.077 37.6795 42.1493 37.6748 41.7428C37.6698 41.3218 37.6762 40.9008 37.672 40.4801C37.6709 40.37 37.6612 40.2577 37.6358 40.1509C37.5502 39.7875 37.2911 39.5845 36.9151 39.5881C36.778 39.5895 36.6354 39.5959 36.505 39.6337C36.1366 39.7402 35.9102 40.0733 35.9049 40.506C35.8991 40.9823 35.8999 41.4589 35.9047 41.9352C35.9058 42.0473 35.8755 42.0893 35.7567 42.0884C35.4003 42.0856 35.4003 42.0904 35.4003 41.7294C35.4003 40.9292 35.4028 40.1289 35.3975 39.3287C35.3966 39.2016 35.4317 39.1599 35.5615 39.163C35.8677 39.1702 35.8674 39.1641 35.8768 39.4666C35.878 39.5011 35.8855 39.5353 35.8921 39.587L35.8919 39.5864Z" fill="white"/>
<path d="M22.5755 39.5995C22.6272 39.5575 22.6542 39.5417 22.6739 39.5189C23.0537 39.0787 23.8801 39.0334 24.332 39.2986C24.635 39.4766 24.8127 39.7549 24.8316 40.0897C24.8672 40.7215 24.8592 41.356 24.8636 41.9894C24.8636 42.0211 24.8086 42.0539 24.7777 42.0845C24.773 42.0892 24.7599 42.0856 24.7504 42.0853C24.2761 42.0756 24.3714 42.1593 24.3653 41.7172C24.3592 41.2868 24.3703 40.856 24.3603 40.4259C24.357 40.2855 24.3286 40.1398 24.28 40.0077C24.1865 39.7538 23.9808 39.622 23.72 39.59C23.0382 39.5063 22.6097 39.8739 22.5933 40.5613C22.5824 41.0145 22.5866 41.4686 22.5933 41.9221C22.5949 42.0484 22.5605 42.0915 22.4298 42.0884C22.1092 42.0809 22.1089 42.0873 22.1089 41.7611C22.1089 40.9603 22.1089 40.1595 22.1089 39.3587C22.1089 39.1654 22.1092 39.1641 22.2963 39.1654C22.5988 39.1677 22.5638 39.129 22.5671 39.4285C22.5677 39.4738 22.5716 39.5189 22.5757 39.5992L22.5755 39.5995Z" fill="white"/>
<path d="M76.9596 29.2204C76.9123 29.5571 76.8659 29.9091 76.8128 30.2603C76.7561 30.634 76.6927 31.0069 76.6332 31.3803C76.5926 31.6348 76.5014 31.6829 76.2798 31.5505C75.6922 31.1996 75.1064 30.8456 74.5219 30.4894C74.3256 30.3696 74.3292 30.2662 74.5338 30.1638C75.1333 29.8644 75.7356 29.5705 76.3359 29.2727C76.4641 29.209 76.587 29.1342 76.7163 29.0727C76.8832 28.9935 76.9635 29.0399 76.9599 29.2204H76.9596Z" fill="white"/>
<path d="M72.4252 39.1379C73.2653 39.1379 73.8695 39.7269 73.8698 40.5471C73.8703 41.3721 73.2586 41.9755 72.4225 41.975C71.5877 41.9741 70.9763 41.3691 70.9766 40.5444C70.9771 39.7291 71.5858 39.1382 72.425 39.1379H72.4252ZM72.4277 41.5559C72.993 41.5559 73.3996 41.138 73.3918 40.5485C73.384 39.9624 73.0158 39.5484 72.4208 39.5461C71.8538 39.5442 71.4501 39.9755 71.4534 40.5558C71.4568 41.1447 71.8575 41.5559 72.4277 41.5557V41.5559Z" fill="white"/>
<path d="M76.9401 25.5278C76.9326 25.3788 76.9918 25.3223 77.1333 25.3777C77.3435 25.4602 77.5454 25.5648 77.7503 25.661C78.1772 25.8615 78.6048 26.0608 79.0303 26.2649C79.2399 26.3656 79.2583 26.4601 79.0923 26.6214C78.5676 27.1305 78.0387 27.6358 77.5082 28.1393C77.4731 28.1727 77.4083 28.1983 77.3636 28.1905C77.3319 28.1849 77.2935 28.1199 77.2877 28.0773C77.1714 27.2418 77.0596 26.4054 76.947 25.5692C76.9451 25.5556 76.9426 25.5417 76.9404 25.5281L76.9401 25.5278Z" fill="white"/>
<path d="M72.4744 24.5915C72.6565 24.5757 72.7094 24.6585 72.6268 24.8154C72.2344 25.5592 71.8443 26.3044 71.4492 27.0465C71.4128 27.1152 71.346 27.1675 71.2932 27.2275C71.2415 27.1633 71.1728 27.1066 71.1405 27.0337C70.858 26.3964 70.5833 25.7555 70.303 25.1171C70.2057 24.8954 70.2683 24.7928 70.5155 24.7734C70.7871 24.752 71.0582 24.7239 71.3296 24.6983C71.7111 24.6627 72.0926 24.6271 72.4744 24.5912V24.5915Z" fill="white"/>
<path d="M71.274 30.7006C71.0785 30.7056 71.0238 30.6338 71.0455 30.4756C71.1264 29.8861 71.2023 29.2964 71.2818 28.7066C71.3002 28.5698 71.3182 28.4319 71.3508 28.2979C71.3841 28.1605 71.4523 28.141 71.556 28.2378C71.8535 28.5158 72.1491 28.7961 72.4413 29.08C72.7533 29.3831 73.065 29.687 73.3675 29.9993C73.526 30.1628 73.5049 30.2231 73.2797 30.2735C72.7483 30.3919 72.215 30.502 71.6825 30.6152C71.5337 30.6469 71.3847 30.6775 71.274 30.7006Z" fill="white"/>
<path d="M73.6553 24.6383C73.9292 24.6814 74.2573 24.7306 74.5848 24.7848C75.0623 24.8638 75.5394 24.9458 76.0166 25.0273C76.0574 25.0342 76.0978 25.044 76.1381 25.0534C76.2379 25.0768 76.251 25.139 76.207 25.22C76.1876 25.2558 76.162 25.2903 76.1331 25.319C75.642 25.8025 75.1521 26.2872 74.6571 26.7668C74.5073 26.9119 74.3913 26.888 74.3012 26.6965C74.0221 26.1028 73.7482 25.5066 73.4726 24.9116C73.4629 24.8907 73.4545 24.8691 73.4465 24.8474C73.3831 24.678 73.417 24.6319 73.6553 24.6383Z" fill="white"/>
<path d="M74.8478 20.5009C75.0292 20.5289 75.2466 20.5609 75.4635 20.5962C75.7798 20.6476 76.0958 20.7009 76.4119 20.7539C76.439 20.7584 76.4657 20.7648 76.4924 20.7709C76.5585 20.7861 76.5672 20.8266 76.5381 20.8793C76.5252 20.9026 76.5082 20.925 76.4891 20.9437C76.1638 21.2582 75.8393 21.5735 75.5114 21.8855C75.4121 21.9799 75.3353 21.9644 75.2757 21.8398C75.0907 21.4536 74.9093 21.0658 74.7268 20.6787C74.7203 20.6651 74.7148 20.651 74.7095 20.6369C74.6675 20.5267 74.69 20.4967 74.8478 20.5009Z" fill="white"/>
<path d="M77.0698 41.5122C77.0444 41.562 77.0303 41.6232 76.9925 41.6599C76.512 42.1248 75.5894 42.0678 75.2048 41.5531C75.046 41.3407 74.9863 41.0935 74.9821 40.8368C74.9735 40.328 74.9829 39.8191 74.9771 39.3103C74.9757 39.1905 75.0199 39.1624 75.1308 39.1635C75.4545 39.1663 75.4545 39.1624 75.4545 39.4852C75.4545 39.8923 75.4523 40.2994 75.4565 40.7064C75.4576 40.8118 75.4681 40.92 75.4943 41.0215C75.6038 41.4438 75.9542 41.5971 76.3518 41.5437C76.8501 41.4769 77.1159 41.1563 77.119 40.6522C77.1217 40.2034 77.1226 39.7546 77.1176 39.3061C77.1165 39.1957 77.1532 39.1632 77.2616 39.1635C77.5947 39.1643 77.5947 39.1604 77.5947 39.4896C77.5947 40.2576 77.5931 41.0254 77.5964 41.7934C77.5969 41.9012 77.575 41.9516 77.4518 41.9499C77.1557 41.9457 77.156 41.9516 77.1468 41.6499C77.1459 41.6229 77.1412 41.5957 77.1384 41.5687C77.1154 41.5501 77.0926 41.5312 77.0695 41.5125L77.0698 41.5122Z" fill="white"/>
<path d="M76.9661 28.1024C76.9739 28.2809 76.9214 28.329 76.7542 28.2684C76.6336 28.2247 76.5218 28.1566 76.4064 28.0985C75.9073 27.8469 75.4079 27.5958 74.9096 27.3425C74.762 27.2674 74.7389 27.1334 74.8576 27.0143C75.3612 26.5105 75.8664 26.0083 76.3755 25.5098C76.4153 25.4708 76.4993 25.4361 76.5424 25.4528C76.5844 25.4689 76.6172 25.5506 76.6252 25.6077C76.7339 26.3795 76.8379 27.152 76.943 27.9242C76.9511 27.9834 76.9586 28.0429 76.9664 28.1021L76.9661 28.1024Z" fill="white"/>
<path d="M75.2752 22.5067C75.3386 22.5768 75.4065 22.6257 75.4385 22.6919C75.6982 23.2277 75.9515 23.7672 76.2065 24.3052C76.244 24.3844 76.2888 24.4612 76.3171 24.5438C76.3327 24.5897 76.3419 24.6642 76.3166 24.6911C76.2826 24.7273 76.2095 24.7518 76.1592 24.744C75.6667 24.6686 75.1751 24.5877 74.6841 24.504C74.3432 24.4459 74.0034 24.3817 73.6636 24.3177C73.499 24.2868 73.4651 24.1834 73.586 24.0605C73.7612 23.8825 73.9444 23.7124 74.1246 23.5397C74.4386 23.2388 74.7519 22.9374 75.0686 22.6396C75.1195 22.5918 75.1871 22.5623 75.275 22.5067H75.2752Z" fill="white"/>
<path d="M73.8876 27.4933C74.1409 27.4881 74.1901 27.5515 74.1542 27.777C74.0588 28.3776 73.9707 28.9793 73.8706 29.5793C73.8556 29.6703 73.8158 29.7934 73.7482 29.831C73.6395 29.8916 73.5764 29.7587 73.5063 29.692C73.0025 29.209 72.5006 28.724 71.9981 28.2394C71.9417 28.1849 71.8755 28.1359 71.8335 28.0717C71.7938 28.0111 71.7484 27.9249 71.7646 27.8662C71.7768 27.8217 71.8794 27.7861 71.9464 27.7756C72.5526 27.6821 73.1596 27.5948 73.7663 27.5061C73.8164 27.4989 73.8673 27.4956 73.8873 27.4936L73.8876 27.4933Z" fill="white"/>
<path d="M73.3116 30.6499C73.505 30.6458 73.5426 30.6945 73.5152 30.8677C73.4424 31.329 73.3751 31.7911 73.2987 32.2519C73.2872 32.3218 73.2568 32.4164 73.2052 32.4452C73.1222 32.4917 73.074 32.3897 73.0205 32.3384C72.6358 31.9675 72.2526 31.595 71.8689 31.2228C71.8258 31.181 71.7753 31.1434 71.7432 31.0941C71.7128 31.0475 71.6782 30.9813 71.6905 30.9363C71.6999 30.9021 71.7782 30.8748 71.8294 30.8666C72.2923 30.7949 72.7558 30.7278 73.219 30.6597C73.2573 30.6542 73.2961 30.6516 73.3114 30.6501L73.3116 30.6499Z" fill="white"/>
<path d="M76.9534 31.391C76.9909 31.1299 77.0254 30.8788 77.0632 30.6286C77.135 30.1503 77.2042 29.6715 77.2835 29.1946C77.3179 28.9875 77.4019 28.9496 77.5963 29.04C78.0698 29.2602 78.5425 29.4824 79.0133 29.7082C79.2165 29.8055 79.2243 29.89 79.045 30.0257C78.4513 30.4748 77.8554 30.9214 77.2595 31.3679C77.2081 31.4066 77.1525 31.4408 77.0958 31.4719C76.9954 31.5272 76.964 31.468 76.9531 31.3913L76.9534 31.391Z" fill="white"/>
<path d="M79.4367 28.1399C79.4367 28.5236 79.4378 28.9076 79.4361 29.2914C79.4353 29.4535 79.3371 29.5174 79.1903 29.4479C78.7104 29.2205 78.2307 28.9925 77.7539 28.7583C77.5531 28.6596 77.5362 28.5498 77.6938 28.3985C78.2113 27.903 78.7315 27.4103 79.2532 26.9192C79.2896 26.885 79.3466 26.8725 79.3939 26.8497C79.408 26.9006 79.4342 26.9512 79.4345 27.0024C79.4381 27.3817 79.4364 27.7607 79.4364 28.1399H79.4367Z" fill="white"/>
<path d="M44.8254 41.584C44.8418 41.6185 44.8602 41.6549 44.8766 41.6922C44.9864 41.9421 44.9731 41.9708 44.7061 42.0553C44.4848 42.1254 44.2612 42.1298 44.0368 42.0712C43.6592 41.9727 43.4354 41.6749 43.4332 41.2595C43.4304 40.7459 43.4293 40.2324 43.4348 39.7191C43.436 39.6001 43.4029 39.5433 43.2786 39.5595C43.2513 39.5631 43.223 39.56 43.1954 39.5597C42.9076 39.5597 42.9018 39.5561 42.9366 39.2636C42.9407 39.2277 42.9966 39.1757 43.0342 39.1702C43.1295 39.1565 43.228 39.1635 43.325 39.1652C43.4004 39.1663 43.434 39.1337 43.4326 39.057C43.4301 38.9183 43.4348 38.7795 43.4315 38.6408C43.4296 38.5604 43.4568 38.5265 43.5422 38.5215C43.9351 38.4978 43.9331 38.4956 43.9356 38.8857C43.9376 39.196 43.8914 39.1632 44.2179 39.1657C44.3613 39.1668 44.5051 39.1693 44.6483 39.1649C44.737 39.1621 44.7729 39.193 44.7715 39.2847C44.7667 39.6092 44.7959 39.5561 44.5137 39.56C44.3611 39.562 44.2081 39.5631 44.0555 39.56C43.9662 39.5581 43.9337 39.5948 43.934 39.6837C43.9365 40.2018 43.9309 40.7201 43.9367 41.2381C43.9404 41.557 44.2053 41.7536 44.5307 41.6841C44.6285 41.6632 44.7217 41.6204 44.8254 41.5848V41.584Z" fill="white"/>
<path d="M27.7762 41.5837C27.8185 41.6777 27.8646 41.7633 27.893 41.8548C27.9022 41.8845 27.8757 41.9477 27.8477 41.9632C27.5101 42.1512 27.1572 42.1684 26.8102 42.0036C26.4999 41.8559 26.3898 41.5781 26.3892 41.2492C26.3884 40.7492 26.3892 40.2493 26.3884 39.7496C26.3884 39.5639 26.3842 39.5608 26.2043 39.5597C26.1674 39.5597 26.1304 39.5597 26.0931 39.5597C25.9567 39.5597 25.8884 39.4964 25.8882 39.3698C25.8882 39.1657 25.8882 39.1671 26.0926 39.1651C26.4079 39.1624 26.3842 39.211 26.3892 38.8648C26.3948 38.4664 26.3147 38.5303 26.7479 38.5214C26.8467 38.5195 26.8784 38.5606 26.875 38.6538C26.8706 38.7831 26.8756 38.9129 26.8745 39.0425C26.8736 39.1295 26.9114 39.1674 27.0004 39.166C27.1995 39.1626 27.3989 39.1682 27.5977 39.164C27.6886 39.1621 27.7339 39.1849 27.7317 39.2875C27.725 39.6059 27.7584 39.5558 27.4698 39.5591C27.3124 39.5611 27.1545 39.553 26.9976 39.5644C26.9551 39.5675 26.8814 39.6245 26.8811 39.6573C26.8772 40.1937 26.8622 40.7314 26.8942 41.2664C26.9148 41.6112 27.1823 41.7605 27.5218 41.6716C27.6013 41.6507 27.6778 41.6179 27.7756 41.5837H27.7762Z" fill="white"/>
<path d="M76.7888 24.6305C76.7273 24.5613 76.6526 24.5057 76.6158 24.4312C76.417 24.0299 76.2266 23.6242 76.035 23.2194C75.9499 23.0398 75.8654 22.8601 75.7883 22.6772C75.7692 22.6318 75.7589 22.5543 75.7836 22.5273C75.8089 22.4998 75.8873 22.5003 75.9338 22.5156C76.6047 22.737 77.2748 22.96 77.9433 23.1885C78.2633 23.2978 78.2764 23.3637 78.0303 23.587C77.6844 23.9006 77.3355 24.2107 76.9848 24.519C76.9384 24.5599 76.8758 24.5822 76.7888 24.6305Z" fill="white"/>
<path d="M69.3805 27.8395C69.1867 27.8426 69.1375 27.7831 69.189 27.616C69.4142 26.8836 69.6419 26.1523 69.8727 25.4215C69.8891 25.3693 69.9372 25.3273 69.9706 25.2803C70.0115 25.3253 70.0673 25.3634 70.0907 25.416C70.3632 26.0333 70.6343 26.6511 70.8982 27.272C71.0077 27.5298 70.9563 27.6035 70.6707 27.6463C70.2328 27.7116 69.7949 27.7772 69.3808 27.8392L69.3805 27.8395Z" fill="white"/>
<path d="M68.855 31.009C68.6641 31.0424 68.6061 30.9914 68.6307 30.8183C68.7381 30.0596 68.8265 29.4532 68.9397 28.6953C68.9477 28.6411 68.9886 28.5921 69.0141 28.5404C69.0616 28.5785 69.1228 28.6073 69.1541 28.6556C69.5201 29.2224 70.0155 29.9268 70.3736 30.4985C70.5223 30.7359 70.4831 30.8167 70.2078 30.9039C69.7855 31.0372 69.2542 30.8827 68.8551 31.009L68.855 31.009Z" fill="white"/>
<path d="M68.6005 24.9216C68.4734 24.9236 68.4412 24.8848 68.4749 24.7758C68.6225 24.2984 68.7718 23.8217 68.9231 23.3454C68.9338 23.3113 68.9654 23.2839 68.9872 23.2533C69.014 23.2827 69.0507 23.3075 69.066 23.3417C69.2446 23.7441 69.4223 24.1469 69.5953 24.5516C69.6671 24.7197 69.6334 24.7677 69.4462 24.7956C69.1591 24.8382 68.872 24.881 68.6006 24.9214L68.6005 24.9216Z" fill="white"/>
<path d="M79.2735 25.8473C79.2743 25.9944 79.2076 25.995 79.1192 25.9535C78.751 25.7817 78.382 25.611 78.015 25.4369C77.7564 25.3143 77.4962 25.1942 77.2434 25.0598C77.0707 24.9681 77.0682 24.8705 77.2134 24.7379C77.5412 24.4384 77.8685 24.1384 78.1969 23.8394C78.2447 23.7958 78.2936 23.753 78.3459 23.7149C78.4816 23.6159 78.5962 23.6498 78.6459 23.8066C78.8464 24.4395 79.0452 25.0732 79.2435 25.7069C79.2599 25.7592 79.2671 25.8145 79.2741 25.847L79.2735 25.8473Z" fill="white"/>
<path d="M71.0384 28.268C70.9959 28.5962 70.9464 29.0035 70.8896 29.41C70.8507 29.6884 70.8048 29.9662 70.7553 30.2428C70.7459 30.2959 70.7053 30.3435 70.6791 30.3935C70.6299 30.3574 70.5657 30.3315 70.5334 30.2837C70.1344 29.6942 69.7401 29.1014 69.3447 28.5094C69.3242 28.4785 69.3044 28.4474 69.2861 28.4154C69.2043 28.2742 69.2419 28.1855 69.4009 28.1602C69.8155 28.094 70.2306 28.032 70.6455 27.968C70.6864 27.9616 70.727 27.9511 70.7678 27.9447C70.9564 27.9146 71.0459 27.9947 71.0384 28.268Z" fill="white"/>
<path d="M73.7676 32.2999C73.846 31.8086 73.9208 31.3167 74.0048 30.8265C74.0331 30.6616 74.1146 30.6291 74.2639 30.7094C74.443 30.8059 74.6204 30.9057 74.7953 31.01C75.1765 31.2372 75.5558 31.468 75.9356 31.6974C75.9712 31.7188 76.0118 31.736 76.0404 31.7644C76.0805 31.8041 76.1119 31.8528 76.1469 31.8978C76.1013 31.9318 76.0604 31.9818 76.0096 31.9966C75.7613 32.068 75.5102 32.1295 75.2602 32.1956C74.8587 32.3019 74.4572 32.4086 74.0559 32.516C73.8415 32.5735 73.7712 32.5196 73.7679 32.2999H73.7676Z" fill="white"/>
<path d="M73.5984 22.3023C73.927 22.3023 74.2557 22.3023 74.5846 22.3023C74.6263 22.3023 74.67 22.2964 74.7089 22.307C74.7554 22.3195 74.7979 22.3468 74.8421 22.3676C74.8193 22.4104 74.8054 22.4627 74.7721 22.495C74.2804 22.9716 73.7874 23.4465 73.2917 23.9189C73.1729 24.0321 73.0325 24.0062 72.9611 23.8591C72.7572 23.4398 72.5554 23.0191 72.3596 22.5959C72.2726 22.4074 72.346 22.3039 72.5568 22.3028C72.9041 22.3009 73.2513 22.3023 73.5984 22.3023Z" fill="white"/>
<path d="M70.5755 24.4556C70.5494 24.4467 70.491 24.4272 70.4326 24.4075C70.4512 24.3535 70.4571 24.289 70.4907 24.247C70.8998 23.7393 71.313 23.2349 71.725 22.7299C71.7456 22.7049 71.7665 22.6799 71.7898 22.6576C71.9041 22.547 71.9934 22.5556 72.062 22.6968C72.262 23.1081 72.4608 23.5199 72.6501 23.9361C72.7586 24.1742 72.6854 24.2698 72.4182 24.282C72.2294 24.2909 72.0406 24.3068 71.8524 24.3251C71.4395 24.3655 71.0268 24.4091 70.5755 24.4553V24.4556Z" fill="white"/>
<path d="M78.582 32.4497C78.5178 32.4308 78.4372 32.4108 78.359 32.3838C78.0148 32.2648 77.6706 32.1453 77.3274 32.0229C77.1389 31.9556 77.1211 31.8647 77.2804 31.744C77.888 31.2836 78.4986 30.8264 79.1106 30.3718C79.1526 30.3407 79.216 30.3384 79.2697 30.3229C79.2691 30.3749 79.2783 30.4291 79.2669 30.4786C79.1357 31.0436 79.003 31.6083 78.8665 32.1722C78.8231 32.3516 78.7247 32.4456 78.582 32.45V32.4497Z" fill="white"/>
<path d="M59.9425 40.0275C59.9425 39.3941 59.9455 38.7604 59.94 38.127C59.9389 38.0038 59.9775 37.9685 60.0985 37.9701C60.4452 37.9752 60.4452 37.9701 60.4452 38.3108C60.4452 39.5131 60.4433 40.7151 60.448 41.9175C60.4485 42.0526 60.4085 42.0915 60.2753 42.0885C59.9425 42.0807 59.9425 42.0865 59.9425 41.7476C59.9425 41.1742 59.9425 40.6009 59.9425 40.0275Z" fill="white"/>
<path d="M79.7568 28.0223C79.7568 27.6619 79.7548 27.3016 79.7593 26.9412C79.7598 26.8925 79.7804 26.8172 79.8135 26.8022C79.8566 26.7827 79.9345 26.7927 79.9748 26.8216C80.3279 27.0741 80.6774 27.3319 81.0247 27.5924C81.1354 27.6756 81.1465 27.8176 81.052 27.9358C80.9135 28.1085 80.7686 28.2767 80.6226 28.4433C80.4341 28.6588 80.242 28.8712 80.0515 29.0848C80.0145 29.1262 79.9831 29.1751 79.9392 29.2063C79.9019 29.2324 79.8463 29.2546 79.806 29.246C79.7826 29.241 79.7601 29.1715 79.7593 29.1309C79.7548 28.9093 79.757 28.6874 79.757 28.4658C79.757 28.3179 79.757 28.1702 79.757 28.0223H79.7568Z" fill="white"/>
<path d="M79.4348 25.0698C79.3729 24.769 79.3094 24.4685 79.2512 24.1669C79.2433 24.1262 79.2475 24.0598 79.2726 24.0415C79.3052 24.0179 79.3719 24.0129 79.4105 24.0301C79.7487 24.1802 80.0847 24.3353 80.4194 24.4931C80.526 24.5435 80.5597 24.6602 80.5011 24.7751C80.4152 24.943 80.3232 25.1083 80.2299 25.2724C80.1096 25.4847 79.9857 25.695 79.8634 25.906C79.8396 25.9469 79.8218 25.9932 79.7905 26.0267C79.7639 26.0549 79.7213 26.0831 79.6861 26.0828C79.6658 26.0826 79.635 26.0285 79.6274 25.9947C79.5856 25.8105 79.5493 25.6249 79.5113 25.4399C79.4858 25.3164 79.4605 25.1932 79.4351 25.0697L79.4348 25.0698Z" fill="white"/>
<path d="M33.242 39.6377C33.3102 39.5573 33.3485 39.5067 33.3922 39.4611C33.6077 39.2378 33.8844 39.1625 34.1819 39.1388C34.2567 39.133 34.2978 39.1602 34.2914 39.2403C34.2906 39.2495 34.2917 39.2589 34.2914 39.2681C34.2887 39.3696 34.3195 39.4931 34.272 39.5651C34.2367 39.6188 34.0999 39.6057 34.0084 39.6224C33.512 39.7125 33.2468 40.0528 33.2404 40.6203C33.2354 41.0552 33.2348 41.4901 33.242 41.925C33.2443 42.0559 33.1998 42.0904 33.0741 42.0879C32.7538 42.0815 32.7538 42.0868 32.7538 41.7609C32.7538 40.9559 32.7566 40.1507 32.751 39.3457C32.7502 39.2111 32.7791 39.1566 32.9264 39.1616C33.2309 39.1719 33.2309 39.1638 33.234 39.4736C33.2343 39.5145 33.2379 39.5551 33.2423 39.6374L33.242 39.6377Z" fill="white"/>
<path d="M76.9971 21.1078C77.0649 21.1578 77.1531 21.1937 77.1954 21.2593C77.506 21.7412 77.8082 22.2284 78.1091 22.7164C78.1338 22.7567 78.1269 22.8165 78.1346 22.8673C78.0882 22.8682 78.0379 22.8818 77.9962 22.8685C77.3463 22.658 76.6974 22.4439 76.0484 22.23C76.0089 22.217 75.9705 22.2003 75.9335 22.1817C75.7928 22.111 75.777 22.0151 75.8993 21.9158C76.1977 21.6739 76.4991 21.4359 76.8025 21.2004C76.8511 21.1626 76.9162 21.1456 76.9974 21.1078H76.9971Z" fill="white"/>
<path d="M73.731 21.9906C73.389 21.9906 73.0467 21.9928 72.7047 21.9881C72.6508 21.9872 72.5971 21.9547 72.5435 21.9369C72.5746 21.8896 72.5971 21.8326 72.638 21.7965C73.0565 21.4258 73.4786 21.0593 73.8984 20.6901C74.0397 20.5661 74.2135 20.5805 74.3125 20.7379C74.5043 21.0427 74.6906 21.3507 74.878 21.6583C74.9019 21.6975 74.9214 21.74 74.9373 21.7831C74.9881 21.9219 74.9487 21.9864 74.7991 21.9883C74.4432 21.9928 74.087 21.9897 73.731 21.9897V21.9906Z" fill="white"/>
<path d="M68.8452 27.5123C68.7937 27.4272 68.7559 27.3805 68.735 27.3274C68.5309 26.8083 68.3285 26.2883 68.1286 25.7675C68.0816 25.6451 68.1536 25.4983 68.2938 25.4452C68.6691 25.3031 69.0456 25.1641 69.4249 25.0334C69.5951 24.9747 69.6518 25.0331 69.5984 25.2083C69.381 25.9224 69.1585 26.6348 68.9358 27.3471C68.9216 27.3922 68.8902 27.4317 68.8452 27.5123Z" fill="white"/>
<path d="M69.2199 39.5962C69.3678 39.386 69.5608 39.2431 69.8102 39.185C69.8283 39.1808 69.8453 39.1724 69.8633 39.1694C70.2841 39.0993 70.1906 39.1218 70.2034 39.4661C70.2068 39.5553 70.1739 39.5854 70.0833 39.5892C69.5283 39.6129 69.2082 39.9438 69.2018 40.5029C69.1968 40.9331 69.1963 41.3635 69.203 41.794C69.2049 41.9191 69.1621 41.9514 69.0428 41.9494C68.7255 41.9441 68.7253 41.9491 68.7253 41.6346C68.7253 40.8711 68.7286 40.1076 68.7222 39.3443C68.7211 39.2075 68.7525 39.156 68.8982 39.1624C69.2155 39.1761 69.1693 39.1291 69.174 39.436C69.1749 39.4847 69.1793 39.5331 69.1821 39.5817C69.1946 39.5867 69.2071 39.5915 69.2194 39.5965L69.2199 39.5962Z" fill="white"/>
<path d="M74.1216 32.8605C74.1922 32.8268 74.2375 32.7962 74.2873 32.7829C74.9232 32.6116 75.5594 32.4417 76.1965 32.274C76.3755 32.2268 76.4428 32.2802 76.4025 32.4578C76.3199 32.8213 76.2262 33.1825 76.1258 33.5414C76.0844 33.6899 75.9637 33.7372 75.8186 33.6732C75.2953 33.4424 74.7736 33.2078 74.2525 32.9714C74.2103 32.9522 74.1789 32.91 74.1219 32.8607L74.1216 32.8605Z" fill="white"/>
<path d="M69.5073 23.0531C69.5068 22.9221 69.5905 22.8354 69.7409 22.8028C70.052 22.7358 70.3638 22.6724 70.6746 22.6051C70.8773 22.5612 71.0786 22.51 71.2822 22.4697C71.3347 22.4592 71.3928 22.477 71.4482 22.4817C71.4276 22.5345 71.4179 22.5957 71.3851 22.6391C71.2227 22.8526 71.0558 23.0625 70.8873 23.2716C70.6638 23.5489 70.4383 23.8244 70.2125 24.0997C70.052 24.2952 69.9675 24.2816 69.8796 24.0505C69.7712 23.7658 69.6614 23.4819 69.5532 23.1971C69.5337 23.1457 69.5196 23.0917 69.5073 23.0531Z" fill="white"/>
<path d="M72.9662 32.6772C72.8328 32.6969 72.7443 32.7159 72.6551 32.722C72.1935 32.7537 71.7322 32.7848 71.2704 32.8098C71.0721 32.8207 70.972 32.7156 70.9717 32.5157C70.9717 32.1962 70.9714 31.8767 70.9723 31.5575C70.9728 31.3878 71.0579 31.3356 71.2014 31.4309C71.7528 31.7969 72.3006 32.1684 72.8481 32.5398C72.8834 32.5638 72.9059 32.606 72.9665 32.6772H72.9662Z" fill="white"/>
<path d="M46.5758 40.6339C46.5758 41.0685 46.5725 41.5034 46.5781 41.938C46.5795 42.0539 46.5419 42.0889 46.4271 42.0881C46.0731 42.0853 46.0731 42.0895 46.0731 41.7411C46.0731 40.9364 46.0759 40.1317 46.0703 39.327C46.0695 39.1977 46.1084 39.1607 46.2358 39.1629C46.5758 39.1691 46.5758 39.1638 46.5758 39.5102C46.5758 39.8848 46.5758 40.2596 46.5758 40.6341V40.6339Z" fill="white"/>
<path d="M20.1351 40.6266C20.1351 40.1917 20.1387 39.7569 20.1329 39.322C20.1312 39.2016 20.1665 39.161 20.2902 39.1626C20.6209 39.1674 20.6209 39.1621 20.6209 39.493C20.6209 40.298 20.6178 41.1029 20.6239 41.9079C20.625 42.0469 20.5881 42.0942 20.4451 42.0884C20.0889 42.0736 20.1382 42.1384 20.1359 41.7783C20.1334 41.3943 20.1354 41.0103 20.1354 40.6263L20.1351 40.6266Z" fill="white"/>
<path d="M81.2294 27.1536C81.2311 27.2481 81.1596 27.2943 81.0567 27.2284C80.9088 27.1338 80.7681 27.0279 80.6277 26.9225C80.4425 26.784 80.2573 26.6453 80.078 26.4993C79.9131 26.365 79.9036 26.2585 80.0463 26.1025C80.2804 25.8467 80.5193 25.595 80.7612 25.3465C80.8685 25.2361 80.9541 25.2533 80.9756 25.3929C81.0645 25.9715 81.1435 26.5518 81.2294 27.1536Z" fill="white"/>
<path d="M70.6769 31.8901C70.6769 32.0333 70.6838 32.177 70.6736 32.3194C70.6694 32.3775 70.6402 32.4456 70.5985 32.4832C70.581 32.499 70.4911 32.4598 70.4533 32.4248C70.056 32.0583 69.6614 31.6891 69.2702 31.3165C69.2321 31.2803 69.2218 31.2147 69.1987 31.163C69.2521 31.1446 69.3055 31.1104 69.3586 31.111C69.709 31.1137 70.0596 31.1221 70.4097 31.1332C70.5696 31.1382 70.6694 31.2622 70.6758 31.4608C70.6802 31.604 70.6766 31.7472 70.6766 31.8904L70.6769 31.8901Z" fill="white"/>
<path d="M77.6343 21.2693C77.6757 21.2821 77.7199 21.289 77.758 21.3082C78.2268 21.5465 78.6962 21.7837 79.1625 22.027C79.3994 22.1505 79.4119 22.2417 79.2314 22.4363C79.1277 22.5481 79.022 22.6579 78.9142 22.7655C78.7362 22.9426 78.6013 22.9262 78.4701 22.7152C78.1996 22.2803 77.9293 21.8454 77.6596 21.41C77.639 21.3766 77.6254 21.3385 77.6084 21.3027C77.617 21.2915 77.6256 21.2804 77.6343 21.2693Z" fill="white"/>
<path d="M80.5431 24.2604C80.4992 24.2423 80.4516 24.2307 80.4122 24.2054C79.9873 23.9337 79.5627 23.6615 79.1406 23.3856C78.976 23.278 78.9629 23.1626 79.0975 23.0194C79.2243 22.8846 79.3558 22.7539 79.4907 22.6271C79.6158 22.5092 79.7437 22.5262 79.8191 22.6752C80.0632 23.1576 80.302 23.6428 80.5417 24.1278C80.557 24.1589 80.5615 24.1956 80.5709 24.2295C80.5618 24.2398 80.5526 24.2501 80.5434 24.2604H80.5431Z" fill="white"/>
<path d="M81.1529 28.3901C81.1529 28.4629 81.164 28.5377 81.1512 28.6084C81.0634 29.0939 80.973 29.5785 80.8779 30.0626C80.8473 30.2192 80.7545 30.272 80.6165 30.2033C80.4308 30.1107 80.2492 30.0073 80.076 29.8933C79.9389 29.8029 79.9397 29.6653 80.0657 29.5232C80.2715 29.2913 80.4814 29.063 80.6891 28.833C80.8006 28.7093 80.9107 28.5842 81.0231 28.4613C81.0525 28.4287 81.0876 28.4012 81.1198 28.3715C81.1307 28.3776 81.1418 28.384 81.1529 28.3901Z" fill="white"/>
<path d="M73.5306 20.5701C73.4725 20.6368 73.4419 20.6813 73.4024 20.7158C73.0301 21.0405 72.6583 21.3656 72.2824 21.6859C72.1175 21.8266 72.0115 21.7971 71.917 21.5978C71.8519 21.4604 71.7838 21.3242 71.7249 21.184C71.6509 21.0083 71.7073 20.8946 71.8925 20.8565C72.3928 20.7536 72.8941 20.656 73.3954 20.5581C73.4246 20.5525 73.4569 20.5628 73.5303 20.5701H73.5306Z" fill="white"/>
<path d="M69.8462 22.4311C69.8926 22.3741 69.924 22.324 69.966 22.2854C70.3422 21.9375 70.7196 21.5911 71.098 21.2457C71.2217 21.1328 71.3791 21.1676 71.4456 21.3163C71.5112 21.4637 71.5821 21.6086 71.6452 21.7571C71.7195 21.9317 71.6502 22.0749 71.4678 22.1149C70.9465 22.2289 70.4237 22.3379 69.9015 22.4483C69.8937 22.45 69.8846 22.4433 69.8465 22.4313L69.8462 22.4311Z" fill="white"/>
<path d="M68.5197 30.2086C68.4852 30.165 68.4616 30.1441 68.4491 30.1177C68.2319 29.6639 68.012 29.2112 67.8012 28.7544C67.6886 28.5102 67.7423 28.4232 68.0059 28.3787C68.1377 28.3565 68.2692 28.3312 68.401 28.3086C68.5698 28.2797 68.6891 28.374 68.6779 28.5447C68.6446 29.0555 68.6034 29.566 68.5631 30.0763C68.56 30.1141 68.5392 30.1508 68.5194 30.2086H68.5197Z" fill="white"/>
<path d="M75.4158 33.9024C75.3284 33.9177 75.2417 33.9388 75.1535 33.9477C74.7262 33.9902 74.2988 34.032 73.8711 34.0692C73.6551 34.0878 73.5697 34.0011 73.5878 33.7873C73.6017 33.6218 73.6153 33.4558 73.642 33.292C73.664 33.1572 73.7616 33.1002 73.8875 33.1555C74.3819 33.3732 74.8727 33.5987 75.3646 33.822C75.3885 33.8329 75.4113 33.847 75.4344 33.8596C75.4283 33.8737 75.4219 33.8882 75.4158 33.9024Z" fill="white"/>
<path d="M67.9175 26.1656C67.9594 26.2424 67.9881 26.2835 68.0062 26.3291C68.181 26.7704 68.359 27.2109 68.5253 27.6555C68.609 27.8796 68.5322 27.9822 68.2962 28.0095C68.1588 28.0253 68.0234 28.0576 67.886 28.0704C67.7028 28.0873 67.6391 28.0298 67.6608 27.8512C67.7225 27.3388 67.7926 26.8274 67.8616 26.3161C67.8668 26.2774 67.8891 26.2407 67.9177 26.1659L67.9175 26.1656Z" fill="white"/>
<path d="M71.5621 33.1249C71.6795 33.1113 71.7962 33.0921 71.9141 33.0851C72.3009 33.0623 72.688 33.0412 73.075 33.0248C73.275 33.0162 73.3584 33.1215 73.327 33.3195C73.303 33.4694 73.2911 33.6212 73.2641 33.7705C73.2383 33.9129 73.1771 33.9488 73.0394 33.9146C72.9994 33.9048 72.9602 33.8887 72.9232 33.8704C72.5056 33.6632 72.0882 33.4555 71.6719 33.2461C71.6289 33.2244 71.5913 33.1916 71.5513 33.1641C71.5549 33.151 71.5588 33.138 71.5624 33.1252L71.5621 33.1249Z" fill="white"/>
<path d="M68.0639 24.5822C68.0247 24.1943 67.9661 23.8189 68.2886 23.5055C68.5391 23.2619 68.7463 22.9739 68.9735 22.7058C69.0024 22.6719 69.0346 22.6408 69.0903 22.6246C68.7482 23.2772 68.4062 23.9296 68.0642 24.5822H68.0639Z" fill="white"/>
<path d="M81.5723 27.0071C81.4241 26.5453 81.3982 26.0706 81.354 25.5907C81.5492 25.7631 81.7408 25.9391 81.8239 26.1894C81.9301 26.5091 81.7074 26.7435 81.572 27.0071H81.5723Z" fill="white"/>
<path d="M67.6402 25.2486C67.5518 25.9401 67.4631 26.632 67.3747 27.3235C67.2248 27.0685 67.1063 26.8105 67.1951 26.5163C67.3213 26.0981 67.4567 25.6824 67.5885 25.2656C67.5924 25.2531 67.6005 25.2417 67.6066 25.23C67.6177 25.2361 67.6291 25.2422 67.6402 25.2483V25.2486Z" fill="white"/>
<path d="M78.2956 33.2145C78.1502 33.4442 78.0359 33.7125 77.7862 33.8404C77.529 33.9719 77.2404 33.8857 76.9531 33.8821C77.0093 33.7603 77.9349 33.2954 78.2956 33.2145Z" fill="white"/>
<path d="M20.3833 38.5588C20.1939 38.5607 20.0354 38.4178 20.0304 38.2407C20.0254 38.0597 20.1742 37.914 20.3677 37.9104C20.5768 37.9065 20.7289 38.0419 20.7258 38.2296C20.723 38.4109 20.5709 38.5568 20.3833 38.5588Z" fill="white"/>
<path d="M46.3275 37.9098C46.5349 37.9098 46.6634 38.0324 46.6622 38.2287C46.6611 38.4209 46.5249 38.5563 46.3308 38.5588C46.1342 38.5613 45.9905 38.4278 45.9888 38.2412C45.9868 38.0371 46.1173 37.9095 46.3277 37.9098H46.3275Z" fill="white"/>
<path d="M76.4131 20.4905C75.9398 20.4187 75.4922 20.3653 75.04 20.2377C75.4129 19.8926 76.1551 20.0264 76.4131 20.4905Z" fill="white"/>
<path d="M74.3857 20.0437C73.6961 20.178 73.0065 20.3123 72.3169 20.4463C72.4987 20.2216 72.7373 20.1062 73.0065 20.0826C73.4619 20.0425 73.9193 20.0264 74.3762 20C74.3793 20.0145 74.3826 20.0292 74.3857 20.0437Z" fill="white"/>
<path d="M80.8526 24.0438C80.6529 23.6453 80.4536 23.2472 80.2539 22.8487C80.2706 22.8342 80.287 22.8195 80.3037 22.8051C80.4711 22.9474 80.659 23.0723 80.8008 23.2366C81.0013 23.4688 80.9368 23.7546 80.8937 24.0271C80.8801 24.0327 80.8662 24.0382 80.8526 24.0438Z" fill="white"/>
<path d="M81.4774 28.4835C81.8222 28.7927 81.7085 29.464 81.2603 29.7743C81.3314 29.3516 81.4023 28.9292 81.4774 28.4835Z" fill="white"/>
<path d="M79.1158 21.6665C78.7368 21.4668 78.3581 21.2669 77.9541 21.0542C78.4916 20.9249 78.9885 21.1774 79.1411 21.6295C79.1328 21.6417 79.1242 21.6542 79.1158 21.6665Z" fill="white"/>
<path d="M79.5728 32.2174C79.9025 31.9179 80.2131 31.6357 80.5026 31.3729C80.5802 31.6938 80.031 32.2594 79.5728 32.2174Z" fill="white"/>
<path d="M69.1339 31.6924C69.4487 31.9849 69.7631 32.2775 70.0779 32.5697C70.0732 32.5791 70.0682 32.5886 70.0634 32.5978C69.8391 32.5221 69.6147 32.4473 69.3908 32.37C69.3711 32.3634 69.3491 32.3434 69.3416 32.3244C69.2612 32.1209 69.1834 31.916 69.105 31.7116C69.1147 31.7052 69.1244 31.6988 69.1342 31.6921L69.1339 31.6924Z" fill="white"/>
<path d="M72.5233 34.0881C72.3187 34.0984 72.1137 34.1095 71.9091 34.1173C71.8893 34.1181 71.8621 34.1045 71.8493 34.0886C71.7233 33.9318 71.5999 33.7733 71.4756 33.6151L71.5009 33.5831C71.8443 33.7363 72.188 33.8896 72.5314 34.043C72.5286 34.0581 72.5258 34.0731 72.523 34.0881H72.5233Z" fill="white"/>
<path d="M70.5395 21.338C70.2973 21.5641 70.0551 21.7901 69.7957 22.0323C69.7584 21.7242 70.1922 21.311 70.5128 21.3049C70.5217 21.3161 70.5306 21.3269 70.5395 21.338Z" fill="white"/>
<path d="M81.2791 24.2649C81.3942 24.6141 81.5094 24.9637 81.6367 25.3499C81.2894 25.0435 81.1687 24.6964 81.2424 24.2782C81.2547 24.2738 81.2669 24.2693 81.2791 24.2649Z" fill="white"/>
<path d="M75.3314 34.2596C75.0339 34.5889 74.7211 34.5547 74.3818 34.3639C74.701 34.3289 75.0077 34.2952 75.3314 34.2596Z" fill="white"/>
<path d="M68.1011 30.1177C67.7483 29.9528 67.6829 29.6536 67.7057 29.291C67.8428 29.5777 67.9715 29.8466 68.1011 30.1177Z" fill="white"/>
<path d="M77.682 20.6484C77.3956 20.7113 76.979 20.5492 76.8286 20.3203C77.117 20.431 77.387 20.535 77.682 20.6484Z" fill="white"/>
<path d="M78.77 33.1461C78.9035 32.9425 79.0803 32.7946 79.3378 32.7493C79.1571 32.8916 78.9761 33.0343 78.7953 33.1766C78.787 33.1664 78.7784 33.1561 78.77 33.1461Z" fill="white"/>
<path d="M76.6147 34.2169C76.3995 34.2714 76.184 34.3256 75.9688 34.3801C76.1495 34.1907 76.3744 34.1738 76.6147 34.2169Z" fill="white"/>
<path d="M80.9302 30.8977C81.0161 30.7414 81.1023 30.5852 81.1913 30.4233C81.2452 30.6647 81.2052 30.7431 80.9302 30.8977Z" fill="white"/>
<path d="M79.9901 22.1861C79.8508 22.0638 79.7354 21.9628 79.6069 21.8502C79.8149 21.8675 79.9286 21.9703 79.9901 22.1861Z" fill="white"/>
<path d="M71.5582 20.6556C71.43 20.7346 71.3021 20.8139 71.1611 20.9009C71.2256 20.6912 71.378 20.6453 71.5582 20.6556Z" fill="white"/>
<path d="M70.852 33.3971C70.6487 33.3966 70.5225 33.2764 70.3921 33.0957C70.5662 33.2097 70.7091 33.3034 70.852 33.3971Z" fill="white"/>
<path d="M73.6745 34.4418C73.5185 34.419 73.3625 34.3965 73.2065 34.3737C73.209 34.357 73.2115 34.3403 73.2143 34.3236C73.3695 34.3528 73.5244 34.3817 73.6795 34.4109C73.6779 34.4212 73.6762 34.4315 73.6748 34.4418H73.6745Z" fill="white"/>
<path d="M71.7123 27.261L72.8794 25.1013C72.9445 24.9809 73.119 24.9858 73.1772 25.1097L74.028 26.9203C74.0748 27.02 74.0139 27.1369 73.9054 27.1556L71.8875 27.5047C71.7503 27.5284 71.6461 27.3835 71.7123 27.261Z" fill="white"/>
<path d="M74.2328 29.5478L74.5275 27.9269C74.547 27.8199 74.6619 27.7598 74.7608 27.8049L76.4238 28.5627C76.5549 28.6225 76.5538 28.8091 76.4219 28.8672L74.4642 29.7303C74.3418 29.7843 74.2089 29.6794 74.2328 29.5478Z" fill="white"/>
<path d="M76.6651 33.3235L76.823 32.4946C76.8354 32.4299 76.901 32.39 76.9642 32.4089L77.9213 32.695C78.0185 32.7241 78.0293 32.8572 77.9382 32.9016L76.8231 33.4443C76.7408 33.4844 76.648 33.4134 76.6651 33.3235Z" fill="white"/>
<path d="M79.4008 31.7061L79.6038 30.6817C79.6162 30.619 79.6788 30.5796 79.7407 30.5956L80.3129 30.7433C80.3933 30.764 80.4234 30.8624 80.3684 30.9246L79.5932 31.8014C79.518 31.8864 79.3787 31.8174 79.4008 31.7061Z" fill="white"/>
</svg>
