<svg width="97" height="64" viewBox="0 0 97 64" fill="none" xmlns="http://www.w3.org/2000/svg">

<path d="M67.6232 36.2619C66.7591 37.2971 66.8578 37.5616 66.4734 36.2619L65.1049 30.3716C63.8751 30.3857 61.4155 30.4054 61.4155 30.3716C61.4155 30.3377 62.6394 27.9038 63.2514 26.691L61.4155 25.3296C60.4526 24.6312 60.3397 24.6806 61.4155 24.2661L64.44 23.0017L64.2601 20.2082L68.4944 21.5732L70.5737 20.2064C71.2756 19.7091 71.5595 20.2399 71.6442 20.4498L72.6176 22.3491L74.4976 22.7812C75.2436 22.9364 75.293 22.9488 75.2189 23.5307L74.8997 26.0562L76.3793 27.5323C76.9348 28.0596 76.8661 28.0066 76.3793 28.3576L74.3389 29.9854L74.554 33.7312L70.9687 32.3909L67.6232 36.2619Z" stroke="white" stroke-width="0.808487"/>
<path d="M71.023 26.7195C71.023 27.6728 70.2502 28.4456 69.2969 28.4456C68.3436 28.4456 67.5708 27.6728 67.5708 26.7195C67.5708 25.7662 68.3436 24.9934 69.2969 24.9934C70.2502 24.9934 71.023 25.7662 71.023 26.7195Z" stroke="white" stroke-width="0.808494"/>
<path d="M32.6607 32.8082V31.2694H35.4804V41.7805H36.5058V43.3186H33.4296V32.8082H32.6607Z" fill="white"/>
<path d="M43.9404 34.8591V36.1404H40.6408C40.3786 36.1404 39.8542 36.3213 39.8542 37.0451C39.8542 38.3237 44.4695 37.8016 44.4695 40.7662C44.4695 43.3187 42.0005 43.9088 37.5316 43.0623V41.7805H41.5931C41.8059 41.7234 42.2086 41.4408 42.2086 40.7662C42.2086 39.3977 37.6198 40.3553 37.6198 37.0451C37.6198 34.4738 41.117 33.756 43.9404 34.8591Z" fill="white"/>
<path fill-rule="evenodd" clip-rule="evenodd" d="M24.9698 31.2694H27.7897L31.3786 41.7802H32.4044V43.3187H28.559V41.7805H29.3328L28.559 39.4911H24.2538L23.4337 41.7805H24.4572V43.3187H20.4004V41.7802L21.395 41.7805L24.9698 31.2694ZM27.7897 37.9357H24.7141L26.3718 33.3328L27.7897 37.9357Z" fill="white"/>
<path fill-rule="evenodd" clip-rule="evenodd" d="M47.8061 39.4964H51.6507C54.4989 38.1508 52.9853 35.5192 51.6507 34.7771C50.4233 34.0946 48.0125 34.5031 47.6139 34.7771C44.7005 36.7805 45.5464 40.7286 46.3494 42.207C46.7058 42.8631 47.4905 43.3163 48.2364 43.3163H52.6806V41.7961H48.9683C47.8862 41.7961 47.7427 40.263 47.8061 39.4964ZM50.2169 38.4418H47.8061C47.7468 37.6741 48.028 36.1386 49.6279 36.1386C51.9752 36.1386 51.1058 38.3871 50.2169 38.4418Z" fill="white"/>
<path fill-rule="evenodd" clip-rule="evenodd" d="M54.4495 36.1404V34.8589C57.5265 33.8581 59.6149 34.4419 60.2745 34.8589C61.0928 35.4721 61.1157 36.3732 61.1157 36.7805V41.7802H62.1412V43.3163H59.3451V42.2052C56.6716 44.6936 54.8169 43.1182 54.1038 41.7961C52.9814 39.7151 55.4776 38.1914 56.0755 38.1914H59.0659V36.9622C59.0659 36.3202 58.5004 36.1404 58.063 36.1404H54.4495ZM56.7527 39.4735H59.0647C59.1582 40.3353 58.9303 42.0201 57.377 42.0201C55.8533 42.0201 55.5129 39.4735 56.7527 39.4735Z" fill="white"/>
</svg>
