<svg width="108" height="63" viewBox="0 0 108 63" fill="none" xmlns="http://www.w3.org/2000/svg">

<path d="M53.7172 42.9935C43.5754 42.9935 33.4336 42.9897 23.2918 43C22.3609 43 21.5231 42.8255 20.8456 42.1389C20.2806 41.5661 20.0065 40.8731 20.0052 40.0818C20 34.371 19.9962 28.6601 20.0065 22.9492C20.0104 21.2399 21.2788 20 22.9673 20C31.2977 20 39.6281 20 47.9597 20C60.1534 20 72.3483 20 84.542 20C86.2409 20 87.4912 21.2477 87.4925 22.9518C87.4964 28.6381 87.4964 34.3244 87.4925 40.012C87.4925 41.764 86.2513 42.9948 84.5045 42.9948C74.2425 42.9948 63.9792 42.9948 53.7172 42.9948V42.9935ZM53.7689 20.5585C43.5547 20.5585 33.3418 20.5585 23.1276 20.5585C21.4804 20.5585 20.556 21.492 20.556 23.1483C20.556 28.726 20.5521 34.3037 20.5638 39.8814C20.5638 40.2486 20.6194 40.6339 20.7396 40.9791C21.0551 41.8816 21.9343 42.4376 22.9841 42.4376C29.2497 42.4402 35.5165 42.4402 41.7821 42.4402C56.0044 42.4402 70.2253 42.4402 84.4476 42.4376C85.9707 42.4376 86.9365 41.4911 86.9378 39.9888C86.9417 34.2908 86.9417 28.5915 86.9288 22.8936C86.9288 22.5665 86.8602 22.2109 86.7232 21.9161C86.2784 20.9645 85.4884 20.556 84.4476 20.556C74.2218 20.5598 63.996 20.5585 53.7702 20.5585H53.7689Z" fill="white"/>
<path d="M41.039 27.6011C40.7895 27.2727 40.5735 26.9896 40.2956 26.6249C40.4986 26.6249 40.6188 26.6443 40.73 26.6198C40.8864 26.5862 41.0959 26.5629 41.1709 26.4569C41.2691 26.3185 41.2885 26.1013 41.2743 25.9216C41.2704 25.8738 41.0106 25.7832 40.8955 25.8143C39.1035 26.2862 37.3154 26.7698 35.5298 27.265C35.0812 27.3904 34.6467 27.5701 34.2149 27.7963H36.7891C36.6573 28.1752 36.5616 28.51 36.4194 28.8229C36.378 28.9134 36.2021 28.991 36.0871 28.9923C35.0967 29.0065 34.1076 29.0065 33.1172 29.0001C31.2334 28.9884 29.3509 28.991 27.4684 28.9484C26.3125 28.9225 25.1579 28.8191 24.0486 28.4454C23.8779 28.3885 23.7124 28.3109 23.5534 28.2282C23.2534 28.0704 23.0595 27.8429 23.1034 27.477C23.1047 27.4654 23.1047 27.4524 23.1034 27.4408C22.8849 26.4142 23.4758 25.8789 24.2878 25.4626C25.5147 24.8342 26.8387 24.5226 28.1756 24.2589C30.6878 23.7624 33.2297 23.4973 35.7806 23.306C36.8512 23.2258 37.923 23.1586 38.9936 23.0823C39.1229 23.0733 39.2509 23.0448 39.3983 23.0228C39.3983 22.9194 39.419 22.8302 39.3944 22.7578C39.2405 22.2988 39.0867 21.8398 38.9134 21.3873C38.7945 21.0757 38.8669 20.9425 39.2056 20.9412C39.9167 20.9386 40.6291 20.9412 41.3403 20.9412C41.3196 20.9903 41.2989 21.0382 41.2795 21.0873C41.3971 21.2076 41.4915 21.3756 41.6338 21.4429C42.5608 21.8799 43.4943 22.3066 44.4355 22.7125C44.6709 22.8147 44.9437 22.869 45.201 22.8767C45.8849 22.8987 46.5702 22.8845 47.2774 22.8845C47.2968 22.7966 47.324 22.6828 47.3537 22.5509C47.9097 22.5509 48.4604 22.547 49.0099 22.5561C49.0707 22.5561 49.1547 22.6091 49.1884 22.6634C49.5219 23.1896 50.0701 23.1767 50.5938 23.2452C52.2203 23.4586 53.8403 23.7094 55.3751 24.3248C55.675 24.4451 55.9724 24.5912 56.2374 24.7748C56.743 25.1226 56.7546 25.4923 56.2749 25.8841C56.0732 26.0483 55.8224 26.1556 55.5884 26.2772C55.4617 26.3431 55.3233 26.3832 55.0984 26.4711C55.4578 26.8758 55.7746 27.2507 56.1146 27.6037C56.1689 27.6606 56.3241 27.627 56.4314 27.627C58.641 27.627 60.8506 27.6283 63.0602 27.6283C63.227 27.6283 63.3925 27.6283 63.5916 27.6283C63.5658 27.817 63.5451 27.9644 63.5141 28.1829C63.686 28.0937 63.8089 28.033 63.9278 27.967C64.8574 27.4602 65.8439 27.3167 66.8679 27.5688C67.9566 27.8364 68.3535 28.4919 68.1402 29.5806C68.1221 29.6698 68.1092 29.7603 68.1583 29.8754C68.4608 29.2651 68.7867 28.6639 69.0582 28.0381C69.2017 27.7071 69.3917 27.6063 69.7421 27.6128C70.8385 27.6347 71.9362 27.6205 73.096 27.6205C72.9887 28.1674 72.8904 28.6691 72.7909 29.172C72.3319 31.489 71.869 33.8046 71.4178 36.1228C71.3699 36.3698 71.2794 36.4681 71.0208 36.4616C70.417 36.4461 69.8132 36.4642 69.2094 36.4538C68.9741 36.45 68.8539 36.543 68.8086 36.768C68.7492 37.0602 68.6806 37.3511 68.5307 37.6834C68.4557 37.5425 68.3794 37.4028 68.3044 37.2619C68.3471 37.7416 67.9217 38.0648 67.9346 38.5691C67.954 39.4095 67.3903 39.831 66.4891 39.7948C66.3818 39.7909 66.2745 39.7767 66.1167 39.7625C66.2266 40.2822 65.8569 40.2292 65.5491 40.2563C65.4535 40.2654 65.3565 40.268 65.2595 40.2732C64.5407 40.3119 64.2614 40.6481 64.3454 41.3696C64.3493 41.4045 64.3428 41.442 64.3351 41.4769C64.2885 41.6644 64.2394 41.8518 64.1916 42.0393C64.0235 41.9359 63.8412 41.8492 63.6899 41.7264C63.2219 41.3476 62.781 40.9338 62.2961 40.5796C62.1022 40.4374 61.8061 40.4438 61.5811 40.3326C61.1364 40.1154 60.8855 40.3792 60.5597 40.621C60.2701 40.8356 59.8848 40.9416 59.5267 41.0347C59.3625 41.0774 59.1582 40.9791 58.9746 40.9351C58.6746 40.864 58.3695 40.8033 58.0773 40.7089C57.7592 40.6067 57.4541 40.4671 57.1412 40.3494C56.7973 40.2201 56.4534 40.0934 56.1069 39.9732C55.728 39.8426 55.3453 39.7198 54.9885 39.6021C54.757 39.6525 54.5243 39.7482 54.2903 39.7495C52.4104 39.7612 50.5278 39.8012 48.6505 39.7314C48.0221 39.7081 47.3964 39.8504 46.7615 39.703C46.4267 39.6254 46.0491 39.7508 45.6897 39.7508C45.1764 39.7508 44.6709 39.6487 44.1472 39.7702C43.8899 39.8297 43.5887 39.6991 43.2952 39.6538C43.034 40.1012 42.1238 40.224 41.7294 39.8271C41.5782 39.6745 41.4605 39.5608 41.2459 39.7211C41.1877 39.7637 41.083 39.7521 41.0002 39.7534C40.4701 39.756 39.9413 39.7612 39.4112 39.7534C38.9587 39.7469 38.8436 39.5569 39.0104 39.125C39.0453 39.0345 39.0699 38.9389 39.0996 38.8458L38.9975 38.8096C38.9354 38.988 38.8565 39.1625 38.8139 39.3461C38.7453 39.6422 38.5734 39.7586 38.2721 39.7612C37.2973 39.7676 37.252 39.7159 37.5158 38.7902C37.6748 38.2342 37.848 37.6821 37.9941 37.1236C38.0614 36.8663 38.2062 36.7525 38.4583 36.7732C38.9341 36.8133 39.4086 36.8702 39.8844 36.9025C39.9762 36.9089 40.0719 36.8042 40.1676 36.8016C40.6007 36.7887 41.0351 36.7771 41.467 36.8016C41.5678 36.8068 41.6609 36.9529 41.763 37.0395C42.2867 36.6723 42.8517 36.5883 43.4529 36.8844C43.4852 36.8999 43.5266 36.9283 43.5525 36.9193C44.4666 36.5973 45.4104 36.8159 46.3387 36.7822C47.4481 36.7434 48.56 36.7706 49.6706 36.7654C49.7676 36.7654 49.8646 36.7447 49.968 36.6853C48.9246 36.6387 47.8722 36.6439 47.1817 35.5423C47.0744 35.819 47.0098 36.0336 46.905 36.2276C46.8533 36.3232 46.7253 36.4409 46.6309 36.4409C43.9403 36.4525 41.2498 36.45 38.4855 36.45C38.8617 35.3445 39.2224 34.2843 39.5961 33.1853C39.3815 33.1724 39.2263 33.1711 39.0725 33.153C38.7906 33.1194 38.6445 33.2267 38.554 33.5085C38.2695 34.3916 37.9463 35.2617 37.6541 36.1422C37.5778 36.3724 37.4679 36.4629 37.2171 36.4577C36.4568 36.4422 35.6966 36.4551 34.9351 36.4551C34.8058 36.4551 34.6778 36.4435 34.5032 36.4344C34.8135 35.5371 35.1083 34.6851 35.4044 33.8331C36.0793 31.8859 36.7594 29.9413 37.4227 27.9903C37.5158 27.7162 37.6451 27.6166 37.936 27.6231C38.8165 27.6399 39.6982 27.627 40.58 27.6231C40.7184 27.6231 40.8567 27.6115 41.0377 27.6024L41.039 27.6011ZM54.5786 28.8346C54.6626 28.6355 54.7441 28.4881 54.7881 28.3303C54.9186 27.8688 55.0596 27.433 55.7138 27.6515C55.4177 27.2003 55.1578 26.793 54.8863 26.3948C54.6588 26.0599 54.4584 25.694 54.1752 25.4135C53.6076 24.8498 53.0387 24.9467 52.6366 25.6203C52.3677 26.0729 52.2785 26.0948 51.8091 25.8401C51.6721 25.7664 51.5247 25.7096 51.3941 25.6268C51.0463 25.407 50.7438 25.1807 50.6701 24.7075C50.6287 24.4412 50.4089 24.1878 50.2292 23.9615C50.074 23.7663 49.8335 23.637 49.6797 23.4405C49.2556 22.8935 48.7371 22.6414 48.0312 22.7242C47.7235 22.7604 47.4287 22.7035 47.4933 23.1327C46.8857 23.1327 46.2974 23.1418 45.7104 23.1289C45.3626 23.1211 44.9812 23.1625 44.6734 23.0358C43.5033 22.5548 42.3242 22.0764 41.2213 21.4636C40.827 21.2451 40.4766 21.2153 40.0887 21.1856C39.7629 21.161 39.4345 21.1804 39.1009 21.1804C39.1604 21.5812 39.5457 21.8359 39.4034 22.2497C39.3892 22.2884 39.4616 22.3518 39.4797 22.4087C39.6672 22.9621 39.843 23.5193 40.0434 24.0675C40.1016 24.2279 40.2141 24.3765 40.3292 24.5071C40.6873 24.9118 41.0713 25.2958 41.4178 25.7108C41.5058 25.8169 41.5213 26.0082 41.5174 26.1595C41.5122 26.378 41.3041 26.6081 41.5911 26.8021C41.6169 26.8189 41.5601 26.9598 41.5445 27.0296C41.286 26.9585 41.07 26.8978 40.7636 26.8137C41.295 27.7395 41.9079 27.689 43.0107 27.5597C42.99 27.5016 42.9732 27.4473 42.9525 27.3942C42.822 27.0645 42.6901 26.7361 42.5582 26.4077C42.5401 26.3625 42.5272 26.3146 42.5013 26.2759C42.2518 25.8957 42.0436 25.4755 41.7372 25.1458C41.2252 24.595 40.933 24.0016 40.8877 23.2297C40.8632 22.8186 40.9213 22.4604 41.0222 21.9846C41.4333 22.3945 42.0268 22.2703 42.3487 22.7164C42.3811 22.7604 42.4483 22.7824 42.5039 22.8043C42.7263 22.8974 42.8155 23.0513 42.7547 23.2931C42.7353 23.3706 42.7276 23.4663 42.7547 23.54C42.9344 24.0339 43.0818 24.5472 43.321 25.0114C43.6068 25.566 43.9701 26.0806 44.3127 26.6043C44.3644 26.6844 44.4873 26.7659 44.5765 26.7646C44.9062 26.7594 44.9656 26.9133 44.9488 27.2119C44.9359 27.4343 44.9954 27.6683 45.3303 27.6632C46.7059 27.6438 48.0816 27.6373 49.456 27.6283C49.5375 27.6283 49.6189 27.6502 49.7172 27.6645C49.6577 27.9075 49.6008 28.1338 49.5297 28.4234C49.6939 28.3213 49.796 28.2618 49.8943 28.1959C50.4942 27.7873 51.1485 27.5261 51.8738 27.4692C52.9754 27.3826 54.0472 27.6231 54.5747 28.8359L54.5786 28.8346ZM55.2897 35.9987C55.9349 35.9987 56.5012 35.9884 57.0662 36.0039C57.2976 36.0104 57.3972 35.9341 57.4735 35.7104C58.2027 33.5809 58.9474 31.4566 59.687 29.3311C59.8266 28.929 59.9598 28.5256 60.1098 28.0821C59.4685 28.0821 58.8892 28.0937 58.3113 28.0769C58.0863 28.0704 57.9958 28.1597 57.9299 28.3588C57.6959 29.0673 57.4476 29.7707 57.2046 30.4766C57.0925 30.8033 56.8537 30.9317 56.4883 30.8619C56.8012 29.9478 57.1128 29.0363 57.4386 28.0847C56.7598 28.0847 56.1456 28.0756 55.5315 28.095C55.4423 28.0976 55.313 28.2256 55.2781 28.3239C54.6187 30.1973 53.9696 32.076 53.3206 33.9533C53.0904 34.6192 52.8629 35.2876 52.6185 36C53.243 36 53.8093 35.9858 54.3743 36.0065C54.6239 36.0155 54.7351 35.9302 54.8126 35.6975C55.1035 34.8183 55.4113 33.9442 55.7151 33.0689C55.869 32.6242 55.9142 32.6048 56.4094 32.747C56.0422 33.8124 55.675 34.8765 55.2871 36.0013L55.2897 35.9987ZM72.5517 28.0847C71.6143 28.0847 70.7248 28.0911 69.8352 28.0795C69.6077 28.0769 69.5068 28.1622 69.4098 28.3665C68.4919 30.3021 67.5584 32.2311 66.6313 34.1628C66.3469 34.7549 66.0689 35.351 65.7625 35.9987C66.184 35.9987 66.5421 35.9987 66.9003 35.9987C67.5795 35.9987 68.0544 35.6807 68.3251 35.0445C68.541 34.539 68.585 34.517 69.2056 34.645C69.0944 35.082 68.9832 35.5177 68.8655 35.9819H70.9846C71.5057 33.3573 72.0242 30.7429 72.5517 28.0847ZM51.3708 31.551C52.0587 31.551 52.6819 31.5575 53.3051 31.542C53.3788 31.5407 53.4874 31.4256 53.5132 31.3416C53.7046 30.7339 53.9076 30.1288 54.0498 29.5082C54.214 28.7945 53.8778 28.2243 53.1667 28.0381C52.0134 27.7356 50.9468 27.936 50.0055 28.7053C49.4056 29.1953 49.1341 29.878 48.9026 30.5787C48.4656 31.904 48.0079 33.2254 47.6291 34.5687C47.4119 35.3342 47.77 35.8707 48.5458 36.0621C49.6331 36.3297 50.6468 36.1345 51.557 35.457C52.2255 34.9592 52.4905 34.2183 52.7724 33.4865C52.8512 33.281 52.9043 33.0651 52.9844 32.8052C52.3987 32.8052 51.879 32.831 51.3631 32.7961C51.0243 32.7729 50.8666 32.8879 50.7735 33.2047C50.652 33.6197 50.4903 34.0244 50.3352 34.4278C50.2421 34.6709 50.0598 34.8855 49.7922 34.7898C49.4935 34.6825 49.6719 34.4136 49.7327 34.23C50.2214 32.7806 50.7231 31.3351 51.226 29.8909C51.2765 29.7448 51.3333 29.5741 51.4432 29.481C51.5648 29.3776 51.751 29.3479 51.91 29.2871C51.9333 29.4345 52.0108 29.5961 51.9721 29.7254C51.7988 30.3124 51.5919 30.889 51.3695 31.5523L51.3708 31.551ZM63.8567 33.1543C63.5942 33.1543 63.3912 33.1439 63.1883 33.1569C62.7577 33.1853 62.2005 33.0741 61.9328 33.3017C61.6458 33.5447 61.6316 34.1097 61.5023 34.5351C61.4855 34.592 61.4855 34.6541 61.4803 34.7135C61.4118 35.4402 61.6755 35.8875 62.3918 36.0479C62.8521 36.1513 63.3537 36.1836 63.8205 36.1215C64.7346 36.0013 65.5595 35.647 65.9758 34.7459C66.2111 34.2365 66.3896 33.6934 66.5331 33.1504C66.683 32.5802 66.5667 32.0488 66.0909 31.6415C65.7974 31.3907 65.5129 31.1308 65.2143 30.8878C64.7553 30.5141 64.8018 29.6582 65.3164 29.353C65.4056 29.3 65.5685 29.2768 65.6448 29.3233C65.7043 29.3608 65.7121 29.5366 65.6875 29.6375C65.6216 29.9116 65.5259 30.1792 65.4289 30.4895C65.7547 30.4895 66.0301 30.4895 66.3055 30.4895C67.0839 30.4895 67.5493 30.1103 67.7019 29.3517C67.7161 29.2806 67.7148 29.2082 67.7264 29.1371C67.8131 28.6561 67.5894 28.32 67.1705 28.1597C66.8175 28.0239 66.4309 27.9463 66.0534 27.914C64.7527 27.8041 63.6679 28.4208 63.1482 29.5677C62.971 29.9594 62.8469 30.3809 62.7474 30.7998C62.6245 31.3196 62.7758 31.7734 63.1921 32.1303C63.4843 32.3811 63.7739 32.6384 64.0519 32.9047C64.5174 33.3495 64.4476 34.3282 63.9149 34.7032C63.814 34.7743 63.6395 34.7898 63.5192 34.7575C63.4688 34.7433 63.4274 34.5248 63.4559 34.42C63.5658 34.0167 63.7067 33.621 63.8567 33.1556V33.1543ZM47.0667 34.389H45.5707C45.7194 33.9455 45.8759 33.5538 45.9793 33.1478C46.0763 32.7664 46.2767 32.6151 46.6671 32.6746C46.8559 32.703 47.055 32.6914 47.2451 32.6681C47.3343 32.6565 47.4649 32.5918 47.492 32.5194C47.6575 32.0837 47.7972 31.6389 47.9652 31.1425H46.693C46.8572 30.6705 46.9917 30.2477 47.1572 29.8366C47.1869 29.7616 47.3382 29.7008 47.4364 29.6957C47.7377 29.6776 48.0402 29.6983 48.3415 29.6827C48.4307 29.6789 48.5716 29.6271 48.5962 29.5625C48.7785 29.0867 48.9388 28.6018 49.1198 28.0795C47.9834 28.0795 46.9102 28.073 45.8384 28.0911C45.7453 28.0924 45.6108 28.245 45.572 28.3536C44.9993 29.9775 44.4381 31.6053 43.8757 33.2318C43.5615 34.1395 43.2512 35.0471 42.9254 35.9961C44.1071 35.9961 45.241 35.9974 46.3736 35.9923C46.4318 35.9923 46.5249 35.9444 46.543 35.8966C46.7202 35.4143 46.8831 34.9282 47.0692 34.3903L47.0667 34.389ZM35.1432 35.9974C35.7768 35.9974 36.3521 35.9897 36.9275 36.0013C37.1408 36.0052 37.2455 35.938 37.3141 35.7272C37.5558 34.9954 37.8261 34.2727 38.0743 33.5434C38.3626 32.6979 38.3575 32.6966 39.2664 32.6836C39.3388 32.6836 39.4138 32.6888 39.4823 32.6733C39.547 32.6578 39.6426 32.6306 39.6594 32.5854C39.8288 32.1277 39.984 31.6661 40.1637 31.145H38.9005C39.0712 30.6602 39.2134 30.2284 39.3815 29.8069C39.4073 29.7422 39.5521 29.697 39.6439 29.6931C39.9568 29.6802 40.271 29.697 40.5852 29.6853C40.6783 29.6814 40.8283 29.6401 40.8528 29.5767C41.039 29.0996 41.2006 28.6122 41.3868 28.0834C40.3007 28.0834 39.2767 28.0963 38.2527 28.0756C37.9554 28.0692 37.8364 28.1765 37.7459 28.4428C37.0968 30.346 36.4323 32.244 35.7742 34.1447C35.5673 34.7433 35.3656 35.3458 35.1445 35.9987L35.1432 35.9974ZM43.9442 28.0808C43.2861 28.0808 42.7095 28.0924 42.1315 28.0756C41.9014 28.0692 41.8264 28.1687 41.7579 28.3652C41.1011 30.2762 40.4326 32.1833 39.7693 34.0916C39.5547 34.711 39.3453 35.3329 39.1203 35.9961C40.2128 35.9961 41.2485 35.9974 42.2841 35.9923C42.3462 35.9923 42.4457 35.9535 42.4625 35.9069C42.6422 35.4221 42.809 34.932 43.0004 34.3838H41.7566C42.4884 32.2738 43.2047 30.2103 43.9442 28.0808ZM58.1768 35.9987C58.8052 35.9987 59.3831 35.9884 59.9598 36.0039C60.1964 36.0104 60.2869 35.9173 60.3619 35.7001C61.1312 33.4594 61.9147 31.2239 62.6918 28.9858C62.7913 28.6975 62.8818 28.4066 62.9878 28.0808C62.384 28.0808 61.841 28.1041 61.3032 28.0717C60.9825 28.0523 60.8648 28.1907 60.7718 28.4609C60.1214 30.3602 59.4594 32.2557 58.8039 34.1537C58.597 34.7523 58.3953 35.3535 58.1768 35.9974V35.9987ZM41.5368 37.6627C41.507 37.4429 41.5536 37.0667 41.4204 36.9852C41.2148 36.8598 40.8864 36.9426 40.6097 36.927C40.3421 36.9115 40.0965 36.9232 40.0344 37.2128C39.8702 37.1275 39.7215 36.993 39.5599 36.9762C39.1668 36.9335 38.7673 36.9348 38.3704 36.9413C38.3044 36.9413 38.2036 37.0434 38.1803 37.1171C37.9605 37.8424 37.7498 38.5704 37.552 39.3022C37.5326 39.3746 37.5959 39.5246 37.6606 39.5569C38.0872 39.7689 38.6199 39.5452 38.6962 39.0824C38.7699 38.6389 39.0362 38.6066 39.4086 38.6182C39.3297 38.8044 39.2599 38.9686 39.1888 39.1328C39.0207 39.5233 39.0582 39.5827 39.4991 39.5853C39.962 39.5879 40.4262 39.597 40.8877 39.5776C41.0597 39.5698 41.2291 39.4871 41.4553 39.4237C41.5264 39.469 41.6881 39.5246 41.7824 39.6357C42.1031 40.0159 42.5246 39.8491 42.8931 39.818C42.9887 39.8103 43.0495 39.4147 43.1297 39.1974C43.1361 39.178 43.1659 39.1677 43.1853 39.1535C43.5512 39.7185 44.2067 39.7883 44.9075 39.3978C45.1273 39.4767 45.2747 39.5659 45.4272 39.5763C45.7517 39.5995 46.0802 39.6008 46.4034 39.5698C46.512 39.5595 46.6594 39.447 46.7021 39.3448C46.8986 38.8807 46.8805 38.8626 46.393 38.7255C46.384 38.7229 46.3853 38.6854 46.3711 38.6066C46.812 38.7113 46.9697 38.4475 46.9787 38.0855C46.9813 37.9679 46.8339 37.8463 46.7667 37.7468H47.2645C47.2645 37.7894 47.2697 37.8153 47.2645 37.8386C47.1701 38.1864 47.0744 38.5355 46.9774 38.882C46.7783 39.5918 46.7783 39.5776 47.5127 39.5879C47.7959 39.5918 47.92 39.4961 47.9846 39.222C48.0855 38.7889 48.22 38.3635 48.3583 37.9407C48.388 37.8502 48.4966 37.7843 48.569 37.7067C48.5949 37.73 48.6208 37.7545 48.6466 37.7778C48.5225 38.2174 48.3971 38.657 48.2743 39.0979C48.1514 39.5388 48.1825 39.584 48.6311 39.5801C49.6396 39.5711 50.6481 39.5465 51.6579 39.5452C52.5526 39.5452 53.4473 39.5608 54.342 39.5853C54.62 39.5931 54.7609 39.5207 54.7829 39.2142C54.8243 38.6247 54.907 38.039 54.9561 37.4507C55.0001 36.927 54.9911 36.927 54.4752 36.927C53.9709 36.927 53.5973 37.1059 53.3542 37.4636C53.3413 37.324 53.3904 37.09 53.2947 36.9775C53.1163 36.768 52.3586 36.9749 52.2733 37.1417C51.9449 37.0667 51.6436 36.9387 51.3424 36.9374C48.9699 36.9219 46.596 36.9335 44.2235 36.9245C43.9416 36.9245 43.7076 36.9322 43.643 37.2748C42.9668 36.5948 42.0294 36.79 41.5355 37.6614L41.5368 37.6627ZM66.1982 37.2412C65.7573 36.7952 65.2712 36.8184 64.7618 36.9736C64.67 37.002 64.5407 37.0938 64.498 37.0615C64.123 36.7861 63.7054 36.9697 63.3111 36.9413C63.1314 36.9283 62.9426 37.0512 62.6788 37.1391C62.2832 36.8378 61.1247 36.7939 60.8946 37.0822C60.6192 37.0266 60.3787 36.9374 60.1382 36.9348C58.8285 36.9206 57.5174 36.9348 56.2077 36.9219C55.9478 36.9193 55.8444 37.024 55.7823 37.2516C55.6181 37.8554 55.4423 38.4566 55.2703 39.0578C55.1281 39.553 55.1553 39.5995 55.6776 39.5827C56.3228 39.562 56.9667 39.4974 57.6105 39.4935C58.1109 39.4896 58.6126 39.5388 59.1116 39.5853C59.3948 39.6112 59.5215 39.5 59.5939 39.2323C59.7671 38.5923 59.7775 38.5949 60.477 38.5885C60.424 38.8005 60.3916 39.0177 60.3153 39.2168C60.199 39.5168 60.336 39.5827 60.5959 39.5827C61.5553 39.5814 62.5159 39.5905 63.4753 39.5776C63.6317 39.575 63.7882 39.4819 63.9718 39.4211C64.551 39.756 65.1445 39.681 65.7159 39.275C66.1594 39.6823 66.9636 39.756 67.3993 39.3836C67.5687 39.2388 67.7174 38.9983 67.751 38.7824C67.7898 38.5251 67.6954 38.2484 67.6579 37.9808C67.72 37.9562 67.8764 37.942 67.945 37.8567C68.2191 37.5192 68.0574 37.0473 67.6334 36.94C67.1188 36.8094 66.6287 36.8598 66.1995 37.2399L66.1982 37.2412ZM56.4482 39.7547C56.4482 39.7741 56.4482 39.7922 56.4482 39.8116C56.6292 39.8607 56.8399 39.8659 56.986 39.9654C57.4515 40.2822 57.9299 40.5266 58.5117 40.5292C58.6436 40.5292 58.7806 40.6054 58.9048 40.6688C59.1957 40.8175 59.4672 40.886 59.7956 40.7283C60.1641 40.5511 60.5571 40.4361 60.8286 40.0986C60.9851 39.9034 61.1829 39.862 61.395 40.0314C61.4299 40.0598 61.479 40.1077 61.51 40.0986C61.9975 39.968 62.2961 40.2926 62.6207 40.5511C63.0952 40.93 63.5684 41.3114 64.0985 41.7368C64.0985 41.5635 64.1386 41.4329 64.0907 41.3618C63.942 41.142 64.0519 40.9778 64.1554 40.7968C64.2278 40.6714 64.2898 40.5408 64.3519 40.4102C64.445 40.2098 64.573 40.0986 64.8199 40.0947C65.1729 40.0883 65.5233 40.0275 65.9629 39.9797C65.7483 39.7275 65.6409 39.5504 65.3281 39.6732C65.1005 39.7624 64.8238 39.8129 64.5885 39.7728C64.1864 39.703 63.7985 39.725 63.3977 39.7418C62.6026 39.7741 61.8061 39.756 61.0097 39.7547C60.3753 39.7538 60.1119 39.4422 60.2197 38.8199C59.9792 38.7669 59.8589 38.8367 59.7943 39.1018C59.6353 39.7534 59.6146 39.7534 58.9345 39.7534C58.107 39.7534 57.2795 39.7534 56.4508 39.7534L56.4482 39.7547ZM59.3469 36.7667C59.3094 36.4241 59.0922 36.459 58.9061 36.459C57.5317 36.4577 56.1573 36.459 54.7829 36.459C53.8688 36.459 52.9534 36.459 52.0108 36.459C52.0845 36.1526 52.1479 35.894 52.2074 35.6483C51.5518 35.9832 50.917 36.3077 50.2421 36.6529C50.3287 36.693 50.4192 36.7719 50.4981 36.7628C51.1756 36.684 51.8441 36.865 52.5306 36.7874C53.2727 36.7047 54.033 36.7654 54.7842 36.768C55.0622 36.768 55.1708 36.9374 55.1514 37.1934C55.132 37.4571 55.0919 37.7196 55.0673 37.9834C55.0298 38.3855 54.9975 38.7876 54.9626 39.1897C54.9936 39.1936 55.0234 39.1961 55.0544 39.2C55.1966 38.7061 55.3337 38.2096 55.4824 37.717C55.803 36.6504 55.5884 36.768 56.7236 36.7654C57.5886 36.7641 58.4535 36.7654 59.3469 36.7654V36.7667ZM44.5713 27.6205C44.4756 27.9101 44.4342 28.1545 44.3192 28.3588C43.9921 28.9393 44.1511 29.4487 44.526 29.9685C44.7458 29.3362 44.9656 28.7156 45.1712 28.0911C45.1906 28.0304 45.1195 27.9334 45.0781 27.861C44.9644 27.6619 44.8428 27.4679 44.7252 27.2714C44.6799 27.1964 44.6579 27.0788 44.5933 27.0464C44.049 26.7827 43.8072 26.2487 43.4607 25.8091C43.3534 25.6734 43.2473 25.4548 43.1193 25.438C42.8853 25.407 42.6371 25.4988 42.3875 25.5415C42.4082 25.6591 42.4005 25.7341 42.4328 25.7742C42.7108 26.1039 42.7508 26.5293 42.9138 26.9029C43.1129 27.3619 43.4296 27.7808 44.0671 27.627C44.2106 27.5921 44.3696 27.6218 44.5713 27.6218V27.6205ZM59.568 36.4538L59.5357 36.5482C59.5913 36.6129 59.6417 36.7241 59.7051 36.7344C60.0813 36.79 60.4615 36.8404 60.8403 36.8559C61.4299 36.8792 62.0207 36.8727 62.6116 36.8792C62.6672 36.8792 62.7306 36.9064 62.7758 36.887C63.3318 36.6452 63.9058 36.759 64.4708 36.8184C64.8458 36.8572 65.1134 36.631 65.0552 36.2728C63.5464 36.7241 62.0673 37.0473 60.9566 35.4311C60.8519 35.6988 60.7381 35.9392 60.667 36.1914C60.605 36.4112 60.4796 36.4681 60.274 36.4577C60.04 36.4461 59.8033 36.4551 59.568 36.4551V36.4538ZM43.4814 30.7998C43.1219 31.8445 42.7741 32.8569 42.425 33.8718C43.0482 34.0373 43.1258 34.0024 43.3003 33.5021C43.4904 32.959 43.6805 32.416 43.8666 31.8717C44.0063 31.4648 43.8774 31.1076 43.4801 30.7998H43.4814ZM65.3371 36.6374C65.6823 36.7577 65.9603 36.8546 66.2628 36.9594C66.8382 36.631 67.4562 36.6116 68.0717 36.9361C68.1635 36.8249 68.2384 36.7344 68.329 36.6245C68.4065 36.7137 68.4712 36.7874 68.5526 36.8818C68.5914 36.7473 68.6225 36.6348 68.6599 36.5043C68.5513 36.4849 68.4712 36.4577 68.391 36.4577C67.4717 36.4577 66.5512 36.4577 65.6319 36.4706C65.544 36.4719 65.4574 36.565 65.3358 36.6361L65.3371 36.6374ZM67.6398 30.9899H66.1723C66.4891 31.4049 66.7658 31.7657 67.0761 32.1716C67.261 31.785 67.4329 31.4243 67.6398 30.9899ZM51.0269 24.9286C51.0049 24.9739 50.983 25.0204 50.961 25.0657C51.3773 25.3139 51.7936 25.5622 52.2526 25.8363C52.4375 25.5027 52.5875 25.2312 52.7556 24.9286H51.0269ZM50.9196 32.2363C50.9377 32.2738 50.9545 32.31 50.9726 32.3475C51.7161 32.3475 52.4582 32.3539 53.2016 32.3384C53.2844 32.3371 53.3658 32.204 53.4473 32.1328C53.4292 32.0966 53.4124 32.0592 53.3943 32.0229C52.6508 32.0229 51.9061 32.0165 51.1627 32.032C51.0799 32.0333 51.0011 32.1665 50.9196 32.2376V32.2363ZM46.287 33.9171C47.4002 33.9805 47.28 34.0697 47.452 33.215C46.6077 32.9926 46.3374 33.1504 46.287 33.9171ZM55.0712 26.0948C55.1785 26.0173 55.3376 25.9294 55.4591 25.8052C55.6259 25.6359 55.6194 25.4277 55.3893 25.3398C55.0221 25.1988 54.6355 25.1096 54.2567 24.9984L54.2295 25.0915C54.501 25.4148 54.7725 25.7393 55.0712 26.0948ZM43.9584 29.5651C43.4801 30.3951 43.4995 30.5619 44.1304 31.0093C44.4485 30.4262 44.3838 29.878 43.9584 29.5651ZM48.5755 30.1379C48.2148 30.1379 47.9497 30.1198 47.6911 30.1482C47.6058 30.1572 47.4972 30.2788 47.4688 30.3706C47.4429 30.4533 47.4998 30.6486 47.5386 30.6524C47.7868 30.6835 48.0558 30.7287 48.2846 30.6615C48.4023 30.6266 48.4553 30.368 48.5755 30.1379ZM62.2625 31.6932C62.1436 32.0165 62.0337 32.3139 61.9121 32.6448H62.9827C62.7267 32.3074 62.5133 32.0255 62.2625 31.6932ZM40.5852 30.1766C39.7926 30.081 39.6232 30.0823 39.6504 30.6524C40.4236 30.7869 40.5076 30.7455 40.5852 30.1766ZM42.1199 22.9104C42.1277 22.8677 42.1354 22.8237 42.1432 22.7811C41.8264 22.6518 41.5096 22.5238 41.1592 22.3802C41.1256 22.5781 41.0972 22.7449 41.0687 22.9104H42.1212H42.1199Z" fill="white"/>
<path d="M35.972 30.2C35.8414 30.5853 35.7418 30.9201 35.6086 31.2395C35.5763 31.3184 35.4276 31.3946 35.3332 31.3934C32.5819 31.383 29.8292 31.3959 27.0792 31.3248C26.1482 31.3016 25.2238 31.0662 24.2981 30.9176C24.1339 30.8917 23.9748 30.8206 23.8197 30.7572C23.2107 30.5064 23.0995 30.3331 23.1021 29.6686C23.1021 29.5005 23.1021 29.3311 23.1021 29.1398C24.2644 29.9815 25.6117 30.0797 26.9344 30.1159C29.8047 30.1935 32.6776 30.1793 35.5492 30.2013C35.6681 30.2013 35.7884 30.2013 35.972 30.2013V30.2Z" fill="white"/>
<path d="M35.1559 32.5971C35.024 32.9798 34.9193 33.3237 34.7796 33.6534C34.7473 33.7284 34.5922 33.7918 34.4939 33.7918C32.3205 33.7879 30.1471 33.8137 27.9749 33.7439C26.8126 33.7064 25.6554 33.5034 24.4969 33.3741C24.4607 33.3703 24.4258 33.3599 24.3909 33.3509C23.1963 33.0263 23.0553 32.8298 23.1148 31.5214C23.6824 32.0075 24.3457 32.2144 25.0322 32.292C26.192 32.4225 27.3569 32.5557 28.5218 32.5816C30.597 32.6281 32.6747 32.5958 34.7512 32.5971C34.8689 32.5971 34.9865 32.5971 35.1546 32.5971H35.1559Z" fill="white"/>
<path d="M23.1046 33.9261C23.9049 34.5959 24.8333 34.7782 25.75 34.8157C28.3759 34.9243 31.0044 34.9502 33.6317 35.007C33.8463 35.0122 34.0622 35.007 34.3299 35.007C34.1928 35.3923 34.0855 35.7324 33.9484 36.0595C33.9187 36.1293 33.7881 36.1991 33.7041 36.1978C31.5927 36.1875 29.4814 36.1733 27.3713 36.1448C26.2852 36.1306 25.2082 36.0129 24.1635 35.6949C24.0032 35.6457 23.8506 35.5721 23.6942 35.5087C23.2662 35.3342 23.0413 35.0394 23.1007 34.5545C23.124 34.3657 23.1046 34.1718 23.1046 33.9261Z" fill="white"/>
<path d="M73.9465 27.958C73.8637 28.4751 73.7758 28.9923 73.7008 29.5108C73.419 31.4515 73.141 33.3935 72.863 35.3341C72.8565 35.382 72.8578 35.4311 72.8565 35.479C72.8384 35.9922 72.8604 36.0285 73.3802 36.0634C74.9304 36.1694 76.4819 36.2664 78.0334 36.3672C78.2571 36.3814 78.4808 36.3995 78.7045 36.415C78.7032 36.4474 78.7006 36.4784 78.6993 36.5107H72.2476C72.6691 33.5939 73.3168 30.7778 73.9465 27.9567V27.958Z" fill="white"/>
<path d="M85.0324 34.4899C84.8061 34.0684 84.5837 33.6456 84.3523 33.2267C84.082 32.7367 83.6709 32.4755 83.1059 32.4212C82.5926 32.3721 82.0845 32.2751 81.5453 32.1963V32.5208C81.3759 31.9441 80.8626 32.1704 80.5045 32.0993C79.9873 31.9959 79.452 31.9829 78.9245 31.9351C78.4785 31.895 78.2108 31.6687 78.163 31.2253C78.1307 30.9305 78.1565 30.6292 78.2354 30.3202C78.2703 30.5323 78.2949 30.7482 78.3427 30.9576C78.4733 31.5291 78.5625 31.5938 79.1366 31.6532C79.805 31.723 80.4722 31.8071 81.151 31.8872C80.9247 30.6628 80.2045 29.9918 78.9931 29.825C79.9615 29.6918 80.6273 30.0694 80.9751 30.8917C81.0268 31.0132 81.1044 31.1322 81.1225 31.2589C81.2079 31.8601 81.6203 31.9816 82.1388 32.0178C82.6042 32.0515 83.0658 32.1523 83.53 32.2131C83.9049 32.2635 84.2049 32.4497 84.3743 32.7703C84.6626 33.3146 84.9044 33.8835 85.1655 34.4408C85.1216 34.4576 85.0763 34.4744 85.0324 34.4899Z" fill="white"/>
<path d="M83.6798 34.468C83.0346 33.9495 82.352 33.5125 81.4896 33.559C80.8173 33.5952 80.1488 33.7 79.4778 33.7724C78.2818 33.903 77.0871 34.0749 75.8873 34.1473C75.2732 34.1835 74.65 34.0413 74.0371 33.903C74.3784 33.9262 74.7185 33.9599 75.0598 33.9728C76.4575 34.0245 77.8138 33.7116 79.183 33.5125C80.0855 33.3819 80.9983 33.263 81.9072 33.2539C82.7256 33.2449 83.3217 33.722 83.6798 34.468Z" fill="white"/>
<path d="M81.2619 30.2155C79.1738 28.5282 76.6357 28.0821 74.1055 27.6128C76.7573 27.7537 79.2785 28.2515 81.2619 30.2155Z" fill="white"/>
<path d="M76.7134 35.3846C77.2604 35.4453 77.8202 35.4531 78.3516 35.5798C79.1351 35.766 79.6678 35.3936 80.194 34.9204C80.3582 34.773 80.5509 34.658 80.7655 34.5532C80.26 34.9773 79.9574 35.4518 80.3375 36.0957C80.6259 36.5857 81.1495 36.6956 81.9899 36.4525C81.5697 36.7719 81.1598 36.8689 80.7009 36.7098C80.1514 36.5198 79.9264 36.0996 79.8889 35.5268C78.7938 36.181 77.7581 35.5346 76.6992 35.4815C76.7044 35.4492 76.7096 35.4156 76.7134 35.3833V35.3846Z" fill="white"/>
<path d="M80.9463 34.2907C81.4648 33.9533 82.0996 33.983 82.6168 34.3683C83.1016 34.729 83.3072 35.2734 83.1533 35.788C82.9659 36.415 82.5185 36.8042 81.9444 36.8417C82.7486 36.3737 83.0163 35.8474 82.7965 35.1686C82.5715 34.4705 81.9651 34.1834 80.9476 34.292L80.9463 34.2907Z" fill="white"/>
<path d="M74.5919 29.0958C74.6992 29.5109 74.8466 29.9194 74.9061 30.3409C75.0186 31.1425 75.4607 31.6416 76.1938 31.9235C76.3167 31.9713 76.4304 32.0437 76.5455 32.1071C76.5623 32.1161 76.5675 32.1471 76.5778 32.1678C75.59 32.0916 75.0328 31.6468 74.8246 30.734C74.7031 30.1987 74.6139 29.6544 74.5117 29.1139C74.5389 29.1075 74.566 29.1023 74.5932 29.0958H74.5919Z" fill="white"/>
<path d="M68.9883 33.1349C69.4486 32.1522 69.8895 31.211 70.3316 30.2684L70.3872 30.2904C70.148 31.2317 69.9088 32.1729 69.6632 33.1349H68.9883Z" fill="white"/>
<path d="M42.5892 39.3656C42.7069 39.3953 42.8168 39.4237 42.9758 39.4638C42.9073 39.5517 42.8478 39.6655 42.8181 39.6578C42.5284 39.5841 42.1315 39.9215 41.9492 39.438C41.9427 39.4212 41.9104 39.4134 41.8897 39.4031C41.3532 39.0966 41.3428 39.0695 41.5096 38.4967C41.5833 38.242 41.6441 37.9834 41.7307 37.7339C41.9311 37.1546 42.6991 36.8456 43.2202 37.1624C43.3456 37.2387 43.4581 37.4882 43.4322 37.6317C43.3546 38.0675 43.2344 38.5019 43.0689 38.9117C42.9991 39.085 42.7728 39.1962 42.5866 39.3643L42.5892 39.3656ZM42.0953 38.9984C42.1289 39.01 42.1638 39.0216 42.1975 39.0333C42.4509 38.8393 42.7638 37.7546 42.5556 37.4339C42.4017 37.955 42.2492 38.4773 42.0953 38.9984Z" fill="white"/>
<path d="M43.899 37.1197H44.6179C44.442 37.7661 44.2739 38.379 44.1072 38.9931C44.1472 39.01 44.1873 39.0255 44.2261 39.0423C44.2752 38.9634 44.3425 38.891 44.3696 38.8057C44.495 38.4049 44.614 38.0002 44.7278 37.5955C44.8829 37.0382 44.9282 37.0111 45.5863 37.1636C45.3962 37.7817 45.2462 38.4126 45.0057 39.0074C44.8247 39.456 43.9055 39.615 43.5383 39.2983C43.4478 39.2207 43.3741 39.0345 43.4012 38.9246C43.5486 38.3195 43.7296 37.7209 43.899 37.1184V37.1197Z" fill="white"/>
<path d="M53.883 39.3733C53.8765 39.2427 53.8713 39.1289 53.8597 38.8936C53.5158 39.2129 53.2546 39.6202 52.7529 39.3254C53.0581 38.6428 53.3671 37.942 53.689 37.2477C53.72 37.1805 53.8312 37.1132 53.9088 37.1093C54.1946 37.0925 54.4816 37.1029 54.8061 37.1029C54.7298 37.8812 54.6574 38.6169 54.5824 39.3733H53.8842H53.883ZM53.7575 38.56C54.0446 38.5251 54.1105 38.348 54.0433 37.8644C53.9411 38.114 53.8545 38.326 53.7575 38.56Z" fill="white"/>
<path d="M41.3568 37.1598C41.2818 37.8916 41.2055 38.6286 41.128 39.3797H40.4233C40.4233 39.2983 40.435 39.2272 40.4194 39.1638C40.4052 39.1031 40.369 39.0113 40.3276 39.0022C40.2746 38.9906 40.1621 39.0371 40.1518 39.0772C40.0199 39.5944 39.6307 39.3371 39.27 39.3914C39.5325 38.8057 39.7704 38.2704 40.0122 37.7364C40.3263 37.0421 40.5164 36.9581 41.3555 37.1585L41.3568 37.1598ZM40.3082 38.5406C40.5914 38.538 40.6134 38.4863 40.6496 37.7429C40.519 38.048 40.422 38.273 40.3082 38.5406Z" fill="white"/>
<path d="M37.7173 39.3604C37.919 38.6519 38.1078 37.9679 38.3133 37.2904C38.3366 37.2128 38.4594 37.1158 38.537 37.1133C38.8615 37.1042 39.1886 37.1107 39.5093 37.1482C39.6153 37.1611 39.764 37.2671 39.7989 37.3654C39.9528 37.7998 39.5093 38.4514 39.0451 38.4566C38.7594 38.4592 38.6585 38.5678 38.5952 38.8303C38.4439 39.4496 38.4297 39.4457 37.7173 39.3604ZM39.1356 37.5373C39.0956 37.5218 39.0542 37.505 39.0141 37.4895C38.9507 37.6718 38.8887 37.8541 38.8253 38.0364C38.8628 38.0519 38.9016 38.0687 38.9391 38.0843C39.1447 37.9627 39.2003 37.7765 39.1356 37.5373Z" fill="white"/>
<path d="M47.0794 37.1042C47.0884 37.412 47.0251 37.5904 46.7212 37.5645C46.4355 37.5413 46.4342 37.7481 46.4032 37.964C46.5338 37.9912 46.6463 38.0145 46.782 38.0429C46.7833 38.2731 46.7743 38.4579 46.4471 38.4463C46.1174 38.4347 46.195 38.7217 46.1317 38.9324C46.3049 38.9518 46.4562 38.9687 46.6217 38.9868C46.5919 39.1173 46.5648 39.2337 46.5325 39.372H45.2563C45.458 38.6519 45.6481 37.9589 45.8524 37.271C45.8731 37.2025 45.9791 37.1146 46.0502 37.112C46.3838 37.0952 46.7199 37.1042 47.0781 37.1042H47.0794Z" fill="white"/>
<path d="M49.5502 37.9743C49.6769 37.9963 49.8036 38.0183 49.9381 38.0428C49.9161 38.282 49.8747 38.4436 49.5657 38.463C49.4351 38.4708 49.32 38.7164 49.139 38.9194C49.4299 38.9518 49.5812 38.9686 49.7545 38.988C49.7196 39.125 49.6911 39.2401 49.6575 39.3758H48.3853C48.5598 38.7514 48.7512 38.1476 48.8921 37.5334C48.9722 37.1856 49.1339 37.0537 49.4855 37.0951C49.7209 37.1236 49.9626 37.1003 50.2096 37.1003C50.2212 37.3989 50.1566 37.5567 49.8398 37.5774C49.7131 37.5851 49.5993 37.7726 49.4791 37.8773C49.5023 37.9097 49.5256 37.9407 49.5489 37.973L49.5502 37.9743Z" fill="white"/>
<path d="M47.0369 39.3513C47.196 38.7746 47.3537 38.2006 47.5166 37.6097C47.377 37.5748 47.2658 37.5476 47.1507 37.5192C47.1249 37.2141 47.2348 37.0822 47.5386 37.0951C47.9459 37.1119 48.3544 37.099 48.7759 37.099C48.8031 37.3886 48.7785 37.5787 48.4398 37.5761C48.3635 37.5761 48.2458 37.7015 48.2148 37.792C48.0984 38.1333 48.0053 38.4824 47.9123 38.8315C47.7493 39.4431 47.7157 39.4676 47.0356 39.3513H47.0369Z" fill="white"/>
<path d="M51.8232 39.4625C52.0521 38.6493 52.2202 37.9601 52.4438 37.2904C52.5693 36.9167 52.9145 37.1689 53.2235 37.09C53.0024 37.8567 52.824 38.5781 52.5667 39.2686C52.5214 39.3901 52.14 39.3862 51.8232 39.4625Z" fill="white"/>
<path d="M56.7246 39.2944C57.1758 38.6531 57.4965 37.9705 57.353 37.1262H58.0525C58.0667 37.2736 58.0796 37.4145 58.1029 37.6731C58.2955 37.2438 58.4933 36.9465 58.9588 37.1624C58.8011 37.505 58.58 37.8347 58.5024 38.1941C58.4235 38.56 58.4843 38.957 58.4843 39.3681H57.8301C57.8158 39.191 57.8016 39.0074 57.7861 38.8147C57.6141 39.019 57.4887 39.2634 57.287 39.3746C57.159 39.4457 56.9224 39.3203 56.7337 39.2828L56.7246 39.2931V39.2944Z" fill="white"/>
<path d="M66.6115 38.6182C66.6024 38.7462 66.5921 38.8639 66.5856 38.9815C66.5856 38.9906 66.5973 39.0022 66.6412 39.0669C66.7214 38.988 66.8287 38.9272 66.852 38.8445C66.8765 38.7579 66.8455 38.6286 66.7899 38.5536C66.7304 38.4721 66.6154 38.432 66.5236 38.3738C66.3232 38.2471 66.1008 38.0946 66.1952 37.836C66.2831 37.5955 66.4253 37.2942 66.6283 37.1947C66.8869 37.0693 67.2334 37.0913 67.5398 37.1042C67.7635 37.1145 67.8954 37.2645 67.8682 37.5283C67.8398 37.8088 67.6678 37.8114 67.4609 37.7933C67.3666 37.7843 67.2696 37.792 67.1752 37.792C67.1661 37.6731 67.1571 37.5709 67.1468 37.4442C66.8739 37.5425 66.8326 37.6873 66.9981 37.8787C67.0588 37.9485 67.1532 37.9924 67.236 38.0403C67.4648 38.1709 67.6717 38.3157 67.6135 38.6286C67.5489 38.9751 67.4351 39.2957 67.0381 39.3746C66.8171 39.4185 66.583 39.456 66.3619 39.4289C65.9611 39.3798 65.8693 39.2324 65.8965 38.8897C65.9275 38.5018 66.2068 38.604 66.4318 38.5936C66.4899 38.5911 66.5481 38.6092 66.6115 38.6182Z" fill="white"/>
<path d="M64.7461 38.5239C64.7164 38.7682 64.7035 38.8833 64.675 39.1186C64.825 38.9997 64.9362 38.9531 64.9672 38.8755C64.9995 38.7915 64.9866 38.6596 64.9375 38.582C64.8845 38.498 64.7733 38.445 64.6802 38.3907C64.4358 38.2485 64.2483 38.083 64.3169 37.7584C64.3919 37.4029 64.5936 37.1611 64.9504 37.1003C65.1728 37.0616 65.4094 37.0719 65.6344 37.0965C65.8774 37.1236 66.0158 37.2516 65.9938 37.5361C65.9692 37.8373 65.7753 37.7998 65.5826 37.7959C65.487 37.7946 65.3913 37.7869 65.2892 37.783V37.4624C65.0008 37.571 64.9491 37.7261 65.1327 37.8916C65.1948 37.9472 65.2711 37.9886 65.3447 38.03C65.5995 38.1722 65.8076 38.3286 65.73 38.6803C65.6473 39.054 65.487 39.3436 65.0732 39.3927C64.8496 39.4186 64.6168 39.4418 64.3983 39.4044C64.035 39.3423 63.8695 39.0281 64.0816 38.7437C64.1863 38.6027 64.4811 38.6053 64.7487 38.5252L64.7461 38.5239Z" fill="white"/>
<path d="M58.6409 39.3461C58.7664 38.8962 58.8892 38.4501 59.0146 38.0041C59.0301 37.9459 59.0508 37.889 59.0715 37.8334C59.1633 37.5955 59.2189 37.1843 59.3585 37.1533C59.7309 37.0706 60.1395 37.1391 60.5312 37.1753C60.6062 37.1817 60.7109 37.3097 60.7316 37.3977C60.8454 37.8748 60.4459 38.4488 59.9688 38.4553C59.6572 38.4592 59.568 38.5988 59.5007 38.8664C59.3546 39.456 59.3107 39.4702 58.6396 39.3461H58.6409ZM59.7787 38.0493L59.9093 38.1036C59.9688 37.9329 60.0308 37.7623 60.0826 37.589C60.0864 37.5774 60.014 37.5438 59.9778 37.5192C59.9119 37.6498 59.8421 37.7804 59.7826 37.9135C59.7658 37.951 59.78 38.0028 59.78 38.048L59.7787 38.0493Z" fill="white"/>
<path d="M56.7337 39.2842C56.3032 39.3372 55.8726 39.3902 55.3555 39.4535C55.5223 38.8523 55.6606 38.3507 55.8015 37.849C55.9429 37.3499 56.2739 37.1008 56.7945 37.1017C56.9238 37.1017 57.0518 37.1017 57.1953 37.1017C57.2031 37.3745 57.1953 37.584 56.8695 37.562C56.5773 37.5426 56.5424 37.7313 56.5488 37.9757C56.6717 37.9977 56.7855 38.0171 56.9083 38.0391C56.916 38.2847 56.863 38.4425 56.5799 38.4399C56.2476 38.4373 56.3226 38.7127 56.2657 38.9273C56.4221 38.9467 56.5618 38.9635 56.7221 38.9829C56.7221 39.0902 56.7221 39.1937 56.7221 39.2958L56.7324 39.2842H56.7337Z" fill="white"/>
<path d="M64.2123 37.1056C64.2304 37.3926 64.2019 37.5891 63.8657 37.5684C63.5813 37.5516 63.5787 37.7533 63.5891 37.9718C63.708 37.9977 63.8231 38.0223 63.942 38.0468C63.942 38.2834 63.9058 38.4541 63.611 38.4476C63.2865 38.4399 63.3525 38.7166 63.2865 38.9286C63.4507 38.948 63.5916 38.9648 63.7313 38.9816C63.7171 39.385 63.7054 39.3979 63.346 39.3979C63.0486 39.3979 62.7499 39.3979 62.397 39.3979C62.6129 38.6455 62.8107 37.9421 63.0215 37.2439C63.0396 37.1857 63.1365 37.1133 63.1986 37.1107C63.5322 37.0978 63.867 37.1043 64.2123 37.1043V37.1056Z" fill="white"/>
<path fill-rule="evenodd" clip-rule="evenodd" d="M50.034 38.8688C49.9888 39.0313 49.9436 39.1939 49.8979 39.3565L49.8992 39.3578C50.5961 39.4729 50.5987 39.4703 50.7823 38.8174C50.8122 38.7097 50.8534 38.6045 50.8946 38.4997C50.9122 38.4548 50.9298 38.4099 50.9465 38.3648C50.9675 38.3717 50.9883 38.3783 51.0089 38.3848C51.0391 38.3945 51.0691 38.404 51.0991 38.414C51.0602 38.5863 51.0218 38.7582 50.9827 38.9331C50.9502 39.0785 50.9172 39.2258 50.8832 39.3772H51.5542C51.5591 39.2366 51.6093 39.1021 51.6589 38.9691C51.7526 38.718 51.8442 38.4724 51.6253 38.2019C51.6436 38.1912 51.6661 38.1817 51.6889 38.1721C51.7371 38.1519 51.7867 38.131 51.7999 38.0959C51.8154 38.0544 51.8317 38.0126 51.8481 37.9706C51.9262 37.7711 52.0058 37.5678 52.0016 37.368C51.999 37.2788 51.6951 37.1534 51.5154 37.1198C51.2698 37.0745 51.0086 37.0848 50.7577 37.1055C50.6621 37.1133 50.516 37.1973 50.4914 37.2775C50.3299 37.8045 50.1821 38.3361 50.034 38.8688ZM51.0549 37.6458C51.004 37.7699 50.9542 37.8913 50.9013 38.0196C51.1884 37.986 51.2543 37.8076 51.1871 37.324C51.1406 37.4369 51.0974 37.5423 51.0549 37.6458Z" fill="white"/>
<path fill-rule="evenodd" clip-rule="evenodd" d="M61.4458 38.5024C61.4612 38.4583 61.4765 38.4142 61.4915 38.37L61.6583 38.4178C61.6434 38.4838 61.6286 38.5497 61.6136 38.6162C61.5568 38.8679 61.498 39.1286 61.4295 39.4354C61.5154 39.4184 61.6118 39.4083 61.7037 39.3988C61.8911 39.3793 62.0603 39.3617 62.0863 39.2906C62.1092 39.2291 62.1363 39.1669 62.1637 39.1039C62.2891 38.8158 62.4216 38.5115 62.1988 38.189C62.215 38.1799 62.2341 38.1717 62.2532 38.1635C62.2963 38.1451 62.3393 38.1268 62.35 38.0972C62.3689 38.0438 62.3901 37.9898 62.4113 37.9355C62.4848 37.7479 62.5596 37.5569 62.5466 37.3744C62.5388 37.2723 62.2259 37.1521 62.0358 37.1146C61.8094 37.0705 61.5671 37.0889 61.3339 37.1066C61.3274 37.1071 61.3209 37.1076 61.3144 37.1081C61.2252 37.1146 61.0842 37.1766 61.0636 37.2439C60.8925 37.8002 60.7346 38.3607 60.5761 38.9233C60.5357 39.0667 60.4953 39.2103 60.4546 39.3539C60.9235 39.4255 61.217 39.2544 61.3351 38.8406C61.3675 38.7265 61.4067 38.6144 61.4458 38.5024ZM61.5062 37.8089C61.5076 37.8237 61.509 37.8386 61.509 37.8528L61.5077 37.8541L61.6383 37.9084C61.6494 37.8765 61.6606 37.8446 61.6718 37.8127C61.7206 37.6739 61.7695 37.5347 61.8116 37.3938C61.8144 37.3854 61.7781 37.3649 61.7436 37.3454C61.7303 37.3379 61.7173 37.3305 61.7068 37.324C61.6898 37.3578 61.6724 37.3916 61.6551 37.4253C61.6054 37.5219 61.5557 37.6187 61.5116 37.7184C61.5001 37.7441 61.5032 37.7765 61.5062 37.8089Z" fill="white"/>
</svg>
